<?xml version="1.0" standalone="no"?>
<!DOCTYPE svg PUBLIC "-//W3C//DTD SVG 1.1//EN" "http://www.w3.org/Graphics/SVG/1.1/DTD/svg11.dtd" >
<svg xmlns="http://www.w3.org/2000/svg" xmlns:xlink="http://www.w3.org/1999/xlink" version="1.1">
<metadata>
Created by FontForge 20170731 at Thu Mar 10 00:32:20 2016
 By Aleksey,,,
Copyright 2016 Aoife Mooney (aoifemooney@gmail.com www.aoifemooney.org)
</metadata>
<defs>
<font id="BioRhyme-Bold" horiz-adv-x="1022" >
  <font-face 
    font-family="BioRhyme"
    font-weight="700"
    font-stretch="normal"
    units-per-em="1000"
    panose-1="0 0 8 0 0 0 0 0 0 0"
    ascent="800"
    descent="-200"
    x-height="471"
    cap-height="686"
    bbox="-126 -366 1389 1120"
    underline-thickness="50"
    underline-position="-150"
    unicode-range="U+000D-1F632"
  />
<missing-glyph horiz-adv-x="554" 
 />
    <glyph glyph-name="fi" unicode="fi" horiz-adv-x="799" 
d="M277 602q-26 -26 -26 -65v-66h145v-99h-145v-273h133v-99h-356v99h100v273h-100v99h100v63q0 92 56 145.5t148 53.5q46 0 85 -11t85 -32l-44 -96q-28 17 -54 25.5t-57 8.5q-44 0 -70 -26zM556 580q-25 20 -25 49q0 31 25 51t62 20q39 0 63.5 -20t24.5 -51
q0 -30 -24.5 -49.5t-63.5 -19.5q-37 0 -62 20zM791 99v-99h-326v99h100v273h-100v99h225v-372h101z" />
    <glyph glyph-name="fl" unicode="fl" horiz-adv-x="793" 
d="M784 99v-99h-326v99h100v488h-100v7q-28 17 -54 25.5t-57 8.5q-44 0 -70 -26t-26 -65v-66h145v-99h-145v-273h133v-99h-356v99h100v273h-100v99h100v63q0 92 56 145.5t148 53.5q46 0 85 -11t85 -32l-2 -4h183v-587h101z" />
    <glyph glyph-name=".notdef" horiz-adv-x="554" 
 />
    <glyph glyph-name=".null" horiz-adv-x="0" 
 />
    <glyph glyph-name="nonmarkingreturn" unicode="&#xd;" horiz-adv-x="792" 
 />
    <glyph glyph-name="space" unicode=" " horiz-adv-x="299" 
 />
    <glyph glyph-name="exclam" unicode="!" horiz-adv-x="362" 
d="M143 347q-10 78 -34 194q-8 39 -14 73t-6 52q0 38 22.5 63.5t69.5 25.5q46 0 68.5 -25.5t22.5 -63.5q0 -15 -4.5 -42t-11.5 -58q-29 -125 -36 -219l-13 -150h-51zM248.5 118q26.5 -22 26.5 -56q0 -33 -26.5 -54t-68.5 -21q-39 0 -66 21t-27 54q0 34 27 56t66 22
q42 0 68.5 -22z" />
    <glyph glyph-name="quotedbl" unicode="&#x22;" horiz-adv-x="469" 
d="M212 722l-63 -259l-78 7l12 266zM410 721l-63 -260l-79 7l12 268z" />
    <glyph glyph-name="numbersign" unicode="#" horiz-adv-x="800" 
d="M611 392l-51 -139h169v-96h-204l-57 -157h-106l57 157h-162l-57 -157h-107l57 157h-143v96h178l50 139h-163v96h198l58 159h108l-58 -159h161l58 159h107l-58 -159h147v-96h-182zM504 392h-161l-51 -139h162z" />
    <glyph glyph-name="dollar" unicode="$" horiz-adv-x="730" 
d="M613 284.5q66 -46.5 66 -127.5q0 -79 -63 -125.5t-164 -46.5q-15 0 -23 1v-132h-97v149q-74 24 -138 80v-85h-110v223l73 4q36 -45 82.5 -78.5t98.5 -50.5v152l-30 7q-113 30 -168 80.5t-55 122.5q0 52 27.5 92.5t75.5 62.5t109 22q11 0 35 -2v126h97v-151
q57 -23 108 -69v83h109v-218l-69 -4q-24 39 -65.5 71t-89.5 50v-160q125 -30 191 -76.5zM241 420.5q29 -19.5 97 -38.5v157h-13q-55 0 -84 -18.5t-29 -52.5q0 -28 29 -47.5zM521 94q31 15 31 45q0 26 -30.5 45.5t-99.5 40.5v-146h17q51 0 82 15z" />
    <glyph glyph-name="percent" unicode="%" horiz-adv-x="890" 
d="M94 22l634 645l64 -63l-633 -646zM132 338.5q-41 21.5 -66 59.5t-25 85q0 49 25 86.5t66 58t87 20.5q48 0 88 -20.5t63.5 -58t23.5 -86.5q0 -48 -23.5 -86t-64 -59t-87.5 -21q-46 0 -87 21.5zM270.5 430.5q21.5 20.5 21.5 52.5t-21.5 52t-52.5 20q-30 0 -52.5 -20
t-22.5 -52q0 -31 22.5 -52t52.5 -21q31 0 52.5 20.5zM584 -2.5q-40 20.5 -64 58.5t-24 87q0 48 24 86t64.5 59.5t87.5 21.5q46 0 87 -22t65.5 -60t24.5 -86q0 -49 -24.5 -86.5t-65.5 -58t-87 -20.5q-48 0 -88 20.5zM725.5 90q22.5 20 22.5 52t-22.5 53.5t-52.5 21.5
q-31 0 -52.5 -21t-21.5 -53t21.5 -52.5t52.5 -20.5q30 0 52.5 20z" />
    <glyph glyph-name="ampersand" unicode="&#x26;" horiz-adv-x="802" 
d="M656 -14q-74 0 -149 33q-86 -34 -187 -34q-84 0 -149 23.5t-102 68t-37 104.5q0 70 48.5 117.5t151.5 83.5q-8 40 -8 93q0 62 27 112.5t74 80t106 29.5q54 0 95 -21t62.5 -56t21.5 -77q0 -73 -62 -131t-174 -90q22 -57 57 -104t78 -80q40 26 62 61t22 73q0 23 -6.5 41
t-19.5 40l108 47q17 -24 28.5 -56.5t11.5 -69.5q0 -44 -25.5 -94.5t-72.5 -92.5q15 -3 29 -3q62 0 111 16l20 -97q-64 -17 -121 -17zM393 583q-20 -14 -33.5 -41t-13.5 -66q0 -33 4 -58q137 44 137 123q0 26 -14.5 41t-38.5 15q-21 0 -41 -14zM393 94q-90 79 -135 194
q-56 -20 -81 -42.5t-25 -55.5q0 -48 47 -75.5t123 -27.5q39 0 71 7z" />
    <glyph glyph-name="quotesingle" unicode="'" horiz-adv-x="291" 
d="M232 713l-84 -252l-77 14l33 266z" />
    <glyph glyph-name="parenleft" unicode="(" horiz-adv-x="399" 
d="M220.5 -50.5q-66.5 69.5 -111 169.5t-44.5 221q0 177 85 301t206 196l29 -45q-80 -76 -139.5 -186.5t-59.5 -265.5q0 -154 63 -270.5t136 -183.5l-29 -44q-69 38 -135.5 107.5z" />
    <glyph glyph-name="parenright" unicode=")" horiz-adv-x="399" 
d="M13 -113q80 76 139.5 186.5t59.5 266.5q0 154 -63 269.5t-136 184.5l29 43q69 -38 135.5 -107t111 -169t44.5 -221q0 -177 -84.5 -301.5t-206.5 -196.5z" />
    <glyph glyph-name="asterisk" unicode="*" horiz-adv-x="510" 
d="M214.5 808q13.5 15 41.5 16q27 -1 41 -16.5t14 -35.5q0 -15 -15 -53q-13 -36 -15 -48l-6 -29h-41l-5 29q-4 21 -14 47q-5 15 -9.5 29.5t-4.5 24.5q0 21 13.5 36zM80 695q9 0 13 -1q18 -5 49 -29q28 -20 41 -26l28 -13l-12 -39l-28 3q-15 1 -47 -3q-21 -3 -40 -3
q-8 0 -20 2q-15 4 -25.5 17t-10.5 33q0 5 2 17q12 42 50 42zM326 639q10 5 40 26q5 3 21.5 14.5t28.5 14.5q4 1 13 1q17 0 31 -10t20 -32q2 -6 2 -18q0 -19 -11 -32t-26 -17q-12 -2 -19 -2q-19 0 -40 3q-32 4 -48 3l-28 -3l-11 39zM241 538l-13 -25q-9 -17 -18 -49
q-4 -15 -9 -29t-11 -21q-14 -19 -38 -19q-18 0 -37 13q-23 18 -23 42q0 17 10 32q7 8 22 18.5t21 14.5q27 16 42 30l24 19zM299 564l24 -19q15 -13 39 -29q33 -20 43 -34q12 -15 12 -33q0 -23 -23 -41q-19 -13 -37 -13q-25 0 -39 19q-8 11 -20 51q-11 36 -17 48l-15 25z" />
    <glyph glyph-name="plus" unicode="+" horiz-adv-x="586" 
d="M532 257h-186v-199h-107v199h-185v107h185v198h107v-198h186v-107z" />
    <glyph glyph-name="comma" unicode="," horiz-adv-x="316" 
d="M87 -164q44 46 70 84t34 74q-24 -6 -47 -6q-34 0 -57 20t-23 52q0 34 25.5 56.5t63.5 22.5q46 0 75 -32t29 -80q0 -103 -137 -224z" />
    <glyph glyph-name="hyphen" unicode="-" horiz-adv-x="316" 
d="M290 183h-263v107h263v-107z" />
    <glyph glyph-name="period" unicode="." horiz-adv-x="294" 
d="M80.5 8.5q-27.5 21.5 -27.5 53.5q0 34 27.5 56t66.5 22q42 0 68.5 -22t26.5 -56q0 -33 -26.5 -54t-68.5 -21q-39 0 -66.5 21.5z" />
    <glyph glyph-name="slash" unicode="/" horiz-adv-x="533" 
d="M21 -105l370 845h111l-370 -845h-111z" />
    <glyph glyph-name="zero" unicode="0" horiz-adv-x="705" 
d="M201 24.5q-72 37.5 -117 110.5t-45 175t45 175t117 111t151 38t151 -38t117.5 -111t45.5 -175q0 -101 -45.5 -174.5t-117.5 -111t-151 -37.5t-151 37.5zM444.5 114q41.5 28 65 79t23.5 117q0 67 -23.5 118t-64.5 79t-93 28q-51 0 -92 -28t-64.5 -79t-23.5 -118
q0 -66 23.5 -117t64.5 -79t92 -28t92.5 28z" />
    <glyph glyph-name="one" unicode="1" horiz-adv-x="470" 
d="M437 105v-105h-362v105h137v363q-47 -51 -139 -76l-26 99q56 16 99.5 48.5t65.5 80.5v2h126v-517h99z" />
    <glyph glyph-name="two" unicode="2" horiz-adv-x="629" 
d="M580 208v-208h-546v105q6 79 67 133t177 97q65 25 97.5 41t46 32t14.5 38q0 36 -32.5 59.5t-88.5 23.5q-55 0 -110.5 -27t-106.5 -74l-65 77q58 58 133.5 93.5t159.5 35.5q62 0 116.5 -22t88.5 -64.5t34 -100.5q0 -52 -28 -89.5t-77.5 -64.5t-128.5 -56q-88 -33 -126 -60
t-43 -72h314v103h104z" />
    <glyph glyph-name="three" unicode="3" horiz-adv-x="608" 
d="M566 161q0 -49 -35 -87.5t-95.5 -60.5t-135.5 -22q-91 0 -158 25.5t-123 64.5l48 92q47 -34 108 -55.5t126 -21.5q60 0 97.5 21.5t37.5 56.5q0 42 -50.5 63.5t-163.5 21.5h-84v95h84q93 0 141 25t48 68q0 35 -32.5 58.5t-84.5 23.5q-103 0 -206 -89l-63 84
q53 47 125 78.5t150 31.5q68 0 123 -20.5t87 -60.5t32 -94q0 -50 -36 -88t-97 -60q157 -32 157 -150z" />
    <glyph glyph-name="four" unicode="4" horiz-adv-x="648" 
d="M636 127h-126v-140h-125v140h-364v105l361 402h128v-402h126v-105zM385 232v265l-235 -265h235z" />
    <glyph glyph-name="five" unicode="5" horiz-adv-x="622" 
d="M453.5 364.5q56.5 -22.5 91.5 -67t35 -109.5q0 -59 -34 -108t-92.5 -77.5t-128.5 -28.5q-90 0 -156 23.5t-135 62.5l41 106q59 -39 119.5 -62t113.5 -23q58 0 100.5 27.5t43.5 79.5q0 44 -42 70t-114 26q-54 0 -100.5 -10.5t-116.5 -33.5v101h1v279h477v-106h-357v-138
q70 16 131 13q66 -2 122.5 -24.5z" />
    <glyph glyph-name="six" unicode="6" horiz-adv-x="631" 
d="M473 381.5q54 -22.5 87 -67.5t33 -109q0 -62 -34 -111.5t-93 -78t-130 -28.5q-82 0 -150 37.5t-107.5 105.5t-39.5 156q0 97 42 176.5t119 125.5t177 46q63 0 111 -14.5t93 -38.5l-40 -98q-76 46 -158 46q-79 0 -136.5 -47.5t-75.5 -128.5q47 25 91 38t96 13
q61 0 115 -22.5zM431 277q-37 27 -94 27q-85 0 -171 -36q5 -53 30 -93t63 -61.5t81 -21.5q56 0 92 30.5t36 80.5q0 47 -37 74z" />
    <glyph glyph-name="seven" unicode="7" horiz-adv-x="615" 
d="M594 616v-106l-333 -524l-105 54l302 470h-313v-139h-105v245h554z" />
    <glyph glyph-name="eight" unicode="8" horiz-adv-x="671" 
d="M625 175q0 -49 -33 -92t-95.5 -69.5t-147.5 -26.5q-97 0 -165 27t-102.5 71t-34.5 95q0 49 28.5 86t70.5 62q-71 49 -71 120q0 48 32 91t91.5 69.5t137.5 26.5q81 0 144 -27t97 -71t34 -94q0 -44 -23.5 -78.5t-59.5 -58.5q97 -52 97 -131zM238.5 508.5
q-40.5 -21.5 -40.5 -60.5q0 -35 35.5 -51.5t110.5 -32.5q60 -12 93 -23q51 46 51 89q0 45 -43 72.5t-112 27.5q-54 0 -94.5 -21.5zM457 113q43 22 43 61q0 25 -19 40.5t-50 24t-91 20.5q-60 11 -112 29q-57 -48 -57 -95q0 -29 24.5 -52.5t66 -36.5t90.5 -13q62 0 105 22z
" />
    <glyph glyph-name="nine" unicode="9" horiz-adv-x="631" 
d="M445 596.5q68 -37.5 107.5 -105.5t39.5 -157q0 -97 -42 -176t-118.5 -125t-176.5 -46q-110 0 -204 53l40 97q77 -45 158 -45q79 0 136.5 47.5t74.5 127.5q-47 -25 -91 -37.5t-96 -12.5q-61 0 -115 22.5t-87 67.5t-33 109q0 62 34 111.5t93 78t130 28.5q82 0 150 -37.5z
M200 344.5q37 -27.5 94 -27.5q88 0 172 37q-5 53 -30 92.5t-63 60.5t-81 21q-56 0 -92 -29.5t-37 -77.5q0 -49 37 -76.5z" />
    <glyph glyph-name="colon" unicode=":" horiz-adv-x="331" 
d="M98 350q-27 21 -27 54t27.5 55.5t66.5 22.5q41 0 67.5 -22t26.5 -56q0 -33 -26.5 -54t-67.5 -21q-40 0 -67 21zM98 8q-27 21 -27 54q0 34 27 56t67 22q41 0 67.5 -22t26.5 -56q0 -33 -26.5 -54t-67.5 -21q-40 0 -67 21z" />
    <glyph glyph-name="semicolon" unicode=";" horiz-adv-x="339" 
d="M101 350q-27 21 -27 54t27.5 55.5t66.5 22.5q41 0 67.5 -22.5t26.5 -55.5t-26.5 -54t-67.5 -21q-40 0 -67 21zM97 -164q43 45 69 83.5t35 74.5q-24 -6 -46 -6q-35 0 -58 20t-23 52q0 34 25.5 56.5t63.5 22.5q47 0 76 -32t29 -80q0 -102 -138 -224z" />
    <glyph glyph-name="less" unicode="&#x3c;" horiz-adv-x="525" 
d="M472 476l-286 -167l286 -164v-121l-451 271v30l451 271v-120z" />
    <glyph glyph-name="equal" unicode="=" horiz-adv-x="612" 
d="M545 350h-480v107h480v-107zM545 164h-480v107h480v-107z" />
    <glyph glyph-name="greater" unicode="&#x3e;" horiz-adv-x="525" 
d="M505 326v-30l-451 -272v121l286 166l-286 165v120z" />
    <glyph glyph-name="question" unicode="?" horiz-adv-x="475" 
d="M234 700q63 0 114.5 -21t82 -60.5t30.5 -91.5q0 -60 -41 -102t-116 -82q-59 -31 -80.5 -44t-33.5 -26.5t-12 -31.5q0 -11 4 -25.5t9 -28.5l-42 -14q-33 46 -46.5 72t-13.5 54q0 39 30.5 65t99.5 61q57 27 80.5 47.5t23.5 50.5q0 29 -28.5 48.5t-71.5 19.5
q-36 0 -70.5 -8.5t-74.5 -25.5l-37 103q93 40 193 40zM134 7q-26 20 -26 50q0 32 25.5 52t62.5 20q39 0 63.5 -20t24.5 -52q0 -30 -25 -50t-63 -20q-36 0 -62 20z" />
    <glyph glyph-name="at" unicode="@" horiz-adv-x="946" 
d="M707.5 612.5q95.5 -54.5 147.5 -143t52 -185.5q0 -80 -26.5 -137t-70 -86t-93.5 -29q-44 0 -77 19.5t-51 52.5q-39 -36 -87.5 -57t-97.5 -21q-57 0 -99 31.5t-42 91.5q0 61 52.5 95t124.5 34q65 0 130 -20v29q0 33 -27.5 49.5t-69.5 16.5q-77 0 -164 -39l-22 81
q54 23 103 34.5t102 11.5q88 0 135 -41.5t47 -116.5v-97q0 -39 16.5 -61.5t45.5 -22.5q25 0 47.5 20t36.5 61t14 101q0 83 -44 157.5t-123 120t-178 45.5q-102 0 -188.5 -49.5t-137 -136.5t-50.5 -194q0 -101 46 -180.5t121.5 -124t159.5 -44.5q61 0 115 17.5t89 42.5
l27 -57q-36 -27 -96 -45.5t-133 -18.5q-101 0 -193 48t-150 141.5t-58 222.5q0 132 61.5 231.5t164 153t222.5 53.5q123 0 218.5 -54.5zM499.5 124q36.5 12 71.5 35q-1 5 -1 16v15q-53 13 -103 13q-88 0 -88 -49q0 -42 57 -42q27 0 63.5 12z" />
    <glyph glyph-name="A" unicode="A" horiz-adv-x="842" 
d="M834 105v-105h-339v105h105l-50 130h-273l-50 -130h115v-105h-334v105h94l203 477h-86v104h401v-104h-87l205 -477h96zM514 329l-98 253h-5l-98 -253h201z" />
    <glyph glyph-name="B" unicode="B" horiz-adv-x="757" 
d="M715 191q0 -91 -69 -141t-199 -50h-412v105h120v476h-120v105h394q112 0 172.5 -50t60.5 -132q0 -50 -24.5 -87t-66.5 -60q144 -38 144 -166zM285 581v-190h112q133 0 133 97q0 49 -31.5 71t-77.5 22h-136zM582 201q0 49 -35.5 71.5t-104.5 23.5h-157v-191h152
q145 0 145 96z" />
    <glyph glyph-name="C" unicode="C" horiz-adv-x="757" 
d="M721 155q-53 -78 -131.5 -123t-182.5 -45q-101 0 -184.5 46t-132 127t-48.5 181q0 104 46 186t123.5 127.5t167.5 45.5q129 0 209 -86v72h119v-231l-86 -8q-31 68 -86 108t-136 40q-57 0 -107.5 -30.5t-81 -88t-30.5 -133.5q0 -70 30 -126.5t82 -89t115 -32.5
q78 0 131.5 33.5t96.5 96.5z" />
    <glyph glyph-name="D" unicode="D" horiz-adv-x="817" 
d="M570.5 648.5q91.5 -37.5 148 -114.5t56.5 -191q0 -113 -56.5 -190.5t-148 -115t-196.5 -37.5h-339v105h120v476h-120v105h339q105 0 196.5 -37.5zM556.5 159q80.5 54 80.5 184t-80.5 184t-196.5 54h-72v-476h72q116 0 196.5 54z" />
    <glyph glyph-name="E" unicode="E" horiz-adv-x="798" 
d="M612 448v133h-328v-193h132v86h99v-267h-99v86h-132v-188h328v133h116v-238h-693v105h119v476h-119v105h693v-238h-116z" />
    <glyph glyph-name="F" unicode="F" horiz-adv-x="739" 
d="M705 686v-245h-117v140h-303v-200h125v86h99v-267h-99v86h-125v-181h129v-105h-379v105h120v476h-120v105h670z" />
    <glyph glyph-name="G" unicode="G" horiz-adv-x="791" 
d="M293.5 564.5q-53.5 -30.5 -84.5 -87.5t-31 -134q0 -73 30.5 -129.5t84.5 -88t122 -31.5q114 0 191 56v112h-202v99h321v-268q-53 -47 -134.5 -77t-175.5 -30q-112 0 -197.5 46t-131.5 127.5t-46 183.5q0 100 45.5 181.5t123.5 128.5t171 47q70 0 128 -22.5t101 -63.5v72
h116v-221l-85 -6q-34 59 -91.5 97.5t-136.5 38.5q-65 0 -118.5 -30.5z" />
    <glyph glyph-name="H" unicode="H" horiz-adv-x="928" 
d="M774 581v-476h120v-105h-373v105h120v195h-353v-195h120v-105h-373v105h120v476h-120v105h373v-105h-120v-182h353v182h-120v105h373v-105h-120z" />
    <glyph glyph-name="I" unicode="I" horiz-adv-x="443" 
d="M288 581v-476h121v-105h-374v105h120v476h-120v105h374v-105h-121z" />
    <glyph glyph-name="J" unicode="J" horiz-adv-x="571" 
d="M564 581h-118v-358q0 -73 -31 -126.5t-85 -81.5t-120 -28q-63 0 -118 21t-89 52l55 91q75 -56 141 -56q53 0 84 32t31 101l-2 353h-173v105h425v-105z" />
    <glyph glyph-name="K" unicode="K" horiz-adv-x="862" 
d="M854 105v-105h-335v105h89l-181 205l-139 -114v-91h113v-105h-366v105h120v476h-120v105h366v-105h-113v-265l320 265h-104v105h333v-105h-82l-236 -195l257 -281h78z" />
    <glyph glyph-name="L" unicode="L" horiz-adv-x="728" 
d="M690 263v-263h-655v105h120v476h-120v105h372v-105h-120v-476h278v158h125z" />
    <glyph glyph-name="M" unicode="M" horiz-adv-x="1108" 
d="M954 581v-476h120v-105h-362v105h112v242q0 63 17 163l-254 -514h-71l-252 508q14 -100 14 -157v-242h112v-105h-355v105h120v476h-120v105h265l256 -511l251 511h267v-105h-120z" />
    <glyph glyph-name="N" unicode="N" horiz-adv-x="940" 
d="M922 581h-116v-587l-69 -1l-457 512v-400h118v-105h-363v105h120v476h-120v105h245l404 -464v359h-120v105h358v-105z" />
    <glyph glyph-name="O" unicode="O" horiz-adv-x="814" 
d="M220.5 33.5q-83.5 46.5 -131 127.5t-47.5 182t47.5 182.5t131.5 128t187 46.5q102 0 185.5 -46.5t131 -128t47.5 -182.5q0 -100 -47.5 -181.5t-131 -128t-185.5 -46.5q-104 0 -187.5 46.5zM525.5 127.5q51.5 32.5 79.5 89.5t28 126q0 70 -28 127t-79 89.5t-118 32.5
q-69 0 -120.5 -33t-79.5 -89.5t-28 -126.5q0 -71 28 -127t79.5 -88.5t120.5 -32.5q66 0 117.5 32.5z" />
    <glyph glyph-name="P" unicode="P" horiz-adv-x="736" 
d="M574 659.5q61 -26.5 95 -76t34 -115.5q0 -67 -33.5 -118t-94.5 -79t-142 -28h-148v-138h131v-105h-381v105h120v476h-120v105h397q81 0 142 -26.5zM530.5 376q41.5 27 41.5 94q0 59 -42.5 85t-106.5 26h-138v-231l141 -1q63 0 104.5 27z" />
    <glyph glyph-name="Q" unicode="Q" horiz-adv-x="811" 
d="M792 -99q-49 -14 -92 -14q-116 0 -205 109q-42 -9 -87 -9q-104 0 -187.5 46.5t-131 127.5t-47.5 182t47.5 182.5t131.5 128t187 46.5q102 0 185.5 -46.5t131 -128t47.5 -182.5q0 -96 -44 -175.5t-121 -125.5q48 -48 111 -48q36 0 58 6zM255.5 540.5
q-60.5 -55.5 -75.5 -144.5h47q95 0 159.5 -38.5t113.5 -139.5l32 -64l10 -20q45 34 70 88.5t25 120.5q0 72 -28.5 129.5t-80.5 90.5t-121 33q-91 0 -151.5 -55.5zM435 92l-10 20l-30 66q-33 67 -68 94.5t-100 27.5h-48q12 -93 73.5 -151t154.5 -58q19 0 28 1z" />
    <glyph glyph-name="R" unicode="R" horiz-adv-x="797" 
d="M819 58q-28 -32 -63 -52t-86 -20q-92 0 -153.5 64.5t-95.5 200.5l-10 32h-123v-179h117v-104h-370v105h120v476h-120v105h404q121 0 192.5 -53.5t71.5 -147.5q0 -78 -45.5 -128t-129.5 -67l11 -31q27 -82 61.5 -116.5t77.5 -34.5q45 0 79 36zM288 381h155q53 0 91 26.5
t38 77.5q0 47 -37 71.5t-92 24.5h-155v-200z" />
    <glyph glyph-name="S" unicode="S" horiz-adv-x="710" 
d="M595.5 312.5q70.5 -51.5 70.5 -136.5q0 -58 -30 -100.5t-83.5 -65.5t-120.5 -23q-128 0 -246 105v-91h-116v240l79 5q53 -70 129.5 -112t145.5 -42q46 0 75 18.5t29 52.5q0 38 -50 67t-170 61q-122 33 -178.5 86.5t-56.5 133.5q0 56 31.5 99t83 66.5t111.5 23.5
q132 0 215 -89v75h116v-235l-75 -4q-37 72 -97 110t-127 38q-53 0 -86.5 -21t-33.5 -57q0 -37 41.5 -63t140.5 -53q132 -37 202.5 -88.5z" />
    <glyph glyph-name="T" unicode="T" horiz-adv-x="784" 
d="M751 686v-245h-116v140h-176v-476h120v-105h-373v105h120v476h-178v-140h-116v245h719z" />
    <glyph glyph-name="U" unicode="U" horiz-adv-x="887" 
d="M880 581h-120v-313q0 -80 -41 -144.5t-113 -100.5t-163 -36q-93 0 -165 36t-111.5 100t-39.5 145v313h-120v105h363v-105h-110v-306q0 -52 23.5 -93t65 -64t94.5 -23t95 23t65.5 64.5t23.5 93.5l-2 305h-109v105h364v-105z" />
    <glyph glyph-name="V" unicode="V" horiz-adv-x="836" 
d="M836 581h-109l-275 -594h-68l-274 594h-110v105h347v-105h-99l178 -414l174 414h-112v105h348v-105z" />
    <glyph glyph-name="W" unicode="W" horiz-adv-x="1175" 
d="M1173 581h-105l-213 -594h-68l-207 464l-192 -464h-67l-216 594h-103v105h351v-105h-109l125 -379l183 470h75l196 -473l118 382h-111v105h343v-105z" />
    <glyph glyph-name="X" unicode="X" horiz-adv-x="811" 
d="M487 352l226 -247h85v-105h-347v94h96l-152 178l-156 -178h98v-94h-324v105h95l214 232l-228 244h-81v105h346v-94h-101l156 -175l159 175h-102v94h327v-105h-97z" />
    <glyph glyph-name="Y" unicode="Y" horiz-adv-x="801" 
d="M468 276v-171h124v-105h-380v105h123v165l-237 311h-86v105h322v-105h-81l163 -223l152 223h-100v105h322v-105h-93z" />
    <glyph glyph-name="Z" unicode="Z" horiz-adv-x="753" 
d="M64 91l421 457q12 12 31.5 21.5t33.5 13.5l-1 7q-32 -8 -70 -8h-301v-141h-116v245h630v-91l-423 -459q-11 -13 -30.5 -21.5t-34.5 -11.5l2 -6q37 8 70 8h306v140h116v-245h-634v91z" />
    <glyph glyph-name="bracketleft" unicode="[" horiz-adv-x="354" 
d="M227 738v-789h114v-105h-227v1000h227v-106h-114z" />
    <glyph glyph-name="backslash" unicode="\" horiz-adv-x="523" 
d="M24 740h112l370 -845h-111z" />
    <glyph glyph-name="bracketright" unicode="]" horiz-adv-x="354" 
d="M240 -156h-226v105h113v789h-113v106h226v-1000z" />
    <glyph glyph-name="asciicircum" unicode="^" horiz-adv-x="551" 
d="M392 429l-112 250l-120 -250h-124l207 384h78l194 -384h-123z" />
    <glyph glyph-name="underscore" unicode="_" horiz-adv-x="420" 
d="M433 -195h-446v105h446v-105z" />
    <glyph glyph-name="a" unicode="a" horiz-adv-x="608" 
d="M598 13q-14 -9 -37 -15t-51 -6q-38 0 -66.5 21.5t-39.5 60.5q-99 -88 -196 -88q-69 0 -116 38.5t-47 110.5q0 50 28 86t73.5 54.5t96.5 18.5q44 0 80 -8.5t74 -24.5v37q0 40 -32.5 60t-83.5 20q-75 0 -182 -41l-25 95q121 51 224 51q105 0 161.5 -50.5t56.5 -139.5v-158
q0 -39 29 -39q14 0 28 6zM190 102.5q21 -13.5 52 -13.5q29 0 70 16t85 49v27q-61 23 -130 23q-41 -1 -69.5 -16.5t-28.5 -45.5q0 -26 21 -39.5z" />
    <glyph glyph-name="b" unicode="b" horiz-adv-x="652" 
d="M508 452.5q50 -31.5 80 -88t30 -126.5q0 -71 -32.5 -129t-89.5 -90.5t-127 -32.5q-94 0 -170 76l-36 -62h-72v587h-89v99h212v-305q39 48 87.5 75.5t98.5 27.5q58 0 108 -31.5zM446 132q41 41 41 107q0 61 -35 100.5t-92 39.5q-36 0 -74 -24t-72 -67v-147q64 -50 125 -50
q66 0 107 41z" />
    <glyph glyph-name="c" unicode="c" horiz-adv-x="539" 
d="M511 74q-45 -42 -101 -65t-120 -23q-69 0 -128 32t-94 89t-35 129q0 68 32.5 125t87 90t117.5 33q48 0 82 -15.5t61 -45.5v48h88v-168l-53 -4q-51 83 -140 83q-63 0 -104 -40.5t-41 -103.5q0 -43 19.5 -76t52 -51.5t70.5 -19.5q45 0 80.5 16.5t72.5 48.5z" />
    <glyph glyph-name="d" unicode="d" horiz-adv-x="654" 
d="M639 11q-15 -8 -37.5 -14t-46.5 -6q-39 0 -68 18.5t-43 53.5q-85 -77 -179 -77q-61 0 -114.5 31.5t-85.5 87.5t-32 126q0 72 32.5 130t89 90.5t126.5 32.5q85 0 153 -59v162h-99v99h222v-553q0 -38 28 -38q15 0 29 6zM199.5 130q36.5 -39 97.5 -39t137 60v180
q-63 48 -122 48q-66 0 -107.5 -41t-41.5 -107q0 -62 36.5 -101z" />
    <glyph glyph-name="e" unicode="e" horiz-adv-x="564" 
d="M533 72q-100 -86 -231 -86q-70 0 -131.5 28t-99.5 82t-38 129q0 78 38 136.5t101 90.5t134 32q62 0 110.5 -19t76 -53.5t27.5 -79.5t-27.5 -77.5t-72 -48.5t-95.5 -16q-48 0 -88.5 10t-83.5 28q1 -64 45 -100.5t109 -36.5q99 1 174 63zM229.5 361.5
q-40.5 -24.5 -61.5 -65.5q62 -22 127 -22q45 1 72.5 16t27.5 42q0 24 -22 39t-58 15q-45 0 -85.5 -24.5z" />
    <glyph glyph-name="f" unicode="f" horiz-adv-x="437" 
d="M277 602q-26 -26 -26 -65v-66h145v-99h-145v-273h133v-99h-356v99h100v273h-100v99h100v63q0 92 56 145.5t148 53.5q46 0 85 -11t85 -32l-44 -96q-28 17 -54 25.5t-57 8.5q-44 0 -70 -26z" />
    <glyph glyph-name="g" unicode="g" horiz-adv-x="572" 
d="M515 62.5q42 -33.5 42 -96.5q0 -55 -42.5 -96t-114.5 -63t-159 -22q-101 0 -165.5 36t-64.5 101q0 52 55 98q-39 33 -39 80q0 69 73 115q-36 41 -36 97q0 54 33 93t84 59t103 20q58 0 106 -19q17 52 59 78t100 27v-102q-35 -1 -60.5 -8.5t-43.5 -25.5q60 -47 60 -119
q0 -54 -33 -93t-84 -59t-104 -20q-72 0 -129 30q-20 -22 -20 -43q0 -24 17.5 -35t47.5 -11q32 0 92 6q68 6 113 6q68 0 110 -33.5zM213.5 373.5q-27.5 -23.5 -27.5 -61.5q0 -37 27.5 -59.5t71.5 -22.5q43 0 70.5 23.5t27.5 61.5q0 37 -27.5 59.5t-70.5 22.5
q-44 0 -71.5 -23.5zM388 -94.5q55 20.5 55 53.5q0 22 -16 31t-50 9q-22 0 -78 -6q-70 -8 -123 -8q-23 0 -46 5q-12 -21 -12 -41q0 -31 35.5 -47.5t104.5 -16.5q75 0 130 20.5z" />
    <glyph glyph-name="h" unicode="h" horiz-adv-x="726" 
d="M716 99v-99h-293v99h81v163q0 51 -25.5 80.5t-72.5 29.5q-73 0 -160 -101v-172h81v-99h-306v99h100v488h-100v99h225v-319q53 60 102.5 88t109.5 28q85 0 128 -55.5t43 -164.5v-164h87z" />
    <glyph glyph-name="i" unicode="i" horiz-adv-x="362" 
d="M119 580q-25 20 -25 49q0 31 25 51t62 20q39 0 63.5 -20t24.5 -51q0 -30 -24.5 -49.5t-63.5 -19.5q-37 0 -62 20zM354 99v-99h-326v99h100v273h-100v99h225v-372h101z" />
    <glyph glyph-name="j" unicode="j" horiz-adv-x="351" 
d="M124 580q-25 20 -25 49q0 31 25 51t62 20q39 0 63.5 -20t24.5 -51q0 -30 -24.5 -49.5t-63.5 -19.5q-37 0 -62 20zM257 -17q0 -70 -26.5 -120t-72.5 -75.5t-105 -25.5q-35 0 -59.5 5.5t-43 12t-26.5 9.5l31 104q28 -11 48.5 -16t44.5 -5q39 0 61.5 28t22.5 80v392h-99v99
h224v-488z" />
    <glyph glyph-name="k" unicode="k" horiz-adv-x="694" 
d="M703 54q-27 -33 -59 -50.5t-78 -17.5q-69 0 -117 50t-65 138q-71 5 -140 38v-113h86v-99h-309v99h100v488h-100v99h223v-297q98 93 201 93q74 0 124 -38t50 -110q0 -56 -36 -94t-93 -55q9 -43 31.5 -66.5t49.5 -23.5q39 0 68 31zM377 262q47 0 79.5 17t32.5 48
q0 27 -20 40t-58 13q-34 0 -77.5 -19t-89.5 -56v-14q70 -29 133 -29z" />
    <glyph glyph-name="l" unicode="l" horiz-adv-x="356" 
d="M347 99v-99h-326v99h100v488h-100v99h225v-587h101z" />
    <glyph glyph-name="m" unicode="m" horiz-adv-x="1068" 
d="M1058 99v-99h-291v99h79v169q0 44 -21.5 71t-61.5 27q-75 0 -149 -90v-6v-171h79v-99h-286v99h82v169q0 44 -22 71t-63 27q-37 0 -75.5 -23.5t-75.5 -69.5v-174h81v-99h-306v99h100v273h-100v99h225v-97q42 53 92 81t105 28q57 0 96.5 -31t56.5 -90q43 58 95 89.5
t110 31.5q76 0 119.5 -55t43.5 -158v-171h87z" />
    <glyph glyph-name="n" unicode="n" horiz-adv-x="736" 
d="M726 99v-99h-293v99h82v163q0 48 -25.5 76t-72.5 28q-76 0 -164 -100v-167h81v-99h-306v99h100v273h-100v99h225v-108q54 61 103.5 90.5t106.5 29.5q86 0 131.5 -56t45.5 -164v-164h86z" />
    <glyph glyph-name="o" unicode="o" horiz-adv-x="599" 
d="M168 17q-61 31 -98 88t-37 130t37 130t98 88t131 31q68 0 129.5 -31t99 -88t37.5 -130t-36.5 -130t-97.5 -88t-132 -31q-70 0 -131 31zM396.5 126q38.5 41 38.5 109t-38.5 109t-96.5 41q-59 0 -97.5 -41t-38.5 -109t38.5 -109t97.5 -41q58 0 96.5 41z" />
    <glyph glyph-name="p" unicode="p" horiz-adv-x="675" 
d="M531 452.5q50 -31.5 80 -88t30 -126.5q0 -71 -32.5 -129t-89 -90.5t-126.5 -32.5q-85 0 -156 62v-167h98v-99h-321v99h100v491h-100v99h223v-90q39 48 87.5 75.5t98.5 27.5q58 0 108 -31.5zM469.5 132q40.5 41 40.5 107q0 61 -35 100.5t-92 39.5q-37 0 -75 -23.5
t-71 -66.5v-148q64 -50 125 -50q67 0 107.5 41z" />
    <glyph glyph-name="q" unicode="q" horiz-adv-x="661" 
d="M531 290v-409h100v-99h-335v99h112v158q-65 -53 -149 -53q-62 0 -114 31.5t-82 87.5t-30 126q0 73 35 131t95 90t133 32q74 0 157 -35l33 37h45v-77q62 -37 110 -84v-126q-43 43 -110 91zM408 359q-52 20 -89 20q-67 0 -111.5 -41t-44.5 -107q0 -60 37 -100t99 -40
q54 0 109 40v228z" />
    <glyph glyph-name="r" unicode="r" horiz-adv-x="558" 
d="M514 483v-210h-109v86q-29 0 -69.5 -25.5t-82.5 -71.5v-163h101v-99h-326v99h100v273h-100v99h225v-110q50 56 105.5 89t105.5 33h50z" />
    <glyph glyph-name="s" unicode="s" horiz-adv-x="530" 
d="M432.5 223q48.5 -39 48.5 -102q0 -39 -23 -70t-63 -48t-89 -17q-50 0 -95 16t-80 46v-49h-91v155l55 5q30 -38 85 -65t102 -27q33 0 51 11.5t18 31.5q0 22 -28.5 39t-101.5 37q-90 25 -136 62.5t-46 97.5q0 38 21 69.5t59 50t88 18.5q93 0 157 -59v46h91v-154l-55 -5
q-27 43 -69.5 67t-88.5 24q-32 0 -52.5 -12t-20.5 -31q0 -21 27.5 -36.5t96.5 -35.5q91 -26 139.5 -65z" />
    <glyph glyph-name="t" unicode="t" horiz-adv-x="444" 
d="M451 36q-36 -23 -74 -36t-86 -13q-84 0 -132.5 53t-48.5 147v185h-99v99h99v131h125v-131h144v-99h-144v-186q0 -44 20 -66.5t57 -22.5q25 0 47 8t49 24z" />
    <glyph glyph-name="u" unicode="u" horiz-adv-x="674" 
d="M659 11q-40 -20 -84 -20q-49 0 -82 27t-40 76q-49 -54 -94 -80.5t-96 -26.5q-82 0 -126.5 56t-44.5 164v165h-87v99h212v-262q0 -50 21 -78t71 -28q66 0 142 84v185h-79v99h204v-338q0 -38 29 -38q16 0 28 5z" />
    <glyph glyph-name="v" unicode="v" horiz-adv-x="648" 
d="M633 372h-69l-206 -385h-67l-212 385h-64v99h265v-89h-70l127 -247l122 247h-73v89h247v-99z" />
    <glyph glyph-name="w" unicode="w" horiz-adv-x="888" 
d="M872 372h-65l-154 -385h-66l-143 297l-141 -297h-68l-151 385h-67v99h271v-89h-83l81 -230l135 306h73l131 -302l79 226h-81v89h249v-99z" />
    <glyph glyph-name="x" unicode="x" horiz-adv-x="638" 
d="M393 243l153 -145h59v-99h-274v89h66l-93 90l-98 -90h71v-89h-244v99h60l153 130l-153 144h-60v99h275v-89h-66l93 -90l98 90h-71v89h243v-99h-60z" />
    <glyph glyph-name="y" unicode="y" horiz-adv-x="654" 
d="M639 372h-63l-188 -411q-47 -102 -102.5 -150.5t-130.5 -48.5q-41 0 -73 12.5t-71 36.5l49 95q24 -15 46.5 -24.5t48.5 -9.5q43 0 75.5 26t59.5 86l1 3l-197 385h-68v99h273v-89h-73l122 -267l117 267h-69v89h243v-99z" />
    <glyph glyph-name="z" unicode="z" horiz-adv-x="593" 
d="M568 158q-6 -53 -35.5 -92t-71.5 -59.5t-86 -20.5q-57 0 -101.5 23.5t-95.5 72.5q-29 -38 -50 -96l-102 41q25 73 66 122.5t81 76.5t104 62l62 36q-35 25 -78.5 39.5t-107.5 14.5v-105h-105v211h77q71 0 119.5 -12t83.5 -34t78 -60q33 41 47 108l105 -40
q-17 -69 -46 -114.5t-69.5 -75t-101.5 -58.5q-66 -30 -106 -60q34 -24 63 -35.5t58 -11.5q38 0 67.5 27.5t37.5 69.5z" />
    <glyph glyph-name="braceleft" unicode="{" horiz-adv-x="486" 
d="M380 -81q29 7 63 22l35 -98q-47 -19 -84.5 -28t-91.5 -9t-99.5 19.5t-73 56.5t-27.5 89q0 45 23.5 79.5t67.5 76.5q32 32 46.5 51t14.5 40q0 79 -132 76h-56v92h56q65 0 98.5 18t33.5 57q0 21 -15 40.5t-46 49.5q-44 43 -67.5 77t-23.5 80q0 52 27.5 89t73 56.5
t99.5 19.5t91.5 -9t84.5 -28l-35 -97q-35 14 -63.5 21t-60.5 7q-42 0 -69.5 -15.5t-27.5 -51.5q0 -20 14 -38t44 -45q29 -27 45 -45t28 -43.5t12 -56.5q0 -53 -35 -86.5t-96 -45.5q61 -12 96 -46t35 -87q0 -44 -22 -76t-63 -68q-30 -27 -44 -45t-14 -39q0 -35 28 -51t69 -16
q32 0 61 7z" />
    <glyph glyph-name="bar" unicode="|" horiz-adv-x="359" 
d="M240 837v-1030h-120v1030h120z" />
    <glyph glyph-name="braceright" unicode="}" horiz-adv-x="486" 
d="M265 276q-33 -18 -33 -58q0 -20 14 -38.5t46 -50.5q44 -44 67.5 -78.5t23.5 -79.5q0 -52 -27 -89t-72.5 -56.5t-99.5 -19.5t-92.5 9t-84.5 28l35 98q36 -14 64.5 -21.5t59.5 -7.5q41 0 68.5 16t27.5 51q0 21 -14 39t-44 45q-41 36 -63 68t-22 76q0 52 35 86.5t96 46.5
q-60 12 -95.5 45.5t-35.5 86.5q0 31 12 56.5t28 43.5t45 45q30 27 44 45t14 38q0 36 -27.5 51.5t-68.5 15.5q-32 0 -61.5 -7t-62.5 -21l-35 97q46 19 84.5 28t92.5 9t99.5 -19.5t72.5 -56.5t27 -89q0 -46 -23 -79.5t-67 -76.5q-31 -30 -46 -50t-15 -41q0 -80 131 -75h55v-92
h-55q-65 0 -98 -18z" />
    <glyph glyph-name="asciitilde" unicode="~" horiz-adv-x="704" 
d="M389.5 205.5q-37.5 24.5 -76.5 72.5q-36 41 -52.5 55.5t-34.5 14.5q-32 0 -49 -36t-18 -111l-105 3q1 107 42.5 178t129.5 71q49 0 85.5 -23.5t75.5 -69.5q35 -42 53 -58t37 -16q66 0 66 146l107 -2q-2 -108 -43.5 -178.5t-129.5 -70.5q-50 0 -87.5 24.5z" />
    <glyph glyph-name="uni00A0" unicode="&#xa0;" horiz-adv-x="415" 
 />
    <glyph glyph-name="exclamdown" unicode="&#xa1;" horiz-adv-x="362" 
d="M113.5 582q-26.5 22 -26.5 56q0 33 26.5 54t68.5 21q39 0 66 -21t27 -54q0 -34 -27 -56t-66 -22q-42 0 -68.5 22zM219 353q10 -78 34 -194q8 -39 14 -73t6 -52q0 -38 -22.5 -63.5t-69.5 -25.5q-46 0 -68.5 25.5t-22.5 63.5q0 15 4.5 42t11.5 58q29 125 36 219l13 150h51z
" />
    <glyph glyph-name="cent" unicode="&#xa2;" horiz-adv-x="572" 
d="M455 102.5q-40 -20.5 -92 -27.5v-88h-97v89q-58 9 -107.5 38.5t-80.5 79.5t-31 116q0 64 30 116.5t80.5 84t108.5 37.5v86h97v-96q37 -13 66 -42v44h88v-168l-62 -1q-37 61 -98 77v-277q32 6 59 23t55 44l59 -83q-35 -32 -75 -52.5zM200 224.5q27 -37.5 72 -50.5v272
q-43 -13 -71 -49.5t-28 -86.5q0 -48 27 -85.5z" />
    <glyph glyph-name="sterling" unicode="&#xa3;" horiz-adv-x="678" 
d="M665 159q-14 -79 -66 -125.5t-129 -46.5q-42 0 -85.5 20.5t-82.5 53.5q-30 -35 -82 -54.5t-121 -19.5h-34v103h34q40 0 75.5 19t35.5 60q0 8 -2 24h-141v72h113l-13 26q-7 10 -11 20h-88v73h57q-8 27 -8 52q0 60 27.5 105t75.5 69t109 24q106 0 187 -66v52h106v-197
l-63 -5q-44 63 -98.5 90t-106.5 27q-49 0 -82 -26t-33 -73q0 -22 10 -52h255v-73h-220q20 -38 24 -46h195v-72h-168q4 -15 4 -32q0 -11 -1 -17q74 -53 133 -53q78 0 101 98z" />
    <glyph glyph-name="currency" unicode="&#xa4;" horiz-adv-x="557" 
d="M423 187l86 -103l-49 -45l-88 107q-43 -23 -95 -23q-47 0 -91 22l-88 -106l-50 45l85 102q-46 51 -46 118q0 69 45 119l-84 101l50 46l88 -106q42 22 91 22q51 0 95 -22l88 106l49 -46l-85 -102q42 -48 42 -118q0 -68 -43 -117zM341 237q26 28 26 68q0 42 -25.5 68
t-65.5 26q-38 0 -64 -26.5t-26 -67.5q0 -40 26.5 -68t63.5 -28q39 0 65 28z" />
    <glyph glyph-name="yen" unicode="&#xa5;" horiz-adv-x="857" 
d="M698 516l-87 -114h150v-66h-200l-45 -59h245v-67h-268v-105h126v-105h-380v105h127v105h-269v67h241l-48 59h-193v66h140l-92 114h-85v104h306v-104h-77l149 -197l138 197h-78v104h299v-104h-99z" />
    <glyph glyph-name="brokenbar" unicode="&#xa6;" horiz-adv-x="359" 
d="M240 837v-435h-120v435h120zM240 243v-436h-120v436h120z" />
    <glyph glyph-name="section" unicode="&#xa7;" horiz-adv-x="759" 
d="M566 9q84 -66 84 -148q0 -55 -27.5 -97.5t-76.5 -66t-110 -23.5q-125 0 -217 92v-78h-119v234l75 4q43 -63 112.5 -105t134.5 -42q41 0 66 19t25 50q0 34 -44 60t-148 57q-136 38 -208.5 90t-72.5 136q0 119 158 174q-84 64 -84 147q0 55 28 98t76.5 66.5t108.5 23.5
q127 0 219 -92v78h117v-235l-74 -4q-41 63 -111.5 105.5t-135.5 42.5q-41 0 -65 -19t-24 -50q0 -35 44.5 -61.5t147.5 -55.5q135 -38 207 -90.5t72 -136.5q0 -119 -158 -173zM587 151q0 32 -23 53.5t-66 38.5t-118 37q-62 18 -112 42q-89 -33 -89 -100q0 -31 22.5 -53
t65 -38.5t117.5 -36.5q66 -19 113 -43q90 33 90 100z" />
    <glyph glyph-name="copyright" unicode="&#xa9;" 
d="M751 626.5q108 -58.5 169.5 -161.5t61.5 -232q0 -128 -61.5 -231t-169.5 -161.5t-241 -58.5q-131 0 -238.5 58.5t-169 161.5t-61.5 231q0 129 61.5 232t168.5 161.5t239 58.5q133 0 241 -58.5zM713 -102.5q90 50.5 141 138.5t50 197q1 109 -50 197t-141 138.5t-203 50.5
q-112 0 -202 -50.5t-141 -138.5t-51 -197t51 -197t141 -138.5t202 -50.5q113 0 203 50.5zM591 115.5q34 19.5 66 56.5l58 -67q-81 -101 -203 -101q-65 0 -119.5 27.5t-86 77t-31.5 114.5q0 66 29.5 116.5t79 78t108.5 27.5q87 -1 139 -55v49h80v-159l-67 -4q-42 87 -130 87
q-36 0 -66.5 -17.5t-49 -49.5t-18.5 -73q0 -37 19 -66t49.5 -45t65.5 -16q43 0 77 19.5z" />
    <glyph glyph-name="ordfeminine" unicode="&#xaa;" horiz-adv-x="428" 
d="M399 515v-35q0 -33 -20 -52.5t-49 -19.5q-27 0 -45 11.5t-25 31.5q-57 -46 -112 -46q-41 0 -70.5 22.5t-29.5 64.5q0 41 33.5 65.5t79.5 24.5q43 0 94 -14v20q0 23 -18 35t-47 12q-48 0 -112 -27l-17 56q39 17 71 25t67 8q63 0 96 -29.5t33 -81.5v-107q0 -21 17 -21
q14 0 14 22v35h40zM139.5 472q10.5 -8 29.5 -8q38 0 86 34v22q-36 8 -75 8q-21 0 -36 -8.5t-15 -25.5q0 -14 10.5 -22zM57 335h325v-56h-325v56z" />
    <glyph glyph-name="guillemotleft" unicode="&#xab;" horiz-adv-x="836" 
d="M358 169.5q74 -59.5 102 -157.5l-96 -36q-29 104 -107.5 159t-194.5 55h-14v108h13q116 0 194.5 55.5t106.5 159.5l96 -36q-26 -98 -100 -158t-196 -75q122 -15 196 -74.5zM696 169.5q74 -59.5 101 -157.5l-96 -36q-59 214 -302 214h-13v108h13q121 0 196.5 54.5
t104.5 160.5l96 -36q-26 -98 -100 -158t-196 -75q122 -15 196 -74.5z" />
    <glyph glyph-name="logicalnot" unicode="&#xac;" horiz-adv-x="624" 
d="M569 104h-106v245h-417v106h523v-351z" />
    <glyph glyph-name="uni00AD" unicode="&#xad;" horiz-adv-x="316" 
d="M290 183h-263v107h263v-107z" />
    <glyph glyph-name="registered" unicode="&#xae;" 
d="M751 626.5q108 -58.5 169.5 -161.5t61.5 -232q0 -128 -61.5 -231t-169.5 -161.5t-241 -58.5q-131 0 -238.5 58.5t-169 161.5t-61.5 231q0 129 61.5 232t168.5 161.5t239 58.5q133 0 241 -58.5zM713 -102.5q90 50.5 141 138.5t50 197q1 109 -50 197t-141 138.5t-203 50.5
q-112 0 -202 -50.5t-141 -138.5t-51 -197t51 -197t141 -138.5t202 -50.5q113 0 203 50.5zM699 141h82v-21q0 -48 -29 -80t-78 -32q-50 0 -78.5 30t-48.5 81q-26 63 -52 73h-58v-109h72v-68h-228v68h70v285h-70v70h271q75 0 115.5 -33t40.5 -87q0 -44 -32.5 -79.5
t-91.5 -44.5q24 -16 42 -54q15 -33 22.5 -43.5t21.5 -10.5t21.5 9.5t7.5 24.5v21zM437 263h115q27 0 46.5 14t19.5 41q0 24 -19 37t-47 13h-115v-105z" />
    <glyph glyph-name="degree" unicode="&#xb0;" horiz-adv-x="445" 
d="M138 498q-40 22 -63.5 60.5t-23.5 84.5q0 47 23.5 85t63.5 59t86 21q48 0 87 -21t61.5 -59t22.5 -86q0 -46 -22.5 -84t-61.5 -60t-87 -22q-46 0 -86 22zM281.5 579.5q23.5 25.5 23.5 62.5q0 38 -23 63t-59 25q-35 0 -59 -25t-24 -62q0 -36 24.5 -62.5t58.5 -26.5
q35 0 58.5 25.5z" />
    <glyph glyph-name="plusminus" unicode="&#xb1;" horiz-adv-x="590" 
d="M497 464v-106h-151v-128h-107v128h-146v106h146v128h107v-128h151zM93 154h399v-105h-399v105z" />
    <glyph glyph-name="uni00B2" unicode="&#xb2;" horiz-adv-x="378" 
d="M343 545v-125h-321v61q3 48 39 80.5t103 56.5q55 21 73 33.5t18 30.5q0 20 -18 33t-51 13q-58 0 -126 -57l-39 48q36 32 80.5 52.5t92.5 20.5q58 0 98.5 -29.5t40.5 -79.5q0 -43 -32 -68.5t-104 -56.5q-50 -21 -72 -36.5t-25 -37.5h179v61h64z" />
    <glyph glyph-name="uni00B3" unicode="&#xb3;" horiz-adv-x="365" 
d="M337 507q0 -43 -44.5 -71t-113.5 -28q-53 0 -92.5 15t-72.5 38l36 57q28 -19 62.5 -31.5t67.5 -12.5q31 0 51.5 10.5t20.5 30.5q0 24 -28 35t-91 11h-49v63h49q51 0 78 13.5t27 38.5q0 20 -17.5 32t-44.5 12q-51 0 -114 -52l-43 52q28 28 71 47t89 19q62 0 102.5 -27.5
t40.5 -75.5q0 -29 -21 -51.5t-57 -35.5q93 -19 93 -89z" />
    <glyph glyph-name="uni00B5" unicode="&#xb5;" horiz-adv-x="686" 
d="M672 11q-40 -20 -84 -20q-46 0 -78 24t-42 68q-37 -47 -74.5 -71.5t-81.5 -24.5q-68 0 -101 41l6 -30q7 -32 12.5 -64t5.5 -56v-96h-122v584h-99v105h221v-262q0 -50 20.5 -78t70.5 -28q62 0 138 82v286h125v-338q0 -38 30 -38q17 0 26 6z" />
    <glyph glyph-name="paragraph" unicode="&#xb6;" horiz-adv-x="824" 
d="M733 686v-676q0 -88 -37 -146.5t-95 -86t-122 -27.5q-74 0 -145.5 22.5t-140.5 57.5l44 101q82 -47 165 -63v356q-53 -24 -110 -24q-72 0 -134 31t-99.5 87t-37.5 129t37.5 131t103.5 90t148 32q83 0 163.5 -28.5t145.5 -74.5v89h114zM402 322v264q-47 10 -86 10
q-41 0 -77 -19t-57.5 -53t-21.5 -77q0 -65 44 -102t108 -38q53 0 90 15zM589.5 -85q29.5 35 29.5 95v467q-55 43 -105 67v-677q46 13 75.5 48z" />
    <glyph glyph-name="periodcentered" unicode="&#xb7;" horiz-adv-x="296" 
d="M81.5 274.5q-27.5 21.5 -27.5 53.5q0 33 27.5 55.5t66.5 22.5q42 0 68.5 -22t26.5 -56q0 -33 -26.5 -54t-68.5 -21q-39 0 -66.5 21.5z" />
    <glyph glyph-name="uni00B9" unicode="&#xb9;" horiz-adv-x="304" 
d="M276 491v-71h-231v71h83v184q-27 -34 -67 -42l-27 75q34 5 59.5 25.5t34.5 51.5h89v-294h59z" />
    <glyph glyph-name="ordmasculine" unicode="&#xba;" horiz-adv-x="419" 
d="M128 423q-37 18 -59 51.5t-22 76.5t21.5 76.5t58.5 52t80 18.5t81.5 -18.5t61.5 -52t23 -76.5q0 -65 -47 -105.5t-117 -40.5q-44 0 -81 18zM268 490q23 23 23 61q0 37 -23 61t-58 24t-58 -24t-23 -61q0 -38 22.5 -61t58.5 -23q35 0 58 23zM360 335v-56h-299v56h299z" />
    <glyph glyph-name="guillemotright" unicode="&#xbb;" horiz-adv-x="836" 
d="M437 190q-114 0 -193.5 -60t-107.5 -165l-96 34q27 101 103 165t200 79q-126 13 -202 73t-103 160l97 35q28 -105 106 -160t195 -55h14v-106h-13zM788 296v-106h-13q-114 0 -193.5 -60t-107.5 -165l-97 34q28 101 104 165t200 79q-126 13 -202 73t-103 160l96 35
q28 -104 106.5 -159.5t195.5 -55.5h14z" />
    <glyph glyph-name="onequarter" unicode="&#xbc;" horiz-adv-x="840" 
d="M276 339v-71h-231v71h83v184q-27 -34 -67 -42l-27 75q34 5 59.5 25.5t34.5 51.5h89v-294h59zM575 737l83 -33l-190 -398l-166 -411l-84 34l191 399zM832 61h-70v-74h-89v74h-222v72l220 234h91v-234h70v-72zM673 133v144l-139 -144h139z" />
    <glyph glyph-name="onehalf" unicode="&#xbd;" horiz-adv-x="887" 
d="M276 339v-71h-231v71h83v184q-27 -34 -67 -42l-27 75q34 5 59.5 25.5t34.5 51.5h89v-294h59zM575 737l83 -33l-190 -398l-166 -411l-84 34l191 399zM855 125v-125h-321v61q3 48 39 80.5t103 56.5q55 21 73 33.5t18 30.5q0 20 -18 33t-51 13q-58 0 -126 -57l-39 48
q36 32 80.5 52.5t92.5 20.5q58 0 98.5 -29.5t40.5 -79.5q0 -43 -32 -68.5t-104 -56.5q-50 -21 -72 -36.5t-25 -37.5h179v61h64z" />
    <glyph glyph-name="threequarters" unicode="&#xbe;" horiz-adv-x="861" 
d="M337 354q0 -43 -45 -71t-113 -28q-91 0 -165 54l36 58q27 -20 61.5 -32.5t68.5 -12.5q32 0 52 10.5t20 30.5q0 24 -28.5 35t-90.5 11h-49v64h49q51 0 78 13t27 37q0 20 -17.5 32.5t-44.5 12.5q-51 0 -114 -52l-43 52q28 28 71 47t89 19q62 0 102.5 -28t40.5 -76
q0 -29 -21.5 -51.5t-57.5 -34.5q94 -20 94 -90zM596 737l83 -33l-190 -398l-166 -411l-84 34l191 399zM853 61h-70v-74h-89v74h-222v72l220 234h91v-234h70v-72zM694 133v144l-139 -144h139z" />
    <glyph glyph-name="questiondown" unicode="&#xbf;" horiz-adv-x="516" 
d="M382 681q26 -20 26 -50q0 -32 -25.5 -52t-62.5 -20q-39 0 -63.5 20t-24.5 52q0 30 25 50t63 20q36 0 62 -20zM282 -12q-63 0 -114.5 21t-82 60.5t-30.5 91.5q0 60 41 102t116 82q59 31 80.5 44t33.5 26.5t12 31.5q0 11 -4 25.5t-9 28.5l42 14q32 -45 46 -71.5t14 -54.5
q0 -39 -30.5 -65t-99.5 -61q-57 -27 -80.5 -47.5t-23.5 -50.5q0 -29 28.5 -48.5t71.5 -19.5q36 0 70.5 8.5t74.5 25.5l37 -103q-93 -40 -193 -40z" />
    <glyph glyph-name="Agrave" unicode="&#xc0;" horiz-adv-x="842" 
d="M834 105v-105h-339v105h105l-50 130h-273l-50 -130h115v-105h-334v105h94l203 477h-86v104h401v-104h-87l205 -477h96zM514 329l-98 253h-5l-98 -253h201zM326 976l-64 -92l224 -134l34 48z" />
    <glyph glyph-name="Aacute" unicode="&#xc1;" horiz-adv-x="842" 
d="M834 105v-105h-339v105h105l-50 130h-273l-50 -130h115v-105h-334v105h94l203 477h-86v104h401v-104h-87l205 -477h96zM514 329l-98 253h-5l-98 -253h201zM347 750l224 134l-65 92l-193 -178z" />
    <glyph glyph-name="Acircumflex" unicode="&#xc2;" horiz-adv-x="842" 
d="M834 105v-105h-339v105h105l-50 130h-273l-50 -130h115v-105h-334v105h94l203 477h-86v104h401v-104h-87l205 -477h96zM514 329l-98 253h-5l-98 -253h201zM237 786l149 174h63l149 -174l-39 -36l-143 112l-140 -112z" />
    <glyph glyph-name="Atilde" unicode="&#xc3;" horiz-adv-x="842" 
d="M834 105v-105h-339v105h105l-50 130h-273l-50 -130h115v-105h-334v105h94l203 477h-86v104h401v-104h-87l205 -477h96zM514 329l-98 253h-5l-98 -253h201zM436.5 770q-24.5 16 -51.5 46q-23 27 -36.5 37.5t-28.5 10.5q-22 0 -33 -24.5t-15 -71.5l-71 7q1 67 32.5 113
t86.5 46q37 0 61 -15.5t53 -47.5q22 -25 35 -35.5t27 -10.5q42 0 49 93l71 -6q-1 -67 -32.5 -112.5t-87.5 -45.5q-35 0 -59.5 16z" />
    <glyph glyph-name="Adieresis" unicode="&#xc4;" horiz-adv-x="842" 
d="M834 105v-105h-339v105h105l-50 130h-273l-50 -130h115v-105h-334v105h94l203 477h-86v104h401v-104h-87l205 -477h96zM514 329l-98 253h-5l-98 -253h201zM248.5 801.5q-22.5 17.5 -22.5 43.5q0 27 22.5 46t53.5 19q32 0 53 -18.5t21 -46.5q0 -26 -21 -43.5t-53 -17.5
q-31 0 -53.5 17.5zM476 801.5q-22 17.5 -22 43.5q0 27 22 46t52 19q32 0 54 -18.5t22 -46.5q0 -26 -22 -43.5t-54 -17.5q-30 0 -52 17.5z" />
    <glyph glyph-name="Aring" unicode="&#xc5;" horiz-adv-x="842" 
d="M834 105v-105h-339v105h105l-50 130h-273l-50 -130h115v-105h-334v105h94l203 477h-86v104h401v-104h-87l205 -477h96zM514 329l-98 253h-5l-98 -253h201zM346.5 765q-32.5 19 -52.5 51t-20 71q0 40 19.5 72t52.5 49.5t71 17.5t71 -19t53 -51t20 -71q0 -40 -19.5 -72
t-52.5 -49.5t-72 -17.5q-38 0 -70.5 19zM469.5 832.5q22.5 21.5 22.5 52.5t-22.5 53.5t-52.5 22.5q-31 0 -52.5 -21t-21.5 -53q0 -31 22 -53.5t52 -22.5t52.5 21.5z" />
    <glyph glyph-name="AE" unicode="&#xc6;" horiz-adv-x="1207" 
d="M1018 453v129h-395l52 -192h143v84h99v-267h-99v84h-117l51 -186h267v133h117v-238h-639v105h122l-34 132h-287l-80 -132h99v-105h-316v105h84l303 477h-84v104h832v-233h-118zM561 331l-61 238l-145 -238h206z" />
    <glyph glyph-name="Ccedilla" unicode="&#xc7;" horiz-adv-x="757" 
d="M590 32q-78 -45 -182 -45l-23 -55q4 1 19 1q46 0 74.5 -25t28.5 -67q0 -49 -42 -79.5t-98 -30.5q-72 0 -147 53l35 58q60 -44 112 -44q27 0 44 12t17 31q0 20 -17 31t-44 11q-22 0 -56 -4l-7 9l43 103q-88 13 -157 61.5t-108.5 123.5t-39.5 165q0 104 46 186t123.5 127.5
t167.5 45.5q129 0 209 -86v72h119v-231l-86 -8q-31 68 -86 108t-136 40q-57 0 -107.5 -30.5t-81 -88t-30.5 -133.5q0 -70 30 -126.5t82 -89t115 -32.5q78 0 131.5 33.5t96.5 96.5l86 -70q-53 -78 -131 -123z" />
    <glyph glyph-name="Egrave" unicode="&#xc8;" horiz-adv-x="798" 
d="M612 448v133h-328v-193h132v86h99v-267h-99v86h-132v-188h328v133h116v-238h-693v105h119v476h-119v105h693v-238h-116zM314 976l-64 -92l224 -134l34 48z" />
    <glyph glyph-name="Eacute" unicode="&#xc9;" horiz-adv-x="798" 
d="M612 448v133h-328v-193h132v86h99v-267h-99v86h-132v-188h328v133h116v-238h-693v105h119v476h-119v105h693v-238h-116zM335 750l224 134l-65 92l-193 -178z" />
    <glyph glyph-name="Ecircumflex" unicode="&#xca;" horiz-adv-x="798" 
d="M612 448v133h-328v-193h132v86h99v-267h-99v86h-132v-188h328v133h116v-238h-693v105h119v476h-119v105h693v-238h-116zM225 786l149 174h63l149 -174l-39 -36l-143 112l-140 -112z" />
    <glyph glyph-name="Edieresis" unicode="&#xcb;" horiz-adv-x="798" 
d="M612 448v133h-328v-193h132v86h99v-267h-99v86h-132v-188h328v133h116v-238h-693v105h119v476h-119v105h693v-238h-116zM236.5 801.5q-22.5 17.5 -22.5 43.5q0 27 22.5 46t53.5 19q32 0 53 -18.5t21 -46.5q0 -26 -21 -43.5t-53 -17.5q-31 0 -53.5 17.5zM464 801.5
q-22 17.5 -22 43.5q0 27 22 46t52 19q32 0 54 -18.5t22 -46.5q0 -26 -22 -43.5t-54 -17.5q-30 0 -52 17.5z" />
    <glyph glyph-name="Igrave" unicode="&#xcc;" horiz-adv-x="443" 
d="M288 581v-476h121v-105h-374v105h120v476h-120v105h374v-105h-121zM133 976l-64 -92l224 -134l34 48z" />
    <glyph glyph-name="Iacute" unicode="&#xcd;" horiz-adv-x="443" 
d="M288 581v-476h121v-105h-374v105h120v476h-120v105h374v-105h-121zM154 750l224 134l-65 92l-193 -178z" />
    <glyph glyph-name="Icircumflex" unicode="&#xce;" horiz-adv-x="443" 
d="M288 581v-476h121v-105h-374v105h120v476h-120v105h374v-105h-121zM44 786l149 174h63l149 -174l-39 -36l-143 112l-140 -112z" />
    <glyph glyph-name="Idieresis" unicode="&#xcf;" horiz-adv-x="443" 
d="M288 581v-476h121v-105h-374v105h120v476h-120v105h374v-105h-121zM55.5 801.5q-22.5 17.5 -22.5 43.5q0 27 22.5 46t53.5 19q32 0 53 -18.5t21 -46.5q0 -26 -21 -43.5t-53 -17.5q-31 0 -53.5 17.5zM283 801.5q-22 17.5 -22 43.5q0 27 22 46t52 19q32 0 54 -18.5
t22 -46.5q0 -26 -22 -43.5t-54 -17.5q-30 0 -52 17.5z" />
    <glyph glyph-name="Eth" unicode="&#xd0;" horiz-adv-x="817" 
d="M570.5 648.5q91.5 -37.5 148 -114.5t56.5 -191q0 -113 -56.5 -190.5t-148 -115t-196.5 -37.5h-339v105h120v183h-110v107h110v186h-120v105h339q105 0 196.5 -37.5zM556.5 159q80.5 54 80.5 184t-80.5 184t-196.5 54h-72v-186h195v-107h-195v-183h72q116 0 196.5 54z" />
    <glyph glyph-name="Ntilde" unicode="&#xd1;" horiz-adv-x="940" 
d="M922 581h-116v-587l-69 -1l-457 512v-400h118v-105h-363v105h120v476h-120v105h245l404 -464v359h-120v105h358v-105zM481.5 767q-24.5 16 -51.5 46q-23 27 -36.5 37.5t-28.5 10.5q-22 0 -33 -24.5t-15 -71.5l-71 7q1 67 32.5 113t86.5 46q37 0 61 -15.5t53 -47.5
q22 -25 35 -35.5t27 -10.5q42 0 49 93l71 -6q-1 -67 -32.5 -112.5t-87.5 -45.5q-35 0 -59.5 16z" />
    <glyph glyph-name="Ograve" unicode="&#xd2;" horiz-adv-x="814" 
d="M220.5 33.5q-83.5 46.5 -131 127.5t-47.5 182t47.5 182.5t131.5 128t187 46.5q102 0 185.5 -46.5t131 -128t47.5 -182.5q0 -100 -47.5 -181.5t-131 -128t-185.5 -46.5q-104 0 -187.5 46.5zM525.5 127.5q51.5 32.5 79.5 89.5t28 126q0 70 -28 127t-79 89.5t-118 32.5
q-69 0 -120.5 -33t-79.5 -89.5t-28 -126.5q0 -71 28 -127t79.5 -88.5t120.5 -32.5q66 0 117.5 32.5zM316 990l-64 -92l224 -134l34 48z" />
    <glyph glyph-name="Oacute" unicode="&#xd3;" horiz-adv-x="814" 
d="M220.5 33.5q-83.5 46.5 -131 127.5t-47.5 182t47.5 182.5t131.5 128t187 46.5q102 0 185.5 -46.5t131 -128t47.5 -182.5q0 -100 -47.5 -181.5t-131 -128t-185.5 -46.5q-104 0 -187.5 46.5zM525.5 127.5q51.5 32.5 79.5 89.5t28 126q0 70 -28 127t-79 89.5t-118 32.5
q-69 0 -120.5 -33t-79.5 -89.5t-28 -126.5q0 -71 28 -127t79.5 -88.5t120.5 -32.5q66 0 117.5 32.5zM337 764l224 134l-65 92l-193 -178z" />
    <glyph glyph-name="Ocircumflex" unicode="&#xd4;" horiz-adv-x="814" 
d="M220.5 33.5q-83.5 46.5 -131 127.5t-47.5 182t47.5 182.5t131.5 128t187 46.5q102 0 185.5 -46.5t131 -128t47.5 -182.5q0 -100 -47.5 -181.5t-131 -128t-185.5 -46.5q-104 0 -187.5 46.5zM525.5 127.5q51.5 32.5 79.5 89.5t28 126q0 70 -28 127t-79 89.5t-118 32.5
q-69 0 -120.5 -33t-79.5 -89.5t-28 -126.5q0 -71 28 -127t79.5 -88.5t120.5 -32.5q66 0 117.5 32.5zM227 800l149 174h63l149 -174l-39 -36l-143 112l-140 -112z" />
    <glyph glyph-name="Otilde" unicode="&#xd5;" horiz-adv-x="814" 
d="M220.5 33.5q-83.5 46.5 -131 127.5t-47.5 182t47.5 182.5t131.5 128t187 46.5q102 0 185.5 -46.5t131 -128t47.5 -182.5q0 -100 -47.5 -181.5t-131 -128t-185.5 -46.5q-104 0 -187.5 46.5zM525.5 127.5q51.5 32.5 79.5 89.5t28 126q0 70 -28 127t-79 89.5t-118 32.5
q-69 0 -120.5 -33t-79.5 -89.5t-28 -126.5q0 -71 28 -127t79.5 -88.5t120.5 -32.5q66 0 117.5 32.5zM426.5 784q-24.5 16 -51.5 46q-23 27 -36.5 37.5t-28.5 10.5q-22 0 -33 -24.5t-15 -71.5l-71 7q1 67 32.5 113t86.5 46q37 0 61 -15.5t53 -47.5q22 -25 35 -35.5t27 -10.5
q42 0 49 93l71 -6q-1 -67 -32.5 -112.5t-87.5 -45.5q-35 0 -59.5 16z" />
    <glyph glyph-name="Odieresis" unicode="&#xd6;" horiz-adv-x="814" 
d="M220.5 33.5q-83.5 46.5 -131 127.5t-47.5 182t47.5 182.5t131.5 128t187 46.5q102 0 185.5 -46.5t131 -128t47.5 -182.5q0 -100 -47.5 -181.5t-131 -128t-185.5 -46.5q-104 0 -187.5 46.5zM525.5 127.5q51.5 32.5 79.5 89.5t28 126q0 70 -28 127t-79 89.5t-118 32.5
q-69 0 -120.5 -33t-79.5 -89.5t-28 -126.5q0 -71 28 -127t79.5 -88.5t120.5 -32.5q66 0 117.5 32.5zM238.5 815.5q-22.5 17.5 -22.5 43.5q0 27 22.5 46t53.5 19q32 0 53 -18.5t21 -46.5q0 -26 -21 -43.5t-53 -17.5q-31 0 -53.5 17.5zM466 815.5q-22 17.5 -22 43.5
q0 27 22 46t52 19q32 0 54 -18.5t22 -46.5q0 -26 -22 -43.5t-54 -17.5q-30 0 -52 17.5z" />
    <glyph glyph-name="multiply" unicode="&#xd7;" horiz-adv-x="555" 
d="M353 310l130 -130l-74 -76l-131 131l-130 -131l-77 77l131 130l-132 132l76 74l131 -131l131 131l75 -77z" />
    <glyph glyph-name="Oslash" unicode="&#xd8;" horiz-adv-x="811" 
d="M724.5 524.5q47.5 -81.5 47.5 -181.5t-47.5 -181.5t-131 -128t-185.5 -46.5q-52 0 -99 12l-35 -77h-111l52 115q-81 46 -127 126.5t-46 179.5q0 101 47.5 182.5t131.5 128t187 46.5q43 0 91 -10l34 77h111l-49 -114q82 -47 129.5 -128.5zM287.5 559
q-51.5 -33 -79.5 -89.5t-28 -126.5q0 -64 23.5 -117.5t66.5 -86.5l193 447q-27 6 -55 6q-69 0 -120.5 -33zM525.5 127.5q51.5 32.5 79.5 89.5t28 126q0 66 -25 120.5t-69 87.5l-195 -448q32 -8 64 -8q66 0 117.5 32.5z" />
    <glyph glyph-name="Ugrave" unicode="&#xd9;" horiz-adv-x="887" 
d="M880 581h-120v-313q0 -80 -41 -144.5t-113 -100.5t-163 -36q-93 0 -165 36t-111.5 100t-39.5 145v313h-120v105h363v-105h-110v-306q0 -52 23.5 -93t65 -64t94.5 -23t95 23t65.5 64.5t23.5 93.5l-2 305h-109v105h364v-105zM352 979l-64 -92l224 -134l34 48z" />
    <glyph glyph-name="Uacute" unicode="&#xda;" horiz-adv-x="887" 
d="M880 581h-120v-313q0 -80 -41 -144.5t-113 -100.5t-163 -36q-93 0 -165 36t-111.5 100t-39.5 145v313h-120v105h363v-105h-110v-306q0 -52 23.5 -93t65 -64t94.5 -23t95 23t65.5 64.5t23.5 93.5l-2 305h-109v105h364v-105zM373 753l224 134l-65 92l-193 -178z" />
    <glyph glyph-name="Ucircumflex" unicode="&#xdb;" horiz-adv-x="887" 
d="M880 581h-120v-313q0 -80 -41 -144.5t-113 -100.5t-163 -36q-93 0 -165 36t-111.5 100t-39.5 145v313h-120v105h363v-105h-110v-306q0 -52 23.5 -93t65 -64t94.5 -23t95 23t65.5 64.5t23.5 93.5l-2 305h-109v105h364v-105zM263 789l149 174h63l149 -174l-39 -36l-143 112
l-140 -112z" />
    <glyph glyph-name="Udieresis" unicode="&#xdc;" horiz-adv-x="887" 
d="M880 581h-120v-313q0 -80 -41 -144.5t-113 -100.5t-163 -36q-93 0 -165 36t-111.5 100t-39.5 145v313h-120v105h363v-105h-110v-306q0 -52 23.5 -93t65 -64t94.5 -23t95 23t65.5 64.5t23.5 93.5l-2 305h-109v105h364v-105zM274.5 804.5q-22.5 17.5 -22.5 43.5
q0 27 22.5 46t53.5 19q32 0 53 -18.5t21 -46.5q0 -26 -21 -43.5t-53 -17.5q-31 0 -53.5 17.5zM502 804.5q-22 17.5 -22 43.5q0 27 22 46t52 19q32 0 54 -18.5t22 -46.5q0 -26 -22 -43.5t-54 -17.5q-30 0 -52 17.5z" />
    <glyph glyph-name="Yacute" unicode="&#xdd;" horiz-adv-x="801" 
d="M468 276v-171h124v-105h-380v105h123v165l-237 311h-86v105h322v-105h-81l163 -223l152 223h-100v105h322v-105h-93zM331 737l224 134l-65 92l-193 -178z" />
    <glyph glyph-name="Thorn" unicode="&#xde;" horiz-adv-x="708" 
d="M632.5 463.5q61.5 -41.5 61.5 -121.5t-61.5 -121.5t-162.5 -41.5l-196 -2v-83h127v-94h-366v105h115v477h-115v104h366v-94h-127v-87h196q101 0 162.5 -41.5zM562 342q0 70 -112 70h-176v-143h176q112 0 112 73z" />
    <glyph glyph-name="germandbls" unicode="&#xdf;" horiz-adv-x="754" 
d="M708 221.5q45 -34.5 45 -91.5q0 -66 -49 -105t-130 -39q-43 0 -83 16t-72 46v-49h-94v155l55 4q27 -39 80.5 -65t95.5 -26q33 0 50 11t17 31q0 18 -17 27t-72 25q-5 1 -28 8q-93 28 -137.5 62t-44.5 91q0 51 29.5 83t91.5 63q50 27 70 44t20 39q0 34 -39.5 55.5
t-105.5 21.5q-67 0 -103 -30.5t-36 -87.5v-510h-223v99h100v273h-100v99h100v37q0 111 68 168t193 57q79 0 142 -23.5t98.5 -64t35.5 -90.5q0 -51 -32.5 -83.5t-95.5 -65.5q-52 -27 -67.5 -38.5t-15.5 -29.5q0 -17 17 -25t75 -25l32 -9q85 -23 130 -57.5z" />
    <glyph glyph-name="agrave" unicode="&#xe0;" horiz-adv-x="608" 
d="M598 13q-14 -9 -37 -15t-51 -6q-38 0 -66.5 21.5t-39.5 60.5q-99 -88 -196 -88q-69 0 -116 38.5t-47 110.5q0 50 28 86t73.5 54.5t96.5 18.5q44 0 80 -8.5t74 -24.5v37q0 40 -32.5 60t-83.5 20q-75 0 -182 -41l-25 95q121 51 224 51q105 0 161.5 -50.5t56.5 -139.5v-158
q0 -39 29 -39q14 0 28 6zM190 102.5q21 -13.5 52 -13.5q29 0 70 16t85 49v27q-61 23 -130 23q-41 -1 -69.5 -16.5t-28.5 -45.5q0 -26 21 -39.5zM205 774l-64 -92l224 -134l34 48z" />
    <glyph glyph-name="aacute" unicode="&#xe1;" horiz-adv-x="608" 
d="M598 13q-14 -9 -37 -15t-51 -6q-38 0 -66.5 21.5t-39.5 60.5q-99 -88 -196 -88q-69 0 -116 38.5t-47 110.5q0 50 28 86t73.5 54.5t96.5 18.5q44 0 80 -8.5t74 -24.5v37q0 40 -32.5 60t-83.5 20q-75 0 -182 -41l-25 95q121 51 224 51q105 0 161.5 -50.5t56.5 -139.5v-158
q0 -39 29 -39q14 0 28 6zM190 102.5q21 -13.5 52 -13.5q29 0 70 16t85 49v27q-61 23 -130 23q-41 -1 -69.5 -16.5t-28.5 -45.5q0 -26 21 -39.5zM226 548l224 134l-65 92l-193 -178z" />
    <glyph glyph-name="acircumflex" unicode="&#xe2;" horiz-adv-x="608" 
d="M598 13q-14 -9 -37 -15t-51 -6q-38 0 -66.5 21.5t-39.5 60.5q-99 -88 -196 -88q-69 0 -116 38.5t-47 110.5q0 50 28 86t73.5 54.5t96.5 18.5q44 0 80 -8.5t74 -24.5v37q0 40 -32.5 60t-83.5 20q-75 0 -182 -41l-25 95q121 51 224 51q105 0 161.5 -50.5t56.5 -139.5v-158
q0 -39 29 -39q14 0 28 6zM190 102.5q21 -13.5 52 -13.5q29 0 70 16t85 49v27q-61 23 -130 23q-41 -1 -69.5 -16.5t-28.5 -45.5q0 -26 21 -39.5zM116 584l149 174h63l149 -174l-39 -36l-143 112l-140 -112z" />
    <glyph glyph-name="atilde" unicode="&#xe3;" horiz-adv-x="608" 
d="M598 13q-14 -9 -37 -15t-51 -6q-38 0 -66.5 21.5t-39.5 60.5q-99 -88 -196 -88q-69 0 -116 38.5t-47 110.5q0 50 28 86t73.5 54.5t96.5 18.5q44 0 80 -8.5t74 -24.5v37q0 40 -32.5 60t-83.5 20q-75 0 -182 -41l-25 95q121 51 224 51q105 0 161.5 -50.5t56.5 -139.5v-158
q0 -39 29 -39q14 0 28 6zM190 102.5q21 -13.5 52 -13.5q29 0 70 16t85 49v27q-61 23 -130 23q-41 -1 -69.5 -16.5t-28.5 -45.5q0 -26 21 -39.5zM315.5 568q-24.5 16 -51.5 46q-23 27 -36.5 37.5t-28.5 10.5q-22 0 -33 -24.5t-15 -71.5l-71 7q1 67 32.5 113t86.5 46
q37 0 61 -15.5t53 -47.5q22 -25 35 -35.5t27 -10.5q42 0 49 93l71 -6q-1 -67 -32.5 -112.5t-87.5 -45.5q-35 0 -59.5 16z" />
    <glyph glyph-name="adieresis" unicode="&#xe4;" horiz-adv-x="608" 
d="M598 13q-14 -9 -37 -15t-51 -6q-38 0 -66.5 21.5t-39.5 60.5q-99 -88 -196 -88q-69 0 -116 38.5t-47 110.5q0 50 28 86t73.5 54.5t96.5 18.5q44 0 80 -8.5t74 -24.5v37q0 40 -32.5 60t-83.5 20q-75 0 -182 -41l-25 95q121 51 224 51q105 0 161.5 -50.5t56.5 -139.5v-158
q0 -39 29 -39q14 0 28 6zM190 102.5q21 -13.5 52 -13.5q29 0 70 16t85 49v27q-61 23 -130 23q-41 -1 -69.5 -16.5t-28.5 -45.5q0 -26 21 -39.5zM127.5 599.5q-22.5 17.5 -22.5 43.5q0 27 22.5 46t53.5 19q32 0 53 -18.5t21 -46.5q0 -26 -21 -43.5t-53 -17.5
q-31 0 -53.5 17.5zM355 599.5q-22 17.5 -22 43.5q0 27 22 46t52 19q32 0 54 -18.5t22 -46.5q0 -26 -22 -43.5t-54 -17.5q-30 0 -52 17.5z" />
    <glyph glyph-name="aring" unicode="&#xe5;" horiz-adv-x="608" 
d="M598 13q-14 -9 -37 -15t-51 -6q-38 0 -66.5 21.5t-39.5 60.5q-99 -88 -196 -88q-69 0 -116 38.5t-47 110.5q0 50 28 86t73.5 54.5t96.5 18.5q44 0 80 -8.5t74 -24.5v37q0 40 -32.5 60t-83.5 20q-75 0 -182 -41l-25 95q121 51 224 51q105 0 161.5 -50.5t56.5 -139.5v-158
q0 -39 29 -39q14 0 28 6zM190 102.5q21 -13.5 52 -13.5q29 0 70 16t85 49v27q-61 23 -130 23q-41 -1 -69.5 -16.5t-28.5 -45.5q0 -26 21 -39.5zM225.5 563q-32.5 19 -52.5 51t-20 71q0 40 19.5 72t52.5 49.5t71 17.5t71 -19t53 -51t20 -71q0 -40 -19.5 -72t-52.5 -49.5
t-72 -17.5q-38 0 -70.5 19zM348.5 630.5q22.5 21.5 22.5 52.5t-22.5 53.5t-52.5 22.5q-31 0 -52.5 -21t-21.5 -53q0 -31 22 -53.5t52 -22.5t52.5 21.5z" />
    <glyph glyph-name="ae" unicode="&#xe6;" horiz-adv-x="927" 
d="M896 72q-45 -40 -105 -63t-130 -23t-131.5 30.5t-96.5 85.5q-55 -58 -109.5 -87t-115.5 -29q-69 0 -116 38.5t-47 110.5q0 50 28 86t73.5 54.5t96.5 18.5q44 0 79.5 -8t74.5 -23q-1 64 -32 89.5t-86 25.5q-73 0 -180 -41l-25 95q121 51 221 51q65 0 110 -25t66 -72
q34 46 91.5 72t117.5 26q57 0 103.5 -18.5t73.5 -53t27 -79.5q0 -46 -27.5 -78.5t-72 -49t-96.5 -16.5q-49 0 -89.5 9t-82.5 26q2 -60 45.5 -94t106.5 -34q99 0 178 62zM591.5 361.5q-41.5 -25.5 -61.5 -68.5q60 -20 127 -20q46 1 74 17t28 43q0 24 -22 39t-57 15
q-47 0 -88.5 -25.5zM317.5 107q43.5 18 89.5 54q-4 14 -5 21q-64 22 -135 22q-41 -1 -69.5 -16.5t-28.5 -45.5q0 -26 21 -39.5t52 -13.5q32 0 75.5 18z" />
    <glyph glyph-name="ccedilla" unicode="&#xe7;" horiz-adv-x="539" 
d="M367.5 -93q28.5 -25 28.5 -67q0 -49 -42 -79.5t-98 -30.5q-72 0 -147 53l35 58q60 -44 112 -44q27 0 44 12t17 31q0 20 -17 31t-44 11q-22 0 -56 -4l-7 9l43 104q-57 12 -103.5 46t-73 85.5t-26.5 113.5q0 68 32.5 125t87 90t117.5 33q48 0 82 -15.5t61 -45.5v48h88v-168
l-53 -4q-51 83 -140 83q-63 0 -104 -40.5t-41 -103.5q0 -43 19.5 -76t52 -51.5t70.5 -19.5q45 0 80.5 16.5t72.5 48.5l53 -82q-45 -41 -99 -64t-115 -24l-23 -55q4 1 19 1q46 0 74.5 -25z" />
    <glyph glyph-name="egrave" unicode="&#xe8;" horiz-adv-x="564" 
d="M533 72q-100 -86 -231 -86q-70 0 -131.5 28t-99.5 82t-38 129q0 78 38 136.5t101 90.5t134 32q62 0 110.5 -19t76 -53.5t27.5 -79.5t-27.5 -77.5t-72 -48.5t-95.5 -16q-48 0 -88.5 10t-83.5 28q1 -64 45 -100.5t109 -36.5q99 1 174 63zM229.5 361.5
q-40.5 -24.5 -61.5 -65.5q62 -22 127 -22q45 1 72.5 16t27.5 42q0 24 -22 39t-58 15q-45 0 -85.5 -24.5zM201 777l-64 -92l224 -134l34 48z" />
    <glyph glyph-name="eacute" unicode="&#xe9;" horiz-adv-x="564" 
d="M533 72q-100 -86 -231 -86q-70 0 -131.5 28t-99.5 82t-38 129q0 78 38 136.5t101 90.5t134 32q62 0 110.5 -19t76 -53.5t27.5 -79.5t-27.5 -77.5t-72 -48.5t-95.5 -16q-48 0 -88.5 10t-83.5 28q1 -64 45 -100.5t109 -36.5q99 1 174 63zM229.5 361.5
q-40.5 -24.5 -61.5 -65.5q62 -22 127 -22q45 1 72.5 16t27.5 42q0 24 -22 39t-58 15q-45 0 -85.5 -24.5zM222 551l224 134l-65 92l-193 -178z" />
    <glyph glyph-name="ecircumflex" unicode="&#xea;" horiz-adv-x="564" 
d="M533 72q-100 -86 -231 -86q-70 0 -131.5 28t-99.5 82t-38 129q0 78 38 136.5t101 90.5t134 32q62 0 110.5 -19t76 -53.5t27.5 -79.5t-27.5 -77.5t-72 -48.5t-95.5 -16q-48 0 -88.5 10t-83.5 28q1 -64 45 -100.5t109 -36.5q99 1 174 63zM229.5 361.5
q-40.5 -24.5 -61.5 -65.5q62 -22 127 -22q45 1 72.5 16t27.5 42q0 24 -22 39t-58 15q-45 0 -85.5 -24.5zM112 587l149 174h63l149 -174l-39 -36l-143 112l-140 -112z" />
    <glyph glyph-name="edieresis" unicode="&#xeb;" horiz-adv-x="564" 
d="M533 72q-100 -86 -231 -86q-70 0 -131.5 28t-99.5 82t-38 129q0 78 38 136.5t101 90.5t134 32q62 0 110.5 -19t76 -53.5t27.5 -79.5t-27.5 -77.5t-72 -48.5t-95.5 -16q-48 0 -88.5 10t-83.5 28q1 -64 45 -100.5t109 -36.5q99 1 174 63zM229.5 361.5
q-40.5 -24.5 -61.5 -65.5q62 -22 127 -22q45 1 72.5 16t27.5 42q0 24 -22 39t-58 15q-45 0 -85.5 -24.5zM123.5 602.5q-22.5 17.5 -22.5 43.5q0 27 22.5 46t53.5 19q32 0 53 -18.5t21 -46.5q0 -26 -21 -43.5t-53 -17.5q-31 0 -53.5 17.5zM351 602.5q-22 17.5 -22 43.5
q0 27 22 46t52 19q32 0 54 -18.5t22 -46.5q0 -26 -22 -43.5t-54 -17.5q-30 0 -52 17.5z" />
    <glyph glyph-name="igrave" unicode="&#xec;" horiz-adv-x="362" 
d="M354 99v-99h-326v99h100v273h-100v99h225v-372h101zM83 761l-64 -92l224 -134l34 48z" />
    <glyph glyph-name="iacute" unicode="&#xed;" horiz-adv-x="362" 
d="M354 99v-99h-326v99h100v273h-100v99h225v-372h101zM104 535l224 134l-65 92l-193 -178z" />
    <glyph glyph-name="icircumflex" unicode="&#xee;" horiz-adv-x="362" 
d="M354 99v-99h-326v99h100v273h-100v99h225v-372h101zM-6 571l149 174h63l149 -174l-39 -36l-143 112l-140 -112z" />
    <glyph glyph-name="idieresis" unicode="&#xef;" horiz-adv-x="362" 
d="M354 99v-99h-326v99h100v273h-100v99h225v-372h101zM5.5 586.5q-22.5 17.5 -22.5 43.5q0 27 22.5 46t53.5 19q32 0 53 -18.5t21 -46.5q0 -26 -21 -43.5t-53 -17.5q-31 0 -53.5 17.5zM233 586.5q-22 17.5 -22 43.5q0 27 22 46t52 19q32 0 54 -18.5t22 -46.5
q0 -26 -22 -43.5t-54 -17.5q-30 0 -52 17.5z" />
    <glyph glyph-name="eth" unicode="&#xf0;" horiz-adv-x="607" 
d="M521.5 480.5q51.5 -96.5 51.5 -207.5q0 -92 -40 -159.5t-107 -103t-146 -35.5q-73 0 -130.5 27.5t-90.5 77t-33 111.5q0 61 32.5 111.5t88 79.5t122.5 29q96 0 167 -47q-25 118 -131 202l-75 -96l-76 57l73 93q-40 24 -111 58l46 104q72 -31 136 -72l76 97l74 -58
l-73 -94q95 -78 146.5 -174.5zM361 93.5q37 21.5 60.5 65.5t24.5 108q-33 22 -72 34t-74 12q-57 0 -96.5 -35t-39.5 -87q0 -51 34.5 -85t85.5 -34q40 0 77 21.5z" />
    <glyph glyph-name="ntilde" unicode="&#xf1;" horiz-adv-x="736" 
d="M726 99v-99h-293v99h82v163q0 48 -25.5 76t-72.5 28q-76 0 -164 -100v-167h81v-99h-306v99h100v273h-100v99h225v-108q54 61 103.5 90.5t106.5 29.5q86 0 131.5 -56t45.5 -164v-164h86zM410.5 568q-24.5 16 -51.5 46q-23 27 -36.5 37.5t-28.5 10.5q-22 0 -33 -24.5
t-15 -71.5l-71 7q1 67 32.5 113t86.5 46q37 0 61 -15.5t53 -47.5q22 -25 35 -35.5t27 -10.5q42 0 49 93l71 -6q-1 -67 -32.5 -112.5t-87.5 -45.5q-35 0 -59.5 16z" />
    <glyph glyph-name="ograve" unicode="&#xf2;" horiz-adv-x="599" 
d="M168 17q-61 31 -98 88t-37 130t37 130t98 88t131 31q68 0 129.5 -31t99 -88t37.5 -130t-36.5 -130t-97.5 -88t-132 -31q-70 0 -131 31zM396.5 126q38.5 41 38.5 109t-38.5 109t-96.5 41q-59 0 -97.5 -41t-38.5 -109t38.5 -109t97.5 -41q58 0 96.5 41zM208 777l-64 -92
l224 -134l34 48z" />
    <glyph glyph-name="oacute" unicode="&#xf3;" horiz-adv-x="599" 
d="M168 17q-61 31 -98 88t-37 130t37 130t98 88t131 31q68 0 129.5 -31t99 -88t37.5 -130t-36.5 -130t-97.5 -88t-132 -31q-70 0 -131 31zM396.5 126q38.5 41 38.5 109t-38.5 109t-96.5 41q-59 0 -97.5 -41t-38.5 -109t38.5 -109t97.5 -41q58 0 96.5 41zM229 551l224 134
l-65 92l-193 -178z" />
    <glyph glyph-name="ocircumflex" unicode="&#xf4;" horiz-adv-x="599" 
d="M168 17q-61 31 -98 88t-37 130t37 130t98 88t131 31q68 0 129.5 -31t99 -88t37.5 -130t-36.5 -130t-97.5 -88t-132 -31q-70 0 -131 31zM396.5 126q38.5 41 38.5 109t-38.5 109t-96.5 41q-59 0 -97.5 -41t-38.5 -109t38.5 -109t97.5 -41q58 0 96.5 41zM119 587l149 174h63
l149 -174l-39 -36l-143 112l-140 -112z" />
    <glyph glyph-name="otilde" unicode="&#xf5;" horiz-adv-x="599" 
d="M168 17q-61 31 -98 88t-37 130t37 130t98 88t131 31q68 0 129.5 -31t99 -88t37.5 -130t-36.5 -130t-97.5 -88t-132 -31q-70 0 -131 31zM396.5 126q38.5 41 38.5 109t-38.5 109t-96.5 41q-59 0 -97.5 -41t-38.5 -109t38.5 -109t97.5 -41q58 0 96.5 41zM318.5 571
q-24.5 16 -51.5 46q-23 27 -36.5 37.5t-28.5 10.5q-22 0 -33 -24.5t-15 -71.5l-71 7q1 67 32.5 113t86.5 46q37 0 61 -15.5t53 -47.5q22 -25 35 -35.5t27 -10.5q42 0 49 93l71 -6q-1 -67 -32.5 -112.5t-87.5 -45.5q-35 0 -59.5 16z" />
    <glyph glyph-name="odieresis" unicode="&#xf6;" horiz-adv-x="599" 
d="M168 17q-61 31 -98 88t-37 130t37 130t98 88t131 31q68 0 129.5 -31t99 -88t37.5 -130t-36.5 -130t-97.5 -88t-132 -31q-70 0 -131 31zM396.5 126q38.5 41 38.5 109t-38.5 109t-96.5 41q-59 0 -97.5 -41t-38.5 -109t38.5 -109t97.5 -41q58 0 96.5 41zM130.5 602.5
q-22.5 17.5 -22.5 43.5q0 27 22.5 46t53.5 19q32 0 53 -18.5t21 -46.5q0 -26 -21 -43.5t-53 -17.5q-31 0 -53.5 17.5zM358 602.5q-22 17.5 -22 43.5q0 27 22 46t52 19q32 0 54 -18.5t22 -46.5q0 -26 -22 -43.5t-54 -17.5q-30 0 -52 17.5z" />
    <glyph glyph-name="oslash" unicode="&#xf8;" horiz-adv-x="600" 
d="M531 359.5q34 -54.5 34 -124.5q0 -73 -36.5 -130t-97.5 -88t-132 -31q-26 0 -56 5l-31 -69h-106l46 104q-55 33 -87 87t-32 122q0 73 37 130t98 88t131 31q28 0 49 -4l30 68h107l-45 -102q57 -32 91 -86.5zM202.5 344q-38.5 -41 -38.5 -109q0 -69 41 -112l111 261
q-6 1 -16 1q-59 0 -97.5 -41zM396.5 126q38.5 41 38.5 109q0 37 -12.5 67.5t-34.5 50.5l-113 -266q16 -2 25 -2q58 0 96.5 41z" />
    <glyph glyph-name="ugrave" unicode="&#xf9;" horiz-adv-x="674" 
d="M659 11q-40 -20 -84 -20q-49 0 -82 27t-40 76q-49 -54 -94 -80.5t-96 -26.5q-82 0 -126.5 56t-44.5 164v165h-87v99h212v-262q0 -50 21 -78t71 -28q66 0 142 84v185h-79v99h204v-338q0 -38 29 -38q16 0 28 5zM219 751l-64 -92l224 -134l34 48z" />
    <glyph glyph-name="uacute" unicode="&#xfa;" horiz-adv-x="674" 
d="M659 11q-40 -20 -84 -20q-49 0 -82 27t-40 76q-49 -54 -94 -80.5t-96 -26.5q-82 0 -126.5 56t-44.5 164v165h-87v99h212v-262q0 -50 21 -78t71 -28q66 0 142 84v185h-79v99h204v-338q0 -38 29 -38q16 0 28 5zM240 525l224 134l-65 92l-193 -178z" />
    <glyph glyph-name="ucircumflex" unicode="&#xfb;" horiz-adv-x="674" 
d="M659 11q-40 -20 -84 -20q-49 0 -82 27t-40 76q-49 -54 -94 -80.5t-96 -26.5q-82 0 -126.5 56t-44.5 164v165h-87v99h212v-262q0 -50 21 -78t71 -28q66 0 142 84v185h-79v99h204v-338q0 -38 29 -38q16 0 28 5zM130 561l149 174h63l149 -174l-39 -36l-143 112l-140 -112z
" />
    <glyph glyph-name="udieresis" unicode="&#xfc;" horiz-adv-x="674" 
d="M659 11q-40 -20 -84 -20q-49 0 -82 27t-40 76q-49 -54 -94 -80.5t-96 -26.5q-82 0 -126.5 56t-44.5 164v165h-87v99h212v-262q0 -50 21 -78t71 -28q66 0 142 84v185h-79v99h204v-338q0 -38 29 -38q16 0 28 5zM141.5 576.5q-22.5 17.5 -22.5 43.5q0 27 22.5 46t53.5 19
q32 0 53 -18.5t21 -46.5q0 -26 -21 -43.5t-53 -17.5q-31 0 -53.5 17.5zM369 576.5q-22 17.5 -22 43.5q0 27 22 46t52 19q32 0 54 -18.5t22 -46.5q0 -26 -22 -43.5t-54 -17.5q-30 0 -52 17.5z" />
    <glyph glyph-name="yacute" unicode="&#xfd;" horiz-adv-x="654" 
d="M639 372h-63l-188 -411q-47 -102 -102.5 -150.5t-130.5 -48.5q-41 0 -73 12.5t-71 36.5l49 95q24 -15 46.5 -24.5t48.5 -9.5q43 0 75.5 26t59.5 86l1 3l-197 385h-68v99h273v-89h-73l122 -267l117 267h-69v89h243v-99zM293 532l224 134l-65 92l-193 -178z" />
    <glyph glyph-name="thorn" unicode="&#xfe;" horiz-adv-x="659" 
d="M516 452.5q50 -31.5 79.5 -88t29.5 -126.5q0 -71 -32.5 -129t-89 -90.5t-126.5 -32.5q-84 0 -153 60v-165h113v-99h-335v99h100v707h-100v98h222v-302q39 47 87 73.5t96 26.5q59 0 109 -31.5zM454.5 131q41.5 42 41.5 108q0 61 -35.5 100t-92.5 39q-36 0 -73.5 -23
t-70.5 -65v-153q63 -48 123 -48q66 0 107.5 42z" />
    <glyph glyph-name="ydieresis" unicode="&#xff;" horiz-adv-x="654" 
d="M639 372h-63l-188 -411q-47 -102 -102.5 -150.5t-130.5 -48.5q-41 0 -73 12.5t-71 36.5l49 95q24 -15 46.5 -24.5t48.5 -9.5q43 0 75.5 26t59.5 86l1 3l-197 385h-68v99h273v-89h-73l122 -267l117 267h-69v89h243v-99zM194.5 583.5q-22.5 17.5 -22.5 43.5q0 27 22.5 46
t53.5 19q32 0 53 -18.5t21 -46.5q0 -26 -21 -43.5t-53 -17.5q-31 0 -53.5 17.5zM422 583.5q-22 17.5 -22 43.5q0 27 22 46t52 19q32 0 54 -18.5t22 -46.5q0 -26 -22 -43.5t-54 -17.5q-30 0 -52 17.5z" />
    <glyph glyph-name="Amacron" unicode="&#x100;" horiz-adv-x="842" 
d="M834 105v-105h-339v105h105l-50 130h-273l-50 -130h115v-105h-334v105h94l203 477h-86v104h401v-104h-87l205 -477h96zM514 329l-98 253h-5l-98 -253h201zM600 785l-376 2v88l376 -2v-88z" />
    <glyph glyph-name="amacron" unicode="&#x101;" horiz-adv-x="608" 
d="M598 13q-14 -9 -37 -15t-51 -6q-38 0 -66.5 21.5t-39.5 60.5q-99 -88 -196 -88q-69 0 -116 38.5t-47 110.5q0 50 28 86t73.5 54.5t96.5 18.5q44 0 80 -8.5t74 -24.5v37q0 40 -32.5 60t-83.5 20q-75 0 -182 -41l-25 95q121 51 224 51q105 0 161.5 -50.5t56.5 -139.5v-158
q0 -39 29 -39q14 0 28 6zM190 102.5q21 -13.5 52 -13.5q29 0 70 16t85 49v27q-61 23 -130 23q-41 -1 -69.5 -16.5t-28.5 -45.5q0 -26 21 -39.5zM479 583l-376 2v88l376 -2v-88z" />
    <glyph glyph-name="Abreve" unicode="&#x102;" horiz-adv-x="842" 
d="M834 105v-105h-339v105h105l-50 130h-273l-50 -130h115v-105h-334v105h94l203 477h-86v104h401v-104h-87l205 -477h96zM514 329l-98 253h-5l-98 -253h201zM324.5 786.5q-41.5 24.5 -65 63.5t-26.5 83l75 15q10 -37 39.5 -59.5t69.5 -22.5q39 0 69 22.5t39 59.5l75 -15
q-3 -44 -26.5 -83.5t-64 -63.5t-92.5 -24q-51 0 -92.5 24.5z" />
    <glyph glyph-name="abreve" unicode="&#x103;" horiz-adv-x="608" 
d="M598 13q-14 -9 -37 -15t-51 -6q-38 0 -66.5 21.5t-39.5 60.5q-99 -88 -196 -88q-69 0 -116 38.5t-47 110.5q0 50 28 86t73.5 54.5t96.5 18.5q44 0 80 -8.5t74 -24.5v37q0 40 -32.5 60t-83.5 20q-75 0 -182 -41l-25 95q121 51 224 51q105 0 161.5 -50.5t56.5 -139.5v-158
q0 -39 29 -39q14 0 28 6zM190 102.5q21 -13.5 52 -13.5q29 0 70 16t85 49v27q-61 23 -130 23q-41 -1 -69.5 -16.5t-28.5 -45.5q0 -26 21 -39.5zM203.5 584.5q-41.5 24.5 -65 63.5t-26.5 83l75 15q10 -37 39.5 -59.5t69.5 -22.5q39 0 69 22.5t39 59.5l75 -15
q-3 -44 -26.5 -83.5t-64 -63.5t-92.5 -24q-51 0 -92.5 24.5z" />
    <glyph glyph-name="Aogonek" unicode="&#x104;" horiz-adv-x="842" 
d="M869 -189q-26 -14 -49 -21t-56 -7q-49 0 -82 26t-33 72q0 69 65 119h-219v105h105l-50 130h-273l-50 -130h115v-105h-334v105h94l203 477h-86v104h401v-104h-87l205 -477h96v-105h-35q-33 -23 -53.5 -46.5t-20.5 -52.5q0 -20 14.5 -32t35.5 -12q33 0 70 21zM514 329
l-98 253h-5l-98 -253h201z" />
    <glyph glyph-name="aogonek" unicode="&#x105;" horiz-adv-x="608" 
d="M658 -180q-26 -14 -49 -21t-56 -7q-49 0 -82 26t-33 72q0 60 48 104q-29 7 -50.5 27.5t-31.5 52.5q-99 -88 -196 -88q-69 0 -116 38.5t-47 110.5q0 50 28 86t73.5 54.5t96.5 18.5q44 0 80 -8.5t74 -24.5v37q0 40 -32.5 60t-83.5 20q-75 0 -182 -41l-25 95q121 51 224 51
q105 0 161.5 -50.5t56.5 -139.5v-158q0 -39 29 -39q14 0 28 6l25 -89l-14 -7q-31 -22 -50.5 -45t-19.5 -51q0 -20 14.5 -32t35.5 -12q33 0 70 21zM190 102.5q21 -13.5 52 -13.5q29 0 70 16t85 49v27q-61 23 -130 23q-41 -1 -69.5 -16.5t-28.5 -45.5q0 -26 21 -39.5z" />
    <glyph glyph-name="Cacute" unicode="&#x106;" horiz-adv-x="757" 
d="M721 155q-53 -78 -131.5 -123t-182.5 -45q-101 0 -184.5 46t-132 127t-48.5 181q0 104 46 186t123.5 127.5t167.5 45.5q129 0 209 -86v72h119v-231l-86 -8q-31 68 -86 108t-136 40q-57 0 -107.5 -30.5t-81 -88t-30.5 -133.5q0 -70 30 -126.5t82 -89t115 -32.5
q78 0 131.5 33.5t96.5 96.5zM321 764l224 134l-65 92l-193 -178z" />
    <glyph glyph-name="cacute" unicode="&#x107;" horiz-adv-x="539" 
d="M511 74q-45 -42 -101 -65t-120 -23q-69 0 -128 32t-94 89t-35 129q0 68 32.5 125t87 90t117.5 33q48 0 82 -15.5t61 -45.5v48h88v-168l-53 -4q-51 83 -140 83q-63 0 -104 -40.5t-41 -103.5q0 -43 19.5 -76t52 -51.5t70.5 -19.5q45 0 80.5 16.5t72.5 48.5zM205 551
l224 134l-65 92l-193 -178z" />
    <glyph glyph-name="Cdotaccent" unicode="&#x10a;" horiz-adv-x="757" 
d="M721 155q-53 -78 -131.5 -123t-182.5 -45q-101 0 -184.5 46t-132 127t-48.5 181q0 104 46 186t123.5 127.5t167.5 45.5q129 0 209 -86v72h119v-231l-86 -8q-31 68 -86 108t-136 40q-57 0 -107.5 -30.5t-81 -88t-30.5 -133.5q0 -70 30 -126.5t82 -89t115 -32.5
q78 0 131.5 33.5t96.5 96.5zM330 810q-25 20 -25 49q0 30 25 50t62 20q39 0 63.5 -19.5t24.5 -50.5q0 -30 -24.5 -49.5t-63.5 -19.5q-37 0 -62 20z" />
    <glyph glyph-name="cdotaccent" unicode="&#x10b;" horiz-adv-x="539" 
d="M511 74q-45 -42 -101 -65t-120 -23q-69 0 -128 32t-94 89t-35 129q0 68 32.5 125t87 90t117.5 33q48 0 82 -15.5t61 -45.5v48h88v-168l-53 -4q-51 83 -140 83q-63 0 -104 -40.5t-41 -103.5q0 -43 19.5 -76t52 -51.5t70.5 -19.5q45 0 80.5 16.5t72.5 48.5zM214 597
q-25 20 -25 49q0 30 25 50t62 20q39 0 63.5 -19.5t24.5 -50.5q0 -30 -24.5 -49.5t-63.5 -19.5q-37 0 -62 20z" />
    <glyph glyph-name="Ccaron" unicode="&#x10c;" horiz-adv-x="757" 
d="M721 155q-53 -78 -131.5 -123t-182.5 -45q-101 0 -184.5 46t-132 127t-48.5 181q0 104 46 186t123.5 127.5t167.5 45.5q129 0 209 -86v72h119v-231l-86 -8q-31 68 -86 108t-136 40q-57 0 -107.5 -30.5t-81 -88t-30.5 -133.5q0 -70 30 -126.5t82 -89t115 -32.5
q78 0 131.5 33.5t96.5 96.5zM572 948l-149 -174h-63l-149 174l39 37l141 -111l142 111z" />
    <glyph glyph-name="ccaron" unicode="&#x10d;" horiz-adv-x="539" 
d="M511 74q-45 -42 -101 -65t-120 -23q-69 0 -128 32t-94 89t-35 129q0 68 32.5 125t87 90t117.5 33q48 0 82 -15.5t61 -45.5v48h88v-168l-53 -4q-51 83 -140 83q-63 0 -104 -40.5t-41 -103.5q0 -43 19.5 -76t52 -51.5t70.5 -19.5q45 0 80.5 16.5t72.5 48.5zM456 735
l-149 -174h-63l-149 174l39 37l141 -111l142 111z" />
    <glyph glyph-name="Dcaron" unicode="&#x10e;" horiz-adv-x="817" 
d="M570.5 648.5q91.5 -37.5 148 -114.5t56.5 -191q0 -113 -56.5 -190.5t-148 -115t-196.5 -37.5h-339v105h120v476h-120v105h339q105 0 196.5 -37.5zM556.5 159q80.5 54 80.5 184t-80.5 184t-196.5 54h-72v-476h72q116 0 196.5 54zM572 941l-149 -174h-63l-149 174l39 37
l141 -111l142 111z" />
    <glyph glyph-name="dcaron" unicode="&#x10f;" horiz-adv-x="654" 
d="M639 11q-15 -8 -37.5 -14t-46.5 -6q-39 0 -68 18.5t-43 53.5q-85 -77 -179 -77q-61 0 -114.5 31.5t-85.5 87.5t-32 126q0 72 32.5 130t89 90.5t126.5 32.5q85 0 153 -59v162h-99v99h222v-553q0 -38 28 -38q15 0 29 6zM199.5 130q36.5 -39 97.5 -39t137 60v180
q-63 48 -122 48q-66 0 -107.5 -41t-41.5 -107q0 -62 36.5 -101zM733 685q-5 -96 -78 -182l-52 14q36 91 31 180z" />
    <glyph glyph-name="Dcroat" unicode="&#x110;" horiz-adv-x="817" 
d="M570.5 648.5q91.5 -37.5 148 -114.5t56.5 -191q0 -113 -56.5 -190.5t-148 -115t-196.5 -37.5h-339v105h120v183h-110v107h110v186h-120v105h339q105 0 196.5 -37.5zM556.5 159q80.5 54 80.5 184t-80.5 184t-196.5 54h-72v-186h195v-107h-195v-183h72q116 0 196.5 54z" />
    <glyph glyph-name="dcroat" unicode="&#x111;" horiz-adv-x="654" 
d="M640 11q-15 -8 -38 -14t-47 -6q-40 0 -69.5 18t-43.5 52q-85 -75 -177 -75q-61 0 -114.5 31.5t-85.5 87.5t-32 126q0 72 32.5 130t89 90.5t126.5 32.5q81 0 150 -56v102h-195v81h195v75h126v-75h74v-81h-74v-397q0 -38 29 -38q19 0 28 6zM199.5 130q36.5 -39 97.5 -39
q33 0 65.5 15.5t68.5 42.5v187q-62 45 -119 45q-66 0 -107.5 -42t-41.5 -108q0 -62 36.5 -101z" />
    <glyph glyph-name="Emacron" unicode="&#x112;" horiz-adv-x="798" 
d="M612 448v133h-328v-193h132v86h99v-267h-99v86h-132v-188h328v133h116v-238h-693v105h119v476h-119v105h693v-238h-116zM588 785l-376 2v88l376 -2v-88z" />
    <glyph glyph-name="emacron" unicode="&#x113;" horiz-adv-x="564" 
d="M533 72q-100 -86 -231 -86q-70 0 -131.5 28t-99.5 82t-38 129q0 78 38 136.5t101 90.5t134 32q62 0 110.5 -19t76 -53.5t27.5 -79.5t-27.5 -77.5t-72 -48.5t-95.5 -16q-48 0 -88.5 10t-83.5 28q1 -64 45 -100.5t109 -36.5q99 1 174 63zM229.5 361.5
q-40.5 -24.5 -61.5 -65.5q62 -22 127 -22q45 1 72.5 16t27.5 42q0 24 -22 39t-58 15q-45 0 -85.5 -24.5zM475 586l-376 2v88l376 -2v-88z" />
    <glyph glyph-name="Edotaccent" unicode="&#x116;" horiz-adv-x="798" 
d="M612 448v133h-328v-193h132v86h99v-267h-99v86h-132v-188h328v133h116v-238h-693v105h119v476h-119v105h693v-238h-116zM344 796q-25 20 -25 49q0 30 25 50t62 20q39 0 63.5 -19.5t24.5 -50.5q0 -30 -24.5 -49.5t-63.5 -19.5q-37 0 -62 20z" />
    <glyph glyph-name="edotaccent" unicode="&#x117;" horiz-adv-x="564" 
d="M533 72q-100 -86 -231 -86q-70 0 -131.5 28t-99.5 82t-38 129q0 78 38 136.5t101 90.5t134 32q62 0 110.5 -19t76 -53.5t27.5 -79.5t-27.5 -77.5t-72 -48.5t-95.5 -16q-48 0 -88.5 10t-83.5 28q1 -64 45 -100.5t109 -36.5q99 1 174 63zM229.5 361.5
q-40.5 -24.5 -61.5 -65.5q62 -22 127 -22q45 1 72.5 16t27.5 42q0 24 -22 39t-58 15q-45 0 -85.5 -24.5zM231 597q-25 20 -25 49q0 30 25 50t62 20q39 0 63.5 -19.5t24.5 -50.5q0 -30 -24.5 -49.5t-63.5 -19.5q-37 0 -62 20z" />
    <glyph glyph-name="Eogonek" unicode="&#x118;" horiz-adv-x="798" 
d="M792 -193q-26 -14 -49 -21t-56 -7q-49 0 -82 26t-33 72q0 72 71 123h-608v105h119v476h-119v105h693v-238h-116v133h-328v-193h132v86h99v-267h-99v86h-132v-188h328v133h116v-238q-36 -26 -58 -49t-22 -54q0 -20 14.5 -32t35.5 -12q33 0 70 21z" />
    <glyph glyph-name="eogonek" unicode="&#x119;" horiz-adv-x="564" 
d="M583 -121q-26 -14 -49 -21t-56 -7q-49 0 -82 26t-33 72q0 20 7 43q-31 -6 -68 -6q-70 0 -131.5 28t-99.5 82t-38 129q0 78 38 136.5t101 90.5t134 32q62 0 110.5 -19t76 -53.5t27.5 -79.5t-27.5 -77.5t-72 -48.5t-95.5 -16q-48 0 -88.5 10t-83.5 28q1 -64 45 -100.5
t109 -36.5q99 1 174 63l52 -82q-35 -30 -71 -48q-23 -28 -23 -55q0 -20 14.5 -32t35.5 -12q33 0 70 21zM229.5 361.5q-40.5 -24.5 -61.5 -65.5q62 -22 127 -22q45 1 72.5 16t27.5 42q0 24 -22 39t-58 15q-45 0 -85.5 -24.5z" />
    <glyph glyph-name="Ecaron" unicode="&#x11a;" horiz-adv-x="798" 
d="M612 448v133h-328v-193h132v86h99v-267h-99v86h-132v-188h328v133h116v-238h-693v105h119v476h-119v105h693v-238h-116zM586 934l-149 -174h-63l-149 174l39 37l141 -111l142 111z" />
    <glyph glyph-name="ecaron" unicode="&#x11b;" horiz-adv-x="564" 
d="M533 72q-100 -86 -231 -86q-70 0 -131.5 28t-99.5 82t-38 129q0 78 38 136.5t101 90.5t134 32q62 0 110.5 -19t76 -53.5t27.5 -79.5t-27.5 -77.5t-72 -48.5t-95.5 -16q-48 0 -88.5 10t-83.5 28q1 -64 45 -100.5t109 -36.5q99 1 174 63zM229.5 361.5
q-40.5 -24.5 -61.5 -65.5q62 -22 127 -22q45 1 72.5 16t27.5 42q0 24 -22 39t-58 15q-45 0 -85.5 -24.5zM473 735l-149 -174h-63l-149 174l39 37l141 -111l142 111z" />
    <glyph glyph-name="Gbreve" unicode="&#x11e;" horiz-adv-x="791" 
d="M293.5 564.5q-53.5 -30.5 -84.5 -87.5t-31 -134q0 -73 30.5 -129.5t84.5 -88t122 -31.5q114 0 191 56v112h-202v99h321v-268q-53 -47 -134.5 -77t-175.5 -30q-112 0 -197.5 46t-131.5 127.5t-46 183.5q0 100 45.5 181.5t123.5 128.5t171 47q70 0 128 -22.5t101 -63.5v72
h116v-221l-85 -6q-34 59 -91.5 97.5t-136.5 38.5q-65 0 -118.5 -30.5zM327.5 800.5q-41.5 24.5 -65 63.5t-26.5 83l75 15q10 -37 39.5 -59.5t69.5 -22.5q39 0 69 22.5t39 59.5l75 -15q-3 -44 -26.5 -83.5t-64 -63.5t-92.5 -24q-51 0 -92.5 24.5z" />
    <glyph glyph-name="gbreve" unicode="&#x11f;" horiz-adv-x="572" 
d="M515 62.5q42 -33.5 42 -96.5q0 -55 -42.5 -96t-114.5 -63t-159 -22q-101 0 -165.5 36t-64.5 101q0 52 55 98q-39 33 -39 80q0 69 73 115q-36 41 -36 97q0 54 33 93t84 59t103 20q58 0 106 -19q17 52 59 78t100 27v-102q-35 -1 -60.5 -8.5t-43.5 -25.5q60 -47 60 -119
q0 -54 -33 -93t-84 -59t-104 -20q-72 0 -129 30q-20 -22 -20 -43q0 -24 17.5 -35t47.5 -11q32 0 92 6q68 6 113 6q68 0 110 -33.5zM213.5 373.5q-27.5 -23.5 -27.5 -61.5q0 -37 27.5 -59.5t71.5 -22.5q43 0 70.5 23.5t27.5 61.5q0 37 -27.5 59.5t-70.5 22.5
q-44 0 -71.5 -23.5zM388 -94.5q55 20.5 55 53.5q0 22 -16 31t-50 9q-22 0 -78 -6q-70 -8 -123 -8q-23 0 -46 5q-12 -21 -12 -41q0 -31 35.5 -47.5t104.5 -16.5q75 0 130 20.5zM191.5 590.5q-41.5 24.5 -65 63.5t-26.5 83l75 15q10 -37 39.5 -59.5t69.5 -22.5q39 0 69 22.5
t39 59.5l75 -15q-3 -44 -26.5 -83.5t-64 -63.5t-92.5 -24q-51 0 -92.5 24.5z" />
    <glyph glyph-name="Gdotaccent" unicode="&#x120;" horiz-adv-x="791" 
d="M293.5 564.5q-53.5 -30.5 -84.5 -87.5t-31 -134q0 -73 30.5 -129.5t84.5 -88t122 -31.5q114 0 191 56v112h-202v99h321v-268q-53 -47 -134.5 -77t-175.5 -30q-112 0 -197.5 46t-131.5 127.5t-46 183.5q0 100 45.5 181.5t123.5 128.5t171 47q70 0 128 -22.5t101 -63.5v72
h116v-221l-85 -6q-34 59 -91.5 97.5t-136.5 38.5q-65 0 -118.5 -30.5zM359 810q-25 20 -25 49q0 30 25 50t62 20q39 0 63.5 -19.5t24.5 -50.5q0 -30 -24.5 -49.5t-63.5 -19.5q-37 0 -62 20z" />
    <glyph glyph-name="gdotaccent" unicode="&#x121;" horiz-adv-x="572" 
d="M515 62.5q42 -33.5 42 -96.5q0 -55 -42.5 -96t-114.5 -63t-159 -22q-101 0 -165.5 36t-64.5 101q0 52 55 98q-39 33 -39 80q0 69 73 115q-36 41 -36 97q0 54 33 93t84 59t103 20q58 0 106 -19q17 52 59 78t100 27v-102q-35 -1 -60.5 -8.5t-43.5 -25.5q60 -47 60 -119
q0 -54 -33 -93t-84 -59t-104 -20q-72 0 -129 30q-20 -22 -20 -43q0 -24 17.5 -35t47.5 -11q32 0 92 6q68 6 113 6q68 0 110 -33.5zM213.5 373.5q-27.5 -23.5 -27.5 -61.5q0 -37 27.5 -59.5t71.5 -22.5q43 0 70.5 23.5t27.5 61.5q0 37 -27.5 59.5t-70.5 22.5
q-44 0 -71.5 -23.5zM388 -94.5q55 20.5 55 53.5q0 22 -16 31t-50 9q-22 0 -78 -6q-70 -8 -123 -8q-23 0 -46 5q-12 -21 -12 -41q0 -31 35.5 -47.5t104.5 -16.5q75 0 130 20.5zM223 600q-25 20 -25 49q0 30 25 50t62 20q39 0 63.5 -19.5t24.5 -50.5q0 -30 -24.5 -49.5
t-63.5 -19.5q-37 0 -62 20z" />
    <glyph glyph-name="Gcommaaccent" unicode="&#x122;" horiz-adv-x="791" 
d="M293.5 564.5q-53.5 -30.5 -84.5 -87.5t-31 -134q0 -73 30.5 -129.5t84.5 -88t122 -31.5q114 0 191 56v112h-202v99h321v-268q-53 -47 -134.5 -77t-175.5 -30q-112 0 -197.5 46t-131.5 127.5t-46 183.5q0 100 45.5 181.5t123.5 128.5t171 47q70 0 128 -22.5t101 -63.5v72
h116v-221l-85 -6q-34 59 -91.5 97.5t-136.5 38.5q-65 0 -118.5 -30.5zM475 -285.5q-29 -44.5 -74 -80.5l-29 30q34 31 53 62.5t20 54.5q-14 -7 -38 -7q-27 0 -45.5 16t-18.5 40q0 26 22.5 43.5t54.5 17.5q37 0 60.5 -24.5t23.5 -67.5q0 -40 -29 -84.5z" />
    <glyph glyph-name="gcommaaccent" unicode="&#x123;" horiz-adv-x="572" 
d="M515 62.5q42 -33.5 42 -96.5q0 -55 -42.5 -96t-114.5 -63t-159 -22q-101 0 -165.5 36t-64.5 101q0 52 55 98q-39 33 -39 80q0 69 73 115q-36 41 -36 97q0 54 33 93t84 59t103 20q58 0 106 -19q17 52 59 78t100 27v-102q-35 -1 -60.5 -8.5t-43.5 -25.5q60 -47 60 -119
q0 -54 -33 -93t-84 -59t-104 -20q-72 0 -129 30q-20 -22 -20 -43q0 -24 17.5 -35t47.5 -11q32 0 92 6q68 6 113 6q68 0 110 -33.5zM213.5 373.5q-27.5 -23.5 -27.5 -61.5q0 -37 27.5 -59.5t71.5 -22.5q43 0 70.5 23.5t27.5 61.5q0 37 -27.5 59.5t-70.5 22.5
q-44 0 -71.5 -23.5zM388 -94.5q55 20.5 55 53.5q0 22 -16 31t-50 9q-22 0 -78 -6q-70 -8 -123 -8q-23 0 -46 5q-12 -21 -12 -41q0 -31 35.5 -47.5t104.5 -16.5q75 0 130 20.5zM230 766.5q29 44.5 75 80.5l28 -30q-35 -31 -53.5 -63t-18.5 -55q7 5 15 6t22 1q28 0 46.5 -15
t18.5 -40q0 -26 -22.5 -43.5t-55.5 -17.5q-36 0 -60 25t-24 67q0 40 29 84.5z" />
    <glyph glyph-name="Hbar" unicode="&#x126;" horiz-adv-x="949" 
d="M794 582v-72h89v-81h-89v-324h121v-105h-374v105h120v160h-375v-160h122v-105h-373v105h120v324h-87v81h87v72h-120v104h373v-104h-122v-72h375v72h-120v104h374v-104h-121zM661 429h-375v-70h375v70z" />
    <glyph glyph-name="hbar" unicode="&#x127;" horiz-adv-x="726" 
d="M716 102v-102h-293v102h81v160q0 51 -25 80.5t-72 29.5q-73 0 -159 -99v-171h80v-102h-306v102h100v428h-101v81h101v75h126v-75h169v-81h-169v-161q52 59 101.5 86.5t108.5 27.5q85 0 128 -55.5t43 -164.5v-161h87z" />
    <glyph glyph-name="Imacron" unicode="&#x12a;" horiz-adv-x="443" 
d="M288 581v-476h121v-105h-374v105h120v476h-120v105h374v-105h-121zM407 785l-376 2v88l376 -2v-88z" />
    <glyph glyph-name="imacron" unicode="&#x12b;" horiz-adv-x="362" 
d="M354 99v-99h-326v99h100v273h-100v99h225v-372h101zM357 570l-376 2v88l376 -2v-88z" />
    <glyph glyph-name="Iogonek" unicode="&#x12e;" horiz-adv-x="443" 
d="M474 -193q-26 -14 -49 -21t-56 -7q-49 0 -82 26t-33 72q0 72 71 123h-290v105h120v476h-120v105h374v-105h-121v-476h121v-104l1 -1q-36 -26 -58 -49t-22 -54q0 -20 14.5 -32t35.5 -12q33 0 70 21z" />
    <glyph glyph-name="iogonek" unicode="&#x12f;" horiz-adv-x="362" 
d="M113 581q-25 20 -25 49q0 30 25 50t62 20q39 0 63.5 -19.5t24.5 -50.5q0 -30 -24.5 -49.5t-63.5 -19.5q-37 0 -62 20zM419 -193q-26 -14 -49 -21t-56 -7q-49 0 -82 26t-33 72q0 72 71 123h-242v99h100v273h-100v99h225v-372h101v-98l1 -1q-36 -26 -58 -49t-22 -54
q0 -20 14.5 -32t35.5 -12q33 0 70 21z" />
    <glyph glyph-name="Idotaccent" unicode="&#x130;" horiz-adv-x="443" 
d="M288 581v-476h121v-105h-374v105h120v476h-120v105h374v-105h-121zM163 796q-25 20 -25 49q0 30 25 50t62 20q39 0 63.5 -19.5t24.5 -50.5q0 -30 -24.5 -49.5t-63.5 -19.5q-37 0 -62 20z" />
    <glyph glyph-name="dotlessi" unicode="&#x131;" horiz-adv-x="362" 
d="M354 99v-99h-326v99h100v273h-100v99h225v-372h101z" />
    <glyph glyph-name="Kcommaaccent" unicode="&#x136;" horiz-adv-x="862" 
d="M854 105v-105h-335v105h89l-181 205l-139 -114v-91h113v-105h-366v105h120v476h-120v105h366v-105h-113v-265l320 265h-104v105h333v-105h-82l-236 -195l257 -281h78zM525 -272.5q-29 -44.5 -74 -80.5l-29 30q34 31 53 62.5t20 54.5q-14 -7 -38 -7q-27 0 -45.5 16
t-18.5 40q0 26 22.5 43.5t54.5 17.5q37 0 60.5 -24.5t23.5 -67.5q0 -40 -29 -84.5z" />
    <glyph glyph-name="kcommaaccent" unicode="&#x137;" horiz-adv-x="694" 
d="M703 54q-27 -33 -59 -50.5t-78 -17.5q-69 0 -117 50t-65 138q-71 5 -140 38v-113h86v-99h-309v99h100v488h-100v99h223v-297q98 93 201 93q74 0 124 -38t50 -110q0 -56 -36 -94t-93 -55q9 -43 31.5 -66.5t49.5 -23.5q39 0 68 31zM377 262q47 0 79.5 17t32.5 48
q0 27 -20 40t-58 13q-34 0 -77.5 -19t-89.5 -56v-14q70 -29 133 -29zM445 -272.5q-29 -44.5 -74 -80.5l-29 30q34 31 53 62.5t20 54.5q-14 -7 -38 -7q-27 0 -45.5 16t-18.5 40q0 26 22.5 43.5t54.5 17.5q37 0 60.5 -24.5t23.5 -67.5q0 -40 -29 -84.5z" />
    <glyph glyph-name="Lacute" unicode="&#x139;" horiz-adv-x="728" 
d="M690 263v-263h-655v105h120v476h-120v105h372v-105h-120v-476h278v158h125zM207 757l224 134l-65 92l-193 -178z" />
    <glyph glyph-name="lacute" unicode="&#x13a;" horiz-adv-x="356" 
d="M347 99v-99h-326v99h100v488h-100v99h225v-587h101zM114 750l224 134l-65 92l-193 -178z" />
    <glyph glyph-name="Lcommaaccent" unicode="&#x13b;" horiz-adv-x="728" 
d="M690 263v-263h-655v105h120v476h-120v105h372v-105h-120v-476h278v158h125zM428 -272.5q-29 -44.5 -74 -80.5l-29 30q34 31 53 62.5t20 54.5q-14 -7 -38 -7q-27 0 -45.5 16t-18.5 40q0 26 22.5 43.5t54.5 17.5q37 0 60.5 -24.5t23.5 -67.5q0 -40 -29 -84.5z" />
    <glyph glyph-name="lcommaaccent" unicode="&#x13c;" horiz-adv-x="356" 
d="M347 99v-99h-326v99h100v488h-100v99h225v-587h101zM239 -272.5q-29 -44.5 -74 -80.5l-29 30q34 31 53 62.5t20 54.5q-14 -7 -38 -7q-27 0 -45.5 16t-18.5 40q0 26 22.5 43.5t54.5 17.5q37 0 60.5 -24.5t23.5 -67.5q0 -40 -29 -84.5z" />
    <glyph glyph-name="Lcaron" unicode="&#x13d;" horiz-adv-x="728" 
d="M690 263v-263h-655v105h120v476h-120v105h372v-105h-120v-476h278v158h125zM607 679q-5 -96 -78 -182l-52 14q36 91 31 180z" />
    <glyph glyph-name="lcaron" unicode="&#x13e;" horiz-adv-x="356" 
d="M347 99v-99h-326v99h100v488h-100v99h225v-587h101zM424 685q-5 -96 -78 -182l-52 14q36 91 31 180z" />
    <glyph glyph-name="Ldot" unicode="&#x13f;" horiz-adv-x="728" 
d="M690 263v-263h-655v105h120v476h-120v105h372v-105h-120v-476h278v158h125zM522.5 384.5q-27.5 21.5 -27.5 53.5q0 33 27.5 55.5t66.5 22.5q42 0 68.5 -22t26.5 -56q0 -33 -26.5 -54t-68.5 -21q-39 0 -66.5 21.5z" />
    <glyph glyph-name="ldot" unicode="&#x140;" horiz-adv-x="355" 
d="M246 99h101v-99h-326v99h100v488h-100v99h225v-587zM411 373.5q20 -16.5 20 -42.5q0 -25 -19.5 -41t-51.5 -16q-30 0 -50.5 16t-20.5 41t20.5 42t50.5 17q31 0 51 -16.5z" />
    <glyph glyph-name="Lslash" unicode="&#x141;" horiz-adv-x="727" 
d="M690 263v-263h-655v105h120v165l-120 -44v79l120 44v232h-120v105h372v-105h-120v-184l128 46v-78l-128 -47v-213h278v158h125z" />
    <glyph glyph-name="lslash" unicode="&#x142;" horiz-adv-x="355" 
d="M347 99v-99h-326v99h100v174l-99 -40v78l99 40v236h-100v99h225v-284l100 41v-78l-100 -41v-225h101z" />
    <glyph glyph-name="Nacute" unicode="&#x143;" horiz-adv-x="940" 
d="M922 581h-116v-587l-69 -1l-457 512v-400h118v-105h-363v105h120v476h-120v105h245l404 -464v359h-120v105h358v-105zM392 747l224 134l-65 92l-193 -178z" />
    <glyph glyph-name="nacute" unicode="&#x144;" horiz-adv-x="736" 
d="M726 99v-99h-293v99h82v163q0 48 -25.5 76t-72.5 28q-76 0 -164 -100v-167h81v-99h-306v99h100v273h-100v99h225v-108q54 61 103.5 90.5t106.5 29.5q86 0 131.5 -56t45.5 -164v-164h86zM321 548l224 134l-65 92l-193 -178z" />
    <glyph glyph-name="Ncommaaccent" unicode="&#x145;" horiz-adv-x="940" 
d="M922 581h-116v-587l-69 -1l-457 512v-400h118v-105h-363v105h120v476h-120v105h245l404 -464v359h-120v105h358v-105zM557 -269.5q-29 -44.5 -74 -80.5l-29 30q34 31 53 62.5t20 54.5q-14 -7 -38 -7q-27 0 -45.5 16t-18.5 40q0 26 22.5 43.5t54.5 17.5q37 0 60.5 -24.5
t23.5 -67.5q0 -40 -29 -84.5z" />
    <glyph glyph-name="ncommaaccent" unicode="&#x146;" horiz-adv-x="736" 
d="M726 99v-99h-293v99h82v163q0 48 -25.5 76t-72.5 28q-76 0 -164 -100v-167h81v-99h-306v99h100v273h-100v99h225v-108q54 61 103.5 90.5t106.5 29.5q86 0 131.5 -56t45.5 -164v-164h86zM448 -272.5q-29 -44.5 -74 -80.5l-29 30q34 31 53 62.5t20 54.5q-14 -7 -38 -7
q-27 0 -45.5 16t-18.5 40q0 26 22.5 43.5t54.5 17.5q37 0 60.5 -24.5t23.5 -67.5q0 -40 -29 -84.5z" />
    <glyph glyph-name="Ncaron" unicode="&#x147;" horiz-adv-x="940" 
d="M922 581h-116v-587l-69 -1l-457 512v-400h118v-105h-363v105h120v476h-120v105h245l404 -464v359h-120v105h358v-105zM643 931l-149 -174h-63l-149 174l39 37l141 -111l142 111z" />
    <glyph glyph-name="ncaron" unicode="&#x148;" horiz-adv-x="736" 
d="M726 99v-99h-293v99h82v163q0 48 -25.5 76t-72.5 28q-76 0 -164 -100v-167h81v-99h-306v99h100v273h-100v99h225v-108q54 61 103.5 90.5t106.5 29.5q86 0 131.5 -56t45.5 -164v-164h86zM572 732l-149 -174h-63l-149 174l39 37l141 -111l142 111z" />
    <glyph glyph-name="Eng" unicode="&#x14a;" horiz-adv-x="940" 
d="M922 582h-116v-586q0 -74 -30.5 -127.5t-82 -81.5t-113.5 -28q-63 0 -117.5 21t-88.5 53l56 92q79 -58 143 -56q113 7 113 133v48l-403 451v-396h103v-105h-351v105h120v477h-120v104h248l401 -464v360h-120v104h358v-104z" />
    <glyph glyph-name="eng" unicode="&#x14b;" horiz-adv-x="716" 
d="M594.5 427q45.5 -56 45.5 -164v-280q0 -70 -26.5 -120t-73.5 -75.5t-107 -25.5q-34 0 -57.5 5.5t-42.5 12t-28 9.5l31 104q29 -11 49 -16t44 -5q40 0 63 28t23 80v282q0 48 -25.5 76.5t-72.5 28.5q-77 0 -164 -101v-167h81v-99h-306v99h100v273h-100v99h225v-108
q54 61 103.5 90.5t106.5 29.5q86 0 131.5 -56z" />
    <glyph glyph-name="Omacron" unicode="&#x14c;" horiz-adv-x="814" 
d="M220.5 33.5q-83.5 46.5 -131 127.5t-47.5 182t47.5 182.5t131.5 128t187 46.5q102 0 185.5 -46.5t131 -128t47.5 -182.5q0 -100 -47.5 -181.5t-131 -128t-185.5 -46.5q-104 0 -187.5 46.5zM525.5 127.5q51.5 32.5 79.5 89.5t28 126q0 70 -28 127t-79 89.5t-118 32.5
q-69 0 -120.5 -33t-79.5 -89.5t-28 -126.5q0 -71 28 -127t79.5 -88.5t120.5 -32.5q66 0 117.5 32.5zM590 799l-376 2v88l376 -2v-88z" />
    <glyph glyph-name="omacron" unicode="&#x14d;" horiz-adv-x="599" 
d="M168 17q-61 31 -98 88t-37 130t37 130t98 88t131 31q68 0 129.5 -31t99 -88t37.5 -130t-36.5 -130t-97.5 -88t-132 -31q-70 0 -131 31zM396.5 126q38.5 41 38.5 109t-38.5 109t-96.5 41q-59 0 -97.5 -41t-38.5 -109t38.5 -109t97.5 -41q58 0 96.5 41zM482 586l-376 2v88
l376 -2v-88z" />
    <glyph glyph-name="Ohungarumlaut" unicode="&#x150;" horiz-adv-x="814" 
d="M220.5 33.5q-83.5 46.5 -131 127.5t-47.5 182t47.5 182.5t131.5 128t187 46.5q102 0 185.5 -46.5t131 -128t47.5 -182.5q0 -100 -47.5 -181.5t-131 -128t-185.5 -46.5q-104 0 -187.5 46.5zM525.5 127.5q51.5 32.5 79.5 89.5t28 126q0 70 -28 127t-79 89.5t-118 32.5
q-69 0 -120.5 -33t-79.5 -89.5t-28 -126.5q0 -71 28 -127t79.5 -88.5t120.5 -32.5q66 0 117.5 32.5zM236 801l112 194l90 -66l-143 -170zM431 801l112 194l90 -66l-142 -170z" />
    <glyph glyph-name="ohungarumlaut" unicode="&#x151;" horiz-adv-x="599" 
d="M168 17q-61 31 -98 88t-37 130t37 130t98 88t131 31q68 0 129.5 -31t99 -88t37.5 -130t-36.5 -130t-97.5 -88t-132 -31q-70 0 -131 31zM396.5 126q38.5 41 38.5 109t-38.5 109t-96.5 41q-59 0 -97.5 -41t-38.5 -109t38.5 -109t97.5 -41q58 0 96.5 41zM128 588l112 194
l90 -66l-143 -170zM323 588l112 194l90 -66l-142 -170z" />
    <glyph glyph-name="OE" unicode="&#x152;" horiz-adv-x="1150" 
d="M962 451v131h-309v-189h116v81h105v-267h-105v81h-116v-183h309v130h118v-235h-654q-103 0 -190.5 37t-140.5 114t-53 191q0 115 53 192t140.5 114.5t190.5 37.5h654v-235h-118zM520 582h-63q-115 0 -196 -54.5t-81 -185.5q0 -129 80.5 -183t196.5 -54h63v477z" />
    <glyph glyph-name="oe" unicode="&#x153;" horiz-adv-x="961" 
d="M930 72q-98 -86 -226 -86q-60 0 -113 25t-89 70q-35 -45 -88.5 -70t-116.5 -25q-69 0 -129.5 31t-97.5 88t-37 130t37 130t97.5 88t129.5 31q62 0 117 -26.5t91 -74.5q36 46 91.5 73.5t115.5 27.5q91 0 148 -42t57 -110q0 -67 -57 -104.5t-137 -37.5q-48 0 -88.5 9.5
t-82.5 27.5l-1 -19q9 -54 55.5 -87.5t105.5 -33.5q52 0 89.5 15.5t77.5 45.5zM626 362.5q-41 -24.5 -61 -65.5q62 -23 128 -23q44 1 71.5 16.5t27.5 41.5q0 24 -22 39.5t-58 15.5q-45 0 -86 -24.5zM392 126q38 41 38 109t-38 109t-95 41q-56 0 -94.5 -41t-38.5 -109
t38.5 -109t94.5 -41q57 0 95 41z" />
    <glyph glyph-name="Racute" unicode="&#x154;" horiz-adv-x="797" 
d="M819 58q-28 -32 -63 -52t-86 -20q-92 0 -153.5 64.5t-95.5 200.5l-10 32h-123v-179h117v-104h-370v105h120v476h-120v105h404q121 0 192.5 -53.5t71.5 -147.5q0 -78 -45.5 -128t-129.5 -67l11 -31q27 -82 61.5 -116.5t77.5 -34.5q45 0 79 36zM288 381h155q53 0 91 26.5
t38 77.5q0 47 -37 71.5t-92 24.5h-155v-200zM345 750l224 134l-65 92l-193 -178z" />
    <glyph glyph-name="racute" unicode="&#x155;" horiz-adv-x="558" 
d="M514 483v-210h-109v86q-29 0 -69.5 -25.5t-82.5 -71.5v-163h101v-99h-326v99h100v273h-100v99h225v-110q50 56 105.5 89t105.5 33h50zM233 535l224 134l-65 92l-193 -178z" />
    <glyph glyph-name="Rcommaaccent" unicode="&#x156;" horiz-adv-x="797" 
d="M819 58q-28 -32 -63 -52t-86 -20q-92 0 -153.5 64.5t-95.5 200.5l-10 32h-123v-179h117v-104h-370v105h120v476h-120v105h404q121 0 192.5 -53.5t71.5 -147.5q0 -78 -45.5 -128t-129.5 -67l11 -31q27 -82 61.5 -116.5t77.5 -34.5q45 0 79 36zM288 381h155q53 0 91 26.5
t38 77.5q0 47 -37 71.5t-92 24.5h-155v-200zM523 -272.5q-29 -44.5 -74 -80.5l-29 30q34 31 53 62.5t20 54.5q-14 -7 -38 -7q-27 0 -45.5 16t-18.5 40q0 26 22.5 43.5t54.5 17.5q37 0 60.5 -24.5t23.5 -67.5q0 -40 -29 -84.5z" />
    <glyph glyph-name="rcommaaccent" unicode="&#x157;" horiz-adv-x="558" 
d="M514 483v-210h-109v86q-29 0 -69.5 -25.5t-82.5 -71.5v-163h101v-99h-326v99h100v273h-100v99h225v-110q50 56 105.5 89t105.5 33h50zM245 -272.5q-29 -44.5 -74 -80.5l-29 30q34 31 53 62.5t20 54.5q-14 -7 -38 -7q-27 0 -45.5 16t-18.5 40q0 26 22.5 43.5t54.5 17.5
q37 0 60.5 -24.5t23.5 -67.5q0 -40 -29 -84.5z" />
    <glyph glyph-name="Rcaron" unicode="&#x158;" horiz-adv-x="797" 
d="M819 58q-28 -32 -63 -52t-86 -20q-92 0 -153.5 64.5t-95.5 200.5l-10 32h-123v-179h117v-104h-370v105h120v476h-120v105h404q121 0 192.5 -53.5t71.5 -147.5q0 -78 -45.5 -128t-129.5 -67l11 -31q27 -82 61.5 -116.5t77.5 -34.5q45 0 79 36zM288 381h155q53 0 91 26.5
t38 77.5q0 47 -37 71.5t-92 24.5h-155v-200zM596 934l-149 -174h-63l-149 174l39 37l141 -111l142 111z" />
    <glyph glyph-name="rcaron" unicode="&#x159;" horiz-adv-x="558" 
d="M514 483v-210h-109v86q-29 0 -69.5 -25.5t-82.5 -71.5v-163h101v-99h-326v99h100v273h-100v99h225v-110q50 56 105.5 89t105.5 33h50zM484 719l-149 -174h-63l-149 174l39 37l141 -111l142 111z" />
    <glyph glyph-name="Sacute" unicode="&#x15a;" horiz-adv-x="710" 
d="M595.5 312.5q70.5 -51.5 70.5 -136.5q0 -58 -30 -100.5t-83.5 -65.5t-120.5 -23q-128 0 -246 105v-91h-116v240l79 5q53 -70 129.5 -112t145.5 -42q46 0 75 18.5t29 52.5q0 38 -50 67t-170 61q-122 33 -178.5 86.5t-56.5 133.5q0 56 31.5 99t83 66.5t111.5 23.5
q132 0 215 -89v75h116v-235l-75 -4q-37 72 -97 110t-127 38q-53 0 -86.5 -21t-33.5 -57q0 -37 41.5 -63t140.5 -53q132 -37 202.5 -88.5zM288 764l224 134l-65 92l-193 -178z" />
    <glyph glyph-name="sacute" unicode="&#x15b;" horiz-adv-x="530" 
d="M432.5 223q48.5 -39 48.5 -102q0 -39 -23 -70t-63 -48t-89 -17q-50 0 -95 16t-80 46v-49h-91v155l55 5q30 -38 85 -65t102 -27q33 0 51 11.5t18 31.5q0 22 -28.5 39t-101.5 37q-90 25 -136 62.5t-46 97.5q0 38 21 69.5t59 50t88 18.5q93 0 157 -59v46h91v-154l-55 -5
q-27 43 -69.5 67t-88.5 24q-32 0 -52.5 -12t-20.5 -31q0 -21 27.5 -36.5t96.5 -35.5q91 -26 139.5 -65zM184 546l224 134l-65 92l-193 -178z" />
    <glyph glyph-name="Scedilla" unicode="&#x15e;" horiz-adv-x="710" 
d="M386 -10l-24 -58q4 1 19 1q46 0 74.5 -25t28.5 -67q0 -49 -42 -79.5t-98 -30.5q-72 0 -147 53l35 58q60 -44 112 -44q27 0 44 12t17 31q0 20 -17 31t-44 11q-22 0 -56 -4l-7 9l48 117q-76 26 -143 87v-91h-116v240l79 5q53 -70 129.5 -112t145.5 -42q46 0 75 18.5
t29 52.5q0 38 -50 67t-170 61q-122 33 -178.5 86.5t-56.5 133.5q0 56 31.5 99t83 66.5t111.5 23.5q132 0 215 -89v75h116v-235l-75 -4q-37 72 -97 110t-127 38q-53 0 -86.5 -21t-33.5 -57q0 -37 41.5 -63t140.5 -53q132 -37 202.5 -88.5t70.5 -136.5q0 -58 -30 -100.5
t-83.5 -65.5t-120.5 -23q-23 0 -46 3z" />
    <glyph glyph-name="scedilla" unicode="&#x15f;" horiz-adv-x="530" 
d="M286 -13l-23 -55q4 1 19 1q46 0 74.5 -25t28.5 -67q0 -49 -42 -79.5t-98 -30.5q-72 0 -147 53l35 58q60 -44 112 -44q27 0 44 12t17 31q0 20 -17 31t-44 11q-22 0 -56 -4l-7 9l45 109q-54 15 -96 51v-49h-91v155l55 5q30 -38 85 -65t102 -27q33 0 51 11.5t18 31.5
q0 22 -28.5 39t-101.5 37q-90 25 -136 62.5t-46 97.5q0 38 21 69.5t59 50t88 18.5q93 0 157 -59v46h91v-154l-55 -5q-27 43 -69.5 67t-88.5 24q-32 0 -52.5 -12t-20.5 -31q0 -21 27.5 -36.5t96.5 -35.5q91 -26 139.5 -65t48.5 -102q0 -39 -23 -70t-63 -48t-89 -17
q-14 0 -20 1z" />
    <glyph glyph-name="Scaron" unicode="&#x160;" horiz-adv-x="710" 
d="M595.5 312.5q70.5 -51.5 70.5 -136.5q0 -58 -30 -100.5t-83.5 -65.5t-120.5 -23q-128 0 -246 105v-91h-116v240l79 5q53 -70 129.5 -112t145.5 -42q46 0 75 18.5t29 52.5q0 38 -50 67t-170 61q-122 33 -178.5 86.5t-56.5 133.5q0 56 31.5 99t83 66.5t111.5 23.5
q132 0 215 -89v75h116v-235l-75 -4q-37 72 -97 110t-127 38q-53 0 -86.5 -21t-33.5 -57q0 -37 41.5 -63t140.5 -53q132 -37 202.5 -88.5zM539 948l-149 -174h-63l-149 174l39 37l141 -111l142 111z" />
    <glyph glyph-name="scaron" unicode="&#x161;" horiz-adv-x="530" 
d="M432.5 223q48.5 -39 48.5 -102q0 -39 -23 -70t-63 -48t-89 -17q-50 0 -95 16t-80 46v-49h-91v155l55 5q30 -38 85 -65t102 -27q33 0 51 11.5t18 31.5q0 22 -28.5 39t-101.5 37q-90 25 -136 62.5t-46 97.5q0 38 21 69.5t59 50t88 18.5q93 0 157 -59v46h91v-154l-55 -5
q-27 43 -69.5 67t-88.5 24q-32 0 -52.5 -12t-20.5 -31q0 -21 27.5 -36.5t96.5 -35.5q91 -26 139.5 -65zM435 730l-149 -174h-63l-149 174l39 37l141 -111l142 111z" />
    <glyph glyph-name="uni0162" unicode="&#x162;" horiz-adv-x="784" 
d="M751 686v-245h-116v140h-176v-476h120v-105h-373v105h120v476h-178v-140h-116v245h719zM226 -203l35 58q60 -44 112 -44q27 0 44 12t17 31q0 20 -17 31t-44 11q-22 0 -56 -4l-7 9l52 126h63l-34 -82q4 1 19 1q46 0 74.5 -25t28.5 -67q0 -49 -42 -79.5t-98 -30.5
q-72 0 -147 53z" />
    <glyph glyph-name="uni0163" unicode="&#x163;" horiz-adv-x="444" 
d="M350.5 -92q28.5 -25 28.5 -67q0 -49 -42 -79.5t-98 -30.5q-72 0 -147 53l35 58q60 -44 112 -44q27 0 44 12t17 31q0 20 -17 31t-44 11q-22 0 -56 -4l-7 9l46 110q-54 20 -83 68.5t-29 120.5v185h-99v99h99v131h125v-131h144v-99h-144v-186q0 -44 20 -66.5t57 -22.5
q25 0 47 8t49 24l43 -93q-36 -23 -74 -36t-86 -13h-11l-23 -55q4 1 19 1q46 0 74.5 -25z" />
    <glyph glyph-name="Tcaron" unicode="&#x164;" horiz-adv-x="784" 
d="M751 686v-245h-116v140h-176v-476h120v-105h-373v105h120v476h-178v-140h-116v245h719zM571 944l-149 -174h-63l-149 174l39 37l141 -111l142 111z" />
    <glyph glyph-name="tcaron" unicode="&#x165;" horiz-adv-x="444" 
d="M451 36q-36 -23 -74 -36t-86 -13q-84 0 -132.5 53t-48.5 147v185h-99v99h99v131h125v-131h144v-99h-144v-186q0 -44 20 -66.5t57 -22.5q25 0 47 8t49 24zM405 727q-5 -96 -78 -182l-52 14q36 91 31 180z" />
    <glyph glyph-name="Tbar" unicode="&#x166;" horiz-adv-x="784" 
d="M751 686v-245h-116v140h-176v-237h166v-81h-166v-158h120v-105h-373v105h120v158h-168v81h168v237h-178v-140h-116v245h719z" />
    <glyph glyph-name="tbar" unicode="&#x167;" horiz-adv-x="444" 
d="M451 36q-36 -23 -74 -36t-86 -13q-84 0 -132 53t-48 147v53h-100v80h100v70h-100v81h100v131h123v-131h145v-81h-145v-70h111v-80h-111v-54q0 -44 20.5 -66.5t57.5 -22.5q25 0 47.5 8t48.5 24z" />
    <glyph glyph-name="Umacron" unicode="&#x16a;" horiz-adv-x="887" 
d="M880 581h-120v-313q0 -80 -41 -144.5t-113 -100.5t-163 -36q-93 0 -165 36t-111.5 100t-39.5 145v313h-120v105h363v-105h-110v-306q0 -52 23.5 -93t65 -64t94.5 -23t95 23t65.5 64.5t23.5 93.5l-2 305h-109v105h364v-105zM626 788l-376 2v88l376 -2v-88z" />
    <glyph glyph-name="umacron" unicode="&#x16b;" horiz-adv-x="674" 
d="M659 11q-40 -20 -84 -20q-49 0 -82 27t-40 76q-49 -54 -94 -80.5t-96 -26.5q-82 0 -126.5 56t-44.5 164v165h-87v99h212v-262q0 -50 21 -78t71 -28q66 0 142 84v185h-79v99h204v-338q0 -38 29 -38q16 0 28 5zM493 560l-376 2v88l376 -2v-88z" />
    <glyph glyph-name="Uring" unicode="&#x16e;" horiz-adv-x="887" 
d="M880 581h-120v-313q0 -80 -41 -144.5t-113 -100.5t-163 -36q-93 0 -165 36t-111.5 100t-39.5 145v313h-120v105h363v-105h-110v-306q0 -52 23.5 -93t65 -64t94.5 -23t95 23t65.5 64.5t23.5 93.5l-2 305h-109v105h364v-105zM372.5 768q-32.5 19 -52.5 51t-20 71
q0 40 19.5 72t52.5 49.5t71 17.5t71 -19t53 -51t20 -71q0 -40 -19.5 -72t-52.5 -49.5t-72 -17.5q-38 0 -70.5 19zM495.5 835.5q22.5 21.5 22.5 52.5t-22.5 53.5t-52.5 22.5q-31 0 -52.5 -21t-21.5 -53q0 -31 22 -53.5t52 -22.5t52.5 21.5z" />
    <glyph glyph-name="uring" unicode="&#x16f;" horiz-adv-x="674" 
d="M659 11q-40 -20 -84 -20q-49 0 -82 27t-40 76q-49 -54 -94 -80.5t-96 -26.5q-82 0 -126.5 56t-44.5 164v165h-87v99h212v-262q0 -50 21 -78t71 -28q66 0 142 84v185h-79v99h204v-338q0 -38 29 -38q16 0 28 5zM239.5 540q-32.5 19 -52.5 51t-20 71q0 40 19.5 72t52.5 49.5
t71 17.5t71 -19t53 -51t20 -71q0 -40 -19.5 -72t-52.5 -49.5t-72 -17.5q-38 0 -70.5 19zM362.5 607.5q22.5 21.5 22.5 52.5t-22.5 53.5t-52.5 22.5q-31 0 -52.5 -21t-21.5 -53q0 -31 22 -53.5t52 -22.5t52.5 21.5z" />
    <glyph glyph-name="Uhungarumlaut" unicode="&#x170;" horiz-adv-x="887" 
d="M880 581h-120v-313q0 -80 -41 -144.5t-113 -100.5t-163 -36q-93 0 -165 36t-111.5 100t-39.5 145v313h-120v105h363v-105h-110v-306q0 -52 23.5 -93t65 -64t94.5 -23t95 23t65.5 64.5t23.5 93.5l-2 305h-109v105h364v-105zM272 790l112 194l90 -66l-143 -170zM467 790
l112 194l90 -66l-142 -170z" />
    <glyph glyph-name="uhungarumlaut" unicode="&#x171;" horiz-adv-x="674" 
d="M659 11q-40 -20 -84 -20q-49 0 -82 27t-40 76q-49 -54 -94 -80.5t-96 -26.5q-82 0 -126.5 56t-44.5 164v165h-87v99h212v-262q0 -50 21 -78t71 -28q66 0 142 84v185h-79v99h204v-338q0 -38 29 -38q16 0 28 5zM139 562l112 194l90 -66l-143 -170zM334 562l112 194l90 -66
l-142 -170z" />
    <glyph glyph-name="Uogonek" unicode="&#x172;" horiz-adv-x="887" 
d="M880 581h-120v-313q0 -72 -32.5 -131t-91.5 -97t-135 -49q-34 -24 -55 -47t-21 -53q0 -20 14.5 -32t35.5 -12q33 0 70 21l24 -67q-26 -14 -49 -21t-56 -7q-49 0 -82 26t-33 72q0 67 63 117q-85 6 -149.5 43.5t-100 99t-35.5 137.5v313h-120v105h363v-105h-110v-306
q0 -52 23.5 -93t65 -64t94.5 -23t95 23t65.5 64.5t23.5 93.5l-2 305h-109v105h364v-105z" />
    <glyph glyph-name="uogonek" unicode="&#x173;" horiz-adv-x="674" 
d="M724 -182q-26 -14 -49 -21t-56 -7q-49 0 -82 26t-33 72q0 61 48 105q-40 5 -66 31.5t-33 69.5q-49 -54 -94 -80.5t-96 -26.5q-82 0 -126.5 56t-44.5 164v165h-87v99h212v-262q0 -50 21 -78t71 -28q66 0 142 84v185h-79v99h204v-338q0 -38 29 -38q16 0 28 5l26 -88l1 -1
q-36 -26 -58 -49t-22 -54q0 -20 14.5 -32t35.5 -12q33 0 70 21z" />
    <glyph glyph-name="Wcircumflex" unicode="&#x174;" horiz-adv-x="1175" 
d="M1173 581h-105l-213 -594h-68l-207 464l-192 -464h-67l-216 594h-103v105h351v-105h-109l125 -379l183 470h75l196 -473l118 382h-111v105h343v-105zM390 786l149 174h63l149 -174l-39 -36l-143 112l-140 -112z" />
    <glyph glyph-name="wcircumflex" unicode="&#x175;" horiz-adv-x="888" 
d="M872 372h-65l-154 -385h-66l-143 297l-141 -297h-68l-151 385h-67v99h271v-89h-83l81 -230l135 306h73l131 -302l79 226h-81v89h249v-99zM268 571l149 174h63l149 -174l-39 -36l-143 112l-140 -112z" />
    <glyph glyph-name="Ycircumflex" unicode="&#x176;" horiz-adv-x="801" 
d="M468 276v-171h124v-105h-380v105h123v165l-237 311h-86v105h322v-105h-81l163 -223l152 223h-100v105h322v-105h-93zM221 773l149 174h63l149 -174l-39 -36l-143 112l-140 -112z" />
    <glyph glyph-name="ycircumflex" unicode="&#x177;" horiz-adv-x="654" 
d="M639 372h-63l-188 -411q-47 -102 -102.5 -150.5t-130.5 -48.5q-41 0 -73 12.5t-71 36.5l49 95q24 -15 46.5 -24.5t48.5 -9.5q43 0 75.5 26t59.5 86l1 3l-197 385h-68v99h273v-89h-73l122 -267l117 267h-69v89h243v-99zM183 568l149 174h63l149 -174l-39 -36l-143 112
l-140 -112z" />
    <glyph glyph-name="Ydieresis" unicode="&#x178;" horiz-adv-x="801" 
d="M468 276v-171h124v-105h-380v105h123v165l-237 311h-86v105h322v-105h-81l163 -223l152 223h-100v105h322v-105h-93zM232.5 788.5q-22.5 17.5 -22.5 43.5q0 27 22.5 46t53.5 19q32 0 53 -18.5t21 -46.5q0 -26 -21 -43.5t-53 -17.5q-31 0 -53.5 17.5zM460 788.5
q-22 17.5 -22 43.5q0 27 22 46t52 19q32 0 54 -18.5t22 -46.5q0 -26 -22 -43.5t-54 -17.5q-30 0 -52 17.5z" />
    <glyph glyph-name="Zacute" unicode="&#x179;" horiz-adv-x="753" 
d="M64 91l421 457q12 12 31.5 21.5t33.5 13.5l-1 7q-32 -8 -70 -8h-301v-141h-116v245h630v-91l-423 -459q-11 -13 -30.5 -21.5t-34.5 -11.5l2 -6q37 8 70 8h306v140h116v-245h-634v91zM328 750l224 134l-65 92l-193 -178z" />
    <glyph glyph-name="zacute" unicode="&#x17a;" horiz-adv-x="593" 
d="M568 158q-6 -53 -35.5 -92t-71.5 -59.5t-86 -20.5q-57 0 -101.5 23.5t-95.5 72.5q-29 -38 -50 -96l-102 41q25 73 66 122.5t81 76.5t104 62l62 36q-35 25 -78.5 39.5t-107.5 14.5v-105h-105v211h77q71 0 119.5 -12t83.5 -34t78 -60q33 41 47 108l105 -40
q-17 -69 -46 -114.5t-69.5 -75t-101.5 -58.5q-66 -30 -106 -60q34 -24 63 -35.5t58 -11.5q38 0 67.5 27.5t37.5 69.5zM234 548l224 134l-65 92l-193 -178z" />
    <glyph glyph-name="Zdotaccent" unicode="&#x17b;" horiz-adv-x="753" 
d="M64 91l421 457q12 12 31.5 21.5t33.5 13.5l-1 7q-32 -8 -70 -8h-301v-141h-116v245h630v-91l-423 -459q-11 -13 -30.5 -21.5t-34.5 -11.5l2 -6q37 8 70 8h306v140h116v-245h-634v91zM337 796q-25 20 -25 49q0 30 25 50t62 20q39 0 63.5 -19.5t24.5 -50.5
q0 -30 -24.5 -49.5t-63.5 -19.5q-37 0 -62 20z" />
    <glyph glyph-name="zdotaccent" unicode="&#x17c;" horiz-adv-x="593" 
d="M568 158q-6 -53 -35.5 -92t-71.5 -59.5t-86 -20.5q-57 0 -101.5 23.5t-95.5 72.5q-29 -38 -50 -96l-102 41q25 73 66 122.5t81 76.5t104 62l62 36q-35 25 -78.5 39.5t-107.5 14.5v-105h-105v211h77q71 0 119.5 -12t83.5 -34t78 -60q33 41 47 108l105 -40
q-17 -69 -46 -114.5t-69.5 -75t-101.5 -58.5q-66 -30 -106 -60q34 -24 63 -35.5t58 -11.5q38 0 67.5 27.5t37.5 69.5zM243 594q-25 20 -25 49q0 30 25 50t62 20q39 0 63.5 -19.5t24.5 -50.5q0 -30 -24.5 -49.5t-63.5 -19.5q-37 0 -62 20z" />
    <glyph glyph-name="Zcaron" unicode="&#x17d;" horiz-adv-x="753" 
d="M64 91l421 457q12 12 31.5 21.5t33.5 13.5l-1 7q-32 -8 -70 -8h-301v-141h-116v245h630v-91l-423 -459q-11 -13 -30.5 -21.5t-34.5 -11.5l2 -6q37 8 70 8h306v140h116v-245h-634v91zM579 934l-149 -174h-63l-149 174l39 37l141 -111l142 111z" />
    <glyph glyph-name="zcaron" unicode="&#x17e;" horiz-adv-x="593" 
d="M568 158q-6 -53 -35.5 -92t-71.5 -59.5t-86 -20.5q-57 0 -101.5 23.5t-95.5 72.5q-29 -38 -50 -96l-102 41q25 73 66 122.5t81 76.5t104 62l62 36q-35 25 -78.5 39.5t-107.5 14.5v-105h-105v211h77q71 0 119.5 -12t83.5 -34t78 -60q33 41 47 108l105 -40
q-17 -69 -46 -114.5t-69.5 -75t-101.5 -58.5q-66 -30 -106 -60q34 -24 63 -35.5t58 -11.5q38 0 67.5 27.5t37.5 69.5zM485 732l-149 -174h-63l-149 174l39 37l141 -111l142 111z" />
    <glyph glyph-name="florin" unicode="&#x192;" horiz-adv-x="492" 
d="M333 599q-26 -24 -26 -62v-123h145v-98h-145v-268q0 -105 -53 -162t-149 -57q-40 0 -77 10l25 104q22 -4 36 -4q48 1 72 28.5t24 78.5v270h-101v98h101v120q0 92 55.5 145.5t147.5 53.5q47 0 85 -11t85 -32l-43 -100q-30 16 -56 24.5t-56 8.5q-44 0 -70 -24z" />
    <glyph glyph-name="Scommaaccent" unicode="&#x218;" horiz-adv-x="710" 
d="M595.5 312.5q70.5 -51.5 70.5 -136.5q0 -58 -30 -100.5t-83.5 -65.5t-120.5 -23q-128 0 -246 105v-91h-116v240l79 5q53 -70 129.5 -112t145.5 -42q46 0 75 18.5t29 52.5q0 38 -50 67t-170 61q-122 33 -178.5 86.5t-56.5 133.5q0 56 31.5 99t83 66.5t111.5 23.5
q132 0 215 -89v75h116v-235l-75 -4q-37 72 -97 110t-127 38q-53 0 -86.5 -21t-33.5 -57q0 -37 41.5 -63t140.5 -53q132 -37 202.5 -88.5zM439 -285.5q-29 -44.5 -74 -80.5l-29 30q34 31 53 62.5t20 54.5q-14 -7 -38 -7q-27 0 -45.5 16t-18.5 40q0 26 22.5 43.5t54.5 17.5
q37 0 60.5 -24.5t23.5 -67.5q0 -40 -29 -84.5z" />
    <glyph glyph-name="scommaaccent" unicode="&#x219;" horiz-adv-x="530" 
d="M432.5 223q48.5 -39 48.5 -102q0 -39 -23 -70t-63 -48t-89 -17q-50 0 -95 16t-80 46v-49h-91v155l55 5q30 -38 85 -65t102 -27q33 0 51 11.5t18 31.5q0 22 -28.5 39t-101.5 37q-90 25 -136 62.5t-46 97.5q0 38 21 69.5t59 50t88 18.5q93 0 157 -59v46h91v-154l-55 -5
q-27 43 -69.5 67t-88.5 24q-32 0 -52.5 -12t-20.5 -31q0 -21 27.5 -36.5t96.5 -35.5q91 -26 139.5 -65zM340 -285.5q-29 -44.5 -74 -80.5l-29 30q34 31 53 62.5t20 54.5q-14 -7 -38 -7q-27 0 -45.5 16t-18.5 40q0 26 22.5 43.5t54.5 17.5q37 0 60.5 -24.5t23.5 -67.5
q0 -40 -29 -84.5z" />
    <glyph glyph-name="uni021A" unicode="&#x21a;" horiz-adv-x="784" 
d="M751 686v-245h-116v140h-176v-476h120v-105h-373v105h120v476h-178v-140h-116v245h719zM468 -272.5q-29 -44.5 -74 -80.5l-29 30q34 31 53 62.5t20 54.5q-14 -7 -38 -7q-27 0 -45.5 16t-18.5 40q0 26 22.5 43.5t54.5 17.5q37 0 60.5 -24.5t23.5 -67.5q0 -40 -29 -84.5z
" />
    <glyph glyph-name="uni021B" unicode="&#x21b;" horiz-adv-x="444" 
d="M451 36q-36 -23 -74 -36t-86 -13q-84 0 -132.5 53t-48.5 147v185h-99v99h99v131h125v-131h144v-99h-144v-186q0 -44 20 -66.5t57 -22.5q25 0 47 8t49 24zM334 -285.5q-29 -44.5 -74 -80.5l-29 30q34 31 53 62.5t20 54.5q-14 -7 -38 -7q-27 0 -45.5 16t-18.5 40
q0 26 22.5 43.5t54.5 17.5q37 0 60.5 -24.5t23.5 -67.5q0 -40 -29 -84.5z" />
    <glyph glyph-name="uni0237" unicode="&#x237;" horiz-adv-x="351" 
d="M257 -17q0 -70 -26.5 -120t-72.5 -75.5t-105 -25.5q-35 0 -59.5 5.5t-43 12t-26.5 9.5l31 104q28 -11 48.5 -16t44.5 -5q39 0 61.5 28t22.5 80v392h-99v99h224v-488z" />
    <glyph glyph-name="uni0259" unicode="&#x259;" horiz-adv-x="564" 
d="M393.5 457q61.5 -28 99.5 -82t38 -129q0 -78 -38 -136.5t-101 -90.5t-134 -32q-62 0 -110.5 19t-76 53.5t-27.5 79.5t27.5 77.5t72 48.5t95.5 16q48 0 88.5 -10t83.5 -28q-1 64 -45 100.5t-109 36.5q-99 -1 -174 -63l-52 82q100 86 231 86q70 0 131.5 -28zM334.5 109.5
q40.5 24.5 61.5 65.5q-62 22 -127 22q-45 -1 -72.5 -16t-27.5 -42q0 -24 22 -39t58 -15q45 0 85.5 24.5z" />
    <glyph glyph-name="uni02B9" unicode="&#x2b9;" horiz-adv-x="331" 
d="M256 714l-86 -252l-76 13l36 267z" />
    <glyph glyph-name="uni02BA" unicode="&#x2ba;" horiz-adv-x="509" 
d="M236 720l-63 -257l-79 6l13 267zM434 720l-64 -258l-78 6l14 268z" />
    <glyph glyph-name="uni02BB" unicode="&#x2bb;" horiz-adv-x="283" 
d="M90 -161q29 45 75 80l28 -29q-35 -31 -53.5 -63t-18.5 -54q14 7 37 7q27 0 46 -16t19 -41q0 -26 -22.5 -43.5t-55.5 -17.5q-37 0 -60.5 24.5t-23.5 67.5q0 40 29 85z" />
    <glyph glyph-name="gravecomb" unicode="&#x300;" horiz-adv-x="467" 
d="M164 976l-64 -92l224 -134l34 48z" />
    <glyph glyph-name="acutecomb" unicode="&#x301;" horiz-adv-x="467" 
d="M134 750l224 134l-65 92l-193 -178z" />
    <glyph glyph-name="uni0302" unicode="&#x302;" horiz-adv-x="429" 
d="M34 788l149 174h63l149 -174l-39 -36l-143 112l-140 -112z" />
    <glyph glyph-name="tildecomb" unicode="&#x303;" horiz-adv-x="536" 
d="M296.5 770q-24.5 16 -51.5 46q-23 27 -36.5 37.5t-28.5 10.5q-22 0 -33 -24.5t-15 -71.5l-71 7q1 67 32.5 113t86.5 46q37 0 61 -15.5t53 -47.5q22 -25 35 -35.5t27 -10.5q42 0 49 93l71 -6q-1 -67 -32.5 -112.5t-87.5 -45.5q-35 0 -59.5 16z" />
    <glyph glyph-name="uni0304" unicode="&#x304;" horiz-adv-x="518" 
d="M447 796l-376 2v88l376 -2v-88z" />
    <glyph glyph-name="uni0306" unicode="&#x306;" horiz-adv-x="483" 
d="M148.5 786.5q-41.5 24.5 -65 63.5t-26.5 83l75 15q10 -37 39.5 -59.5t69.5 -22.5q39 0 69 22.5t39 59.5l75 -15q-3 -44 -26.5 -83.5t-64 -63.5t-92.5 -24q-51 0 -92.5 24.5z" />
    <glyph glyph-name="uni0307" unicode="&#x307;" horiz-adv-x="309" 
d="M92 825q-25 20 -25 49q0 30 25 50t62 20q39 0 63.5 -19.5t24.5 -50.5q0 -30 -24.5 -49.5t-63.5 -19.5q-37 0 -62 20z" />
    <glyph glyph-name="uni0308" unicode="&#x308;" horiz-adv-x="568" 
d="M116.5 803.5q-22.5 17.5 -22.5 43.5q0 27 22.5 46t53.5 19q32 0 53 -18.5t21 -46.5q0 -26 -21 -43.5t-53 -17.5q-31 0 -53.5 17.5zM344 803.5q-22 17.5 -22 43.5q0 27 22 46t52 19q32 0 54 -18.5t22 -46.5q0 -26 -22 -43.5t-54 -17.5q-30 0 -52 17.5z" />
    <glyph glyph-name="hookabovecomb" unicode="&#x309;" horiz-adv-x="447" 
d="M212.5 737.5q9.5 16.5 14 29.5t4.5 26q0 21 -13.5 33.5t-38.5 12.5q-38 0 -78 -25l-25 67q54 32 117 32q47 0 81 -25.5t34 -66.5q0 -34 -16 -62t-47 -60l-46 16q4 6 13.5 22.5z" />
    <glyph glyph-name="uni030A" unicode="&#x30a;" horiz-adv-x="408" 
d="M133.5 765q-32.5 19 -52.5 51t-20 71q0 40 19.5 72t52.5 49.5t71 17.5t71 -19t53 -51t20 -71q0 -40 -19.5 -72t-52.5 -49.5t-72 -17.5q-38 0 -70.5 19zM256.5 832.5q22.5 21.5 22.5 52.5t-22.5 53.5t-52.5 22.5q-31 0 -52.5 -21t-21.5 -53q0 -31 22 -53.5t52 -22.5
t52.5 21.5z" />
    <glyph glyph-name="uni030B" unicode="&#x30b;" horiz-adv-x="611" 
d="M108 787l112 194l90 -66l-143 -170zM303 787l112 194l90 -66l-142 -170z" />
    <glyph glyph-name="uni030C" unicode="&#x30c;" horiz-adv-x="429" 
d="M395 934l-149 -174h-63l-149 174l39 37l141 -111l142 111z" />
    <glyph glyph-name="uni0312" unicode="&#x312;" horiz-adv-x="283" 
d="M90 941.5q29 44.5 75 80.5l28 -30q-35 -31 -53.5 -63t-18.5 -55q7 5 15 6t22 1q28 0 46.5 -15t18.5 -40q0 -26 -22.5 -43.5t-55.5 -17.5q-36 0 -60 25t-24 67q0 40 29 84.5z" />
    <glyph glyph-name="uni0326" unicode="&#x326;" horiz-adv-x="303" 
d="M195 -272.5q-29 -44.5 -74 -80.5l-29 30q34 31 53 62.5t20 54.5q-14 -7 -38 -7q-27 0 -45.5 16t-18.5 40q0 26 22.5 43.5t54.5 17.5q37 0 60.5 -24.5t23.5 -67.5q0 -40 -29 -84.5z" />
    <glyph glyph-name="uni0327" unicode="&#x327;" horiz-adv-x="312" 
d="M4 -203l35 58q60 -44 112 -44q27 0 44 12t17 31q0 20 -17 31t-44 11q-22 0 -56 -4l-7 9l52 126h63l-34 -82q4 1 19 1q46 0 74.5 -25t28.5 -67q0 -49 -42 -79.5t-98 -30.5q-72 0 -147 53z" />
    <glyph glyph-name="uni0328" unicode="&#x328;" horiz-adv-x="342" 
d="M159 -58q-22 -23 -22 -54q0 -20 14.5 -32t35.5 -12q33 0 70 21l24 -67q-26 -14 -49 -21t-56 -7q-49 0 -82 26t-33 72q0 54 33.5 90t79.5 58l43 -25q-36 -26 -58 -49z" />
    <glyph glyph-name="uni0335" unicode="&#x335;" horiz-adv-x="590" 
d="M493 257h-438v107h438v-107z" />
    <glyph glyph-name="uni0337" unicode="&#x337;" horiz-adv-x="483" 
d="M80 88l223 428h100l-223 -428h-100z" />
    <glyph glyph-name="uni0338" unicode="&#x338;" horiz-adv-x="533" 
d="M21 -105l370 845h111l-370 -845h-111z" />
    <glyph glyph-name="uni0394" unicode="&#x394;" horiz-adv-x="801" 
d="M366 609h79l270 -609h-630zM553 93l-148 366l-153 -366h301z" />
    <glyph glyph-name="uni03A9" unicode="&#x3a9;" 
d="M976 223v-223h-413l-16 64q137 128 137 276q0 58 -22.5 102.5t-62 69t-88.5 24.5t-88.5 -24.5t-62 -69t-22.5 -102.5q0 -148 137 -276l-16 -64h-413v223h109v-129h168q-53 48 -86.5 111.5t-33.5 134.5q0 84 41.5 151.5t112 105t154.5 37.5q83 0 154 -37.5t112.5 -105
t41.5 -151.5q0 -71 -33.5 -134.5t-86.5 -111.5h168v129h109z" />
    <glyph glyph-name="uni03BC" unicode="&#x3bc;" horiz-adv-x="686" 
d="M672 11q-40 -20 -84 -20q-46 0 -78 24t-42 68q-37 -47 -74.5 -71.5t-81.5 -24.5q-68 0 -101 41l6 -30q7 -32 12.5 -64t5.5 -56v-96h-122v584h-99v105h221v-262q0 -50 20.5 -78t70.5 -28q62 0 138 82v286h125v-338q0 -38 30 -38q17 0 26 6z" />
    <glyph glyph-name="pi" unicode="&#x3c0;" horiz-adv-x="696" 
d="M563 366v-233q0 -38 34 -38q20 0 27 6l27 -90q-40 -20 -83 -20q-60 0 -95 34t-35 97v244h-200v-366h-125v366h-99v105h637v-105h-88z" />
    <glyph glyph-name="Wgrave" unicode="&#x1e80;" horiz-adv-x="1175" 
d="M1173 581h-105l-213 -594h-68l-207 464l-192 -464h-67l-216 594h-103v105h351v-105h-109l125 -379l183 470h75l196 -473l118 382h-111v105h343v-105zM479 976l-64 -92l224 -134l34 48z" />
    <glyph glyph-name="wgrave" unicode="&#x1e81;" horiz-adv-x="888" 
d="M872 372h-65l-154 -385h-66l-143 297l-141 -297h-68l-151 385h-67v99h271v-89h-83l81 -230l135 306h73l131 -302l79 226h-81v89h249v-99zM357 761l-64 -92l224 -134l34 48z" />
    <glyph glyph-name="Wacute" unicode="&#x1e82;" horiz-adv-x="1175" 
d="M1173 581h-105l-213 -594h-68l-207 464l-192 -464h-67l-216 594h-103v105h351v-105h-109l125 -379l183 470h75l196 -473l118 382h-111v105h343v-105zM500 750l224 134l-65 92l-193 -178z" />
    <glyph glyph-name="wacute" unicode="&#x1e83;" horiz-adv-x="888" 
d="M872 372h-65l-154 -385h-66l-143 297l-141 -297h-68l-151 385h-67v99h271v-89h-83l81 -230l135 306h73l131 -302l79 226h-81v89h249v-99zM378 535l224 134l-65 92l-193 -178z" />
    <glyph glyph-name="Wdieresis" unicode="&#x1e84;" horiz-adv-x="1175" 
d="M1173 581h-105l-213 -594h-68l-207 464l-192 -464h-67l-216 594h-103v105h351v-105h-109l125 -379l183 470h75l196 -473l118 382h-111v105h343v-105zM401.5 801.5q-22.5 17.5 -22.5 43.5q0 27 22.5 46t53.5 19q32 0 53 -18.5t21 -46.5q0 -26 -21 -43.5t-53 -17.5
q-31 0 -53.5 17.5zM629 801.5q-22 17.5 -22 43.5q0 27 22 46t52 19q32 0 54 -18.5t22 -46.5q0 -26 -22 -43.5t-54 -17.5q-30 0 -52 17.5z" />
    <glyph glyph-name="wdieresis" unicode="&#x1e85;" horiz-adv-x="888" 
d="M872 372h-65l-154 -385h-66l-143 297l-141 -297h-68l-151 385h-67v99h271v-89h-83l81 -230l135 306h73l131 -302l79 226h-81v89h249v-99zM279.5 586.5q-22.5 17.5 -22.5 43.5q0 27 22.5 46t53.5 19q32 0 53 -18.5t21 -46.5q0 -26 -21 -43.5t-53 -17.5q-31 0 -53.5 17.5z
M507 586.5q-22 17.5 -22 43.5q0 27 22 46t52 19q32 0 54 -18.5t22 -46.5q0 -26 -22 -43.5t-54 -17.5q-30 0 -52 17.5z" />
    <glyph glyph-name="uni1E9E" unicode="&#x1e9e;" horiz-adv-x="895" 
d="M808 321q53 -60 53 -139q0 -58 -30 -102t-80 -68.5t-107 -24.5t-102.5 22t-87.5 69v-78h-120v240l79 6q45 -78 99 -117t108 -39q44 0 74 26t30 66q0 45 -50 93t-188 102l108 142q-50 37 -98 57t-98 20q-69 0 -109 -40.5t-40 -122.5v-433h-243v105h111v325q0 136 73.5 206
t203.5 70q67 0 132 -25.5t133 -77.5l93 122l85 -69l-175 -226q93 -49 146 -109z" />
    <glyph glyph-name="uni1EA8" unicode="&#x1ea8;" horiz-adv-x="842" 
d="M834 105v-105h-339v105h105l-50 130h-273l-50 -130h115v-105h-334v105h94l203 477h-86v104h401v-104h-87l205 -477h96zM514 329l-98 253h-5l-98 -253h201zM237 786l149 174h63l149 -174l-39 -36l-143 112l-140 -112zM564.5 940.5q9.5 16.5 14 29.5t4.5 26
q0 21 -13.5 33.5t-38.5 12.5q-38 0 -78 -25l-25 67q54 32 117 32q47 0 81 -25.5t34 -66.5q0 -34 -16 -62t-47 -60l-46 16q4 6 13.5 22.5z" />
    <glyph glyph-name="Ygrave" unicode="&#x1ef2;" horiz-adv-x="801" 
d="M468 276v-171h124v-105h-380v105h123v165l-237 311h-86v105h322v-105h-81l163 -223l152 223h-100v105h322v-105h-93zM310 963l-64 -92l224 -134l34 48z" />
    <glyph glyph-name="ygrave" unicode="&#x1ef3;" horiz-adv-x="654" 
d="M639 372h-63l-188 -411q-47 -102 -102.5 -150.5t-130.5 -48.5q-41 0 -73 12.5t-71 36.5l49 95q24 -15 46.5 -24.5t48.5 -9.5q43 0 75.5 26t59.5 86l1 3l-197 385h-68v99h273v-89h-73l122 -267l117 267h-69v89h243v-99zM272 758l-64 -92l224 -134l34 48z" />
    <glyph glyph-name="endash" unicode="&#x2013;" horiz-adv-x="580" 
d="M555 183h-528v107h528v-107z" />
    <glyph glyph-name="emdash" unicode="&#x2014;" horiz-adv-x="844" 
d="M818 183h-791v107h791v-107z" />
    <glyph glyph-name="quoteleft" unicode="&#x2018;" horiz-adv-x="316" 
d="M87.5 468q-26.5 27 -26.5 76q0 94 135 213l32 -34q-48 -50 -72.5 -86t-25.5 -71q16 6 44 6q33 0 55 -18t22 -46q0 -31 -26 -49t-65 -18q-46 0 -72.5 27z" />
    <glyph glyph-name="quoteright" unicode="&#x2019;" horiz-adv-x="316" 
d="M87 466q49 51 73 86.5t26 71.5q-17 -7 -45 -7q-32 0 -54.5 18t-22.5 45q0 31 26 50t65 19q45 0 72.5 -28t27.5 -76q0 -93 -135 -212z" />
    <glyph glyph-name="quotesinglbase" unicode="&#x201a;" horiz-adv-x="316" 
d="M87 -164q48 50 72.5 85.5t26.5 71.5q-18 -6 -45 -6q-33 0 -55 18t-22 46q0 31 26 49.5t65 18.5q46 0 73 -27.5t27 -75.5q0 -94 -135 -213z" />
    <glyph glyph-name="quotereversed" unicode="&#x201b;" horiz-adv-x="316" 
d="M97 535q-36 54 -36 103t26.5 76t72.5 27q39 0 65 -18t26 -48q0 -28 -22 -46.5t-55 -18.5q-22 0 -44 6q1 -35 25 -70t73 -87l-32 -32q-63 54 -99 108z" />
    <glyph glyph-name="quotedblleft" unicode="&#x201c;" horiz-adv-x="562" 
d="M87.5 468q-26.5 27 -26.5 76q0 94 135 213l32 -34q-48 -50 -72.5 -86t-25.5 -71q16 6 44 6q33 0 55 -18t22 -46q0 -31 -26 -49t-65 -18q-46 0 -72.5 27zM333.5 465.5q-26.5 27.5 -26.5 76.5t36 103t99 109l32 -34q-49 -52 -73 -86.5t-25 -70.5q17 7 44 7q33 0 55.5 -18.5
t22.5 -45.5q0 -30 -26.5 -49t-64.5 -19q-47 0 -73.5 27.5z" />
    <glyph glyph-name="quotedblright" unicode="&#x201d;" horiz-adv-x="562" 
d="M87 461q48 50 72.5 85.5t26.5 71.5q-18 -6 -45 -6q-33 0 -55 18t-22 46q0 30 26 49t65 19q46 0 73 -28t27 -77q0 -92 -135 -211zM333 459q48 49 73 84.5t26 71.5q-18 -6 -44 -6q-33 0 -55.5 18.5t-22.5 46.5q0 30 26 48.5t65 18.5q46 0 73 -27.5t27 -76.5
q0 -93 -135 -212z" />
    <glyph glyph-name="quotedblbase" unicode="&#x201e;" horiz-adv-x="562" 
d="M87 -161q48 50 72.5 85.5t26.5 70.5q-18 -6 -45 -6q-33 0 -55 18.5t-22 46.5q0 31 26 49.5t65 18.5q46 0 73 -27.5t27 -77.5q0 -92 -135 -211zM333 -164q49 50 73.5 86t25.5 71q-18 -6 -44 -6q-33 0 -55.5 18.5t-22.5 45.5q0 31 26 49.5t65 18.5q46 0 73 -27.5t27 -75.5
q0 -95 -135 -213z" />
    <glyph glyph-name="dagger" unicode="&#x2020;" horiz-adv-x="517" 
d="M235 671q-4 21 -14 47q-5 15 -9.5 29.5t-4.5 24.5q0 21 13.5 36t41.5 16q27 -1 41 -16.5t14 -35.5q0 -14 -16 -54q-11 -31 -15 -47l-5 -29h-41zM48 552q-15 14 -16 42q1 26 16.5 40.5t34.5 14.5q12 0 30.5 -6.5t23.5 -8.5q32 -14 48 -16l28 -7v-39l-28 -5q-17 -3 -48 -15
q-15 -5 -29.5 -9.5t-24.5 -4.5q-20 0 -35 14zM402.5 544.5q-18.5 6.5 -21.5 7.5q-31 12 -49 15l-28 5v39l28 7q17 2 51 16q36 15 50 15q21 0 36.5 -14t16.5 -41q-1 -28 -16.5 -42t-36.5 -14q-12 0 -30.5 6.5zM220.5 176q-13.5 15 -13.5 36q0 17 12 91q17 115 19 155l2 83h41
l3 -83q2 -28 10 -82t10 -68q13 -84 13 -96q0 -20 -14 -35.5t-41 -16.5q-28 1 -41.5 16z" />
    <glyph glyph-name="daggerdbl" unicode="&#x2021;" horiz-adv-x="517" 
d="M235 671q-4 21 -14 47q-5 15 -9.5 29.5t-4.5 24.5q0 21 13.5 36t41.5 16q27 -1 41 -16.5t14 -35.5q0 -14 -16 -54q-11 -31 -15 -47l-5 -29h-41zM48 552q-15 14 -16 42q1 26 16.5 40.5t34.5 14.5q12 0 30.5 -6.5t23.5 -8.5q32 -14 48 -16l28 -7v-39l-28 -5q-17 -3 -48 -15
q-15 -5 -29.5 -9.5t-24.5 -4.5q-20 0 -35 14zM402.5 544.5q-18.5 6.5 -21.5 7.5q-31 12 -49 15l-28 5v39l28 7q17 2 51 16q36 15 50 15q21 0 36.5 -14t16.5 -41q-1 -28 -16.5 -42t-36.5 -14q-12 0 -30.5 6.5zM236 396.5q-4 12.5 -5 17.5q-1 3 -5 18t-4 27q0 11 4 25t5 18
t5 17t4 22h41q0 -9 4 -22t5 -17t5 -18t4 -25q0 -12 -4 -27t-5 -18q-1 -5 -5 -17.5t-4 -21.5h-41q0 9 -4 21.5zM48.5 274.5q-15.5 14.5 -16.5 41.5q1 28 16 41t35 13q10 0 24.5 -4.5t29.5 -9.5q31 -12 48 -15l28 -4v-40l-28 -7q-12 -2 -27 -7.5t-21 -7.5q-37 -15 -54 -15
q-19 0 -34.5 14.5zM404 266.5q-18 6.5 -22 7.5q-34 14 -50 16l-28 7v40l28 4q18 3 49 15q3 1 21.5 7.5t30.5 6.5q21 0 36.5 -13t16.5 -41q-1 -27 -16.5 -41.5t-36.5 -14.5q-11 0 -29 6.5zM220.5 101q-13.5 15 -13.5 36q0 10 4.5 24.5t9.5 29.5q10 26 14 47l5 29h41l5 -29
q4 -19 16 -47q2 -5 8.5 -23.5t6.5 -30.5q0 -20 -14 -35.5t-41 -16.5q-28 1 -41.5 16z" />
    <glyph glyph-name="bullet" unicode="&#x2022;" horiz-adv-x="460" 
d="M151.5 217.5q-36.5 16.5 -58 45t-21.5 63.5q0 38 21.5 68.5t58 47t79.5 16.5q69 0 113.5 -36.5t44.5 -95.5q0 -54 -44.5 -89.5t-113.5 -35.5q-43 0 -79.5 16.5z" />
    <glyph glyph-name="ellipsis" unicode="&#x2026;" horiz-adv-x="888" 
d="M81.5 8.5q-27.5 21.5 -27.5 53.5q0 34 27.5 56t66.5 22q42 0 68.5 -22t26.5 -56q0 -33 -26.5 -54t-68.5 -21q-39 0 -66.5 21.5zM377 8q-27 21 -27 54q0 34 27 56t67 22q42 0 68.5 -22t26.5 -56q0 -33 -26.5 -54t-68.5 -21q-40 0 -67 21zM672.5 8.5q-27.5 21.5 -27.5 53.5
q0 34 27.5 56t66.5 22q42 0 68.5 -22t26.5 -56q0 -33 -26.5 -54t-68.5 -21q-39 0 -66.5 21.5z" />
    <glyph glyph-name="perthousand" unicode="&#x2030;" horiz-adv-x="1292" 
d="M69 22l717 672l64 -63l-716 -674zM132 338.5q-41 21.5 -66 59.5t-25 85q0 49 25 86.5t66 58t87 20.5q48 0 88 -20.5t63.5 -58t23.5 -86.5q0 -48 -23.5 -86t-64 -59t-87.5 -21q-46 0 -87 21.5zM270.5 430.5q21.5 20.5 21.5 52.5t-21.5 52t-52.5 20q-30 0 -52.5 -20
t-22.5 -52q0 -31 22.5 -52t52.5 -21q31 0 52.5 20.5zM584 -2.5q-40 20.5 -64 58.5t-24 87q0 48 24 86t64.5 59.5t87.5 21.5q46 0 87 -22t65.5 -60t24.5 -86q0 -49 -24.5 -86.5t-65.5 -58t-87 -20.5q-48 0 -88 20.5zM985.5 -2.5q-40.5 20.5 -64.5 58.5t-24 87q0 48 24 86
t65 59.5t88 21.5q46 0 86.5 -22t65 -60.5t24.5 -85.5q0 -49 -24.5 -86.5t-65 -58t-86.5 -20.5q-48 0 -88.5 20.5zM725.5 90q22.5 20 22.5 52t-22.5 53.5t-52.5 21.5q-31 0 -52.5 -21t-21.5 -53t21.5 -52.5t52.5 -20.5q30 0 52.5 20zM1126.5 90q22.5 20 22.5 52t-22.5 53.5
t-52.5 21.5q-31 0 -52.5 -21t-21.5 -53t21.5 -52.5t52.5 -20.5q30 0 52.5 20z" />
    <glyph glyph-name="guilsinglleft" unicode="&#x2039;" horiz-adv-x="558" 
d="M509 9l-96 -35q-28 104 -114 160t-211 56h-40v107h39q125 0 211.5 56t113.5 159l96 -36q-56 -206 -310 -233q256 -27 311 -234z" />
    <glyph glyph-name="guilsinglright" unicode="&#x203a;" horiz-adv-x="558" 
d="M510 297v-107h-40q-124 0 -210 -56t-114 -160l-96 35q55 207 309 234q-254 27 -310 233l96 36q28 -104 113.5 -159.5t210.5 -55.5h41z" />
    <glyph glyph-name="fraction" unicode="&#x2044;" horiz-adv-x="191" 
d="M231 737l83 -33l-190 -398l-166 -411l-84 34l191 399z" />
    <glyph glyph-name="Euro" unicode="&#x20ac;" horiz-adv-x="739" 
d="M704 92q-107 -105 -258 -105q-116 0 -203.5 58.5t-119.5 158.5h-88v73h73q-1 10 -1 32v14h-72v73h82q17 73 60.5 126.5t103.5 82.5t125 29q110 0 185 -75v61h105v-196l-66 -4q-36 56 -80 86.5t-111 30.5q-65 0 -116 -37t-72 -104h319v-73h-332v-14q0 -12 2 -32h330v-73
h-312q23 -56 72.5 -87.5t115.5 -31.5q64 0 109 23t89 69z" />
    <glyph glyph-name="uni20BA" unicode="&#x20ba;" horiz-adv-x="730" 
d="M667 275q-15 -85 -63.5 -147.5t-119 -95t-150.5 -32.5h-159v240l-126 -57v76l126 57v69l-124 -56v76l124 56v173h123v-118l221 100v-76l-221 -100v-68l219 99v-76l-219 -99v-197h33q85 0 150.5 42.5t93.5 160.5z" />
    <glyph glyph-name="uni20BD" unicode="&#x20bd;" horiz-adv-x="709" 
d="M298 319v-71h251v-68h-251v-75h135v-105h-381v105h121v75h-121v68h121v71h-121v81h121v129h-121v105h385q246 0 246 -160q0 -79 -59.5 -117t-186.5 -38h-139zM298 400h139q116 0 116 74q0 37 -32 53.5t-84 16.5h-139v-144z" />
    <glyph glyph-name="uni2113" unicode="&#x2113;" horiz-adv-x="546" 
d="M403 153l57 -86q-52 -38 -108 -59t-110 -21q-81 0 -127.5 46.5t-46.5 122.5q0 29 5 70.5t14 75.5l44 192q26 115 83.5 177.5t138.5 62.5q79 0 118 -50t39 -132q0 -75 -34.5 -138t-90 -99.5t-115.5 -36.5q-38 0 -66 15l-7 -26q-10 -37 -10 -89q0 -34 19.5 -57.5
t57.5 -23.5q68 0 139 56zM292 600q-21 -34 -38 -103l-30 -119q18 -7 35 -7q32 0 63 26t50.5 70t19.5 94q0 35 -12.5 54t-36.5 19q-30 0 -51 -34z" />
    <glyph glyph-name="uni2120" unicode="&#x2120;" horiz-adv-x="864" 
d="M302 531q31 -23 31 -61q0 -37 -28.5 -59t-74.5 -22q-60 0 -114 44v-38h-52v103h41q23 -30 53.5 -46t64.5 -16q19 0 32 7t13 21q0 15 -20.5 24t-77.5 23q-106 27 -106 98q0 37 27.5 60t71.5 23q59 0 103 -41v35h52v-100l-37 -2q-18 28 -45.5 43.5t-58.5 15.5
q-22 0 -34.5 -8t-12.5 -24q0 -12 18.5 -21t64.5 -20q58 -16 89 -39zM744 638v-194h45v-49h-145v49h40v145l-95 -197h-34l-97 199v-147h41v-49h-142v49h46v194h-46v48h111l107 -215l103 215h111v-48h-45z" />
    <glyph glyph-name="trademark" unicode="&#x2122;" horiz-adv-x="881" 
d="M27 686h314v-107h-54v64h-72v-198h47v-49h-154v49h46v198h-74v-64h-53v107zM761 638v-194h45v-49h-145v49h39v143l-95 -195h-33l-98 200v-148h41v-49h-142v49h46v194h-46v48h113l106 -213l103 213h111v-48h-45z" />
    <glyph glyph-name="uni2126" unicode="&#x2126;" 
d="M976 223v-223h-413l-16 64q137 128 137 276q0 58 -22.5 102.5t-62 69t-88.5 24.5t-88.5 -24.5t-62 -69t-22.5 -102.5q0 -148 137 -276l-16 -64h-413v223h109v-129h168q-53 48 -86.5 111.5t-33.5 134.5q0 84 41.5 151.5t112 105t154.5 37.5q83 0 154 -37.5t112.5 -105
t41.5 -151.5q0 -71 -33.5 -134.5t-86.5 -111.5h168v129h109z" />
    <glyph glyph-name="estimated" unicode="&#x212e;" horiz-adv-x="769" 
d="M498 110.5q58 23.5 110 70.5l53 -84q-125 -110 -292 -110q-82 0 -156.5 37.5t-120.5 110.5t-46 173q0 102 46.5 176t121.5 112.5t159 38.5q86 0 151.5 -40.5t101 -106t35.5 -138.5q0 -42 -7 -70l-408 -2v-146q27 -22 61.5 -33.5t71.5 -11.5q61 0 119 23.5zM307.5 526.5
q-33.5 -12.5 -61.5 -35.5v-123l234 1v131q-44 39 -106 39q-33 0 -66.5 -12.5z" />
    <glyph glyph-name="partialdiff" unicode="&#x2202;" horiz-adv-x="759" 
d="M564.5 731q56.5 -34 91 -102t34.5 -166q0 -137 -53 -250.5t-143 -179t-196 -65.5q-75 0 -133 26.5t-90 75.5t-32 114q0 68 36 119.5t96 79.5t129 28q65 0 128 -21.5t119 -59.5q17 66 17 139q0 90 -37.5 138t-101.5 48q-40 0 -75.5 -14.5t-70.5 -42.5l-54 92
q48 34 100 54.5t113 20.5q66 0 122.5 -34zM425.5 115q58.5 47 95.5 129q-99 70 -189 70q-64 0 -107.5 -37t-43.5 -93q0 -51 34 -83.5t90 -32.5q62 0 120.5 47z" />
    <glyph glyph-name="uni2206" unicode="&#x2206;" horiz-adv-x="801" 
d="M366 609h79l270 -609h-630zM553 93l-148 366l-153 -366h301z" />
    <glyph glyph-name="product" unicode="&#x220f;" horiz-adv-x="744" 
d="M608 0h-106v620h-259v-620h-106v725h471v-725z" />
    <glyph glyph-name="summation" unicode="&#x2211;" horiz-adv-x="744" 
d="M642 811v-274h-118v169h-310l225 -347v-26l-228 -354h313v168h118v-272l-612 -3l-7 26l285 447l-285 441l7 27z" />
    <glyph glyph-name="minus" unicode="&#x2212;" horiz-adv-x="590" 
d="M535 257h-480v107h480v-107z" />
    <glyph glyph-name="uni2215" unicode="&#x2215;" horiz-adv-x="525" 
d="M21 -171l362 977h111l-362 -977h-111z" />
    <glyph glyph-name="uni2219" unicode="&#x2219;" horiz-adv-x="460" 
d="M151.5 217.5q-36.5 16.5 -58 45t-21.5 63.5q0 38 21.5 68.5t58 47t79.5 16.5q69 0 113.5 -36.5t44.5 -95.5q0 -54 -44.5 -89.5t-113.5 -35.5q-43 0 -79.5 16.5z" />
    <glyph glyph-name="radical" unicode="&#x221a;" horiz-adv-x="696" 
d="M653 816l-258 -817h-65v3l-140 360l-139 -55l-35 89l248 94l32 -86h-1l63 -176l181 617z" />
    <glyph glyph-name="infinity" unicode="&#x221e;" horiz-adv-x="1053" 
d="M897.5 513q52.5 -33 79.5 -85.5t27 -111.5q0 -55 -29 -107t-82 -85.5t-121 -33.5q-79 0 -133 36.5t-115 112.5q-64 -76 -117.5 -112.5t-124.5 -36.5q-73 0 -126 33t-80.5 85t-27.5 108q0 58 29 111t82.5 86t122.5 33q54 0 96 -19.5t75 -51t77 -84.5q67 80 121 117.5
t121 37.5q73 0 125.5 -33zM350.5 200q26.5 14 51 39t64.5 73q-46 59 -67.5 83t-48 40t-60.5 16q-37 0 -67.5 -18.5t-48 -50t-17.5 -66.5t17 -65t47.5 -47.5t68.5 -17.5q34 0 60.5 14zM834.5 203.5q27.5 18.5 44 49t16.5 63.5q0 56 -36 95t-91 39q-45 0 -81 -29.5t-96 -102.5
q41 -50 67 -76.5t54 -41.5t62 -15q33 0 60.5 18.5z" />
    <glyph glyph-name="integral" unicode="&#x222b;" horiz-adv-x="392" 
d="M-43 -220.5q-38 11.5 -77 31.5l43 98q52 -31 103 -31q52 0 80.5 35.5t28.5 110.5v565q0 129 60 193.5t158 64.5q46 0 84 -11.5t76 -32.5l-43 -97q-27 15 -50.5 23t-50.5 8q-52 0 -81.5 -36t-29.5 -110v-564q0 -130 -60 -194.5t-158 -64.5q-45 0 -83 11.5z" />
    <glyph glyph-name="approxequal" unicode="&#x2248;" horiz-adv-x="695" 
d="M403 325.5q-28 10.5 -63 33.5q-38 24 -56 32.5t-41 8.5q-28 0 -50 -19.5t-43 -57.5l-85 51q67 131 168 131q29 0 56 -10.5t64 -32.5q41 -26 58 -34t39 -8q28 0 50.5 19.5t43.5 57.5l84 -52q-28 -58 -70 -94t-98 -36q-29 0 -57 10.5zM403.5 114.5q-27.5 10.5 -63.5 32.5
q-36 25 -55 33.5t-42 8.5q-28 0 -50 -20t-43 -58l-85 53q67 131 168 131q28 0 54.5 -10.5t65.5 -32.5q7 -4 29 -18t37 -19.5t31 -5.5q28 0 50.5 20t43.5 58l84 -53q-28 -58 -70 -94t-98 -36q-29 0 -56.5 10.5z" />
    <glyph glyph-name="notequal" unicode="&#x2260;" horiz-adv-x="612" 
d="M375 350l-40 -79h210v-107h-265l-43 -85h-100l43 85h-115v107h170l40 79h-210v107h265l43 85h100l-43 -85h115v-107h-170z" />
    <glyph glyph-name="lessequal" unicode="&#x2264;" horiz-adv-x="525" 
d="M462 213l-433 238v30l433 239v-120l-265 -134l265 -132v-121zM479 133v-106h-439v106h439z" />
    <glyph glyph-name="greaterequal" unicode="&#x2265;" horiz-adv-x="525" 
d="M494 483v-31l-431 -239v121l265 134l-265 132v120zM47 133h438v-106h-438v106z" />
    <glyph glyph-name="lozenge" unicode="&#x25ca;" horiz-adv-x="850" 
d="M163 316l231 412h78l217 -412l-227 -415h-78zM567 316l-137 277l-147 -278l139 -279z" />
    <glyph glyph-name="u1F60A" unicode="&#x1f60a;" 
d="M271.5 -159.5q-107.5 58.5 -169 161.5t-61.5 231q0 129 61.5 232t168.5 161.5t239 58.5q133 0 241 -58.5t169.5 -161.5t61.5 -232q0 -128 -61.5 -231t-169.5 -161.5t-241 -58.5q-131 0 -238.5 58.5zM713 -102.5q90 50.5 141 138.5t50 197q1 109 -50 197t-141 138.5
t-203 50.5q-112 0 -202 -50.5t-141 -138.5t-51 -197t51 -197t141 -138.5t202 -50.5q113 0 203 50.5zM229 377q67 65 176 79l17 -77q-94 -2 -176 -42zM594 379l19 77q112 -14 175 -79l-17 -40q-81 40 -177 42zM289 167q-19 19 -19 46t19 46t46 19q26 0 45 -19t19 -46t-19 -46
t-45 -19q-27 0 -46 19zM643 167q-19 19 -19 46t19 46t47 19q26 0 45 -19t19 -46t-19 -46t-45 -19q-28 0 -47 19zM419.5 -15.5q-44.5 16.5 -78.5 47.5l9 37q39 -22 77 -32t83 -10q46 0 84 10t77 32l10 -37q-35 -32 -79.5 -48t-91.5 -16q-46 0 -90.5 16.5z" />
    <glyph glyph-name="u1F610" unicode="&#x1f610;" 
d="M271.5 -159.5q-107.5 58.5 -169 161.5t-61.5 231q0 129 61.5 232t168.5 161.5t239 58.5q133 0 241 -58.5t169.5 -161.5t61.5 -232q0 -128 -61.5 -231t-169.5 -161.5t-241 -58.5q-131 0 -238.5 58.5zM713 -102.5q90 50.5 141 138.5t50 197q1 109 -50 197t-141 138.5
t-203 50.5q-112 0 -202 -50.5t-141 -138.5t-51 -197t51 -197t141 -138.5t202 -50.5q113 0 203 50.5zM234 394q67 47 159 47q19 0 28 -1l5 -77q-35 5 -65 5q-56 0 -116 -15zM655 368q-30 0 -65 -5l4 77q10 1 29 1q92 0 159 -47l-11 -41q-60 15 -116 15zM289 167
q-19 19 -19 46t19 46t46 19q26 0 45 -19t19 -46t-19 -46t-45 -19q-27 0 -46 19zM643 167q-19 19 -19 46t19 46t47 19q26 0 45 -19t19 -46t-19 -46t-45 -19q-28 0 -47 19zM433 -3q-36 3 -92 9v36q97 11 169 11q74 0 171 -11v-36q-56 -6 -92.5 -9t-78.5 -3q-41 0 -77 3z" />
    <glyph glyph-name="u1F61E" unicode="&#x1f61e;" 
d="M271.5 -159.5q-107.5 58.5 -169 161.5t-61.5 231q0 129 61.5 232t168.5 161.5t239 58.5q133 0 241 -58.5t169.5 -161.5t61.5 -232q0 -128 -61.5 -231t-169.5 -161.5t-241 -58.5q-131 0 -238.5 58.5zM713 -102.5q90 50.5 141 138.5t50 197q1 109 -50 197t-141 138.5
t-203 50.5q-112 0 -202 -50.5t-141 -138.5t-51 -197t51 -197t141 -138.5t202 -50.5q113 0 203 50.5zM229 377q67 65 176 79l17 -77q-94 -2 -176 -42zM594 379l19 77q112 -14 175 -79l-17 -40q-81 40 -177 42zM289 167q-19 19 -19 46t19 46t46 19q26 0 45 -19t19 -46t-19 -46
t-45 -19q-27 0 -46 19zM643 167q-19 19 -19 46t19 46t47 19q26 0 45 -19t19 -46t-19 -46t-45 -19q-28 0 -47 19zM601.5 55q44.5 -16 79.5 -47l-10 -38q-39 22 -77 32t-84 10q-45 0 -83 -10t-77 -32l-9 38q35 31 79 47t90 16q47 0 91.5 -16z" />
    <glyph glyph-name="u1F620" unicode="&#x1f620;" 
d="M271.5 -159.5q-107.5 58.5 -169 161.5t-61.5 231q0 129 61.5 232t168.5 161.5t239 58.5q133 0 241 -58.5t169.5 -161.5t61.5 -232q0 -128 -61.5 -231t-169.5 -161.5t-241 -58.5q-131 0 -238.5 58.5zM713 -102.5q90 50.5 141 138.5t50 197q1 109 -50 197t-141 138.5
t-203 50.5q-112 0 -202 -50.5t-141 -138.5t-51 -197t51 -197t141 -138.5t202 -50.5q113 0 203 50.5zM422 413l-17 -75q-110 14 -176 77l17 41q77 -38 176 -43zM788 415q-63 -63 -175 -77l-19 75q102 5 177 43zM289 167q-19 19 -19 46t19 46t46 19q26 0 45 -19t19 -46
t-19 -46t-45 -19q-27 0 -46 19zM643 167q-19 19 -19 46t19 46t47 19q26 0 45 -19t19 -46t-19 -46t-45 -19q-28 0 -47 19zM601.5 55q44.5 -16 79.5 -47l-10 -38q-39 22 -77 32t-84 10q-45 0 -83 -10t-77 -32l-9 38q35 31 79 47t90 16q47 0 91.5 -16z" />
    <glyph glyph-name="u1F621" unicode="&#x1f621;" 
d="M271.5 -159.5q-107.5 58.5 -169 161.5t-61.5 231q0 129 61.5 232t168.5 161.5t239 58.5q133 0 241 -58.5t169.5 -161.5t61.5 -232q0 -128 -61.5 -231t-169.5 -161.5t-241 -58.5q-131 0 -238.5 58.5zM713 -102.5q90 50.5 141 138.5t50 197q1 109 -50 197t-141 138.5
t-203 50.5q-112 0 -202 -50.5t-141 -138.5t-51 -197t51 -197t141 -138.5t202 -50.5q113 0 203 50.5zM585 399l32 72q105 -36 158 -111l-26 -36q-68 50 -164 75zM237 412q51 22 110 22q40 0 82 -9l-9 -79q-75 24 -143 24q-11 0 -37 -2zM283 161.5q-21 20.5 -21 51.5
q0 30 21 51.5t52 21.5q29 0 50 -21.5t21 -51.5t-21 -51t-50 -21q-31 0 -52 20.5zM638.5 162q-21.5 21 -21.5 51t21.5 51.5t51.5 21.5q29 0 50 -21.5t21 -51.5t-20.5 -51t-50.5 -21t-51.5 21zM591 54.5q56 -16.5 90 -46.5l-10 -38q-36 21 -86.5 31.5t-100.5 10.5
q-96 0 -134 -42l-9 38q15 30 55 46.5t88 16.5q51 0 107 -16.5z" />
    <glyph glyph-name="u1F628" unicode="&#x1f628;" 
d="M271.5 -159.5q-107.5 58.5 -169 161.5t-61.5 231q0 129 61.5 232t168.5 161.5t239 58.5q133 0 241 -58.5t169.5 -161.5t61.5 -232q0 -128 -61.5 -231t-169.5 -161.5t-241 -58.5q-131 0 -238.5 58.5zM713 -102.5q90 50.5 141 138.5t50 197q1 109 -50 197t-141 138.5
t-203 50.5q-112 0 -202 -50.5t-141 -138.5t-51 -197t51 -197t141 -138.5t202 -50.5q113 0 203 50.5zM237 379q64 63 175 77l19 -75q-97 -5 -176 -43zM585 381l19 75q111 -14 175 -77l-17 -42q-78 39 -177 44zM289 167q-19 19 -19 46t19 46t46 19q26 0 45 -19t19 -46t-19 -46
t-45 -19q-27 0 -46 19zM643 167q-19 19 -19 46t19 46t47 19q26 0 45 -19t19 -46t-19 -46t-45 -19q-28 0 -47 19zM433 -3q-36 3 -92 9v36q97 11 169 11q74 0 171 -11v-36q-56 -6 -92.5 -9t-78.5 -3q-41 0 -77 3z" />
    <glyph glyph-name="u1F632" unicode="&#x1f632;" 
d="M271.5 -159.5q-107.5 58.5 -169 161.5t-61.5 231q0 129 61.5 232t168.5 161.5t239 58.5q133 0 241 -58.5t169.5 -161.5t61.5 -232q0 -128 -61.5 -231t-169.5 -161.5t-241 -58.5q-131 0 -238.5 58.5zM713 -102.5q90 50.5 141 138.5t50 197q1 109 -50 197t-141 138.5
t-203 50.5q-112 0 -202 -50.5t-141 -138.5t-51 -197t51 -197t141 -138.5t202 -50.5q113 0 203 50.5zM237 379q64 63 175 77l19 -75q-97 -5 -176 -43zM585 381l19 75q111 -14 175 -77l-17 -42q-78 39 -177 44zM284 162.5q-21 20.5 -21 50.5q0 29 21 50.5t51 21.5
q28 0 49.5 -21.5t21.5 -50.5t-21.5 -50t-49.5 -21q-30 0 -51 20.5zM639 162.5q-21 20.5 -21 50.5q0 29 21.5 50.5t50.5 21.5t50 -21.5t21 -50.5q0 -30 -21 -50.5t-50 -20.5q-30 0 -51 20.5zM538.5 73.5q9.5 -14.5 20.5 -49.5v-21q-11 -35 -20.5 -49t-28.5 -14
q-18 0 -27.5 14t-21.5 49v21q12 36 21.5 50t27.5 14q19 0 28.5 -14.5z" />
    <glyph glyph-name="A.alt" horiz-adv-x="897" 
d="M897 105v-105h-351v105h99l-53 113h-292l-54 -113h105v-105h-351v105h110l306 595h68l305 -595h108zM546 315l-100 212l-101 -212h201z" />
    <glyph glyph-name="Aacute.alt" horiz-adv-x="897" 
d="M897 105v-105h-351v105h99l-53 113h-292l-54 -113h105v-105h-351v105h110l306 595h68l305 -595h108zM546 315l-100 212l-101 -212h201zM377 751l224 134l-65 92l-193 -178z" />
    <glyph glyph-name="Abreve.alt" horiz-adv-x="897" 
d="M897 105v-105h-351v105h99l-53 113h-292l-54 -113h105v-105h-351v105h110l306 595h68l305 -595h108zM546 315l-100 212l-101 -212h201zM354.5 787.5q-41.5 24.5 -65 63.5t-26.5 83l75 15q10 -37 39.5 -59.5t69.5 -22.5q39 0 69 22.5t39 59.5l75 -15q-3 -44 -26.5 -83.5
t-64 -63.5t-92.5 -24q-51 0 -92.5 24.5z" />
    <glyph glyph-name="Acircumflex.alt" horiz-adv-x="897" 
d="M897 105v-105h-351v105h99l-53 113h-292l-54 -113h105v-105h-351v105h110l306 595h68l305 -595h108zM546 315l-100 212l-101 -212h201zM267 787l149 174h63l149 -174l-39 -36l-143 112l-140 -112z" />
    <glyph glyph-name="uni1EA8.alt" horiz-adv-x="897" 
d="M897 105v-105h-351v105h99l-53 113h-292l-54 -113h105v-105h-351v105h110l306 595h68l305 -595h108zM546 315l-100 212l-101 -212h201zM267 787l149 174h63l149 -174l-39 -36l-143 112l-140 -112zM596.5 944.5q9.5 16.5 14 29.5t4.5 26q0 21 -13.5 33.5t-38.5 12.5
q-38 0 -78 -25l-25 67q54 32 117 32q47 0 81 -25.5t34 -66.5q0 -34 -16 -62t-47 -60l-46 16q4 6 13.5 22.5z" />
    <glyph glyph-name="Adieresis.alt" horiz-adv-x="897" 
d="M897 105v-105h-351v105h99l-53 113h-292l-54 -113h105v-105h-351v105h110l306 595h68l305 -595h108zM546 315l-100 212l-101 -212h201zM278.5 802.5q-22.5 17.5 -22.5 43.5q0 27 22.5 46t53.5 19q32 0 53 -18.5t21 -46.5q0 -26 -21 -43.5t-53 -17.5q-31 0 -53.5 17.5z
M506 802.5q-22 17.5 -22 43.5q0 27 22 46t52 19q32 0 54 -18.5t22 -46.5q0 -26 -22 -43.5t-54 -17.5q-30 0 -52 17.5z" />
    <glyph glyph-name="Agrave.alt" horiz-adv-x="897" 
d="M897 105v-105h-351v105h99l-53 113h-292l-54 -113h105v-105h-351v105h110l306 595h68l305 -595h108zM546 315l-100 212l-101 -212h201zM356 977l-64 -92l224 -134l34 48z" />
    <glyph glyph-name="Amacron.alt" horiz-adv-x="897" 
d="M897 105v-105h-351v105h99l-53 113h-292l-54 -113h105v-105h-351v105h110l306 595h68l305 -595h108zM546 315l-100 212l-101 -212h201zM630 786l-376 2v88l376 -2v-88z" />
    <glyph glyph-name="Aogonek.alt" horiz-adv-x="897" 
d="M962 -193q-26 -14 -49 -21t-56 -7q-49 0 -82 26t-33 72q0 72 71 123h-267v105h99l-53 113h-292l-54 -113h105v-105h-351v105h110l306 595h68l305 -595h108v-104l1 -1q-36 -26 -58 -49t-22 -54q0 -20 14.5 -32t35.5 -12q33 0 70 21zM546 315l-100 212l-101 -212h201z" />
    <glyph glyph-name="Aring.alt" horiz-adv-x="897" 
d="M897 105v-105h-351v105h99l-53 113h-292l-54 -113h105v-105h-351v105h110l306 595h68l305 -595h108zM546 315l-100 212l-101 -212h201zM376.5 766q-32.5 19 -52.5 51t-20 71q0 40 19.5 72t52.5 49.5t71 17.5t71 -19t53 -51t20 -71q0 -40 -19.5 -72t-52.5 -49.5t-72 -17.5
q-38 0 -70.5 19zM499.5 833.5q22.5 21.5 22.5 52.5t-22.5 53.5t-52.5 22.5q-31 0 -52.5 -21t-21.5 -53q0 -31 22 -53.5t52 -22.5t52.5 21.5z" />
    <glyph glyph-name="Atilde.alt" horiz-adv-x="897" 
d="M897 105v-105h-351v105h99l-53 113h-292l-54 -113h105v-105h-351v105h110l306 595h68l305 -595h108zM546 315l-100 212l-101 -212h201zM466.5 771q-24.5 16 -51.5 46q-23 27 -36.5 37.5t-28.5 10.5q-22 0 -33 -24.5t-15 -71.5l-71 7q1 67 32.5 113t86.5 46q37 0 61 -15.5
t53 -47.5q22 -25 35 -35.5t27 -10.5q42 0 49 93l71 -6q-1 -67 -32.5 -112.5t-87.5 -45.5q-35 0 -59.5 16z" />
    <glyph glyph-name="G.alt" horiz-adv-x="793" 
d="M748 361v-34q0 -80 -38.5 -158.5t-117.5 -130.5t-192 -52q-99 0 -181.5 46.5t-130.5 128t-48 182.5q0 100 45.5 181.5t123.5 128.5t171 47q70 0 128 -22.5t101 -63.5v72h116v-221l-85 -6q-34 59 -91.5 97.5t-136.5 38.5q-64 0 -117.5 -33t-85 -90.5t-31.5 -128.5
t30 -128.5t81.5 -90.5t114.5 -33q59 0 106.5 23t74 61t27.5 80h-208v106h344z" />
    <glyph glyph-name="Gbreve.alt" horiz-adv-x="793" 
d="M748 361v-34q0 -80 -38.5 -158.5t-117.5 -130.5t-192 -52q-99 0 -181.5 46.5t-130.5 128t-48 182.5q0 100 45.5 181.5t123.5 128.5t171 47q70 0 128 -22.5t101 -63.5v72h116v-221l-85 -6q-34 59 -91.5 97.5t-136.5 38.5q-64 0 -117.5 -33t-85 -90.5t-31.5 -128.5
t30 -128.5t81.5 -90.5t114.5 -33q59 0 106.5 23t74 61t27.5 80h-208v106h344zM314.5 800.5q-41.5 24.5 -65 63.5t-26.5 83l75 15q10 -37 39.5 -59.5t69.5 -22.5q39 0 69 22.5t39 59.5l75 -15q-3 -44 -26.5 -83.5t-64 -63.5t-92.5 -24q-51 0 -92.5 24.5z" />
    <glyph glyph-name="Gcommaaccent.alt" horiz-adv-x="793" 
d="M748 361v-34q0 -80 -38.5 -158.5t-117.5 -130.5t-192 -52q-99 0 -181.5 46.5t-130.5 128t-48 182.5q0 100 45.5 181.5t123.5 128.5t171 47q70 0 128 -22.5t101 -63.5v72h116v-221l-85 -6q-34 59 -91.5 97.5t-136.5 38.5q-64 0 -117.5 -33t-85 -90.5t-31.5 -128.5
t30 -128.5t81.5 -90.5t114.5 -33q59 0 106.5 23t74 61t27.5 80h-208v106h344zM462 -285.5q-29 -44.5 -74 -80.5l-29 30q34 31 53 62.5t20 54.5q-14 -7 -38 -7q-27 0 -45.5 16t-18.5 40q0 26 22.5 43.5t54.5 17.5q37 0 60.5 -24.5t23.5 -67.5q0 -40 -29 -84.5z" />
    <glyph glyph-name="Gdotaccent.alt" horiz-adv-x="793" 
d="M748 361v-34q0 -80 -38.5 -158.5t-117.5 -130.5t-192 -52q-99 0 -181.5 46.5t-130.5 128t-48 182.5q0 100 45.5 181.5t123.5 128.5t171 47q70 0 128 -22.5t101 -63.5v72h116v-221l-85 -6q-34 59 -91.5 97.5t-136.5 38.5q-64 0 -117.5 -33t-85 -90.5t-31.5 -128.5
t30 -128.5t81.5 -90.5t114.5 -33q59 0 106.5 23t74 61t27.5 80h-208v106h344zM346 810q-25 20 -25 49q0 30 25 50t62 20q39 0 63.5 -19.5t24.5 -50.5q0 -30 -24.5 -49.5t-63.5 -19.5q-37 0 -62 20z" />
    <glyph glyph-name="Q.swsh" horiz-adv-x="824" 
d="M1318 -179q-52 -37 -116 -59.5t-136 -22.5q-111 0 -219.5 67.5t-248.5 220.5q-4 4 -5 6q-86 -46 -185 -46q-104 0 -187.5 46.5t-131 127.5t-47.5 182t47.5 182.5t131.5 128t187 46.5q102 0 185.5 -46.5t131 -128t47.5 -182.5q0 -70 -23.5 -131.5t-67.5 -108.5l23 -25
q112 -123 192.5 -176.5t169.5 -53.5q58 0 106.5 16.5t95.5 47.5zM290.5 566.5q-50.5 -29.5 -79.5 -82t-34 -118.5q99 -1 168.5 -18t127 -54t124.5 -103q41 66 41 152q0 72 -28.5 129.5t-81 90.5t-121.5 33q-66 0 -116.5 -29.5zM515 116q-56 58 -102 90t-100 47.5t-129 16.5
q20 -82 78.5 -130.5t144.5 -48.5q60 0 108 25z" />
    <glyph glyph-name="R.swsh" horiz-adv-x="777" 
d="M1389 -161q-67 -50 -144.5 -76.5t-172.5 -26.5q-94 0 -173 27.5t-154 89.5t-152 167l-77 104q-52 71 -77 101.5t-48.5 45.5t-53.5 15h-49v-181h121v-105h-374v106h120v475h-120v105h435q122 0 188 -54.5t66 -144.5q0 -49 -24 -91.5t-71.5 -71.5t-115.5 -36
q41 -22 85 -71.5t111 -143.5q89 -125 174 -177t189 -52q74 0 141.5 21.5t121.5 60.5zM288 581v-195h175q56 0 92.5 23.5t36.5 77.5q0 48 -36.5 71t-92.5 23h-175z" />
    <glyph glyph-name="Racute.swsh" horiz-adv-x="777" 
d="M1389 -161q-67 -50 -144.5 -76.5t-172.5 -26.5q-94 0 -173 27.5t-154 89.5t-152 167l-77 104q-52 71 -77 101.5t-48.5 45.5t-53.5 15h-49v-181h121v-105h-374v106h120v475h-120v105h435q122 0 188 -54.5t66 -144.5q0 -49 -24 -91.5t-71.5 -71.5t-115.5 -36
q41 -22 85 -71.5t111 -143.5q89 -125 174 -177t189 -52q74 0 141.5 21.5t121.5 60.5zM288 581v-195h175q56 0 92.5 23.5t36.5 77.5q0 48 -36.5 71t-92.5 23h-175zM340 750l224 134l-65 92l-193 -178z" />
    <glyph glyph-name="Rcaron.swsh" horiz-adv-x="777" 
d="M1389 -161q-67 -50 -144.5 -76.5t-172.5 -26.5q-94 0 -173 27.5t-154 89.5t-152 167l-77 104q-52 71 -77 101.5t-48.5 45.5t-53.5 15h-49v-181h121v-105h-374v106h120v475h-120v105h435q122 0 188 -54.5t66 -144.5q0 -49 -24 -91.5t-71.5 -71.5t-115.5 -36
q41 -22 85 -71.5t111 -143.5q89 -125 174 -177t189 -52q74 0 141.5 21.5t121.5 60.5zM288 581v-195h175q56 0 92.5 23.5t36.5 77.5q0 48 -36.5 71t-92.5 23h-175zM591 934l-149 -174h-63l-149 174l39 37l141 -111l142 111z" />
    <glyph glyph-name="Rcommaaccent.swsh" horiz-adv-x="777" 
d="M1389 -161q-67 -50 -144.5 -76.5t-172.5 -26.5q-94 0 -173 27.5t-154 89.5t-152 167l-77 104q-52 71 -77 101.5t-48.5 45.5t-53.5 15h-49v-181h121v-105h-374v106h120v475h-120v105h435q122 0 188 -54.5t66 -144.5q0 -49 -24 -91.5t-71.5 -71.5t-115.5 -36
q41 -22 85 -71.5t111 -143.5q89 -125 174 -177t189 -52q74 0 141.5 21.5t121.5 60.5zM288 581v-195h175q56 0 92.5 23.5t36.5 77.5q0 48 -36.5 71t-92.5 23h-175zM510 -272.5q-29 -44.5 -74 -80.5l-29 30q34 31 53 62.5t20 54.5q-14 -7 -38 -7q-27 0 -45.5 16t-18.5 40
q0 26 22.5 43.5t54.5 17.5q37 0 60.5 -24.5t23.5 -67.5q0 -40 -29 -84.5z" />
    <glyph glyph-name="a.alt" horiz-adv-x="638" 
d="M634 172v-60q0 -56 -33 -88t-83 -32q-45 0 -75 21.5t-41 59.5q-96 -87 -194 -87q-69 0 -116 38.5t-47 110.5q0 50 28 86t73.5 54.5t96.5 18.5q44 0 80 -8.5t74 -24.5v37q0 41 -27.5 60.5t-75.5 19.5q-45 0 -86.5 -11.5t-99.5 -35.5l-28 96q68 30 117.5 43t105.5 13
q101 0 157 -50.5t56 -139.5v-182q0 -15 7 -25.5t20 -10.5q14 0 20.5 10t6.5 27v60h64zM191 102.5q22 -13.5 54 -13.5q29 0 69 16t83 49v27q-61 23 -130 23q-41 -1 -69.5 -16.5t-28.5 -45.5q0 -26 22 -39.5z" />
    <glyph glyph-name="a.alt2" horiz-adv-x="642" 
d="M638 12q-25 -10 -43.5 -15t-44.5 -5q-38 0 -65.5 18t-40.5 52q-40 -35 -83 -55.5t-96 -20.5q-61 0 -114.5 31.5t-85.5 87.5t-32 126q0 72 32.5 130t89 90.5t126.5 32.5q86 0 157 -62l45 64h73v-350q0 -40 33 -40q12 0 24 5zM199.5 130q36.5 -39 97.5 -39q33 0 66.5 16
t69.5 43v182q-60 47 -121 47q-66 0 -107.5 -41t-41.5 -107q0 -62 36.5 -101z" />
    <glyph glyph-name="aacute.alt" horiz-adv-x="638" 
d="M634 172v-60q0 -56 -33 -88t-83 -32q-45 0 -75 21.5t-41 59.5q-96 -87 -194 -87q-69 0 -116 38.5t-47 110.5q0 50 28 86t73.5 54.5t96.5 18.5q44 0 80 -8.5t74 -24.5v37q0 41 -27.5 60.5t-75.5 19.5q-45 0 -86.5 -11.5t-99.5 -35.5l-28 96q68 30 117.5 43t105.5 13
q101 0 157 -50.5t56 -139.5v-182q0 -15 7 -25.5t20 -10.5q14 0 20.5 10t6.5 27v60h64zM191 102.5q22 -13.5 54 -13.5q29 0 69 16t83 49v27q-61 23 -130 23q-41 -1 -69.5 -16.5t-28.5 -45.5q0 -26 22 -39.5zM226 548l224 134l-65 92l-193 -178z" />
    <glyph glyph-name="aacute.alt2" horiz-adv-x="642" 
d="M638 12q-25 -10 -43.5 -15t-44.5 -5q-38 0 -65.5 18t-40.5 52q-40 -35 -83 -55.5t-96 -20.5q-61 0 -114.5 31.5t-85.5 87.5t-32 126q0 72 32.5 130t89 90.5t126.5 32.5q86 0 157 -62l45 64h73v-350q0 -40 33 -40q12 0 24 5zM199.5 130q36.5 -39 97.5 -39q33 0 66.5 16
t69.5 43v182q-60 47 -121 47q-66 0 -107.5 -41t-41.5 -107q0 -62 36.5 -101zM252 551l224 134l-65 92l-193 -178z" />
    <glyph glyph-name="abreve.alt" horiz-adv-x="638" 
d="M634 172v-60q0 -56 -33 -88t-83 -32q-45 0 -75 21.5t-41 59.5q-96 -87 -194 -87q-69 0 -116 38.5t-47 110.5q0 50 28 86t73.5 54.5t96.5 18.5q44 0 80 -8.5t74 -24.5v37q0 41 -27.5 60.5t-75.5 19.5q-45 0 -86.5 -11.5t-99.5 -35.5l-28 96q68 30 117.5 43t105.5 13
q101 0 157 -50.5t56 -139.5v-182q0 -15 7 -25.5t20 -10.5q14 0 20.5 10t6.5 27v60h64zM191 102.5q22 -13.5 54 -13.5q29 0 69 16t83 49v27q-61 23 -130 23q-41 -1 -69.5 -16.5t-28.5 -45.5q0 -26 22 -39.5zM203.5 584.5q-41.5 24.5 -65 63.5t-26.5 83l75 15
q10 -37 39.5 -59.5t69.5 -22.5q39 0 69 22.5t39 59.5l75 -15q-3 -44 -26.5 -83.5t-64 -63.5t-92.5 -24q-51 0 -92.5 24.5z" />
    <glyph glyph-name="abreve.alt2" horiz-adv-x="642" 
d="M638 12q-25 -10 -43.5 -15t-44.5 -5q-38 0 -65.5 18t-40.5 52q-40 -35 -83 -55.5t-96 -20.5q-61 0 -114.5 31.5t-85.5 87.5t-32 126q0 72 32.5 130t89 90.5t126.5 32.5q86 0 157 -62l45 64h73v-350q0 -40 33 -40q12 0 24 5zM199.5 130q36.5 -39 97.5 -39q33 0 66.5 16
t69.5 43v182q-60 47 -121 47q-66 0 -107.5 -41t-41.5 -107q0 -62 36.5 -101zM229.5 587.5q-41.5 24.5 -65 63.5t-26.5 83l75 15q10 -37 39.5 -59.5t69.5 -22.5q39 0 69 22.5t39 59.5l75 -15q-3 -44 -26.5 -83.5t-64 -63.5t-92.5 -24q-51 0 -92.5 24.5z" />
    <glyph glyph-name="acircumflex.alt" horiz-adv-x="638" 
d="M634 172v-60q0 -56 -33 -88t-83 -32q-45 0 -75 21.5t-41 59.5q-96 -87 -194 -87q-69 0 -116 38.5t-47 110.5q0 50 28 86t73.5 54.5t96.5 18.5q44 0 80 -8.5t74 -24.5v37q0 41 -27.5 60.5t-75.5 19.5q-45 0 -86.5 -11.5t-99.5 -35.5l-28 96q68 30 117.5 43t105.5 13
q101 0 157 -50.5t56 -139.5v-182q0 -15 7 -25.5t20 -10.5q14 0 20.5 10t6.5 27v60h64zM191 102.5q22 -13.5 54 -13.5q29 0 69 16t83 49v27q-61 23 -130 23q-41 -1 -69.5 -16.5t-28.5 -45.5q0 -26 22 -39.5zM116 584l149 174h63l149 -174l-39 -36l-143 112l-140 -112z" />
    <glyph glyph-name="acircumflex.alt2" horiz-adv-x="642" 
d="M638 12q-25 -10 -43.5 -15t-44.5 -5q-38 0 -65.5 18t-40.5 52q-40 -35 -83 -55.5t-96 -20.5q-61 0 -114.5 31.5t-85.5 87.5t-32 126q0 72 32.5 130t89 90.5t126.5 32.5q86 0 157 -62l45 64h73v-350q0 -40 33 -40q12 0 24 5zM199.5 130q36.5 -39 97.5 -39q33 0 66.5 16
t69.5 43v182q-60 47 -121 47q-66 0 -107.5 -41t-41.5 -107q0 -62 36.5 -101zM142 587l149 174h63l149 -174l-39 -36l-143 112l-140 -112z" />
    <glyph glyph-name="adieresis.alt" horiz-adv-x="638" 
d="M634 172v-60q0 -56 -33 -88t-83 -32q-45 0 -75 21.5t-41 59.5q-96 -87 -194 -87q-69 0 -116 38.5t-47 110.5q0 50 28 86t73.5 54.5t96.5 18.5q44 0 80 -8.5t74 -24.5v37q0 41 -27.5 60.5t-75.5 19.5q-45 0 -86.5 -11.5t-99.5 -35.5l-28 96q68 30 117.5 43t105.5 13
q101 0 157 -50.5t56 -139.5v-182q0 -15 7 -25.5t20 -10.5q14 0 20.5 10t6.5 27v60h64zM191 102.5q22 -13.5 54 -13.5q29 0 69 16t83 49v27q-61 23 -130 23q-41 -1 -69.5 -16.5t-28.5 -45.5q0 -26 22 -39.5zM127.5 599.5q-22.5 17.5 -22.5 43.5q0 27 22.5 46t53.5 19
q32 0 53 -18.5t21 -46.5q0 -26 -21 -43.5t-53 -17.5q-31 0 -53.5 17.5zM355 599.5q-22 17.5 -22 43.5q0 27 22 46t52 19q32 0 54 -18.5t22 -46.5q0 -26 -22 -43.5t-54 -17.5q-30 0 -52 17.5z" />
    <glyph glyph-name="adieresis.alt2" horiz-adv-x="642" 
d="M638 12q-25 -10 -43.5 -15t-44.5 -5q-38 0 -65.5 18t-40.5 52q-40 -35 -83 -55.5t-96 -20.5q-61 0 -114.5 31.5t-85.5 87.5t-32 126q0 72 32.5 130t89 90.5t126.5 32.5q86 0 157 -62l45 64h73v-350q0 -40 33 -40q12 0 24 5zM199.5 130q36.5 -39 97.5 -39q33 0 66.5 16
t69.5 43v182q-60 47 -121 47q-66 0 -107.5 -41t-41.5 -107q0 -62 36.5 -101zM153.5 602.5q-22.5 17.5 -22.5 43.5q0 27 22.5 46t53.5 19q32 0 53 -18.5t21 -46.5q0 -26 -21 -43.5t-53 -17.5q-31 0 -53.5 17.5zM381 602.5q-22 17.5 -22 43.5q0 27 22 46t52 19q32 0 54 -18.5
t22 -46.5q0 -26 -22 -43.5t-54 -17.5q-30 0 -52 17.5z" />
    <glyph glyph-name="agrave.alt" horiz-adv-x="638" 
d="M634 172v-60q0 -56 -33 -88t-83 -32q-45 0 -75 21.5t-41 59.5q-96 -87 -194 -87q-69 0 -116 38.5t-47 110.5q0 50 28 86t73.5 54.5t96.5 18.5q44 0 80 -8.5t74 -24.5v37q0 41 -27.5 60.5t-75.5 19.5q-45 0 -86.5 -11.5t-99.5 -35.5l-28 96q68 30 117.5 43t105.5 13
q101 0 157 -50.5t56 -139.5v-182q0 -15 7 -25.5t20 -10.5q14 0 20.5 10t6.5 27v60h64zM191 102.5q22 -13.5 54 -13.5q29 0 69 16t83 49v27q-61 23 -130 23q-41 -1 -69.5 -16.5t-28.5 -45.5q0 -26 22 -39.5zM205 774l-64 -92l224 -134l34 48z" />
    <glyph glyph-name="agrave.alt2" horiz-adv-x="642" 
d="M638 12q-25 -10 -43.5 -15t-44.5 -5q-38 0 -65.5 18t-40.5 52q-40 -35 -83 -55.5t-96 -20.5q-61 0 -114.5 31.5t-85.5 87.5t-32 126q0 72 32.5 130t89 90.5t126.5 32.5q86 0 157 -62l45 64h73v-350q0 -40 33 -40q12 0 24 5zM199.5 130q36.5 -39 97.5 -39q33 0 66.5 16
t69.5 43v182q-60 47 -121 47q-66 0 -107.5 -41t-41.5 -107q0 -62 36.5 -101zM231 777l-64 -92l224 -134l34 48z" />
    <glyph glyph-name="amacron.alt" horiz-adv-x="638" 
d="M634 172v-60q0 -56 -33 -88t-83 -32q-45 0 -75 21.5t-41 59.5q-96 -87 -194 -87q-69 0 -116 38.5t-47 110.5q0 50 28 86t73.5 54.5t96.5 18.5q44 0 80 -8.5t74 -24.5v37q0 41 -27.5 60.5t-75.5 19.5q-45 0 -86.5 -11.5t-99.5 -35.5l-28 96q68 30 117.5 43t105.5 13
q101 0 157 -50.5t56 -139.5v-182q0 -15 7 -25.5t20 -10.5q14 0 20.5 10t6.5 27v60h64zM191 102.5q22 -13.5 54 -13.5q29 0 69 16t83 49v27q-61 23 -130 23q-41 -1 -69.5 -16.5t-28.5 -45.5q0 -26 22 -39.5zM479 583l-376 2v88l376 -2v-88z" />
    <glyph glyph-name="amacron.alt2" horiz-adv-x="642" 
d="M638 12q-25 -10 -43.5 -15t-44.5 -5q-38 0 -65.5 18t-40.5 52q-40 -35 -83 -55.5t-96 -20.5q-61 0 -114.5 31.5t-85.5 87.5t-32 126q0 72 32.5 130t89 90.5t126.5 32.5q86 0 157 -62l45 64h73v-350q0 -40 33 -40q12 0 24 5zM199.5 130q36.5 -39 97.5 -39q33 0 66.5 16
t69.5 43v182q-60 47 -121 47q-66 0 -107.5 -41t-41.5 -107q0 -62 36.5 -101zM505 586l-376 2v88l376 -2v-88z" />
    <glyph glyph-name="aogonek.alt" horiz-adv-x="638" 
d="M658 -180q-26 -14 -49 -21t-56 -7q-49 0 -82 26t-33 72q0 60 49 105q-33 7 -54.5 27t-30.5 51q-96 -87 -194 -87q-69 0 -116 38.5t-47 110.5q0 50 28 86t73.5 54.5t96.5 18.5q44 0 80 -8.5t74 -24.5v37q0 41 -27.5 60.5t-75.5 19.5q-45 0 -86.5 -11.5t-99.5 -35.5l-28 96
q68 30 117.5 43t105.5 13q101 0 157 -50.5t56 -139.5v-182q0 -15 7 -25.5t20 -10.5q14 0 20.5 10t6.5 27v60h64v-60q0 -32 -11.5 -56.5t-31.5 -40.5l3 -2q-36 -26 -58 -49t-22 -54q0 -20 14.5 -32t35.5 -12q33 0 70 21zM191 102.5q22 -13.5 54 -13.5q29 0 69 16t83 49v27
q-61 23 -130 23q-41 -1 -69.5 -16.5t-28.5 -45.5q0 -26 22 -39.5z" />
    <glyph glyph-name="aogonek.alt2" horiz-adv-x="642" 
d="M702 -181q-26 -14 -49 -21t-56 -7q-49 0 -82 26t-33 72q0 60 48 104q-30 4 -52.5 22t-33.5 47q-40 -35 -83 -55.5t-96 -20.5q-61 0 -114.5 31.5t-85.5 87.5t-32 126q0 72 32.5 130t89 90.5t126.5 32.5q86 0 157 -62l45 64h73v-350q0 -40 33 -40q12 0 24 5l25 -89
q-36 -26 -58 -49t-22 -54q0 -20 14.5 -32t35.5 -12q33 0 70 21zM199.5 130q36.5 -39 97.5 -39q33 0 66.5 16t69.5 43v182q-60 47 -121 47q-66 0 -107.5 -41t-41.5 -107q0 -62 36.5 -101z" />
    <glyph glyph-name="aring.alt" horiz-adv-x="638" 
d="M634 172v-60q0 -56 -33 -88t-83 -32q-45 0 -75 21.5t-41 59.5q-96 -87 -194 -87q-69 0 -116 38.5t-47 110.5q0 50 28 86t73.5 54.5t96.5 18.5q44 0 80 -8.5t74 -24.5v37q0 41 -27.5 60.5t-75.5 19.5q-45 0 -86.5 -11.5t-99.5 -35.5l-28 96q68 30 117.5 43t105.5 13
q101 0 157 -50.5t56 -139.5v-182q0 -15 7 -25.5t20 -10.5q14 0 20.5 10t6.5 27v60h64zM191 102.5q22 -13.5 54 -13.5q29 0 69 16t83 49v27q-61 23 -130 23q-41 -1 -69.5 -16.5t-28.5 -45.5q0 -26 22 -39.5zM225.5 563q-32.5 19 -52.5 51t-20 71q0 40 19.5 72t52.5 49.5
t71 17.5t71 -19t53 -51t20 -71q0 -40 -19.5 -72t-52.5 -49.5t-72 -17.5q-38 0 -70.5 19zM348.5 630.5q22.5 21.5 22.5 52.5t-22.5 53.5t-52.5 22.5q-31 0 -52.5 -21t-21.5 -53q0 -31 22 -53.5t52 -22.5t52.5 21.5z" />
    <glyph glyph-name="aring.alt2" horiz-adv-x="642" 
d="M638 12q-25 -10 -43.5 -15t-44.5 -5q-38 0 -65.5 18t-40.5 52q-40 -35 -83 -55.5t-96 -20.5q-61 0 -114.5 31.5t-85.5 87.5t-32 126q0 72 32.5 130t89 90.5t126.5 32.5q86 0 157 -62l45 64h73v-350q0 -40 33 -40q12 0 24 5zM199.5 130q36.5 -39 97.5 -39q33 0 66.5 16
t69.5 43v182q-60 47 -121 47q-66 0 -107.5 -41t-41.5 -107q0 -62 36.5 -101zM251.5 566q-32.5 19 -52.5 51t-20 71q0 40 19.5 72t52.5 49.5t71 17.5t71 -19t53 -51t20 -71q0 -40 -19.5 -72t-52.5 -49.5t-72 -17.5q-38 0 -70.5 19zM374.5 633.5q22.5 21.5 22.5 52.5
t-22.5 53.5t-52.5 22.5q-31 0 -52.5 -21t-21.5 -53q0 -31 22 -53.5t52 -22.5t52.5 21.5z" />
    <glyph glyph-name="atilde.alt" horiz-adv-x="638" 
d="M634 172v-60q0 -56 -33 -88t-83 -32q-45 0 -75 21.5t-41 59.5q-96 -87 -194 -87q-69 0 -116 38.5t-47 110.5q0 50 28 86t73.5 54.5t96.5 18.5q44 0 80 -8.5t74 -24.5v37q0 41 -27.5 60.5t-75.5 19.5q-45 0 -86.5 -11.5t-99.5 -35.5l-28 96q68 30 117.5 43t105.5 13
q101 0 157 -50.5t56 -139.5v-182q0 -15 7 -25.5t20 -10.5q14 0 20.5 10t6.5 27v60h64zM191 102.5q22 -13.5 54 -13.5q29 0 69 16t83 49v27q-61 23 -130 23q-41 -1 -69.5 -16.5t-28.5 -45.5q0 -26 22 -39.5zM315.5 568q-24.5 16 -51.5 46q-23 27 -36.5 37.5t-28.5 10.5
q-22 0 -33 -24.5t-15 -71.5l-71 7q1 67 32.5 113t86.5 46q37 0 61 -15.5t53 -47.5q22 -25 35 -35.5t27 -10.5q42 0 49 93l71 -6q-1 -67 -32.5 -112.5t-87.5 -45.5q-35 0 -59.5 16z" />
    <glyph glyph-name="atilde.alt2" horiz-adv-x="642" 
d="M638 12q-25 -10 -43.5 -15t-44.5 -5q-38 0 -65.5 18t-40.5 52q-40 -35 -83 -55.5t-96 -20.5q-61 0 -114.5 31.5t-85.5 87.5t-32 126q0 72 32.5 130t89 90.5t126.5 32.5q86 0 157 -62l45 64h73v-350q0 -40 33 -40q12 0 24 5zM199.5 130q36.5 -39 97.5 -39q33 0 66.5 16
t69.5 43v182q-60 47 -121 47q-66 0 -107.5 -41t-41.5 -107q0 -62 36.5 -101zM341.5 571q-24.5 16 -51.5 46q-23 27 -36.5 37.5t-28.5 10.5q-22 0 -33 -24.5t-15 -71.5l-71 7q1 67 32.5 113t86.5 46q37 0 61 -15.5t53 -47.5q22 -25 35 -35.5t27 -10.5q42 0 49 93l71 -6
q-1 -67 -32.5 -112.5t-87.5 -45.5q-35 0 -59.5 16z" />
    <glyph glyph-name="d.alt" horiz-adv-x="677" 
d="M673 167v-60q0 -57 -30.5 -88t-85.5 -31q-42 0 -72.5 19t-44.5 52q-39 -33 -81 -53t-94 -20q-61 0 -114.5 31.5t-85.5 87.5t-32 126q0 72 32.5 130t89 90.5t126.5 32.5q81 0 150 -56v160h-100v98h226v-580q0 -36 26 -36q13 0 19.5 10.5t6.5 25.5v61h64zM199.5 130
q36.5 -39 97.5 -39q33 0 65.5 15.5t68.5 42.5v187q-62 45 -119 45q-66 0 -107.5 -42t-41.5 -108q0 -62 36.5 -101z" />
    <glyph glyph-name="dcaron.alt" horiz-adv-x="677" 
d="M673 167v-60q0 -57 -30.5 -88t-85.5 -31q-42 0 -72.5 19t-44.5 52q-39 -33 -81 -53t-94 -20q-61 0 -114.5 31.5t-85.5 87.5t-32 126q0 72 32.5 130t89 90.5t126.5 32.5q81 0 150 -56v160h-100v98h226v-580q0 -36 26 -36q13 0 19.5 10.5t6.5 25.5v61h64zM199.5 130
q36.5 -39 97.5 -39q33 0 65.5 15.5t68.5 42.5v187q-62 45 -119 45q-66 0 -107.5 -42t-41.5 -108q0 -62 36.5 -101zM733 685q-5 -96 -78 -182l-52 14q36 91 31 180z" />
    <glyph glyph-name="dcroat.alt" horiz-adv-x="654" 
d="M673 167v-60q0 -57 -30.5 -88t-85.5 -31q-42 0 -72.5 19t-44.5 52q-39 -33 -81 -53t-94 -20q-61 0 -114.5 31.5t-85.5 87.5t-32 126q0 72 32.5 130t89 90.5t126.5 32.5q81 0 150 -56v102h-195v81h195v75h126v-75h74v-81h-74v-424q0 -36 26 -36q13 0 19.5 10.5t6.5 25.5
v61h64zM199.5 130q36.5 -39 97.5 -39q33 0 65.5 15.5t68.5 42.5v187q-62 45 -119 45q-66 0 -107.5 -42t-41.5 -108q0 -62 36.5 -101z" />
    <glyph glyph-name="f.alt" horiz-adv-x="419" 
d="M207.5 609.5q-28.5 -18.5 -28.5 -50.5q0 -21 15.5 -45.5t39.5 -42.5h133v-99h-116v-273h116v-99h-339v99h100v273h-100v99h100v1q-37 26 -58 56t-21 69q0 38 26 69t70.5 49t98.5 18q60 0 108.5 -11t103.5 -31l-38 -94q-71 31 -133 31q-49 0 -77.5 -18.5z" />
    <glyph glyph-name="g.alt" horiz-adv-x="631" 
d="M555 486v-504q0 -70 -35.5 -121t-92 -76.5t-118.5 -25.5q-67 0 -122.5 17t-120.5 50l44 99q53 -28 97 -43t91 -15q34 0 65 13.5t50.5 40t19.5 62.5v70q-80 -67 -168 -67q-61 0 -114.5 31.5t-85.5 87.5t-32 126q0 72 32.5 130t89 90.5t126.5 32.5q86 0 157 -62l45 64h72z
M363.5 107q33.5 16 69.5 43v182q-60 47 -121 47q-66 0 -107.5 -41t-41.5 -107q0 -62 36.5 -101t97.5 -39q33 0 66.5 16z" />
    <glyph glyph-name="gbreve.alt" horiz-adv-x="631" 
d="M555 486v-504q0 -70 -35.5 -121t-92 -76.5t-118.5 -25.5q-67 0 -122.5 17t-120.5 50l44 99q53 -28 97 -43t91 -15q34 0 65 13.5t50.5 40t19.5 62.5v70q-80 -67 -168 -67q-61 0 -114.5 31.5t-85.5 87.5t-32 126q0 72 32.5 130t89 90.5t126.5 32.5q86 0 157 -62l45 64h72z
M363.5 107q33.5 16 69.5 43v182q-60 47 -121 47q-66 0 -107.5 -41t-41.5 -107q0 -62 36.5 -101t97.5 -39q33 0 66.5 16zM229.5 587.5q-41.5 24.5 -65 63.5t-26.5 83l75 15q10 -37 39.5 -59.5t69.5 -22.5q39 0 69 22.5t39 59.5l75 -15q-3 -44 -26.5 -83.5t-64 -63.5
t-92.5 -24q-51 0 -92.5 24.5z" />
    <glyph glyph-name="gcommaaccent.alt" horiz-adv-x="631" 
d="M555 486v-504q0 -70 -35.5 -121t-92 -76.5t-118.5 -25.5q-67 0 -122.5 17t-120.5 50l44 99q53 -28 97 -43t91 -15q34 0 65 13.5t50.5 40t19.5 62.5v70q-80 -67 -168 -67q-61 0 -114.5 31.5t-85.5 87.5t-32 126q0 72 32.5 130t89 90.5t126.5 32.5q86 0 157 -62l45 64h72z
M363.5 107q33.5 16 69.5 43v182q-60 47 -121 47q-66 0 -107.5 -41t-41.5 -107q0 -62 36.5 -101t97.5 -39q33 0 66.5 16zM268 763.5q29 44.5 75 80.5l28 -30q-35 -31 -53.5 -63t-18.5 -55q7 5 15 6t22 1q28 0 46.5 -15t18.5 -40q0 -26 -22.5 -43.5t-55.5 -17.5q-36 0 -60 25
t-24 67q0 40 29 84.5z" />
    <glyph glyph-name="gdotaccent.alt" horiz-adv-x="631" 
d="M555 486v-504q0 -70 -35.5 -121t-92 -76.5t-118.5 -25.5q-67 0 -122.5 17t-120.5 50l44 99q53 -28 97 -43t91 -15q34 0 65 13.5t50.5 40t19.5 62.5v70q-80 -67 -168 -67q-61 0 -114.5 31.5t-85.5 87.5t-32 126q0 72 32.5 130t89 90.5t126.5 32.5q86 0 157 -62l45 64h72z
M363.5 107q33.5 16 69.5 43v182q-60 47 -121 47q-66 0 -107.5 -41t-41.5 -107q0 -62 36.5 -101t97.5 -39q33 0 66.5 16zM261 597q-25 20 -25 49q0 30 25 50t62 20q39 0 63.5 -19.5t24.5 -50.5q0 -30 -24.5 -49.5t-63.5 -19.5q-37 0 -62 20z" />
    <glyph glyph-name="i.loclTRK" horiz-adv-x="362" 
d="M354 99v-99h-326v99h100v273h-100v99h225v-372h101zM113 581q-25 20 -25 49q0 30 25 50t62 20q39 0 63.5 -19.5t24.5 -50.5q0 -30 -24.5 -49.5t-63.5 -19.5q-37 0 -62 20z" />
    <glyph glyph-name="k.alt" horiz-adv-x="681" 
d="M668 99v-99h-279v99h74l-127 114l-90 -60v-54h87v-99h-312v99h100v488h-100v99h225v-443l196 134h-79v94h278v-94h-61l-158 -106l190 -172h56z" />
    <glyph glyph-name="kcommaaccent.alt" horiz-adv-x="681" 
d="M668 99v-99h-279v99h74l-127 114l-90 -60v-54h87v-99h-312v99h100v488h-100v99h225v-443l196 134h-79v94h278v-94h-61l-158 -106l190 -172h56zM439 -272.5q-29 -44.5 -74 -80.5l-29 30q34 31 53 62.5t20 54.5q-14 -7 -38 -7q-27 0 -45.5 16t-18.5 40q0 26 22.5 43.5
t54.5 17.5q37 0 60.5 -24.5t23.5 -67.5q0 -40 -29 -84.5z" />
    <glyph glyph-name="t.alt" horiz-adv-x="448" 
d="M437 36q-32 -22 -70 -35.5t-89 -13.5q-89 0 -142 50t-53 146q0 46 9 90.5t26 98.5h-84v99h100v130h122v-130h138v-99h-156q-30 -102 -30 -170q0 -54 22.5 -79t58.5 -25q55 0 107 36z" />
    <glyph glyph-name="tbar.alt" horiz-adv-x="444" 
d="M437 36q-32 -22 -70 -35.5t-89 -13.5q-89 0 -142 50t-53 146q0 33 4 57h-76v80h92q7 28 15 52h-84v99h100v130h122v-130h138v-99h-156q-12 -42 -14 -52h121v-80h-135q-2 -26 -2 -38q0 -54 22.5 -79t58.5 -25q55 0 107 36z" />
    <glyph glyph-name="tcaron.alt" horiz-adv-x="448" 
d="M437 36q-32 -22 -70 -35.5t-89 -13.5q-89 0 -142 50t-53 146q0 46 9 90.5t26 98.5h-84v99h100v130h122v-130h138v-99h-156q-30 -102 -30 -170q0 -54 22.5 -79t58.5 -25q55 0 107 36zM405 727q-5 -96 -78 -182l-52 14q36 91 31 180z" />
    <glyph glyph-name="uni0163.alt" horiz-adv-x="448" 
d="M327.5 -92q28.5 -25 28.5 -67q0 -49 -42 -79.5t-98 -30.5q-72 0 -147 53l35 58q60 -44 112 -44q27 0 44 12t17 31q0 20 -17 31t-44 11q-22 0 -56 -4l-7 9l46 111q-55 19 -85.5 65.5t-30.5 118.5q0 46 9 90.5t26 98.5h-84v99h100v130h122v-130h138v-99h-156
q-30 -102 -30 -170q0 -54 22.5 -79t58.5 -25q55 0 107 36l41 -98q-32 -22 -70 -35.5t-89 -13.5q-14 0 -21 1l-23 -56q4 1 19 1q46 0 74.5 -25z" />
    <glyph glyph-name="uni021B.alt" horiz-adv-x="448" 
d="M437 36q-32 -22 -70 -35.5t-89 -13.5q-89 0 -142 50t-53 146q0 46 9 90.5t26 98.5h-84v99h100v130h122v-130h138v-99h-156q-30 -102 -30 -170q0 -54 22.5 -79t58.5 -25q55 0 107 36zM311 -285.5q-29 -44.5 -74 -80.5l-29 30q34 31 53 62.5t20 54.5q-14 -7 -38 -7
q-27 0 -45.5 16t-18.5 40q0 26 22.5 43.5t54.5 17.5q37 0 60.5 -24.5t23.5 -67.5q0 -40 -29 -84.5z" />
    <glyph glyph-name="u.alt" horiz-adv-x="699" 
d="M694 167v-60q0 -56 -33 -87.5t-84 -31.5q-54 0 -86.5 28t-37.5 76q-49 -53 -94 -79t-95 -26q-82 0 -126.5 56t-44.5 164v165h-88v99h191v-1h22v-261q0 -50 21 -78t71 -28q66 0 142 84v185h-80v99h204v-365q0 -15 7 -25.5t20 -10.5t19.5 10t6.5 26v61h65z" />
    <glyph glyph-name="uacute.alt" horiz-adv-x="699" 
d="M694 167v-60q0 -56 -33 -87.5t-84 -31.5q-54 0 -86.5 28t-37.5 76q-49 -53 -94 -79t-95 -26q-82 0 -126.5 56t-44.5 164v165h-88v99h191v-1h22v-261q0 -50 21 -78t71 -28q66 0 142 84v185h-80v99h204v-365q0 -15 7 -25.5t20 -10.5t19.5 10t6.5 26v61h65zM240 525l224 134
l-65 92l-193 -178z" />
    <glyph glyph-name="ucircumflex.alt" horiz-adv-x="699" 
d="M694 167v-60q0 -56 -33 -87.5t-84 -31.5q-54 0 -86.5 28t-37.5 76q-49 -53 -94 -79t-95 -26q-82 0 -126.5 56t-44.5 164v165h-88v99h191v-1h22v-261q0 -50 21 -78t71 -28q66 0 142 84v185h-80v99h204v-365q0 -15 7 -25.5t20 -10.5t19.5 10t6.5 26v61h65zM130 561l149 174
h63l149 -174l-39 -36l-143 112l-140 -112z" />
    <glyph glyph-name="udieresis.alt" horiz-adv-x="699" 
d="M694 167v-60q0 -56 -33 -87.5t-84 -31.5q-54 0 -86.5 28t-37.5 76q-49 -53 -94 -79t-95 -26q-82 0 -126.5 56t-44.5 164v165h-88v99h191v-1h22v-261q0 -50 21 -78t71 -28q66 0 142 84v185h-80v99h204v-365q0 -15 7 -25.5t20 -10.5t19.5 10t6.5 26v61h65zM141.5 576.5
q-22.5 17.5 -22.5 43.5q0 27 22.5 46t53.5 19q32 0 53 -18.5t21 -46.5q0 -26 -21 -43.5t-53 -17.5q-31 0 -53.5 17.5zM369 576.5q-22 17.5 -22 43.5q0 27 22 46t52 19q32 0 54 -18.5t22 -46.5q0 -26 -22 -43.5t-54 -17.5q-30 0 -52 17.5z" />
    <glyph glyph-name="ugrave.alt" horiz-adv-x="699" 
d="M694 167v-60q0 -56 -33 -87.5t-84 -31.5q-54 0 -86.5 28t-37.5 76q-49 -53 -94 -79t-95 -26q-82 0 -126.5 56t-44.5 164v165h-88v99h191v-1h22v-261q0 -50 21 -78t71 -28q66 0 142 84v185h-80v99h204v-365q0 -15 7 -25.5t20 -10.5t19.5 10t6.5 26v61h65zM219 751l-64 -92
l224 -134l34 48z" />
    <glyph glyph-name="uhungarumlaut.alt" horiz-adv-x="699" 
d="M694 167v-60q0 -56 -33 -87.5t-84 -31.5q-54 0 -86.5 28t-37.5 76q-49 -53 -94 -79t-95 -26q-82 0 -126.5 56t-44.5 164v165h-88v99h191v-1h22v-261q0 -50 21 -78t71 -28q66 0 142 84v185h-80v99h204v-365q0 -15 7 -25.5t20 -10.5t19.5 10t6.5 26v61h65zM139 562l112 194
l90 -66l-143 -170zM334 562l112 194l90 -66l-142 -170z" />
    <glyph glyph-name="umacron.alt" horiz-adv-x="699" 
d="M694 167v-60q0 -56 -33 -87.5t-84 -31.5q-54 0 -86.5 28t-37.5 76q-49 -53 -94 -79t-95 -26q-82 0 -126.5 56t-44.5 164v165h-88v99h191v-1h22v-261q0 -50 21 -78t71 -28q66 0 142 84v185h-80v99h204v-365q0 -15 7 -25.5t20 -10.5t19.5 10t6.5 26v61h65zM493 560l-376 2
v88l376 -2v-88z" />
    <glyph glyph-name="uogonek.alt" horiz-adv-x="699" 
d="M724 -182q-26 -14 -49 -21t-56 -7q-49 0 -82 26t-33 72q0 57 45 102q-42 7 -67 33.5t-29 68.5q-49 -53 -94 -79t-95 -26q-82 0 -126.5 56t-44.5 164v165h-88v99h191v-1h22v-261q0 -50 21 -78t71 -28q66 0 142 84v185h-80v99h204v-365q0 -15 7 -25.5t20 -10.5t19.5 10
t6.5 26v61h65v-60q0 -60 -39 -93l5 -3q-36 -26 -58 -49t-22 -54q0 -20 14.5 -32t35.5 -12q33 0 70 21z" />
    <glyph glyph-name="uring.alt" horiz-adv-x="699" 
d="M694 167v-60q0 -56 -33 -87.5t-84 -31.5q-54 0 -86.5 28t-37.5 76q-49 -53 -94 -79t-95 -26q-82 0 -126.5 56t-44.5 164v165h-88v99h191v-1h22v-261q0 -50 21 -78t71 -28q66 0 142 84v185h-80v99h204v-365q0 -15 7 -25.5t20 -10.5t19.5 10t6.5 26v61h65zM239.5 540
q-32.5 19 -52.5 51t-20 71q0 40 19.5 72t52.5 49.5t71 17.5t71 -19t53 -51t20 -71q0 -40 -19.5 -72t-52.5 -49.5t-72 -17.5q-38 0 -70.5 19zM362.5 607.5q22.5 21.5 22.5 52.5t-22.5 53.5t-52.5 22.5q-31 0 -52.5 -21t-21.5 -53q0 -31 22 -53.5t52 -22.5t52.5 21.5z" />
    <glyph glyph-name="x.alt" horiz-adv-x="698" 
d="M681 175q-5 -88 -51.5 -137t-117.5 -49q-123 0 -192 182l-88 -73h65v-99h-267v99h64l194 154q-23 67 -42.5 97t-48.5 30q-32 0 -45 -23.5t-13 -68.5l-108 13q16 184 166 184q67 0 112 -48.5t76 -134.5l87 71h-62v99h268v-99h-70l-190 -150q23 -66 44.5 -96.5t49.5 -30.5
q26 0 43.5 23.5t17.5 67.5z" />
    <glyph glyph-name="z.alt" horiz-adv-x="624" 
d="M76 67l267 272q21 22 63 42l-2 4q-23 -8 -39 -12t-33 -4h-143v-92h-105v192h480v-67l-274 -278q-11 -14 -60 -38l1 -4q45 16 73 16h153v94h105v-192h-486v67z" />
    <glyph glyph-name="zacute.alt" horiz-adv-x="624" 
d="M76 67l267 272q21 22 63 42l-2 4q-23 -8 -39 -12t-33 -4h-143v-92h-105v192h480v-67l-274 -278q-11 -14 -60 -38l1 -4q45 16 73 16h153v94h105v-192h-486v67zM283 548l224 134l-65 92l-193 -178z" />
    <glyph glyph-name="zcaron.alt" horiz-adv-x="624" 
d="M76 67l267 272q21 22 63 42l-2 4q-23 -8 -39 -12t-33 -4h-143v-92h-105v192h480v-67l-274 -278q-11 -14 -60 -38l1 -4q45 16 73 16h153v94h105v-192h-486v67zM534 732l-149 -174h-63l-149 174l39 37l141 -111l142 111z" />
    <glyph glyph-name="zdotaccent.alt" horiz-adv-x="624" 
d="M76 67l267 272q21 22 63 42l-2 4q-23 -8 -39 -12t-33 -4h-143v-92h-105v192h480v-67l-274 -278q-11 -14 -60 -38l1 -4q45 16 73 16h153v94h105v-192h-486v67zM292 594q-25 20 -25 49q0 30 25 50t62 20q39 0 63.5 -19.5t24.5 -50.5q0 -30 -24.5 -49.5t-63.5 -19.5
q-37 0 -62 20z" />
    <glyph glyph-name="two.alt" horiz-adv-x="638" 
d="M591 208v-208h-569v104l-1 1l278 191q69 48 97 77.5t28 61.5q0 40 -32.5 67t-84.5 27q-58 0 -108 -28t-100 -81l-70 79q59 61 132 98t153 37q66 0 121 -21.5t87.5 -64t32.5 -102.5q0 -62 -44 -112.5t-141 -111.5l-188 -117h304v103h105z" />
    <glyph glyph-name="seven.alt" horiz-adv-x="613" 
d="M587 618v-88q0 -63 -21.5 -109.5t-65 -85t-116.5 -81.5q-65 -38 -98.5 -77.5t-44 -80.5t-10.5 -96h-116q1 70 13.5 124.5t50.5 104.5t110 92q70 41 106 68t53.5 56t17.5 69h-322v-140h-103v244h546z" />
    <glyph glyph-name="zero.slash" horiz-adv-x="741" 
d="M209 24.5q-76 37.5 -123 110.5t-47 175t47 175.5t123 111t161 37.5t161.5 -37.5t123.5 -111t47 -175.5t-47.5 -175t-123.5 -110.5t-161 -37.5t-161 37.5zM472 114q45 28 70.5 79t25.5 117q0 67 -25 118t-70.5 79t-103.5 28q-57 0 -102 -28t-70 -79t-25 -118
q0 -66 25.5 -117t70 -79t101.5 -28q58 0 103 28zM311.5 256q-23.5 21 -23.5 53q0 35 23.5 56.5t57.5 21.5q37 0 59.5 -21.5t22.5 -56.5q0 -33 -22.5 -53.5t-59.5 -20.5q-34 0 -57.5 21z" />
    <glyph glyph-name="two.dnom" horiz-adv-x="378" 
d="M346 125v-125h-321v61q3 48 39 80.5t103 56.5q55 21 73 33.5t18 30.5q0 20 -18 33t-51 13q-58 0 -126 -57l-39 48q36 32 80.5 52.5t92.5 20.5q58 0 98.5 -29.5t40.5 -79.5q0 -43 -32 -68.5t-104 -56.5q-50 -21 -72 -36.5t-25 -37.5h179v61h64z" />
    <glyph glyph-name="four.dnom" horiz-adv-x="397" 
d="M389 61h-70v-74h-89v74h-222v72l220 234h91v-234h70v-72zM230 133v144l-139 -144h139z" />
    <glyph glyph-name="one.numr" horiz-adv-x="304" 
d="M276 339v-71h-231v71h83v184q-27 -34 -67 -42l-27 75q34 5 59.5 25.5t34.5 51.5h89v-294h59z" />
    <glyph glyph-name="three.numr" horiz-adv-x="365" 
d="M337 354q0 -43 -45 -71t-113 -28q-91 0 -165 54l36 58q27 -20 61.5 -32.5t68.5 -12.5q32 0 52 10.5t20 30.5q0 24 -28.5 35t-90.5 11h-49v64h49q51 0 78 13t27 37q0 20 -17.5 32.5t-44.5 12.5q-51 0 -114 -52l-43 52q28 28 71 47t89 19q62 0 102.5 -28t40.5 -76
q0 -29 -21.5 -51.5t-57.5 -34.5q94 -20 94 -90z" />
    <glyph glyph-name="ampersand.swsh" horiz-adv-x="790" 
d="M1122 -174q-54 -35 -116.5 -55.5t-140.5 -20.5q-139 0 -254.5 63.5t-198.5 173.5q-42 -2 -64 -2q-98 0 -170.5 24.5t-112 70t-39.5 106.5q0 77 58 128.5t173 80.5q-3 38 -3 74q0 63 26.5 115t74 82.5t108.5 30.5q54 0 95 -20t62.5 -55t21.5 -77q0 -74 -64.5 -131
t-175.5 -87q25 -120 85 -221q69 22 110.5 64.5t41.5 98.5q0 29 -7.5 50t-22.5 46l107 47q23 -40 34 -69.5t11 -75.5t-24 -94t-71.5 -88.5t-114.5 -66.5q63 -71 142.5 -110.5t171.5 -39.5q57 0 110.5 16.5t95.5 47.5zM409 564q-22 -33 -22 -94q0 -30 1 -44q64 20 97.5 50
t33.5 65q0 26 -14.5 41t-39.5 15q-34 0 -56 -33zM208 117.5q52 -28.5 141 -30.5q-52 98 -77 210q-59 -17 -87.5 -41.5t-28.5 -60.5q0 -49 52 -77.5z" />
    <glyph glyph-name="caroncomb.alt" horiz-adv-x="313" 
d="M221 824q-5 -96 -78 -182l-52 14q36 91 31 180z" />
    <glyph glyph-name="neutral.rev" 
d="M751 -159.5q108 58.5 169.5 161.5t61.5 231q0 129 -61.5 232t-169.5 161.5t-241 58.5q-132 0 -239 -58.5t-168.5 -161.5t-61.5 -232q0 -128 61.5 -231t169 -161.5t238.5 -58.5q133 0 241 58.5zM234 394q67 47 159 47q19 0 28 -1l5 -77q-35 5 -65 5q-56 0 -116 -15z
M655 368q-30 0 -65 -5l4 77q10 1 29 1q92 0 159 -47l-11 -41q-60 15 -116 15zM289 167q-19 19 -19 46t19 46t46 19q26 0 45 -19t19 -46t-19 -46t-45 -19q-27 0 -46 19zM643 167q-19 19 -19 46t19 46t47 19q26 0 45 -19t19 -46t-19 -46t-45 -19q-28 0 -47 19zM433 -3
q-36 3 -92 9v36q97 11 169 11q74 0 171 -11v-36q-56 -6 -92.5 -9t-78.5 -3q-41 0 -77 3z" />
    <glyph glyph-name="happy.rev" 
d="M751 -159.5q108 58.5 169.5 161.5t61.5 231q0 129 -61.5 232t-169.5 161.5t-241 58.5q-132 0 -239 -58.5t-168.5 -161.5t-61.5 -232q0 -128 61.5 -231t169 -161.5t238.5 -58.5q133 0 241 58.5zM229 377q67 65 176 79l17 -77q-94 -2 -176 -42zM594 379l19 77
q112 -14 175 -79l-17 -40q-81 40 -177 42zM289 167q-19 19 -19 46t19 46t46 19q26 0 45 -19t19 -46t-19 -46t-45 -19q-27 0 -46 19zM643 167q-19 19 -19 46t19 46t47 19q26 0 45 -19t19 -46t-19 -46t-45 -19q-28 0 -47 19zM419.5 -15.5q-44.5 16.5 -78.5 47.5l9 37
q39 -22 77 -32t83 -10q46 0 84 10t77 32l10 -37q-35 -32 -79.5 -48t-91.5 -16q-46 0 -90.5 16.5z" />
    <glyph glyph-name="sad.rev" 
d="M751 -159.5q108 58.5 169.5 161.5t61.5 231q0 129 -61.5 232t-169.5 161.5t-241 58.5q-132 0 -239 -58.5t-168.5 -161.5t-61.5 -232q0 -128 61.5 -231t169 -161.5t238.5 -58.5q133 0 241 58.5zM229 377q67 65 176 79l17 -77q-94 -2 -176 -42zM594 379l19 77
q112 -14 175 -79l-17 -40q-81 40 -177 42zM289 167q-19 19 -19 46t19 46t46 19q26 0 45 -19t19 -46t-19 -46t-45 -19q-27 0 -46 19zM643 167q-19 19 -19 46t19 46t47 19q26 0 45 -19t19 -46t-19 -46t-45 -19q-28 0 -47 19zM601.5 55q44.5 -16 79.5 -47l-10 -38
q-39 22 -77 32t-84 10q-45 0 -83 -10t-77 -32l-9 38q35 31 79 47t90 16q47 0 91.5 -16z" />
    <glyph glyph-name="angry.rev" 
d="M751 -159.5q108 58.5 169.5 161.5t61.5 231q0 129 -61.5 232t-169.5 161.5t-241 58.5q-132 0 -239 -58.5t-168.5 -161.5t-61.5 -232q0 -128 61.5 -231t169 -161.5t238.5 -58.5q133 0 241 58.5zM422 413l-17 -75q-110 14 -176 77l17 41q77 -38 176 -43zM788 415
q-63 -63 -175 -77l-19 75q102 5 177 43zM289 167q-19 19 -19 46t19 46t46 19q26 0 45 -19t19 -46t-19 -46t-45 -19q-27 0 -46 19zM643 167q-19 19 -19 46t19 46t47 19q26 0 45 -19t19 -46t-19 -46t-45 -19q-28 0 -47 19zM601.5 55q44.5 -16 79.5 -47l-10 -38q-39 22 -77 32
t-84 10q-45 0 -83 -10t-77 -32l-9 38q35 31 79 47t90 16q47 0 91.5 -16z" />
    <glyph glyph-name="surprised.rev" 
d="M751 -159.5q108 58.5 169.5 161.5t61.5 231q0 129 -61.5 232t-169.5 161.5t-241 58.5q-132 0 -239 -58.5t-168.5 -161.5t-61.5 -232q0 -128 61.5 -231t169 -161.5t238.5 -58.5q133 0 241 58.5zM237 379q64 63 175 77l19 -75q-97 -5 -176 -43zM585 381l19 75
q111 -14 175 -77l-17 -42q-78 39 -177 44zM284 162.5q-21 20.5 -21 50.5q0 29 21 50.5t51 21.5q28 0 49.5 -21.5t21.5 -50.5t-21.5 -50t-49.5 -21q-30 0 -51 20.5zM639 162.5q-21 20.5 -21 50.5q0 29 21.5 50.5t50.5 21.5t50 -21.5t21 -50.5q0 -30 -21 -50.5t-50 -20.5
q-30 0 -51 20.5zM538.5 73.5q9.5 -14.5 20.5 -49.5v-21q-11 -35 -20.5 -49t-28.5 -14q-18 0 -27.5 14t-21.5 49v21q12 36 21.5 50t27.5 14q19 0 28.5 -14.5z" />
    <glyph glyph-name="afraid.rev" 
d="M751 -159.5q108 58.5 169.5 161.5t61.5 231q0 129 -61.5 232t-169.5 161.5t-241 58.5q-132 0 -239 -58.5t-168.5 -161.5t-61.5 -232q0 -128 61.5 -231t169 -161.5t238.5 -58.5q133 0 241 58.5zM237 379q64 63 175 77l19 -75q-97 -5 -176 -43zM585 381l19 75
q111 -14 175 -77l-17 -42q-78 39 -177 44zM289 167q-19 19 -19 46t19 46t46 19q26 0 45 -19t19 -46t-19 -46t-45 -19q-27 0 -46 19zM643 167q-19 19 -19 46t19 46t47 19q26 0 45 -19t19 -46t-19 -46t-45 -19q-28 0 -47 19zM433 -3q-36 3 -92 9v36q97 11 169 11q74 0 171 -11
v-36q-56 -6 -92.5 -9t-78.5 -3q-41 0 -77 3z" />
    <glyph glyph-name="disgusted.rev" 
d="M751 -159.5q108 58.5 169.5 161.5t61.5 231q0 129 -61.5 232t-169.5 161.5t-241 58.5q-132 0 -239 -58.5t-168.5 -161.5t-61.5 -232q0 -128 61.5 -231t169 -161.5t238.5 -58.5q133 0 241 58.5zM585 399l32 72q105 -36 158 -111l-26 -36q-68 50 -164 75zM237 412
q51 22 110 22q40 0 82 -9l-9 -79q-75 24 -143 24q-11 0 -37 -2zM283 161.5q-21 20.5 -21 51.5q0 30 21 51.5t52 21.5q29 0 50 -21.5t21 -51.5t-21 -51t-50 -21q-31 0 -52 20.5zM638.5 162q-21.5 21 -21.5 51t21.5 51.5t51.5 21.5q29 0 50 -21.5t21 -51.5t-20.5 -51
t-50.5 -21t-51.5 21zM591 54.5q56 -16.5 90 -46.5l-10 -38q-36 21 -86.5 31.5t-100.5 10.5q-96 0 -134 -42l-9 38q15 30 55 46.5t88 16.5q51 0 107 -16.5z" />
    </font>
</defs>
</svg>
