<svg width="18" height="18" viewBox="0 0 18 18" fill="none" xmlns="http://www.w3.org/2000/svg">
<g clip-path="url(#clip0_538_3274)">
<path d="M9 1.5C4.85786 1.5 1.5 4.85786 1.5 9C1.5 13.1421 4.85786 16.5 9 16.5C13.1421 16.5 16.5 13.1421 16.5 9C16.5 4.85786 13.1421 1.5 9 1.5Z" stroke="white" stroke-width="1.5" stroke-linecap="round" stroke-linejoin="round"/>
<path d="M3.20325 13.7593C3.20325 13.7593 4.87501 11.625 9 11.625C13.125 11.625 14.7968 13.7593 14.7968 13.7593" stroke="white" stroke-width="1.5" stroke-linecap="round" stroke-linejoin="round"/>
<path d="M9 9C10.2427 9 11.25 7.99268 11.25 6.75C11.25 5.50736 10.2427 4.5 9 4.5C7.75732 4.5 6.75 5.50736 6.75 6.75C6.75 7.99268 7.75732 9 9 9Z" stroke="white" stroke-width="1.5" stroke-linecap="round" stroke-linejoin="round"/>
</g>
<defs>
<clipPath id="clip0_538_3274">
<rect width="18" height="18" fill="white"/>
</clipPath>
</defs>
</svg>
