<svg width="15" height="18" viewBox="0 0 15 18" fill="none" xmlns="http://www.w3.org/2000/svg">
<path d="M0.793091 5.27549L3.78016 7.17635M0.793091 5.27549L4.05171 3.10308M0.793091 5.27549V9.07722M3.78016 7.17635L7.31033 5.27549M3.78016 7.17635V10.9781M4.05171 3.10308L7.31033 0.930664L13.8276 5.27549M4.05171 3.10308L7.31033 5.27549M0.793091 9.07722L3.78016 10.9781M0.793091 9.07722V12.6074L3.78016 14.474M7.31033 16.6807L3.78016 14.474M7.31033 16.6807L10.8405 14.474M7.31033 16.6807V13.1505M3.78016 14.474V10.9781M10.8405 14.474V11.2496M10.8405 14.474L13.8276 12.6074V8.94144M7.31033 13.1505L3.78016 10.9781M7.31033 13.1505L10.8405 11.2496M13.8276 5.27549L10.8405 7.17635M13.8276 5.27549V8.94144M10.8405 7.17635L7.31033 5.27549M10.8405 7.17635V11.2496M13.8276 8.94144L10.8405 11.2496M7.31033 5.27549L10.2974 3.10308M7.31033 5.27549V8.80566M3.78016 10.9781L7.31033 8.80566M7.31033 8.80566L10.8405 11.2496" stroke="white" stroke-width="0.62069"/>
</svg>
