<?xml version="1.0" standalone="no"?>
<!DOCTYPE svg PUBLIC "-//W3C//DTD SVG 1.1//EN" "http://www.w3.org/Graphics/SVG/1.1/DTD/svg11.dtd" >
<svg xmlns="http://www.w3.org/2000/svg" xmlns:xlink="http://www.w3.org/1999/xlink" version="1.1">
<metadata>
Created by FontForge 20170731 at Tue Mar 12 17:14:32 2019
 By Aleksey,,,
Copyright 2012 The B612 Project Authors (https://github.com/polarsys/b612)
</metadata>
<defs>
<font id="B612-Regular" horiz-adv-x="1200" >
  <font-face 
    font-family="B612"
    font-weight="400"
    font-stretch="normal"
    units-per-em="2000"
    panose-1="2 11 6 6 5 0 0 2 0 4"
    ascent="1600"
    descent="-400"
    x-height="1100"
    cap-height="1520"
    bbox="-99 -710 3132 1920"
    underline-thickness="100"
    underline-position="-400"
    unicode-range="U+0020-FB06"
  />
<missing-glyph horiz-adv-x="1300" 
d="M100 1500h1100v-1500h-1100v1500zM200 100h900v1300h-900v-1300z" />
    <glyph glyph-name=".notdef" horiz-adv-x="1300" 
d="M100 1500h1100v-1500h-1100v1500zM200 100h900v1300h-900v-1300z" />
    <glyph glyph-name=".null" horiz-adv-x="0" 
 />
    <glyph glyph-name="nonmarkingreturn" horiz-adv-x="666" 
 />
    <glyph glyph-name="NULL" horiz-adv-x="0" 
 />
    <glyph glyph-name="NULL" horiz-adv-x="0" 
 />
    <glyph glyph-name="space" unicode=" " horiz-adv-x="700" 
 />
    <glyph glyph-name="exclam" unicode="!" horiz-adv-x="700" 
d="M405 1500v-1050l-210 -21v1071h210zM169 120q0 27 10.5 51t28.5 42t41.5 28.5t50.5 10.5t51 -10.5t42 -28.5t28.5 -42t10.5 -51t-10.5 -51.5t-28 -42.5t-41 -29t-50.5 -11q-28 0 -52 11t-42 29t-28.5 42.5t-10.5 51.5z" />
    <glyph glyph-name="quotedbl" unicode="&#x22;" horiz-adv-x="800" 
d="M325 1500v-100q0 -38 -7 -94t-15 -110q-10 -62 -22 -129h-87q-12 67 -22 129q-8 54 -15 110t-7 94v100h175zM626 1500v-100q0 -38 -7 -94t-15 -110q-10 -62 -22 -129h-87q-12 67 -22 129q-8 54 -15 110t-7 94v100h175z" />
    <glyph glyph-name="numbersign" unicode="#" horiz-adv-x="1700" 
d="M1328 950l-50 -400h322l-20 -150h-319l-50 -400l-211 -20l54 420h-453l-48 -400l-210 -20l51 420h-294v150h311l51 400h-362l20 150h359l24 185v215l236 20l-53 -420h453l48 400l211 20l-51 -420h253v-150h-272zM1120 950h-451l-49 -400h451z" />
    <glyph glyph-name="dollar" unicode="$" horiz-adv-x="1100" 
d="M892 1300q-17 14 -43 28.5t-58 26.5t-69 21t-76 12v-525q69 -32 136.5 -69t121 -87t86.5 -117t33 -158q0 -94 -28 -168t-78 -129t-119 -90t-152 -50v-195h-146v183q-58 1 -115 11.5t-108.5 26.5t-95.5 36.5t-76 42.5l118 141q20 -13 46 -29t60 -30.5t76 -24t95 -9.5v573
q-69 34 -137 71t-121 83t-86 104.5t-33 136.5q0 105 31.5 177.5t83.5 119t120 70.5t142 32v185l146 20v-202q106 -6 188.5 -36.5t151.5 -81.5zM833 400q0 45 -17 82.5t-46 69t-69 58.5t-85 52v-504q49 9 89 28t68.5 48.5t44 70.5t15.5 95zM313 1147q0 -41 17 -74t46 -61
t69 -51t85 -45v467q-41 -7 -79.5 -23t-69.5 -43.5t-49.5 -69.5t-18.5 -100z" />
    <glyph glyph-name="percent" unicode="%" horiz-adv-x="1800" 
d="M590 0h-190l820 1500h180zM398 764q-74 0 -135 29t-105 80t-68.5 120.5t-24.5 150.5q0 80 23.5 148.5t66.5 118.5t104.5 78t138.5 28q73 0 134 -28t105 -78t68.5 -118.5t24.5 -148.5q0 -81 -23.5 -150.5t-67 -120.5t-104.5 -80t-137 -29zM574 1133q0 45 -10 89t-31 78.5
t-54.5 56t-81.5 21.5q-45 0 -77.5 -18.5t-53 -49.5t-30.5 -70t-10 -81q0 -46 10 -89.5t31 -77.5t54.5 -55t80.5 -21q45 0 77.5 18.5t53.5 49t31 69.5t10 80zM1400 -17q-74 0 -135 29t-105 80t-68.5 120.5t-24.5 150.5q0 80 23.5 148.5t66.5 118.5t104.5 78t138.5 28
q73 0 134 -28t105 -78t68.5 -118.5t24.5 -148.5q0 -81 -23.5 -150.5t-67 -120.5t-104.5 -80t-137 -29zM1576 352q0 45 -10 89t-31 78.5t-54.5 56t-81.5 21.5q-45 0 -77.5 -18.5t-53 -49.5t-30.5 -70t-10 -81q0 -46 10 -89.5t31 -77.5t54.5 -55t80.5 -21q45 0 77.5 18.5
t53.5 49t31 69.5t10 80z" />
    <glyph glyph-name="ampersand" unicode="&#x26;" horiz-adv-x="1400" 
d="M1306 713q0 -79 -12.5 -155.5t-39 -149.5t-67 -140t-95.5 -127l81 16l133 -177h-223l-72 97q-75 -50 -159 -73.5t-180 -23.5q-103 0 -202 36t-177 101t-125.5 156t-47.5 201q0 68 20.5 131t57 118t86 102t107.5 84q-38 57 -62.5 125.5t-24.5 141.5q0 82 27.5 146
t76.5 108t117.5 67t150.5 23q67 0 122.5 -15t100.5 -40.5t79 -58.5t60 -68l-80 -118q-18 19 -43.5 43t-60 45.5t-79 36t-99.5 14.5q-36 0 -71.5 -11.5t-63 -34.5t-45 -57.5t-17.5 -80.5q0 -29 10 -63q4 -15 11.5 -32t26.5 -46.5t53.5 -78.5t92.5 -128t144.5 -194.5
t209.5 -277.5q42 75 62.5 160.5t22.5 176.5zM672 149q63 0 120.5 15.5t113.5 52.5l-454 611v-83q-80 -59 -121.5 -127t-41.5 -143q0 -73 31.5 -132t85 -101t122.5 -66t144 -27z" />
    <glyph glyph-name="quotesingle" unicode="'" horiz-adv-x="400" 
d="M150 1500h175v-100q0 -74 -35.5 -159.5t-105.5 -173.5h-44q2 76 5 142q1 28 1.5 57t1.5 54.5t1.5 46.5t0.5 33v100z" />
    <glyph glyph-name="parenleft" unicode="(" horiz-adv-x="900" 
d="M200 1180q0 89 9 166t39.5 133.5t90 88.5t161.5 32q19 0 40 -1.5t40 -4.5t34.5 -8t24.5 -11l-69 -126q-6 1 -14 2q-7 1 -16 2t-20 1q-44 0 -68.5 -21t-36 -57t-13.5 -83t-2 -99v-1208q0 -52 2 -99t13.5 -83t36 -57t68.5 -21q11 0 20 0.5t16 1.5q8 1 14 3l69 -126
q-9 -6 -24.5 -11t-34.5 -8t-40 -4.5t-40 -1.5q-102 0 -161.5 32t-90 88.5t-39.5 133.5t-9 166v1180z" />
    <glyph glyph-name="parenright" unicode=")" horiz-adv-x="900" 
d="M699 0q0 -89 -9 -166t-39.5 -133.5t-90 -88.5t-161.5 -32q-19 0 -40 1.5t-40 4.5t-34.5 8t-24.5 11l69 126q6 -2 14 -3q7 -1 16 -1.5t20 -0.5q44 0 68.5 21t36 57t13.5 83t2 99v1208q0 52 -2 99t-13.5 83t-36 57t-68.5 21q-11 0 -20 -1t-16 -2q-8 -1 -14 -2l-69 126
q9 6 24.5 11t34.5 8t40 4.5t40 1.5q102 0 161.5 -32t90 -88.5t39.5 -133.5t9 -166v-1180z" />
    <glyph glyph-name="asterisk" unicode="*" horiz-adv-x="1100" 
d="M631 994l140 -192l-99 -90l-149 206l-24 72l-24 -72l-140 -192l-116 67l148 203l65 45l-81 4l-223 73l27 131l238 -77l66 -52l-22 82v234l133 14v-252l-26 -80l66 50l225 72l54 -122l-242 -78l-79 -3z" />
    <glyph glyph-name="plus" unicode="+" 
d="M100 700h373v421h155v-421h372v-155h-372v-423h-155v423h-373v155z" />
    <glyph glyph-name="comma" unicode="," horiz-adv-x="500" 
d="M102 133q0 29 11.5 55.5t32 45.5t47.5 31t57 12q29 0 55.5 -10.5t47 -30.5t33 -50.5t12.5 -69.5q0 -53 -6.5 -102.5t-27 -100.5t-58.5 -104t-100 -110l-52 23q23 44 41 91q15 39 27.5 85.5t12.5 90.5q-25 1 -49 11t-43 27.5t-30 44.5t-11 61z" />
    <glyph glyph-name="hyphen" unicode="-" horiz-adv-x="900" 
d="M200 600h500v-155h-500v155z" />
    <glyph glyph-name="period" unicode="." horiz-adv-x="600" 
d="M86 150q0 34 13 64t35.5 52.5t52 35.5t63.5 13t64 -13t52.5 -35.5t35.5 -52.5t13 -64t-13 -64.5t-35 -53t-51.5 -36t-63.5 -13.5t-64.5 13.5t-53 36t-35.5 53t-13 64.5z" />
    <glyph glyph-name="slash" unicode="/" horiz-adv-x="1100" 
d="M285 -100h-210l710 1700h200z" />
    <glyph glyph-name="zero" unicode="0" horiz-adv-x="1300" 
d="M600 -17q-85 0 -156 32.5t-127.5 88.5t-99 131t-71 160.5t-42.5 176t-14 178.5q0 90 12 182t38 177t66.5 159.5t97 129.5t130 87t166.5 32q85 0 156 -32.5t127.5 -88.5t99 -131t71 -160.5t42.5 -176.5t14 -178q0 -90 -12 -182t-38 -177t-66.5 -159.5t-97 -129.5
t-130.5 -87t-166 -32zM297 793q0 -58 4 -127.5t16 -140t33.5 -136.5t56 -117.5t84 -82.5t117.5 -31q61 0 106.5 23.5t78.5 64t54 94t33.5 114.5t17.5 126t5 127q0 58 -4 127.5t-16 139.5t-33.5 136.5t-56 117.5t-84 82t-117.5 31q-61 0 -106.5 -23.5t-78.5 -63.5t-54 -94
t-33.5 -115t-17.5 -125.5t-5 -126.5z" />
    <glyph glyph-name="one" unicode="1" horiz-adv-x="1300" 
d="M350 0v160h245v966l58 227l-136 -186l-212 -188l-108 121l458 420l150 -20v-1340h245v-160h-700z" />
    <glyph glyph-name="two" unicode="2" horiz-adv-x="1300" 
d="M152 0v168q48 76 103.5 149.5t112 142t111.5 130t101 112.5q51 56 97 105.5t81 98.5t56 99.5t21 109.5q0 48 -18 90.5t-50.5 74t-77.5 50t-99 18.5q-61 0 -105.5 -16.5t-78 -43.5t-58 -60.5t-45.5 -67.5l-141 60q26 65 66.5 119.5t95.5 94t125 61.5t156 22q101 0 180 -36
t133.5 -94.5t83 -132.5t28.5 -150q0 -77 -28.5 -146.5t-71 -132t-91.5 -117.5t-90 -103q-52 -61 -104 -120t-99.5 -115.5t-88.5 -109t-71 -100.5h670v-160h-904z" />
    <glyph glyph-name="three" unicode="3" horiz-adv-x="1300" 
d="M215 1340l15 160h730v-140q-12 -40 -40.5 -83.5t-67 -87.5t-84 -87.5t-91.5 -82.5l-132 -74q10 2 25.5 2.5t29.5 0.5q97 0 180.5 -24t145 -72.5t97 -123t35.5 -175.5q0 -97 -36 -176t-98.5 -140.5t-146.5 -106t-179.5 -73.5t-197.5 -43t-200 -14v160q83 3 163 15
t152 33.5t133 52.5t105.5 72.5t69.5 93.5t25 116q0 72 -30.5 120t-83.5 76t-124.5 39.5t-153.5 11.5q-32 0 -69.5 -1.5t-67.5 -3.5v155q41 30 89 68t97 79.5t95.5 84t84.5 81t64 71.5t34 56l-152 -40h-416z" />
    <glyph glyph-name="four" unicode="4" horiz-adv-x="1300" 
d="M1085 300h-180v-300h-210v300h-595v171l484 1049l189 -20l-415 -900l-93 -140h430v407l210 -17v-390h195z" />
    <glyph glyph-name="five" unicode="5" horiz-adv-x="1300" 
d="M408 982q7 4 24.5 13t43.5 18t59.5 15.5t74.5 6.5q104 0 185.5 -32.5t138 -89t86 -132.5t29.5 -162q0 -101 -36 -186.5t-98.5 -154t-146 -120.5t-178 -87.5t-194.5 -53t-196 -17.5v160q75 2 152 18.5t148.5 44t134 66.5t109 86.5t73.5 103.5t27 119q0 51 -16.5 99
t-49 85.5t-81.5 60.5t-114 23q-51 0 -92 -6.5t-73.5 -16t-55.5 -21.5t-38 -22h-124v700h753v-160h-545v-358z" />
    <glyph glyph-name="six" unicode="6" horiz-adv-x="1300" 
d="M929 1344q-7 2 -20.5 2.5t-24.5 0.5q-72 0 -140 -22.5t-128 -63.5t-110.5 -98t-89 -125.5t-63.5 -146.5t-33 -161l83 117q25 16 58.5 30.5t70.5 25.5t75 17.5t72 6.5q87 0 167.5 -24t143 -74t100 -128.5t37.5 -187.5q0 -108 -36.5 -204.5t-102.5 -169t-158 -114.5
t-204 -42q-98 0 -173.5 31.5t-131.5 83.5t-93.5 119t-61 137.5t-33.5 139.5t-10 126q0 119 24.5 232t71 212.5t113.5 183t152.5 143t188 93t220.5 33.5q15 0 33 -0.5t28 -2.5zM329 597q0 -28 0.5 -51t3 -45t6.5 -44.5t11 -49.5q14 -57 38 -103.5t58.5 -80t80 -52
t102.5 -18.5q79 0 134.5 30t90.5 79.5t51.5 112.5t16.5 128q0 63 -18.5 111t-52.5 79.5t-81.5 47.5t-105.5 16q-54 0 -105 -13t-95.5 -35t-79 -51t-55.5 -61z" />
    <glyph glyph-name="seven" unicode="7" horiz-adv-x="1300" 
d="M200 1500h900v-130q0 -43 -32.5 -110.5t-82.5 -151.5t-109 -180.5t-113 -198t-94 -203.5t-51 -197q-5 -41 -7.5 -84.5t-4 -86.5t-1.5 -84v-74h-205q0 30 0.5 80.5t2.5 106.5t6.5 111t12.5 94q23 107 66 210.5t93.5 199t103.5 180.5t96 154.5t70.5 121.5t27.5 82h-679v160
z" />
    <glyph glyph-name="eight" unicode="8" horiz-adv-x="1300" 
d="M611 1517q91 0 169 -25t134.5 -72t88.5 -114t32 -151q0 -59 -17.5 -105t-47.5 -82.5t-69.5 -66t-83.5 -55.5q74 -33 132.5 -75.5t99 -96t62 -119.5t21.5 -145q0 -111 -44 -191.5t-116.5 -133t-165 -77.5t-189.5 -25q-95 0 -183 28.5t-155.5 84t-108.5 138t-41 190.5
q0 80 23 145t63 117t95 92.5t119 71.5q-47 29 -87.5 60t-71 66.5t-48 76.5t-17.5 91q0 97 38.5 167.5t98.5 116t131.5 67.5t137.5 22zM600 760q-63 -27 -113.5 -59.5t-86 -74t-55 -93.5t-19.5 -119q0 -60 24.5 -109t65 -84.5t93.5 -54.5t109 -19q64 0 121.5 17.5t101 51.5
t68.5 84t25 115q0 67 -29.5 119.5t-77 94t-107 73.5t-120.5 58zM641 923q92 41 146.5 99t54.5 141q0 50 -20.5 86t-51.5 59t-68.5 33.5t-71.5 10.5q-45 0 -87 -13.5t-74 -38.5t-51.5 -59t-19.5 -74q0 -46 19.5 -81.5t53 -64t77.5 -52.5t93 -46z" />
    <glyph glyph-name="nine" unicode="9" horiz-adv-x="1300" 
d="M848 663q-59 -46 -118.5 -68t-134.5 -22q-98 0 -183 32.5t-148 92.5t-99 144.5t-36 188.5q0 108 34.5 197t98 153.5t154 100t202.5 35.5q100 0 176.5 -31t132.5 -82t93.5 -117t60 -137t32 -141t9.5 -129q0 -117 -23.5 -227t-69 -208t-111.5 -180.5t-150.5 -143t-187 -97
t-219.5 -41.5l-31 167q120 6 225.5 57t186 135.5t130 197t56.5 240.5zM916 953q-3 75 -22 145.5t-54 126t-88.5 89t-125.5 33.5q-68 0 -122 -22t-92 -61t-58.5 -94t-20.5 -121q0 -65 16.5 -121t50 -97t85 -64.5t120.5 -23.5q53 0 101.5 17t89 45.5t71.5 66.5t49 81z" />
    <glyph glyph-name="colon" unicode=":" horiz-adv-x="600" 
d="M152 133q0 31 12 58t32 47t46.5 31.5t57.5 11.5t58 -11.5t47 -31.5t31.5 -47t11.5 -58t-11.5 -58.5t-31.5 -47.5t-46.5 -32t-56.5 -12q-31 0 -58.5 12t-47.5 32t-32 47.5t-12 58.5zM152 647q0 31 12 58t32 47t46.5 31.5t57.5 11.5t58 -11.5t47 -31.5t31.5 -47t11.5 -58
t-11.5 -58.5t-31.5 -47.5t-46.5 -32t-56.5 -12q-31 0 -58.5 12t-47.5 32t-32 47.5t-12 58.5z" />
    <glyph glyph-name="semicolon" unicode=";" horiz-adv-x="500" 
d="M102 647q0 31 12 58t32 47t46.5 31.5t57.5 11.5t58 -11.5t47 -31.5t31.5 -47t11.5 -58t-11.5 -58.5t-31.5 -47.5t-46.5 -32t-56.5 -12q-31 0 -58.5 12t-47.5 32t-32 47.5t-12 58.5zM102 133q0 29 11.5 55.5t32 45.5t47.5 31t57 12q29 0 55.5 -10.5t47 -30.5t33 -50.5
t12.5 -69.5q0 -53 -6.5 -102.5t-27 -100.5t-58.5 -104t-100 -110l-52 23q23 44 41 91q15 39 27.5 85.5t12.5 90.5q-25 1 -49 11t-43 27.5t-30 44.5t-11 61z" />
    <glyph glyph-name="less" unicode="&#x3c;" horiz-adv-x="1300" 
d="M1100 1211v-175l-687 -366l-78 -20l77 -20l688 -364v-175l-900 457v209z" />
    <glyph glyph-name="equal" unicode="=" horiz-adv-x="1000" 
d="M100 700h800v-140h-800v140zM100 400h800v-140h-800v140z" />
    <glyph glyph-name="greater" unicode="&#x3e;" horiz-adv-x="1300" 
d="M1100 757v-209l-900 -457v175l688 364l77 20l-78 20l-687 366v175z" />
    <glyph glyph-name="question" unicode="?" horiz-adv-x="1100" 
d="M1000 1144q0 -63 -17 -113t-44.5 -91t-63 -76t-73 -68.5t-73 -68.5t-63 -75.5t-44.5 -90t-17 -111.5l-210 -21q0 89 17 157t44.5 120.5t63 93t73 74t73 63.5t63 62t44.5 69t17 84q0 52 -20 90t-54.5 62t-81 35.5t-99.5 11.5q-38 0 -78.5 -11t-79 -32t-74 -51t-63.5 -67
l-133 110q49 66 106.5 108.5t117 66.5t118 33t111.5 9q85 0 164 -22.5t140.5 -68t98.5 -116t37 -166.5zM369 120q0 27 10.5 51t28.5 42t41.5 28.5t50.5 10.5t51 -10.5t42 -28.5t28.5 -42t10.5 -51t-10.5 -51.5t-28 -42.5t-41 -29t-50.5 -11q-28 0 -52 11t-42 29t-28.5 42.5
t-10.5 51.5z" />
    <glyph glyph-name="at" unicode="@" horiz-adv-x="2000" 
d="M1005 1517q128 0 239 -33.5t203 -94.5t164 -146t121 -187.5t75 -220.5t26 -244q0 -82 -5 -160.5t-18 -149.5t-36.5 -130.5t-60.5 -102.5t-90 -67.5t-125 -24.5q-55 0 -104 11t-86 35.5t-60 64t-27 95.5l-95 -112q-17 -13 -39 -25t-44.5 -21.5t-45 -15t-41.5 -5.5
q-75 0 -143.5 23.5t-120 69t-82 113t-30.5 155.5q0 93 37.5 161.5t96 114t130.5 68t141 22.5q57 0 100.5 -6t73.5 -14q35 -9 61 -20v35q0 55 -8.5 98.5t-31 73t-62.5 45t-103 15.5q-54 0 -104 -7.5t-89 -16.5q-46 -11 -85 -23l-72 134q44 20 100 36q48 14 114 25.5t146 11.5
q112 0 184.5 -29t115 -82.5t59 -128.5t16.5 -167v-511q0 -16 7 -32.5t19.5 -29.5t29.5 -21t37 -8q30 0 52 26t38 67t25.5 90.5t15.5 96.5t8 86t2 59q0 116 -16 224t-49 201.5t-84 170.5t-122 132t-162 85t-204 30q-107 0 -194.5 -29t-156 -81t-118.5 -123.5t-82.5 -155.5
t-48.5 -178.5t-16 -191.5q0 -105 15 -209.5t47 -199.5t82 -176.5t120 -141t161.5 -93.5t206.5 -34q50 0 97 7.5t87 19.5t71 26t51 28l80 -150q-88 -47 -184.5 -69t-209.5 -22q-133 0 -246.5 35.5t-206 99.5t-163.5 153.5t-119.5 197t-73 230t-24.5 253.5q0 134 24 257.5
t71.5 231t118 195t163 150t207 97t249.5 34.5zM1220 533q-28 4 -60 8q-27 3 -62 6t-73 3q-56 0 -102.5 -11t-80.5 -35.5t-53 -63.5t-19 -95q0 -45 15 -82t41 -64t61.5 -41.5t76.5 -14.5q19 0 40.5 5.5t43 14.5t43 21t40.5 24q45 29 89 66v259z" />
    <glyph glyph-name="A" unicode="A" horiz-adv-x="1300" 
d="M62 0l423 1300l35 200l217 20l498 -1520h-200l-148 450h-495l-146 -450h-184zM639 1360l-36 -260l-162 -500h397l-163 500z" />
    <glyph glyph-name="B" unicode="B" horiz-adv-x="1300" 
d="M400 1147v-262h110q65 0 126 14.5t108.5 46t76.5 81.5t29 121q0 66 -28 110t-73.5 70t-102.5 36.5t-114 10.5q-17 0 -37 -1t-40.5 -3.5t-40 -5.5t-34.5 -6zM190 0v1290l-30 200q30 4 69.5 8t81.5 6.5t83 4t73 1.5q111 0 214.5 -14.5t183.5 -52.5t128 -104.5t48 -169.5
q0 -109 -52.5 -188t-138.5 -121l-154 -44l147 -14q61 -18 115.5 -46.5t95.5 -69.5t64.5 -97t23.5 -129q0 -85 -23 -152t-62 -118t-92 -87.5t-113.5 -59t-125 -33t-126.5 -10.5h-410zM400 160h140q99 0 174 14.5t126 48t76.5 89t25.5 138.5q0 75 -26 128t-73.5 87
t-114.5 49.5t-148 15.5h-180v-570z" />
    <glyph glyph-name="C" unicode="C" 
d="M1106 104q-82 -66 -181 -93.5t-217 -27.5q-144 0 -259 62.5t-195 169.5t-122.5 250t-42.5 305q0 151 38.5 286.5t117.5 238t200 162.5t286 60q115 0 217.5 -36.5t174.5 -105.5l-90 -107q-48 32 -120.5 56t-165.5 24q-122 0 -207 -46t-139 -124.5t-78.5 -183t-24.5 -221.5
q0 -69 11 -141.5t33.5 -141.5t58 -130t84 -107t110.5 -73t139 -27q45 0 82 4t71.5 13t68.5 23.5t73 36.5z" />
    <glyph glyph-name="D" unicode="D" horiz-adv-x="1300" 
d="M170 1500q31 3 74 5t88.5 3.5t90 2t77.5 0.5q159 0 294.5 -39t234.5 -124t155 -218t56 -320q0 -146 -28 -262.5t-77.5 -206.5t-119 -154.5t-153 -106t-177.5 -61t-194 -19.5h-291v1290zM410 1150v-990h20q145 0 246 30t167.5 79.5t104 114t56 133.5t22.5 137t4 126
q0 127 -22 233.5t-81 183t-164.5 119t-271.5 42.5q-16 0 -34 -1t-34 -3q-18 -2 -38 -4z" />
    <glyph glyph-name="E" unicode="E" 
d="M1045 160l-20 -160h-850l15 200v1090l-30 210h850v-160h-630l20 -190v-265h540v-145h-540v-400l-10 -180h655z" />
    <glyph glyph-name="F" unicode="F" horiz-adv-x="1100" 
d="M400 0h-210v1290l-30 210h885l-20 -160h-645l20 -190v-265h540v-145h-540v-740z" />
    <glyph glyph-name="G" unicode="G" horiz-adv-x="1300" 
d="M1200 197q-41 -45 -92 -84.5t-112 -68t-133 -45t-155 -16.5q-144 0 -259 62.5t-195.5 169.5t-123 250t-42.5 305q0 151 38.5 286.5t118 238t200.5 162.5t286 60q115 0 217.5 -36.5t174.5 -105.5l-90 -107q-48 32 -120.5 56t-165.5 24q-122 0 -207 -46t-139 -124.5
t-78.5 -183t-24.5 -221.5q0 -69 11 -141.5t33.5 -141.5t58 -130t84 -107t110.5 -73t139 -27q45 0 87 9.5t78 24.5t64.5 33.5t46.5 37.5v387l-310 20v140h500v-608z" />
    <glyph glyph-name="H" unicode="H" horiz-adv-x="1400" 
d="M1015 0v725h-630v-725h-205v1290l-29 210l234 20v-635h630v617l205 18v-1520h-205z" />
    <glyph glyph-name="I" unicode="I" horiz-adv-x="600" 
d="M190 0v1290l-30 210l240 20v-1520h-210z" />
    <glyph glyph-name="J" unicode="J" horiz-adv-x="900" 
d="M270 1497l430 23v-1090q0 -192 -103.5 -317t-299.5 -130q-168 0 -297 132l92 118q10 -10 29.5 -23.5t45.5 -25.5t56.5 -20t63.5 -8q104 0 153.5 78t49.5 236v678l20 190l-220 -13z" />
    <glyph glyph-name="K" unicode="K" 
d="M190 0v1290l-30 210l240 20v-664l541 644h222l-531 -635l-169 -63l174 -58l553 -744h-237l-553 746v-746h-210z" />
    <glyph glyph-name="L" unicode="L" horiz-adv-x="1100" 
d="M390 160h650l-20 -160h-850l20 200v1090l-30 210l240 20v-1180z" />
    <glyph glyph-name="M" unicode="M" horiz-adv-x="1800" 
d="M1400 0v1000l44 320l-5 1l-101 -301l-415 -890h-69l-369 790l-132 401l-6 -1l53 -419v-901h-200v1290l-28 210l234 20l439 -940l55 -260l55 260l429 920l226 20v-1520h-210z" />
    <glyph glyph-name="N" unicode="N" horiz-adv-x="1500" 
d="M1100 0l-615 1028l-117 289l-6 -1l38 -316v-1000h-200v1290l-30 210l236 20l616 -1033l120 -314l6 1l-48 336v990l195 20v-1520h-195z" />
    <glyph glyph-name="O" unicode="O" horiz-adv-x="1600" 
d="M800 -17q-158 0 -283 58t-212.5 160.5t-134 243t-46.5 305.5t45 305.5t131.5 243t212.5 160.5t287 58q157 0 282.5 -58t213 -160.5t134 -243t46.5 -305.5t-45 -305.5t-131.5 -243t-212.5 -160.5t-287 -58zM1268 719q0 80 -11 157.5t-35 147t-62 129t-90.5 102.5
t-121 67.5t-154.5 24.5q-123 0 -210.5 -47.5t-143.5 -126.5t-82 -180t-26 -208q0 -81 11.5 -159t35.5 -148.5t61.5 -130t90 -102.5t121 -67.5t154.5 -24.5q81 0 147 22.5t117.5 61.5t88.5 93t61.5 116.5t36 132t11.5 140.5z" />
    <glyph glyph-name="P" unicode="P" 
d="M400 0h-210v1290l-35 200q30 5 73.5 9t92.5 7t98 4.5t88 1.5q115 0 220.5 -20.5t186.5 -68.5t129 -126t48 -193q0 -140 -50 -232.5t-141 -147.5t-218.5 -77.5t-281.5 -22.5v-624zM400 1147v-382q120 0 213 14t157 50.5t97 100.5t33 165q0 75 -31.5 128t-81.5 87
t-112 49.5t-123 15.5q-17 0 -40.5 -1.5t-47.5 -3.5t-46.5 -5t-37.5 -6z" />
    <glyph glyph-name="Q" unicode="Q" horiz-adv-x="1600" 
d="M1404 -145q-56 0 -111.5 7.5t-108.5 33.5t-103 74.5t-94 131.5l-10 18q-5 9 -10 17l-10 -138q-37 -8 -76 -12t-81 -4q-158 0 -283 58t-212.5 160.5t-134 243t-46.5 305.5t45 305.5t131.5 243t212.5 160.5t287 58q157 0 282.5 -58t213 -160.5t134 -243t46.5 -305.5
q0 -105 -18.5 -200.5t-54.5 -178t-88.5 -150.5t-120.5 -118q29 -37 56.5 -57.5t59 -31t68 -13t83.5 -2.5zM1268 719q0 80 -11 157.5t-35 147t-62 129t-90.5 102.5t-121 67.5t-154.5 24.5q-123 0 -210.5 -47.5t-143.5 -126.5t-82 -180t-26 -208q0 -81 11.5 -159t35.5 -148.5
t61.5 -130t90 -102.5t121 -67.5t154.5 -24.5q38 0 73 5t66 14q-29 45 -56.5 71t-57.5 39t-66 16t-83 3l57 144q55 0 107 -12t102.5 -42t99.5 -82t97 -132v137q64 81 93.5 187t29.5 218z" />
    <glyph glyph-name="R" unicode="R" horiz-adv-x="1300" 
d="M400 614v-614h-210v1290l-35 200q33 4 79.5 8t97 7t101.5 5t94 2q126 0 230 -26.5t178 -78.5t115 -129.5t41 -178.5q0 -105 -32.5 -185t-91.5 -136.5t-140.5 -92t-178.5 -52.5l142 -40l443 -593h-223l-443 595q-11 14 -25 16.5t-22 2.5h-120zM400 1147v-382h148
q91 0 158 25.5t111 69t66 101t22 122.5q0 85 -32 141.5t-83 90t-114 47t-124 13.5q-21 0 -44 -0.5t-46 -1.5t-44.5 -3.5t-37.5 -5.5z" />
    <glyph glyph-name="S" unicode="S" horiz-adv-x="1100" 
d="M870 1274q-68 40 -130.5 59t-139.5 19q-54 0 -105.5 -11t-91 -35.5t-64 -64t-24.5 -96.5q0 -56 30 -97t78.5 -73.5t111 -60t127.5 -58t127.5 -67t111 -86t78.5 -115.5t30 -156q0 -74 -20 -136.5t-55.5 -112.5t-84.5 -87.5t-107 -62.5t-122.5 -37.5t-131.5 -12.5
q-233 4 -406 111l91 150q20 -13 52.5 -29.5t72.5 -31.5t85 -25t91 -10q62 0 121.5 15.5t106 48t75 82.5t28.5 119q0 65 -30 113.5t-78.5 87t-111 69.5t-127.5 62t-127.5 65t-111 77t-78.5 98.5t-30 130.5q0 97 40 171.5t105.5 125.5t148.5 77.5t169 26.5q213 0 393 -120z
" />
    <glyph glyph-name="T" unicode="T" 
d="M495 0v1340h-415v160h1035v-160h-410v-1340h-210z" />
    <glyph glyph-name="U" unicode="U" horiz-adv-x="1400" 
d="M1220 1500v-977q0 -136 -41 -237.5t-112.5 -168.5t-169.5 -100.5t-212 -33.5q-122 0 -216 42.5t-158 120t-97.5 186.5t-33.5 241v717l-30 210l235 20v-966q0 -95 25 -169.5t67.5 -126t98.5 -78.5t119 -27q73 0 132.5 22t101 66t64 109.5t22.5 153.5v996h205z" />
    <glyph glyph-name="V" unicode="V" horiz-adv-x="1300" 
d="M585 500l88 -360l48 314l330 1046h189l-419 -1320l-26 -200l-246 20l-482 1500l195 20z" />
    <glyph glyph-name="W" unicode="W" horiz-adv-x="1900" 
d="M872 1500h157l259 -1040l64 -360h4l23 360l260 1040h175l-374 -1500h-232l-221 885l-29 358l-64 -358l-221 -885h-232l-374 1500l191 20l264 -1060l64 -360h4l22 360z" />
    <glyph glyph-name="X" unicode="X" horiz-adv-x="1300" 
d="M1014 0l-313 519l-77 181l-48 -160l-325 -540h-198l480 799l-423 701l212 20l278 -464l80 -196l35 160l288 480h200l-435 -724l466 -776h-220z" />
    <glyph glyph-name="Y" unicode="Y" 
d="M660 935l288 565h192l-435 -854v-646h-210v645l-436 855l204 20l288 -566l79 -249z" />
    <glyph glyph-name="Z" unicode="Z" 
d="M1090 160l20 -160h-1029l-20 50l655 1150l184 180l-265 -40h-485l-20 160h946l15 -22l-661 -1178l-178 -180l265 40h573z" />
    <glyph glyph-name="bracketleft" unicode="[" horiz-adv-x="900" 
d="M122 1320l-22 200h572v-150h-372l20 -200v-1240l-20 -200h372v-150h-572l22 200v1540z" />
    <glyph glyph-name="backslash" unicode="\" horiz-adv-x="1100" 
d="M75 1600h200l710 -1700h-210z" />
    <glyph glyph-name="bracketright" unicode="]" horiz-adv-x="1000" 
d="M678 -220l22 -200h-572v150h372l-20 200v1240l20 200h-372v150h572l-22 -200v-1540z" />
    <glyph glyph-name="asciicircum" unicode="^" horiz-adv-x="1500" 
d="M1373 912h-201l-378 327l-45 111l-44 -109l-367 -327h-216l555 586l129 17z" />
    <glyph glyph-name="underscore" unicode="_" horiz-adv-x="1100" 
d="M0 -300h1100v-155h-1100v155z" />
    <glyph glyph-name="grave" unicode="`" horiz-adv-x="1100" 
d="M660 1200h-150l-225 300l204 20z" />
    <glyph glyph-name="a" unicode="a" horiz-adv-x="1050" 
d="M920 0h-210v162l-94 -112q-17 -13 -39 -25t-44.5 -21.5t-45 -15t-41.5 -5.5q-75 0 -143.5 23.5t-120 69t-82 113t-30.5 155.5q0 93 37.5 161.5t96 114t130.5 68t141 22.5q57 0 100.5 -6t73.5 -14q35 -9 61 -20v35q0 59 -7 106t-28.5 79.5t-62 49.5t-107.5 17
q-54 0 -104 -7.5t-89 -16.5q-46 -11 -85 -23l-72 134q44 20 100 36q48 14 114 25.5t146 11.5q115 0 190 -31t118 -87t60 -134.5t17 -174.5v-510zM710 533q-28 4 -60 8q-27 3 -62 6t-73 3q-56 0 -102.5 -11t-80.5 -35.5t-53 -63.5t-19 -95q0 -45 15 -82t41 -64t61.5 -41.5
t76.5 -14.5q19 0 40.5 5.5t43 14.5t43 21t40.5 24q45 29 89 66v259z" />
    <glyph glyph-name="b" unicode="b" 
d="M390 171q19 -6 44 -11.5t53.5 -9t58.5 -5.5t58 -2q61 0 107.5 20t80.5 53.5t56.5 79t36.5 96t19.5 104.5t5.5 105q0 100 -19 168t-51.5 110t-75 60t-89.5 18q-79 0 -151 -30.5t-134 -81.5v-674zM200 1420l-20 180l210 20v-646l85 91q51 24 107 38t112 14q83 0 156.5 -34
t129 -100.5t88 -163.5t32.5 -223q0 -138 -37.5 -251t-105 -193.5t-160 -124.5t-202.5 -44q-63 0 -124 4.5t-114 12t-94 17t-63 18.5v1385z" />
    <glyph glyph-name="c" unicode="c" horiz-adv-x="1000" 
d="M807 878q-39 35 -92.5 57t-110.5 22q-84 0 -143 -31.5t-95.5 -85.5t-53.5 -125.5t-17 -150.5q0 -82 15.5 -156.5t52.5 -131.5t98.5 -90.5t153.5 -33.5q77 0 130.5 18t82.5 38l72 -141q-56 -38 -130.5 -61t-168.5 -23q-125 0 -219 49.5t-156.5 132t-94 190t-31.5 222.5
q0 104 30.5 201.5t93 172.5t158 120.5t224.5 45.5q92 0 164.5 -28.5t135.5 -97.5z" />
    <glyph glyph-name="d" unicode="d" 
d="M656 940q-92 0 -159 -34.5t-111 -93.5t-65 -139t-21 -171q0 -89 21 -156t54.5 -112t76.5 -67.5t88 -22.5q47 0 87.5 16t74.5 40t61 52.5t47 53.5v634h-154zM810 0v162l-95 -113q-18 -12 -39 -24t-47 -21t-57.5 -15t-70.5 -6q-82 0 -153 40.5t-123.5 112.5t-83 171.5
t-30.5 218.5q0 120 38.5 224.5t109.5 182.5t171.5 122.5t224.5 44.5h155v520l190 -20v-1420l20 -180h-210z" />
    <glyph glyph-name="e" unicode="e" horiz-adv-x="1100" 
d="M966 129q-31 -32 -68 -59t-82 -46.5t-99.5 -30t-121.5 -10.5q-133 0 -227 47t-153.5 126t-87 181t-27.5 213q0 71 13 140.5t39 132.5t65 117t91 93t117.5 61.5t144.5 22.5q108 0 187 -35t131 -98t77 -151t25 -195q0 -31 -2 -68t-6 -70h-692q0 -75 20.5 -140t57.5 -113.5
t89.5 -76t117.5 -27.5q64 0 111.5 9.5t81.5 23t55.5 27.5t33.5 22zM800 650q1 11 1.5 22t0.5 22q0 57 -13 105t-39.5 83.5t-67.5 55.5t-97 20q-67 0 -114.5 -21.5t-80 -55t-52 -73.5t-29.5 -76l-52 -109l178 27h365z" />
    <glyph glyph-name="f" unicode="f" horiz-adv-x="800" 
d="M50 1100h150v155q0 85 18.5 152t58.5 113.5t102.5 71.5t150.5 25q45 0 82.5 -7.5t69 -19.5t58 -28t47.5 -33l-85 -118q-21 15 -58 30.5t-82 15.5q-86 0 -131.5 -48.5t-45.5 -163.5v-145h290l-20 -160h-265v-940h-190v940h-150v160z" />
    <glyph glyph-name="g" unicode="g" 
d="M810 135l-87 -110q-9 -6 -25.5 -13t-40.5 -13.5t-56 -11t-71 -4.5q-91 0 -169.5 44.5t-136.5 121t-91 179t-33 217.5q0 117 30 221t90 182t149 123.5t207 45.5q37 0 72.5 -3t66.5 -14l95 -142v162l190 -20v-1146q0 -98 -33.5 -184t-96.5 -149.5t-153.5 -100.5t-204.5 -37
q-79 0 -138.5 20t-101.5 44q-48 28 -83 65l98 110q29 -22 65 -40q31 -15 72 -27t89 -12q62 0 116 25.5t94.5 69.5t63.5 103.5t23 127.5v166zM810 834q-27 34 -63 61q-31 23 -75 42.5t-101 19.5q-60 0 -104 -19t-75.5 -51t-51 -74.5t-31 -90t-15.5 -96t-4 -93.5
q0 -85 18.5 -156.5t52 -123t81 -80.5t104.5 -29q51 0 91 11t72 29.5t56.5 42t44.5 48.5v559z" />
    <glyph glyph-name="h" unicode="h" 
d="M390 0h-190v1400l-20 200l210 20v-670l89 115q39 22 93 37t118 15q150 0 230 -100t80 -287v-730h-190v709q0 67 -11.5 114t-32.5 77t-52 43.5t-70 13.5t-76 -9.5t-70 -26t-60.5 -39t-47.5 -49.5v-833z" />
    <glyph glyph-name="i" unicode="i" horiz-adv-x="600" 
d="M390 0h-190v1055l190 20v-1075zM194 1500h202v-200h-202v200z" />
    <glyph glyph-name="j" unicode="j" horiz-adv-x="600" 
d="M194 1500h202v-200h-202v200zM-22 -345q11 -4 36 -8t56 -4q37 0 62 19.5t40 53.5t21.5 79.5t6.5 97.5v1162l190 20v-1172q0 -89 -11.5 -166t-45.5 -133.5t-94.5 -88.5t-158.5 -32q-61 0 -95.5 11t-45.5 17z" />
    <glyph glyph-name="k" unicode="k" horiz-adv-x="1100" 
d="M200 0v1420l-20 180l210 20v-930l370 410h229l-370 -410l-168 -63l168 -60l481 -567h-236l-474 557v-557h-190z" />
    <glyph glyph-name="l" unicode="l" horiz-adv-x="700" 
d="M390 376q0 -66 7.5 -110.5t22 -72t36 -39t49.5 -11.5q22 0 40 2.5t31 6.5q15 4 27 9l69 -121q-8 -8 -25.5 -17.5t-41.5 -18.5t-54.5 -15t-65.5 -6q-90 0 -146 33t-87 90t-41.5 132.5t-10.5 161.5v1000l-20 200l210 20v-1244z" />
    <glyph glyph-name="m" unicode="m" horiz-adv-x="1800" 
d="M390 0h-190v1100l190 20v-183l61 107q18 12 45 25t61 23.5t73 17.5t80 7q112 0 182 -54.5t91 -139.5l76 117q35 28 99 52.5t147 24.5q76 0 130 -25.5t88.5 -73.5t50.5 -116t16 -152v-750h-190v740q0 54 -7.5 94.5t-26 68t-49.5 41t-77 13.5q-29 0 -60.5 -10t-63.5 -26.5
t-62.5 -38t-57.5 -43.5q3 -29 3.5 -48.5t0.5 -50.5v-740h-190v740q0 108 -36 162.5t-129 54.5q-30 0 -64 -9t-67.5 -25t-65.5 -36.5t-58 -42.5v-844z" />
    <glyph glyph-name="n" unicode="n" 
d="M390 0h-190v1100l190 20v-183l61 107q18 12 46 25t62.5 23.5t74.5 17.5t81 7q79 0 133.5 -25.5t88.5 -73.5t48.5 -116t14.5 -152v-750h-190v750q0 54 -7.5 93t-26 64.5t-49.5 37.5t-77 12q-34 0 -69 -10.5t-68.5 -27t-65 -36.5t-57.5 -39v-844z" />
    <glyph glyph-name="o" unicode="o" 
d="M599 -17q-111 0 -202.5 43.5t-157.5 120t-102.5 181t-36.5 225.5t35 224.5t100 179t157.5 118t206.5 42.5q111 0 203 -42.5t158 -118t103 -179t37 -224.5t-35.5 -225.5t-100.5 -181t-158 -120t-207 -43.5zM910 526q0 81 -17.5 159t-55.5 139.5t-98 99.5t-144 38
q-80 0 -138 -33t-95 -88t-54.5 -125t-17.5 -144q0 -81 17.5 -159t55 -139t97 -98.5t143.5 -37.5q79 0 137 33t96 87.5t56 124.5t18 143z" />
    <glyph glyph-name="p" unicode="p" 
d="M390 160h164q92 0 159.5 30.5t111 85.5t64.5 132t21 170q0 98 -19 169.5t-52 118t-76.5 69t-92.5 22.5t-91.5 -12.5t-78 -31.5t-63.5 -42t-47 -44v-667zM200 -500v1600l190 20v-176l95 127q29 17 82.5 31.5t131.5 14.5q83 0 156 -39t127.5 -111t86 -174t31.5 -228
q0 -123 -40 -226.5t-113.5 -179t-178 -117.5t-233.5 -42h-145v-500h-190z" />
    <glyph glyph-name="q" unicode="q" 
d="M810 935q-19 4 -44.5 8t-54 7t-58.5 5t-57 2q-92 0 -150 -39t-92 -101t-46.5 -139.5t-12.5 -153.5q0 -100 19 -172t50.5 -118.5t73 -68.5t87.5 -22q39 0 77 10.5t74 28t69.5 40.5t64.5 48v665zM810 136l-105 -107q-51 -24 -101 -35t-98 -11q-83 0 -156.5 37.5t-129 107
t-88 170t-32.5 226.5q0 138 37 248t103 186.5t158 117.5t202 41q63 0 126 -5.5t117 -13t95.5 -17t61.5 -16.5v-1565h-190v636z" />
    <glyph glyph-name="r" unicode="r" horiz-adv-x="800" 
d="M671 948q-40 0 -79 -16t-75 -43t-68 -63t-59 -76v-750h-190v1100l190 20v-225l100 175q13 8 32.5 16.5t44.5 15t53.5 11t58.5 4.5q45 0 75.5 -8t45.5 -15l-10 -166q-15 5 -45 12.5t-74 7.5z" />
    <glyph glyph-name="s" unicode="s" horiz-adv-x="900" 
d="M661 919q-18 9 -43 18t-52 16t-54.5 11t-52.5 4q-106 0 -150 -31.5t-44 -94.5q0 -42 29 -69.5t75 -49.5t102.5 -41.5t110.5 -46.5q39 -19 79 -45t72 -61t52 -79t20 -99q0 -101 -34 -171t-92.5 -113.5t-137 -63.5t-167.5 -20q-34 0 -77 6.5t-86 18t-82 27.5t-65 34l66 132
q24 -12 57 -22.5t68 -18.5t69.5 -12.5t61.5 -4.5q46 0 88.5 9.5t75 30.5t52 54.5t19.5 82.5q0 37 -15.5 65t-42 49.5t-61.5 39.5t-74 34.5t-80 34t-78 38.5q-35 20 -67.5 44t-57.5 54t-40 67.5t-15 85.5q0 76 27 130.5t76 88.5t118 50t152 16q38 0 75 -6t71 -15.5t62 -22.5
t48 -26z" />
    <glyph glyph-name="t" unicode="t" horiz-adv-x="800" 
d="M390 376q0 -66 7.5 -110.5t22 -72t36 -39t49.5 -11.5q22 0 40 2.5t31 6.5q15 4 27 9l69 -121q-8 -8 -25.5 -17.5t-41.5 -18.5t-54.5 -15t-65.5 -6q-90 0 -146 33t-87 90t-41.5 132.5t-10.5 161.5v540h-150v160h150v209l185 111v-320h340l-20 -160h-315v-564z" />
    <glyph glyph-name="u" unicode="u" 
d="M810 1100l190 20v-1120h-190v163l-61 -107q-18 -12 -42.5 -25t-55.5 -23.5t-68 -17.5t-78 -7q-80 0 -137.5 29t-94.5 81t-55 123.5t-18 155.5v728l190 20v-748q0 -108 43.5 -168.5t136.5 -60.5q34 0 67 11t64 28t58.5 37t50.5 39v842z" />
    <glyph glyph-name="v" unicode="v" horiz-adv-x="1100" 
d="M1005 1120l-371 -1140l-206 20l-357 1100l183 20l239 -739l53 -232l50 232l234 719z" />
    <glyph glyph-name="w" unicode="w" horiz-adv-x="1500" 
d="M997 480l42 -280l40 280l171 620l162 17l-309 -1117h-152l-171 620l-38 280l-41 -280l-171 -620h-152l-303 1100l172 20l176 -640l43 -280l40 280l171 620h148z" />
    <glyph glyph-name="x" unicode="x" horiz-adv-x="1100" 
d="M851 0l-268 382l-45 118l-45 -118l-268 -382h-199l412 588l-358 512l211 17l235 -336l39 -111l38 111l225 319l211 17l-374 -534l411 -583h-225z" />
    <glyph glyph-name="y" unicode="y" horiz-adv-x="1100" 
d="M602 364l269 736l180 17l-414 -1134q-31 -84 -67.5 -167t-82.5 -148.5t-101.5 -106.5t-123.5 -41q-51 0 -100 20.5t-90 56.5l73 107q17 -12 39 -22t46 -10q33 0 64 25.5t59.5 65.5t53 90t44.5 100l-417 1147l190 17l274 -753l52 -232z" />
    <glyph glyph-name="z" unicode="z" horiz-adv-x="1000" 
d="M880 160l20 -160h-819l-20 50l463 776l152 154l-205 -40h-323l-20 160h704l20 -49l-449 -771l-151 -160l205 40h423z" />
    <glyph glyph-name="braceleft" unicode="{" horiz-adv-x="1298" 
d="M228 625h122q49 7 78.5 27t45.5 52t21 76.5t5 99.5v239q0 85 15.5 158t53.5 127t101.5 84.5t159.5 30.5q46 0 78.5 -3.5t58 -10t46 -15t41.5 -18.5l-63 -123q-19 11 -51.5 19t-57.5 8h-16q-8 0 -16 -2q-49 -7 -78.5 -27t-45.5 -52t-21 -76.5t-5 -99.5v-239
q0 -104 -24 -190t-83 -140q30 -27 50 -62.5t33 -78t18.5 -90.5t5.5 -99v-240q0 -55 5 -99.5t21 -76.5t45.5 -52t78.5 -27q8 -2 16 -2h16q25 0 57.5 8t51.5 19l63 -123q-21 -10 -41.5 -18.5t-46 -15t-58 -10t-78.5 -3.5q-96 0 -159.5 30.5t-101.5 84.5t-53.5 127t-15.5 158
v240q0 55 -5 99.5t-21 76.5t-45.5 52t-78.5 27h-122v150z" />
    <glyph glyph-name="bar" unicode="|" horiz-adv-x="400" 
d="M300 1520v-1920h-200v1900z" />
    <glyph glyph-name="braceright" unicode="}" 
d="M1074 625v-150h-122q-49 -7 -78.5 -27t-45.5 -52t-21 -76.5t-5 -99.5v-240q0 -85 -15.5 -158t-53.5 -127t-101.5 -84.5t-159.5 -30.5q-46 0 -78.5 3.5t-58 10t-46 15t-41.5 18.5l63 123q19 -11 51.5 -19t57.5 -8h16q8 0 16 2q49 7 78.5 27t45.5 52t21 76.5t5 99.5v240
q0 51 5.5 99t18.5 90.5t33 78t50 62.5q-59 54 -83 140t-24 190v239q0 55 -5 99.5t-21 76.5t-45.5 52t-78.5 27q-8 2 -16 2h-16q-25 0 -57.5 -8t-51.5 -19l-63 123q21 10 41.5 18.5t46 15t58 10t78.5 3.5q96 0 159.5 -30.5t101.5 -84.5t53.5 -127t15.5 -158v-239
q0 -55 5 -99.5t21 -76.5t45.5 -52t78.5 -27h122z" />
    <glyph glyph-name="asciitilde" unicode="~" horiz-adv-x="1500" 
d="M193 484q11 56 42.5 113.5t76.5 103.5t101 75t118 29q45 0 86.5 -14t80.5 -35t75.5 -45.5t72 -45.5t70.5 -35t71 -14t65 16.5t50 42t35.5 56.5t22.5 61l146 -16q-10 -62 -39.5 -125t-74.5 -114t-104 -83t-126 -32q-36 0 -74 14t-76 35t-77 45.5t-77.5 45.5t-76.5 35
t-74 14q-31 0 -57.5 -12.5t-47.5 -33t-36 -46t-24 -51.5z" />
    <glyph glyph-name="nonbreakingspace" unicode="&#xa0;" horiz-adv-x="700" 
 />
    <glyph glyph-name="exclamdown" unicode="&#xa1;" horiz-adv-x="700" 
d="M195 -399v1071l210 -21v-1050h-210zM169 981q0 27 10.5 51.5t28.5 42.5t42 29t52 11q27 0 50.5 -11t41 -29t28 -42.5t10.5 -51.5t-10.5 -51t-28.5 -42t-42 -28.5t-51 -10.5t-50.5 10.5t-41.5 28.5t-28.5 42t-10.5 51z" />
    <glyph glyph-name="cent" unicode="&#xa2;" horiz-adv-x="1000" 
d="M673 1320v-207q52 -7 97 -25q73 -28 136 -97l-99 -113q-39 35 -93 57q-27 11 -54 16v-798q48 4 85 17q54 18 83 38l72 -141q-56 -38 -131 -61q-44 -14 -96 -19v-187h-146v188q-80 10 -145 44q-94 50 -156.5 132.5t-94 190t-31.5 222.5q0 104 30.5 201.5t93 172.5
t157.5 120q65 31 146 41v188zM461 925q-59 -31 -95.5 -85t-53.5 -125.5t-17 -150.5q0 -82 15.5 -156.5t52.5 -131.5t98 -91q34 -18 78 -27v794q-43 -8 -78 -27z" />
    <glyph glyph-name="sterling" unicode="&#xa3;" horiz-adv-x="1100" 
d="M250 850h161l45 315q11 76 33 141.5t59.5 112.5t92.5 74t131 27q100 0 172.5 -33t100.5 -59l-90 -101q-69 45 -136 45q-49 0 -81.5 -15.5t-53 -45.5t-32 -73t-18.5 -97l-41 -291h207l-20 -150h-208q-55 -437 -84 -476l-88 -120l162 43h438v-147h-946l20 147h138
q35 0 74 50t104 503h-140v150z" />
    <glyph glyph-name="currency" unicode="&#xa4;" 
d="M1062 222l-101 -101l-156 157q-46 -31 -97.5 -46.5t-105.5 -15.5t-105.5 15.5t-97.5 46.5l-156 -157l-101 101l157 156q-31 46 -46.5 97.5t-15.5 105.5t15.5 105.5t46.5 97.5l-157 156l101 102l156 -157q46 30 97.5 45.5t105.5 15.5t105.5 -15.5t97.5 -45.5l156 157
l101 -102l-156 -156q61 -95 61 -203q0 -54 -15.5 -105.5t-45.5 -97.5zM380 581q0 -45 18 -85.5t48 -70.5t70.5 -48t85.5 -18t85.5 18t70.5 48t47.5 70.5t17.5 85.5t-17.5 85.5t-47.5 70.5t-70.5 47.5t-85.5 17.5t-85.5 -17.5t-70.5 -47.5t-48 -70.5t-18 -85.5z" />
    <glyph glyph-name="yen" unicode="&#xa5;" 
d="M100 550h395v95l-28 55h-367v150h290l-331 650l204 20l288 -566l79 -249l30 230l288 565h192l-331 -650h291v-150h-368l-27 -54v-96h395v-150h-395v-400h-210v400h-395v150z" />
    <glyph glyph-name="brokenbar" unicode="&#xa6;" horiz-adv-x="400" 
d="M300 1520v-820h-200v800zM300 362v-762h-200v762h200z" />
    <glyph glyph-name="section" unicode="&#xa7;" horiz-adv-x="1000" 
d="M772 1351q-48 26 -100 34t-109 8q-49 0 -93 -11t-77.5 -35t-53 -61t-19.5 -89q0 -50 23.5 -89t62.5 -72.5t88 -64t101 -63t101 -70t88 -84t62.5 -105t23.5 -134.5q0 -93 -36 -156t-98 -102q-40 -25 -90 -41l32 -24q49 -37 87 -79.5t61.5 -92t23.5 -108.5
q0 -77 -27 -138.5t-78 -104.5t-125 -66t-169 -23q-83 0 -151.5 15.5t-135.5 56.5l60 97q48 -26 100 -34t109 -8q49 0 93 11t77.5 35t53 61t19.5 89q0 50 -23.5 89t-62.5 72.5t-88 64t-101 63t-101 70t-88 84t-62.5 105t-23.5 134.5q0 93 36 156t97 101q41 26 90 41
q-16 12 -31 24q-49 38 -87 80.5t-61.5 92t-23.5 108.5q0 77 27 138.5t78 104.5t125 66t169 23q82 0 151 -15.5t136 -56.5zM385 767q-37 -30 -58 -75.5t-21 -104.5q0 -51 23.5 -94.5t61.5 -82t87 -74.5q30 -22 62 -45q40 16 71 41q37 31 58 76.5t21 104.5q0 51 -23.5 94.5
t-61.5 82t-87 73.5q-31 23 -63 45q-39 -15 -70 -41z" />
    <glyph glyph-name="dieresis" unicode="&#xa8;" horiz-adv-x="1100" 
d="M300 1500h200v-200h-200v200zM700 1500h200v-200h-200v200z" />
    <glyph glyph-name="copyright" unicode="&#xa9;" horiz-adv-x="1100" 
d="M550 1517q97 0 182.5 -37t149.5 -101t101 -149.5t37 -182.5q0 -98 -37 -183.5t-101 -149t-149.5 -100.5t-182.5 -37t-182.5 37t-149.5 100.5t-101 149t-37 183.5q0 97 37 182.5t101 149.5t149.5 101t182.5 37zM550 663q78 0 147.5 30.5t122 82.5t83.5 122t31 149t-30 149
t-82.5 122.5t-122.5 82.5t-149 30q-80 0 -149.5 -30t-122 -82.5t-82.5 -122.5t-30 -149q0 -78 30.5 -147.5t82.5 -122t122 -83.5t149 -31zM659 1197q-19 16 -46 26t-55 10q-42 0 -71.5 -14.5t-48 -38.5t-27 -56.5t-8.5 -67.5q0 -37 8 -70.5t26.5 -59t49 -41t76.5 -15.5
q39 0 65.5 8.5t41.5 17.5l36 -64q-28 -17 -65.5 -27.5t-84.5 -10.5q-62 0 -109 22.5t-78.5 59.5t-47 85.5t-15.5 100.5q0 46 15 90t46.5 78t79 54.5t112.5 20.5q46 0 82 -13t68 -44z" />
    <glyph glyph-name="ordfeminine" unicode="&#xaa;" horiz-adv-x="800" 
d="M100 800h400v-100h-400v100zM505 959h-105v81l-47 -56q-9 -7 -20 -13t-22 -10.5t-22.5 -7.5t-20.5 -3q-38 0 -72 12t-60 34.5t-41 56.5t-15 78q0 46 18.5 80.5t48 57t65.5 34t70 11.5q29 0 50.5 -3t36.5 -7q18 -5 31 -10v17q0 30 -3.5 53.5t-14.5 39.5t-31 24.5t-54 8.5
q-27 0 -52 -3.5t-44 -8.5q-23 -5 -43 -11l-36 67q22 10 50 18q24 7 57 12.5t73 5.5q58 0 95.5 -15.5t59 -43.5t30 -67t8.5 -87v-255zM400 1225q-14 2 -30 4q-14 2 -31.5 3.5t-36.5 1.5q-28 0 -51 -5.5t-40 -18t-26.5 -32t-9.5 -47.5q0 -22 7.5 -40.5t20.5 -32t30.5 -21
t38.5 -7.5q9 0 20 3t21.5 7.5t21.5 10.5t20 12q23 14 45 33v129z" />
    <glyph glyph-name="guillemotleft" unicode="&#xab;" horiz-adv-x="1400" 
d="M670 1026l50 -125l-325 -291l-138 -60l137 -60l328 -289l-54 -135l-468 412v139zM1170 1026l50 -125l-325 -291l-138 -60l137 -60l328 -289l-54 -135l-468 412v139z" />
    <glyph glyph-name="logicalnot" unicode="&#xac;" horiz-adv-x="1700" 
d="M1417 800l-17 -211v-309h-200v169l16 191h-1004v160h1205z" />
    <glyph glyph-name="sfthyphen" unicode="&#xad;" horiz-adv-x="0" 
 />
    <glyph glyph-name="registered" unicode="&#xae;" horiz-adv-x="1100" 
d="M550 1517q97 0 182.5 -37t149.5 -101t101 -149.5t37 -182.5q0 -98 -37 -183.5t-101 -149t-149.5 -100.5t-182.5 -37t-182.5 37t-149.5 100.5t-101 149t-37 183.5q0 97 37 182.5t101 149.5t149.5 101t182.5 37zM550 663q78 0 147.5 30.5t122 82.5t83.5 122t31 149t-30 149
t-82.5 122.5t-122.5 82.5t-149 30q-80 0 -149.5 -30t-122 -82.5t-82.5 -122.5t-30 -149q0 -78 30.5 -147.5t82.5 -122t122 -83.5t149 -31zM474 1017v-217h-74v422l-12 70q11 2 27.5 3.5t34.5 2.5t36 1.5t33 0.5q90 0 135.5 -30t45.5 -102q0 -37 -8.5 -62t-26 -41
t-43.5 -25.5t-60 -15.5l50 -15l157 -209h-79l-157 210q-3 5 -8 6t-8 1h-43zM474 1171v-101h53q63 0 85 23.5t22 68.5q0 30 -8.5 48t-23 27.5t-33.5 12t-41 2.5q-15 0 -32 -1t-29 -3z" />
    <glyph glyph-name="macron" unicode="&#xaf;" horiz-adv-x="1100" 
d="M200 1500h700v-150h-700v150z" />
    <glyph glyph-name="degree" unicode="&#xb0;" horiz-adv-x="600" 
d="M300 1517q56 0 105 -21t85.5 -58t57.5 -86t21 -105t-21 -105t-57.5 -85.5t-85.5 -58t-105 -21.5t-105 21.5t-85.5 58t-57.5 85.5t-21 105t21 105t57.5 86t85.5 58t105 21zM300 1088q33 0 62 12.5t50.5 34t34 50.5t12.5 62t-12.5 62t-34 50.5t-50.5 34t-62 12.5t-62 -12.5
t-50.5 -34t-34 -50.5t-12.5 -62t12.5 -62t34 -50.5t50.5 -34t62 -12.5z" />
    <glyph glyph-name="plusminus" unicode="&#xb1;" 
d="M100 862h373v337h155v-337h372v-124h-372v-338h-155v338h-373v124zM100 290h900v-140h-900v140z" />
    <glyph glyph-name="twosuperior" unicode="&#xb2;" horiz-adv-x="600" 
d="M76 720v84q24 38 51.5 74.5t56 71t56 65t50.5 56.5q25 28 48 52.5t40.5 49t28 50t10.5 54.5q0 24 -9 45.5t-25 37t-38.5 25t-49.5 9.5q-31 0 -53 -8.5t-39 -22t-29 -30t-23 -33.5l-70 30q13 32 33 59.5t47.5 47t62.5 30.5t78 11q51 0 90.5 -18t66.5 -47t41.5 -66
t14.5 -75q0 -39 -14.5 -73.5t-35.5 -66t-45.5 -59t-45.5 -51.5q-26 -30 -52 -59.5t-49.5 -58t-44 -54.5t-35.5 -50h335v-80h-452z" />
    <glyph glyph-name="threesuperior" unicode="&#xb3;" horiz-adv-x="600" 
d="M107 1390l8 80h365v-70q-6 -20 -20.5 -42t-33.5 -44t-42 -43.5t-46 -41.5l-66 -37q5 1 13 1.5t15 0.5q48 0 90 -12t72.5 -36.5t48.5 -61.5t18 -88q0 -48 -18 -87.5t-49.5 -70.5t-73.5 -53t-89.5 -36.5t-98.5 -21.5t-100 -7v80q41 1 81 7t76 17t66.5 26.5t53 36t35 46.5
t12.5 58q0 36 -15.5 60t-42 38t-62 20t-76.5 6q-16 0 -35 -1t-34 -2v78q21 15 45 34t48.5 39.5t47.5 42t42 40.5t32 35.5t17 28.5l-76 -20h-208z" />
    <glyph glyph-name="acute" unicode="&#xb4;" horiz-adv-x="1100" 
d="M600 1500l230 20l-240 -320h-150z" />
    <glyph glyph-name="mu" unicode="&#xb5;" horiz-adv-x="1300" 
d="M1242 36q-9 -9 -28 -18t-43 -17t-51 -13t-52 -5q-92 0 -156 43t-87 129l-25 -69q-42 -46 -113.5 -74.5t-168.5 -28.5q-19 0 -44 1.5t-51 6t-49.5 13t-38.5 21.5l45 -191v-334h-180v1600l180 18v-770q0 -41 11 -79.5t34.5 -68.5t59 -48.5t84.5 -18.5q32 0 63 9.5t60 24.5
t56 34.5t52 39.5v859l178 18v-766q0 -60 7.5 -102t21 -68t33.5 -37.5t46 -11.5q24 0 47 4.5t44 12.5z" />
    <glyph glyph-name="paragraph" unicode="&#xb6;" horiz-adv-x="1400" 
d="M730 647q-74 4 -127 19t-96 36q-72 35 -115 81.5t-66.5 100t-31 112t-7.5 116.5q0 105 42 177t107.5 117.5t143.5 67.5t150 26h472v-1900h-169v1748h-134v-1748h-169v1047z" />
    <glyph glyph-name="periodcentered" unicode="&#xb7;" horiz-adv-x="500" 
d="M86 650q0 34 13 64t35.5 52.5t52 35.5t63.5 13t64 -13t52.5 -35.5t35.5 -52.5t13 -64t-13 -64.5t-35 -53t-51.5 -36t-63.5 -13.5t-64.5 13.5t-53 36t-35.5 53t-13 64.5z" />
    <glyph glyph-name="cedilla" unicode="&#xb8;" horiz-adv-x="1100" 
d="M524 0q23 -27 41 -59q16 -27 29 -63t13 -76q0 -44 -18.5 -82t-49.5 -66.5t-71.5 -44.5t-84.5 -16q-50 0 -96.5 13.5t-83.5 30.5q-43 19 -81 45l71 100q26 -18 54 -31q24 -11 53.5 -20.5t58.5 -9.5q37 0 66 24t29 66q0 33 -16.5 66.5t-36.5 60.5q-24 32 -53 62h176z" />
    <glyph glyph-name="onesuperior" unicode="&#xb9;" horiz-adv-x="600" 
d="M177 720v80h122v483l29 113l-68 -93l-106 -94l-54 61l229 210l75 -10v-670h123v-80h-350z" />
    <glyph glyph-name="ordmasculine" unicode="&#xba;" horiz-adv-x="800" 
d="M100 800h400v-100h-400v100zM299 950q-55 0 -101 22t-79 60t-51 90.5t-18 112.5q0 61 17.5 112.5t50 89.5t78.5 59t103 21q56 0 102 -21t79 -59t51.5 -89.5t18.5 -112.5q0 -60 -18 -112.5t-50.5 -90.5t-79 -60t-103.5 -22zM455 1222q0 40 -9 79t-28 70t-49 50t-72 19
q-40 0 -69 -16.5t-47.5 -44t-27 -62.5t-8.5 -72q0 -41 8.5 -80t27.5 -69.5t48.5 -49t71.5 -18.5q40 0 69 16.5t48 43.5t28 62t9 72z" />
    <glyph glyph-name="guillemotright" unicode="&#xbb;" horiz-adv-x="1400" 
d="M700 617v-139l-468 -412l-54 135l328 289l137 60l-138 60l-325 291l50 125zM1200 617v-139l-468 -412l-54 135l328 289l137 60l-138 60l-325 291l50 125z" />
    <glyph glyph-name="onequarter" unicode="&#xbc;" horiz-adv-x="1500" 
d="M454 0h-135l775 1500h126zM175 720v80h122v483l29 113l-68 -93l-106 -94l-54 61l229 210l75 -10v-670h123v-80h-350zM1395 150h-90v-150h-105v150h-297v85l242 525l94 -10l-207 -450l-47 -70h215v203l105 -8v-195h98z" />
    <glyph glyph-name="onehalf" unicode="&#xbd;" horiz-adv-x="1500" 
d="M454 0h-135l775 1500h126zM175 720v80h122v483l29 113l-68 -93l-106 -94l-54 61l229 210l75 -10v-670h123v-80h-350zM949 0v84q24 38 51.5 74.5t56 71t56 65t50.5 56.5q25 28 48 52.5t40.5 49t28 50t10.5 54.5q0 24 -9 45.5t-25 37t-38.5 25t-49.5 9.5q-31 0 -53 -8.5
t-39 -22t-29 -30t-23 -33.5l-70 30q13 32 33 59.5t47.5 47t62.5 30.5t78 11q51 0 90.5 -18t66.5 -47t41.5 -66t14.5 -75q0 -39 -14.5 -73.5t-35.5 -66t-45.5 -59t-45.5 -51.5q-26 -30 -52 -59.5t-49.5 -58t-44 -54.5t-35.5 -50h335v-80h-452z" />
    <glyph glyph-name="threequarters" unicode="&#xbe;" horiz-adv-x="1500" 
d="M454 0h-135l775 1500h126zM1395 150h-90v-150h-105v150h-297v85l242 525l94 -10l-207 -450l-47 -70h215v203l105 -8v-195h98zM107 1390l8 80h365v-70q-6 -20 -20.5 -42t-33.5 -44t-42 -43.5t-46 -41.5l-66 -37q5 1 13 1.5t15 0.5q48 0 90 -12t72.5 -36.5t48.5 -61.5
t18 -88q0 -48 -18 -87.5t-49.5 -70.5t-73.5 -53t-89.5 -36.5t-98.5 -21.5t-100 -7v80q41 1 81 7t76 17t66.5 26.5t53 36t35 46.5t12.5 58q0 36 -15.5 60t-42 38t-62 20t-76.5 6q-16 0 -35 -1t-34 -2v78q21 15 45 34t48.5 39.5t47.5 42t42 40.5t32 35.5t17 28.5l-76 -20h-208
z" />
    <glyph glyph-name="questiondown" unicode="&#xbf;" horiz-adv-x="1100" 
d="M107 -42q0 63 17 113t44.5 91t63 76t73 68.5t73 68.5t63 75.5t44.5 90t17 111.5l210 21q0 -89 -17 -157t-44.5 -120.5t-63 -93t-73 -74.5t-73 -63.5t-63 -61.5t-44.5 -69t-17 -84q0 -53 20 -90.5t54.5 -61.5t81 -35.5t99.5 -11.5q38 0 78.5 11t79 32t74 50.5t63.5 67.5
l133 -110q-50 -66 -107 -108.5t-116.5 -66.5t-118.5 -33t-111 -9q-85 0 -164 22.5t-140.5 68t-98.5 116t-37 166.5zM738 982q0 -27 -10.5 -51t-28.5 -42t-41.5 -28.5t-50.5 -10.5t-51 10.5t-42 28.5t-28.5 42t-10.5 51t10.5 51.5t28 42.5t41 29t50.5 11q28 0 52 -11t42 -29
t28.5 -42.5t10.5 -51.5z" />
    <glyph glyph-name="Agrave" unicode="&#xc0;" horiz-adv-x="1300" 
d="M62 0l423 1300l35 200l217 20l498 -1520h-200l-148 450h-495l-146 -450h-184zM639 1360l-36 -260l-162 -500h397l-163 500zM760 1600h-150l-225 300l204 20z" />
    <glyph glyph-name="Aacute" unicode="&#xc1;" horiz-adv-x="1300" 
d="M62 0l423 1300l35 200l217 20l498 -1520h-200l-148 450h-495l-146 -450h-184zM639 1360l-36 -260l-162 -500h397l-163 500zM700 1900l230 20l-240 -320h-150z" />
    <glyph glyph-name="Acircumflex" unicode="&#xc2;" horiz-adv-x="1300" 
d="M62 0l423 1300l35 200l217 20l498 -1520h-200l-148 450h-495l-146 -450h-184zM639 1360l-36 -260l-162 -500h397l-163 500zM930 1620h-150l-100 152l-30 88l-30 -87l-101 -153h-150l176 280l200 20z" />
    <glyph glyph-name="Atilde" unicode="&#xc3;" horiz-adv-x="1300" 
d="M62 0l423 1300l35 200l217 20l498 -1520h-200l-148 450h-495l-146 -450h-184zM639 1360l-36 -260l-162 -500h397l-163 500zM322 1655q4 40 19.5 78t40 67t55.5 46.5t67 17.5q39 0 73 -14t65 -31t61 -31t61 -14q21 0 37 10.5t27 26t18 34.5t10 37l96 -4q-3 -44 -19.5 -85
t-42 -72.5t-60 -50.5t-73.5 -19q-32 0 -63 14t-63 30.5t-65 30.5t-68 14q-18 0 -32.5 -8t-26 -21t-19.5 -28.5t-12 -30.5z" />
    <glyph glyph-name="Adieresis" unicode="&#xc4;" horiz-adv-x="1300" 
d="M62 0l423 1300l35 200l217 20l498 -1520h-200l-148 450h-495l-146 -450h-184zM639 1360l-36 -260l-162 -500h397l-163 500zM350 1800h200v-200h-200v200zM750 1800h200v-200h-200v200z" />
    <glyph glyph-name="Aring" unicode="&#xc5;" horiz-adv-x="1300" 
d="M642 1879q49 0 92 -18.5t75.5 -51t51 -75.5t18.5 -92q0 -66 -31.5 -120.5t-83.5 -86.5l471 -1435h-200l-148 450h-495l-146 -450h-184l423 1300l25 143q-48 33 -77 85t-29 114q0 49 19 92t51 75.5t75.5 51t92.5 18.5zM639 1360l-36 -260l-162 -500h397l-163 500z
M643 1518q25 0 47 10t38 26.5t25.5 39t9.5 47.5t-9.5 47t-26 38.5t-38.5 26t-47 9.5t-47 -9.5t-38.5 -26t-26 -38.5t-9.5 -47t9.5 -47.5t26 -39t39 -26.5t47.5 -10z" />
    <glyph glyph-name="AE" unicode="&#xc6;" horiz-adv-x="1700" 
d="M1645 160l-20 -160h-850l16 200v250h-354l-180 -450h-207l525 1300l44 200h991v-160h-632l22 -191v-264h539v-145h-539v-400l-10 -180h655zM791 599v507l-21 234l-73 -241l-199 -500h293z" />
    <glyph glyph-name="Ccedilla" unicode="&#xc7;" horiz-adv-x="1300" 
d="M1116 104q-82 -66 -181 -94q-48 -12 -99 -19q7 -9 19.5 -27.5t25 -43t21.5 -55t9 -63.5q0 -44 -18.5 -82t-49.5 -66.5t-71.5 -44.5t-84.5 -16q-50 0 -96.5 13.5t-83.5 30.5q-43 19 -81 45l71 100q26 -18 54 -31q24 -11 53.5 -20.5t58.5 -9.5q37 0 66 24t29 66
q0 26 -10.5 52.5t-25 49.5t-30.5 42t-26 30q-113 10 -207 60q-115 63 -195 170t-122.5 250t-42.5 305q0 151 38.5 286.5t117.5 238t200 162.5t286 60q115 0 217.5 -36.5t174.5 -105.5l-90 -107q-48 32 -120.5 56t-165.5 24q-122 0 -207 -46t-139 -124.5t-78.5 -183
t-24.5 -221.5q0 -69 11 -141.5t33.5 -141.5t58 -130t84 -107t110.5 -73t139 -27q45 0 82 4t71.5 13t68.5 23.5t73 36.5z" />
    <glyph glyph-name="Egrave" unicode="&#xc8;" 
d="M1045 160l-20 -160h-850l15 200v1090l-30 210h850v-160h-630l20 -190v-265h540v-145h-540v-400l-10 -180h655zM760 1600h-150l-225 300l204 20z" />
    <glyph glyph-name="Eacute" unicode="&#xc9;" 
d="M1045 160l-20 -160h-850l15 200v1090l-30 210h850v-160h-630l20 -190v-265h540v-145h-540v-400l-10 -180h655zM650 1900l230 20l-240 -320h-150z" />
    <glyph glyph-name="Ecircumflex" unicode="&#xca;" 
d="M1045 160l-20 -160h-850l15 200v1090l-30 210h850v-160h-630l20 -190v-265h540v-145h-540v-400l-10 -180h655zM930 1620h-150l-100 152l-30 88l-30 -87l-101 -153h-150l176 280l200 20z" />
    <glyph glyph-name="Edieresis" unicode="&#xcb;" 
d="M1045 160l-20 -160h-850l15 200v1090l-30 210h850v-160h-630l20 -190v-265h540v-145h-540v-400l-10 -180h655zM350 1800h200v-200h-200v200zM750 1800h200v-200h-200v200z" />
    <glyph glyph-name="Igrave" unicode="&#xcc;" horiz-adv-x="600" 
d="M190 0v1290l-30 210l240 20v-1520h-210zM401 1600h-150l-225 300l204 20z" />
    <glyph glyph-name="Iacute" unicode="&#xcd;" horiz-adv-x="600" 
d="M190 0v1290l-30 210l240 20v-1520h-210zM319 1900l230 20l-240 -320h-150z" />
    <glyph glyph-name="Icircumflex" unicode="&#xce;" horiz-adv-x="600" 
d="M190 0v1290l-30 210l240 20v-1520h-210zM582 1620h-150l-100 152l-30 88l-30 -87l-101 -153h-150l176 280l200 20z" />
    <glyph glyph-name="Idieresis" unicode="&#xcf;" horiz-adv-x="600" 
d="M190 0v1290l-30 210l240 20v-1520h-210zM0 1900h200v-200h-200v200zM400 1900h200v-200h-200v200z" />
    <glyph glyph-name="Eth" unicode="&#xd0;" horiz-adv-x="1300" 
d="M0 855h200v435l-30 210q31 3 74 5t88.5 3.5t90 2t77.5 0.5q159 0 294.5 -39t234.5 -124t155 -218t56 -320q0 -146 -28 -262.5t-77.5 -206.5t-119 -154.5t-153 -106t-177.5 -61t-194 -19.5h-291v700h-200v155zM410 1150v-295h190v-155h-190v-540h20q145 0 246 30
t167.5 79.5t104 114t56 133.5t22.5 137t4 126q0 127 -22 233.5t-81 183t-164.5 119t-271.5 42.5q-16 0 -34 -1t-34 -3q-18 -2 -38 -4z" />
    <glyph glyph-name="Ntilde" unicode="&#xd1;" horiz-adv-x="1500" 
d="M1100 0l-615 1028l-117 289l-6 -1l38 -316v-1000h-200v1290l-30 210l236 20l616 -1033l120 -314l6 1l-48 336v990l195 20v-1520h-195zM387 1655q4 40 19.5 78t40 67t55.5 46.5t67 17.5q39 0 73 -14t65 -31t61 -31t61 -14q21 0 37 10.5t27 26t18 34.5t10 37l96 -4
q-3 -44 -19.5 -85t-42 -72.5t-60 -50.5t-73.5 -19q-32 0 -63 14t-63 30.5t-65 30.5t-68 14q-18 0 -32.5 -8t-26 -21t-19.5 -28.5t-12 -30.5z" />
    <glyph glyph-name="Ograve" unicode="&#xd2;" horiz-adv-x="1600" 
d="M800 -17q-158 0 -283 58t-212.5 160.5t-134 243t-46.5 305.5t45 305.5t131.5 243t212.5 160.5t287 58q157 0 282.5 -58t213 -160.5t134 -243t46.5 -305.5t-45 -305.5t-131.5 -243t-212.5 -160.5t-287 -58zM1268 719q0 80 -11 157.5t-35 147t-62 129t-90.5 102.5
t-121 67.5t-154.5 24.5q-123 0 -210.5 -47.5t-143.5 -126.5t-82 -180t-26 -208q0 -81 11.5 -159t35.5 -148.5t61.5 -130t90 -102.5t121 -67.5t154.5 -24.5q81 0 147 22.5t117.5 61.5t88.5 93t61.5 116.5t36 132t11.5 140.5zM860 1600h-150l-225 300l204 20z" />
    <glyph glyph-name="Oacute" unicode="&#xd3;" horiz-adv-x="1600" 
d="M800 -17q-158 0 -283 58t-212.5 160.5t-134 243t-46.5 305.5t45 305.5t131.5 243t212.5 160.5t287 58q157 0 282.5 -58t213 -160.5t134 -243t46.5 -305.5t-45 -305.5t-131.5 -243t-212.5 -160.5t-287 -58zM1268 719q0 80 -11 157.5t-35 147t-62 129t-90.5 102.5
t-121 67.5t-154.5 24.5q-123 0 -210.5 -47.5t-143.5 -126.5t-82 -180t-26 -208q0 -81 11.5 -159t35.5 -148.5t61.5 -130t90 -102.5t121 -67.5t154.5 -24.5q81 0 147 22.5t117.5 61.5t88.5 93t61.5 116.5t36 132t11.5 140.5zM800 1900l230 20l-240 -320h-150z" />
    <glyph glyph-name="Ocircumflex" unicode="&#xd4;" horiz-adv-x="1600" 
d="M800 -17q-158 0 -283 58t-212.5 160.5t-134 243t-46.5 305.5t45 305.5t131.5 243t212.5 160.5t287 58q157 0 282.5 -58t213 -160.5t134 -243t46.5 -305.5t-45 -305.5t-131.5 -243t-212.5 -160.5t-287 -58zM1268 719q0 80 -11 157.5t-35 147t-62 129t-90.5 102.5
t-121 67.5t-154.5 24.5q-123 0 -210.5 -47.5t-143.5 -126.5t-82 -180t-26 -208q0 -81 11.5 -159t35.5 -148.5t61.5 -130t90 -102.5t121 -67.5t154.5 -24.5q81 0 147 22.5t117.5 61.5t88.5 93t61.5 116.5t36 132t11.5 140.5zM1080 1620h-150l-100 152l-30 88l-30 -87
l-101 -153h-150l176 280l200 20z" />
    <glyph glyph-name="Otilde" unicode="&#xd5;" horiz-adv-x="1600" 
d="M800 -17q-158 0 -283 58t-212.5 160.5t-134 243t-46.5 305.5t45 305.5t131.5 243t212.5 160.5t287 58q157 0 282.5 -58t213 -160.5t134 -243t46.5 -305.5t-45 -305.5t-131.5 -243t-212.5 -160.5t-287 -58zM1268 719q0 80 -11 157.5t-35 147t-62 129t-90.5 102.5
t-121 67.5t-154.5 24.5q-123 0 -210.5 -47.5t-143.5 -126.5t-82 -180t-26 -208q0 -81 11.5 -159t35.5 -148.5t61.5 -130t90 -102.5t121 -67.5t154.5 -24.5q81 0 147 22.5t117.5 61.5t88.5 93t61.5 116.5t36 132t11.5 140.5zM487 1655q4 40 19.5 78t40 67t55.5 46.5t67 17.5
q39 0 73 -14t65 -31t61 -31t61 -14q21 0 37 10.5t27 26t18 34.5t10 37l96 -4q-3 -44 -19.5 -85t-42 -72.5t-60 -50.5t-73.5 -19q-32 0 -63 14t-63 30.5t-65 30.5t-68 14q-18 0 -32.5 -8t-26 -21t-19.5 -28.5t-12 -30.5z" />
    <glyph glyph-name="Odieresis" unicode="&#xd6;" horiz-adv-x="1600" 
d="M800 -17q-158 0 -283 58t-212.5 160.5t-134 243t-46.5 305.5t45 305.5t131.5 243t212.5 160.5t287 58q157 0 282.5 -58t213 -160.5t134 -243t46.5 -305.5t-45 -305.5t-131.5 -243t-212.5 -160.5t-287 -58zM1268 719q0 80 -11 157.5t-35 147t-62 129t-90.5 102.5
t-121 67.5t-154.5 24.5q-123 0 -210.5 -47.5t-143.5 -126.5t-82 -180t-26 -208q0 -81 11.5 -159t35.5 -148.5t61.5 -130t90 -102.5t121 -67.5t154.5 -24.5q81 0 147 22.5t117.5 61.5t88.5 93t61.5 116.5t36 132t11.5 140.5zM500 1800h200v-200h-200v200zM900 1800h200v-200
h-200v200z" />
    <glyph glyph-name="multiply" unicode="&#xd7;" horiz-adv-x="1600" 
d="M950 627l425 -424l-124 -101l-375 375l-58 99l-18 -99l-375 -375l-125 101l426 424l-426 425l125 101l375 -376l58 -98l18 98l375 376l124 -101z" />
    <glyph glyph-name="Oslash" unicode="&#xd8;" horiz-adv-x="1600" 
d="M800 -17q-158 0 -283 58q-35 16 -67 35l-119 -176h-210l196 288q-7 6 -13 13q-87 103 -133.5 243.5t-46.5 305.5t45 305.5t131.5 243t212.5 160.5t287 58q157 0 282 -58q38 -18 73 -40l123 181h200l-195 -288l12 -14q88 -102 134.5 -242.5t46.5 -305.5t-45 -305.5
t-131.5 -243t-212.5 -160.5t-287 -58zM948 1322q-68 25 -154 25q-123 0 -210.5 -47.5t-143.5 -126.5t-82 -180t-26 -208q0 -81 11.5 -159t35.5 -149q21 -64 54 -118l619 909q-46 34 -104 54zM1268 719q0 80 -11 157.5t-35 146.5q-22 63 -55 117l-615 -912q45 -31 99 -51
q69 -24 155 -24q81 0 147 22.5t117.5 61.5t88.5 93t61.5 116.5t36 132t11.5 140.5z" />
    <glyph glyph-name="Ugrave" unicode="&#xd9;" horiz-adv-x="1400" 
d="M1220 1500v-977q0 -136 -41 -237.5t-112.5 -168.5t-169.5 -100.5t-212 -33.5q-122 0 -216 42.5t-158 120t-97.5 186.5t-33.5 241v717l-30 210l235 20v-966q0 -95 25 -169.5t67.5 -126t98.5 -78.5t119 -27q73 0 132.5 22t101 66t64 109.5t22.5 153.5v996h205zM760 1600
h-150l-225 300l204 20z" />
    <glyph glyph-name="Uacute" unicode="&#xda;" horiz-adv-x="1400" 
d="M1220 1500v-977q0 -136 -41 -237.5t-112.5 -168.5t-169.5 -100.5t-212 -33.5q-122 0 -216 42.5t-158 120t-97.5 186.5t-33.5 241v717l-30 210l235 20v-966q0 -95 25 -169.5t67.5 -126t98.5 -78.5t119 -27q73 0 132.5 22t101 66t64 109.5t22.5 153.5v996h205zM700 1900
l230 20l-240 -320h-150z" />
    <glyph glyph-name="Ucircumflex" unicode="&#xdb;" horiz-adv-x="1400" 
d="M1220 1500v-977q0 -136 -41 -237.5t-112.5 -168.5t-169.5 -100.5t-212 -33.5q-122 0 -216 42.5t-158 120t-97.5 186.5t-33.5 241v717l-30 210l235 20v-966q0 -95 25 -169.5t67.5 -126t98.5 -78.5t119 -27q73 0 132.5 22t101 66t64 109.5t22.5 153.5v996h205zM930 1620
h-150l-100 152l-30 88l-30 -87l-101 -153h-150l176 280l200 20z" />
    <glyph glyph-name="Udieresis" unicode="&#xdc;" horiz-adv-x="1400" 
d="M1220 1500v-977q0 -136 -41 -237.5t-112.5 -168.5t-169.5 -100.5t-212 -33.5q-122 0 -216 42.5t-158 120t-97.5 186.5t-33.5 241v717l-30 210l235 20v-966q0 -95 25 -169.5t67.5 -126t98.5 -78.5t119 -27q73 0 132.5 22t101 66t64 109.5t22.5 153.5v996h205zM400 1800
h200v-200h-200v200zM800 1800h200v-200h-200v200z" />
    <glyph glyph-name="Yacute" unicode="&#xdd;" 
d="M660 935l288 565h192l-435 -854v-646h-210v645l-436 855l204 20l288 -566l79 -249zM600 1900l230 20l-240 -320h-150z" />
    <glyph glyph-name="Thorn" unicode="&#xde;" horiz-adv-x="1300" 
d="M180 1500h220v-199h200q46 0 97 -9t101 -28.5t95.5 -51t80.5 -77.5t55.5 -107t20.5 -139q0 -58 -7.5 -120t-31 -119.5t-66.5 -107.5t-115 -85q-50 -24 -113.5 -40t-156.5 -16h-160v-401h-200v1299zM400 1151v-594h189q73 0 126 25.5t87.5 70t51 105t16.5 131.5
q0 62 -21 111t-60.5 82.5t-95 51t-124.5 17.5h-169z" />
    <glyph glyph-name="germandbls" unicode="&#xdf;" horiz-adv-x="1300" 
d="M850 1148q0 46 -18 86t-48.5 70t-70.5 47.5t-83 17.5q-125 0 -190 -65q-27 -27 -33.5 -63t-6.5 -81v-1177l-208 17v1111q0 194 116 301q114 105 325 105q202 0 308 -112q22 -23 40.5 -47.5t31.5 -52.5t20.5 -61t7.5 -75q0 -109 -52.5 -188t-138.5 -121l-154 -44l147 -14
q61 -18 115.5 -46.5t95.5 -69.5t64.5 -97t23.5 -129q0 -85 -23 -152t-62 -118t-92 -87.5t-113.5 -59t-125 -33t-126.5 -10.5l-60 160q99 0 174 14.5t126 48t76.5 89t25.5 138.5q0 75 -26 128t-73.5 87t-114.5 49.5t-148 15.5l-70 155q65 0 126 14.5t108.5 46t76.5 81.5
t29 121z" />
    <glyph glyph-name="agrave" unicode="&#xe0;" horiz-adv-x="1100" 
d="M920 0h-210v162l-94 -112q-17 -13 -39 -25t-44.5 -21.5t-45 -15t-41.5 -5.5q-75 0 -143.5 23.5t-120 69t-82 113t-30.5 155.5q0 93 37.5 161.5t96 114t130.5 68t141 22.5q57 0 100.5 -6t73.5 -14q35 -9 61 -20v35q0 59 -7 106t-28.5 79.5t-62 49.5t-107.5 17
q-54 0 -104 -7.5t-89 -16.5q-46 -11 -85 -23l-72 134q44 20 100 36q48 14 114 25.5t146 11.5q115 0 190 -31t118 -87t60 -134.5t17 -174.5v-510zM710 533q-28 4 -60 8q-27 3 -62 6t-73 3q-56 0 -102.5 -11t-80.5 -35.5t-53 -63.5t-19 -95q0 -45 15 -82t41 -64t61.5 -41.5
t76.5 -14.5q19 0 40.5 5.5t43 14.5t43 21t40.5 24q45 29 89 66v259zM660 1200h-150l-225 300l204 20z" />
    <glyph glyph-name="aacute" unicode="&#xe1;" horiz-adv-x="1100" 
d="M920 0h-210v162l-94 -112q-17 -13 -39 -25t-44.5 -21.5t-45 -15t-41.5 -5.5q-75 0 -143.5 23.5t-120 69t-82 113t-30.5 155.5q0 93 37.5 161.5t96 114t130.5 68t141 22.5q57 0 100.5 -6t73.5 -14q35 -9 61 -20v35q0 59 -7 106t-28.5 79.5t-62 49.5t-107.5 17
q-54 0 -104 -7.5t-89 -16.5q-46 -11 -85 -23l-72 134q44 20 100 36q48 14 114 25.5t146 11.5q115 0 190 -31t118 -87t60 -134.5t17 -174.5v-510zM710 533q-28 4 -60 8q-27 3 -62 6t-73 3q-56 0 -102.5 -11t-80.5 -35.5t-53 -63.5t-19 -95q0 -45 15 -82t41 -64t61.5 -41.5
t76.5 -14.5q19 0 40.5 5.5t43 14.5t43 21t40.5 24q45 29 89 66v259zM550 1500l230 20l-240 -320h-150z" />
    <glyph glyph-name="acircumflex" unicode="&#xe2;" horiz-adv-x="1100" 
d="M920 0h-210v162l-94 -112q-17 -13 -39 -25t-44.5 -21.5t-45 -15t-41.5 -5.5q-75 0 -143.5 23.5t-120 69t-82 113t-30.5 155.5q0 93 37.5 161.5t96 114t130.5 68t141 22.5q57 0 100.5 -6t73.5 -14q35 -9 61 -20v35q0 59 -7 106t-28.5 79.5t-62 49.5t-107.5 17
q-54 0 -104 -7.5t-89 -16.5q-46 -11 -85 -23l-72 134q44 20 100 36q48 14 114 25.5t146 11.5q115 0 190 -31t118 -87t60 -134.5t17 -174.5v-510zM710 533q-28 4 -60 8q-27 3 -62 6t-73 3q-56 0 -102.5 -11t-80.5 -35.5t-53 -63.5t-19 -95q0 -45 15 -82t41 -64t61.5 -41.5
t76.5 -14.5q19 0 40.5 5.5t43 14.5t43 21t40.5 24q45 29 89 66v259zM780 1220h-150l-100 152l-30 88l-30 -87l-101 -153h-150l176 280l200 20z" />
    <glyph glyph-name="atilde" unicode="&#xe3;" horiz-adv-x="1100" 
d="M920 0h-210v162l-94 -112q-17 -13 -39 -25t-44.5 -21.5t-45 -15t-41.5 -5.5q-75 0 -143.5 23.5t-120 69t-82 113t-30.5 155.5q0 93 37.5 161.5t96 114t130.5 68t141 22.5q57 0 100.5 -6t73.5 -14q35 -9 61 -20v35q0 59 -7 106t-28.5 79.5t-62 49.5t-107.5 17
q-54 0 -104 -7.5t-89 -16.5q-46 -11 -85 -23l-72 134q44 20 100 36q48 14 114 25.5t146 11.5q115 0 190 -31t118 -87t60 -134.5t17 -174.5v-510zM710 533q-28 4 -60 8q-27 3 -62 6t-73 3q-56 0 -102.5 -11t-80.5 -35.5t-53 -63.5t-19 -95q0 -45 15 -82t41 -64t61.5 -41.5
t76.5 -14.5q19 0 40.5 5.5t43 14.5t43 21t40.5 24q45 29 89 66v259zM187 1275q4 40 19.5 78t40 67t55.5 46.5t67 17.5q39 0 73 -14t65 -31t61 -31t61 -14q21 0 37 10.5t27 26t18 34.5t10 37l96 -4q-3 -44 -19.5 -85t-42 -72.5t-60 -50.5t-73.5 -19q-32 0 -63 14t-63 30.5
t-65 30.5t-68 14q-18 0 -32.5 -8t-26 -21t-19.5 -28.5t-12 -30.5z" />
    <glyph glyph-name="adieresis" unicode="&#xe4;" horiz-adv-x="1100" 
d="M920 0h-210v162l-94 -112q-17 -13 -39 -25t-44.5 -21.5t-45 -15t-41.5 -5.5q-75 0 -143.5 23.5t-120 69t-82 113t-30.5 155.5q0 93 37.5 161.5t96 114t130.5 68t141 22.5q57 0 100.5 -6t73.5 -14q35 -9 61 -20v35q0 59 -7 106t-28.5 79.5t-62 49.5t-107.5 17
q-54 0 -104 -7.5t-89 -16.5q-46 -11 -85 -23l-72 134q44 20 100 36q48 14 114 25.5t146 11.5q115 0 190 -31t118 -87t60 -134.5t17 -174.5v-510zM710 533q-28 4 -60 8q-27 3 -62 6t-73 3q-56 0 -102.5 -11t-80.5 -35.5t-53 -63.5t-19 -95q0 -45 15 -82t41 -64t61.5 -41.5
t76.5 -14.5q19 0 40.5 5.5t43 14.5t43 21t40.5 24q45 29 89 66v259zM200 1500h200v-200h-200v200zM600 1500h200v-200h-200v200z" />
    <glyph glyph-name="aring" unicode="&#xe5;" horiz-adv-x="1100" 
d="M920 0h-210v162l-94 -112q-17 -13 -39 -25t-44.5 -21.5t-45 -15t-41.5 -5.5q-75 0 -143.5 23.5t-120 69t-82 113t-30.5 155.5q0 93 37.5 161.5t96 114t130.5 68t141 22.5q57 0 100.5 -6t73.5 -14q35 -9 61 -20v35q0 59 -7 106t-28.5 79.5t-62 49.5t-107.5 17
q-54 0 -104 -7.5t-89 -16.5q-46 -11 -85 -23l-72 134q44 20 100 36q48 14 114 25.5t146 11.5q115 0 190 -31t118 -87t60 -134.5t17 -174.5v-510zM710 533q-28 4 -60 8q-27 3 -62 6t-73 3q-56 0 -102.5 -11t-80.5 -35.5t-53 -63.5t-19 -95q0 -45 15 -82t41 -64t61.5 -41.5
t76.5 -14.5q19 0 40.5 5.5t43 14.5t43 21t40.5 24q45 29 89 66v259zM500 1634q49 0 92 -18.5t75.5 -51t51 -75.5t18.5 -92t-18.5 -93t-50 -77t-74.5 -52t-92 -19t-92.5 19t-76.5 52t-52 77t-19 93t19 92t51 75.5t75.5 51t92.5 18.5zM501 1273q25 0 47 10t38 26.5t25.5 39
t9.5 47.5t-9.5 47t-26 38.5t-38.5 26t-47 9.5t-47 -9.5t-38.5 -26t-26 -38.5t-9.5 -47t9.5 -47.5t26 -39t39 -26.5t47.5 -10z" />
    <glyph glyph-name="ae" unicode="&#xe6;" horiz-adv-x="1700" 
d="M1600 638q0 -31 -2 -68t-6 -70h-692q0 -75 20.5 -140t57.5 -113.5t89.5 -76t117.5 -27.5q64 0 111.5 9.5t81.5 23t55.5 27.5t33.5 22l109 -96q-31 -32 -68 -59t-82 -46.5t-99.5 -30t-121.5 -10.5q-92 0 -164.5 22.5t-128.5 63.5q-67 50 -110 120l-32 -65q-9 -8 -38.5 -31
t-73.5 -47.5t-98.5 -43.5t-113.5 -19q-75 0 -143.5 23.5t-120 69t-82 113t-30.5 155.5q0 93 37.5 161.5t96 114t130.5 68t141 22.5q57 0 100.5 -6t73.5 -14q35 -9 61 -20v35q0 59 -7 106t-28.5 79.5t-62 49.5t-107.5 17q-54 0 -104 -7.5t-89 -16.5q-46 -11 -85 -23l-72 134
q44 20 100 36q48 14 114 25.5t146 11.5q133 0 211.5 -40.5t119.5 -112.5q59 69 142 111t192 42q108 0 187 -35t131 -98t77 -151t25 -195zM710 533q-28 4 -60 8q-27 3 -62 6t-73 3q-56 0 -102.5 -11t-80.5 -35.5t-53 -63.5t-19 -95q0 -45 15 -82t41 -64t61.5 -41.5
t76.5 -14.5q19 0 40.5 5.5t43 14.5t43 21t40.5 24q45 29 89 66v259zM1410 650q1 11 1.5 22t0.5 22q0 57 -13 105t-39.5 83.5t-67.5 55.5t-97 20q-67 0 -114.5 -21.5t-80 -55t-52 -73.5t-29.5 -76l-52 -109l178 27h365z" />
    <glyph glyph-name="ccedilla" unicode="&#xe7;" horiz-adv-x="1042" 
d="M801 878q-39 35 -92.5 57t-110.5 22q-84 0 -143 -31.5t-95.5 -85.5t-53.5 -125.5t-17 -150.5q0 -82 15.5 -156.5t52.5 -131.5t98.5 -90.5t153.5 -33.5q77 0 130.5 18t82.5 38l72 -141q-56 -38 -131 -61q-41 -13 -89 -18q8 -10 20.5 -28.5t24 -42.5t20 -53.5t8.5 -61.5
q0 -44 -18.5 -82t-49.5 -66.5t-71.5 -44.5t-84.5 -16q-50 0 -96.5 13.5t-83.5 30.5q-43 19 -81 45l71 100q26 -18 54 -31q24 -11 53.5 -20.5t58.5 -9.5q37 0 66 24t29 66q0 28 -12 57t-28.5 53.5t-33 43t-24.5 27.5q-65 11 -120 40q-94 50 -156.5 132.5t-94 190t-31.5 222.5
q0 104 30.5 201.5t93 172.5t158 120.5t224.5 45.5q92 0 164.5 -28.5t135.5 -97.5z" />
    <glyph glyph-name="egrave" unicode="&#xe8;" horiz-adv-x="1100" 
d="M966 129q-31 -32 -68 -59t-82 -46.5t-99.5 -30t-121.5 -10.5q-133 0 -227 47t-153.5 126t-87 181t-27.5 213q0 71 13 140.5t39 132.5t65 117t91 93t117.5 61.5t144.5 22.5q108 0 187 -35t131 -98t77 -151t25 -195q0 -31 -2 -68t-6 -70h-692q0 -75 20.5 -140t57.5 -113.5
t89.5 -76t117.5 -27.5q64 0 111.5 9.5t81.5 23t55.5 27.5t33.5 22zM800 650q1 11 1.5 22t0.5 22q0 57 -13 105t-39.5 83.5t-67.5 55.5t-97 20q-67 0 -114.5 -21.5t-80 -55t-52 -73.5t-29.5 -76l-52 -109l178 27h365zM660 1200h-150l-225 300l204 20z" />
    <glyph glyph-name="eacute" unicode="&#xe9;" horiz-adv-x="1100" 
d="M966 129q-31 -32 -68 -59t-82 -46.5t-99.5 -30t-121.5 -10.5q-133 0 -227 47t-153.5 126t-87 181t-27.5 213q0 71 13 140.5t39 132.5t65 117t91 93t117.5 61.5t144.5 22.5q108 0 187 -35t131 -98t77 -151t25 -195q0 -31 -2 -68t-6 -70h-692q0 -75 20.5 -140t57.5 -113.5
t89.5 -76t117.5 -27.5q64 0 111.5 9.5t81.5 23t55.5 27.5t33.5 22zM800 650q1 11 1.5 22t0.5 22q0 57 -13 105t-39.5 83.5t-67.5 55.5t-97 20q-67 0 -114.5 -21.5t-80 -55t-52 -73.5t-29.5 -76l-52 -109l178 27h365zM600 1500l230 20l-240 -320h-150z" />
    <glyph glyph-name="ecircumflex" unicode="&#xea;" horiz-adv-x="1100" 
d="M966 129q-31 -32 -68 -59t-82 -46.5t-99.5 -30t-121.5 -10.5q-133 0 -227 47t-153.5 126t-87 181t-27.5 213q0 71 13 140.5t39 132.5t65 117t91 93t117.5 61.5t144.5 22.5q108 0 187 -35t131 -98t77 -151t25 -195q0 -31 -2 -68t-6 -70h-692q0 -75 20.5 -140t57.5 -113.5
t89.5 -76t117.5 -27.5q64 0 111.5 9.5t81.5 23t55.5 27.5t33.5 22zM800 650q1 11 1.5 22t0.5 22q0 57 -13 105t-39.5 83.5t-67.5 55.5t-97 20q-67 0 -114.5 -21.5t-80 -55t-52 -73.5t-29.5 -76l-52 -109l178 27h365zM880 1220h-150l-100 152l-30 88l-30 -87l-101 -153h-150
l176 280l200 20z" />
    <glyph glyph-name="edieresis" unicode="&#xeb;" horiz-adv-x="1100" 
d="M966 129q-31 -32 -68 -59t-82 -46.5t-99.5 -30t-121.5 -10.5q-133 0 -227 47t-153.5 126t-87 181t-27.5 213q0 71 13 140.5t39 132.5t65 117t91 93t117.5 61.5t144.5 22.5q108 0 187 -35t131 -98t77 -151t25 -195q0 -31 -2 -68t-6 -70h-692q0 -75 20.5 -140t57.5 -113.5
t89.5 -76t117.5 -27.5q64 0 111.5 9.5t81.5 23t55.5 27.5t33.5 22zM800 650q1 11 1.5 22t0.5 22q0 57 -13 105t-39.5 83.5t-67.5 55.5t-97 20q-67 0 -114.5 -21.5t-80 -55t-52 -73.5t-29.5 -76l-52 -109l178 27h365zM300 1500h200v-200h-200v200zM700 1500h200v-200h-200
v200z" />
    <glyph glyph-name="igrave" unicode="&#xec;" horiz-adv-x="600" 
d="M390 0h-190v1055l190 20v-1075zM460 1200h-150l-225 300l204 20z" />
    <glyph glyph-name="iacute" unicode="&#xed;" horiz-adv-x="600" 
d="M390 0h-190v1055l190 20v-1075zM350 1500l230 20l-240 -320h-150z" />
    <glyph glyph-name="icircumflex" unicode="&#xee;" horiz-adv-x="600" 
d="M390 0h-190v1055l190 20v-1075zM581 1220h-150l-100 152l-30 88l-30 -87l-101 -153h-150l176 280l200 20z" />
    <glyph glyph-name="idieresis" unicode="&#xef;" horiz-adv-x="600" 
d="M390 0h-190v1055l190 20v-1075zM0 1500h200v-200h-200v200zM400 1500h200v-200h-200v200z" />
    <glyph glyph-name="eth" unicode="&#xf0;" horiz-adv-x="1300" 
d="M440 1165l212 179l-119 -21q-50 26 -98.5 39t-102.5 13q-13 0 -22.5 -1t-12.5 -2l-25 143q16 2 31 2h30q110 0 207 -30t181 -85l138 117l97 -115l-184 -155h117q52 -62 93.5 -134.5t69.5 -153.5t43 -168t15 -176q0 -54 -10 -122t-32.5 -138.5t-60.5 -137.5t-93.5 -119.5
t-130.5 -84.5t-173 -32q-108 0 -194 35t-146 99t-92 152.5t-32 196.5q0 111 32 196.5t90.5 143.5t139.5 88t179 30q68 0 137 -17t129 -63l83 -117q-9 62 -29 125t-50 122.5t-69 114.5t-84 102l-167 -141zM914 604q-18 26 -51.5 54t-76 51.5t-90.5 39t-94 15.5
q-69 0 -121 -24.5t-86.5 -67t-51.5 -100t-17 -124.5q0 -66 21.5 -122t59.5 -96.5t90 -63.5t112 -23q61 0 109.5 21t85 57t60.5 84.5t35 103.5t13 100.5t2 94.5z" />
    <glyph glyph-name="ntilde" unicode="&#xf1;" 
d="M390 0h-190v1100l190 20v-183l61 107q18 12 46 25t62.5 23.5t74.5 17.5t81 7q79 0 133.5 -25.5t88.5 -73.5t48.5 -116t14.5 -152v-750h-190v750q0 54 -7.5 93t-26 64.5t-49.5 37.5t-77 12q-34 0 -69 -10.5t-68.5 -27t-65 -36.5t-57.5 -39v-844zM287 1275q4 40 19.5 78
t40 67t55.5 46.5t67 17.5q39 0 73 -14t65 -31t61 -31t61 -14q21 0 37 10.5t27 26t18 34.5t10 37l96 -4q-3 -44 -19.5 -85t-42 -72.5t-60 -50.5t-73.5 -19q-32 0 -63 14t-63 30.5t-65 30.5t-68 14q-18 0 -32.5 -8t-26 -21t-19.5 -28.5t-12 -30.5z" />
    <glyph glyph-name="ograve" unicode="&#xf2;" 
d="M599 -17q-111 0 -202.5 43.5t-157.5 120t-102.5 181t-36.5 225.5t35 224.5t100 179t157.5 118t206.5 42.5q111 0 203 -42.5t158 -118t103 -179t37 -224.5t-35.5 -225.5t-100.5 -181t-158 -120t-207 -43.5zM910 526q0 81 -17.5 159t-55.5 139.5t-98 99.5t-144 38
q-80 0 -138 -33t-95 -88t-54.5 -125t-17.5 -144q0 -81 17.5 -159t55 -139t97 -98.5t143.5 -37.5q79 0 137 33t96 87.5t56 124.5t18 143zM787 1200h-150l-225 300l204 20z" />
    <glyph glyph-name="oacute" unicode="&#xf3;" 
d="M599 -17q-111 0 -202.5 43.5t-157.5 120t-102.5 181t-36.5 225.5t35 224.5t100 179t157.5 118t206.5 42.5q111 0 203 -42.5t158 -118t103 -179t37 -224.5t-35.5 -225.5t-100.5 -181t-158 -120t-207 -43.5zM910 526q0 81 -17.5 159t-55.5 139.5t-98 99.5t-144 38
q-80 0 -138 -33t-95 -88t-54.5 -125t-17.5 -144q0 -81 17.5 -159t55 -139t97 -98.5t143.5 -37.5q79 0 137 33t96 87.5t56 124.5t18 143zM600 1500l230 20l-240 -320h-150z" />
    <glyph glyph-name="ocircumflex" unicode="&#xf4;" 
d="M599 -17q-111 0 -202.5 43.5t-157.5 120t-102.5 181t-36.5 225.5t35 224.5t100 179t157.5 118t206.5 42.5q111 0 203 -42.5t158 -118t103 -179t37 -224.5t-35.5 -225.5t-100.5 -181t-158 -120t-207 -43.5zM910 526q0 81 -17.5 159t-55.5 139.5t-98 99.5t-144 38
q-80 0 -138 -33t-95 -88t-54.5 -125t-17.5 -144q0 -81 17.5 -159t55 -139t97 -98.5t143.5 -37.5q79 0 137 33t96 87.5t56 124.5t18 143zM880 1220h-150l-100 152l-30 88l-30 -87l-101 -153h-150l176 280l200 20z" />
    <glyph glyph-name="otilde" unicode="&#xf5;" 
d="M599 -17q-111 0 -202.5 43.5t-157.5 120t-102.5 181t-36.5 225.5t35 224.5t100 179t157.5 118t206.5 42.5q111 0 203 -42.5t158 -118t103 -179t37 -224.5t-35.5 -225.5t-100.5 -181t-158 -120t-207 -43.5zM910 526q0 81 -17.5 159t-55.5 139.5t-98 99.5t-144 38
q-80 0 -138 -33t-95 -88t-54.5 -125t-17.5 -144q0 -81 17.5 -159t55 -139t97 -98.5t143.5 -37.5q79 0 137 33t96 87.5t56 124.5t18 143zM337 1275q4 40 19.5 78t40 67t55.5 46.5t67 17.5q39 0 73 -14t65 -31t61 -31t61 -14q21 0 37 10.5t27 26t18 34.5t10 37l96 -4
q-3 -44 -19.5 -85t-42 -72.5t-60 -50.5t-73.5 -19q-32 0 -63 14t-63 30.5t-65 30.5t-68 14q-18 0 -32.5 -8t-26 -21t-19.5 -28.5t-12 -30.5z" />
    <glyph glyph-name="odieresis" unicode="&#xf6;" 
d="M599 -17q-111 0 -202.5 43.5t-157.5 120t-102.5 181t-36.5 225.5t35 224.5t100 179t157.5 118t206.5 42.5q111 0 203 -42.5t158 -118t103 -179t37 -224.5t-35.5 -225.5t-100.5 -181t-158 -120t-207 -43.5zM910 526q0 81 -17.5 159t-55.5 139.5t-98 99.5t-144 38
q-80 0 -138 -33t-95 -88t-54.5 -125t-17.5 -144q0 -81 17.5 -159t55 -139t97 -98.5t143.5 -37.5q79 0 137 33t96 87.5t56 124.5t18 143zM300 1500h200v-200h-200v200zM700 1500h200v-200h-200v200z" />
    <glyph glyph-name="divide" unicode="&#xf7;" horiz-adv-x="1100" 
d="M441 307q0 22 8.5 41.5t23.5 34.5t34.5 23.5t41.5 8.5t41.5 -8.5t34.5 -23.5t23.5 -34.5t8.5 -41.5t-8.5 -42t-23 -35t-34 -24t-41.5 -9t-42 9t-35 24t-23.5 35t-8.5 42zM441 920q0 22 8.5 41.5t23.5 34.5t34.5 23.5t41.5 8.5t41.5 -8.5t34.5 -23.5t23.5 -34.5t8.5 -41.5
t-8.5 -42t-23 -35t-34 -24t-41.5 -9t-42 9t-35 24t-23.5 35t-8.5 42zM100 700h900v-155h-900v155z" />
    <glyph glyph-name="oslash" unicode="&#xf8;" 
d="M599 -17q-111 0 -203 43q-3 2 -7 4l-78 -130h-210l145 238q-4 4 -7 8q-66 77 -102.5 181.5t-36.5 225.5t35 224.5t100 179t157.5 118t206.5 42.5q111 0 203 -43l13 -6l86 141h200l-148 -245q3 -4 7 -8q66 -75 103 -178.5t37 -224.5t-35.5 -225.5t-100.5 -181t-158 -120
t-207 -43.5zM595 962q-80 0 -138 -33t-95 -88t-54.5 -125t-17.5 -144q0 -81 17 -159q14 -61 39 -111l384 627q-58 33 -135 33zM910 526q0 81 -18 159q-13 61 -40 112l-380 -630q56 -29 131 -29q79 0 137 33t96 87.5t56 124.5t18 143z" />
    <glyph glyph-name="ugrave" unicode="&#xf9;" 
d="M810 1100l190 20v-1120h-190v163l-61 -107q-18 -12 -42.5 -25t-55.5 -23.5t-68 -17.5t-78 -7q-80 0 -137.5 29t-94.5 81t-55 123.5t-18 155.5v728l190 20v-748q0 -108 43.5 -168.5t136.5 -60.5q34 0 67 11t64 28t58.5 37t50.5 39v842zM787 1200h-150l-225 300l204 20z
" />
    <glyph glyph-name="uacute" unicode="&#xfa;" 
d="M810 1100l190 20v-1120h-190v163l-61 -107q-18 -12 -42.5 -25t-55.5 -23.5t-68 -17.5t-78 -7q-80 0 -137.5 29t-94.5 81t-55 123.5t-18 155.5v728l190 20v-748q0 -108 43.5 -168.5t136.5 -60.5q34 0 67 11t64 28t58.5 37t50.5 39v842zM565 1500l230 20l-240 -320h-150z
" />
    <glyph glyph-name="ucircumflex" unicode="&#xfb;" 
d="M810 1100l190 20v-1120h-190v163l-61 -107q-18 -12 -42.5 -25t-55.5 -23.5t-68 -17.5t-78 -7q-80 0 -137.5 29t-94.5 81t-55 123.5t-18 155.5v728l190 20v-748q0 -108 43.5 -168.5t136.5 -60.5q34 0 67 11t64 28t58.5 37t50.5 39v842zM880 1220h-150l-100 152l-30 88
l-30 -87l-101 -153h-150l176 280l200 20z" />
    <glyph glyph-name="udieresis" unicode="&#xfc;" 
d="M810 1100l190 20v-1120h-190v163l-61 -107q-18 -12 -42.5 -25t-55.5 -23.5t-68 -17.5t-78 -7q-80 0 -137.5 29t-94.5 81t-55 123.5t-18 155.5v728l190 20v-748q0 -108 43.5 -168.5t136.5 -60.5q34 0 67 11t64 28t58.5 37t50.5 39v842zM300 1500h200v-200h-200v200z
M700 1500h200v-200h-200v200z" />
    <glyph glyph-name="yacute" unicode="&#xfd;" horiz-adv-x="1100" 
d="M602 364l269 736l180 17l-414 -1134q-31 -84 -67.5 -167t-82.5 -148.5t-101.5 -106.5t-123.5 -41q-51 0 -100 20.5t-90 56.5l73 107q17 -12 39 -22t46 -10q33 0 64 25.5t59.5 65.5t53 90t44.5 100l-417 1147l190 17l274 -753l52 -232zM515 1500l230 20l-240 -320h-150z
" />
    <glyph glyph-name="thorn" unicode="&#xfe;" 
d="M609 -17q-111 0 -203 43q-58 28 -106 69v-495h-200v1900l200 20v-510q46 38 102 64q93 43 207 43q111 0 203 -42.5t158 -118t103 -179t37 -224.5t-35.5 -225.5t-100.5 -181t-158 -120t-207 -43.5zM920 526q0 81 -17.5 159t-55.5 139.5t-98 99.5t-144 38q-80 0 -138 -33
t-95 -88t-55 -125q-16 -63 -17 -130v-14q0 -81 17.5 -159t55 -139t97 -98.5t143.5 -37.5q79 0 137 33t96 87.5t56 124.5t18 143z" />
    <glyph glyph-name="ydieresis" unicode="&#xff;" horiz-adv-x="1100" 
d="M602 364l269 736l180 17l-414 -1134q-31 -84 -67.5 -167t-82.5 -148.5t-101.5 -106.5t-123.5 -41q-51 0 -100 20.5t-90 56.5l73 107q17 -12 39 -22t46 -10q33 0 64 25.5t59.5 65.5t53 90t44.5 100l-417 1147l190 17l274 -753l52 -232zM250 1500h200v-200h-200v200z
M650 1500h200v-200h-200v200z" />
    <glyph glyph-name="OE" unicode="&#x152;" horiz-adv-x="2000" 
d="M800 -17q-158 0 -283 58t-212.5 160.5t-134 243t-46.5 305.5t45 305.5t131.5 243t212.5 160.5t287 58l180 -87l-10 70h840v-160h-630l20 -190v-265h540v-145h-540v-400l-10 -180h655l-20 -160h-855l10 70zM990 1305q-22 10 -42 17q-68 25 -154 25q-123 0 -210.5 -47.5
t-143.5 -126.5t-82 -180t-26 -208q0 -81 11.5 -159t35.5 -148.5t61.5 -130t90 -102.5t121 -67.5t154.5 -24.5q81 0 147 22q18 7 37 15v1115z" />
    <glyph glyph-name="oe" unicode="&#x153;" horiz-adv-x="1900" 
d="M1096 631l125 19h365q1 11 1.5 22t0.5 22q0 57 -13 105t-39.5 83.5t-67.5 55.5t-97 20q-67 0 -114.5 -21.5t-80 -55t-52 -73.5t-29.5 -76l-52 -109zM896 572q0 74 -14.5 144t-49 125t-92.5 88t-145 33q-80 0 -138 -33t-95 -88t-54.5 -125t-17.5 -144q0 -81 16.5 -159
t52.5 -139t94 -98.5t141 -37.5q84 0 142 37.5t93.5 98.5t51 139t15.5 159zM1356 1117q106 0 185 -34.5t131.5 -97t78 -151t25.5 -196.5q0 -31 -2 -68t-6 -70h-692q0 -51 9 -97q12 -57 36.5 -105t59.5 -82.5t80.5 -53.5t99.5 -19q64 0 111.5 9.5t81.5 23t55.5 27.5t33.5 22
l109 -96q-31 -32 -68 -59t-82 -46.5t-99.5 -30t-121.5 -10.5q-124 0 -213.5 40.5t-149.5 109.5l-32 82l-32 -79q-65 -72 -154.5 -112.5t-200.5 -40.5t-202.5 43.5t-157.5 120t-102.5 181t-36.5 225.5t35 224.5t100 179t157.5 118t206.5 42.5q109 0 199 -41t156 -113l31 -78
l33 76q57 77 146 116.5t192 39.5z" />
    <glyph glyph-name="Scaron" unicode="&#x160;" horiz-adv-x="1100" 
d="M870 1274q-68 40 -130.5 59t-139.5 19q-54 0 -105.5 -11t-91 -35.5t-64 -64t-24.5 -96.5q0 -56 30 -97t78.5 -73.5t111 -60t127.5 -58t127.5 -67t111 -86t78.5 -115.5t30 -156q0 -74 -20 -136.5t-55.5 -112.5t-84.5 -87.5t-107 -62.5t-122.5 -37.5t-131.5 -12.5
q-233 4 -406 111l91 150q20 -13 52.5 -29.5t72.5 -31.5t85 -25t91 -10q62 0 121.5 15.5t106 48t75 82.5t28.5 119q0 65 -30 113.5t-78.5 87t-111 69.5t-127.5 62t-127.5 65t-111 77t-78.5 98.5t-30 130.5q0 97 40 171.5t105.5 125.5t148.5 77.5t169 26.5q213 0 393 -120z
M880 1900h-150l-110 -132l-20 -78l-20 77l-111 133h-150l176 -280l200 -20z" />
    <glyph glyph-name="scaron" unicode="&#x161;" horiz-adv-x="900" 
d="M661 919q-18 9 -43 18t-52 16t-54.5 11t-52.5 4q-106 0 -150 -31.5t-44 -94.5q0 -42 29 -69.5t75 -49.5t102.5 -41.5t110.5 -46.5q39 -19 79 -45t72 -61t52 -79t20 -99q0 -101 -34 -171t-92.5 -113.5t-137 -63.5t-167.5 -20q-34 0 -77 6.5t-86 18t-82 27.5t-65 34l66 132
q24 -12 57 -22.5t68 -18.5t69.5 -12.5t61.5 -4.5q46 0 88.5 9.5t75 30.5t52 54.5t19.5 82.5q0 37 -15.5 65t-42 49.5t-61.5 39.5t-74 34.5t-80 34t-78 38.5q-35 20 -67.5 44t-57.5 54t-40 67.5t-15 85.5q0 76 27 130.5t76 88.5t118 50t152 16q38 0 75 -6t71 -15.5t62 -22.5
t48 -26zM731 1520h-150l-110 -132l-20 -78l-20 77l-111 133h-150l176 -280l200 -20z" />
    <glyph glyph-name="Ydieresis" unicode="&#x178;" 
d="M660 935l288 565h192l-435 -854v-646h-210v645l-436 855l204 20l288 -566l79 -249zM300 1800h200v-200h-200v200zM700 1800h200v-200h-200v200z" />
    <glyph glyph-name="florin" unicode="&#x192;" horiz-adv-x="1400" 
d="M1195 1347q-19 11 -51.5 19t-57.5 8q-51 0 -82 -24t-49.5 -61.5t-29 -83t-21.5 -88.5l-76 -289h296l-40 -154h-240l-42 56l-198 -751q-14 -54 -26.5 -105.5t-28 -97t-36.5 -83.5t-53 -65.5t-77 -43t-109 -15.5q-46 0 -81.5 3.5t-64.5 10t-53 15t-45 18.5l83 133
q19 -11 51.5 -19t57.5 -8q50 0 80.5 24.5t49.5 62t30 83t22 87.5l183 695h-281l40 154h217l50 -57q36 139 64 248.5t53.5 192t52 141t61.5 95t80.5 53t109.5 16.5q46 0 78.5 -3.5t58 -10t46 -15t41.5 -18.5z" />
    <glyph glyph-name="circumflex" unicode="&#x2c6;" horiz-adv-x="1100" 
d="M780 1220h-150l-100 152l-30 88l-30 -87l-101 -153h-150l176 280l200 20z" />
    <glyph glyph-name="caron" unicode="&#x2c7;" horiz-adv-x="1100" 
d="M595 1220l-200 20l-176 280h150l111 -133l20 -77l20 78l110 132h150z" />
    <glyph glyph-name="breve" unicode="&#x2d8;" horiz-adv-x="1100" 
d="M326 1520q4 -38 23 -68q17 -26 51 -47t97 -21q64 0 100 21t53 47q20 30 24 68h106v-13q0 -14 -2.5 -37.5t-12 -52t-27.5 -57.5t-49.5 -52.5t-78.5 -38.5t-113 -15t-112 15t-77 38.5t-48.5 52t-26.5 56.5t-11.5 52t-2.5 38v14h107z" />
    <glyph glyph-name="dotaccent" unicode="&#x2d9;" horiz-adv-x="600" 
d="M194 1500h202v-200h-202v200z" />
    <glyph glyph-name="ring" unicode="&#x2da;" horiz-adv-x="1100" 
d="M500 1634q49 0 92 -18.5t75.5 -51t51 -75.5t18.5 -92t-18.5 -93t-50 -77t-74.5 -52t-92 -19t-92.5 19t-76.5 52t-52 77t-19 93t19 92t51 75.5t75.5 51t92.5 18.5zM501 1273q25 0 47 10t38 26.5t25.5 39t9.5 47.5t-9.5 47t-26 38.5t-38.5 26t-47 9.5t-47 -9.5t-38.5 -26
t-26 -38.5t-9.5 -47t9.5 -47.5t26 -39t39 -26.5t47.5 -10z" />
    <glyph glyph-name="ogonek" unicode="&#x2db;" horiz-adv-x="1100" 
d="M552 0q-30 -30 -53 -62q-20 -27 -36.5 -60.5t-16.5 -66.5q0 -42 29 -66t66 -24q29 0 58 9.5t53 20.5q28 13 55 31l71 -100q-38 -26 -81 -45q-37 -17 -84 -30.5t-96 -13.5q-44 0 -84.5 16t-71.5 44.5t-49.5 66.5t-18.5 82q0 40 12.5 76t28.5 63q18 32 42 59h176z" />
    <glyph glyph-name="tilde" unicode="&#x2dc;" horiz-adv-x="1100" 
d="M187 1335q4 40 19.5 78t40 67t55.5 46.5t67 17.5q39 0 73 -14t65 -31t61 -31t61 -14q21 0 37 10.5t27 26t18 34.5t10 37l96 -4q-3 -44 -19.5 -85t-42 -72.5t-60 -50.5t-73.5 -19q-32 0 -63 14t-63 30.5t-65 30.5t-68 14q-18 0 -32.5 -8t-26 -21t-19.5 -28.5t-12 -30.5z
" />
    <glyph glyph-name="hungarumlaut" unicode="&#x2dd;" horiz-adv-x="1100" 
d="M378 1500l230 20l-302 -403h-150zM741 1500l230 20l-302 -403h-150z" />
    <glyph glyph-name="Alpha" unicode="&#x391;" horiz-adv-x="1300" 
d="M62 0l423 1300l35 200l217 20l498 -1520h-200l-148 450h-495l-146 -450h-184zM639 1360l-36 -260l-162 -500h397l-163 500z" />
    <glyph glyph-name="Beta" unicode="&#x392;" horiz-adv-x="1300" 
d="M400 1147v-262h110q65 0 126 14.5t108.5 46t76.5 81.5t29 121q0 66 -28 110t-73.5 70t-102.5 36.5t-114 10.5q-17 0 -37 -1t-40.5 -3.5t-40 -5.5t-34.5 -6zM190 0v1290l-30 200q30 4 69.5 8t81.5 6.5t83 4t73 1.5q111 0 214.5 -14.5t183.5 -52.5t128 -104.5t48 -169.5
q0 -109 -52.5 -188t-138.5 -121l-154 -44l147 -14q61 -18 115.5 -46.5t95.5 -69.5t64.5 -97t23.5 -129q0 -85 -23 -152t-62 -118t-92 -87.5t-113.5 -59t-125 -33t-126.5 -10.5h-410zM400 160h140q99 0 174 14.5t126 48t76.5 89t25.5 138.5q0 75 -26 128t-73.5 87
t-114.5 49.5t-148 15.5h-180v-570z" />
    <glyph glyph-name="Gamma" unicode="&#x393;" horiz-adv-x="1100" 
d="M400 1150v-1150h-200v1300l-17 200h837v-150h-635z" />
    <glyph glyph-name="Deltagreek" unicode="&#x394;" horiz-adv-x="1500" 
d="M1485 0h-1472l623 1500l218 23zM1158 160l123 -52l-82 92l-416 1058l-35 167l-35 -167l-416 -1058l-85 -92l126 52h820z" />
    <glyph glyph-name="Epsilon" unicode="&#x395;" 
d="M1045 160l-20 -160h-850l15 200v1090l-30 210h850v-160h-630l20 -190v-265h540v-145h-540v-400l-10 -180h655z" />
    <glyph glyph-name="Zeta" unicode="&#x396;" 
d="M1090 160l20 -160h-1029l-20 50l655 1150l184 180l-265 -40h-485l-20 160h946l15 -22l-661 -1178l-178 -180l265 40h573z" />
    <glyph glyph-name="Eta" unicode="&#x397;" horiz-adv-x="1400" 
d="M1015 0v725h-630v-725h-205v1290l-29 210l234 20v-635h630v617l205 18v-1520h-205z" />
    <glyph glyph-name="Theta" unicode="&#x398;" horiz-adv-x="1600" 
d="M520 835h580l-20 -170h-580zM800 -17q-158 0 -283 58t-212.5 160.5t-134 243t-46.5 305.5t45 305.5t131.5 243t212.5 160.5t287 58q157 0 282.5 -58t213 -160.5t134 -243t46.5 -305.5t-45 -305.5t-131.5 -243t-212.5 -160.5t-287 -58zM1268 719q0 80 -11 157.5t-35 147
t-62 129t-90.5 102.5t-121 67.5t-154.5 24.5q-123 0 -210.5 -47.5t-143.5 -126.5t-82 -180t-26 -208q0 -81 11.5 -159t35.5 -148.5t61.5 -130t90 -102.5t121 -67.5t154.5 -24.5q81 0 147 22.5t117.5 61.5t88.5 93t61.5 116.5t36 132t11.5 140.5z" />
    <glyph glyph-name="Iota" unicode="&#x399;" horiz-adv-x="600" 
d="M190 0v1290l-30 210l240 20v-1520h-210z" />
    <glyph glyph-name="Kappa" unicode="&#x39a;" 
d="M190 0v1290l-30 210l240 20v-664l541 644h222l-531 -635l-169 -63l174 -58l553 -744h-237l-553 746v-746h-210z" />
    <glyph glyph-name="Lambda" unicode="&#x39b;" horiz-adv-x="1300" 
d="M675 1100l-36 260l-36 -260l-357 -1100h-184l423 1300l35 200l217 20l498 -1520h-200z" />
    <glyph glyph-name="Mu" unicode="&#x39c;" horiz-adv-x="1800" 
d="M1400 0v1000l44 320l-5 1l-101 -301l-415 -890h-69l-369 790l-132 401l-6 -1l53 -419v-901h-200v1290l-28 210l234 20l439 -940l55 -260l55 260l429 920l226 20v-1520h-210z" />
    <glyph glyph-name="Nu" unicode="&#x39d;" horiz-adv-x="1500" 
d="M1100 0l-615 1028l-117 289l-6 -1l38 -316v-1000h-200v1290l-30 210l236 20l616 -1033l120 -314l6 1l-48 336v990l195 20v-1520h-195z" />
    <glyph glyph-name="Xi" unicode="&#x39e;" 
d="M100 174h1000v-174h-1000v174zM100 1500h1000v-174h-1000v174zM200 885h800v-174h-800v174z" />
    <glyph glyph-name="Omicron" unicode="&#x39f;" horiz-adv-x="1600" 
d="M800 -17q-158 0 -283 58t-212.5 160.5t-134 243t-46.5 305.5t45 305.5t131.5 243t212.5 160.5t287 58q157 0 282.5 -58t213 -160.5t134 -243t46.5 -305.5t-45 -305.5t-131.5 -243t-212.5 -160.5t-287 -58zM1268 719q0 80 -11 157.5t-35 147t-62 129t-90.5 102.5
t-121 67.5t-154.5 24.5q-123 0 -210.5 -47.5t-143.5 -126.5t-82 -180t-26 -208q0 -81 11.5 -159t35.5 -148.5t61.5 -130t90 -102.5t121 -67.5t154.5 -24.5q81 0 147 22.5t117.5 61.5t88.5 93t61.5 116.5t36 132t11.5 140.5z" />
    <glyph glyph-name="Rho" unicode="&#x3a1;" 
d="M400 0h-210v1290l-35 200q30 5 73.5 9t92.5 7t98 4.5t88 1.5q115 0 220.5 -20.5t186.5 -68.5t129 -126t48 -193q0 -140 -50 -232.5t-141 -147.5t-218.5 -77.5t-281.5 -22.5v-624zM400 1147v-382q120 0 213 14t157 50.5t97 100.5t33 165q0 75 -31.5 128t-81.5 87
t-112 49.5t-123 15.5q-17 0 -40.5 -1.5t-47.5 -3.5t-46.5 -5t-37.5 -6z" />
    <glyph glyph-name="Sigma" unicode="&#x3a3;" 
d="M830 700l-357 -383l-227 -192l249 45h606v-170h-1021l20 183l500 517l153 50l-153 50l-500 517l-20 183h1021v-170h-606l-249 45l227 -192l357 -383v-100z" />
    <glyph glyph-name="Tau" unicode="&#x3a4;" 
d="M495 0v1340h-415v160h1035v-160h-410v-1340h-210z" />
    <glyph glyph-name="Upsilon" unicode="&#x3a5;" 
d="M660 935l288 565h192l-435 -854v-646h-210v645l-436 855l204 20l288 -566l79 -249z" />
    <glyph glyph-name="Phi" unicode="&#x3a6;" horiz-adv-x="1400" 
d="M600 204q-71 9 -138 29q-114 35 -201 103.5t-138.5 172t-51.5 241.5t51.5 241t138.5 172t201 103q67 21 138 29v205l199 20v-225q71 -8 139 -29q114 -34 201.5 -103t139.5 -172t52 -241t-52 -241.5t-139 -172t-201 -103.5q-68 -20 -140 -29v-204h-199v204zM867 1123
q-34 10 -68 16v-778q33 5 66 15q81 23 145 72t103 123.5t39 178.5q0 103 -38.5 178t-101.5 123.5t-145 71.5zM535 376q32 -9 65 -15v778q-34 -6 -67 -16q-81 -23 -144 -71.5t-101.5 -123.5t-38.5 -178q0 -104 39 -178.5t102.5 -123.5t144.5 -72z" />
    <glyph glyph-name="Chi" unicode="&#x3a7;" horiz-adv-x="1300" 
d="M1014 0l-313 519l-77 181l-48 -160l-325 -540h-198l480 799l-423 701l212 20l278 -464l80 -196l35 160l288 480h200l-435 -724l466 -776h-220z" />
    <glyph glyph-name="Psi" unicode="&#x3a8;" horiz-adv-x="1400" 
d="M800 1520v-915q61 4 118 16t100.5 40t70 74.5t26.5 118.5v646h205v-627q0 -80 -20 -141.5t-55.5 -108.5t-84.5 -80t-106.5 -55t-122 -34t-131.5 -17v-436h-200v435q-108 9 -202.5 40.5t-165 90.5t-111.5 147t-41 209v367l-30 210l235 20v-616q0 -78 28 -131.5t73 -88
t101 -52t113 -24.5v892z" />
    <glyph glyph-name="Omegagreek" unicode="&#x3a9;" horiz-adv-x="1600" 
d="M102 160h198l201 -60l-244 199q-21 30 -44.5 74t-43 102.5t-32.5 133t-13 166.5q0 165 45 301.5t131.5 234.5t212.5 152t287 54q157 0 282.5 -54t213 -152t134 -234.5t46.5 -301.5q0 -91 -12.5 -165.5t-31.5 -133t-41.5 -101.5t-41.5 -71l-250 -204l200 60h198v-160h-548
v200q70 31 129 83.5t101 122.5t65.5 155.5t23.5 182.5q0 120 -25.5 229t-82.5 192t-147 132.5t-219 49.5q-123 0 -210.5 -44t-143.5 -118t-82 -171t-26 -204q0 -112 23 -208.5t64.5 -174.5t100 -135.5t130.5 -91.5v-200h-548v160z" />
    <glyph glyph-name="alpha" unicode="&#x3b1;" horiz-adv-x="1400" 
d="M1187 996q-77 -57 -82 -145t-5 -299q0 -214 5 -283t37 -108.5t68 -39.5q22 0 33 1.5t23 3.5l53 -116q-56 -27 -119 -27q-133 0 -201 69l-49 144l-50 -112q-43 -34 -94 -58q-93 -43 -207 -43q-111 0 -202.5 43.5t-157.5 120t-102.5 181t-36.5 225.5t35 224.5t100 179
t157.5 118t206.5 42.5q111 0 203 -43q55 -26 101 -63l47 -111l49 138q38 34 101 62zM910 526q0 81 -17.5 159t-55.5 139.5t-98 99.5t-144 38q-80 0 -138 -33t-95 -88t-54.5 -125t-17.5 -144q0 -81 17.5 -159t55 -139t97 -98.5t143.5 -37.5q79 0 137 33t96 87.5t56 124.5
t18 143z" />
    <glyph glyph-name="beta" unicode="&#x3b2;" 
d="M622 -17q-69 0 -128.5 10t-93.5 22v-532l-200 17v1611q0 99 25 173t83 128q28 26 65.5 46t81 33t91.5 19.5t98 6.5q191 0 293 -112q21 -23 38.5 -47.5t30 -52.5t19.5 -61t7 -75q0 -109 -50 -188t-132 -121l-146 -44l140 -14q58 -18 109.5 -46.5t90.5 -69.5t61.5 -97
t22.5 -146q0 -85 -22 -152t-59 -118t-87.5 -87.5t-103 -59t-114 -33t-120.5 -10.5zM390 200q14 -10 36.5 -20t50 -18.5t57.5 -13.5t60 -5q75 0 138 16t108.5 50.5t71.5 89.5t26 134q0 75 -31 131t-83.5 92.5t-122.5 55t-147 18.5l-84 155q79 0 157 14.5t123 46t72.5 81.5
t27.5 121q0 46 -17 86t-46 70t-67 47.5t-79 17.5q-47 0 -92 -12t-80.5 -37.5t-57 -65t-21.5 -94.5v-960z" />
    <glyph glyph-name="gamma" unicode="&#x3b3;" horiz-adv-x="1100" 
d="M0 1117q37 0 78 -3t79 -19.5t72 -52.5t58 -102l211 -576l52 -232l52 232l269 736l180 17l-408 -1134v-483h-192v453l-333 916q-17 45 -37 68.5t-38 34.5q-21 13 -43 15v130z" />
    <glyph glyph-name="delta" unicode="&#x3b4;" 
d="M600 127q63 0 116 30.5t90.5 84t58.5 126.5t21 158q0 43 -7.5 89t-23 90t-38.5 83t-54.5 68.5t-71.5 47t-88 17.5q-145 0 -218 -101.5t-73 -293.5q0 -85 20 -158t57.5 -126.5t91 -84t119.5 -30.5zM960 1500l-43 -158h-352q-35 0 -64 -2.5t-50 -8.5t-33 -17.5t-12 -29.5
q0 -17 18 -35t46.5 -36t64 -35t70.5 -33t66.5 -29.5t51.5 -24.5q95 -51 166 -106t118 -122t70 -149t23 -188q0 -108 -39 -206t-106.5 -173t-158 -119.5t-192.5 -44.5q-111 0 -202 48.5t-156 127t-101 178.5t-36 202q0 68 14.5 138.5t48 134.5t89 117t136.5 86h203l-101 44
q-65 21 -115.5 43.5t-85.5 49t-53 60t-18 77.5q0 50 16 85.5t43.5 58.5t63.5 36.5t75.5 20.5t80 8.5t77.5 1.5h377z" />
    <glyph glyph-name="epsilon" unicode="&#x3b5;" horiz-adv-x="1000" 
d="M720 633l-20 -133h-254q-36 0 -70 -14.5t-59.5 -40t-41 -60t-15.5 -73.5t19 -71t53 -55.5t80.5 -36t102.5 -12.5q59 0 104 9.5t75 21.5q35 14 61 32l90 -101q-30 -32 -80 -58q-43 -22 -114 -40t-176 -18q-69 0 -141 20t-130.5 61t-96 103t-37.5 146q0 86 35 148.5
t94 102.5q-59 38 -94 99t-35 147q0 84 37.5 142t96 95t130.5 53.5t141 16.5q57 0 107.5 -8.5t88.5 -18.5q45 -11 83 -26l-56 -120q-25 5 -54 9q-25 4 -58 7t-71 3q-56 0 -102.5 -13.5t-80.5 -37t-53 -55t-19 -66.5q0 -32 15 -61t40.5 -50.5t59.5 -34t71 -12.5h274z" />
    <glyph glyph-name="zeta" unicode="&#x3b6;" horiz-adv-x="1000" 
d="M920 1500l-20 -158q-60 -50 -127 -109.5t-132 -126.5t-125 -139t-105 -147t-72 -151.5t-27 -151.5q0 -52 7.5 -98t29.5 -88.5t62.5 -83.5t105.5 -83q46 -30 92 -54t88.5 -47.5t78.5 -48.5t63 -56t42 -70t15 -91q0 -50 -20.5 -96t-56 -86t-83 -73.5t-102.5 -58.5l-90 131
q32 16 60.5 35t49.5 39.5t33.5 43t12.5 46.5q0 45 -26 78t-68 61t-96 54.5t-110 58.5q-70 40 -123.5 87.5t-89.5 104t-54 123.5t-18 147q0 114 32.5 222.5t82 204t107 174t108.5 131.5l263 145l-168 -27h-360l20 158h720z" />
    <glyph glyph-name="eta" unicode="&#x3b7;" 
d="M390 0h-190v1100l190 20v-183l61 107q18 12 46 25t62.5 23.5t74.5 17.5t81 7q79 0 133.5 -25.5t88.5 -73.5t48.5 -116t14.5 -152v-1250h-190v1250q0 54 -7.5 93t-26 64.5t-49.5 37.5t-77 12q-34 0 -69 -10.5t-68.5 -27t-65 -36.5t-57.5 -39v-844z" />
    <glyph glyph-name="theta" unicode="&#x3b8;" 
d="M600 -17q-93 0 -166 32.5t-128.5 88.5t-94.5 131t-63.5 160.5t-36 176.5t-11.5 178q0 88 11.5 179t36 176t63.5 160t94.5 131t128.5 88.5t166 32.5q92 0 165.5 -32.5t129 -88.5t94.5 -131t63.5 -160t36 -176t11.5 -179q0 -87 -11.5 -178t-36 -176t-63.5 -160.5
t-94.5 -131.5t-129 -88.5t-165.5 -32.5zM282 820h636q-3 59 -12.5 121.5t-26 122t-41.5 112t-59.5 92.5t-79 63t-99.5 23q-56 0 -100 -23t-78.5 -63t-59.5 -92.5t-41.5 -112t-26 -122t-12.5 -121.5zM282 670q4 -58 13.5 -119.5t26.5 -120t42 -110t59 -90.5t78 -61.5
t99 -22.5q76 0 131.5 43t93 115t60 167t32.5 199h-635z" />
    <glyph glyph-name="iota" unicode="&#x3b9;" horiz-adv-x="700" 
d="M200 902l-20 198l210 20v-731q0 -52 5 -121.5t33 -104t72 -34.5q22 0 33 1.5t17 3.5l69 -126q-17 -9 -49 -17t-70 -8q-102 0 -161.5 32t-90 88.5t-39.5 133.5t-9 166v499z" />
    <glyph glyph-name="kappa" unicode="&#x3ba;" horiz-adv-x="1000" 
d="M200 0v919l-20 180l200 20v-475l370 456l200 21l-350 -451l-154 -70l154 -70l400 -530h-200l-420 554v-554h-180z" />
    <glyph glyph-name="lambda" unicode="&#x3bb;" horiz-adv-x="1100" 
d="M550 968l-52 -232l-268 -736h-196l417 1147q-20 50 -44.5 100t-53 90t-59.5 65.5t-64 25.5q-24 0 -46 -10t-39 -22l-73 107q41 36 90 56.5t100 20.5q68 0 123.5 -41t101.5 -106.5t82.5 -148.5t67.5 -167l408 -1117h-174l-269 736z" />
    <glyph glyph-name="mugreek" unicode="&#x3bc;" 
d="M200 1100l190 20v-714q0 -48 3.5 -97.5t19 -90t59.5 -66t124 -25.5q60 0 115.5 23t98.5 72v878l190 20v-1120h-190v129q-51 -62 -104.5 -93t-100 -41t-95.5 -10q-37 0 -74 6.5t-66 19.5l20 -161v-350h-190v1600z" />
    <glyph glyph-name="nu" unicode="&#x3bd;" 
d="M457 0l-383 1100h193l277 -805l46 -220l48 220l277 805h191l-382 -1100h-267z" />
    <glyph glyph-name="xi" unicode="&#x3be;" horiz-adv-x="1000" 
d="M400 30q-47 26 -97 65t-91.5 90t-68.5 114t-27 138q0 73 14.5 128t40 96.5t58.5 69.5t71 47l134 12l-134 57q-24 22 -45.5 49.5t-38 59t-26 67t-9.5 74.5t6.5 76.5t20.5 71t36.5 63t55.5 51.5l100 41q-64 0 -116.5 11t-90 34t-58 58t-20.5 84h195q0 -7 6.5 -21.5
t21.5 -29t39.5 -25.5t60.5 -11h483l-21 -158h-263q-23 0 -52 -6.5t-59 -20t-58.5 -33.5t-51 -47t-36 -61.5t-13.5 -76.5q0 -55 26.5 -95t64 -66t77 -38.5t66.5 -12.5h229l-25 -146q-51 0 -106.5 -2.5t-109.5 -12.5t-102.5 -29t-85.5 -51t-58.5 -80.5t-21.5 -116.5
q0 -35 11 -72.5t35 -74.5t61 -71.5t89 -64.5q47 -27 94 -50.5t89 -47t78 -49t62 -57.5t41 -71.5t15 -91.5q0 -50 -20.5 -96t-56 -86t-83 -73.5t-102.5 -58.5l-90 131q32 16 60.5 35t49.5 39.5t33.5 43t12.5 46.5q0 45 -26 78t-68 61t-96 54.5t-110 58.5z" />
    <glyph glyph-name="omicron" unicode="&#x3bf;" 
d="M599 -17q-111 0 -202.5 43.5t-157.5 120t-102.5 181t-36.5 225.5t35 224.5t100 179t157.5 118t206.5 42.5q111 0 203 -42.5t158 -118t103 -179t37 -224.5t-35.5 -225.5t-100.5 -181t-158 -120t-207 -43.5zM910 526q0 81 -17.5 159t-55.5 139.5t-98 99.5t-144 38
q-80 0 -138 -33t-95 -88t-54.5 -125t-17.5 -144q0 -81 17.5 -159t55 -139t97 -98.5t143.5 -37.5q79 0 137 33t96 87.5t56 124.5t18 143z" />
    <glyph glyph-name="pi" unicode="&#x3c0;" horiz-adv-x="1300" 
d="M980 950v-561q0 -52 2 -99t13.5 -83t36 -57t68.5 -21q11 0 23 2t23 4q11 3 23 6l80 -126q-17 -9 -52 -20.5t-97 -11.5q-102 0 -161.5 32t-90 88.5t-39.5 133.5t-9 166v547h-380l60 -163v-787h-180v694q0 52 -2 99t-13.5 83t-36 57t-68.5 21q-11 0 -23.5 -2t-22.5 -4
q-12 -3 -23 -6l-80 126q17 9 51.5 20.5t95.5 11.5h941l-20 -150h-119z" />
    <glyph glyph-name="sigma1" unicode="&#x3c2;" horiz-adv-x="1000" 
d="M830 885l-25 -146q-51 0 -106.5 -2.5t-109.5 -12.5t-102.5 -29t-85.5 -51t-58.5 -80.5t-21.5 -116.5q0 -35 11 -72.5t35 -74.5t61 -71.5t89 -64.5q47 -27 94 -50.5t89 -47t78 -49t62 -57.5t41 -71.5t15 -91.5q0 -50 -20.5 -96t-56 -86t-83 -73.5t-102.5 -58.5l-90 131
q32 16 60.5 35t49.5 39.5t33.5 43t12.5 46.5q0 45 -26 78t-68 61t-96 54.5t-110 58.5q-47 26 -97 65t-91.5 90t-68.5 114t-27 138q0 57 12 112.5t39.5 105.5t72 92t109 72.5t151.5 48t200 17.5h130z" />
    <glyph glyph-name="sigma" unicode="&#x3c3;" horiz-adv-x="1300" 
d="M100 551q0 112 29 215.5t90 182t155.5 125.5t225.5 47h600v-140h-100l-167 14l105 -142q32 -68 47 -144t15 -158q0 -116 -29 -220t-90 -181t-155.5 -122t-225.5 -45t-225.5 47t-155.5 125.5t-90 181.5t-29 214zM270 551q0 -76 20 -153t60.5 -138t103 -99t146.5 -38
t146.5 38t103 99t60.5 138t20 153q0 78 -20 155t-60.5 138t-103 99t-146.5 38t-146.5 -38.5t-103 -100t-60.5 -138.5t-20 -153z" />
    <glyph glyph-name="tau" unicode="&#x3c4;" horiz-adv-x="1100" 
d="M659 942v-677q0 -38 4.5 -69t15.5 -61t30 -62.5t49 -72.5h-211q-49 35 -64.5 111.5t-15.5 191.5v639h-367l20 158h880l-20 -158h-321z" />
    <glyph glyph-name="upsilon" unicode="&#x3c5;" 
d="M400 497q0 -74 10 -140.5t38 -117t76.5 -80.5t125.5 -30q79 0 128 30.5t76 81.5t36.5 117.5t9.5 138.5v235q0 80 -22.5 133t-54 84.5t-66 44.5t-57.5 13v110q83 0 154 -24.5t123.5 -70.5t82.5 -112.5t30 -150.5v-264q0 -40 -3 -93t-16 -110t-40 -112.5t-76 -99
t-123.5 -70.5t-181.5 -27q-103 0 -175.5 26t-121 69t-77 97.5t-42.5 111.5t-18 111.5t-4 96.5v350q0 60 -20.5 94.5t-67.5 34.5q-49 0 -79 -34.5t-30 -94.5h-114q0 51 15 99.5t44.5 87t72.5 62t99 23.5q60 0 109 -19.5t84.5 -55.5t55 -86t19.5 -111v-348z" />
    <glyph glyph-name="phi" unicode="&#x3c6;" horiz-adv-x="1500" 
d="M843 1120v-123q66 -7 131 -26q108 -31 191 -94.5t132.5 -157t49.5 -219.5t-49.5 -220.5t-132 -156.5t-190.5 -94q-65 -18 -132 -27v-502h-192v502q-67 9 -130 27q-108 32 -190.5 94t-131.5 156.5t-49 220.5t49 219.5t131.5 157t190.5 94.5q63 18 130 26v103zM906 840
q-32 10 -63 14v-709q30 5 61 13q77 22 138 66.5t98 112.5t37 163q0 94 -36.5 162.5t-96.5 112.5t-138 65zM591 158q29 -7 60 -13v709q-32 -5 -62 -14q-77 -21 -137 -65t-96.5 -112.5t-36.5 -162.5q0 -95 37 -163t97.5 -112.5t137.5 -66.5z" />
    <glyph glyph-name="chi" unicode="&#x3c7;" horiz-adv-x="1300" 
d="M691 53l-77 177l-48 -160l-315 -570h-198l470 829l-305 540q-23 41 -44 64.5t-38 35.5q-19 14 -36 18v130q37 0 73.5 -4.5t72.5 -22.5t71 -53.5t70 -96.5l203 -354l80 -196l35 160l298 550h200l-445 -794l323 -571q23 -42 44 -65t38 -35q19 -14 37 -18v-134
q-38 0 -74.5 5.5t-72.5 24t-71 54.5t-70 97z" />
    <glyph glyph-name="psi" unicode="&#x3c8;" horiz-adv-x="1500" 
d="M153 800l190 20v-323q0 -72 7.5 -138.5t30 -117.5t63.5 -81.5t109 -30.5q16 -1 34 -1h64v972l192 20v-992h77.5t32.5 1q68 0 109 30.5t63.5 81.5t30 117.5t7.5 138.5v175q0 80 -22.5 142.5t-54 105t-65.5 65t-57 22.5v110q83 0 154 -34t123.5 -91t82 -133t29.5 -160v-204
q0 -40 -2.5 -93t-14.5 -110t-37 -112.5t-69.5 -99t-112 -70.5t-164.5 -27h-110v-483h-192v483h-98q-97 0 -164.5 27t-112 70.5t-69.5 99t-37 112.5t-14.5 110t-2.5 93v305z" />
    <glyph glyph-name="omega" unicode="&#x3c9;" horiz-adv-x="1600" 
d="M887 725v-243q0 -71 11 -135t36.5 -112.5t67 -77t101.5 -28.5q68 0 109 30.5t63.5 84t30 127t7.5 159.5q0 139 -22.5 230.5t-54 146.5t-65.5 77.5t-57 22.5v110q83 0 154 -45t123.5 -121t82 -177.5t29.5 -213.5q0 -50 -2.5 -112t-14.5 -126.5t-37 -125t-69.5 -108
t-112 -76.5t-164.5 -29q-116 0 -191 38.5t-119 98.5q-44 -60 -119 -98.5t-190 -38.5q-97 0 -164.5 29t-112 76.5t-69.5 108t-37 125t-14.5 126.5t-2.5 112q0 112 29.5 213.5t82 177.5t123.5 121t154 45v-110q-23 0 -57 -22.5t-65.5 -77.5t-54 -146.5t-22.5 -230.5
q0 -86 7.5 -159.5t30 -127t63.5 -84t109 -30.5q60 0 101.5 28.5t67 77t36.5 112.5t11 135v263z" />
    <glyph glyph-name="theta1" unicode="&#x3d1;" horiz-adv-x="1300" 
d="M309 484q15 -68 39.5 -129t60 -107.5t83 -74t108.5 -27.5q72 0 129 39.5t98 108t65.5 160t31.5 196.5h-424q-78 0 -150.5 12t-128 48t-88.5 100.5t-33 169.5q0 62 16 126.5t47 124t74.5 111.5t99.5 91t122 61.5t141 22.5q88 0 158.5 -29.5t125 -81t93.5 -121t65.5 -149
t40 -165.5t16.5 -171h223l-20 -150h-206q-6 -82 -21.5 -163t-43 -155t-66.5 -138t-92.5 -110.5t-121 -73.5t-151.5 -27q-93 0 -166 33t-128.5 89t-94.5 131.5t-64 160.5zM600 1354q-75 0 -136 -33t-103.5 -87t-66 -122.5t-23.5 -139.5q0 -65 23.5 -99.5t66 -51t103.5 -19
t136 -2.5h325q-5 109 -27 209.5t-62 177t-99 122t-137 45.5z" />
    <glyph glyph-name="Upsilon1" unicode="&#x3d2;" horiz-adv-x="1300" 
d="M1181 1517v-130q-23 -2 -46 -13q-20 -10 -42.5 -30t-39.5 -55l-310 -631v-658h-192v658l-310 631q-18 35 -40 55t-42 30q-23 11 -46 13v130q37 0 70.5 -4.5t66 -22.5t64 -53.5t66.5 -96.5l190 -340l81 -249l73 249l190 340q34 61 66 96.5t64.5 53.5t65.5 22.5t71 4.5z
" />
    <glyph glyph-name="phi1" unicode="&#x3d5;" horiz-adv-x="1500" 
d="M651 -3q-100 12 -190.5 48t-159.5 98t-110 150t-41 202q0 93 26 164t64.5 122.5t81.5 84.5t78 51l96 -118q-28 -19 -59 -42.5t-57.5 -58.5t-43.5 -84t-17 -119q0 -80 27 -141t72.5 -105.5t106 -71.5t126.5 -37v654q0 54 19.5 90t50 57.5t69 30.5t77.5 9q93 0 179.5 -38
t153.5 -104t107 -154.5t40 -189.5q0 -115 -41.5 -203t-111 -150t-160.5 -98t-191 -47v-497h-192v497zM906 835q-27 0 -45.5 -12t-18.5 -48v-637q67 12 127.5 39t106.5 71t73.5 105.5t27.5 141.5q0 70 -23 132t-61.5 108t-87 73t-99.5 27z" />
    <glyph glyph-name="omega1" unicode="&#x3d6;" horiz-adv-x="1600" 
d="M1500 942h-191l108 -57q16 -28 28 -60.5t20.5 -77t13 -106t4.5 -146.5q0 -40 -4 -93t-17.5 -110t-40 -112.5t-71 -99t-110 -70.5t-157.5 -27q-58 0 -102.5 10t-78.5 28.5t-60.5 43.5t-48.5 55q-22 -30 -48.5 -55t-60.5 -43.5t-78 -28.5t-102 -10q-92 0 -157.5 27
t-110 70.5t-71 99t-40 112.5t-17.5 110t-4 93q0 85 4.5 146.5t13 106t20.5 77t28 60.5l108 57h-198l20 158h1420zM887 725v-243q0 -71 8 -135t29.5 -112.5t60 -77t98.5 -28.5t100.5 30.5t65 81.5t34.5 117.5t10 138.5q0 108 -9.5 183.5t-25 127t-35.5 83t-41 51.5h-778
q-21 -20 -41 -51.5t-35 -83t-24.5 -127t-9.5 -183.5q0 -72 10 -138.5t34.5 -117.5t65 -81.5t100.5 -30.5t98.5 28.5t60 77t29.5 112.5t8 135v263z" />
    <glyph glyph-name="hyphentwo" unicode="&#x2010;" horiz-adv-x="900" 
d="M200 600h500v-155h-500v155z" />
    <glyph glyph-name="endash" unicode="&#x2013;" horiz-adv-x="1100" 
d="M0 600h1000v-154h-1000v154z" />
    <glyph glyph-name="emdash" unicode="&#x2014;" horiz-adv-x="2100" 
d="M0 600h2000v-154h-2000v154z" />
    <glyph glyph-name="quotationdash" unicode="&#x2015;" horiz-adv-x="1600" 
d="M200 600h1200v-155h-1200v155z" />
    <glyph glyph-name="dblverticalbar" unicode="&#x2016;" horiz-adv-x="800" 
d="M355 1500v-1500h-155v1500h155zM655 1500v-1500h-155v1500h155z" />
    <glyph glyph-name="quoteleft" unicode="&#x2018;" horiz-adv-x="700" 
d="M424 1095q0 -25 -10 -47t-27 -38.5t-39.5 -26t-47.5 -9.5t-47.5 8.5t-40 25.5t-27.5 42.5t-10 58.5q0 43 5.5 85.5t22.5 85.5t48.5 87.5t84.5 92.5l44 -20q-19 -37 -34 -76q-13 -33 -23.5 -72.5t-10.5 -75.5q21 -1 41 -9.5t36 -23.5t25.5 -37.5t9.5 -50.5z" />
    <glyph glyph-name="quoteright" unicode="&#x2019;" horiz-adv-x="700" 
d="M176 1305q0 25 10 47t27 38.5t39.5 26t47.5 9.5t47.5 -8.5t39.5 -25.5t27.5 -42.5t10.5 -58.5q0 -44 -5.5 -86t-22.5 -85t-49 -87.5t-84 -92.5l-44 20q19 37 34 76q13 33 23.5 72t10.5 76q-21 1 -41 9.5t-36 23.5t-25.5 37t-9.5 51z" />
    <glyph glyph-name="quotesinglbase" unicode="&#x201a;" horiz-adv-x="700" 
d="M176 105q0 25 10 47t27 38.5t39.5 26t47.5 9.5t47.5 -8.5t39.5 -25.5t27.5 -42.5t10.5 -58.5q0 -44 -5.5 -86t-22.5 -85t-49 -87.5t-84 -92.5l-44 20q19 37 34 76q13 33 23.5 72t10.5 76q-21 1 -41 9.5t-36 23.5t-25.5 37t-9.5 51z" />
    <glyph glyph-name="quotedblleft" unicode="&#x201c;" horiz-adv-x="1000" 
d="M424 1095q0 -25 -10 -47t-27 -38.5t-39.5 -26t-47.5 -9.5t-47.5 8.5t-40 25.5t-27.5 42.5t-10 58.5q0 43 5.5 85.5t22.5 85.5t48.5 87.5t84.5 92.5l44 -20q-19 -37 -34 -76q-13 -33 -23.5 -72.5t-10.5 -75.5q21 -1 41 -9.5t36 -23.5t25.5 -37.5t9.5 -50.5zM824 1095
q0 -25 -10 -47t-27 -38.5t-39.5 -26t-47.5 -9.5t-47.5 8.5t-40 25.5t-27.5 42.5t-10 58.5q0 43 5.5 85.5t22.5 85.5t48.5 87.5t84.5 92.5l44 -20q-19 -37 -34 -76q-13 -33 -23.5 -72.5t-10.5 -75.5q21 -1 41 -9.5t36 -23.5t25.5 -37.5t9.5 -50.5z" />
    <glyph glyph-name="quotedblright" unicode="&#x201d;" horiz-adv-x="1000" 
d="M176 1305q0 25 10 47t27 38.5t39.5 26t47.5 9.5t47.5 -8.5t39.5 -25.5t27.5 -42.5t10.5 -58.5q0 -44 -5.5 -86t-22.5 -85t-49 -87.5t-84 -92.5l-44 20q19 37 34 76q13 33 23.5 72t10.5 76q-21 1 -41 9.5t-36 23.5t-25.5 37t-9.5 51zM576 1305q0 25 10 47t27 38.5t39.5 26
t47.5 9.5t47.5 -8.5t39.5 -25.5t27.5 -42.5t10.5 -58.5q0 -44 -5.5 -86t-22.5 -85t-49 -87.5t-84 -92.5l-44 20q19 37 34 76q13 33 23.5 72t10.5 76q-21 1 -41 9.5t-36 23.5t-25.5 37t-9.5 51z" />
    <glyph glyph-name="quotedblbase" unicode="&#x201e;" horiz-adv-x="1000" 
d="M176 105q0 25 10 47t27 38.5t39.5 26t47.5 9.5t47.5 -8.5t39.5 -25.5t27.5 -42.5t10.5 -58.5q0 -44 -5.5 -86t-22.5 -85t-49 -87.5t-84 -92.5l-44 20q19 37 34 76q13 33 23.5 72t10.5 76q-21 1 -41 9.5t-36 23.5t-25.5 37t-9.5 51zM576 105q0 25 10 47t27 38.5t39.5 26
t47.5 9.5t47.5 -8.5t39.5 -25.5t27.5 -42.5t10.5 -58.5q0 -44 -5.5 -86t-22.5 -85t-49 -87.5t-84 -92.5l-44 20q19 37 34 76q13 33 23.5 72t10.5 76q-21 1 -41 9.5t-36 23.5t-25.5 37t-9.5 51z" />
    <glyph glyph-name="dagger" unicode="&#x2020;" horiz-adv-x="1100" 
d="M100 1049h300v451l200 20v-471h320l-20 -149h-300v-1300h-200v1300h-300v149z" />
    <glyph glyph-name="daggerdbl" unicode="&#x2021;" horiz-adv-x="1000" 
d="M100 1049h300v451l200 20v-471h320l-20 -149h-300v-600h300v-150h-300v-550h-200v550h-300v150h300v600h-300v149z" />
    <glyph glyph-name="bullet" unicode="&#x2022;" 
d="M298 807q0 60 23.5 113.5t63.5 93t93.5 63t113.5 23.5t113.5 -23.5t93.5 -63t63.5 -93t23.5 -113.5t-23 -114.5t-62.5 -95.5t-92.5 -65t-113 -24t-114 24t-94.5 65t-64.5 95.5t-24 114.5z" />
    <glyph glyph-name="triangularbullet" unicode="&#x2023;" horiz-adv-x="900" 
d="M200 956l500 -306l-500 -300v606z" />
    <glyph glyph-name="ellipsis" unicode="&#x2026;" horiz-adv-x="1500" 
d="M87 150q0 34 13 64t35.5 52.5t52 35.5t63.5 13t64 -13t52.5 -35.5t35.5 -52.5t13 -64t-13 -64.5t-35 -53t-51.5 -36t-63.5 -13.5t-64.5 13.5t-53 36t-35.5 53t-13 64.5zM587 150q0 34 13 64t35.5 52.5t52 35.5t63.5 13t64 -13t52.5 -35.5t35.5 -52.5t13 -64t-13 -64.5
t-35 -53t-51.5 -36t-63.5 -13.5t-64.5 13.5t-53 36t-35.5 53t-13 64.5zM1087 150q0 34 13 64t35.5 52.5t52 35.5t63.5 13t64 -13t52.5 -35.5t35.5 -52.5t13 -64t-13 -64.5t-35 -53t-51.5 -36t-63.5 -13.5t-64.5 13.5t-53 36t-35.5 53t-13 64.5z" />
    <glyph glyph-name="perthousand" unicode="&#x2030;" horiz-adv-x="2600" 
d="M2100 -20q-74 0 -135 29t-105 80t-68.5 120.5t-24.5 150.5q0 80 23.5 148.5t66.5 118.5t104.5 78t138.5 28q73 0 134 -28t105 -78t68.5 -118.5t24.5 -148.5q0 -81 -23.5 -150.5t-67 -120.5t-104.5 -80t-137 -29zM2276 349q0 45 -10 89t-31 78.5t-54.5 56t-81.5 21.5
q-45 0 -77.5 -18.5t-53 -49.5t-30.5 -70t-10 -81q0 -46 10 -89.5t31 -77.5t54.5 -55t80.5 -21q45 0 77.5 18.5t53.5 49t31 69.5t10 80zM590 0h-190l820 1500h180zM398 764q-74 0 -135 29t-105 80t-68.5 120.5t-24.5 150.5q0 80 23.5 148.5t66.5 118.5t104.5 78t138.5 28
q73 0 134 -28t105 -78t68.5 -118.5t24.5 -148.5q0 -81 -23.5 -150.5t-67 -120.5t-104.5 -80t-137 -29zM574 1133q0 45 -10 89t-31 78.5t-54.5 56t-81.5 21.5q-45 0 -77.5 -18.5t-53 -49.5t-30.5 -70t-10 -81q0 -46 10 -89.5t31 -77.5t54.5 -55t80.5 -21q45 0 77.5 18.5
t53.5 49t31 69.5t10 80zM1400 -17q-74 0 -135 29t-105 80t-68.5 120.5t-24.5 150.5q0 80 23.5 148.5t66.5 118.5t104.5 78t138.5 28q73 0 134 -28t105 -78t68.5 -118.5t24.5 -148.5q0 -81 -23.5 -150.5t-67 -120.5t-104.5 -80t-137 -29zM1576 352q0 45 -10 89t-31 78.5
t-54.5 56t-81.5 21.5q-45 0 -77.5 -18.5t-53 -49.5t-30.5 -70t-10 -81q0 -46 10 -89.5t31 -77.5t54.5 -55t80.5 -21q45 0 77.5 18.5t53.5 49t31 69.5t10 80z" />
    <glyph glyph-name="pertenthousandsign" unicode="&#x2031;" horiz-adv-x="3300" 
d="M2100 -17q-74 0 -135 29t-105 80t-68.5 120.5t-24.5 150.5q0 80 23.5 148.5t66.5 118.5t104.5 78t138.5 28q73 0 134 -28t105 -78t68.5 -118.5t24.5 -148.5q0 -81 -23.5 -150.5t-67 -120.5t-104.5 -80t-137 -29zM2276 352q0 45 -10 89t-31 78.5t-54.5 56t-81.5 21.5
q-45 0 -77.5 -18.5t-53 -49.5t-30.5 -70t-10 -81q0 -46 10 -89.5t31 -77.5t54.5 -55t80.5 -21q45 0 77.5 18.5t53.5 49t31 69.5t10 80zM2800 -17q-74 0 -135 29t-105 80t-68.5 120.5t-24.5 150.5q0 80 23.5 148.5t66.5 118.5t104.5 78t138.5 28q73 0 134 -28t105 -78
t68.5 -118.5t24.5 -148.5q0 -81 -23.5 -150.5t-67 -120.5t-104.5 -80t-137 -29zM2976 352q0 45 -10 89t-31 78.5t-54.5 56t-81.5 21.5q-45 0 -77.5 -18.5t-53 -49.5t-30.5 -70t-10 -81q0 -46 10 -89.5t31 -77.5t54.5 -55t80.5 -21q45 0 77.5 18.5t53.5 49t31 69.5t10 80z
M590 0h-190l820 1500h180zM398 764q-74 0 -135 29t-105 80t-68.5 120.5t-24.5 150.5q0 80 23.5 148.5t66.5 118.5t104.5 78t138.5 28q73 0 134 -28t105 -78t68.5 -118.5t24.5 -148.5q0 -81 -23.5 -150.5t-67 -120.5t-104.5 -80t-137 -29zM574 1133q0 45 -10 89t-31 78.5
t-54.5 56t-81.5 21.5q-45 0 -77.5 -18.5t-53 -49.5t-30.5 -70t-10 -81q0 -46 10 -89.5t31 -77.5t54.5 -55t80.5 -21q45 0 77.5 18.5t53.5 49t31 69.5t10 80zM1400 -17q-74 0 -135 29t-105 80t-68.5 120.5t-24.5 150.5q0 80 23.5 148.5t66.5 118.5t104.5 78t138.5 28
q73 0 134 -28t105 -78t68.5 -118.5t24.5 -148.5q0 -81 -23.5 -150.5t-67 -120.5t-104.5 -80t-137 -29zM1576 352q0 45 -10 89t-31 78.5t-54.5 56t-81.5 21.5q-45 0 -77.5 -18.5t-53 -49.5t-30.5 -70t-10 -81q0 -46 10 -89.5t31 -77.5t54.5 -55t80.5 -21q45 0 77.5 18.5
t53.5 49t31 69.5t10 80z" />
    <glyph glyph-name="minute" unicode="&#x2032;" horiz-adv-x="500" 
d="M348 1245l-164 -360h-85l70 360v272l179 -24v-248z" />
    <glyph glyph-name="second" unicode="&#x2033;" horiz-adv-x="800" 
d="M348 1245l-164 -360h-85l70 360v272l179 -24v-248zM648 1245l-164 -360h-85l70 360v272l179 -24v-248z" />
    <glyph glyph-name="tripleprime" unicode="&#x2034;" horiz-adv-x="1100" 
d="M348 1245l-164 -360h-85l70 360v272l179 -24v-248zM648 1245l-164 -360h-85l70 360v272l179 -24v-248zM948 1245l-164 -360h-85l70 360v272l179 -24v-248z" />
    <glyph glyph-name="primereversed" unicode="&#x2035;" horiz-adv-x="500" 
d="M152 1493l179 24v-272l70 -360h-85l-164 360v248z" />
    <glyph glyph-name="guilsinglleft" unicode="&#x2039;" horiz-adv-x="900" 
d="M670 1026l50 -125l-325 -291l-138 -60l137 -60l328 -289l-54 -135l-468 412v139z" />
    <glyph glyph-name="guilsinglright" unicode="&#x203a;" horiz-adv-x="900" 
d="M700 617v-139l-468 -412l-54 135l328 289l137 60l-138 60l-325 291l50 125z" />
    <glyph glyph-name="asterism" unicode="&#x2042;" horiz-adv-x="1100" 
d="M615 1097l70 -96l-49 -45l-75 103l-12 36l-12 -36l-70 -96l-58 33l74 102l33 22l-41 2l-111 37l13 65l119 -38l33 -26l-11 41v117l67 7v-126l-13 -40l33 25l112 36l27 -61l-121 -39l-39 -2zM915 497l70 -96l-49 -45l-75 103l-12 36l-12 -36l-70 -96l-58 33l74 102l33 22
l-41 2l-111 37l13 65l119 -38l33 -26l-11 41v117l67 7v-126l-13 -40l33 25l112 36l27 -61l-121 -39l-39 -2zM315 497l70 -96l-49 -45l-75 103l-12 36l-12 -36l-70 -96l-58 33l74 102l33 22l-41 2l-111 37l13 65l119 -38l33 -26l-11 41v117l67 7v-126l-13 -40l33 25l112 36
l27 -61l-121 -39l-39 -2z" />
    <glyph glyph-name="twoasterisksvertical" unicode="&#x2051;" horiz-adv-x="700" 
d="M415 1097l70 -96l-49 -45l-75 103l-12 36l-12 -36l-70 -96l-58 33l74 102l33 22l-41 2l-111 37l13 65l119 -38l33 -26l-11 41v117l67 7v-126l-13 -40l33 25l112 36l27 -61l-121 -39l-39 -2zM415 497l70 -96l-49 -45l-75 103l-12 36l-12 -36l-70 -96l-58 33l74 102l33 22
l-41 2l-111 37l13 65l119 -38l33 -26l-11 41v117l67 7v-126l-13 -40l33 25l112 36l27 -61l-121 -39l-39 -2z" />
    <glyph glyph-name="zerosuperior" unicode="&#x2070;" horiz-adv-x="800" 
d="M300 711q-43 0 -78.5 16.5t-63.5 44.5t-49.5 65.5t-35.5 80t-21 88t-7 89.5q0 45 6 91t19 88.5t33 79.5t48.5 64.5t65 43.5t83.5 16q42 0 77.5 -16t64 -44t49.5 -65.5t35.5 -80.5t21.5 -88.5t7 -88.5q0 -45 -6 -91t-19 -88.5t-33.5 -80t-48.5 -65t-65 -43.5t-83 -16z
M148 1116q0 -29 2 -63.5t8 -70t17 -68.5t28 -58.5t42 -41t59 -15.5q30 0 53 11.5t39.5 32t27 47t16.5 57t8.5 63t2.5 63.5q0 29 -2 64t-8 70t-16.5 68t-28 58.5t-42 41t-58.5 15.5q-31 0 -53.5 -11.5t-39 -31.5t-27 -47t-17 -57.5t-9 -63t-2.5 -63.5z" />
    <glyph glyph-name="ismallsuperior" unicode="&#x2071;" horiz-adv-x="300" 
d="M195 720h-95v527l95 10v-537zM97 1470h101v-100h-101v100z" />
    <glyph glyph-name="foursuperior" unicode="&#x2074;" horiz-adv-x="600" 
d="M542 870h-90v-150h-105v150h-297v85l242 525l94 -10l-207 -450l-47 -70h215v203l105 -8v-195h98z" />
    <glyph glyph-name="fivesuperior" unicode="&#x2075;" horiz-adv-x="600" 
d="M204 1211q3 2 12 6.5t22 9t29.5 7.5t37.5 3q52 0 92.5 -16t69 -44.5t43 -66.5t14.5 -81q0 -50 -18 -93t-49 -77t-73 -60t-89 -44t-97 -26.5t-98 -8.5v80q37 1 75.5 9t74.5 22t67 33.5t54.5 43t37 51.5t13.5 60q0 25 -8.5 49t-24.5 43t-40.5 30.5t-57.5 11.5
q-25 0 -45.5 -3.5t-37 -8t-28 -10.5t-18.5 -11h-62v350h376v-80h-272v-179z" />
    <glyph glyph-name="sixsuperior" unicode="&#x2076;" horiz-adv-x="600" 
d="M464 1392q-3 1 -10 1h-12q-36 0 -70 -11t-64 -31.5t-55.5 -49t-44.5 -63t-31.5 -73.5t-16.5 -80l41 58q13 8 29.5 15.5t35 13t37.5 8.5t36 3q44 0 84 -12t71.5 -37t50 -64t18.5 -94q0 -54 -18 -102t-51 -84.5t-79 -57.5t-102 -21q-49 0 -87 16t-66 42t-46.5 59.5
t-30.5 68.5t-17 69.5t-5 63.5q0 59 12.5 115.5t35.5 106.5t56.5 91.5t76.5 71.5t94 46.5t110 16.5h17q9 0 14 -1zM164 1018q0 -14 0.5 -25.5t1.5 -22.5t3 -22t6 -25q7 -28 19 -51.5t29 -40t40 -26t51 -9.5q40 0 67.5 15t45 40t26 56.5t8.5 63.5t-9.5 56t-26.5 39.5
t-40.5 23.5t-52.5 8q-27 0 -52.5 -6.5t-48 -17.5t-39.5 -25.5t-28 -30.5z" />
    <glyph glyph-name="sevensuperior" unicode="&#x2077;" horiz-adv-x="600" 
d="M100 1470h450v-65q0 -22 -16.5 -55.5t-41.5 -75.5t-54.5 -90.5t-56.5 -99t-47 -101.5t-25 -99q-3 -20 -4 -42t-2 -43.5t-1 -41.5v-37h-102v40q0 25 1 53t3.5 55.5t6.5 47.5q11 53 32.5 105t47 99.5t52 90t48 77.5t35 61t13.5 41h-339v80z" />
    <glyph glyph-name="eightsuperior" unicode="&#x2078;" horiz-adv-x="600" 
d="M305 1478q46 0 85 -12.5t67 -36t44 -57t16 -75.5q0 -29 -8.5 -52t-23.5 -41.5t-35 -33t-42 -27.5q37 -17 66.5 -38t49.5 -48t31 -60t11 -72q0 -56 -22 -96t-58.5 -66.5t-82.5 -39t-95 -12.5q-47 0 -91 14.5t-78 42t-54.5 69t-20.5 95.5q0 40 11.5 72.5t31.5 58.5t47.5 46
t59.5 36q-23 14 -43.5 29.5t-35.5 33.5t-24 38.5t-9 45.5q0 48 19.5 83.5t49.5 58t65.5 33.5t68.5 11zM300 1100q-32 -14 -57 -30t-43 -37t-27.5 -47t-9.5 -59q0 -30 12 -54.5t32.5 -42.5t47 -27.5t54.5 -9.5q32 0 60.5 9t50.5 26t34.5 42t12.5 57q0 34 -15 60t-38.5 47
t-53.5 37t-60 29zM320 1181q46 21 73.5 50t27.5 70q0 25 -10.5 43t-26 29.5t-34 17t-35.5 5.5q-23 0 -44 -7t-37 -19.5t-25.5 -29.5t-9.5 -37q0 -23 9.5 -40.5t26.5 -32t39 -26.5t46 -23z" />
    <glyph glyph-name="ninesuperior" unicode="&#x2079;" horiz-adv-x="600" 
d="M424 1051q-30 -23 -59.5 -34t-67.5 -11q-49 0 -91.5 16.5t-74 46.5t-49.5 72t-18 94q0 54 17.5 98.5t49 77t77 50t101.5 17.5q50 0 88 -15.5t66 -41t47 -58.5t30 -68.5t16 -70.5t5 -64q0 -59 -12 -114t-34.5 -104t-55.5 -90t-75.5 -71.5t-93.5 -48.5t-110 -21l-15 84
q60 3 112.5 28.5t93 67.5t65 98.5t28.5 120.5zM458 1196q-2 38 -11.5 73t-27 63t-44 44.5t-62.5 16.5q-34 0 -61 -11t-46 -30.5t-29.5 -47t-10.5 -60.5q0 -32 8.5 -60t25 -48.5t42.5 -32.5t60 -12q27 0 51 8.5t44.5 23t36 33.5t24.5 40z" />
    <glyph glyph-name="plussuperior" unicode="&#x207a;" horiz-adv-x="600" 
d="M50 1070h186v210h78v-210h186v-78h-186v-211h-78v211h-186v78z" />
    <glyph glyph-name="minussuperior" unicode="&#x207b;" horiz-adv-x="600" 
d="M50 1070h450v-78h-450v78z" />
    <glyph glyph-name="equalsuperior" unicode="&#x207c;" horiz-adv-x="500" 
d="M50 1070h400v-70h-400v70zM50 920h400v-70h-400v70z" />
    <glyph glyph-name="parenleftsuperior" unicode="&#x207d;" horiz-adv-x="400" 
d="M100 1307q0 44 4.5 82.5t19.5 67t45 44.5t81 16q9 0 19.5 -1t20 -2.5t17.5 -4t12 -5.5l-34 -63q-3 1 -7 1q-4 1 -8.5 1.5t-9.5 0.5q-22 0 -34.5 -10.5t-18 -28.5t-6.5 -41.5t-1 -49.5v-604q0 -26 1 -49.5t6.5 -41.5t18 -28.5t34.5 -10.5h9q5 0 9 1q4 0 7 1l34 -63
q-4 -3 -12 -5.5t-17.5 -4t-20 -2t-19.5 -0.5q-51 0 -81 16t-45 44t-19.5 66.5t-4.5 83.5v590z" />
    <glyph glyph-name="parenrightsuperior" unicode="&#x207e;" horiz-adv-x="500" 
d="M349 717q0 -45 -4.5 -83.5t-19.5 -66.5t-45 -44t-81 -16q-9 0 -19.5 0.5t-20 2t-17.5 4t-12 5.5l34 63q3 -1 7 -1q4 -1 8 -1h10q22 0 34.5 10.5t18 28.5t6.5 41.5t1 49.5v604q0 26 -1 49.5t-6.5 41.5t-18 28.5t-34.5 10.5q-5 0 -9.5 -0.5t-8.5 -1.5q-4 0 -7 -1l-34 63
q4 3 12 5.5t17.5 4t20 2.5t19.5 1q51 0 81 -16t45 -44.5t19.5 -67t4.5 -82.5v-590z" />
    <glyph glyph-name="nsuperior" unicode="&#x207f;" horiz-adv-x="600" 
d="M195 720h-95v550l95 10v-92l30 54q9 6 23 12.5t31.5 11.5t37.5 8.5t40 3.5q40 0 67 -12.5t44 -36.5t24.5 -58t7.5 -76v-375h-95v375q0 27 -4 46.5t-13 32t-24.5 18.5t-38.5 6q-17 0 -34.5 -5t-34.5 -13.5t-32.5 -18.5t-28.5 -19v-422z" />
    <glyph glyph-name="zeroinferior" unicode="&#x2080;" horiz-adv-x="600" 
d="M300 -509q-43 0 -78.5 16.5t-63.5 44.5t-49.5 65.5t-35.5 80t-21 88t-7 89.5q0 45 6 91t19 88.5t33 79.5t48.5 64.5t65 43.5t83.5 16q42 0 77.5 -16t64 -44t49.5 -65.5t35.5 -80.5t21.5 -88.5t7 -88.5q0 -45 -6 -91t-19 -88.5t-33.5 -80t-48.5 -65t-65 -43.5t-83 -16z
M148 -104q0 -29 2 -63.5t8 -70t17 -68.5t28 -58.5t42 -41t59 -15.5q30 0 53 11.5t39.5 32t27 47t16.5 57t8.5 63t2.5 63.5q0 29 -2 64t-8 70t-16.5 68t-28 58.5t-42 41t-58.5 15.5q-31 0 -53.5 -11.5t-39 -31.5t-27 -47t-17 -57.5t-9 -63t-2.5 -63.5z" />
    <glyph glyph-name="oneinferior" unicode="&#x2081;" horiz-adv-x="600" 
d="M175 -500v80h122v483l29 113l-68 -93l-106 -94l-54 61l229 210l75 -10v-670h123v-80h-350z" />
    <glyph glyph-name="twoinferior" unicode="&#x2082;" horiz-adv-x="600" 
d="M76 -500v84q24 38 51.5 74.5t56 71t56 65t50.5 56.5q25 28 48 52.5t40.5 49t28 50t10.5 54.5q0 24 -9 45.5t-25 37t-38.5 25t-49.5 9.5q-31 0 -53 -8.5t-39 -22t-29 -30t-23 -33.5l-70 30q13 32 33 59.5t47.5 47t62.5 30.5t78 11q51 0 90.5 -18t66.5 -47t41.5 -66
t14.5 -75q0 -39 -14.5 -73.5t-35.5 -66t-45.5 -59t-45.5 -51.5q-26 -30 -52 -59.5t-49.5 -58t-44 -54.5t-35.5 -50h335v-80h-452z" />
    <glyph glyph-name="threeinferior" unicode="&#x2083;" horiz-adv-x="600" 
d="M107 170l8 80h365v-70q-6 -20 -20.5 -42t-33.5 -44t-42 -43.5t-46 -41.5l-66 -37q5 1 13 1.5t15 0.5q48 0 90 -12t72.5 -36.5t48.5 -61.5t18 -88q0 -48 -18 -87.5t-49.5 -70.5t-73.5 -53t-89.5 -36.5t-98.5 -21.5t-100 -7v80q41 1 81 7t76 17t66.5 26.5t53 36t35 46.5
t12.5 58q0 36 -15.5 60t-42 38t-62 20t-76.5 6q-16 0 -35 -1t-34 -2v78q21 15 45 34t48.5 39.5t47.5 42t42 40.5t32 35.5t17 28.5l-76 -20h-208z" />
    <glyph glyph-name="fourinferior" unicode="&#x2084;" horiz-adv-x="600" 
d="M542 -350h-90v-150h-105v150h-297v85l242 525l94 -10l-207 -450l-47 -70h215v203l105 -8v-195h98z" />
    <glyph glyph-name="fiveinferior" unicode="&#x2085;" horiz-adv-x="600" 
d="M204 -9q3 2 12 6.5t22 9t29.5 7.5t37.5 3q52 0 92.5 -16t69 -44.5t43 -66.5t14.5 -81q0 -50 -18 -93t-49 -77t-73 -60t-89 -44t-97 -26.5t-98 -8.5v80q37 1 75.5 9t74.5 22t67 33.5t54.5 43t37 51.5t13.5 60q0 25 -8.5 49t-24.5 43t-40.5 30.5t-57.5 11.5
q-25 0 -45.5 -3.5t-37 -8t-28 -10.5t-18.5 -11h-62v350h376v-80h-272v-179z" />
    <glyph glyph-name="sixinferior" unicode="&#x2086;" horiz-adv-x="600" 
d="M464 172q-3 1 -10 1h-12q-36 0 -70 -11t-64 -31.5t-55.5 -49t-44.5 -63t-31.5 -73.5t-16.5 -80l41 58q13 8 29.5 15.5t35 13t37.5 8.5t36 3q44 0 84 -12t71.5 -37t50 -64t18.5 -94q0 -54 -18 -102t-51 -84.5t-79 -57.5t-102 -21q-49 0 -87 16t-66 42t-46.5 59.5
t-30.5 68.5t-17 69.5t-5 63.5q0 59 12.5 115.5t35.5 106.5t56.5 91.5t76.5 71.5t94 46.5t110 16.5h17q9 0 14 -1zM164 -202q0 -14 0.5 -25.5t1.5 -22.5t3 -22t6 -25q7 -28 19 -51.5t29 -40t40 -26t51 -9.5q40 0 67.5 15t45 40t26 56.5t8.5 63.5t-9.5 56t-26.5 39.5
t-40.5 23.5t-52.5 8q-27 0 -52.5 -6.5t-48 -17.5t-39.5 -25.5t-28 -30.5z" />
    <glyph glyph-name="seveninferior" unicode="&#x2087;" horiz-adv-x="600" 
d="M100 250h450v-65q0 -22 -16.5 -55.5t-41.5 -75.5t-54.5 -90.5t-56.5 -99t-47 -101.5t-25 -99q-3 -20 -4 -42t-2 -43.5t-1 -41.5v-37h-102v40q0 25 1 53t3.5 55.5t6.5 47.5q11 53 32.5 105t47 99.5t52 90t48 77.5t35 61t13.5 41h-339v80z" />
    <glyph glyph-name="heightinferior" unicode="&#x2088;" horiz-adv-x="600" 
d="M305 258q46 0 85 -12.5t67 -36t44 -57t16 -75.5q0 -29 -8.5 -52t-23.5 -41.5t-35 -33t-42 -27.5q37 -17 66.5 -38t49.5 -48t31 -60t11 -72q0 -56 -22 -96t-58.5 -66.5t-82.5 -39t-95 -12.5q-47 0 -91 14.5t-78 42t-54.5 69t-20.5 95.5q0 40 11.5 72.5t31.5 58.5t47.5 46
t59.5 36q-23 14 -43.5 29.5t-35.5 33.5t-24 38.5t-9 45.5q0 48 19.5 83.5t49.5 58t65.5 33.5t68.5 11zM300 -120q-32 -14 -57 -30t-43 -37t-27.5 -47t-9.5 -59q0 -30 12 -54.5t32.5 -42.5t47 -27.5t54.5 -9.5q32 0 60.5 9t50.5 26t34.5 42t12.5 57q0 34 -15 60t-38.5 47
t-53.5 37t-60 29zM320 -39q46 21 73.5 50t27.5 70q0 25 -10.5 43t-26 29.5t-34 17t-35.5 5.5q-23 0 -44 -7t-37 -19.5t-25.5 -29.5t-9.5 -37q0 -23 9.5 -40.5t26.5 -32t39 -26.5t46 -23z" />
    <glyph glyph-name="nineinferior" unicode="&#x2089;" horiz-adv-x="600" 
d="M424 -169q-30 -23 -59.5 -34t-67.5 -11q-49 0 -91.5 16.5t-74 46.5t-49.5 72t-18 94q0 54 17.5 98.5t49 77t77 50t101.5 17.5q50 0 88 -15.5t66 -41t47 -58.5t30 -68.5t16 -70.5t5 -64q0 -59 -12 -114t-34.5 -104t-55.5 -90t-75.5 -71.5t-93.5 -48.5t-110 -21l-15 84
q60 3 112.5 28.5t93 67.5t65 98.5t28.5 120.5zM458 -24q-2 38 -11.5 73t-27 63t-44 44.5t-62.5 16.5q-34 0 -61 -11t-46 -30.5t-29.5 -47t-10.5 -60.5q0 -32 8.5 -60t25 -48.5t42.5 -32.5t60 -12q27 0 51 8.5t44.5 23t36 33.5t24.5 40z" />
    <glyph glyph-name="plusinferior" unicode="&#x208a;" horiz-adv-x="600" 
d="M50 -150h186v210h78v-210h186v-78h-186v-211h-78v211h-186v78z" />
    <glyph glyph-name="minusinferior" unicode="&#x208b;" horiz-adv-x="600" 
d="M50 -150h450v-78h-450v78z" />
    <glyph glyph-name="equalinferior" unicode="&#x208c;" horiz-adv-x="600" 
d="M50 -150h400v-70h-400v70zM50 -300h400v-70h-400v70z" />
    <glyph glyph-name="parenleftinferior" unicode="&#x208d;" horiz-adv-x="400" 
d="M100 90q0 44 4.5 82.5t19.5 67t45 44.5t81 16q9 0 19.5 -1t20 -2.5t17.5 -4t12 -5.5l-34 -63q-3 1 -7 1q-4 1 -8.5 1.5t-9.5 0.5q-22 0 -34.5 -10.5t-18 -28.5t-6.5 -41.5t-1 -49.5v-604q0 -26 1 -49.5t6.5 -41.5t18 -28.5t34.5 -10.5h9q5 0 9 1q4 0 7 1l34 -63
q-4 -3 -12 -5.5t-17.5 -4t-20 -2t-19.5 -0.5q-51 0 -81 16t-45 44t-19.5 66.5t-4.5 83.5v590z" />
    <glyph glyph-name="parenrightinferior" unicode="&#x208e;" horiz-adv-x="400" 
d="M349 -500q0 -45 -4.5 -83.5t-19.5 -66.5t-45 -44t-81 -16q-9 0 -19.5 0.5t-20 2t-17.5 4t-12 5.5l34 63q3 -1 7 -1q4 -1 8 -1h10q22 0 34.5 10.5t18 28.5t6.5 41.5t1 49.5v604q0 26 -1 49.5t-6.5 41.5t-18 28.5t-34.5 10.5q-5 0 -9.5 -0.5t-8.5 -1.5q-4 0 -7 -1l-34 63
q4 3 12 5.5t17.5 4t20 2.5t19.5 1q51 0 81 -16t45 -44.5t19.5 -67t4.5 -82.5v-590z" />
    <glyph glyph-name="Euro" unicode="&#x20ac;" horiz-adv-x="1400" 
d="M453 651h397l-79 -151h-332q22 -71 57.5 -134t84 -110t112 -75t141.5 -28q45 0 82 4t71.5 13t68.5 23.5t73 36.5l77 -126q-82 -66 -181 -93.5t-217 -27.5q-113 0 -208 38.5t-169 107.5t-127 163.5t-82 207.5h-174v151h147q-6 58 -6 119q0 39 3 80h-144v150h165
q24 111 74 205.5t127 163.5t181 108.5t236 39.5q115 0 218 -37.5t175 -106.5l-63 -121q-63 45 -142 70.5t-172 25.5q-96 0 -169 -29t-126 -80.5t-86.5 -122t-50.5 -153.5l58 37h557l-78 -150h-552q-2 -19 -2 -38v-39q0 -22 1 -43.5t3 -44.5l-33 -89z" />
    <glyph glyph-name="indianrupee" unicode="&#x20b9;" 
d="M170 1350l40 150h868l-78 -150h-210l-104 25l75 -66q29 -33 42 -73t15 -85h261l-79 -151h-154l-100 16l61 -61q-26 -77 -67.5 -132t-96.5 -93t-122 -61t-143 -36l142 -40l443 -593h-223l-443 595q-11 14 -25 16.5t-22 2.5h-50v151h78q76 0 135 18t102 49.5t70.5 74.5
t39.5 93h-455l40 151h418q-11 57 -39.5 97t-68.5 66q-9 6 -20.5 12t-29.5 11.5t-44 9t-64 3.5h-192z" />
    <glyph glyph-name="centigrade" unicode="&#x2103;" horiz-adv-x="1800" 
d="M1706 104q-82 -66 -181 -93.5t-217 -27.5q-144 0 -259 62.5t-195 169.5t-122.5 250t-42.5 305q0 151 38.5 286.5t117.5 238t200 162.5t286 60q115 0 217.5 -36.5t174.5 -105.5l-90 -107q-48 32 -120.5 56t-165.5 24q-122 0 -207 -46t-139 -124.5t-78.5 -183t-24.5 -221.5
q0 -69 11 -141.5t33.5 -141.5t58 -130t84 -107t110.5 -73t139 -27q45 0 82 4t71.5 13t68.5 23.5t73 36.5zM300 1517q-56 0 -105 -21t-85.5 -58t-57.5 -86t-21 -105t21 -105t57.5 -85.5t85.5 -58t105 -21.5t105 21.5t85.5 58t57.5 85.5t21 105t-21 105t-57.5 86t-85.5 58
t-105 21zM300 1088q-33 0 -62 12.5t-50.5 34t-34 50.5t-12.5 62t12.5 62t34 50.5t50.5 34t62 12.5t62 -12.5t50.5 -34t34 -50.5t12.5 -62t-12.5 -62t-34 -50.5t-50.5 -34t-62 -12.5z" />
    <glyph glyph-name="fahrenheit" unicode="&#x2109;" horiz-adv-x="1700" 
d="M1000 0h-210v1290l-30 210h885l-20 -160h-645l20 -190v-265h540v-145h-540v-740zM300 1517q-56 0 -105 -21t-85.5 -58t-57.5 -86t-21 -105t21 -105t57.5 -85.5t85.5 -58t105 -21.5t105 21.5t85.5 58t57.5 85.5t21 105t-21 105t-57.5 86t-85.5 58t-105 21zM300 1088
q-33 0 -62 12.5t-50.5 34t-34 50.5t-12.5 62t12.5 62t34 50.5t50.5 34t62 12.5t62 -12.5t50.5 -34t34 -50.5t12.5 -62t-12.5 -62t-34 -50.5t-50.5 -34t-62 -12.5z" />
    <glyph glyph-name="Ifraktur" unicode="&#x2111;" horiz-adv-x="1100" 
d="M248 1400h710l-26 -184q-39 -23 -77 -57.5t-68 -74.5t-48.5 -81t-18.5 -77q0 -44 20.5 -92.5t52 -101t67.5 -109t67.5 -117t52 -124.5t20.5 -131q0 -74 -34 -125t-85 -83t-110 -46t-109 -14q-51 0 -102.5 12t-97 30t-83 38.5t-61.5 38.5l-18 98l-150 -134l-119 90
l229 197q39 -37 94 -71t113.5 -60.5t114 -42t96.5 -15.5q22 0 42 5t35.5 15.5t25 27t9.5 40.5q0 37 -21.5 85.5t-53.5 104t-70 115.5t-70 119.5t-53.5 116.5t-21.5 107q0 26 11.5 63t38 79t69.5 87t105 87h-424q-23 -23 -31 -51t-8 -58q0 -17 4.5 -35t9.5 -32q6 -17 15 -33
l-106 -60q-59 83 -59 174q0 130 123 279z" />
    <glyph glyph-name="lsquare" unicode="&#x2113;" horiz-adv-x="900" 
d="M100 540h100v460q0 112 15.5 207t54.5 164t104.5 107.5t165.5 38.5q56 0 104 -23t82.5 -73t54 -129.5t19.5 -191.5q0 -75 -1.5 -156t-9.5 -159t-26.5 -147.5t-51.5 -122.5t-84.5 -84t-126.5 -31h-100v-17q0 -55 5 -99.5t21 -76.5q17 -33 45 -52q32 -21 66 -25
q19 -2 30 -3t15 -1q25 0 57.5 8t51.5 19l83 -123q-21 -10 -45 -18.5t-53 -15t-65 -10t-81 -3.5q-96 0 -159.5 30.5t-101.5 84.5t-53.5 127t-15.5 158v17h-100v140zM450 540h50q29 0 49.5 19t34 51.5t21 76t11 93.5t4 103t0.5 104q0 73 -1.5 142.5t-10.5 123t-27.5 86
t-52.5 32.5q-21 0 -43.5 -16.5t-41.5 -55.5t-31 -102.5t-12 -157.5v-599z" />
    <glyph glyph-name="weierstrass" unicode="&#x2118;" horiz-adv-x="1667" 
d="M339 -358q25 0 45 18t33.5 46t21 63t7.5 70q0 36 -5.5 80.5t-14.5 89t-20.5 86t-23.5 73.5v86q-32 -54 -60 -114t-48.5 -123t-32.5 -127t-12 -126q0 -59 29.5 -90.5t80.5 -31.5zM720 1031q-62 -12 -124 -44.5t-112 -84t-81.5 -122.5t-31.5 -160q0 -42 11 -92v-122
q71 111 153.5 217.5t177 189.5t201.5 133.5t229 50.5q76 0 138 -21.5t105.5 -66.5t67 -114t23.5 -165q0 -143 -37.5 -262t-105.5 -204.5t-164.5 -133t-214.5 -47.5q-46 0 -92 16t-82.5 47t-59.5 75t-23 100q0 75 20.5 132t52.5 99.5t71 71.5t76.5 47t69 27t47.5 12l30 -140
q-25 -11 -65 -31t-78.5 -53t-66.5 -80.5t-28 -111.5q0 -25 9.5 -44t26 -32t37.5 -20t45 -7q66 0 118 26t91 69.5t66 99.5t43.5 116.5t24 120.5t7.5 110q0 43 -8 84t-28 72.5t-54 51t-86 19.5q-74 0 -142.5 -23.5t-131 -62.5t-119.5 -91t-107.5 -108t-93.5 -113.5t-79 -108.5
q30 -65 58 -128t49.5 -125.5t34 -125.5t12.5 -128q0 -61 -14 -125t-47 -116t-88 -85.5t-137 -33.5q-59 0 -99.5 20.5t-66 54.5t-36.5 79t-11 94q0 83 18.5 161t48.5 149.5t68 135.5t77 119q-15 34 -31 72.5t-29 78.5t-21.5 79.5t-8.5 75.5q0 78 21.5 146.5t58 125.5
t84 101.5t100.5 75.5t108 47t105 16z" />
    <glyph glyph-name="Rfraktur" unicode="&#x211c;" horiz-adv-x="1600" 
d="M751 588l80 72l124 29q31 7 58 31t50 57.5t41 74t30.5 81t19 78t6.5 65.5q0 32 -7.5 60.5t-16.5 49.5q-11 25 -24 46q-86 0 -146 -12.5t-100 -33.5t-63 -48.5t-34.5 -58.5t-14.5 -63.5t-3 -62.5v-365zM1192 1400q39 -26 73 -62t59 -78.5t39.5 -88t14.5 -88.5
q0 -28 -6 -68.5t-17 -86t-26.5 -92.5t-34 -88t-40.5 -72.5t-45 -46.5q37 -38 47 -81t10 -101v-157q0 -17 2.5 -35t8.5 -34.5t15 -30t22 -22.5l153 53l53 -96l-250 -142q-36 9 -76 23t-74.5 38t-57 61.5t-22.5 94.5v171q0 41 -0.5 68.5t-3.5 47.5t-10 36t-19 33l-256 -63
v-193q0 -55 -12.5 -111.5t-42 -102t-77.5 -74.5t-119 -29q-34 0 -66.5 11.5t-58.5 25.5q-30 16 -57 37l-21 100l-147 -131l-119 90l230 197l197 -144q23 12 36.5 28.5t21 34.5t10 36t2.5 32v653q0 27 9 61.5t34.5 70.5t72.5 70t124 61h-467q-23 -20 -31.5 -47t-8.5 -57
q0 -20 4.5 -38.5t9.5 -33.5q6 -18 15 -33l-106 -60q-36 47 -47.5 90t-11.5 93q0 37 10 73.5t27 71t39.5 66.5t46.5 59h944z" />
    <glyph glyph-name="trademark" unicode="&#x2122;" horiz-adv-x="1700" 
d="M400 900v533h-200v67h500v-67h-200v-533h-100zM1300 900v570l-50 -170l-130 -300h-40l-130 300l-50 170v-570h-100v600h140l120 -250l40 -150l40 150l120 250h140v-600h-100z" />
    <glyph glyph-name="Ohm" unicode="&#x2126;" horiz-adv-x="1600" 
d="M102 160h198l201 -60l-244 199q-21 30 -44.5 74t-43 102.5t-32.5 133t-13 166.5q0 165 45 301.5t131.5 234.5t212.5 152t287 54q157 0 282.5 -54t213 -152t134 -234.5t46.5 -301.5q0 -91 -12.5 -165.5t-31.5 -133t-41.5 -101.5t-41.5 -71l-250 -204l200 60h198v-160h-548
v200q70 31 129 83.5t101 122.5t65.5 155.5t23.5 182.5q0 120 -25.5 229t-82.5 192t-147 132.5t-219 49.5q-123 0 -210.5 -44t-143.5 -118t-82 -171t-26 -204q0 -112 23 -208.5t64.5 -174.5t100 -135.5t130.5 -91.5v-200h-548v160z" />
    <glyph glyph-name="angstrom" unicode="&#x212b;" horiz-adv-x="1300" 
d="M642 1878q49 0 92 -18.5t75.5 -51t51 -75.5t18.5 -92q0 -66 -31.5 -120.5t-82.5 -86.5l470 -1434h-200l-148 450h-495l-146 -450h-184l423 1300l25 142q-48 33 -77 85t-29 114q0 49 19 92t51 75.5t75.5 51t92.5 18.5zM639 1360l-36 -260l-162 -500h397l-163 500z
M643 1517q25 0 47 10t38 26.5t25.5 39t9.5 47.5t-9.5 47t-26 38.5t-38.5 26t-47 9.5t-47 -9.5t-38.5 -26t-26 -38.5t-9.5 -47t9.5 -47.5t26 -39t39 -26.5t47.5 -10z" />
    <glyph glyph-name="scriptsmallo" unicode="&#x2134;" horiz-adv-x="1100" 
d="M367 -17q-70 0 -124 22t-90.5 61.5t-55.5 95t-19 122.5q0 74 18 147.5t52 140t82.5 124t109.5 99.5t133 66t153 24q69 0 123.5 -21t92 -60t57 -93.5t19.5 -120.5q0 -74 -18.5 -147.5t-52.5 -140.5t-83 -125.5t-110.5 -101.5t-133.5 -67.5t-153 -24.5zM748 558
q0 39 -7.5 73.5t-25.5 60t-47.5 40t-74.5 14.5q-54 0 -100.5 -19t-85 -51.5t-68.5 -76t-50.5 -92t-31.5 -99.5t-11 -98q0 -40 7.5 -74t25.5 -59t48 -39.5t74 -14.5q81 0 145 39t109 101.5t69 140t24 154.5z" />
    <glyph glyph-name="aleph" unicode="&#x2135;" 
d="M688 1100q4 -56 26.5 -90t54.5 -58t68 -43t66.5 -44t50.5 -62t20 -96q0 -63 -28 -139h-86q0 39 -7.5 67.5t-20 51t-30 40t-38.5 32.5q-12 -42 -33 -73.5t-53 -63.5q97 -57 158.5 -117.5t96 -119.5t47.5 -114t13 -103q0 -55 -11 -101t-20 -67h-105q0 64 -20.5 114.5
t-56.5 93.5t-85 81t-106 78.5t-120 86.5t-126 104v108q-29 -31 -46.5 -52t-27 -36.5t-12.5 -27t-3 -21.5q0 -39 19 -74t48 -68.5t62 -66t62 -67t48 -71.5t19 -79q0 -50 -31 -103h-382l40 140h175l-153 88q-26 39 -44 86.5t-18 106.5q0 36 9 72.5t24.5 71t37.5 66t49 57.5
q-61 62 -89.5 120.5t-28.5 127.5q0 36 7.5 76t22.5 88h89q0 -58 27.5 -110.5t71.5 -100t99 -89.5t111 -79v-97q39 35 63.5 61t37.5 47t17.5 39.5t4.5 39.5v12q-45 35 -65.5 68t-20.5 78q0 51 28 131h94z" />
    <glyph glyph-name="onethirds" unicode="&#x2153;" horiz-adv-x="1500" 
d="M454 0h-135l775 1500h126zM175 720v80h122v483l29 113l-68 -93l-106 -94l-54 61l229 210l75 -10v-670h123v-80h-350zM960 670l8 80h365v-70q-6 -20 -20.5 -42t-33.5 -44t-42 -43.5t-46 -41.5l-66 -37q5 1 13 1.5t15 0.5q48 0 90 -12t72.5 -36.5t48.5 -61.5t18 -88
q0 -48 -18 -87.5t-49.5 -70.5t-73.5 -53t-89.5 -36.5t-98.5 -21.5t-100 -7v80q41 1 81 7t76 17t66.5 26.5t53 36t35 46.5t12.5 58q0 36 -15.5 60t-42 38t-62 20t-76.5 6q-16 0 -35 -1t-34 -2v78q21 15 45 34t48.5 39.5t47.5 42t42 40.5t32 35.5t17 28.5l-76 -20h-208z" />
    <glyph glyph-name="twothirds" unicode="&#x2154;" horiz-adv-x="1500" 
d="M454 0h-135l775 1500h126zM76 720v84q24 38 51.5 74.5t56 71t56 65t50.5 56.5q25 28 48 52.5t40.5 49t28 50t10.5 54.5q0 24 -9 45.5t-25 37t-38.5 25t-49.5 9.5q-31 0 -53 -8.5t-39 -22t-29 -30t-23 -33.5l-70 30q13 32 33 59.5t47.5 47t62.5 30.5t78 11q51 0 90.5 -18
t66.5 -47t41.5 -66t14.5 -75q0 -39 -14.5 -73.5t-35.5 -66t-45.5 -59t-45.5 -51.5q-26 -30 -52 -59.5t-49.5 -58t-44 -54.5t-35.5 -50h335v-80h-452zM960 670l8 80h365v-70q-6 -20 -20.5 -42t-33.5 -44t-42 -43.5t-46 -41.5l-66 -37q5 1 13 1.5t15 0.5q48 0 90 -12
t72.5 -36.5t48.5 -61.5t18 -88q0 -48 -18 -87.5t-49.5 -70.5t-73.5 -53t-89.5 -36.5t-98.5 -21.5t-100 -7v80q41 1 81 7t76 17t66.5 26.5t53 36t35 46.5t12.5 58q0 36 -15.5 60t-42 38t-62 20t-76.5 6q-16 0 -35 -1t-34 -2v78q21 15 45 34t48.5 39.5t47.5 42t42 40.5
t32 35.5t17 28.5l-76 -20h-208z" />
    <glyph glyph-name="onefifth" unicode="&#x2155;" horiz-adv-x="1500" 
d="M454 0h-135l775 1500h126zM175 720v80h122v483l29 113l-68 -93l-106 -94l-54 61l229 210l75 -10v-670h123v-80h-350zM1057 491q3 2 12 6.5t22 9t29.5 7.5t37.5 3q52 0 92.5 -16t69 -44.5t43 -66.5t14.5 -81q0 -50 -18 -93t-49 -77t-73 -60t-89 -44t-97 -26.5t-98 -8.5v80
q37 1 75.5 9t74.5 22t67 33.5t54.5 43t37 51.5t13.5 60q0 25 -8.5 49t-24.5 43t-40.5 30.5t-57.5 11.5q-25 0 -45.5 -3.5t-37 -8t-28 -10.5t-18.5 -11h-62v350h376v-80h-272v-179z" />
    <glyph glyph-name="twofifths" unicode="&#x2156;" horiz-adv-x="1500" 
d="M454 0h-135l775 1500h126zM76 720v84q24 38 51.5 74.5t56 71t56 65t50.5 56.5q25 28 48 52.5t40.5 49t28 50t10.5 54.5q0 24 -9 45.5t-25 37t-38.5 25t-49.5 9.5q-31 0 -53 -8.5t-39 -22t-29 -30t-23 -33.5l-70 30q13 32 33 59.5t47.5 47t62.5 30.5t78 11q51 0 90.5 -18
t66.5 -47t41.5 -66t14.5 -75q0 -39 -14.5 -73.5t-35.5 -66t-45.5 -59t-45.5 -51.5q-26 -30 -52 -59.5t-49.5 -58t-44 -54.5t-35.5 -50h335v-80h-452zM1057 491q3 2 12 6.5t22 9t29.5 7.5t37.5 3q52 0 92.5 -16t69 -44.5t43 -66.5t14.5 -81q0 -50 -18 -93t-49 -77t-73 -60
t-89 -44t-97 -26.5t-98 -8.5v80q37 1 75.5 9t74.5 22t67 33.5t54.5 43t37 51.5t13.5 60q0 25 -8.5 49t-24.5 43t-40.5 30.5t-57.5 11.5q-25 0 -45.5 -3.5t-37 -8t-28 -10.5t-18.5 -11h-62v350h376v-80h-272v-179z" />
    <glyph glyph-name="threefifths" unicode="&#x2157;" horiz-adv-x="1500" 
d="M454 0h-135l775 1500h126zM1057 491q3 2 12 6.5t22 9t29.5 7.5t37.5 3q52 0 92.5 -16t69 -44.5t43 -66.5t14.5 -81q0 -50 -18 -93t-49 -77t-73 -60t-89 -44t-97 -26.5t-98 -8.5v80q37 1 75.5 9t74.5 22t67 33.5t54.5 43t37 51.5t13.5 60q0 25 -8.5 49t-24.5 43
t-40.5 30.5t-57.5 11.5q-25 0 -45.5 -3.5t-37 -8t-28 -10.5t-18.5 -11h-62v350h376v-80h-272v-179zM107 1390l8 80h365v-70q-6 -20 -20.5 -42t-33.5 -44t-42 -43.5t-46 -41.5l-66 -37q5 1 13 1.5t15 0.5q48 0 90 -12t72.5 -36.5t48.5 -61.5t18 -88q0 -48 -18 -87.5
t-49.5 -70.5t-73.5 -53t-89.5 -36.5t-98.5 -21.5t-100 -7v80q41 1 81 7t76 17t66.5 26.5t53 36t35 46.5t12.5 58q0 36 -15.5 60t-42 38t-62 20t-76.5 6q-16 0 -35 -1t-34 -2v78q21 15 45 34t48.5 39.5t47.5 42t42 40.5t32 35.5t17 28.5l-76 -20h-208z" />
    <glyph glyph-name="fourfifths" unicode="&#x2158;" horiz-adv-x="1500" 
d="M454 0h-135l775 1500h126zM1057 491q3 2 12 6.5t22 9t29.5 7.5t37.5 3q52 0 92.5 -16t69 -44.5t43 -66.5t14.5 -81q0 -50 -18 -93t-49 -77t-73 -60t-89 -44t-97 -26.5t-98 -8.5v80q37 1 75.5 9t74.5 22t67 33.5t54.5 43t37 51.5t13.5 60q0 25 -8.5 49t-24.5 43
t-40.5 30.5t-57.5 11.5q-25 0 -45.5 -3.5t-37 -8t-28 -10.5t-18.5 -11h-62v350h376v-80h-272v-179zM542 870h-90v-150h-105v150h-297v85l242 525l94 -10l-207 -450l-47 -70h215v203l105 -8v-195h98z" />
    <glyph glyph-name="onesixth" unicode="&#x2159;" horiz-adv-x="1500" 
d="M1317 672q-3 1 -10 1h-12q-36 0 -70 -11t-64 -31.5t-55.5 -49t-44.5 -63t-31.5 -73.5t-16.5 -80l41 58q13 8 29.5 15.5t35 13t37.5 8.5t36 3q44 0 84 -12t71.5 -37t50 -64t18.5 -94q0 -54 -18 -102t-51 -84.5t-79 -57.5t-102 -21q-49 0 -87 16t-66 42t-46.5 59.5
t-30.5 68.5t-17 69.5t-5 63.5q0 59 12.5 115.5t35.5 106.5t56.5 91.5t76.5 71.5t94 46.5t110 16.5h17q9 0 14 -1zM454 0h-135l775 1500h126zM175 720v80h122v483l29 113l-68 -93l-106 -94l-54 61l229 210l75 -10v-670h123v-80h-350zM1017 298q0 -14 0.5 -25.5t1.5 -22.5
t3 -22t6 -25q7 -28 19 -51.5t29 -40t40 -26t51 -9.5q40 0 67.5 15t45 40t26 56.5t8.5 63.5t-9.5 56t-26.5 39.5t-40.5 23.5t-52.5 8q-27 0 -52.5 -6.5t-48 -17.5t-39.5 -25.5t-28 -30.5z" />
    <glyph glyph-name="fivesixths" unicode="&#x215a;" horiz-adv-x="1500" 
d="M1317 672q-3 1 -10 1h-12q-36 0 -70 -11t-64 -31.5t-55.5 -49t-44.5 -63t-31.5 -73.5t-16.5 -80l41 58q13 8 29.5 15.5t35 13t37.5 8.5t36 3q44 0 84 -12t71.5 -37t50 -64t18.5 -94q0 -54 -18 -102t-51 -84.5t-79 -57.5t-102 -21q-49 0 -87 16t-66 42t-46.5 59.5
t-30.5 68.5t-17 69.5t-5 63.5q0 59 12.5 115.5t35.5 106.5t56.5 91.5t76.5 71.5t94 46.5t110 16.5h17q9 0 14 -1zM454 0h-135l775 1500h126zM204 1211q3 2 12 6.5t22 9t29.5 7.5t37.5 3q52 0 92.5 -16t69 -44.5t43 -66.5t14.5 -81q0 -50 -18 -93t-49 -77t-73 -60t-89 -44
t-97 -26.5t-98 -8.5v80q37 1 75.5 9t74.5 22t67 33.5t54.5 43t37 51.5t13.5 60q0 25 -8.5 49t-24.5 43t-40.5 30.5t-57.5 11.5q-25 0 -45.5 -3.5t-37 -8t-28 -10.5t-18.5 -11h-62v350h376v-80h-272v-179zM1017 298q0 -14 0.5 -25.5t1.5 -22.5t3 -22t6 -25q7 -28 19 -51.5
t29 -40t40 -26t51 -9.5q40 0 67.5 15t45 40t26 56.5t8.5 63.5t-9.5 56t-26.5 39.5t-40.5 23.5t-52.5 8q-27 0 -52.5 -6.5t-48 -17.5t-39.5 -25.5t-28 -30.5z" />
    <glyph glyph-name="oneeighth" unicode="&#x215b;" horiz-adv-x="1500" 
d="M454 0h-135l775 1500h126zM175 720v80h122v483l29 113l-68 -93l-106 -94l-54 61l229 210l75 -10v-670h123v-80h-350zM1158 758q46 0 85 -12.5t67 -36t44 -57t16 -75.5q0 -29 -8.5 -52t-23.5 -41.5t-35 -33t-42 -27.5q37 -17 66.5 -38t49.5 -48t31 -60t11 -72
q0 -56 -22 -96t-58.5 -66.5t-82.5 -39t-95 -12.5q-47 0 -91 14.5t-78 42t-54.5 69t-20.5 95.5q0 40 11.5 72.5t31.5 58.5t47.5 46t59.5 36q-23 14 -43.5 29.5t-35.5 33.5t-24 38.5t-9 45.5q0 48 19.5 83.5t49.5 58t65.5 33.5t68.5 11zM1153 380q-32 -14 -57 -30t-43 -37
t-27.5 -47t-9.5 -59q0 -30 12 -54.5t32.5 -42.5t47 -27.5t54.5 -9.5q32 0 60.5 9t50.5 26t34.5 42t12.5 57q0 34 -15 60t-38.5 47t-53.5 37t-60 29zM1173 461q46 21 73.5 50t27.5 70q0 25 -10.5 43t-26 29.5t-34 17t-35.5 5.5q-23 0 -44 -7t-37 -19.5t-25.5 -29.5t-9.5 -37
q0 -23 9.5 -40.5t26.5 -32t39 -26.5t46 -23z" />
    <glyph glyph-name="threeeighths" unicode="&#x215c;" horiz-adv-x="1500" 
d="M454 0h-135l775 1500h126zM107 1390l8 80h365v-70q-6 -20 -20.5 -42t-33.5 -44t-42 -43.5t-46 -41.5l-66 -37q5 1 13 1.5t15 0.5q48 0 90 -12t72.5 -36.5t48.5 -61.5t18 -88q0 -48 -18 -87.5t-49.5 -70.5t-73.5 -53t-89.5 -36.5t-98.5 -21.5t-100 -7v80q41 1 81 7t76 17
t66.5 26.5t53 36t35 46.5t12.5 58q0 36 -15.5 60t-42 38t-62 20t-76.5 6q-16 0 -35 -1t-34 -2v78q21 15 45 34t48.5 39.5t47.5 42t42 40.5t32 35.5t17 28.5l-76 -20h-208zM1158 758q46 0 85 -12.5t67 -36t44 -57t16 -75.5q0 -29 -8.5 -52t-23.5 -41.5t-35 -33t-42 -27.5
q37 -17 66.5 -38t49.5 -48t31 -60t11 -72q0 -56 -22 -96t-58.5 -66.5t-82.5 -39t-95 -12.5q-47 0 -91 14.5t-78 42t-54.5 69t-20.5 95.5q0 40 11.5 72.5t31.5 58.5t47.5 46t59.5 36q-23 14 -43.5 29.5t-35.5 33.5t-24 38.5t-9 45.5q0 48 19.5 83.5t49.5 58t65.5 33.5
t68.5 11zM1153 380q-32 -14 -57 -30t-43 -37t-27.5 -47t-9.5 -59q0 -30 12 -54.5t32.5 -42.5t47 -27.5t54.5 -9.5q32 0 60.5 9t50.5 26t34.5 42t12.5 57q0 34 -15 60t-38.5 47t-53.5 37t-60 29zM1173 461q46 21 73.5 50t27.5 70q0 25 -10.5 43t-26 29.5t-34 17t-35.5 5.5
q-23 0 -44 -7t-37 -19.5t-25.5 -29.5t-9.5 -37q0 -23 9.5 -40.5t26.5 -32t39 -26.5t46 -23z" />
    <glyph glyph-name="fiveeighths" unicode="&#x215d;" horiz-adv-x="1500" 
d="M454 0h-135l775 1500h126zM1158 758q46 0 85 -12.5t67 -36t44 -57t16 -75.5q0 -29 -8.5 -52t-23.5 -41.5t-35 -33t-42 -27.5q37 -17 66.5 -38t49.5 -48t31 -60t11 -72q0 -56 -22 -96t-58.5 -66.5t-82.5 -39t-95 -12.5q-47 0 -91 14.5t-78 42t-54.5 69t-20.5 95.5
q0 40 11.5 72.5t31.5 58.5t47.5 46t59.5 36q-23 14 -43.5 29.5t-35.5 33.5t-24 38.5t-9 45.5q0 48 19.5 83.5t49.5 58t65.5 33.5t68.5 11zM1153 380q-32 -14 -57 -30t-43 -37t-27.5 -47t-9.5 -59q0 -30 12 -54.5t32.5 -42.5t47 -27.5t54.5 -9.5q32 0 60.5 9t50.5 26t34.5 42
t12.5 57q0 34 -15 60t-38.5 47t-53.5 37t-60 29zM1173 461q46 21 73.5 50t27.5 70q0 25 -10.5 43t-26 29.5t-34 17t-35.5 5.5q-23 0 -44 -7t-37 -19.5t-25.5 -29.5t-9.5 -37q0 -23 9.5 -40.5t26.5 -32t39 -26.5t46 -23zM204 1211q3 2 12 6.5t22 9t29.5 7.5t37.5 3
q52 0 92.5 -16t69 -44.5t43 -66.5t14.5 -81q0 -50 -18 -93t-49 -77t-73 -60t-89 -44t-97 -26.5t-98 -8.5v80q37 1 75.5 9t74.5 22t67 33.5t54.5 43t37 51.5t13.5 60q0 25 -8.5 49t-24.5 43t-40.5 30.5t-57.5 11.5q-25 0 -45.5 -3.5t-37 -8t-28 -10.5t-18.5 -11h-62v350h376
v-80h-272v-179z" />
    <glyph glyph-name="seveneighths" unicode="&#x215e;" horiz-adv-x="1500" 
d="M1158 758q46 0 85 -12.5t67 -36t44 -57t16 -75.5q0 -29 -8.5 -52t-23.5 -41.5t-35 -33t-42 -27.5q37 -17 66.5 -38t49.5 -48t31 -60t11 -72q0 -56 -22 -96t-58.5 -66.5t-82.5 -39t-95 -12.5q-47 0 -91 14.5t-78 42t-54.5 69t-20.5 95.5q0 40 11.5 72.5t31.5 58.5t47.5 46
t59.5 36q-23 14 -43.5 29.5t-35.5 33.5t-24 38.5t-9 45.5q0 48 19.5 83.5t49.5 58t65.5 33.5t68.5 11zM454 0h-135l775 1500h126zM100 1470h450v-65q0 -22 -16.5 -55.5t-41.5 -75.5t-54.5 -90.5t-56.5 -99t-47 -101.5t-25 -99q-3 -20 -4 -42t-2 -43.5t-1 -41.5v-37h-102v40
q0 25 1 53t3.5 55.5t6.5 47.5q11 53 32.5 105t47 99.5t52 90t48 77.5t35 61t13.5 41h-339v80zM1153 380q-32 -14 -57 -30t-43 -37t-27.5 -47t-9.5 -59q0 -30 12 -54.5t32.5 -42.5t47 -27.5t54.5 -9.5q32 0 60.5 9t50.5 26t34.5 42t12.5 57q0 34 -15 60t-38.5 47t-53.5 37
t-60 29zM1173 461q46 21 73.5 50t27.5 70q0 25 -10.5 43t-26 29.5t-34 17t-35.5 5.5q-23 0 -44 -7t-37 -19.5t-25.5 -29.5t-9.5 -37q0 -23 9.5 -40.5t26.5 -32t39 -26.5t46 -23z" />
    <glyph glyph-name="fractionnumeratorone" unicode="&#x215f;" horiz-adv-x="1500" 
d="M454 0h-135l775 1500h126zM175 720v80h122v483l29 113l-68 -93l-106 -94l-54 61l229 210l75 -10v-670h123v-80h-350z" />
    <glyph glyph-name="Oneroman" unicode="&#x2160;" horiz-adv-x="600" 
d="M190 0v1290l-30 210l240 20v-1520h-210z" />
    <glyph glyph-name="Tworoman" unicode="&#x2161;" 
d="M190 0v1290l-30 210l240 20v-1520h-210zM790 0v1290l-30 210l240 20v-1520h-210z" />
    <glyph glyph-name="Threeroman" unicode="&#x2162;" horiz-adv-x="1800" 
d="M190 0v1290l-30 210l240 20v-1520h-210zM790 0v1290l-30 210l240 20v-1520h-210zM1390 0v1290l-30 210l240 20v-1520h-210z" />
    <glyph glyph-name="Fourroman" unicode="&#x2163;" horiz-adv-x="1800" 
d="M190 0v1290l-30 210l240 20v-1520h-210zM1085 500l88 -360l48 314l330 1046h189l-419 -1320l-26 -200l-246 20l-482 1500l195 20z" />
    <glyph glyph-name="Fiveroman" unicode="&#x2164;" horiz-adv-x="1300" 
d="M585 500l88 -360l48 314l330 1046h189l-419 -1320l-26 -200l-246 20l-482 1500l195 20z" />
    <glyph glyph-name="Sixroman" unicode="&#x2165;" horiz-adv-x="1900" 
d="M585 500l88 -360l48 314l330 1046h189l-419 -1320l-26 -200l-246 20l-482 1500l195 20zM1390 0v1290l-30 210l240 20v-1520h-210z" />
    <glyph glyph-name="Sevenroman" unicode="&#x2166;" horiz-adv-x="2300" 
d="M585 500l88 -360l48 314l330 1046h189l-419 -1320l-26 -200l-246 20l-482 1500l195 20zM1390 0v1290l-30 210l240 20v-1520h-210zM1890 0v1290l-30 210l240 20v-1520h-210z" />
    <glyph glyph-name="Eightroman" unicode="&#x2167;" horiz-adv-x="2800" 
d="M585 500l88 -360l48 314l330 1046h189l-419 -1320l-26 -200l-246 20l-482 1500l195 20zM1390 0v1290l-30 210l240 20v-1520h-210zM1890 0v1290l-30 210l240 20v-1520h-210zM2390 0v1290l-30 210l240 20v-1520h-210z" />
    <glyph glyph-name="Nineroman" unicode="&#x2168;" horiz-adv-x="1800" 
d="M190 0v1290l-30 210l240 20v-1520h-210zM1514 0l-313 519l-77 181l-48 -160l-325 -540h-198l480 799l-423 701l212 20l278 -464l80 -196l35 160l288 480h200l-435 -724l466 -776h-220z" />
    <glyph glyph-name="Tenroman" unicode="&#x2169;" horiz-adv-x="1300" 
d="M1014 0l-313 519l-77 181l-48 -160l-325 -540h-198l480 799l-423 701l212 20l278 -464l80 -196l35 160l288 480h200l-435 -724l466 -776h-220z" />
    <glyph glyph-name="Elevenroman" unicode="&#x216a;" horiz-adv-x="1800" 
d="M1014 0l-313 519l-77 181l-48 -160l-325 -540h-198l480 799l-423 701l212 20l278 -464l80 -196l35 160l288 480h200l-435 -724l466 -776h-220zM1390 0v1290l-30 210l240 20v-1520h-210z" />
    <glyph glyph-name="Twelveroman" unicode="&#x216b;" horiz-adv-x="2300" 
d="M1014 0l-313 519l-77 181l-48 -160l-325 -540h-198l480 799l-423 701l212 20l278 -464l80 -196l35 160l288 480h200l-435 -724l466 -776h-220zM1390 0v1290l-30 210l240 20v-1520h-210zM1890 0v1290l-30 210l240 20v-1520h-210z" />
    <glyph glyph-name="oneroman" unicode="&#x2170;" horiz-adv-x="600" 
d="M390 0h-190v1100l190 20v-1120z" />
    <glyph glyph-name="tworoman" unicode="&#x2171;" horiz-adv-x="1100" 
d="M390 0h-190v1100l190 20v-1120zM890 0h-190v1100l190 20v-1120z" />
    <glyph glyph-name="threeroman" unicode="&#x2172;" horiz-adv-x="1600" 
d="M390 0h-190v1100l190 20v-1120zM890 0h-190v1100l190 20v-1120zM1390 0h-190v1100l190 20v-1120z" />
    <glyph glyph-name="fourroman" unicode="&#x2173;" horiz-adv-x="1600" 
d="M1505 1120l-371 -1140l-206 20l-357 1100l183 20l239 -739l53 -232l50 232l234 719zM390 0h-190v1100l190 20v-1120z" />
    <glyph glyph-name="fiveroman" unicode="&#x2174;" horiz-adv-x="1100" 
d="M1005 1120l-371 -1140l-206 20l-357 1100l183 20l239 -739l53 -232l50 232l234 719z" />
    <glyph glyph-name="sixroman" unicode="&#x2175;" horiz-adv-x="1500" 
d="M1005 1120l-371 -1140l-206 20l-357 1100l183 20l239 -739l53 -232l50 232l234 719zM1290 0h-190v1100l190 20v-1120z" />
    <glyph glyph-name="sevenroman" unicode="&#x2176;" horiz-adv-x="1900" 
d="M1005 1120l-371 -1140l-206 20l-357 1100l183 20l239 -739l53 -232l50 232l234 719zM1290 0h-190v1100l190 20v-1120zM1690 0h-190v1100l190 20v-1120z" />
    <glyph glyph-name="eightroman" unicode="&#x2177;" horiz-adv-x="2300" 
d="M1005 1120l-371 -1140l-206 20l-357 1100l183 20l239 -739l53 -232l50 232l234 719zM1290 0h-190v1100l190 20v-1120zM1690 0h-190v1100l190 20v-1120zM2090 0h-190v1100l190 20v-1120z" />
    <glyph glyph-name="nineroman" unicode="&#x2178;" horiz-adv-x="1700" 
d="M1351 0l-268 382l-45 118l-45 -118l-268 -382h-199l412 588l-358 512l211 17l235 -336l39 -111l38 111l225 319l211 17l-374 -534l411 -583h-225zM390 0h-190v1100l190 20v-1120z" />
    <glyph glyph-name="tenroman" unicode="&#x2179;" horiz-adv-x="1100" 
d="M851 0l-268 382l-45 118l-45 -118l-268 -382h-199l412 588l-358 512l211 17l235 -336l39 -111l38 111l225 319l211 17l-374 -534l411 -583h-225z" />
    <glyph glyph-name="elevenroman" unicode="&#x217a;" horiz-adv-x="1600" 
d="M851 0l-268 382l-45 118l-45 -118l-268 -382h-199l412 588l-358 512l211 17l235 -336l39 -111l38 111l225 319l211 17l-374 -534l411 -583h-225zM1390 0h-190v1100l190 20v-1120z" />
    <glyph glyph-name="twelveroman" unicode="&#x217b;" horiz-adv-x="2000" 
d="M851 0l-268 382l-45 118l-45 -118l-268 -382h-199l412 588l-358 512l211 17l235 -336l39 -111l38 111l225 319l211 17l-374 -534l411 -583h-225zM1390 0h-190v1100l190 20v-1120zM1790 0h-190v1100l190 20v-1120z" />
    <glyph glyph-name="arrowleft" unicode="&#x2190;" horiz-adv-x="1500" 
d="M547 500l-104 12l57 -75v-237l-301 300l-119 100l120 100l300 300v-235l-57 -75l104 10h853v-200h-853z" />
    <glyph glyph-name="arrowup" unicode="&#x2191;" horiz-adv-x="1000" 
d="M400 1053l12 104l-75 -57h-237l300 301l100 119l100 -120l300 -300h-235l-75 57l10 -104v-1053h-200v1053z" />
    <glyph glyph-name="arrowright" unicode="&#x2192;" horiz-adv-x="1500" 
d="M100 500v200h853l104 -10l-57 75v235l300 -300l120 -100l-119 -100l-301 -300v237l57 75l-104 -12h-853z" />
    <glyph glyph-name="arrowdown" unicode="&#x2193;" horiz-adv-x="1000" 
d="M400 1500h200v-1053l-10 -104l75 57h235l-300 -300l-100 -120l-100 119l-300 301h237l75 -57l-12 104v1053z" />
    <glyph glyph-name="arrowboth" unicode="&#x2194;" horiz-adv-x="1800" 
d="M547 500l-104 12l57 -75v-237l-301 300l-119 100l120 100l300 300v-235l-57 -75l104 10h686l104 -10l-57 75v235l300 -300l120 -100l-119 -100l-301 -300v237l57 75l-104 -12h-686z" />
    <glyph glyph-name="arrowupdn" unicode="&#x2195;" horiz-adv-x="1000" 
d="M600 467l-12 -104l75 57h237l-300 -301l-100 -119l-100 120l-300 300h235l75 -57l-10 104v586l10 104l-75 -57h-235l300 300l100 120l100 -119l300 -301h-237l-75 57l12 -104v-586z" />
    <glyph glyph-name="arrowupleft" unicode="&#x2196;" 
d="M1090 151l-141 -141l-603 603l-67 79l-11 -93l-168 -165v404l-20 182l182 -20h404l-166 -169l-94 -12l81 -65z" />
    <glyph glyph-name="arrowupright" unicode="&#x2197;" 
d="M713 754l81 65l-94 12l-166 169h404l182 20l-20 -182v-404l-168 165l-11 93l-67 -79l-603 -603l-141 141z" />
    <glyph glyph-name="arrowdownright" unicode="&#x2198;" 
d="M110 849l141 141l603 -603l67 -79l11 93l168 165v-404l20 -182l-182 20h-404l166 169l94 12l-81 65z" />
    <glyph glyph-name="arrowdownleft" unicode="&#x2199;" 
d="M487 246l-81 -65l94 -12l166 -169h-404l-182 -20l20 182v404l168 -165l11 -93l67 79l603 603l141 -141z" />
    <glyph glyph-name="leftwardsarrowwithhook" unicode="&#x21a9;" horiz-adv-x="1400" 
d="M547 400l-104 12l57 -75v-237l-301 300l-119 100l120 100l300 300v-235l-57 -75l104 10h453q27 0 50.5 7.5t41.5 21t28 32t10 39.5t-10 39t-28 31.5t-41.5 21.5t-50.5 8v200q56 0 110 -19t96 -56.5t68 -93.5t26 -131t-26 -131.5t-68 -94t-96 -56t-110 -18.5h-453z" />
    <glyph glyph-name="rightwardsarrowwithhook" unicode="&#x21aa;" horiz-adv-x="1400" 
d="M400 400q-56 0 -110 18.5t-96 56t-68 94t-26 131.5t26 131t68 93.5t96 56.5t110 19v-200q-27 0 -50.5 -8t-41.5 -21.5t-28 -31.5t-10 -39t10 -39.5t28 -32t41.5 -21t50.5 -7.5h453l104 -10l-57 75v235l300 -300l120 -100l-119 -100l-301 -300v237l57 75l-104 -12h-453z
" />
    <glyph glyph-name="downwardsarrowwithtiprightwards" unicode="&#x21b3;" horiz-adv-x="1100" 
d="M259 500h294l104 -10l-57 75v235l300 -300l120 -100l-119 -100l-301 -300v237l57 75l-104 -12h-453v1000h159v-800z" />
    <glyph glyph-name="carriagereturn" unicode="&#x21b5;" horiz-adv-x="1100" 
d="M841 1300h159v-1000h-453l-104 12l57 -75v-237l-301 300l-119 100l120 100l300 300v-235l-57 -75l104 10h294v800z" />
    <glyph glyph-name="undo" unicode="&#x21b6;" horiz-adv-x="1600" 
d="M500 369l166 -169h-404l-182 -20l20 182v404l168 -165l11 -93l67 79q78 81 153.5 148t154.5 115t163.5 74.5t182.5 26.5q112 0 204 -26t157 -81t101 -140.5t38 -203.5h-170q0 60 -25.5 106.5t-68.5 79t-101 49t-122 16.5q-71 0 -137 -27.5t-130 -71t-128 -98t-131 -108.5
l-81 -65z" />
    <glyph glyph-name="redo" unicode="&#x21b7;" horiz-adv-x="1600" 
d="M1194 381l-81 65q-67 54 -131 108.5t-128 98t-130 71t-137 27.5q-65 0 -122.5 -16.5t-100.5 -49t-68.5 -79t-25.5 -106.5h-170q1 118 37.5 203.5t101.5 140.5t156.5 81t204.5 26q97 0 182 -26.5t164 -74.5t154.5 -115t153.5 -148l67 -79l11 93l168 165v-404l20 -182
l-182 20h-404l166 169z" />
    <glyph glyph-name="arrowdblleft" unicode="&#x21d0;" horiz-adv-x="1600" 
d="M207 691l366 366h170l-245 -244l100 -13h902v-116h-752l-350 28l-131 -112l131 -112l350 28h752v-116h-902l-100 -12l245 -245h-170l-366 366l-107 91z" />
    <glyph glyph-name="arrowdblup" unicode="&#x21d1;" 
d="M691 1393l366 -366v-170l-244 245l-13 -100v-1002h-116v852l28 350l-112 131l-112 -131l28 -350v-852h-116v1002l-12 100l-245 -245v170l366 366l91 107z" />
    <glyph glyph-name="arrowdblright" unicode="&#x21d2;" horiz-adv-x="1600" 
d="M1500 600l-107 -91l-366 -366h-170l245 245l-100 12h-902v116h752l350 -28l131 112l-131 112l-350 -28h-752v116h902l100 13l-245 244h170l366 -366z" />
    <glyph glyph-name="arrowdbldown" unicode="&#x21d3;" 
d="M600 0l-91 107l-366 366v170l245 -245l12 100v1002h116v-852l-28 -350l112 -131l112 131l-28 350v852h116v-1002l13 -100l244 245v-170l-366 -366z" />
    <glyph glyph-name="arrowdblleftright" unicode="&#x21d4;" horiz-adv-x="1900" 
d="M1800 600l-107 -91l-366 -366h-170l245 245l-100 12h-704l-100 -12l245 -245h-170l-366 366l-107 91l107 91l366 366h170l-245 -244l100 -13h704l100 13l-245 244h170l366 -366zM748 516h404l350 -28l131 112l-131 112l-350 -28h-404l-350 28l-131 -112l131 -112z" />
    <glyph glyph-name="arrowdblupdown" unicode="&#x21d5;" 
d="M600 0l-91 107l-366 366v170l245 -245l12 100v604l-12 100l-245 -245v170l366 366l91 107l91 -107l366 -366v-170l-244 245l-13 -100v-604l13 -100l244 245v-170l-366 -366zM516 952v-304l-28 -350l112 -131l112 131l-28 350v304l28 350l-112 131l-112 -131z" />
    <glyph glyph-name="arrowdblnorthwest" unicode="&#x21d6;" horiz-adv-x="1300" 
d="M229 1100h518l120 -121h-346l62 -79l637 -638l-82 -82l-531 532l-228 267l-172 14l14 -172l267 -228l532 -531l-82 -82l-638 637l-79 63v-347l-121 120v518l-11 140z" />
    <glyph glyph-name="arrowdblnortheast" unicode="&#x21d7;" horiz-adv-x="1300" 
d="M1211 1111l-11 -140v-518l-121 -120v347l-79 -63l-638 -637l-82 82l532 531l267 228l14 172l-172 -14l-228 -267l-531 -532l-82 82l637 638l62 79h-346l120 121h518z" />
    <glyph glyph-name="arrowdblsoutheast" unicode="&#x21d8;" horiz-adv-x="1300" 
d="M1071 0h-518l-120 121h346l-62 79l-637 638l82 82l531 -532l228 -267l172 -14l-14 172l-267 228l-532 531l82 82l638 -637l79 -63v347l121 -120v-518l11 -140z" />
    <glyph glyph-name="arrowdblsouthwest" unicode="&#x21d9;" horiz-adv-x="1300" 
d="M89 -11l11 140v518l121 120v-347l79 63l638 637l82 -82l-532 -531l-267 -228l-14 -172l172 14l228 267l531 532l82 -82l-637 -638l-62 -79h346l-120 -121h-518z" />
    <glyph glyph-name="pageup" unicode="&#x21de;" horiz-adv-x="1000" 
d="M200 500h200v160h-200v140h200v253l12 104l-75 -57h-237l300 301l100 119l100 -120l300 -300h-235l-75 57l10 -104v-253h200v-140h-200v-160h200v-140h-200v-360h-200v360h-200v140z" />
    <glyph glyph-name="pagedown" unicode="&#x21df;" horiz-adv-x="1000" 
d="M200 1140h200v360h200v-360h200v-140h-200v-160h200v-140h-200v-253l-10 -104l75 57h235l-300 -300l-100 -120l-100 119l-300 301h237l75 -57l-12 104v253h-200v140h200v160h-200v140z" />
    <glyph glyph-name="leftwardsdashedarrow" unicode="&#x21e0;" horiz-adv-x="1600" 
d="M547 500l-104 12l57 -75v-237l-301 300l-119 100l120 100l300 300v-235l-57 -75l104 10h103v-200h-103zM800 700h250v-200h-250v200zM1200 700h250v-200h-250v200z" />
    <glyph glyph-name="upwardsdashedarrow" unicode="&#x21e1;" horiz-adv-x="1000" 
d="M400 1053l12 104l-75 -57h-237l300 301l100 119l100 -120l300 -300h-235l-75 57l10 -104v-103h-200v103zM600 800v-250h-200v250h200zM600 400v-250h-200v250h200z" />
    <glyph glyph-name="rightwardsdashedarrow" unicode="&#x21e2;" horiz-adv-x="1600" 
d="M950 500v200h103l104 -10l-57 75v235l300 -300l120 -100l-119 -100l-301 -300v237l57 75l-104 -12h-103zM800 500h-250v200h250v-200zM400 500h-250v200h250v-200z" />
    <glyph glyph-name="downwardsdashedarrow" unicode="&#x21e3;" horiz-adv-x="1000" 
d="M400 550h200v-103l-10 -104l75 57h235l-300 -300l-100 -120l-100 119l-300 301h237l75 -57l-12 104v103zM400 700v250h200v-250h-200zM400 1100v250h200v-250h-200z" />
    <glyph glyph-name="shift" unicode="&#x21e7;" 
d="M600 1430l91 -107l382 -366v-102h-155l-8 -100v-755h-620v755l-9 100h-154v102l382 366zM400 662v-562h400v562l21 275h112l-333 336l-333 -336h113z" />
    <glyph glyph-name="capslock" unicode="&#x21ea;" 
d="M600 1430l91 -107l382 -366v-102h-155l-8 -100v-355h-620v355l-9 100h-154v102l382 366zM400 662v-162h400v162l21 275h112l-333 336l-333 -336h113zM910 300v-100l11 -200h-642l11 200v100h620zM400 94h400v106h-400v-106z" />
    <glyph glyph-name="universal" unicode="&#x2200;" horiz-adv-x="1400" 
d="M1141 1300h190l-589 -1320l-143 20l-38 160l-489 1140h177l130 -300h631zM640 400l54 -288l54 288l196 450h-500z" />
    <glyph glyph-name="complement" unicode="&#x2201;" 
d="M600 143q151 0 225.5 65.5t74.5 207.5l174 -16q0 -88 -28.5 -164t-87 -132.5t-148 -88.5t-210.5 -32q-100 0 -176 25t-131.5 70t-92.5 107t-59 136.5t-31.5 158t-9.5 170.5t9.5 170.5t31.5 158t59 136.5t92.5 107t131.5 70t176 25q116 0 204.5 -32t148.5 -88.5
t90.5 -132.5t30.5 -164l-174 -15q0 130 -73 201t-227 71q-68 0 -117 -20t-83.5 -55.5t-56 -84t-33.5 -105t-16 -118.5t-4 -124q0 -63 4 -124.5t16 -118t33.5 -105t56 -84t83.5 -55.5t117 -20z" />
    <glyph glyph-name="partialdiff" unicode="&#x2202;" 
d="M882 644q-16 24 -45 46t-65 38.5t-76 26.5t-76 10q-89 0 -153.5 -34t-107 -89.5t-63 -126t-20.5 -142.5q0 -39 12.5 -82t41.5 -79.5t75.5 -60t115.5 -23.5q54 0 101.5 24.5t87 65t70 93.5t52.5 110.5t35 115t15 107.5zM1075 780q0 -81 -14.5 -171.5t-44.5 -179
t-75.5 -169.5t-107 -142.5t-139.5 -98t-173 -36.5q-93 0 -172 28t-136.5 78t-90 119.5t-32.5 152.5q0 133 38 231.5t102 163.5t146 97t171 32q66 0 118 -11t93 -29t73 -42t58 -50q0 136 -21 248.5t-65.5 192t-114.5 123.5t-167 44q-31 0 -57.5 -3t-52 -10t-52.5 -19t-59 -29
l-84 131q28 18 62 33.5t71.5 27t77 18.5t78.5 7q136 0 242 -46.5t179 -138.5t111 -230t38 -322z" />
    <glyph glyph-name="existential" unicode="&#x2203;" horiz-adv-x="1300" 
d="M1015 160l-15 190v300h-752l-18 150h770v150l20 200h-845v150h1017l-22 -200v-900l17 -200h-1012v160h840z" />
    <glyph glyph-name="theredoesnotexist" unicode="&#x2204;" horiz-adv-x="1300" 
d="M420 -200h-155l71 200h-161v160h219l175 490h-321l-18 150h393l125 350h-573v150h627l72 200h146l-71 -200h243l-22 -200v-900l17 -200h-697zM1015 160l-15 190v300h-280l-173 -490h468zM1000 800v150l20 200h-124l-123 -350h227z" />
    <glyph glyph-name="emptyset" unicode="&#x2205;" horiz-adv-x="1400" 
d="M474 -200h-155l91 254q-72 40 -128 100.5t-94.5 137t-58.5 167t-20 191.5q0 144 39.5 266t114.5 211.5t185 139.5t251 50q42 0 81 -5t75 -14l73 202h146l-89 -253q72 -40 128.5 -100t95.5 -137t59.5 -168t20.5 -192q0 -144 -39.5 -266t-114.5 -211.5t-185 -139.5
t-251 -50q-42 0 -80 5t-74 13zM694 1169q-108 0 -184 -41t-125 -109.5t-71.5 -156.5t-22.5 -182q0 -71 10 -139.5t31 -129.5t54 -113t79 -89l339 946q-51 14 -110 14zM1107 623q0 70 -10 138.5t-31.5 130t-55 113t-80.5 88.5l-335 -949q25 -6 52 -9.5t57 -3.5
q106 0 182.5 42t125.5 111t72 157.5t23 181.5z" />
    <glyph glyph-name="gradient" unicode="&#x2207;" horiz-adv-x="1600" 
d="M65 1500h1472l-623 -1500h-227zM392 1340l-123 52l82 -92l416 -1058l35 -167l35 167l416 1058l85 92l-126 -52h-820z" />
    <glyph glyph-name="element" unicode="&#x2208;" horiz-adv-x="1500" 
d="M1420 0h-577q-171 0 -308.5 40.5t-234 122t-148.5 203.5t-52 284t52 284t148.5 203.5t234 122t308.5 40.5h577l-20 -154h-553q-131 0 -236 -29.5t-178.5 -90.5t-112.5 -155q-28 -65 -36 -146h1116v-150h-1116q8 -82 36 -147q39 -94 112.5 -155t178.5 -90.5t236 -29.5h553
z" />
    <glyph glyph-name="notelement" unicode="&#x2209;" horiz-adv-x="1500" 
d="M1420 0h-577q-79 0 -150 8l-73 -208h-155l84 236q-7 2 -15 4q-137 41 -233.5 122.5t-148.5 203.5t-52 284t52 284t148.5 203.5t234 122t308.5 40.5h159l72 200h146l-71 -200h271l-20 -154h-305l-149 -421h454v-150h-507l-147 -418q48 -4 101 -4h553zM611 1116
q-105 -29 -178.5 -90t-112.5 -155q-28 -65 -36 -146h512l151 421h-100q-131 0 -236 -30zM320 428q39 -94 112 -155q71 -59 171 -88l139 390h-458q8 -82 36 -147z" />
    <glyph glyph-name="suchthat" unicode="&#x220b;" horiz-adv-x="1500" 
d="M100 153h553q131 0 236 29.5t178.5 90.5t112.5 155q28 65 36 147h-1116v150h1116q-8 81 -36 146q-39 94 -112.5 155t-178.5 90.5t-236 29.5h-553l-20 154h577q171 0 308.5 -40.5t234 -122t148.5 -203.5t52 -284t-52 -284t-148.5 -203.5t-234 -122t-308.5 -40.5h-577z" />
    <glyph glyph-name="doesnotcontainasmember" unicode="&#x220c;" horiz-adv-x="1500" 
d="M100 153h291l151 422h-442v150h496l150 417q-45 4 -93 4h-553l-20 154h577q74 0 143 -8l74 208h146l-82 -233q14 -4 27 -8q138 -40 234.5 -121.5t148.5 -203.5t52 -284t-52 -284t-148.5 -203.5t-234 -122t-308.5 -40.5h-167l-70 -200h-155l71 200h-256zM653 153
q131 0 236 29.5t178.5 90.5t112.5 155q28 65 36 147h-523l-149 -422h109zM1216 725q-8 81 -36 146q-39 94 -112.5 155t-178.5 90l-4 1l-139 -392h470z" />
    <glyph glyph-name="minus" unicode="&#x2212;" horiz-adv-x="1100" 
d="M100 700h900v-155h-900v155z" />
    <glyph glyph-name="minusplus" unicode="&#x2213;" horiz-adv-x="1100" 
d="M100 1200h900v-140h-900v140zM100 612h373v337h155v-337h372v-124h-372v-338h-155v338h-373v124z" />
    <glyph glyph-name="ringoperator" unicode="&#x2218;" horiz-adv-x="600" 
d="M300 917q56 0 105 -21t85.5 -58t57.5 -86t21 -105t-21 -105t-57.5 -85.5t-85.5 -58t-105 -21.5t-105 21.5t-85.5 58t-57.5 85.5t-21 105t21 105t57.5 86t85.5 58t105 21zM300 488q33 0 62 12.5t50.5 34t34 50.5t12.5 62t-12.5 62t-34 50.5t-50.5 34t-62 12.5t-62 -12.5
t-50.5 -34t-34 -50.5t-12.5 -62t12.5 -62t34 -50.5t50.5 -34t62 -12.5z" />
    <glyph glyph-name="radical" unicode="&#x221a;" horiz-adv-x="1600" 
d="M1500 1300l-20 -150h-270l-200 20l-334 -1190l-258 20l-153 550l-77 200l185 20l131 -470l46 -240l46 240l282 1000h622z" />
    <glyph glyph-name="proportional" unicode="&#x221d;" horiz-adv-x="1300" 
d="M477 330q57 0 103 33t81 82t59.5 104.5t39.5 100.5q-23 49 -51.5 103.5t-65.5 100.5t-83 76t-103 30q-47 0 -82.5 -27.5t-59 -71.5t-35 -99.5t-11.5 -111.5t15 -113t42.5 -103t66 -75t84.5 -29zM1234 189q-68 0 -121.5 23t-101.5 68t-94 113t-97 158l4 -95
q-26 -51 -58.5 -100t-75.5 -87.5t-98.5 -62t-125.5 -23.5q-97 0 -166.5 42t-113.5 109t-65 150t-21 166q0 55 8 111t25.5 108t45.5 97t68.5 78.5t94.5 53t124 19.5q67 0 121 -23.5t102 -69t94 -114t97 -158.5l-4 95q26 51 58.5 99.5t75.5 86.5t98 61t126 23l-11 -147
q-57 0 -103 -32.5t-81 -81t-59.5 -103.5t-39.5 -100q22 -49 51 -103t66 -99.5t83 -75t103 -29.5z" />
    <glyph glyph-name="infinity" unicode="&#x221e;" horiz-adv-x="1700" 
d="M477 330q57 0 103 33t81 82t59.5 104.5t39.5 100.5q-23 49 -51.5 103.5t-65.5 100.5t-83 76t-103 30q-47 0 -82.5 -27.5t-59 -71.5t-35 -99.5t-11.5 -111.5t15 -113t42.5 -103t66 -75t84.5 -29zM820 551l4 -95q-26 -51 -58.5 -100t-75.5 -87.5t-98.5 -62t-125.5 -23.5
q-97 0 -166.5 42t-113.5 109t-65 150t-21 166q0 55 8 111t25.5 108t45.5 97t68.5 78.5t94.5 53t124 19.5q67 0 121 -23.5t102 -69t94 -114t97 -158.5l-4 95q26 51 58.5 100t75.5 87.5t98 62t126 23.5q65 0 117 -19.5t93 -53t70.5 -78.5t48.5 -97t28 -108t9 -111
q0 -83 -18 -166t-60.5 -150t-113 -109t-174.5 -42q-68 0 -121.5 23.5t-101.5 69t-94 114t-97 158.5zM1223 973q-57 0 -103 -33t-81 -82t-59.5 -104.5t-39.5 -100.5q22 -49 51 -103.5t66 -100.5t83 -76t103 -30q47 0 82.5 27.5t59 71.5t35 99.5t11.5 111.5t-15 113t-42.5 103
t-66 75t-84.5 29z" />
    <glyph glyph-name="sphericalangle" unicode="&#x2222;" horiz-adv-x="1400" 
d="M100 600l1015 587l122 -91l-272 -157q56 -93 84 -192.5t28 -202.5q0 -101 -27 -201.5t-84 -197.5l242 -140l-108 -86l-1000 564v117zM862 205q46 79 68 164t22 171q0 90 -23 175.5t-68 163.5l-593 -337z" />
    <glyph glyph-name="parallelto" unicode="&#x2225;" horiz-adv-x="1000" 
d="M355 1500v-1500h-155v1500h155zM755 1500v-1500h-155v1500h155z" />
    <glyph glyph-name="logicaland" unicode="&#x2227;" horiz-adv-x="1300" 
d="M780 1320l442 -1320h-164l-336 980l-65 240l-65 -240l-337 -980h-162l429 1300z" />
    <glyph glyph-name="logicalor" unicode="&#x2228;" horiz-adv-x="1300" 
d="M522 0l-429 1300l155 20l344 -1000l65 -240l65 240l336 980l171 20l-442 -1320h-265z" />
    <glyph glyph-name="intersection" unicode="&#x2229;" horiz-adv-x="1500" 
d="M750 1140q-86 0 -154 -24t-120 -65.5t-89.5 -97.5t-61.5 -119t-35 -130t-11 -131v-573h-179v538q0 171 40.5 311.5t122 240.5t203.5 155t284 55t283.5 -55t203 -155t122 -240.5t40.5 -311.5v-538h-179v573q0 64 -11 131t-35 130t-61 119t-89.5 97.5t-120.5 65.5t-153 24z
" />
    <glyph glyph-name="union" unicode="&#x222a;" horiz-adv-x="1500" 
d="M749 143q86 0 154 24t120 65.5t89.5 97.5t61.5 119t35 130t11 131v570l179 20v-555q0 -171 -40.5 -311.5t-122 -240.5t-203.5 -155t-284 -55t-283.5 55t-203 155t-122 240.5t-40.5 311.5v535l179 20v-590q0 -64 11 -131t35 -130t61 -119t89.5 -97.5t120.5 -65.5t153 -24z
" />
    <glyph glyph-name="integral" unicode="&#x222b;" 
d="M500 1117q0 85 15.5 158t53.5 127t101.5 84.5t159.5 30.5q46 0 78.5 -3.5t58 -10t46 -15t41.5 -18.5l-63 -123q-19 11 -51.5 19t-57.5 8h-16q-8 0 -36.5 -4.5t-58 -24.5t-45.5 -52t-21 -76.5t-5 -99.5v-1138q0 -85 -15.5 -158t-53.5 -127t-101.5 -84.5t-159.5 -30.5
q-46 0 -110.5 10t-133.5 37l83 123q19 -11 51.5 -19t57.5 -8q8 0 44.5 4.5t66 24.5t45.5 52t21 76.5t5 99.5v1138z" />
    <glyph glyph-name="contourintegral" unicode="&#x222e;" horiz-adv-x="1100" 
d="M500 1117q0 85 15.5 158t53.5 127t101.5 84.5t159.5 30.5q46 0 78.5 -3.5t58 -10t46 -15t41.5 -18.5l-63 -123q-19 11 -51.5 19t-57.5 8q-24 0 -52.5 -4.5t-58 -24.5t-45.5 -52t-21 -76.5t-5 -99.5v-243q59 -15 109 -46t86.5 -74.5t57 -96.5t20.5 -111
q0 -59 -20.5 -111.5t-57 -96t-86.5 -75t-109 -46.5v-238q0 -85 -15.5 -158t-53.5 -127t-101.5 -84.5t-159.5 -30.5q-46 0 -81.5 3.5t-64.5 10t-53 15t-45 18.5l83 123q19 -11 51.5 -19t57.5 -8q8 0 44.5 4.5t66 24.5t45.5 52t21 76.5t5 99.5v238q-60 15 -110 46.5t-87 74.5
t-57.5 96t-20.5 112t20.5 112t57.5 96.5t87 74.5t110 46v242zM357 546q0 -38 10.5 -72t29 -62.5t45 -51t58.5 -36.5v444q-64 -29 -103.5 -88t-39.5 -134zM841 546q0 37 -10.5 70.5t-29 62.5t-44.5 51.5t-57 36.5v-442q63 29 102 87.5t39 133.5z" />
    <glyph glyph-name="therefore" unicode="&#x2234;" 
d="M86 150q0 34 13 64t35.5 52.5t52 35.5t63.5 13t64 -13t52.5 -35.5t35.5 -52.5t13 -64t-13 -64.5t-35 -53t-51.5 -36t-63.5 -13.5t-64.5 13.5t-53 36t-35.5 53t-13 64.5zM886 150q0 34 13 64t35.5 52.5t52 35.5t63.5 13t64 -13t52.5 -35.5t35.5 -52.5t13 -64t-13 -64.5
t-35 -53t-51.5 -36t-63.5 -13.5t-64.5 13.5t-53 36t-35.5 53t-13 64.5zM486 1040q0 34 13 64t35.5 52.5t52 35.5t63.5 13t64 -13t52.5 -35.5t35.5 -52.5t13 -64t-13 -64.5t-35 -53t-51.5 -36t-63.5 -13.5t-64.5 13.5t-53 36t-35.5 53t-13 64.5z" />
    <glyph glyph-name="because" unicode="&#x2235;" 
d="M86 1040q0 34 13 64t35.5 52.5t52 35.5t63.5 13t64 -13t52.5 -35.5t35.5 -52.5t13 -64t-13 -64.5t-35 -53t-51.5 -36t-63.5 -13.5t-64.5 13.5t-53 36t-35.5 53t-13 64.5zM886 1040q0 34 13 64t35.5 52.5t52 35.5t63.5 13t64 -13t52.5 -35.5t35.5 -52.5t13 -64t-13 -64.5
t-35 -53t-51.5 -36t-63.5 -13.5t-64.5 13.5t-53 36t-35.5 53t-13 64.5zM486 150q0 34 13 64t35.5 52.5t52 35.5t63.5 13t64 -13t52.5 -35.5t35.5 -52.5t13 -64t-13 -64.5t-35 -53t-51.5 -36t-63.5 -13.5t-64.5 13.5t-53 36t-35.5 53t-13 64.5z" />
    <glyph glyph-name="similar" unicode="&#x223c;" horiz-adv-x="1000" 
d="M660 400q-35 0 -66 12.5t-59.5 31.5t-55 41t-52 41t-51 31.5t-51.5 12.5q-31 0 -58.5 -7.5t-54.5 -21.5t-54.5 -34.5t-57.5 -46.5v100q20 28 43 53t52 44.5t64.5 31t80.5 11.5q52 0 96.5 -26.5t84.5 -58.5t77.5 -58.5t76.5 -26.5q61 0 113 28.5t112 81.5v-100
q-20 -28 -43 -53t-52 -44.5t-64.5 -31t-80.5 -11.5z" />
    <glyph glyph-name="asymptoticallyequal" unicode="&#x2243;" horiz-adv-x="1000" 
d="M100 400h800v-140h-800v140zM660 500q-35 0 -66 12.5t-59.5 31.5t-55 41t-52 41t-51 31.5t-51.5 12.5q-31 0 -58.5 -7.5t-54.5 -21.5t-54.5 -34.5t-57.5 -46.5v100q20 28 43 53t52 44.5t64.5 31t80.5 11.5q52 0 96.5 -26.5t84.5 -58.5t77.5 -58.5t76.5 -26.5
q61 0 113 28.5t112 81.5v-100q-20 -28 -43 -53t-52 -44.5t-64.5 -31t-80.5 -11.5z" />
    <glyph glyph-name="congruent" unicode="&#x2245;" horiz-adv-x="1000" 
d="M100 600h800v-140h-800v140zM100 300h800v-140h-800v140zM660 700q-35 0 -66 12.5t-59.5 31.5t-55 41t-52 41t-51 31.5t-51.5 12.5q-31 0 -58.5 -7.5t-54.5 -21.5t-54.5 -34.5t-57.5 -46.5v100q20 28 43 53t52 44.5t64.5 31t80.5 11.5q52 0 96.5 -26.5t84.5 -58.5
t77.5 -58.5t76.5 -26.5q61 0 113 28.5t112 81.5v-100q-20 -28 -43 -53t-52 -44.5t-64.5 -31t-80.5 -11.5z" />
    <glyph glyph-name="approxequal" unicode="&#x2248;" horiz-adv-x="1000" 
d="M660 500q-35 0 -66 12.5t-59.5 31.5t-55 41t-52 41t-51 31.5t-51.5 12.5q-31 0 -58.5 -7.5t-54.5 -21.5t-54.5 -34.5t-57.5 -46.5v100q20 28 43 53t52 44.5t64.5 31t80.5 11.5q52 0 96.5 -26.5t84.5 -58.5t77.5 -58.5t76.5 -26.5q61 0 113 28.5t112 81.5v-100
q-20 -28 -43 -53t-52 -44.5t-64.5 -31t-80.5 -11.5zM660 200q-35 0 -66 12.5t-59.5 31.5t-55 41t-52 41t-51 31.5t-51.5 12.5q-31 0 -58.5 -7.5t-54.5 -21.5t-54.5 -34.5t-57.5 -46.5v100q20 28 43 53t52 44.5t64.5 31t80.5 11.5q52 0 96.5 -26.5t84.5 -58.5t77.5 -58.5
t76.5 -26.5q61 0 113 28.5t112 81.5v-100q-20 -28 -43 -53t-52 -44.5t-64.5 -31t-80.5 -11.5z" />
    <glyph glyph-name="estimate" unicode="&#x2259;" horiz-adv-x="1000" 
d="M100 600h800v-140h-800v140zM100 300h800v-140h-800v140zM874 754h-121l-227 196l-27 67l-26 -65l-220 -197h-130l333 352l78 10z" />
    <glyph glyph-name="notequal" unicode="&#x2260;" horiz-adv-x="1000" 
d="M100 400h280l58 160h-338v140h388l109 300h146l-106 -300h263v-140h-312l-56 -160h368v-140h-418l-91 -260h-155l94 260h-230v140z" />
    <glyph glyph-name="equivalence" unicode="&#x2261;" horiz-adv-x="1000" 
d="M100 600h800v-140h-800v140zM100 300h800v-140h-800v140zM100 900h800v-140h-800v140z" />
    <glyph glyph-name="lessequal" unicode="&#x2264;" horiz-adv-x="1300" 
d="M200 135h900l-20 -135h-880v135zM1100 1119v-140l-687 -293l-78 -16l77 -16l688 -291v-140l-900 365v168z" />
    <glyph glyph-name="greaterequal" unicode="&#x2265;" horiz-adv-x="1300" 
d="M200 135h900l-20 -135h-880v135zM1102 756v-168l-900 -365v140l688 291l77 16l-78 16l-687 293v140z" />
    <glyph glyph-name="propersubset" unicode="&#x2282;" horiz-adv-x="1500" 
d="M1420 0h-577q-171 0 -308.5 40.5t-234 122t-148.5 203.5t-52 284t52 284t148.5 203.5t234 122t308.5 40.5h577l-20 -154h-553q-131 0 -236 -29.5t-178.5 -90.5t-112.5 -155q-28 -65 -28 -221.5t28 -221.5q39 -94 112.5 -155t178.5 -90.5t236 -29.5h553z" />
    <glyph glyph-name="propersuperset" unicode="&#x2283;" horiz-adv-x="1500" 
d="M100 153h553q131 0 236 29.5t178.5 90.5t112.5 155q28 65 28 221.5t-28 221.5q-39 94 -112.5 155t-178.5 90.5t-236 29.5h-553l-20 154h577q171 0 308.5 -40.5t234 -122t148.5 -203.5t52 -284t-52 -284t-148.5 -203.5t-234 -122t-308.5 -40.5h-577z" />
    <glyph glyph-name="reflexsubset" unicode="&#x2286;" horiz-adv-x="1498" 
d="M200 155h1200l20 -154h-1220v154zM1420 300h-577q-171 0 -308.5 40.5t-234 122t-148.5 203.5t-52 234t52 234t148.5 203.5t234 122t308.5 40.5h577l-20 -154h-553q-131 0 -236 -29.5t-178.5 -90.5t-112.5 -155q-28 -65 -28 -171.5t28 -171.5q39 -94 112.5 -155
t178.5 -90.5t236 -29.5h553z" />
    <glyph glyph-name="reflexsuperset" unicode="&#x2287;" horiz-adv-x="1500" 
d="M1300 1h-1220l20 154h1200v-154zM100 453h553q131 0 236 29.5t178.5 90.5t112.5 155q28 65 28 171.5t-28 171.5q-39 94 -112.5 155t-178.5 90.5t-236 29.5h-553l-20 154h577q171 0 308.5 -40.5t234 -122t148.5 -203.5t52 -234t-52 -234t-148.5 -203.5t-234 -122
t-308.5 -40.5h-577z" />
    <glyph glyph-name="circleplus" unicode="&#x2295;" horiz-adv-x="1700" 
d="M83 750q0 106 27.5 204t77.5 183t120 155t155 120t183 77.5t204 27.5t204 -27.5t183 -77.5t155 -120t120 -155t77.5 -183t27.5 -204t-27.5 -204t-77.5 -183t-120 -155t-155 -120t-183 -77.5t-204 -27.5t-204 27.5t-183 77.5t-155 120t-120 155t-77.5 183t-27.5 204z
M236 675q13 -105 59 -198t117.5 -164.5t164.5 -117.5t198 -59v539h-539zM775 1362q-105 -13 -198 -59t-164.5 -117t-117.5 -163.5t-59 -197.5h539v537zM925 136q105 13 197.5 59t163.5 117.5t117 164.5t59 198h-537v-539zM1462 825q-13 105 -59 197.5t-117 163.5t-163.5 117
t-197.5 59v-537h537z" />
    <glyph glyph-name="circleminus" unicode="&#x2296;" horiz-adv-x="1700" 
d="M83 750q0 106 27.5 204t77.5 183t120 155t155 120t183 77.5t204 27.5t204 -27.5t183 -77.5t155 -120t120 -155t77.5 -183t27.5 -204t-27.5 -204t-77.5 -183t-120 -155t-155 -120t-183 -77.5t-204 -27.5t-204 27.5t-183 77.5t-155 120t-120 155t-77.5 183t-27.5 204z
M850 132q118 0 223 42t187 115t135 172t67 214h-1226q9 -77 36.5 -146.5t69 -130t96.5 -109.5t120.5 -84t139 -54t152.5 -19zM850 1367q-79 0 -152.5 -19t-139 -54t-120.5 -84t-96.5 -109t-69 -130t-36.5 -146h1226q-14 114 -67 213t-135 172t-187 115t-223 42z" />
    <glyph glyph-name="circlemultiply" unicode="&#x2297;" horiz-adv-x="1700" 
d="M83 750q0 106 27.5 204t77.5 183t120 155t155 120t183 77.5t204 27.5t204 -27.5t183 -77.5t155 -120t120 -155t77.5 -183t27.5 -204t-27.5 -204t-77.5 -183t-120 -155t-155 -120t-183 -77.5t-204 -27.5t-204 27.5t-183 77.5t-155 120t-120 155t-77.5 183t-27.5 204z
M232 750q0 -109 34.5 -205.5t96.5 -175.5l381 381l-381 380q-62 -79 -96.5 -175.5t-34.5 -204.5zM850 132q108 0 204.5 34.5t175.5 96.5l-380 381l-381 -381q79 -62 175.5 -96.5t205.5 -34.5zM850 1367q-109 0 -205 -34.5t-175 -96.5l380 -380l380 380q-79 62 -175.5 96.5
t-204.5 34.5zM1467 750q0 108 -34.5 204.5t-96.5 175.5l-380 -380l380 -380q62 79 96.5 175t34.5 205z" />
    <glyph glyph-name="circledivide" unicode="&#x2298;" horiz-adv-x="1700" 
d="M83 750q0 106 27.5 204t77.5 183t120 155t155 120t183 77.5t204 27.5t204 -27.5t183 -77.5t155 -120t120 -155t77.5 -183t27.5 -204t-27.5 -204t-77.5 -183t-120 -155t-155 -120t-183 -77.5t-204 -27.5t-204 27.5t-183 77.5t-155 120t-120 155t-77.5 183t-27.5 204z
M232 750q0 -109 34.5 -205.5t96.5 -175.5l867 867q-79 62 -175.5 96.5t-204.5 34.5q-128 0 -240.5 -48.5t-196.5 -132t-132.5 -196t-48.5 -240.5zM1467 750q0 108 -34.5 204.5t-96.5 175.5l-867 -867q79 -62 175.5 -96.5t205.5 -34.5q128 0 240.5 48.5t196 132.5t132 196.5
t48.5 240.5z" />
    <glyph glyph-name="perpendicular" unicode="&#x22a5;" horiz-adv-x="1400" 
d="M800 1300v-1150h500l-20 -150h-1185l20 150h485v1150h200z" />
    <glyph glyph-name="staroperator" unicode="&#x22c6;" horiz-adv-x="1100" 
d="M740 697l109 -337l-231 159l-68 66l-68 -66l-233 -159l108 337l-258 203h330l121 306l119 -306h330z" />
    <glyph glyph-name="verticalellipsis" unicode="&#x22ee;" horiz-adv-x="400" 
d="M86 150q0 34 13 64t35.5 52.5t52 35.5t63.5 13t64 -13t52.5 -35.5t35.5 -52.5t13 -64t-13 -64.5t-35 -53t-51.5 -36t-63.5 -13.5t-64.5 13.5t-53 36t-35.5 53t-13 64.5zM86 750q0 34 13 64t35.5 52.5t52 35.5t63.5 13t64 -13t52.5 -35.5t35.5 -52.5t13 -64t-13 -64.5
t-35 -53t-51.5 -36t-63.5 -13.5t-64.5 13.5t-53 36t-35.5 53t-13 64.5zM86 1350q0 34 13 64t35.5 52.5t52 35.5t63.5 13t64 -13t52.5 -35.5t35.5 -52.5t13 -64t-13 -64.5t-35 -53t-51.5 -36t-63.5 -13.5t-64.5 13.5t-53 36t-35.5 53t-13 64.5z" />
    <glyph glyph-name="house" unicode="&#x2302;" horiz-adv-x="1600" 
d="M1450 700l-50 100v-800h-1200v800l-49 -100h-51v185l100 43v272h200v-178l379 178l21 16l21 -16l679 -315v-185h-50zM1300 765l-500 235l-500 -235v-665h200v500h300v-500h500v665zM900 600h300v-300h-300v300zM700 100v400h-100v-400h100zM1000 400h100v100h-100v-100z
" />
    <glyph glyph-name="leftceiling" unicode="&#x2308;" horiz-adv-x="800" 
d="M300 0h-200v1500h600v-150h-400v-1350z" />
    <glyph glyph-name="rightceiling" unicode="&#x2309;" horiz-adv-x="800" 
d="M500 1350h-400v150h600v-1500h-200v1350z" />
    <glyph glyph-name="leftfloor" unicode="&#x230a;" horiz-adv-x="800" 
d="M300 150h400v-150h-600v1500h200v-1350z" />
    <glyph glyph-name="rightfloor" unicode="&#x230b;" horiz-adv-x="800" 
d="M500 1500h200v-1500h-600v150h400v1350z" />
    <glyph glyph-name="topleftcorner" unicode="&#x231c;" horiz-adv-x="1000" 
d="M300 750h-200v750h750v-150h-550v-600z" />
    <glyph glyph-name="toprightcorner" unicode="&#x231d;" horiz-adv-x="1000" 
d="M700 1350h-550v150h750v-750h-200v600z" />
    <glyph glyph-name="bottomleftcorner" unicode="&#x231e;" horiz-adv-x="1000" 
d="M300 150h550v-150h-750v750h200v-600z" />
    <glyph glyph-name="bottomrightcorner" unicode="&#x231f;" horiz-adv-x="1000" 
d="M700 750h200v-750h-750v150h550v600z" />
    <glyph glyph-name="blackrightpointingtriangle" unicode="&#x25b6;" horiz-adv-x="1000" 
d="M151 1135l749 -435l-749 -434l25 434z" />
    <glyph glyph-name="whiterightpointingtriangle" unicode="&#x25b7;" horiz-adv-x="1000" 
d="M151 266l25 434l-25 435l749 -435zM240 991l16 -291l-16 -290l501 290z" />
    <glyph glyph-name="blackrightpointingsmall" unicode="&#x25b8;" horiz-adv-x="900" 
d="M199 991l501 -291l-501 -290l17 290z" />
    <glyph glyph-name="whiterightpointingsmall" unicode="&#x25b9;" horiz-adv-x="900" 
d="M199 410l17 290l-17 291l501 -291zM287 847l9 -142v-10l-9 -141l253 146z" />
    <glyph glyph-name="blackdownpointingtriangle" unicode="&#x25bc;" horiz-adv-x="1300" 
d="M100 1100h1100l-550 -900z" />
    <glyph glyph-name="whitedownpointingtriangle" unicode="&#x25bd;" horiz-adv-x="1300" 
d="M650 410l330 570h-660zM100 1100h1100l-550 -900z" />
    <glyph glyph-name="blackdownpointingsmalltriangle" unicode="&#x25be;" horiz-adv-x="900" 
d="M65 1100h770l-385 -630z" />
    <glyph glyph-name="whitedownpointingsmalltriangle" unicode="&#x25bf;" horiz-adv-x="900" 
d="M450 617l231 399h-462zM65 1100h770l-385 -630z" />
    <glyph glyph-name="fisheye" unicode="&#x25c9;" horiz-adv-x="1000" 
d="M500 851q31 0 58 -12t47.5 -32.5t32.5 -47.5t12 -58t-12 -58.5t-32.5 -47.5t-47.5 -32t-58 -12t-58.5 12t-47.5 32t-32 47.5t-12 58.5t12 58t32 47.5t47.5 32.5t58.5 12zM84 701q0 86 32.5 162t89 132.5t132.5 89t162 32.5t162 -32.5t132.5 -89t89 -132.5t32.5 -162
t-32.5 -162t-89 -132.5t-132.5 -89t-162 -32.5t-162 32.5t-132.5 89t-89 132.5t-32.5 162zM200 701q0 -62 23.5 -117t64 -95.5t95.5 -64t117 -23.5t117 23.5t95.5 64t64 95.5t23.5 117t-23.5 117t-64 95.5t-95.5 64t-117 23.5t-117 -23.5t-95.5 -64t-64 -95.5t-23.5 -117z
" />
    <glyph glyph-name="bullseye" unicode="&#x25ce;" horiz-adv-x="1000" 
d="M500 821q-25 0 -46.5 -9.5t-38 -26t-26 -38t-9.5 -46.5t9.5 -46.5t26 -38t38 -26t46.5 -9.5t46.5 9.5t38 26t26 38t9.5 46.5t-9.5 46.5t-26 38t-38 26t-46.5 9.5zM84 701q0 86 32.5 162t89 132.5t132.5 89t162 32.5t162 -32.5t132.5 -89t89 -132.5t32.5 -162t-32.5 -162
t-89 -132.5t-132.5 -89t-162 -32.5t-162 32.5t-132.5 89t-89 132.5t-32.5 162zM200 701q0 -62 23.5 -117t64 -95.5t95.5 -64t117 -23.5t117 23.5t95.5 64t64 95.5t23.5 117t-23.5 117t-64 95.5t-95.5 64t-117 23.5t-117 -23.5t-95.5 -64t-64 -95.5t-23.5 -117zM300 701
q0 41 16 77.5t43 63.5t63.5 43t77.5 16t77.5 -16t63.5 -43t43 -63.5t16 -77.5t-16 -77.5t-43 -63.5t-63.5 -43t-77.5 -16t-77.5 16t-63.5 43t-43 63.5t-16 77.5z" />
    <glyph glyph-name="blackcircle" unicode="&#x25cf;" horiz-adv-x="1000" 
d="M84 701q0 86 32.5 162t89 132.5t132.5 89t162 32.5t162 -32.5t132.5 -89t89 -132.5t32.5 -162t-32.5 -162t-89 -132.5t-132.5 -89t-162 -32.5t-162 32.5t-132.5 89t-89 132.5t-32.5 162z" />
    <glyph glyph-name="circlewithlefthalfblack" unicode="&#x25d0;" horiz-adv-x="1000" 
d="M84 701q0 86 32.5 162t89 132.5t132.5 89t162 32.5t162 -32.5t132.5 -89t89 -132.5t32.5 -162t-32.5 -162t-89 -132.5t-132.5 -89t-162 -32.5t-162 32.5t-132.5 89t-89 132.5t-32.5 162zM800 701q0 62 -23.5 117t-64 95.5t-95.5 64t-117 23.5v-600q62 0 117 23.5t95.5 64
t64 95.5t23.5 117z" />
    <glyph glyph-name="circlewithrighthalfblack" unicode="&#x25d1;" horiz-adv-x="1000" 
d="M84 701q0 86 32.5 162t89 132.5t132.5 89t162 32.5t162 -32.5t132.5 -89t89 -132.5t32.5 -162t-32.5 -162t-89 -132.5t-132.5 -89t-162 -32.5t-162 32.5t-132.5 89t-89 132.5t-32.5 162zM200 701q0 -62 23.5 -117t64 -95.5t95.5 -64t117 -23.5v600q-62 0 -117 -23.5
t-95.5 -64t-64 -95.5t-23.5 -117z" />
    <glyph glyph-name="circlewithlowerhalfblack" unicode="&#x25d2;" horiz-adv-x="1000" 
d="M500 1117q86 0 162 -32.5t132.5 -89t89 -132.5t32.5 -162t-32.5 -162t-89 -132.5t-132.5 -89t-162 -32.5t-162 32.5t-132.5 89t-89 132.5t-32.5 162t32.5 162t89 132.5t132.5 89t162 32.5zM500 1001q-62 0 -117 -23.5t-95.5 -64t-64 -95.5t-23.5 -117h600q0 62 -23.5 117
t-64 95.5t-95.5 64t-117 23.5z" />
    <glyph glyph-name="circlewithupperhalfblack" unicode="&#x25d3;" horiz-adv-x="1000" 
d="M500 285q-86 0 -162 32.5t-132.5 89t-89 132.5t-32.5 162t32.5 162t89 132.5t132.5 89t162 32.5t162 -32.5t132.5 -89t89 -132.5t32.5 -162t-32.5 -162t-89 -132.5t-132.5 -89t-162 -32.5zM500 401q62 0 117 23.5t95.5 64t64 95.5t23.5 117h-600q0 -62 23.5 -117
t64 -95.5t95.5 -64t117 -23.5z" />
    <glyph glyph-name="day" unicode="&#x2600;" horiz-adv-x="1800" 
d="M1429 456q-5 -28 -12 -55t-17 -54l128 -102l-18 -39l-160 38q-46 -72 -111 -130l90 -189l-31 -21l-151 143q-24 -14 -49.5 -26.5t-52.5 -21.5l22 -246l-31 -7l-95 227q-22 -3 -44 -5t-45 -2h-11.5t-11.5 1l-59 -155l-43 6l-14 164q-83 23 -157 65l-151 -143l-30 21
l89 189q-21 19 -41 39.5t-37 43.5l-226 -97l-17 27l187 160q-13 26 -23 52t-18 54l-165 7l-7 42l152 65q0 11 -0.5 21.5t-0.5 22.5q0 67 13 125l-182 100l11 35l206 -27q23 53 56 100l-162 185l21 25l210 -128q20 20 42 37.5t45 33.5l-44 160l38 19l108 -124q76 31 165 40
l38 205h38l38 -205q29 -3 57 -8.5t55 -13.5l125 212l30 -12l-56 -240q50 -26 94 -61l139 91l30 -30l-86 -141q28 -33 51 -69t40 -76l206 27l11 -35l-182 -100q5 -27 8.5 -55t4.5 -57l239 -55v-32z" />
    <glyph glyph-name="cloud" unicode="&#x2601;" horiz-adv-x="1800" 
d="M802 1101q136 0 232.5 -67.5t140.5 -196.5q24 9 51 13.5t54 4.5q50 0 98 -17.5t85.5 -48.5t60.5 -74.5t23 -95.5q0 -21 -3 -43q55 -24 98 -63q18 -17 36 -38t31.5 -48t22 -59t8.5 -70q0 -56 -16.5 -102.5t-44.5 -82.5t-65.5 -59.5t-80.5 -33.5q-51 -15 -111.5 -17.5
t-131.5 -2.5h-749q-79 0 -158 23.5t-142 69t-102 114t-39 158.5q0 57 18 107t51.5 92t81 75.5t106.5 57.5q0 91 37.5 166t99.5 127.5t142 81.5t166 29zM427 557q-75 -29 -120.5 -80.5t-45.5 -111.5q0 -51 23.5 -90.5t62.5 -66.5t89.5 -41.5t104.5 -14.5h749q78 0 132.5 6
t89 22t50 44t15.5 73q0 34 -15 60.5t-41 49.5t-62 44.5t-78 44.5q10 14 16.5 36t6.5 48t-10 49.5t-27.5 41.5t-41 28.5t-51.5 10.5q-18 0 -35.5 -4.5t-32 -12t-26 -16t-18.5 -17.5l-134 107q-53 172 -226 172q-62 0 -114.5 -18t-90 -51.5t-58.5 -81.5t-21 -108l31 -123h-122
z" />
    <glyph glyph-name="umbrella" unicode="&#x2602;" horiz-adv-x="1300" 
d="M785 90q31 0 52.5 21.5t21.5 52.5l108 -28q0 -29 -14 -56.5t-38.5 -49t-58 -34.5t-71.5 -13q-41 0 -75 13.5t-58.5 37.5t-38 57t-13.5 73v636q-151 0 -247 -5.5t-153 -12.5q-66 -8 -100 -18q0 59 23.5 114t63.5 103.5t94 89t115 69t126 44.5t128 16q62 0 127.5 -16
t126.5 -44.5t115 -69t94 -89t63.5 -103.5t23.5 -114q-34 10 -100 18q-57 7 -153 12.5t-247 5.5v-626q0 -23 7.5 -39t19.5 -26t27 -14.5t31 -4.5z" />
    <glyph glyph-name="snowman" unicode="&#x2603;" horiz-adv-x="1667" 
d="M800 749q0 -21 15 -36t36 -15t36 15t15 36t-15 36t-36 15t-36 -15t-15 -36zM800 349q0 -21 15 -36t36 -15t36 15t15 36t-15 36t-36 15t-36 -15t-15 -36zM600 1250q0 -21 14.5 -35.5t35.5 -14.5t35.5 14.5t14.5 35.5t-14.5 35.5t-35.5 14.5t-35.5 -14.5t-14.5 -35.5z
M900 1260q0 -3 7.5 -9.5t18.5 -13t24 -11.5t24 -5t18.5 6t7.5 23q0 21 -14.5 35.5t-35.5 14.5t-35.5 -9.5t-14.5 -30.5zM1232 783q20 -31 36 -85t27 -114.5t16.5 -118.5t5.5 -97q0 -107 -40.5 -180.5t-111 -119t-164.5 -65.5t-201 -20t-201 20t-164.5 65.5t-111 119
t-40.5 180.5q0 65 15.5 139t44 147t68.5 138.5t89 113.5q54 52 113 76q-26 21 -47 40.5t-35.5 42t-22.5 49.5t-8 63q0 62 23.5 123t64 109t95.5 78t117 30t117 -30t95.5 -78t64 -109t23.5 -123q0 -36 -8 -63t-22.5 -49.5t-35.5 -42t-47 -40.5q20 -8 45 -20.5t52 -30.5
t54.5 -41t51.5 -51l-17 123l142 245l122 -70zM800 549q0 -21 15 -36t36 -15t36 15t15 36t-15 36t-36 15t-36 -15t-15 -36zM777 1208q-7 -11 -7 -25q0 -13 6.5 -24.5t18.5 -18.5q7 -5 30.5 -15t52 -20.5t56 -18.5t44.5 -8q12 0 15 5q1 1 1 4q0 12 -20 33.5t-46 43.5t-50 40
t-33 23q-11 7 -25 7q-13 0 -24.5 -6.5t-18.5 -19.5z" />
    <glyph glyph-name="blackstar" unicode="&#x2605;" horiz-adv-x="1700" 
d="M1169 561l181 -561l-385 265l-113 110l-113 -110l-389 -265l180 561l-430 339h550l202 510l198 -510h550z" />
    <glyph glyph-name="phone" unicode="&#x260e;" horiz-adv-x="1100" 
d="M630 629q23 34 53.5 77.5t58.5 83t47 70t19 39.5q0 12 -23 28t-50.5 32.5t-50.5 33t-23 30.5q0 21 11.5 53.5t30.5 69.5t42 73.5t46.5 66.5t44 48.5t34.5 18.5q15 0 44 -20.5t58 -52.5t50.5 -70t21.5 -74q0 -55 -15.5 -129t-45 -157t-71.5 -171.5t-96 -172.5t-116 -160
t-125 -138t-123.5 -107.5t-110.5 -68.5q-13 -6 -28.5 -8.5t-32.5 -2.5q-33 0 -67.5 8t-64.5 20t-51 25.5t-26 24.5q-2 6 -2 12q0 17 11 45t28.5 60.5t40.5 66.5t46.5 63.5t46 51.5t40.5 30q4 2 8 2q14 0 36 -13t45.5 -28.5t44.5 -28.5t34 -13q5 0 7 1q8 3 26 33t42 72
t51.5 89.5t53.5 86.5z" />
    <glyph glyph-name="emptybox" unicode="&#x2610;" horiz-adv-x="1100" 
d="M1100 0h-1100v1100h1100v-1100zM165 165h770v770h-770v-770z" />
    <glyph glyph-name="boxwithacheck" unicode="&#x2611;" horiz-adv-x="1100" 
d="M580 400l10 200q30 85 69 165.5t82 153t88 135.5t87 114.5t78.5 89t62.5 59.5l131 -17q-45 -50 -97.5 -120.5t-105.5 -155.5t-103 -179.5t-91 -193.5t-68.5 -197.5t-35.5 -190.5l-222 17l-205 520l168 20zM165 165h770v389q25 99 66 200t99 196v-950h-1100v1100h703
q-15 -15 -32 -34.5t-33.5 -41t-32 -44.5t-25.5 -45h-415v-770z" />
    <glyph glyph-name="boxwithaX" unicode="&#x2612;" horiz-adv-x="1100" 
d="M1100 0h-1100v1100h1100v-1100zM165 165h770v770h-770v-770zM701 230l-131 170l-8 68l-157 -238h-179l222 328l-221 286l195 25l93 -136l13 -102l140 222l191 17l-204 -301l241 -339h-195z" />
    <glyph glyph-name="frowningface" unicode="&#x2639;" horiz-adv-x="1300" 
d="M83 550q0 117 44.5 220.5t121.5 180.5t180.5 121.5t220.5 44.5t220.5 -44.5t180.5 -121.5t121.5 -180.5t44.5 -220.5t-44.5 -220.5t-121.5 -180.5t-180.5 -121.5t-220.5 -44.5t-220.5 44.5t-180.5 121.5t-121.5 180.5t-44.5 220.5zM200 550q0 -93 35.5 -175t96.5 -143
t143 -96.5t175 -35.5t175 35.5t143 96.5t96.5 143t35.5 175t-35.5 175t-96.5 143t-143 96.5t-175 35.5t-175 -35.5t-143 -96.5t-96.5 -143t-35.5 -175zM650 500q56 0 110 -18t96 -50.5t68 -77.5t26 -99q-2 3 -19.5 25.5t-54 49t-92.5 48t-134 21.5t-134.5 -21.5t-92.5 -48
t-54 -49t-19 -25.5q0 54 26 99t68 77.5t96 50.5t110 18zM750 600q-21 0 -35.5 14t-14.5 35v101q0 21 14.5 35.5t35.5 14.5t35.5 -14.5t14.5 -35.5v-101q0 -21 -14.5 -35t-35.5 -14zM550 600q-21 0 -35.5 14t-14.5 35v101q0 21 14.5 35.5t35.5 14.5t35.5 -14.5t14.5 -35.5
v-101q0 -21 -14.5 -35t-35.5 -14z" />
    <glyph glyph-name="smileface" unicode="&#x263a;" horiz-adv-x="1300" 
d="M83 550q0 117 44.5 220.5t121.5 180.5t180.5 121.5t220.5 44.5t220.5 -44.5t180.5 -121.5t121.5 -180.5t44.5 -220.5t-44.5 -220.5t-121.5 -180.5t-180.5 -121.5t-220.5 -44.5t-220.5 44.5t-180.5 121.5t-121.5 180.5t-44.5 220.5zM200 550q0 -93 35.5 -175t96.5 -143
t143 -96.5t175 -35.5t175 35.5t143 96.5t96.5 143t35.5 175t-35.5 175t-96.5 143t-143 96.5t-175 35.5t-175 -35.5t-143 -96.5t-96.5 -143t-35.5 -175zM650 400q78 0 134 21.5t92.5 47.5t54 48.5t19.5 25.5q0 -54 -26 -98.5t-68 -77t-96 -50.5t-110 -18t-110 18t-96 50.5
t-68 77t-26 98.5q1 -3 19 -25.5t54 -48.5t92.5 -47.5t134.5 -21.5zM750 600q-21 0 -35.5 14t-14.5 35v101q0 21 14.5 35.5t35.5 14.5t35.5 -14.5t14.5 -35.5v-101q0 -21 -14.5 -35t-35.5 -14zM550 600q-21 0 -35.5 14t-14.5 35v101q0 21 14.5 35.5t35.5 14.5t35.5 -14.5
t14.5 -35.5v-101q0 -21 -14.5 -35t-35.5 -14z" />
    <glyph glyph-name="sun" unicode="&#x263c;" horiz-adv-x="1800" 
d="M1429 456q-5 -28 -12 -55t-17 -54l128 -102l-18 -39l-160 38q-46 -72 -111 -130l90 -189l-31 -21l-151 143q-24 -14 -49.5 -26.5t-52.5 -21.5l22 -246l-31 -7l-95 227q-22 -3 -44 -5t-45 -2h-11.5t-11.5 1l-59 -155l-43 6l-14 164q-83 23 -157 65l-151 -143l-30 21
l89 189q-21 19 -41 39.5t-37 43.5l-226 -97l-17 27l187 160q-13 26 -23 52t-18 54l-165 7l-7 42l152 65q0 11 -0.5 21.5t-0.5 22.5q0 67 13 125l-182 100l11 35l206 -27q23 53 56 100l-162 185l21 25l210 -128q20 20 42 37.5t45 33.5l-44 160l38 19l108 -124q76 31 165 40
l38 205h38l38 -205q29 -3 57 -8.5t55 -13.5l125 212l30 -12l-56 -240q50 -26 94 -61l139 91l30 -30l-86 -141q28 -33 51 -69t40 -76l206 27l11 -35l-182 -100q5 -27 8.5 -55t4.5 -57l239 -55v-32zM1171 231q65 65 98.5 147t33.5 173t-33.5 172.5t-98.5 146.5q-64 64 -146 98
t-173 34t-173 -34t-146 -98q-65 -65 -98.5 -146.5t-33.5 -172.5t33.5 -173t98.5 -147q64 -64 146 -98t173 -34t173 34t146 98z" />
    <glyph glyph-name="night" unicode="&#x263e;" horiz-adv-x="1300" 
d="M1198 317q-34 -74 -87.5 -135.5t-121 -105.5t-147 -68.5t-166.5 -24.5q-119 0 -224 45.5t-183 123.5t-123.5 183t-45.5 224t45.5 224t123.5 183t183 123.5t224 45.5q70 0 135 -16t124 -46l-4 -22q-45 9 -91 9q-92 0 -173 -35t-141 -95t-95 -141t-35 -173t35 -173t95 -141
t141 -95t173 -35q103 0 191 42.5t149 115.5q0 -2 9 -7q4 -3 9 -6z" />
    <glyph glyph-name="spade" unicode="&#x2660;" horiz-adv-x="1400" 
d="M116 591q0 76 37.5 144.5t93.5 130.5t122 119t122 110.5t93.5 104t37.5 100.5h157q0 -50 37.5 -100.5t93.5 -104t121.5 -110.5t121.5 -119t93.5 -130.5t37.5 -144.5q0 -73 -23.5 -132t-65.5 -101t-101 -64.5t-130 -22.5l-201 170q0 -40 4 -80.5t17 -78t37.5 -69.5t64 -56
t97 -37.5t137.5 -13.5v-106h-840v106q120 0 190.5 29.5t107.5 77.5t47.5 108t10.5 120l-200 -170q-71 0 -130 22.5t-101 64.5t-65.5 101t-23.5 132z" />
    <glyph glyph-name="heartsuitwhite" unicode="&#x2661;" horiz-adv-x="1400" 
d="M130 700q-18 27 -34.5 56.5t-29.5 61t-21 65t-8 68.5q0 83 26.5 150t74.5 114.5t115 68.5t148 21q41 0 111.5 -23t147.5 -102l40 -158l40 158q77 78 148 101.5t112 23.5q81 0 148 -21t115 -68.5t74.5 -114.5t26.5 -150q0 -70 -28 -133.5t-66 -117.5l-570 -800zM700 50
l40 170l401 571q51 76 53.5 148t-13 110.5t-43 64.5t-60.5 39t-78 13q-60 0 -111.5 -34t-95 -125.5t-53.5 -126.5h-80q-10 35 -53.5 127.5t-95 127t-111.5 34.5q-45 0 -78 -13.5t-60 -40t-42.5 -65.5t-13 -111t53.5 -148l400 -571z" />
    <glyph glyph-name="diamondsuitwhite" unicode="&#x2662;" 
d="M1140 651l-540 -751l-542 749l542 751zM1044 650l-120 30l-294 448l-30 110l-30 -110l-295 -448l-120 -30l120 -30l294 -447l30 -110l30 110l295 447z" />
    <glyph glyph-name="club" unicode="&#x2663;" horiz-adv-x="1400" 
d="M763 441q0 -40 4 -80.5t17 -78t37.5 -69.5t64 -56t97 -37.5t137.5 -13.5v-106h-840v106q120 0 190.5 29.5t107.5 77.5t47.5 108t10.5 120l-199 -168q-71 1 -136 9.5t-115 38.5t-80 89t-30 160q0 59 22.5 110t57.5 89t79 60t88 22l277 -151q-75 75 -115.5 124.5t-59.5 81
t-22 47t-3 23.5q0 37 3.5 75.5t14 74.5t30.5 67.5t53.5 55.5t82 37.5t116.5 13.5q102 0 161.5 -30t90.5 -77t39.5 -105t8.5 -113q0 -7 -3 -23t-22 -47t-59.5 -80.5t-115.5 -124.5l277 151q41 0 85 -21.5t80 -59t59.5 -89t23.5 -111.5q0 -101 -29.5 -160t-79.5 -89.5
t-115 -39t-136 -8.5z" />
    <glyph glyph-name="flag1" unicode="&#x2690;" horiz-adv-x="1000" 
d="M900 1100v-559q-24 -29 -77.5 -50.5t-122.5 -21.5q-23 0 -46.5 2.5t-48 9.5t-50.5 20t-55 34q-43 31 -78 58t-65.5 46t-59 30t-58.5 11q-19 0 -39 -7v-673l-100 -20v1060l-18 235q1 0 5 2q9 3 26 9t39.5 11t50 9t59.5 4t67.5 -5.5t72 -19t73.5 -36.5t73 -58
q57 -56 105 -79t88 -23q26 0 48.5 9t42.5 23zM800 1000q-35 -11 -67 -11q-59 0 -117 29.5t-116 81.5q-34 30 -64 51t-57.5 33.5t-54 18t-52.5 5.5q-32 0 -72 -8l15 -300l-15 -100q48 0 90.5 -11.5t80 -30t69.5 -42t60 -48.5q64 -57 112 -80.5t88 -23.5q32 0 59 11t41 25v400
z" />
    <glyph glyph-name="flag2" unicode="&#x2691;" horiz-adv-x="1000" 
d="M900 1100v-559q-24 -29 -77.5 -50.5t-122.5 -21.5q-23 0 -46.5 2.5t-48 9.5t-50.5 20t-55 34q-43 31 -78 58t-65.5 46t-59 30t-58.5 11q-19 0 -39 -7v-673l-100 -20v1060l-18 235q1 0 5 2q9 3 26 9t39.5 11t50 9t59.5 4t67.5 -5.5t72 -19t73.5 -36.5t73 -58
q57 -56 105 -79t88 -23q26 0 48.5 9t42.5 23z" />
    <glyph glyph-name="warning" unicode="&#x26a0;" horiz-adv-x="1900" 
d="M1774 261q35 -60 35 -115q0 -65 -49 -105.5t-137 -40.5h-1347q-88 0 -136 40t-48 105q0 26 8.5 55.5t26.5 60.5l674 1149q31 54 69.5 80.5t80.5 26.5q39 0 79 -27t71 -80zM1703 123l-752 1286l-747 -1286h1499zM1026 1100v-527l-150 -13v540h150zM864 351q0 18 7 33.5
t18.5 27t27 19t33.5 7.5q19 0 34 -7.5t27 -19t19 -27t7 -33.5t-7 -34t-18.5 -27.5t-27 -19t-33.5 -7.5t-34 7.5t-27.5 19t-18.5 27.5t-7 34z" />
    <glyph glyph-name="highvoltage" unicode="&#x26a1;" horiz-adv-x="1000" 
d="M600 1500h100l-260 -600l-40 -36l53 8l447 28l-500 -900h-100l260 600l40 34l-52 -10l-448 -24z" />
    <glyph glyph-name="plane" unicode="&#x2708;" horiz-adv-x="1800" 
d="M696 -20l92 451l25 211h-213q-75 0 -132.5 4.5t-96.5 10.5q-46 7 -78 16l-153 -216l-63 -4l32 252l-79 36v18l79 36l-32 252l63 -4l153 -216q32 8 78 15q39 6 96.5 11t132.5 5h213l-25 211l-92 451l99 -20l345 -647l400 -15q22 -1 50 -6.5t52.5 -16.5t41 -27t16.5 -38
t-16.5 -38t-41 -27t-52.5 -16.5t-50 -6.5l-400 -15l-345 -647z" />
    <glyph glyph-name="mail" unicode="&#x2709;" horiz-adv-x="1400" 
d="M1300 0h-1200v900h1200v-900zM1141 800h-881l384 -301l56 -99l58 101zM182 766l32 -118v-348l-32 -138l296 338zM1171 100l-284 274l-26 74l-82 -73l-78 -110l-77 107l-85 76l-25 -73l-283 -275h940zM1218 161l-32 139v348l32 118l-297 -266z" />
    <glyph glyph-name="checkmark" unicode="&#x2713;" horiz-adv-x="1100" 
d="M580 400l10 200q30 85 69 165.5t82 153t88 135.5t87 114.5t78.5 89t62.5 59.5l131 -17q-45 -50 -97.5 -120.5t-105.5 -155.5t-103 -179.5t-91 -193.5t-68.5 -197.5t-35.5 -190.5l-222 17l-205 520l168 20z" />
    <glyph glyph-name="whitecircledone" unicode="&#x2780;" horiz-adv-x="1700" 
d="M83 750q0 106 27.5 204t77.5 183t120 155t155 120t183 77.5t204 27.5t204 -27.5t183 -77.5t155 -120t120 -155t77.5 -183t27.5 -204t-27.5 -204t-77.5 -183t-120 -155t-155 -120t-183 -77.5t-204 -27.5t-204 27.5t-183 77.5t-155 120t-120 155t-77.5 183t-27.5 204z
M201 750q0 -134 51 -252.5t139 -206.5t206.5 -139t252.5 -51q89 0 172 23t155 65.5t131 102t101.5 131.5t65.5 154.5t23 172.5q0 134 -51 252t-139 206t-206 139t-252 51q-90 0 -172.5 -23t-154.5 -65.5t-131.5 -101.5t-102 -131t-65.5 -155t-23 -172zM655 300v96h147v580
l35 136l-82 -112l-127 -113l-65 73l275 252l90 -12v-804h147v-96h-420z" />
    <glyph glyph-name="whitecircledtwo" unicode="&#x2781;" horiz-adv-x="1700" 
d="M83 750q0 106 27.5 204t77.5 183t120 155t155 120t183 77.5t204 27.5t204 -27.5t183 -77.5t155 -120t120 -155t77.5 -183t27.5 -204t-27.5 -204t-77.5 -183t-120 -155t-155 -120t-183 -77.5t-204 -27.5t-204 27.5t-183 77.5t-155 120t-120 155t-77.5 183t-27.5 204z
M201 750q0 -134 51 -252.5t139 -206.5t206.5 -139t252.5 -51q89 0 172 23t155 65.5t131 102t101.5 131.5t65.5 154.5t23 172.5q0 134 -51 252t-139 206t-206 139t-252 51q-90 0 -172.5 -23t-154.5 -65.5t-131.5 -101.5t-102 -131t-65.5 -155t-23 -172zM586 300v101
q29 45 62.5 89.5t67 85.5t66.5 78t61 67q31 34 58.5 63.5t48.5 59t33.5 60t12.5 65.5q0 29 -11 54.5t-30.5 44.5t-46.5 30t-59 11q-37 0 -63.5 -10t-46.5 -26t-35 -36.5t-27 -40.5l-85 36q16 39 40 71.5t57 56.5t75 37t94 13q61 0 108 -21.5t80 -56.5t50 -79.5t17 -90.5
t-17 -87.5t-42.5 -79t-55 -70.5t-54.5 -62q-31 -37 -62 -72t-59.5 -69t-53 -65.5t-42.5 -60.5h402v-96h-543z" />
    <glyph glyph-name="whitecircledthree" unicode="&#x2782;" horiz-adv-x="1700" 
d="M83 750q0 106 27.5 204t77.5 183t120 155t155 120t183 77.5t204 27.5t204 -27.5t183 -77.5t155 -120t120 -155t77.5 -183t27.5 -204t-27.5 -204t-77.5 -183t-120 -155t-155 -120t-183 -77.5t-204 -27.5t-204 27.5t-183 77.5t-155 120t-120 155t-77.5 183t-27.5 204z
M201 750q0 -134 51 -252.5t139 -206.5t206.5 -139t252.5 -51q89 0 172 23t155 65.5t131 102t101.5 131.5t65.5 154.5t23 172.5q0 134 -51 252t-139 206t-206 139t-252 51q-90 0 -172.5 -23t-154.5 -65.5t-131.5 -101.5t-102 -131t-65.5 -155t-23 -172zM624 1104l9 96h438
v-84q-7 -24 -24 -50t-40.5 -52.5t-50.5 -52.5t-55 -50l-79 -44q6 1 15.5 1.5t17.5 0.5q58 0 108 -14.5t87 -43.5t58.5 -74t21.5 -105q0 -58 -21.5 -105.5t-59 -84.5t-88 -63.5t-108 -44t-118.5 -26t-120 -8.5v96q50 2 98 9t91 20t79.5 31.5t63.5 43.5t42 56t15 70
q0 43 -18.5 72t-50 45.5t-74.5 23.5t-92 7q-20 0 -42.5 -1t-40.5 -2v93q25 18 54 41t58 47.5t57 50t51 49t38.5 43t20.5 33.5l-91 -24h-250z" />
    <glyph glyph-name="whitecircledfour" unicode="&#x2783;" horiz-adv-x="1700" 
d="M83 750q0 106 27.5 204t77.5 183t120 155t155 120t183 77.5t204 27.5t204 -27.5t183 -77.5t155 -120t120 -155t77.5 -183t27.5 -204t-27.5 -204t-77.5 -183t-120 -155t-155 -120t-183 -77.5t-204 -27.5t-204 27.5t-183 77.5t-155 120t-120 155t-77.5 183t-27.5 204z
M201 750q0 -134 51 -252.5t139 -206.5t206.5 -139t252.5 -51q89 0 172 23t155 65.5t131 102t101.5 131.5t65.5 154.5t23 172.5q0 134 -51 252t-139 206t-206 139t-252 51q-90 0 -172.5 -23t-154.5 -65.5t-131.5 -101.5t-102 -131t-65.5 -155t-23 -172zM1126 480h-108v-180
h-126v180h-357v103l290 629l114 -12l-249 -540l-56 -84h258v244l126 -10v-234h117z" />
    <glyph glyph-name="whitecircledfive" unicode="&#x2784;" horiz-adv-x="1700" 
d="M83 750q0 106 27.5 204t77.5 183t120 155t155 120t183 77.5t204 27.5t204 -27.5t183 -77.5t155 -120t120 -155t77.5 -183t27.5 -204t-27.5 -204t-77.5 -183t-120 -155t-155 -120t-183 -77.5t-204 -27.5t-204 27.5t-183 77.5t-155 120t-120 155t-77.5 183t-27.5 204z
M201 750q0 -134 51 -252.5t139 -206.5t206.5 -139t252.5 -51q89 0 172 23t155 65.5t131 102t101.5 131.5t65.5 154.5t23 172.5q0 134 -51 252t-139 206t-206 139t-252 51q-90 0 -172.5 -23t-154.5 -65.5t-131.5 -101.5t-102 -131t-65.5 -155t-23 -172zM746 889q4 3 14.5 8
t26 10.5t35.5 9.5t45 4q62 0 111 -19.5t83 -53.5t51.5 -79.5t17.5 -97.5q0 -60 -21.5 -111.5t-59 -92.5t-87.5 -72t-106.5 -52.5t-116.5 -32t-118 -10.5v96q45 1 91 11t89 26.5t80.5 40t65.5 52t44 62t16 71.5q0 30 -9.5 59t-29 51.5t-49 36.5t-68.5 14q-31 0 -55.5 -4
t-44 -10t-33.5 -13t-23 -13h-74v420h452v-96h-327v-215z" />
    <glyph glyph-name="whitecircledsix" unicode="&#x2785;" horiz-adv-x="1700" 
d="M83 750q0 106 27.5 204t77.5 183t120 155t155 120t183 77.5t204 27.5t204 -27.5t183 -77.5t155 -120t120 -155t77.5 -183t27.5 -204t-27.5 -204t-77.5 -183t-120 -155t-155 -120t-183 -77.5t-204 -27.5t-204 27.5t-183 77.5t-155 120t-120 155t-77.5 183t-27.5 204z
M201 750q0 -134 51 -252.5t139 -206.5t206.5 -139t252.5 -51q89 0 172 23t155 65.5t131 102t101.5 131.5t65.5 154.5t23 172.5q0 134 -51 252t-139 206t-206 139t-252 51q-90 0 -172.5 -23t-154.5 -65.5t-131.5 -101.5t-102 -131t-65.5 -155t-23 -172zM1022 1106q-4 2 -12 2
h-15q-43 0 -83.5 -13.5t-76.5 -38t-66.5 -58.5t-53.5 -75.5t-38 -88t-20 -96.5l50 70q15 10 35 18.5t42 15t45 10.5t43 4q53 0 101 -14.5t85.5 -44.5t60 -77t22.5 -112t-22 -123t-61.5 -101.5t-94.5 -68.5t-122 -25q-59 0 -104.5 19t-79 50t-56 71t-36.5 82.5t-20 84
t-6 75.5q0 71 14.5 139t42.5 127.5t68 110t91.5 86t113 55.5t132.5 20h19q11 0 17 -2zM662 658q0 -17 0.5 -30.5t2 -27t4 -27t6.5 -29.5q8 -34 22.5 -62t35.5 -48t48 -31t61 -11q48 0 81 18t54 47.5t31 67.5t10 77q0 38 -11 66.5t-31.5 47.5t-49 28.5t-63.5 9.5
q-32 0 -62.5 -7.5t-57.5 -21t-47.5 -31t-33.5 -36.5z" />
    <glyph glyph-name="whitecircledseven" unicode="&#x2786;" horiz-adv-x="1700" 
d="M83 750q0 106 27.5 204t77.5 183t120 155t155 120t183 77.5t204 27.5t204 -27.5t183 -77.5t155 -120t120 -155t77.5 -183t27.5 -204t-27.5 -204t-77.5 -183t-120 -155t-155 -120t-183 -77.5t-204 -27.5t-204 27.5t-183 77.5t-155 120t-120 155t-77.5 183t-27.5 204z
M201 750q0 -134 51 -252.5t139 -206.5t206.5 -139t252.5 -51q89 0 172 23t155 65.5t131 102t101.5 131.5t65.5 154.5t23 172.5q0 134 -51 252t-139 206t-206 139t-252 51q-90 0 -172.5 -23t-154.5 -65.5t-131.5 -101.5t-102 -131t-65.5 -155t-23 -172zM610 1200h540v-78
q0 -26 -19.5 -66.5t-49.5 -91t-65.5 -108t-68 -118.5t-56.5 -122.5t-30 -118.5q-3 -24 -4.5 -50t-2.5 -52t-1 -51v-44h-123q0 18 0.5 48.5t1.5 64t3.5 66.5t7.5 56q14 64 40 126.5t56 119.5t62 108t57.5 93t42 73t16.5 49h-407v96z" />
    <glyph glyph-name="whitecircledeight" unicode="&#x2787;" horiz-adv-x="1700" 
d="M83 750q0 106 27.5 204t77.5 183t120 155t155 120t183 77.5t204 27.5t204 -27.5t183 -77.5t155 -120t120 -155t77.5 -183t27.5 -204t-27.5 -204t-77.5 -183t-120 -155t-155 -120t-183 -77.5t-204 -27.5t-204 27.5t-183 77.5t-155 120t-120 155t-77.5 183t-27.5 204z
M201 750q0 -134 51 -252.5t139 -206.5t206.5 -139t252.5 -51q89 0 172 23t155 65.5t131 102t101.5 131.5t65.5 154.5t23 172.5q0 134 -51 252t-139 206t-206 139t-252 51q-90 0 -172.5 -23t-154.5 -65.5t-131.5 -101.5t-102 -131t-65.5 -155t-23 -172zM837 1210
q54 0 101 -15t81 -43t53 -68.5t19 -90.5q0 -35 -10.5 -63t-28.5 -49.5t-41.5 -39.5t-50.5 -33q45 -20 80 -45.5t59 -57.5t37 -72t13 -87q0 -67 -26.5 -115t-70 -79.5t-99 -46.5t-113.5 -15q-57 0 -109.5 17t-93 50.5t-65.5 83t-25 113.5q0 48 14 87t38 70.5t57 55.5t71 43
q-28 17 -52 36t-42.5 40t-29 45.5t-10.5 54.5q0 59 23 101t59 69.5t79 40.5t83 13zM830 756q-38 -16 -68 -35.5t-51.5 -44.5t-33 -56t-11.5 -72q0 -36 14.5 -65t39 -50.5t56 -33t65.5 -11.5q38 0 72.5 10.5t60.5 31t41 50.5t15 69q0 40 -17.5 71.5t-46 56.5t-64 44t-72.5 35
zM855 854q55 24 87.5 59t32.5 85q0 30 -12 51.5t-31 35.5t-41.5 20t-42.5 6q-27 0 -52 -8t-44.5 -23t-31 -35.5t-11.5 -44.5q0 -27 11.5 -48.5t31.5 -38.5t46.5 -31.5t56.5 -27.5z" />
    <glyph glyph-name="whitecirclednine" unicode="&#x2788;" horiz-adv-x="1700" 
d="M83 750q0 106 27.5 204t77.5 183t120 155t155 120t183 77.5t204 27.5t204 -27.5t183 -77.5t155 -120t120 -155t77.5 -183t27.5 -204t-27.5 -204t-77.5 -183t-120 -155t-155 -120t-183 -77.5t-204 -27.5t-204 27.5t-183 77.5t-155 120t-120 155t-77.5 183t-27.5 204z
M201 750q0 -134 51 -252.5t139 -206.5t206.5 -139t252.5 -51q89 0 172 23t155 65.5t131 102t101.5 131.5t65.5 154.5t23 172.5q0 134 -51 252t-139 206t-206 139t-252 51q-90 0 -172.5 -23t-154.5 -65.5t-131.5 -101.5t-102 -131t-65.5 -155t-23 -172zM989 698
q-36 -28 -71.5 -41t-80.5 -13q-59 0 -110 19.5t-88.5 55.5t-59.5 86.5t-22 113.5q0 64 21 117.5t59 92.5t92.5 60t121.5 21q60 0 106 -18.5t79.5 -49t56 -70t36 -82.5t19 -85t5.5 -77q0 -70 -14 -136t-41.5 -125t-67 -108.5t-90 -85.5t-112 -58t-131.5 -25l-19 100
q72 4 135.5 34.5t111.5 81t78 118t34 144.5zM1030 872q-2 45 -13.5 87t-32.5 75.5t-53 53.5t-75 20q-41 0 -73.5 -13t-55.5 -36.5t-35 -56.5t-12 -73q0 -39 10 -72.5t30 -58t51 -38.5t72 -14q32 0 61 10t53.5 27t43 40t29.5 49z" />
    <glyph glyph-name="whitecircledzero" unicode="&#x2789;" horiz-adv-x="1700" 
d="M83 750q0 106 27.5 204t77.5 183t120 155t155 120t183 77.5t204 27.5t204 -27.5t183 -77.5t155 -120t120 -155t77.5 -183t27.5 -204t-27.5 -204t-77.5 -183t-120 -155t-155 -120t-183 -77.5t-204 -27.5t-204 27.5t-183 77.5t-155 120t-120 155t-77.5 183t-27.5 204z
M201 750q0 -134 51 -252.5t139 -206.5t206.5 -139t252.5 -51q89 0 172 23t155 65.5t131 102t101.5 131.5t65.5 154.5t23 172.5q0 134 -51 252t-139 206t-206 139t-252 51q-90 0 -172.5 -23t-154.5 -65.5t-131.5 -101.5t-102 -131t-65.5 -155t-23 -172zM845 290
q-51 0 -93.5 19.5t-76.5 53t-59.5 78.5t-42.5 96.5t-25.5 105.5t-8.5 107q0 54 7 109t23 106t40 96t58 78t78 52t100 19q51 0 93.5 -19.5t76.5 -53t59.5 -78.5t42.5 -96.5t25.5 -106t8.5 -106.5q0 -54 -7 -109t-23 -106t-40 -96t-58 -78t-78.5 -52t-99.5 -19zM663 776
q0 -35 2.5 -76.5t9.5 -84t20 -82t34 -70.5t50.5 -49.5t70.5 -18.5q36 0 63.5 14t47.5 38.5t32.5 56.5t20 68.5t10.5 75.5t3 76q0 35 -2.5 76.5t-9.5 83.5t-20 82t-34 70.5t-50.5 49.5t-70.5 19q-36 0 -63.5 -14.5t-47.5 -38.5t-32.5 -56t-20 -69t-10.5 -75.5t-3 -75.5z" />
    <glyph glyph-name="blackcircledone" unicode="&#x278a;" horiz-adv-x="1700" 
d="M83 750q0 106 27.5 204t77.5 183t120 155t155 120t183 77.5t204 27.5t204 -27.5t183 -77.5t155 -120t120 -155t77.5 -183t27.5 -204t-27.5 -204t-77.5 -183t-120 -155t-155 -120t-183 -77.5t-204 -27.5t-204 27.5t-183 77.5t-155 120t-120 155t-77.5 183t-27.5 204z
M1075 300v96h-147v804l-90 12l-275 -252l65 -73l127 113l82 112l-35 -136v-580h-147v-96h420z" />
    <glyph glyph-name="blackcircledtwo" unicode="&#x278b;" horiz-adv-x="1700" 
d="M83 750q0 106 27.5 204t77.5 183t120 155t155 120t183 77.5t204 27.5t204 -27.5t183 -77.5t155 -120t120 -155t77.5 -183t27.5 -204t-27.5 -204t-77.5 -183t-120 -155t-155 -120t-183 -77.5t-204 -27.5t-204 27.5t-183 77.5t-155 120t-120 155t-77.5 183t-27.5 204z
M1129 300v96h-402q18 29 42.5 60.5t53 65.5t59.5 69t62 72q25 29 54.5 62t55 70.5t42.5 79t17 87.5t-17 90.5t-50 79.5t-80 56.5t-108 21.5q-52 0 -94 -13t-75 -37t-57 -56.5t-40 -71.5l85 -36q12 20 27 40.5t35 36.5t46.5 26t63.5 10q32 0 59 -11t46.5 -30t30.5 -44.5
t11 -54.5q0 -35 -12.5 -65.5t-33.5 -60t-48.5 -59t-58.5 -63.5q-28 -30 -61 -67t-66.5 -78t-67 -85.5t-62.5 -89.5v-101h543z" />
    <glyph glyph-name="blackcircledthree" unicode="&#x278c;" horiz-adv-x="1700" 
d="M83 750q0 106 27.5 204t77.5 183t120 155t155 120t183 77.5t204 27.5t204 -27.5t183 -77.5t155 -120t120 -155t77.5 -183t27.5 -204t-27.5 -204t-77.5 -183t-120 -155t-155 -120t-183 -77.5t-204 -27.5t-204 27.5t-183 77.5t-155 120t-120 155t-77.5 183t-27.5 204z
M874 1104l91 24q-5 -14 -20.5 -33.5t-38.5 -43t-51 -49t-57 -50t-58 -47.5t-54 -41v-93q18 1 40.5 2t42.5 1q49 0 92 -7t74.5 -23.5t50 -45.5t18.5 -72q0 -39 -15 -70t-42 -56t-63.5 -43.5t-79.5 -31.5t-91 -20t-98 -9v-96q59 0 120 8.5t118.5 26t108 44t88 63.5t59 84.5
t21.5 105.5q0 60 -21.5 105t-58.5 74t-87 43.5t-108 14.5q-8 0 -17.5 -0.5t-15.5 -1.5l79 44q28 24 55 50t50.5 52.5t40.5 52.5t24 50v84h-438l-9 -96h250z" />
    <glyph glyph-name="blackcircledfour" unicode="&#x278d;" horiz-adv-x="1700" 
d="M83 750q0 106 27.5 204t77.5 183t120 155t155 120t183 77.5t204 27.5t204 -27.5t183 -77.5t155 -120t120 -155t77.5 -183t27.5 -204t-27.5 -204t-77.5 -183t-120 -155t-155 -120t-183 -77.5t-204 -27.5t-204 27.5t-183 77.5t-155 120t-120 155t-77.5 183t-27.5 204z
M1135 576h-117v234l-126 10v-244h-258l56 84l249 540l-114 12l-290 -629v-103h357v-180h126v180h108z" />
    <glyph glyph-name="blackcircledfive" unicode="&#x278e;" horiz-adv-x="1700" 
d="M83 750q0 106 27.5 204t77.5 183t120 155t155 120t183 77.5t204 27.5t204 -27.5t183 -77.5t155 -120t120 -155t77.5 -183t27.5 -204t-27.5 -204t-77.5 -183t-120 -155t-155 -120t-183 -77.5t-204 -27.5t-204 27.5t-183 77.5t-155 120t-120 155t-77.5 183t-27.5 204z
M746 1104h327v96h-452v-420h74q9 6 23 13t33.5 13t44 10t55.5 4q39 0 68.5 -14t49 -36.5t29 -51.5t9.5 -59q0 -38 -16 -71.5t-44 -62t-65.5 -52t-80.5 -40t-89 -26.5t-91 -11v-96q58 0 118 10.5t116.5 32t106.5 52.5t87.5 72t59 92.5t21.5 111.5q0 52 -17.5 97.5t-51.5 79.5
t-83 53.5t-111 19.5q-25 0 -45 -4t-35.5 -9.5t-26 -10.5t-14.5 -8v215z" />
    <glyph glyph-name="blackcircledsix" unicode="&#x278f;" horiz-adv-x="1700" 
d="M83 750q0 106 27.5 204t77.5 183t120 155t155 120t183 77.5t204 27.5t204 -27.5t183 -77.5t155 -120t120 -155t77.5 -183t27.5 -204t-27.5 -204t-77.5 -183t-120 -155t-155 -120t-183 -77.5t-204 -27.5t-204 27.5t-183 77.5t-155 120t-120 155t-77.5 183t-27.5 204z
M1037 1208q-6 2 -17 2h-19q-71 0 -132.5 -20t-113 -55.5t-91.5 -86t-68 -110t-42.5 -127.5t-14.5 -139q0 -34 6 -75.5t20 -84t36.5 -82.5t56 -71t79 -50t104.5 -19q67 0 122 25t94.5 68.5t61.5 101.5t22 123t-22.5 112t-60 77t-85.5 44.5t-101 14.5q-20 0 -43 -4t-45 -10.5
t-42 -15t-35 -18.5l-50 -70q5 50 20 96.5t38 88t53.5 75.5t66.5 58.5t76.5 38t83.5 13.5h15q8 0 12 -2zM662 658q13 19 33.5 36.5t47.5 31t57.5 21t62.5 7.5q35 0 63.5 -9.5t49 -28.5t31.5 -47.5t11 -66.5q0 -39 -10 -77t-31 -67.5t-54 -47.5t-81 -18q-34 0 -61 11t-48 31
t-35.5 48t-22.5 62q-4 16 -6.5 29.5t-4 27t-2 27t-0.5 30.5z" />
    <glyph glyph-name="blackcircledseven" unicode="&#x2790;" horiz-adv-x="1700" 
d="M83 750q0 106 27.5 204t77.5 183t120 155t155 120t183 77.5t204 27.5t204 -27.5t183 -77.5t155 -120t120 -155t77.5 -183t27.5 -204t-27.5 -204t-77.5 -183t-120 -155t-155 -120t-183 -77.5t-204 -27.5t-204 27.5t-183 77.5t-155 120t-120 155t-77.5 183t-27.5 204z
M610 1104h407q0 -18 -16.5 -49t-42 -73t-57.5 -93t-62 -108t-56 -119.5t-40 -126.5q-5 -23 -7.5 -56t-3.5 -66.5t-1.5 -64t-0.5 -48.5h123v44q0 25 1 51t2.5 52t4.5 50q6 57 30 118.5t56.5 122.5t68 118.5t65.5 108t49.5 91t19.5 66.5v78h-540v-96z" />
    <glyph glyph-name="blackcircledeight" unicode="&#x2791;" horiz-adv-x="1700" 
d="M83 750q0 106 27.5 204t77.5 183t120 155t155 120t183 77.5t204 27.5t204 -27.5t183 -77.5t155 -120t120 -155t77.5 -183t27.5 -204t-27.5 -204t-77.5 -183t-120 -155t-155 -120t-183 -77.5t-204 -27.5t-204 27.5t-183 77.5t-155 120t-120 155t-77.5 183t-27.5 204z
M837 1210q-40 0 -83 -13t-79 -40.5t-59 -69.5t-23 -101q0 -30 10.5 -54.5t29 -45.5t42.5 -40t52 -36q-38 -19 -71 -43t-57 -55.5t-38 -70.5t-14 -87q0 -64 25 -113.5t65.5 -83t93 -50.5t109.5 -17q58 0 113.5 15t99 46.5t70 79.5t26.5 115q0 47 -13 87t-37 72t-59 57.5
t-80 45.5q27 15 50.5 33t41.5 39.5t28.5 49.5t10.5 63q0 50 -19 90.5t-53 68.5t-81 43t-101 15zM830 756q37 -16 72.5 -35t64 -44t46 -56.5t17.5 -71.5q0 -39 -15 -69t-41 -50.5t-60.5 -31t-72.5 -10.5q-34 0 -65.5 11.5t-56 33t-39 50.5t-14.5 65q0 41 11.5 72t33 56
t51.5 44.5t68 35.5zM855 854q-30 13 -56.5 27.5t-46.5 31.5t-31.5 38.5t-11.5 48.5q0 24 11.5 44.5t31 35.5t44.5 23t52 8q20 0 42.5 -6t41.5 -20t31 -35.5t12 -51.5q0 -50 -32.5 -85t-87.5 -59z" />
    <glyph glyph-name="blackcirclednine" unicode="&#x2792;" horiz-adv-x="1700" 
d="M83 750q0 106 27.5 204t77.5 183t120 155t155 120t183 77.5t204 27.5t204 -27.5t183 -77.5t155 -120t120 -155t77.5 -183t27.5 -204t-27.5 -204t-77.5 -183t-120 -155t-155 -120t-183 -77.5t-204 -27.5t-204 27.5t-183 77.5t-155 120t-120 155t-77.5 183t-27.5 204z
M1037 768q-4 -77 -34 -144.5t-78 -118t-111.5 -81t-135.5 -34.5l19 -100q70 3 131.5 25t112 58t90 85.5t67 108.5t41.5 125t14 136q0 35 -5.5 77t-19 85t-36 82.5t-56 70t-79.5 49t-106 18.5q-67 0 -121.5 -21t-92.5 -60t-59 -92.5t-21 -117.5q0 -63 22 -113.5t59.5 -86.5
t88.5 -55.5t110 -19.5q45 0 80.5 13t71.5 41zM1030 872q-11 -26 -29.5 -49t-43 -40t-53.5 -27t-61 -10q-41 0 -72 14t-51 38.5t-30 58t-10 72.5q0 40 12 73t35 56.5t55.5 36.5t73.5 13q43 0 75 -20t53 -53.5t32.5 -75.5t13.5 -87z" />
    <glyph glyph-name="blackcircledzero" unicode="&#x2793;" horiz-adv-x="1700" 
d="M83 750q0 106 27.5 204t77.5 183t120 155t155 120t183 77.5t204 27.5t204 -27.5t183 -77.5t155 -120t120 -155t77.5 -183t27.5 -204t-27.5 -204t-77.5 -183t-120 -155t-155 -120t-183 -77.5t-204 -27.5t-204 27.5t-183 77.5t-155 120t-120 155t-77.5 183t-27.5 204z
M845 290q55 0 99.5 19t78.5 52t58 78t40 96t23 106t7 109q0 52 -8.5 106.5t-25.5 106t-42.5 96.5t-59.5 78.5t-76.5 53t-93.5 19.5q-56 0 -100 -19t-78 -52t-58 -78t-40 -96t-23 -106t-7 -109q0 -53 8.5 -107t25.5 -105.5t42.5 -96.5t59.5 -78.5t76.5 -53t93.5 -19.5z
M663 776q0 37 3 75.5t10.5 75.5t20 69t32.5 56t47.5 38.5t63.5 14.5q41 0 70.5 -19t50.5 -49.5t34 -70.5t20 -82t9.5 -83.5t2.5 -76.5q0 -37 -3 -76t-10.5 -75.5t-20 -68.5t-32.5 -56.5t-47.5 -38.5t-63.5 -14q-41 0 -70.5 18.5t-50.5 49.5t-34 70.5t-20 82t-9.5 84
t-2.5 76.5z" />
    <glyph glyph-name="widerightwardsarrow" unicode="&#x2794;" horiz-adv-x="1900" 
d="M1800 600l-290 -220l-320 -281h-270l282 265l198 150l-218 -14h-1082l30 200h1052l218 -14l-198 146l-282 267h270l320 -279z" />
    <glyph glyph-name="takeoff" unicode="&#xe000;" horiz-adv-x="2600" 
d="M1495 1138l556 240q39 14 82.5 21.5t87.5 7.5q43 0 92.5 -10.5t91.5 -34t69.5 -60.5t27.5 -91q0 -44 -22 -87.5t-56.5 -81t-77.5 -67t-85 -47.5l-1048 -429q-5 0 -12 0.5t-15 0.5q-38 0 -98.5 -3.5t-131 -8.5t-144 -12t-136.5 -14t-109 -14t-61 -12l-48 132l-338 199
l224 82l334 -81l335 139l-451 359l335 122zM80 -200l20 200h1800v-200h-1820zM2000 -200v200h200v-200h-200zM2300 -200v200h100v-200h-100z" />
    </font>
</defs>
</svg>
