<?xml version="1.0" standalone="no"?>
<!DOCTYPE svg PUBLIC "-//W3C//DTD SVG 1.1//EN" "http://www.w3.org/Graphics/SVG/1.1/DTD/svg11.dtd" >
<svg xmlns="http://www.w3.org/2000/svg" xmlns:xlink="http://www.w3.org/1999/xlink" version="1.1">
<metadata>
Created by FontForge 20170731 at Tue Mar 12 17:14:33 2019
 By Aleksey,,,
Copyright 2012 The B612 Project Authors (https://github.com/polarsys/b612)
</metadata>
<defs>
<font id="B612-Bold" horiz-adv-x="1200" >
  <font-face 
    font-family="B612"
    font-weight="700"
    font-stretch="normal"
    units-per-em="2000"
    panose-1="2 11 6 6 5 0 0 2 0 4"
    ascent="1600"
    descent="-400"
    x-height="1100"
    cap-height="1525"
    bbox="-130 -710 3141 1928"
    underline-thickness="100"
    underline-position="-400"
    unicode-range="U+0020-FB06"
  />
<missing-glyph horiz-adv-x="1300" 
d="M100 1500h1100v-1500h-1100v1500zM300 200h700v1100h-700v-1100z" />
    <glyph glyph-name=".notdef" horiz-adv-x="1300" 
d="M100 1500h1100v-1500h-1100v1500zM300 200h700v1100h-700v-1100z" />
    <glyph glyph-name=".null" horiz-adv-x="0" 
 />
    <glyph glyph-name="nonmarkingreturn" horiz-adv-x="666" 
 />
    <glyph glyph-name="NULL" horiz-adv-x="0" 
 />
    <glyph glyph-name="NULL" horiz-adv-x="0" 
 />
    <glyph glyph-name="space" unicode=" " horiz-adv-x="700" 
 />
    <glyph glyph-name="exclam" unicode="!" horiz-adv-x="700" 
d="M400 1500v-1056l-300 -35v1091h300zM103 137q0 30 11.5 57t31.5 47.5t47 32t57 11.5t57.5 -11.5t47.5 -32t31.5 -47.5t11.5 -57q0 -31 -11.5 -58.5t-31 -48t-46.5 -32.5t-57 -12q-31 0 -58.5 12t-47.5 32.5t-31.5 48t-11.5 58.5z" />
    <glyph glyph-name="quotedbl" unicode="&#x22;" horiz-adv-x="800" 
d="M674 1500v-133q0 -18 -0.5 -42.5t-1.5 -51.5t-3 -54.5t-5 -50.5l-23 -155h-180l-23 155q-3 23 -5 50.5t-3 54.5t-1.5 51.5t-0.5 42.5v133h246zM374 1500v-133q0 -18 -0.5 -42.5t-1.5 -51.5t-3 -54.5t-5 -50.5l-23 -155h-180l-23 155q-3 23 -5 50.5t-3 54.5t-1.5 51.5
t-0.5 42.5v133h246z" />
    <glyph glyph-name="numbersign" unicode="#" horiz-adv-x="1700" 
d="M1352 902q-5 -41 -9.5 -77t-9.5 -72t-9.5 -74t-9.5 -81h305l-27 -218h-303l-48 -374l-353 -33l52 407h-278l-45 -374l-352 -33l50 407h-275v218h300l38 304h-342l27 218h342l17 138v236l381 32l-51 -406h279l45 374l352 33l-49 -407h236v-218h-263zM1004 902h-277
q-5 -41 -9.5 -77t-9.5 -72t-9.5 -74t-9.5 -81h277z" />
    <glyph glyph-name="dollar" unicode="$" horiz-adv-x="1100" 
d="M399 -14q-106 8 -197.5 42t-185.5 93l138 227q22 -15 50.5 -32t60.5 -33t66.5 -29.5t67.5 -20.5v479q-69 33 -135.5 69t-118.5 81t-84 102.5t-32 132.5q0 82 29.5 148.5t80 117.5t118 85.5t142.5 51.5v181l300 38v-220q74 -17 145.5 -49t144.5 -81l-150 -191
q-42 24 -76.5 42t-63.5 32v-386q65 -31 127 -69t110.5 -87.5t78 -113.5t29.5 -148q0 -85 -27.5 -154.5t-75.5 -123.5t-112.5 -92.5t-139.5 -61.5v-206h-290v176zM758 430q0 54 -33 94t-84 72v-347q24 9 45.5 23.5t37.5 36t25 51.5t9 70zM335 1125q0 -29 9.5 -52t26 -41.5
t38.5 -33t48 -26.5v296q-25 -8 -47 -19.5t-38.5 -29t-26.5 -41t-10 -53.5z" />
    <glyph glyph-name="percent" unicode="%" horiz-adv-x="1800" 
d="M639 0h-333l819 1500h324zM401 726q-87 0 -159 30.5t-124 84t-81 126.5t-29 158q0 84 27.5 156t78.5 124.5t124 82t163 29.5q86 0 158 -29.5t123.5 -82t80.5 -124.5t29 -156q0 -85 -27.5 -158t-78.5 -126.5t-123.5 -84t-161.5 -30.5zM492 1115q0 36 -5 70.5t-16 62
t-28.5 44.5t-42.5 17q-23 0 -39.5 -14.5t-27 -38t-15.5 -54t-5 -63.5q0 -36 5 -70.5t16 -61.5t28.5 -43.5t41.5 -16.5q23 0 39.5 14.5t27.5 38t16 53.5t5 62zM1352 -17q-87 0 -159 30.5t-123.5 84t-80.5 126.5t-29 158q0 84 27.5 156t78.5 124.5t123.5 82t162.5 29.5
q86 0 158 -29.5t123.5 -82t80.5 -124.5t29 -156q0 -85 -27.5 -158t-78.5 -126.5t-123.5 -84t-161.5 -30.5zM1443 371q0 36 -5 71t-16 62.5t-28.5 44.5t-42.5 17q-23 0 -39 -14.5t-26.5 -38.5t-15.5 -54.5t-5 -62.5q0 -36 5 -71t16 -62t28 -43.5t42 -16.5q22 0 38.5 14.5
t27.5 38t16 53.5t5 62z" />
    <glyph glyph-name="ampersand" unicode="&#x26;" horiz-adv-x="1400" 
d="M1335 760q0 -151 -38 -285.5t-118 -245.5l186 -248h-368l-44 61q-66 -32 -139 -46.5t-158 -14.5q-74 0 -147.5 16.5t-140.5 48t-124 76t-98.5 101t-65.5 123.5t-24 142q0 61 19 119.5t53 112t80.5 101t100.5 86.5q-35 58 -56.5 121t-21.5 126q0 87 31.5 155t88.5 114.5
t135.5 71t173.5 24.5q79 0 143.5 -17.5t116.5 -47t92 -67.5t70 -79l-142 -210q-25 27 -58 60t-70 62.5t-76 49.5t-76 20q-20 0 -40 -8.5t-36 -25.5t-25.5 -43t-9.5 -60q0 -12 1.5 -24.5t5.5 -24.5q4 -14 10.5 -30t21.5 -41t42 -64t72 -100.5t111 -150t159 -211.5
q14 51 19.5 103t7.5 115zM659 217q35 0 68 7t68 27l-327 440q-99 -96 -99 -202q0 -61 24 -110t64 -84.5t92.5 -55.5t109.5 -22z" />
    <glyph glyph-name="quotesingle" unicode="'" horiz-adv-x="400" 
d="M100 1500h270v-133q0 -36 -7 -68.5t-23.5 -67t-43.5 -74t-67 -89.5h-139q2 80 6 156.5t4 142.5v133z" />
    <glyph glyph-name="parenleft" unicode="(" horiz-adv-x="900" 
d="M144 1158q0 93 10 173.5t45.5 140.5t103 94t181.5 34q25 0 53.5 -3.5t57 -10.5t54.5 -17.5t47 -23.5l-90 -114q-18 0 -42.5 -5t-46.5 -25.5t-37 -61.5t-15 -112v-1273q0 -73 15.5 -113.5t36.5 -59.5t43.5 -22.5t37.5 -3.5l98 -120q-21 -13 -47 -23.5t-54.5 -17.5
t-57 -10.5t-53.5 -3.5q-114 0 -181.5 36.5t-103 99.5t-45.5 146t-10 176v1120z" />
    <glyph glyph-name="parenright" unicode=")" horiz-adv-x="900" 
d="M730 38q0 -93 -10 -176t-45.5 -146t-103 -99.5t-181.5 -36.5q-25 0 -53.5 3.5t-57 10.5t-54.5 17.5t-47 23.5l98 120q15 0 37.5 3.5t43.5 22.5t36.5 59.5t15.5 113.5v1273q0 71 -15 112t-37 61.5t-46.5 25.5t-42.5 5l-90 114q21 13 47 23.5t54.5 17.5t57 10.5t53.5 3.5
q114 0 181.5 -34t103 -94t45.5 -140.5t10 -173.5v-1120z" />
    <glyph glyph-name="asterisk" unicode="*" horiz-adv-x="1100" 
d="M741 926l92 -121l-168 -151l-112 146l-55 190l-50 -190l-101 -144l-199 125l122 169l161 91h-210l-151 49l44 219l185 -50l159 -139l-67 195v131l229 24v-161l-77 -192l147 130l144 47l94 -211l-138 -46h-223z" />
    <glyph glyph-name="plus" unicode="+" 
d="M80 700h360v430h220v-430h360v-200h-360v-400h-220v400h-360v200z" />
    <glyph glyph-name="comma" unicode="," horiz-adv-x="500" 
d="M56 169q0 36 13 69.5t38 59.5t61 42t82 16t82 -18t61 -47t38 -66.5t13 -76.5q0 -51 -16 -113t-45 -124.5t-70 -118.5t-90 -95l-154 65q42 56 65.5 117t30.5 121q-49 21 -79 62.5t-30 106.5z" />
    <glyph glyph-name="hyphen" unicode="-" horiz-adv-x="900" 
d="M124 624h627v-224h-627v224z" />
    <glyph glyph-name="period" unicode="." horiz-adv-x="600" 
d="M66 171q0 38 14.5 71.5t39.5 59t58.5 40t71.5 14.5t72 -14.5t59 -40t39.5 -59t14.5 -71.5q0 -39 -14.5 -73t-39 -59.5t-58 -40.5t-71.5 -15t-72.5 15t-59.5 40.5t-39.5 59.5t-14.5 73z" />
    <glyph glyph-name="slash" unicode="/" horiz-adv-x="1100" 
d="M342 -100h-352l709 1700h343z" />
    <glyph glyph-name="zero" unicode="0" horiz-adv-x="1300" 
d="M598 -16q-93 0 -171 32.5t-140 88.5t-109 131t-78 160t-46.5 176t-15.5 178q0 90 13 181.5t41.5 177t73 159.5t106.5 129.5t143 87t183 31.5q93 0 171 -32.5t140 -88.5t109 -131t78 -160t46.5 -176t15.5 -178q0 -90 -13.5 -181.5t-41.5 -177t-72.5 -159.5t-107 -129.5
t-143.5 -87t-182 -31.5zM386 791q0 -51 3 -113t11.5 -124.5t23.5 -121.5t39.5 -105t59 -73.5t82.5 -27.5q42 0 73.5 20.5t54.5 56t38 83t23.5 101.5t12 110.5t3.5 111.5q0 51 -3 113t-11.5 124.5t-23.5 121.5t-39.5 104.5t-59.5 73t-83 27.5q-42 0 -73.5 -20.5t-54.5 -56
t-37.5 -83t-23 -101t-12 -110.5t-3.5 -111z" />
    <glyph glyph-name="one" unicode="1" horiz-adv-x="1300" 
d="M530 880l74 363l-227 -271l-84 -74l-155 185l480 442l243 -33v-1292h243v-200h-817v200h243v680z" />
    <glyph glyph-name="two" unicode="2" horiz-adv-x="1300" 
d="M112 0v190q47 74 108.5 155.5t126.5 160t127 148.5t109 121q54 58 92 98t61 74t33.5 68.5t10.5 81.5q0 37 -12.5 73.5t-35.5 65.5t-55.5 46.5t-73.5 17.5q-82 0 -144 -55t-110 -149l-233 87q29 77 75 138.5t108.5 105t142 67t176.5 23.5q114 0 203 -37.5t150.5 -98.5
t93.5 -138.5t32 -156.5q0 -70 -22 -129t-59 -113.5t-84 -108.5t-97 -114t-103.5 -122t-102 -118t-88 -103t-61.5 -78h642v-200h-1010z" />
    <glyph glyph-name="three" unicode="3" horiz-adv-x="1300" 
d="M263 938q29 21 70 51t87.5 66t95 75.5t93 81t81.5 83t61 79.5l-260 -74h-331l21 200h842v-173q-31 -79 -89 -145t-129 -130l-156 -83q105 0 191.5 -27.5t147.5 -78.5t94.5 -124.5t33.5 -165.5q0 -99 -41 -180t-111 -144.5t-164.5 -110.5t-202 -77.5t-222 -45.5
t-225.5 -15v200q118 4 230 31t200 73.5t141.5 112t53.5 146.5q0 58 -24.5 97.5t-66.5 64t-97.5 35t-117.5 10.5q-15 0 -44 -1.5t-60 -3t-59.5 -3t-42.5 -2.5v178z" />
    <glyph glyph-name="four" unicode="4" horiz-adv-x="1300" 
d="M1139 300h-178v-300h-321v300h-600v200l495 1025l315 -33l-327 -729l-174 -263h291v299l321 -27v-272h199z" />
    <glyph glyph-name="five" unicode="5" horiz-adv-x="1300" 
d="M491 1046q24 6 52.5 9.5t63.5 3.5q116 0 207.5 -34t155 -93t97 -137.5t33.5 -168.5q0 -103 -41 -189t-111.5 -155.5t-164.5 -122t-200.5 -88t-219.5 -53.5t-221 -18v226q71 2 145.5 16t144.5 38t132 58t108.5 75.5t73.5 90t27 102.5q0 41 -14 80t-39.5 69t-60.5 48.5
t-78 18.5q-38 0 -71 -6t-60 -15.5t-47.5 -20.5t-35.5 -21h-225v741h866v-200h-517v-254z" />
    <glyph glyph-name="six" unicode="6" horiz-adv-x="1300" 
d="M993 1280q-26 14 -56.5 17t-54.5 3q-69 0 -142.5 -33.5t-138.5 -97.5t-113.5 -157t-66.5 -212l165 145q27 5 52.5 8t48.5 3q97 0 187.5 -24.5t160.5 -77t112 -134t42 -195.5q0 -111 -40 -209.5t-112.5 -172.5t-174.5 -117t-225 -43q-108 0 -190.5 32t-144 84.5
t-103.5 120t-67.5 139t-36.5 141.5t-11 127q0 118 25.5 230t74 210.5t119 181.5t160 142.5t197.5 92.5t231 33q18 0 51.5 -2.5t84.5 -16.5zM673 756q-36 0 -72.5 -15t-70 -38t-62 -50.5t-47.5 -51.5q0 -26 0.5 -47.5t2.5 -41t5 -38.5t9 -40q12 -47 31.5 -89.5t45 -74.5
t57 -51t68.5 -19q54 0 94 28.5t66.5 74t39 102t12.5 111.5q0 50 -13.5 94t-37.5 76.5t-57 51t-71 18.5z" />
    <glyph glyph-name="seven" unicode="7" horiz-adv-x="1300" 
d="M140 1500h1007v-161q0 -27 -14.5 -65t-39 -84.5t-56.5 -101t-68 -112.5q-42 -70 -88 -149t-86 -161t-69 -163.5t-38 -156.5q-4 -36 -6.5 -80t-3.5 -90.5t-1 -91.5v-84h-337q0 32 0.5 86t3 114t7 118.5t13.5 99.5q19 89 53.5 179.5t77 176.5t89 165t88.5 147
q35 57 63.5 105t40.5 81h-636v228z" />
    <glyph glyph-name="eight" unicode="8" horiz-adv-x="1300" 
d="M616 1517q103 0 190.5 -26.5t151.5 -76t100 -120.5t36 -160q0 -51 -20 -94t-51.5 -79t-72 -65t-80.5 -52q66 -32 124 -74.5t101 -95t67.5 -114.5t24.5 -133q0 -115 -48.5 -199t-127.5 -138.5t-181 -80.5t-208 -26q-104 0 -201.5 29.5t-172.5 87.5t-120.5 143.5
t-45.5 197.5q0 71 21.5 132.5t60 112.5t91 91.5t115.5 70.5q-46 27 -85 57.5t-68 64.5t-45.5 72t-16.5 82q0 102 44 176.5t111.5 122.5t149 71t156.5 23zM862 422q0 54 -23 98t-59.5 79.5t-82 63t-90.5 48.5q-43 -21 -79.5 -48.5t-63.5 -63.5t-42.5 -80t-15.5 -98
q0 -48 19.5 -89t50 -70t69.5 -45.5t78 -16.5q45 0 88 15t76.5 43.5t54 69.5t20.5 94zM475 1156q0 -34 14 -62.5t37.5 -52.5t54 -43t62.5 -34q27 15 51 34.5t41.5 43t28 51.5t10.5 59q0 38 -14.5 66t-35.5 46t-45.5 27t-44.5 9q-28 0 -56.5 -11t-51 -30.5t-37 -46
t-14.5 -56.5z" />
    <glyph glyph-name="nine" unicode="9" horiz-adv-x="1300" 
d="M288 199q69 2 136 23.5t127 56.5t111 82t88.5 102t59.5 115.5t23 121.5l-178 -152q-16 -2 -32.5 -3t-33.5 -1q-109 0 -204 33.5t-165 95.5t-110 149.5t-40 194.5q0 111 38 203t108.5 158t170.5 102.5t224 36.5q110 0 194 -31t145.5 -82.5t103 -118.5t66 -138.5t35 -142.5
t10.5 -131q0 -177 -56 -332.5t-163 -274t-262 -193t-353 -90.5zM598 761q34 0 70 16t68 42t58.5 59t42.5 67q-3 63 -19 126.5t-44.5 114.5t-68 82.5t-87.5 31.5q-47 0 -86.5 -21.5t-69 -57.5t-46 -84.5t-16.5 -102.5t13.5 -103t39 -87t62 -60.5t83.5 -22.5z" />
    <glyph glyph-name="colon" unicode=":" horiz-adv-x="600" 
d="M66 171q0 38 14.5 71.5t39.5 59t58.5 40t71.5 14.5t72 -14.5t59 -40t39.5 -59t14.5 -71.5q0 -39 -14.5 -73t-39 -59.5t-58 -40.5t-71.5 -15t-72.5 15t-59.5 40.5t-39.5 59.5t-14.5 73zM66 715q0 38 14.5 71.5t39.5 59t58.5 40t71.5 14.5t72 -14.5t59 -40t39.5 -59
t14.5 -71.5q0 -39 -14.5 -73t-39 -59.5t-58 -40.5t-71.5 -15t-72.5 15t-59.5 40.5t-39.5 59.5t-14.5 73z" />
    <glyph glyph-name="semicolon" unicode=";" horiz-adv-x="500" 
d="M66 714q0 38 14.5 71.5t39.5 59t58.5 40t71.5 14.5t72 -14.5t59 -40t39.5 -59t14.5 -71.5q0 -39 -14.5 -73t-39 -59.5t-58 -40.5t-71.5 -15t-72.5 15t-59.5 40.5t-39.5 59.5t-14.5 73zM56 169q0 36 13 69.5t38 59.5t61 42t82 16t82 -18t61 -47t38 -66.5t13 -76.5
q0 -51 -16 -113t-45 -124.5t-70 -118.5t-90 -95l-154 65q42 56 65.5 117t30.5 121q-49 21 -79 62.5t-30 106.5z" />
    <glyph glyph-name="less" unicode="&#x3c;" horiz-adv-x="1300" 
d="M1137 1277v-268l-667 -355l667 -352v-268l-1007 511v225z" />
    <glyph glyph-name="equal" unicode="=" horiz-adv-x="1000" 
d="M100 800h800v-219h-800v219zM100 400h800v-219h-800v219z" />
    <glyph glyph-name="greater" unicode="&#x3e;" horiz-adv-x="1300" 
d="M1137 770v-225l-1007 -511v268l667 352l-667 355v269z" />
    <glyph glyph-name="question" unicode="?" horiz-adv-x="1100" 
d="M1038 1124q0 -60 -20 -109.5t-52 -92.5t-74 -81t-85 -76q-29 -25 -58.5 -56.5t-53 -71.5t-38 -90t-14.5 -113l-311 -35q1 87 13.5 163t41.5 143t76 125.5t118 111.5q22 19 43 39t37 42.5t26 49t10 59.5q0 40 -14.5 68.5t-39 47t-56.5 27t-66 8.5q-26 0 -63.5 -8.5
t-80 -28t-85 -51.5t-76.5 -78l-182 151q57 76 121.5 124.5t131.5 76t133 38t125 10.5q95 0 184 -23.5t157.5 -72t110 -122.5t41.5 -175zM352 137q0 30 11.5 57t31.5 47.5t47 32t57 11.5t57.5 -11.5t47.5 -32t31.5 -47.5t11.5 -57q0 -31 -11.5 -58.5t-31 -48t-46.5 -32.5
t-57 -12q-31 0 -58.5 12t-47.5 32.5t-31.5 48t-11.5 58.5z" />
    <glyph glyph-name="at" unicode="@" horiz-adv-x="2000" 
d="M1013 -12q-8 -2 -19 -3.5t-32 -1.5q-86 0 -161.5 31.5t-131.5 87.5t-89 132t-33 166q0 96 40 158.5t104 100t142.5 52.5t155.5 15q45 0 80.5 -3t62.5 -8q-1 40 -6 73.5t-18 58.5t-35 39t-56 14q-42 0 -77.5 -3.5t-67 -10t-62 -16t-61.5 -20.5l-96 181q46 18 89.5 34
t88.5 27.5t93 18t102 6.5q130 0 206 -31.5t115.5 -89t50.5 -138t11 -177.5v-476q0 -17 10.5 -31.5t32.5 -14.5q12 0 21.5 22.5t17 57.5t13 78t9 83.5t5.5 74t2 50.5q0 201 -33 345t-101 236.5t-171 136.5t-244 44q-266 0 -397.5 -173.5t-131.5 -508.5q0 -168 28.5 -313
t91 -252t162 -168t242.5 -61q59 0 104 3.5t82 12t69.5 21.5t67.5 32l104 -201q-56 -30 -105.5 -48.5t-98 -29t-100 -14.5t-111.5 -4q-145 0 -265.5 36.5t-216.5 102.5t-168 157t-120 199.5t-72 231.5t-24 252q0 132 25 254.5t74.5 228.5t122.5 193t169.5 149t215 96
t259.5 34q133 0 249 -33.5t212 -93.5t170.5 -144.5t126 -186.5t78.5 -218.5t27 -241.5q0 -82 -5.5 -160t-21 -146.5t-43 -125.5t-71 -98t-105.5 -63.5t-146 -22.5q-56 0 -107.5 14.5t-93 39t-71.5 57t-44 68.5zM1133 515q-24 3 -52.5 5.5t-54.5 2.5q-36 0 -70.5 -10
t-61.5 -30t-44 -51t-17 -73q0 -34 11 -63t29 -50.5t40.5 -33.5t45.5 -12q29 0 55.5 9t49 22.5t40 29.5t29.5 29v225z" />
    <glyph glyph-name="A" unicode="A" horiz-adv-x="1300" 
d="M6 0l398 1284l35 210l378 31l479 -1525h-342l-116 427h-392l-113 -427h-327zM642 1361l-53 -371l-84 -344h274l-85 344z" />
    <glyph glyph-name="B" unicode="B" horiz-adv-x="1300" 
d="M471 1130v-230h29q47 0 94.5 13t85.5 40.5t62 70.5t24 104q0 55 -23 90t-59 54t-79.5 26t-84.5 7q-14 0 -32 -1t-33 -3zM120 0v1262l-32 219q43 6 94 11t101.5 9t96.5 6t79 2q120 0 232 -15.5t198.5 -55.5t138.5 -110.5t52 -179.5q0 -54 -15.5 -102t-43 -88.5t-67 -74
t-87.5 -57.5q64 -22 120.5 -53t98.5 -74t66 -98.5t24 -125.5q0 -88 -25 -157.5t-67.5 -122t-100.5 -90t-123.5 -61t-136 -34t-138.5 -10.5h-465zM471 228h57q75 0 133.5 11.5t99 39.5t62 73t21.5 113q0 65 -21 108.5t-58 70t-88 38t-111 11.5h-95v-465z" />
    <glyph glyph-name="C" unicode="C" 
d="M1144 133q-101 -81 -213.5 -115.5t-242.5 -34.5q-155 0 -278 62.5t-209 169.5t-131.5 250t-45.5 304q0 151 41 287t125.5 238.5t213.5 162.5t305 60q129 0 246.5 -44.5t205.5 -128.5l-148 -174q-33 22 -69 42t-73.5 35t-74.5 24t-71 9q-95 0 -161.5 -40.5t-108.5 -110
t-61.5 -162t-19.5 -195.5q0 -61 8.5 -125.5t26 -126t45 -115.5t65 -95t85.5 -65t108 -24q34 0 67 5.5t69.5 18t79.5 33t97 50.5z" />
    <glyph glyph-name="D" unicode="D" horiz-adv-x="1300" 
d="M98 1493q49 5 104 8t108.5 5t101 3t80.5 1q168 0 310.5 -39.5t246.5 -124t163 -218t59 -321.5q0 -145 -29 -261.5t-81.5 -206t-125.5 -154t-160.5 -105.5t-186.5 -60.5t-204 -19.5h-352v1262zM483 1127v-897q105 7 178.5 36.5t122 74t76 100t41 114.5t16.5 116.5t3 106.5
q0 112 -17.5 206t-65.5 162t-133 105.5t-220 37.5h-11q-5 0 -11 -1z" />
    <glyph glyph-name="E" unicode="E" 
d="M1086 228l-27 -228h-957l17 231v1032l-35 237h965v-228h-594l15 -138v-218h513v-213h-513v-343l-8 -132h624z" />
    <glyph glyph-name="F" unicode="F" horiz-adv-x="1100" 
d="M470 0h-351v1263l-35 237h1002l-27 -228h-604l15 -138v-218h513v-213h-513v-703z" />
    <glyph glyph-name="G" unicode="G" horiz-adv-x="1300" 
d="M1231 221q-45 -50 -101.5 -93.5t-124 -75.5t-146.5 -50.5t-171 -18.5q-155 0 -278 62.5t-209 169.5t-131.5 250t-45.5 304q0 151 41 287t125.5 238.5t214 162.5t305.5 60q129 0 246.5 -44.5t205.5 -128.5l-148 -174q-33 22 -69 42t-73.5 35t-74.5 24t-72 9
q-95 0 -161.5 -40.5t-108.5 -110t-61 -162t-19 -195.5q0 -61 8.5 -125.5t26 -126t45 -115.5t65 -95t86 -65t107.5 -24q25 0 51.5 6t51 15.5t46 21.5t37.5 25v327l-294 19v205h626v-619z" />
    <glyph glyph-name="H" unicode="H" horiz-adv-x="1400" 
d="M904 0v688h-446v-688h-347v1263l-31 231l378 32v-610h446v580l346 31v-1527h-346z" />
    <glyph glyph-name="I" unicode="I" horiz-adv-x="600" 
d="M111 0v1263l-33 231l385 31v-1525h-352z" />
    <glyph glyph-name="J" unicode="J" horiz-adv-x="900" 
d="M185 1493l564 30v-1077q0 -185 -116 -325q-54 -66 -138.5 -102t-202.5 -36q-103 0 -188 40.5t-164 121.5l148 193q16 -16 35 -33t41 -30.5t46 -22t51 -8.5q30 0 55 9.5t43.5 32.5t28.5 61.5t10 96.5v688l14 134l-198 -12z" />
    <glyph glyph-name="K" unicode="K" 
d="M121 0v1263l-33 231l384 31v-490l391 465h368l-499 -600l-270 -98l260 -86l530 -716h-380l-400 540v-540h-351z" />
    <glyph glyph-name="L" unicode="L" horiz-adv-x="1100" 
d="M463 228h619l-27 -228h-958l23 232v1031l-34 231l385 31v-1165z" />
    <glyph glyph-name="M" unicode="M" horiz-adv-x="1800" 
d="M922 799l328 696l350 31v-1526h-331v551l45 509l-5 1l-164 -480l-217 -458h-183l-199 413l-169 524l-6 -1l51 -561v-498h-322v1263l-30 231l359 30l344 -723l75 -303z" />
    <glyph glyph-name="N" unicode="N" horiz-adv-x="1500" 
d="M1323 1527v-1527h-316l-418 700l-148 338l-6 -1l38 -346v-691h-342v1263l-33 231l356 30l425 -714l149 -361l6 1l-48 366v677z" />
    <glyph glyph-name="O" unicode="O" horiz-adv-x="1600" 
d="M780 -17q-167 0 -300 58t-226 160.5t-142.5 243t-49.5 305.5t48 305.5t139.5 243t225.5 160.5t305 58q167 0 300 -58t225.5 -160.5t142 -243t49.5 -305.5t-48 -305.5t-139.5 -243t-225 -160.5t-304.5 -58zM1148 721q0 106 -20 205t-65 175t-116 122t-173 46
q-96 0 -165 -40.5t-113 -108t-64.5 -155.5t-20.5 -182q0 -108 20.5 -207.5t65.5 -176t116 -122.5t172 -46q96 0 164.5 41.5t113 110t65 156.5t20.5 182z" />
    <glyph glyph-name="P" unicode="P" 
d="M471 0h-351v1262l-38 216q45 7 101 13.5t113 10.5t109.5 6.5t91.5 2.5q124 0 238 -21.5t201 -71t139 -131t52 -201.5q0 -135 -47 -227t-133.5 -149.5t-207.5 -84.5t-268 -32v-593zM471 1130v-326q77 4 137 19.5t101.5 47t63 82t21.5 125.5q0 61 -23 104t-59.5 70.5
t-81.5 40t-90 12.5q-17 0 -39.5 -1t-45.5 -4z" />
    <glyph glyph-name="Q" unicode="Q" horiz-adv-x="1600" 
d="M957 2q-42 -9 -86 -14t-91 -5q-167 0 -300 58t-226 160.5t-142.5 243t-49.5 305.5t48 305.5t139.5 243t225.5 160.5t305 58q167 0 300 -58t225.5 -160.5t142 -243t49.5 -305.5q0 -188 -60.5 -341.5t-177.5 -256.5q22 -17 45 -31.5t51 -24.5t63 -15.5t80 -5.5l-88 -220
h-32q-67 0 -118.5 12.5t-91 34t-69 49.5t-52.5 59.5t-42 63.5t-38 61zM1119 506q15 51 22 105t7 110q0 106 -20 205t-65 175t-116 122t-173 46q-96 0 -165 -40.5t-113 -108t-64.5 -155.5t-20.5 -182q0 -108 20.5 -207.5t65.5 -176t116 -122.5t172 -46h109q-34 29 -85.5 49
t-121.5 20l74 200q76 0 131 -16t96.5 -42t72 -60t58.5 -71v195z" />
    <glyph glyph-name="R" unicode="R" horiz-adv-x="1300" 
d="M521 564q-11 14 -25 16.5t-22 2.5v-583h-352v1262l-38 220q45 5 102 10.5t116 9.5t115.5 6.5t100.5 2.5q137 0 249.5 -27.5t193 -82t125 -135t44.5 -185.5q0 -108 -33.5 -185.5t-90.5 -132t-131.5 -89.5t-155.5 -57l140 -33l436 -584h-368zM474 1130v-328h64
q67 0 116.5 21.5t82 57.5t48.5 84t16 101q0 70 -23.5 116t-60.5 73.5t-83.5 38.5t-91.5 11h-53q-8 0 -15.5 -0.5t-16.5 -1.5z" />
    <glyph glyph-name="S" unicode="S" horiz-adv-x="1100" 
d="M853 1178q-46 27 -83.5 46.5t-69.5 33t-60.5 20t-56.5 6.5q-37 0 -72 -8.5t-62 -27t-43.5 -49t-16.5 -74.5q0 -41 19 -72t50.5 -56t72.5 -45.5t85 -40.5q50 -23 101.5 -47.5t99.5 -54t90 -64.5t73.5 -79t49.5 -98t18 -120q0 -116 -48 -203t-127.5 -145t-183 -87.5
t-213.5 -29.5q-126 0 -232.5 35.5t-213.5 102.5l138 227q27 -18 64 -39.5t78.5 -39.5t83.5 -30.5t80 -12.5q44 0 87 11t76.5 35.5t54 63t20.5 94.5q0 54 -24.5 94.5t-64 72t-89.5 57t-101 49.5q-72 34 -141.5 70.5t-125 82.5t-89.5 104.5t-34 136.5q0 101 44.5 179.5
t117.5 132t165.5 81t188.5 27.5q117 0 225 -37t219 -111z" />
    <glyph glyph-name="T" unicode="T" 
d="M408 0v1272h-394v228h1135v-228h-390v-1272h-351z" />
    <glyph glyph-name="U" unicode="U" horiz-adv-x="1400" 
d="M1250 1500v-966q0 -139 -44.5 -242.5t-123 -172t-185 -102.5t-230.5 -34q-134 0 -237.5 43t-174 122t-107.5 189.5t-37 244.5v681l-33 231l380 32v-962q0 -81 17.5 -145t47.5 -108t69.5 -67t83.5 -23q105 0 166.5 74t61.5 221v984h346z" />
    <glyph glyph-name="V" unicode="V" horiz-adv-x="1300" 
d="M1290 1500l-410 -1296l-29 -229l-390 30l-477 1487l322 34l253 -826l94 -440l69 440l248 800h320z" />
    <glyph glyph-name="W" unicode="W" horiz-adv-x="1900" 
d="M978 500l-45 470l-81 -470l-122 -500h-355l-371 1492l330 34l166 -666l81 -481h4l41 486l158 635h284l158 -636l82 -495h4l41 493l159 638h319l-373 -1500h-355z" />
    <glyph glyph-name="X" unicode="X" horiz-adv-x="1300" 
d="M700 375l-92 217l-58 -192l-240 -400h-344l479 797l-419 695l348 32l195 -326l96 -236l42 192l206 346h346l-436 -725l465 -775h-364z" />
    <glyph glyph-name="Y" unicode="Y" 
d="M511 1143l107 -370l58 370l182 357h335l-433 -850v-650h-351v650l-429 842l339 33z" />
    <glyph glyph-name="Z" unicode="Z" 
d="M1121 228l27 -228h-1118l-34 86l626 1101l178 123l-211 -38h-503l-27 228h1028l41 -59l-633 -1127l-195 -124l214 38h607z" />
    <glyph glyph-name="bracketleft" unicode="[" horiz-adv-x="900" 
d="M60 1287l-26 232h700v-218h-350l15 -148v-1185l-15 -148h350v-219h-700l26 232v1454z" />
    <glyph glyph-name="backslash" unicode="\" horiz-adv-x="1100" 
d="M-8 1595h342l706 -1690h-353z" />
    <glyph glyph-name="bracketright" unicode="]" horiz-adv-x="1000" 
d="M740 -167l26 -232h-700v219h349l-15 148v1185l15 148h-349v218h700l-26 -232v-1454z" />
    <glyph glyph-name="asciicircum" unicode="^" horiz-adv-x="1500" 
d="M1457 866h-343l-365 314l-349 -312h-362l595 627l209 27z" />
    <glyph glyph-name="underscore" unicode="_" horiz-adv-x="1100" 
d="M0 -200h1100v-255h-1100v255z" />
    <glyph glyph-name="grave" unicode="`" horiz-adv-x="1100" 
d="M704 1200h-258l-264 291l347 34z" />
    <glyph glyph-name="a" unicode="a" horiz-adv-x="1050" 
d="M973 0h-339v162l-120 -174q-8 -2 -19 -3.5t-32 -1.5q-86 0 -163 24.5t-135 72t-92.5 117.5t-34.5 161q0 64 19 116t52.5 93t77.5 71t94.5 49.5t104 29t104.5 9.5q45 0 80.5 -3t62.5 -8q-1 40 -6 73.5t-18 58.5t-35 39t-56 14q-85 0 -163 -19.5t-141 -42.5l-104 185
q78 35 153 56q48 14 113.5 26t150.5 12q130 0 212.5 -31.5t129 -89t64 -138t17.5 -177.5v-476zM634 515q-24 3 -52.5 5.5t-54.5 2.5q-36 0 -70.5 -10t-61.5 -30t-44 -51t-17 -73q0 -34 11 -63t29 -50.5t40.5 -33.5t45.5 -12q29 0 55.5 9t49 22.5t40 29.5t29.5 29v225z" />
    <glyph glyph-name="b" unicode="b" 
d="M457 212q29 -5 62 -8.5t63 -3.5q63 0 103.5 37.5t64 96t33 129t9.5 135.5q0 82 -12 139.5t-31.5 93.5t-46 52.5t-54.5 16.5q-61 0 -107 -21t-84 -53v-614zM130 1398l-22 203l349 31v-658l97 122q29 8 61.5 14.5t60.5 6.5q92 0 172.5 -34.5t140.5 -101t95 -164.5t35 -224
q0 -137 -41 -249.5t-113.5 -192.5t-173 -123.5t-218.5 -43.5q-64 0 -129.5 6.5t-125 16.5t-109 22.5t-79.5 24.5v1344z" />
    <glyph glyph-name="c" unicode="c" horiz-adv-x="1000" 
d="M788 814q-30 29 -57.5 46t-52.5 26t-49.5 11.5t-48.5 2.5q-58 0 -98.5 -28t-66 -74.5t-37 -107.5t-11.5 -127q0 -69 11 -134.5t36.5 -116.5t68.5 -81.5t107 -30.5q26 0 56 7t60.5 19t60 28t55.5 34l112 -195q-73 -50 -162 -80t-195 -30q-135 0 -236 49.5t-169 131.5
t-102 189t-34 222q0 104 33 202t100.5 173.5t170 121t242.5 45.5q108 0 194 -35.5t163 -120.5z" />
    <glyph glyph-name="d" unicode="d" 
d="M734 900h-69q-66 0 -115 -31t-80.5 -84t-47 -123t-15.5 -147q0 -74 12 -132t33 -99t50.5 -62.5t64.5 -21.5q36 0 63 10.5t47 27t34 37.5t23 41v584zM734 0v162l-125 -172q-8 -2 -15 -3t-16.5 -2t-23 -1.5t-34.5 -0.5q-92 0 -172 40.5t-139 113.5t-93 172.5t-34 218.5
t41 223.5t117 182t183.5 122t240.5 44.5h70v532l326 -32v-1391l22 -209h-348z" />
    <glyph glyph-name="e" unicode="e" horiz-adv-x="1100" 
d="M1002 158q-37 -38 -80 -70t-95 -55t-114 -36t-137 -13q-144 0 -246 47t-166.5 125.5t-94 180.5t-29.5 213q0 71 14 140.5t42.5 132t71 116.5t99.5 93t128.5 61.5t157.5 22.5q120 0 208 -35.5t145 -99t85 -152.5t28 -197q0 -27 -3.5 -71t-8.5 -95h-670q2 -54 23 -102.5
t55.5 -84.5t80.5 -57.5t100 -21.5q44 0 83.5 10t72 24.5t57.5 30t39 27.5zM735 672q0 46 -7 87t-26 72.5t-51.5 50t-83.5 18.5q-43 0 -75.5 -15t-56 -37.5t-38.5 -47.5t-23 -44l-91 -103l173 18z" />
    <glyph glyph-name="f" unicode="f" horiz-adv-x="800" 
d="M10 1100h140v142q0 88 21.5 157.5t67.5 118t118.5 74t174.5 25.5q52 0 98 -9.5t85.5 -25.5t73 -37t61.5 -44l-136 -160q-38 27 -72 39.5t-78 12.5t-73 -37t-29 -123v-133h284l-27 -224h-243v-876h-326v876h-140v224z" />
    <glyph glyph-name="g" unicode="g" 
d="M727 16q-32 -14 -80.5 -23.5t-106.5 -9.5q-101 0 -188 44.5t-151 121t-100.5 179t-36.5 217.5q0 117 33 221t98 182t162 123.5t226 45.5q18 0 30 -0.5t22 -2.5l91 -156v168l326 -33v-1134q0 -99 -36.5 -185.5t-104.5 -151t-166 -102t-222 -37.5q-66 0 -118.5 10.5
t-97.5 30.5t-84.5 49.5t-78.5 67.5l144 167q16 -14 42 -31t57.5 -33t67 -26.5t69.5 -10.5q42 0 79 20.5t64.5 56.5t43.5 84.5t16 104.5v43zM726 820q-28 32 -65.5 56t-82.5 24q-60 0 -96.5 -36t-57 -90.5t-27 -118.5t-6.5 -121q0 -71 12 -132t33.5 -106t51.5 -70.5t67 -25.5
q59 0 99 25t72 62v533z" />
    <glyph glyph-name="h" unicode="h" 
d="M446 0h-326v1379l-22 221l348 31v-679l120 155q27 5 54.5 7.5t52.5 2.5q88 0 157.5 -26.5t117.5 -77t73 -125t25 -170.5v-718h-326v726q0 52 -8.5 86t-22.5 53.5t-32 27t-37 7.5q-22 0 -45.5 -6t-47 -16.5t-44.5 -26t-37 -33.5v-818z" />
    <glyph glyph-name="i" unicode="i" horiz-adv-x="600" 
d="M442 0h-316v1049l316 32v-1081zM120 1500h328v-231h-328v231z" />
    <glyph glyph-name="j" unicode="j" horiz-adv-x="600" 
d="M-70 -268l3 -1q20 -8 45 -15t51 -7q30 0 50 14t31 39.5t15.5 61.5t4.5 79v1146l317 32v-1170q0 -91 -15.5 -169.5t-56 -136t-111 -90t-181.5 -32.5q-37 0 -70.5 6t-60.5 14.5t-47 17t-31 14.5zM124 1500h328v-231h-328v231z" />
    <glyph glyph-name="k" unicode="k" horiz-adv-x="1100" 
d="M130 0v1397l-22 203l328 31v-862l265 331h341l-362 -400l-204 -73l189 -63l478 -564h-348l-359 458v-458h-306z" />
    <glyph glyph-name="l" unicode="l" horiz-adv-x="700" 
d="M129 1379l-21 221l348 31v-1228q0 -43 3 -79t12.5 -61.5t27.5 -39.5t48 -14q14 0 28.5 2.5t28 6.5t24.5 7.5t18 6.5l56 -197q-11 -6 -31 -14.5t-47 -17t-60.5 -14.5t-70.5 -6q-111 0 -182 32.5t-111.5 90t-55.5 136t-15 169.5v968z" />
    <glyph glyph-name="m" unicode="m" horiz-adv-x="1800" 
d="M456 0h-326v1093l326 33v-189l90 151q32 11 65.5 20t68.5 9q43 0 86.5 -7t82 -19t71 -29.5t53.5 -38.5q23 16 53.5 33t68 30.5t80.5 22t91 8.5q91 0 163.5 -27t123 -76.5t77.5 -120t27 -157.5v-736h-326v757q0 41 -10 68.5t-26.5 44t-37 23.5t-42.5 7q-14 0 -33 -6.5
t-41 -18t-45 -27t-43 -34.5q2 -24 2.5 -41.5t0.5 -45.5v-727h-326v757q0 41 -7.5 68.5t-20.5 44t-31.5 23.5t-40.5 7q-17 0 -38.5 -6t-44.5 -16.5t-46.5 -26.5t-44.5 -35v-816z" />
    <glyph glyph-name="n" unicode="n" 
d="M456 1126v-189l90 151q32 11 65.5 20t68.5 9q43 0 83.5 -2.5t77.5 -12t70 -28t62 -50.5q31 -34 48 -74t24.5 -79.5t9 -77t1.5 -66.5v-727h-326v757q0 41 -7.5 68.5t-20.5 44t-31.5 23.5t-40.5 7q-17 0 -38.5 -6t-44.5 -16.5t-46.5 -26.5t-44.5 -35v-816h-326v1093z" />
    <glyph glyph-name="o" unicode="o" 
d="M604 -17q-120 0 -219 43.5t-170.5 120t-111 180.5t-39.5 226q0 121 38 224.5t108.5 179t170 118t223.5 42.5q120 0 219.5 -42.5t171 -118t111 -179t39.5 -224.5q0 -122 -38 -226t-108.5 -180.5t-170.5 -120t-224 -43.5zM819 528q0 68 -12 134t-38.5 118.5t-68 84.5
t-100.5 32q-55 0 -95 -27.5t-65.5 -73.5t-37.5 -104.5t-12 -120.5q0 -69 12 -135t38.5 -117.5t67.5 -83.5t99 -32q55 0 95 27.5t66 73.5t38.5 104t12.5 120z" />
    <glyph glyph-name="p" unicode="p" 
d="M476 200h78q67 0 120 29.5t90 80.5t56.5 119.5t19.5 146.5q0 81 -16.5 142t-42 101.5t-57 60.5t-61.5 20q-27 0 -53.5 -8t-50.5 -20.5t-45 -28.5t-38 -32v-611zM150 -500v1593l326 33v-182l124 166q21 3 43.5 5t46.5 2q93 0 174.5 -39t142 -111.5t96 -174.5t35.5 -228
q0 -123 -42.5 -226.5t-121 -178.5t-189.5 -117t-248 -42h-61v-500h-326z" />
    <glyph glyph-name="q" unicode="q" 
d="M718 891q-30 4 -62.5 6.5t-62.5 2.5q-42 0 -74 -16t-56 -43t-40.5 -63.5t-26.5 -78t-14.5 -86t-4.5 -87.5q0 -84 13 -145t34 -101.5t48 -60t55 -19.5q21 0 45 7.5t49 19.5t49.5 28t47.5 33v603zM718 136l-117 -144q-48 -9 -92 -9q-92 0 -174 37.5t-144 107.5t-98.5 171
t-36.5 227q0 137 40 246.5t111.5 186t171 117.5t218.5 41q64 0 132 -9t129.5 -21.5t110.5 -26t75 -22.5v-1538h-326v636z" />
    <glyph glyph-name="r" unicode="r" horiz-adv-x="800" 
d="M789 867q-20 10 -36 16.5t-32 10.5t-33.5 5t-40.5 1q-28 0 -56.5 -13.5t-55 -36.5t-48.5 -52.5t-37 -61.5v-736h-326v1093l326 33v-231l94 205q16 6 45.5 11.5t55.5 5.5q55 0 90.5 -8.5t67.5 -24.5z" />
    <glyph glyph-name="s" unicode="s" horiz-adv-x="900" 
d="M690 822q-31 19 -64.5 33.5t-65 24.5t-58.5 15t-43 5q-117 0 -117 -78q0 -26 22 -46t58 -38t82.5 -36t94.5 -40t94.5 -48.5t82.5 -62t58 -81.5t22 -106q0 -104 -36 -176t-99 -118t-148.5 -66.5t-183.5 -20.5q-38 0 -89 9t-103.5 24t-101.5 35.5t-83 44.5l100 190
q36 -18 75.5 -34t77.5 -27.5t73 -18t62 -6.5q28 0 54.5 8t46.5 24.5t32 42t12 61.5t-21.5 62.5t-57 48.5t-81 41t-93 40.5t-93 46.5t-81 58.5t-57 77t-21.5 102.5q0 81 30.5 139t86 94.5t133.5 53.5t172 17q44 0 88.5 -8.5t86.5 -22t78.5 -30.5t63.5 -35z" />
    <glyph glyph-name="t" unicode="t" horiz-adv-x="800" 
d="M466 388q0 -51 3 -85.5t10.5 -55.5t19.5 -30t30 -9q21 0 40 4t34 9q18 6 33 14l95 -163q-12 -12 -36.5 -27.5t-57.5 -29t-73.5 -22.5t-83.5 -9q-108 0 -173 34t-100 92t-46 135.5t-11 164.5v466h-150v224h150v179l312 184v-363h290l-27 -224h-259v-488z" />
    <glyph glyph-name="u" unicode="u" 
d="M729 1093l326 33v-1126h-326v163l-111 -152q-20 -9 -59 -18.5t-80 -9.5q-94 0 -160 30t-108 83.5t-61.5 127t-19.5 160.5v709l326 33v-742q0 -83 24 -133.5t80 -50.5q19 0 41.5 6.5t44.5 17.5t43.5 24.5t39.5 27.5v817z" />
    <glyph glyph-name="v" unicode="v" horiz-adv-x="1100" 
d="M462 700l74 -400l72 400l129 393l317 36l-375 -1153l-317 29l-352 1088l315 32z" />
    <glyph glyph-name="w" unicode="w" horiz-adv-x="1500" 
d="M954 800l75 -528l60 528l71 294l305 30l-311 -1124h-261l-75 300l-67 520l-73 -520l-68 -300h-261l-301 1093l306 33l74 -326l66 -530l70 530l74 300h247z" />
    <glyph glyph-name="x" unicode="x" horiz-adv-x="1100" 
d="M597 272l-66 202l-68 -202l-168 -272h-339l411 585l-356 508l342 27l141 -220l62 -201l60 201l139 196l356 28l-380 -543l408 -581h-361z" />
    <glyph glyph-name="y" unicode="y" horiz-adv-x="1100" 
d="M471 670l79 -480l77 480l161 425l322 29l-408 -1116q-30 -83 -68 -169.5t-88 -157.5t-114.5 -116t-148.5 -45q-67 0 -132.5 28t-123.5 78l123 180q23 -15 49 -27.5t53 -12.5q43 0 77.5 50t71.5 137l-417 1140l323 28z" />
    <glyph glyph-name="z" unicode="z" horiz-adv-x="1000" 
d="M544 200h373l27 -200h-903l-33 85l400 672l231 178l-271 -35h-274l-27 200h796l32 -83l-395 -678l-227 -174z" />
    <glyph glyph-name="braceleft" unicode="{" horiz-adv-x="1298" 
d="M1003 1260q-34 20 -77.5 32.5t-78.5 12.5q-30 -2 -48 -16.5t-27 -40.5t-12 -63.5t-3 -85.5v-235q0 -56 -15.5 -105t-39.5 -88.5t-53 -70t-56 -50.5q27 -20 56 -50t53 -70t39.5 -88.5t15.5 -103.5v-240q0 -48 3 -86t12 -65t27 -41t48 -14q35 0 78.5 12.5t77.5 32.5
l96 -185q-33 -15 -63.5 -28.5t-64.5 -23t-74.5 -15t-92.5 -5.5q-113 0 -188 32t-119.5 88t-63 132.5t-18.5 165.5v240q0 89 -15.5 141.5t-61.5 62.5l-138 20v178l138 20q46 11 61.5 63.5t15.5 140.5v235q0 89 18.5 165.5t63 132.5t119.5 88t188 32q52 0 92.5 -5.5t74.5 -15
t64.5 -22.5t63.5 -29z" />
    <glyph glyph-name="bar" unicode="|" horiz-adv-x="400" 
d="M366 1527v-1907h-342v1873z" />
    <glyph glyph-name="braceright" unicode="}" 
d="M200 1445q33 16 63.5 29t64.5 22.5t74.5 15t92.5 5.5q113 0 188 -32t119.5 -88t63 -132.5t18.5 -165.5v-235q0 -88 15.5 -140.5t61.5 -63.5l138 -20v-178l-138 -20q-46 -10 -61.5 -62.5t-15.5 -141.5v-240q0 -89 -18.5 -165.5t-63 -132.5t-119.5 -88t-188 -32
q-52 0 -92.5 5.5t-74.5 15t-64.5 23t-63.5 28.5l96 185q34 -20 77.5 -32.5t78.5 -12.5q30 0 48 14t27 41t12 65t3 86v240q0 55 15.5 103.5t39.5 88.5t53 70t56 50q-27 20 -56 50.5t-53 70t-39.5 88.5t-15.5 105v235q0 48 -3 85.5t-12 63.5t-27 40.5t-48 16.5
q-35 0 -78.5 -12.5t-77.5 -32.5z" />
    <glyph glyph-name="asciitilde" unicode="~" horiz-adv-x="1500" 
d="M126 441q6 67 32.5 137t76 127t125 93.5t179.5 36.5q54 0 94 -10t71.5 -24.5t56.5 -31.5t49.5 -31.5t51 -24.5t60.5 -10q69 0 111.5 28t52.5 87l275 -16q-5 -73 -27.5 -145t-69.5 -129t-122 -92.5t-185 -35.5q-50 0 -87 10t-66.5 24.5t-54 31.5t-50.5 31.5t-55 24.5
t-68 10q-58 0 -97.5 -26t-52.5 -76z" />
    <glyph glyph-name="nonbreakingspace" unicode="&#xa0;" horiz-adv-x="700" 
 />
    <glyph glyph-name="exclamdown" unicode="&#xa1;" horiz-adv-x="700" 
d="M100 -399v1091l300 -35v-1056h-300zM103 964q0 31 11.5 58.5t31.5 48t47.5 32.5t58.5 12q30 0 57 -12t46.5 -32.5t31 -48t11.5 -58.5q0 -30 -11.5 -57t-31.5 -47.5t-47.5 -32t-57.5 -11.5t-57 11.5t-47 32t-31.5 47.5t-11.5 57z" />
    <glyph glyph-name="cent" unicode="&#xa2;" horiz-adv-x="1000" 
d="M788 814q-24 23 -46 38t-42 25v-654q66 26 122 65l112 -195q-51 -35 -109.5 -60.5t-124.5 -37.5v-185h-290v196q-93 28 -163 84.5t-117 132t-70.5 166t-23.5 186.5q0 87 22.5 169.5t69 152t116.5 121t166 77.5v207l290 38v-235q67 -15 125.5 -49.5t113.5 -94.5zM320 563
q0 -127 35.5 -209.5t102.5 -121.5v641q-65 -33 -101.5 -108.5t-36.5 -201.5z" />
    <glyph glyph-name="sterling" unicode="&#xa3;" horiz-adv-x="1100" 
d="M678 216h321v-216h-949l29 216h133q2 2 5 8.5t8 24.5q8 28 29 129t48 287h-128v218h159l38 267q12 79 37 146.5t69 116.5t110 76.5t159 27.5q54 0 96.5 -6.5t79.5 -21t71.5 -38t72.5 -56.5l-130 -167q-50 45 -83 60t-63 15q-23 0 -39.5 -13.5t-28 -38t-19 -59
t-13.5 -76.5l-33 -233h195l-27 -218h-198q-8 -64 -13.5 -109t-11.5 -81.5t-13 -70t-17 -73.5l-142 -174z" />
    <glyph glyph-name="currency" unicode="&#xa4;" 
d="M1103 249l-176 -177l-166 166q-80 -33 -175 -33q-48 0 -92.5 8t-83.5 25l-165 -166l-177 177l152 151q-57 96 -57 190q0 45 14 93t43 96l-152 151l176 179l166 -167q40 17 84 24.5t92 7.5q47 0 91 -7.5t84 -24.5l167 167l175 -179l-151 -151q56 -97 56 -189
q0 -46 -14 -94.5t-42 -95.5zM421 590q0 -48 15.5 -81.5t39.5 -53.5t53.5 -29t56.5 -9t56 9t53 29t39.5 53.5t15.5 81.5t-15.5 81t-39.5 53t-53 28.5t-56 8.5t-56.5 -8.5t-53.5 -28.5t-39.5 -53t-15.5 -81z" />
    <glyph glyph-name="yen" unicode="&#xa5;" 
d="M100 589h309v61l-26 50h-283v189h187l-307 603l339 33l192 -382l107 -370l58 370l182 357h335l-311 -611h218v-189h-315l-25 -50v-61h340v-189h-340v-400h-351v400h-309v189z" />
    <glyph glyph-name="brokenbar" unicode="&#xa6;" horiz-adv-x="400" 
d="M366 1527v-827h-342v793zM366 362v-762h-342v762h342z" />
    <glyph glyph-name="section" unicode="&#xa7;" horiz-adv-x="1000" 
d="M778 1249q-42 23 -75 36.5t-61 21t-51 9.5t-44 2q-31 0 -59 -7.5t-49.5 -24.5t-34 -44.5t-12.5 -67.5q0 -39 15.5 -69t41 -55t59 -47.5t69.5 -44.5q60 -37 120 -78t108.5 -92t79 -114.5t30.5 -146.5q0 -48 -14.5 -93.5t-40.5 -83.5t-61 -68t-76 -48q37 -29 68.5 -61
t54.5 -67t36.5 -73t13.5 -79q0 -82 -30.5 -147.5t-89 -111.5t-143 -70.5t-192.5 -24.5q-47 0 -91 5t-87.5 17t-86.5 31t-89 48l106 170q42 -23 75 -37t61 -21.5t51 -10t44 -2.5q31 0 59 8t49 25.5t33.5 45.5t12.5 67t-15 69t-40.5 55.5t-59 47.5t-69.5 45q-60 37 -120 77.5
t-108.5 91.5t-79 114.5t-30.5 146.5q0 52 15 96t41 80t60.5 64.5t74.5 51.5q-37 30 -68.5 62t-54.5 67t-36 73t-13 79q0 82 30.5 147t89 110.5t143 69.5t192.5 24q46 0 90 -4.5t87 -16t86.5 -30.5t89.5 -47zM438 747l-12 -10q-11 -9 -23 -22.5t-21.5 -31t-16 -39.5t-6.5 -49
q0 -34 13.5 -63t35 -54.5t48.5 -48t55 -42.5l22 -15l12 11q11 9 23 22.5t21.5 31.5t16 40t6.5 48q0 33 -13.5 62t-35 54.5t-48.5 47.5t-54 42z" />
    <glyph glyph-name="dieresis" unicode="&#xa8;" horiz-adv-x="1100" 
d="M224 1500h276v-266h-276v266zM624 1500h276v-266h-276v266z" />
    <glyph glyph-name="copyright" unicode="&#xa9;" horiz-adv-x="1100" 
d="M550 1517q97 0 182.5 -37t149.5 -101t101 -149.5t37 -182.5q0 -98 -37 -183.5t-101 -149t-149.5 -100.5t-182.5 -37t-182.5 37t-149.5 100.5t-101 149t-37 183.5q0 97 37 182.5t101 149.5t149.5 101t182.5 37zM550 701q70 0 132.5 27.5t110 74.5t75.5 110t28 134
q0 72 -27 135t-74 110t-110 74t-135 27t-135 -27t-110 -74t-74 -110t-27 -135q0 -70 27.5 -132.5t74.5 -110t110 -75.5t134 -28zM651 1165q-15 13 -29 21t-26.5 12t-24.5 5t-24 1q-29 0 -49.5 -12.5t-33 -33.5t-18.5 -48.5t-6 -57.5q0 -31 5.5 -60.5t18.5 -52.5t34.5 -36.5
t53.5 -13.5q13 0 28 3t30 8.5t30 12.5t28 16l56 -88q-37 -23 -81.5 -36.5t-97.5 -13.5q-67 0 -117.5 22.5t-84.5 59.5t-51 85t-17 100q0 47 16.5 91t50 78t85 54.5t121.5 20.5q54 0 97 -16t81 -55z" />
    <glyph glyph-name="ordfeminine" unicode="&#xaa;" horiz-adv-x="800" 
d="M70 800h460v-150h-460v150zM538 931h-169v81l-60 -87q-4 -1 -9.5 -2t-16.5 -1q-43 0 -81.5 12.5t-67.5 36t-46 58.5t-17 81q0 32 9.5 58t26 46.5t38.5 35.5t47.5 24.5t52 14.5t52.5 5q22 0 40 -1.5t31 -4.5q0 20 -2.5 37t-9 29.5t-17.5 19.5t-28 7q-43 0 -82 -10t-70 -21
l-52 92q39 18 76 28q24 7 57 13t75 6q65 0 106.5 -15.5t64.5 -44.5t32 -69t9 -89v-238zM369 1188q-12 2 -26.5 3t-27.5 1q-18 0 -35 -5t-30.5 -15t-22 -25.5t-8.5 -36.5q0 -17 5.5 -31.5t14.5 -25t20 -16.5t23 -6q14 0 27.5 4.5t24.5 11t20 14.5t15 15v112z" />
    <glyph glyph-name="guillemotleft" unicode="&#xab;" horiz-adv-x="1400" 
d="M684 1106l89 -226l-331 -297l-76 -33l75 -33l334 -293l-94 -237l-555 489v144zM1184 1106l89 -226l-331 -297l-76 -33l75 -33l334 -293l-94 -237l-555 489v144z" />
    <glyph glyph-name="logicalnot" unicode="&#xac;" horiz-adv-x="1700" 
d="M1461 827l-19 -241v-328h-342v201l12 141h-950v227h1299z" />
    <glyph glyph-name="sfthyphen" unicode="&#xad;" horiz-adv-x="0" 
 />
    <glyph glyph-name="registered" unicode="&#xae;" horiz-adv-x="1100" 
d="M550 1517q97 0 182.5 -37t149.5 -101t101 -149.5t37 -182.5q0 -98 -37 -183.5t-101 -149t-149.5 -100.5t-182.5 -37t-182.5 37t-149.5 100.5t-101 149t-37 183.5q0 97 37 182.5t101 149.5t149.5 101t182.5 37zM550 701q70 0 132.5 27.5t110 74.5t75.5 110t28 134
q0 72 -27 135t-74 110t-110 74t-135 27t-135 -27t-110 -74t-74 -110t-27 -135q0 -70 27.5 -132.5t74.5 -110t110 -75.5t134 -28zM527 987q-4 4 -8.5 5t-6.5 1v-193h-113v418l-12 73q14 1 32.5 3t37.5 3t37 2t32 1q44 0 80 -9t61.5 -27t40 -44.5t14.5 -61.5q0 -36 -11 -61.5
t-29 -43.5t-42 -29.5t-50 -19.5l45 -11l139 -193h-117zM512 1174v-109h20q22 0 37.5 7.5t26 19.5t15.5 27.5t5 33.5q0 23 -7.5 38t-19 24.5t-26.5 13t-30 3.5h-22q-2 0 -5 -1z" />
    <glyph glyph-name="macron" unicode="&#xaf;" horiz-adv-x="1100" 
d="M200 1500h700v-218h-700v218z" />
    <glyph glyph-name="degree" unicode="&#xb0;" horiz-adv-x="600" 
d="M300 1517q61 0 115 -21t94.5 -58t63.5 -86t23 -105t-23 -105t-63.5 -85.5t-94.5 -58t-115 -21.5q-62 0 -115.5 21.5t-94 58t-63.5 85.5t-23 105t23 105t63.5 86t94 58t115.5 21zM300 1145q23 0 43.5 8t35.5 22t24 32.5t9 39.5t-9 39.5t-24 32.5t-35.5 22t-43.5 8
t-43.5 -8t-35.5 -22t-24 -32.5t-9 -39.5t9 -39.5t24 -32.5t35.5 -22t43.5 -8z" />
    <glyph glyph-name="plusminus" unicode="&#xb1;" 
d="M100 863h344v349h211v-349h345v-163h-345v-326h-211v326h-344v163zM100 300h900v-139h-900v139z" />
    <glyph glyph-name="twosuperior" unicode="&#xb2;" horiz-adv-x="600" 
d="M56 720v95q23 37 54 77.5t63.5 80t63.5 74.5t54 60q27 29 46 49t30.5 37t17 34.5t5.5 40.5q0 19 -6.5 37t-18 32.5t-27.5 23.5t-37 9q-41 0 -72 -27.5t-55 -74.5l-116 43q14 39 37 69.5t54.5 52.5t71 33.5t88.5 11.5q57 0 101.5 -18.5t75 -49t46.5 -69.5t16 -78
q0 -35 -11 -64.5t-29.5 -57t-42 -54.5t-48.5 -57t-51.5 -61t-51 -59t-44 -51.5t-30.5 -38.5h321v-100h-505z" />
    <glyph glyph-name="threesuperior" unicode="&#xb3;" horiz-adv-x="600" 
d="M130 1189q15 10 35.5 25t43.5 33t47.5 38t46.5 40.5t40.5 41.5t30.5 40l-130 -37h-165l10 100h421v-87q-15 -39 -44 -72t-65 -65l-78 -42q53 0 96 -13.5t73.5 -39t47.5 -62.5t17 -83q0 -49 -20.5 -89.5t-55.5 -72.5t-82.5 -55.5t-101 -38.5t-111 -22.5t-112.5 -7.5v100
q59 2 115 15.5t100 36.5t70.5 56t26.5 73q0 29 -12 49t-33 32t-49 17.5t-59 5.5q-7 0 -21.5 -1t-30 -1.5t-30 -1.5t-21.5 -1v89z" />
    <glyph glyph-name="acute" unicode="&#xb4;" horiz-adv-x="1100" 
d="M526 1496l391 32l-292 -328h-259z" />
    <glyph glyph-name="mu" unicode="&#xb5;" horiz-adv-x="1300" 
d="M1269 51q-15 -14 -32 -26t-42 -21.5t-58.5 -15t-81.5 -5.5q-34 0 -67 12t-62 37t-53.5 64t-40.5 94l-47 -118q-18 -16 -41.5 -32t-53.5 -28.5t-66 -20.5t-79 -8q-20 0 -49 5t-58.5 13.5t-54.5 18.5t-37 20l65 -206v-334h-311v1593l311 32v-763q0 -38 12.5 -68.5t33 -51.5
t46 -32t52.5 -11q43 0 79.5 20.5t65.5 48.5v825l311 32v-760q0 -92 19 -129t54 -37q27 0 44 5.5t42 18.5z" />
    <glyph glyph-name="paragraph" unicode="&#xb6;" horiz-adv-x="1400" 
d="M1032 1298h-134v-1698h-269v1004q-77 10 -151.5 39t-133 81.5t-94.5 132.5t-36 193q0 87 22 154.5t60 117.5t89 84t108 55t117.5 30t118.5 9h570v-1900h-267v1698z" />
    <glyph glyph-name="periodcentered" unicode="&#xb7;" horiz-adv-x="500" 
d="M66 671q0 38 14.5 71.5t39.5 59t58.5 40t71.5 14.5t72 -14.5t59 -40t39.5 -59t14.5 -71.5q0 -39 -14.5 -73t-39 -59.5t-58 -40.5t-71.5 -15t-72.5 15t-59.5 40.5t-39.5 59.5t-14.5 73z" />
    <glyph glyph-name="cedilla" unicode="&#xb8;" horiz-adv-x="1100" 
d="M562 0q27 -20 49 -46q19 -23 34.5 -54.5t15.5 -70.5q0 -50 -23.5 -93t-63.5 -74.5t-92 -50t-109 -18.5q-60 0 -117.5 18t-105.5 40q-55 26 -106 59l115 159q32 -20 64 -35q26 -13 55.5 -23.5t51.5 -10.5q23 0 43.5 12.5t20.5 40.5q0 21 -12 44.5t-28 44.5t-31.5 36.5
t-22.5 21.5h262z" />
    <glyph glyph-name="onesuperior" unicode="&#xb9;" horiz-adv-x="600" 
d="M266 1160l37 181l-114 -135l-42 -37l-77 92l240 221l121 -16v-646h122v-100h-409v100h122v340z" />
    <glyph glyph-name="ordmasculine" unicode="&#xba;" horiz-adv-x="800" 
d="M70 800h460v-150h-460v150zM312 922q-60 0 -109.5 22t-85.5 60t-55.5 90t-19.5 113t19 112.5t54 89.5t85 59t112 21q60 0 109.5 -21t85.5 -59t55.5 -89.5t19.5 -112.5t-19 -113t-54 -90t-85 -60t-112 -22zM419 1195q0 34 -6 67t-19 59t-34 42t-50 16q-28 0 -48 -13.5
t-32.5 -36.5t-18.5 -52.5t-6 -60.5q0 -34 6 -67t19 -59t33.5 -42t49.5 -16q28 0 48 14t33 37t19 52t6 60z" />
    <glyph glyph-name="guillemotright" unicode="&#xbb;" horiz-adv-x="1400" 
d="M776 619v-143l-556 -489l-94 237l334 293l74 33l-75 32l-331 298l89 226zM1275 619v-143l-556 -489l-94 237l334 293l74 33l-75 32l-331 298l89 226z" />
    <glyph glyph-name="onequarter" unicode="&#xbc;" horiz-adv-x="1500" 
d="M474 0h-185l775 1500h176zM284 1162l37 181l-114 -135l-42 -37l-77 92l240 221l121 -16v-646h122v-100h-409v100h122v340zM1398 188h-89v-150h-160v150h-300v100l247 512l158 -16l-164 -365l-87 -131h146v149l160 -13v-136h100z" />
    <glyph glyph-name="onehalf" unicode="&#xbd;" horiz-adv-x="1500" 
d="M474 0h-185l775 1500h176zM284 1162l37 181l-114 -135l-42 -37l-77 92l240 221l121 -16v-646h122v-100h-409v100h122v340zM904 38v95q23 37 54 77.5t63.5 80t63.5 74.5t54 60q27 29 46 49t30.5 37t17 34.5t5.5 40.5q0 19 -6.5 37t-18 32.5t-27.5 23.5t-37 9
q-41 0 -72 -27.5t-55 -74.5l-116 43q14 39 37 69.5t54.5 52.5t71 33.5t88.5 11.5q57 0 101.5 -18.5t75 -49t46.5 -69.5t16 -78q0 -35 -11 -64.5t-29.5 -57t-42 -54.5t-48.5 -57t-51.5 -61t-51 -59t-44 -51.5t-30.5 -38.5h321v-100h-505z" />
    <glyph glyph-name="threequarters" unicode="&#xbe;" horiz-adv-x="1500" 
d="M474 0h-185l775 1500h176zM150 1191q15 10 35.5 25t43.5 33t47.5 38t46.5 40.5t40.5 41.5t30.5 40l-130 -37h-165l10 100h421v-87q-15 -39 -44 -72t-65 -65l-78 -42q53 0 96 -13.5t73.5 -39t47.5 -62.5t17 -83q0 -49 -20.5 -89.5t-55.5 -72.5t-82.5 -55.5t-101 -38.5
t-111 -22.5t-112.5 -7.5v100q59 2 115 15.5t100 36.5t70.5 56t26.5 73q0 29 -12 49t-33 32t-49 17.5t-59 5.5q-7 0 -21.5 -1t-30 -1.5t-30 -1.5t-21.5 -1v89zM1398 188h-89v-150h-160v150h-300v100l247 512l158 -16l-164 -365l-87 -131h146v149l160 -13v-136h100z" />
    <glyph glyph-name="questiondown" unicode="&#xbf;" horiz-adv-x="1100" 
d="M34 -22q0 60 20 109.5t52 92.5t74 81t85 76q29 25 58.5 56.5t53 71.5t38 90t14.5 113l311 35q-1 -87 -13.5 -163t-41.5 -143t-76 -125.5t-118 -111.5q-22 -19 -43 -39t-37 -42.5t-26 -49t-10 -59.5q0 -40 14.5 -68.5t39 -47t56.5 -27t66 -8.5q26 0 63.5 8.5t80 28
t85 51.5t76.5 78l182 -151q-57 -76 -121.5 -124.5t-131.5 -76t-133 -38t-125 -10.5q-95 0 -184 23.5t-157.5 72t-110 122.5t-41.5 175zM720 965q0 -30 -11.5 -57t-31.5 -47.5t-47 -32t-57 -11.5t-57.5 11.5t-47.5 32t-31.5 47.5t-11.5 57q0 31 11.5 58.5t31 48t46.5 32.5
t57 12q31 0 58.5 -12t47.5 -32.5t31.5 -48t11.5 -58.5z" />
    <glyph glyph-name="Agrave" unicode="&#xc0;" horiz-adv-x="1300" 
d="M6 0l398 1284l35 210l378 31l479 -1525h-342l-116 427h-392l-113 -427h-327zM642 1361l-53 -371l-84 -344h274l-85 344zM804 1600h-258l-264 291l347 34z" />
    <glyph glyph-name="Aacute" unicode="&#xc1;" horiz-adv-x="1300" 
d="M6 0l398 1284l35 210l378 31l479 -1525h-342l-116 427h-392l-113 -427h-327zM642 1361l-53 -371l-84 -344h274l-85 344zM626 1896l391 32l-292 -328h-259z" />
    <glyph glyph-name="Acircumflex" unicode="&#xc2;" horiz-adv-x="1300" 
d="M6 0l398 1284l35 210l378 31l479 -1525h-342l-116 427h-392l-113 -427h-327zM642 1361l-53 -371l-84 -344h274l-85 344zM964 1620h-215l-70 103l-30 127l-30 -127l-81 -103h-230l173 275l296 29z" />
    <glyph glyph-name="Atilde" unicode="&#xc3;" horiz-adv-x="1300" 
d="M6 0l398 1284l35 210l378 31l479 -1525h-342l-116 427h-392l-113 -427h-327zM642 1361l-53 -371l-84 -344h274l-85 344zM253 1627q4 40 20 85.5t46 83.5t76 63t109 25q49 0 82.5 -12.5t60.5 -27.5t51.5 -27.5t55.5 -12.5q21 0 35 7t23.5 19t14.5 28t8 34l167 -10
q-3 -44 -17 -90.5t-42.5 -84.5t-73.5 -62.5t-112 -24.5q-46 0 -77.5 12.5t-57.5 27.5t-52.5 27.5t-61.5 12.5q-18 0 -30 -7t-20.5 -18t-13.5 -25.5t-9 -29.5z" />
    <glyph glyph-name="Adieresis" unicode="&#xc4;" horiz-adv-x="1300" 
d="M6 0l398 1284l35 210l378 31l479 -1525h-342l-116 427h-392l-113 -427h-327zM642 1361l-53 -371l-84 -344h274l-85 344zM274 1900h276v-266h-276v266zM674 1900h276v-266h-276v266z" />
    <glyph glyph-name="Aring" unicode="&#xc5;" horiz-adv-x="1300" 
d="M642 1927q59 0 110.5 -22.5t90 -61t61 -90.5t22.5 -111t-22 -111.5t-60 -92.5l452 -1438h-342l-116 427h-392l-113 -427h-327l398 1284l27 164q-32 36 -52 82q-23 53 -23 112t22.5 111t61.5 90.5t91 61t111 22.5zM505 646h274l-85 344l-51 363h-2l-52 -363zM643 1542
q20 0 37.5 8t30.5 21.5t20.5 31.5t7.5 38t-7.5 37.5t-20.5 31t-31 21t-38 7.5t-38 -7.5t-31 -21t-20.5 -31t-7.5 -37.5t7.5 -38t21 -31.5t31.5 -21.5t38 -8z" />
    <glyph glyph-name="AE" unicode="&#xc6;" horiz-adv-x="1700" 
d="M1663 228l-28 -228h-953l18 231v196h-243l-171 -427h-308l515 1280l49 220h1084v-228h-596l17 -139v-217h511v-213h-511v-343l-8 -132h624zM700 645v555l-50 -261l-105 -294h155z" />
    <glyph glyph-name="Ccedilla" unicode="&#xc7;" horiz-adv-x="1300" 
d="M1154 133q-101 -81 -214 -116q-35 -11 -73 -18q26 -19 48 -45q19 -23 34.5 -54.5t15.5 -70.5q0 -50 -23.5 -93t-63.5 -74.5t-92 -50t-109 -18.5q-60 0 -117.5 18t-105.5 40q-55 26 -106 59l115 159q32 -20 64 -35q26 -13 55.5 -23.5t51.5 -10.5q23 0 43.5 12.5t20.5 40.5
q0 21 -12 44.5t-28 44.5t-32 37l-8 8q-108 13 -198 58q-123 63 -209 170t-131.5 250t-45.5 304q0 151 41 287t125.5 238.5t213.5 162.5t305 60q129 0 246.5 -44.5t205.5 -128.5l-148 -174q-33 22 -69 42t-73.5 35t-74.5 24t-71 9q-95 0 -161.5 -40.5t-108.5 -110t-61.5 -162
t-19.5 -195.5q0 -61 8.5 -125.5t26 -126t45 -115.5t65 -95t85.5 -65t108 -24q34 0 67 5.5t69.5 18t79.5 33t97 50.5z" />
    <glyph glyph-name="Egrave" unicode="&#xc8;" 
d="M1086 228l-27 -228h-957l17 231v1032l-35 237h965v-228h-594l15 -138v-218h513v-213h-513v-343l-8 -132h624zM804 1600h-258l-264 291l347 34z" />
    <glyph glyph-name="Eacute" unicode="&#xc9;" 
d="M1086 228l-27 -228h-957l17 231v1032l-35 237h965v-228h-594l15 -138v-218h513v-213h-513v-343l-8 -132h624zM576 1896l391 32l-292 -328h-259z" />
    <glyph glyph-name="Ecircumflex" unicode="&#xca;" 
d="M1086 228l-27 -228h-957l17 231v1032l-35 237h965v-228h-594l15 -138v-218h513v-213h-513v-343l-8 -132h624zM964 1620h-215l-70 103l-30 127l-30 -127l-81 -103h-230l173 275l296 29z" />
    <glyph glyph-name="Edieresis" unicode="&#xcb;" 
d="M1086 228l-27 -228h-957l17 231v1032l-35 237h965v-228h-594l15 -138v-218h513v-213h-513v-343l-8 -132h624zM274 1900h276v-266h-276v266zM674 1900h276v-266h-276v266z" />
    <glyph glyph-name="Igrave" unicode="&#xcc;" horiz-adv-x="600" 
d="M112 0v1263l-33 231l385 31v-1525h-352zM447 1600h-258l-264 291l347 34z" />
    <glyph glyph-name="Iacute" unicode="&#xcd;" horiz-adv-x="600" 
d="M111 0v1263l-33 231l385 31v-1525h-352zM246 1896l391 32l-292 -328h-259z" />
    <glyph glyph-name="Icircumflex" unicode="&#xce;" horiz-adv-x="600" 
d="M111 0v1263l-33 231l385 31v-1525h-352zM616 1620h-215l-70 103l-30 127l-30 -127l-81 -103h-230l173 275l296 29z" />
    <glyph glyph-name="Idieresis" unicode="&#xcf;" horiz-adv-x="600" 
d="M111 0v1263l-33 231l385 31v-1525h-352zM-75 1900h276v-266h-276v266zM325 1900h276v-266h-276v266z" />
    <glyph glyph-name="Eth" unicode="&#xd0;" horiz-adv-x="1300" 
d="M0 888h130v375l-34 230q49 5 104 8t108.5 5t101 3t80.5 1q168 0 310.5 -39.5t246.5 -124t163 -218t59 -321.5q0 -145 -29 -261.5t-81.5 -206t-125.5 -154t-160.5 -105.5t-186.5 -60.5t-204 -19.5h-352v665h-130v223zM482 1289h-11q-5 0 -11 -1l21 -161v-239h180v-223
h-180v-435q105 6 178.5 36t122 74.5t76 100t41 114.5t16.5 116.5t3 106.5q0 112 -17.5 206t-65.5 162t-133 105.5t-220 37.5z" />
    <glyph glyph-name="Ntilde" unicode="&#xd1;" horiz-adv-x="1500" 
d="M1323 1527v-1527h-316l-418 700l-148 338l-6 -1l38 -346v-691h-342v1263l-33 231l356 30l425 -714l149 -361l6 1l-48 366v677zM318 1627q4 40 20 85.5t46 83.5t76 63t109 25q49 0 82.5 -12.5t60.5 -27.5t51.5 -27.5t55.5 -12.5q21 0 35 7t23.5 19t14.5 28t8 34l167 -10
q-3 -44 -17 -90.5t-42.5 -84.5t-73.5 -62.5t-112 -24.5q-46 0 -77.5 12.5t-57.5 27.5t-52.5 27.5t-61.5 12.5q-18 0 -30 -7t-20.5 -18t-13.5 -25.5t-9 -29.5z" />
    <glyph glyph-name="Ograve" unicode="&#xd2;" horiz-adv-x="1600" 
d="M780 -17q-167 0 -300 58t-226 160.5t-142.5 243t-49.5 305.5t48 305.5t139.5 243t225.5 160.5t305 58q167 0 300 -58t225.5 -160.5t142 -243t49.5 -305.5t-48 -305.5t-139.5 -243t-225 -160.5t-304.5 -58zM1148 721q0 106 -20 205t-65 175t-116 122t-173 46
q-96 0 -165 -40.5t-113 -108t-64.5 -155.5t-20.5 -182q0 -108 20.5 -207.5t65.5 -176t116 -122.5t172 -46q96 0 164.5 41.5t113 110t65 156.5t20.5 182zM904 1600h-258l-264 291l347 34z" />
    <glyph glyph-name="Oacute" unicode="&#xd3;" horiz-adv-x="1600" 
d="M780 -17q-167 0 -300 58t-226 160.5t-142.5 243t-49.5 305.5t48 305.5t139.5 243t225.5 160.5t305 58q167 0 300 -58t225.5 -160.5t142 -243t49.5 -305.5t-48 -305.5t-139.5 -243t-225 -160.5t-304.5 -58zM1148 721q0 106 -20 205t-65 175t-116 122t-173 46
q-96 0 -165 -40.5t-113 -108t-64.5 -155.5t-20.5 -182q0 -108 20.5 -207.5t65.5 -176t116 -122.5t172 -46q96 0 164.5 41.5t113 110t65 156.5t20.5 182zM726 1896l391 32l-292 -328h-259z" />
    <glyph glyph-name="Ocircumflex" unicode="&#xd4;" horiz-adv-x="1600" 
d="M780 -17q-167 0 -300 58t-226 160.5t-142.5 243t-49.5 305.5t48 305.5t139.5 243t225.5 160.5t305 58q167 0 300 -58t225.5 -160.5t142 -243t49.5 -305.5t-48 -305.5t-139.5 -243t-225 -160.5t-304.5 -58zM1148 721q0 106 -20 205t-65 175t-116 122t-173 46
q-96 0 -165 -40.5t-113 -108t-64.5 -155.5t-20.5 -182q0 -108 20.5 -207.5t65.5 -176t116 -122.5t172 -46q96 0 164.5 41.5t113 110t65 156.5t20.5 182zM1114 1620h-215l-70 103l-30 127l-30 -127l-81 -103h-230l173 275l296 29z" />
    <glyph glyph-name="Otilde" unicode="&#xd5;" horiz-adv-x="1600" 
d="M780 -17q-167 0 -300 58t-226 160.5t-142.5 243t-49.5 305.5t48 305.5t139.5 243t225.5 160.5t305 58q167 0 300 -58t225.5 -160.5t142 -243t49.5 -305.5t-48 -305.5t-139.5 -243t-225 -160.5t-304.5 -58zM1148 721q0 106 -20 205t-65 175t-116 122t-173 46
q-96 0 -165 -40.5t-113 -108t-64.5 -155.5t-20.5 -182q0 -108 20.5 -207.5t65.5 -176t116 -122.5t172 -46q96 0 164.5 41.5t113 110t65 156.5t20.5 182zM418 1627q4 40 20 85.5t46 83.5t76 63t109 25q49 0 82.5 -12.5t60.5 -27.5t51.5 -27.5t55.5 -12.5q21 0 35 7t23.5 19
t14.5 28t8 34l167 -10q-3 -44 -17 -90.5t-42.5 -84.5t-73.5 -62.5t-112 -24.5q-46 0 -77.5 12.5t-57.5 27.5t-52.5 27.5t-61.5 12.5q-18 0 -30 -7t-20.5 -18t-13.5 -25.5t-9 -29.5z" />
    <glyph glyph-name="Odieresis" unicode="&#xd6;" horiz-adv-x="1600" 
d="M780 -17q-167 0 -300 58t-226 160.5t-142.5 243t-49.5 305.5t48 305.5t139.5 243t225.5 160.5t305 58q167 0 300 -58t225.5 -160.5t142 -243t49.5 -305.5t-48 -305.5t-139.5 -243t-225 -160.5t-304.5 -58zM1148 721q0 106 -20 205t-65 175t-116 122t-173 46
q-96 0 -165 -40.5t-113 -108t-64.5 -155.5t-20.5 -182q0 -108 20.5 -207.5t65.5 -176t116 -122.5t172 -46q96 0 164.5 41.5t113 110t65 156.5t20.5 182zM424 1900h276v-266h-276v266zM824 1900h276v-266h-276v266z" />
    <glyph glyph-name="multiply" unicode="&#xd7;" horiz-adv-x="1600" 
d="M469 119l-187 150l366 364l-366 365l187 151l301 -302l70 -118l22 118l300 302l187 -151l-365 -365l365 -364l-187 -150l-300 300l-70 119l-22 -119z" />
    <glyph glyph-name="Oslash" unicode="&#xd8;" horiz-adv-x="1600" 
d="M799 21q-165 0 -297 56l-119 -177h-353l235 348q-87 100 -135 234q-49 141 -49 306t48 305.5t139.5 243t225.5 160.5t305 58q167 0 300 -58q5 -2 10 -5l73 108h344l-188 -280q83 -97 128 -227q50 -140 50 -305t-48 -305.5t-139.5 -243t-225 -160.5t-304.5 -58zM793 1307
q-96 0 -165 -40.5t-113 -108t-64.5 -155.5t-20.5 -182q0 -108 20 -208q7 -35 18 -67l488 721q-68 40 -163 40zM1167 759q0 106 -20 205q-6 27 -13 53l-481 -715q65 -33 151 -33q96 0 164.5 41.5t113 110t65 156.5t20.5 182z" />
    <glyph glyph-name="Ugrave" unicode="&#xd9;" horiz-adv-x="1400" 
d="M1250 1500v-966q0 -139 -44.5 -242.5t-123 -172t-185 -102.5t-230.5 -34q-134 0 -237.5 43t-174 122t-107.5 189.5t-37 244.5v681l-33 231l380 32v-962q0 -81 17.5 -145t47.5 -108t69.5 -67t83.5 -23q105 0 166.5 74t61.5 221v984h346zM804 1600h-258l-264 291l347 34z
" />
    <glyph glyph-name="Uacute" unicode="&#xda;" horiz-adv-x="1400" 
d="M1250 1500v-966q0 -139 -44.5 -242.5t-123 -172t-185 -102.5t-230.5 -34q-134 0 -237.5 43t-174 122t-107.5 189.5t-37 244.5v681l-33 231l380 32v-962q0 -81 17.5 -145t47.5 -108t69.5 -67t83.5 -23q105 0 166.5 74t61.5 221v984h346zM626 1896l391 32l-292 -328h-259z
" />
    <glyph glyph-name="Ucircumflex" unicode="&#xdb;" horiz-adv-x="1400" 
d="M1250 1500v-966q0 -139 -44.5 -242.5t-123 -172t-185 -102.5t-230.5 -34q-134 0 -237.5 43t-174 122t-107.5 189.5t-37 244.5v681l-33 231l380 32v-962q0 -81 17.5 -145t47.5 -108t69.5 -67t83.5 -23q105 0 166.5 74t61.5 221v984h346zM964 1620h-215l-70 103l-30 127
l-30 -127l-81 -103h-230l173 275l296 29z" />
    <glyph glyph-name="Udieresis" unicode="&#xdc;" horiz-adv-x="1400" 
d="M1250 1500v-966q0 -139 -44.5 -242.5t-123 -172t-185 -102.5t-230.5 -34q-134 0 -237.5 43t-174 122t-107.5 189.5t-37 244.5v681l-33 231l380 32v-962q0 -81 17.5 -145t47.5 -108t69.5 -67t83.5 -23q105 0 166.5 74t61.5 221v984h346zM324 1900h276v-266h-276v266z
M724 1900h276v-266h-276v266z" />
    <glyph glyph-name="Yacute" unicode="&#xdd;" 
d="M511 1143l107 -370l58 370l182 357h335l-433 -850v-650h-351v650l-429 842l339 33zM526 1896l391 32l-292 -328h-259z" />
    <glyph glyph-name="Thorn" unicode="&#xde;" horiz-adv-x="1300" 
d="M106 1500h364v-189h114q51 0 108.5 -9t113 -29.5t106.5 -53.5t90 -81t62 -111.5t23 -144.5q0 -57 -8.5 -118.5t-35.5 -120.5t-76.5 -112t-131.5 -93q-26 -12 -55 -22.5t-64 -18t-77 -12t-93 -4.5h-76v-381h-342v1267zM470 1093v-488h104q49 0 85.5 21t59.5 58.5t34.5 88
t11.5 109.5q0 101 -56.5 156t-153.5 55h-85z" />
    <glyph glyph-name="germandbls" unicode="&#xdf;" horiz-adv-x="1300" 
d="M469 -21l-343 26v1068q0 103 35.5 181t100 130.5t153.5 78.5t197 26q231 0 341 -116q25 -27 46 -53.5t36 -56t23.5 -63t8.5 -73.5q0 -53 -15 -100t-42.5 -87t-66 -72.5t-85.5 -56.5q63 -21 118.5 -52t96.5 -73t64.5 -96.5t23.5 -123.5q0 -86 -24 -154t-65 -120
t-95.5 -88.5t-117 -59.5t-129 -33.5t-130.5 -10.5l-81 224q146 3 226 59t80 174q0 59 -17 101.5t-48 69.5t-73 40t-93 13l-95 221q54 5 98.5 19.5t76 39.5t48.5 61t17 85q0 35 -11 66t-29 54t-41.5 36t-48.5 13q-71 0 -105.5 -36.5t-34.5 -120.5v-1140z" />
    <glyph glyph-name="agrave" unicode="&#xe0;" horiz-adv-x="1100" 
d="M973 0h-339v162l-120 -174q-8 -2 -19 -3.5t-32 -1.5q-86 0 -163 24.5t-135 72t-92.5 117.5t-34.5 161q0 64 19 116t52.5 93t77.5 71t94.5 49.5t104 29t104.5 9.5q45 0 80.5 -3t62.5 -8q-1 40 -6 73.5t-18 58.5t-35 39t-56 14q-85 0 -163 -19.5t-141 -42.5l-104 185
q78 35 153 56q48 14 113.5 26t150.5 12q130 0 212.5 -31.5t129 -89t64 -138t17.5 -177.5v-476zM634 515q-24 3 -52.5 5.5t-54.5 2.5q-36 0 -70.5 -10t-61.5 -30t-44 -51t-17 -73q0 -34 11 -63t29 -50.5t40.5 -33.5t45.5 -12q29 0 55.5 9t49 22.5t40 29.5t29.5 29v225z
M704 1200h-258l-264 291l347 34z" />
    <glyph glyph-name="aacute" unicode="&#xe1;" horiz-adv-x="1100" 
d="M973 0h-339v162l-120 -174q-8 -2 -19 -3.5t-32 -1.5q-86 0 -163 24.5t-135 72t-92.5 117.5t-34.5 161q0 64 19 116t52.5 93t77.5 71t94.5 49.5t104 29t104.5 9.5q45 0 80.5 -3t62.5 -8q-1 40 -6 73.5t-18 58.5t-35 39t-56 14q-85 0 -163 -19.5t-141 -42.5l-104 185
q78 35 153 56q48 14 113.5 26t150.5 12q130 0 212.5 -31.5t129 -89t64 -138t17.5 -177.5v-476zM634 515q-24 3 -52.5 5.5t-54.5 2.5q-36 0 -70.5 -10t-61.5 -30t-44 -51t-17 -73q0 -34 11 -63t29 -50.5t40.5 -33.5t45.5 -12q29 0 55.5 9t49 22.5t40 29.5t29.5 29v225z
M477 1496l391 32l-292 -328h-259z" />
    <glyph glyph-name="acircumflex" unicode="&#xe2;" horiz-adv-x="1100" 
d="M973 0h-339v162l-120 -174q-8 -2 -19 -3.5t-32 -1.5q-86 0 -163 24.5t-135 72t-92.5 117.5t-34.5 161q0 64 19 116t52.5 93t77.5 71t94.5 49.5t104 29t104.5 9.5q45 0 80.5 -3t62.5 -8q-1 40 -6 73.5t-18 58.5t-35 39t-56 14q-85 0 -163 -19.5t-141 -42.5l-104 185
q78 35 153 56q48 14 113.5 26t150.5 12q130 0 212.5 -31.5t129 -89t64 -138t17.5 -177.5v-476zM634 515q-24 3 -52.5 5.5t-54.5 2.5q-36 0 -70.5 -10t-61.5 -30t-44 -51t-17 -73q0 -34 11 -63t29 -50.5t40.5 -33.5t45.5 -12q29 0 55.5 9t49 22.5t40 29.5t29.5 29v225z
M814 1220h-215l-70 103l-30 127l-30 -127l-81 -103h-230l173 275l296 29z" />
    <glyph glyph-name="atilde" unicode="&#xe3;" horiz-adv-x="1100" 
d="M973 0h-339v162l-120 -174q-8 -2 -19 -3.5t-32 -1.5q-86 0 -163 24.5t-135 72t-92.5 117.5t-34.5 161q0 64 19 116t52.5 93t77.5 71t94.5 49.5t104 29t104.5 9.5q45 0 80.5 -3t62.5 -8q-1 40 -6 73.5t-18 58.5t-35 39t-56 14q-85 0 -163 -19.5t-141 -42.5l-104 185
q78 35 153 56q48 14 113.5 26t150.5 12q130 0 212.5 -31.5t129 -89t64 -138t17.5 -177.5v-476zM634 515q-24 3 -52.5 5.5t-54.5 2.5q-36 0 -70.5 -10t-61.5 -30t-44 -51t-17 -73q0 -34 11 -63t29 -50.5t40.5 -33.5t45.5 -12q29 0 55.5 9t49 22.5t40 29.5t29.5 29v225z
M118 1248q4 40 20 85.5t46 83.5t76 63t109 25q49 0 82.5 -12.5t60.5 -27.5t51.5 -27.5t55.5 -12.5q21 0 35 7t23.5 19t14.5 28t8 34l167 -10q-3 -44 -17 -90.5t-42.5 -84.5t-73.5 -62.5t-112 -24.5q-46 0 -77.5 12.5t-57.5 27.5t-52.5 27.5t-61.5 12.5q-18 0 -30 -7
t-20.5 -18t-13.5 -25.5t-9 -29.5z" />
    <glyph glyph-name="adieresis" unicode="&#xe4;" horiz-adv-x="1100" 
d="M973 0h-339v162l-120 -174q-8 -2 -19 -3.5t-32 -1.5q-86 0 -163 24.5t-135 72t-92.5 117.5t-34.5 161q0 64 19 116t52.5 93t77.5 71t94.5 49.5t104 29t104.5 9.5q45 0 80.5 -3t62.5 -8q-1 40 -6 73.5t-18 58.5t-35 39t-56 14q-85 0 -163 -19.5t-141 -42.5l-104 185
q78 35 153 56q48 14 113.5 26t150.5 12q130 0 212.5 -31.5t129 -89t64 -138t17.5 -177.5v-476zM634 515q-24 3 -52.5 5.5t-54.5 2.5q-36 0 -70.5 -10t-61.5 -30t-44 -51t-17 -73q0 -34 11 -63t29 -50.5t40.5 -33.5t45.5 -12q29 0 55.5 9t49 22.5t40 29.5t29.5 29v225z
M125 1500h276v-266h-276v266zM525 1500h276v-266h-276v266z" />
    <glyph glyph-name="aring" unicode="&#xe5;" horiz-adv-x="1100" 
d="M500 1682q59 0 110.5 -22.5t90 -61t61 -90.5t22.5 -111t-22 -111.5t-60 -92t-90 -62.5q-20 -9 -42 -15q101 -5 169 -31q83 -31 129.5 -88.5t64 -138t17.5 -177.5v-476l23 -205h-339v162l-120 -174q-8 -2 -19 -3.5t-32 -1.5q-86 0 -163 24.5t-135 72t-92.5 117.5
t-34.5 161q0 64 19 116t52.5 93t77.5 71t94.5 49.5t104 29t104.5 9.5q45 0 80.5 -3t62.5 -8q-1 40 -6 73.5t-18 58.5t-35 39t-56 14q-85 0 -163 -19.5t-141 -42.5l-104 185q78 35 153 56q48 14 113 26q31 5 67 9q-27 6 -53 17q-52 23 -91 62.5t-62 92t-23 111.5t22.5 111
t61.5 90.5t91 61t111 22.5zM634 515q-24 3 -52.5 5.5t-54.5 2.5q-36 0 -70.5 -10t-61.5 -30t-44 -51t-17 -73q0 -34 11 -63t29 -50.5t40.5 -33.5t45.5 -12q29 0 55.5 9t49 22.5t40 29.5t29.5 29v225zM501 1297q20 0 37.5 8t30.5 21.5t20.5 31.5t7.5 38t-7.5 37.5t-20.5 31
t-31 21t-38 7.5t-38 -7.5t-31 -21t-20.5 -31t-7.5 -37.5t7.5 -38t21 -31.5t31.5 -21.5t38 -8z" />
    <glyph glyph-name="ae" unicode="&#xe6;" horiz-adv-x="1700" 
d="M1588 632q0 -27 -3 -71t-9 -95h-664q4 -54 26 -102.5t57.5 -84.5t81 -57.5t98.5 -21.5q69 0 128 26t115 66l153 -135q-36 -38 -78 -70t-93 -55t-112.5 -36t-136.5 -13q-36 0 -75.5 4.5t-78 13.5t-73.5 22.5t-62 31.5l-63 145l-19 -86q-24 -18 -59 -40.5t-79 -42.5
t-94.5 -34t-104.5 -14q-85 0 -160.5 24.5t-132 72t-89.5 117.5t-33 161q0 96 40 165.5t104 114.5t142.5 66.5t155.5 21.5q43 0 79 -3.5t65 -8.5q-1 40 -6.5 74t-18 59t-34.5 39t-57 14q-59 0 -113 -10t-96 -22q-49 -14 -93 -31l-104 184q57 27 124 48q57 18 132 33t159 15
q115 0 194 -27t128 -71q57 42 130 69.5t168 27.5q120 0 207 -35t143.5 -99t83.5 -153t27 -197zM615 516q-23 3 -50.5 5t-57.5 2q-36 0 -70.5 -10t-61.5 -30t-44 -51t-17 -73q0 -34 11.5 -63.5t30.5 -51t43.5 -34t51.5 -12.5q32 0 61 14t52 31q26 20 51 46v227zM1036 671h283
q0 45 -10 87t-31 74t-55 51.5t-82 19.5q-42 0 -73.5 -15t-54 -37t-37 -48t-22.5 -47l-91 -103z" />
    <glyph glyph-name="ccedilla" unicode="&#xe7;" horiz-adv-x="1042" 
d="M783 814q-30 29 -57.5 46t-52.5 26t-49.5 11.5t-48.5 2.5q-58 0 -98.5 -28t-66 -74.5t-37 -107.5t-11.5 -127q0 -69 11 -134.5t36.5 -116.5t68.5 -81.5t107 -30.5q26 0 56 7t60.5 19t60 28t55.5 34l112 -195q-73 -50 -162 -80q-29 -10 -60 -16q24 -19 44 -43
q19 -23 34.5 -54.5t15.5 -70.5q0 -50 -23.5 -93t-63.5 -74.5t-92 -50t-109 -18.5q-60 0 -117.5 18t-105.5 40q-55 26 -106 59l115 159q32 -20 64 -35q26 -13 55.5 -23.5t51.5 -10.5q23 0 43.5 12.5t20.5 40.5q0 21 -12 44.5t-28 44.5t-32 37l-17 17q-59 12 -109 36
q-101 50 -169 132t-102 189t-34 222q0 104 33 202t100.5 173.5t170 121t242.5 45.5q108 0 194 -35.5t163 -120.5z" />
    <glyph glyph-name="egrave" unicode="&#xe8;" horiz-adv-x="1100" 
d="M1002 158q-37 -38 -80 -70t-95 -55t-114 -36t-137 -13q-144 0 -246 47t-166.5 125.5t-94 180.5t-29.5 213q0 71 14 140.5t42.5 132t71 116.5t99.5 93t128.5 61.5t157.5 22.5q120 0 208 -35.5t145 -99t85 -152.5t28 -197q0 -27 -3.5 -71t-8.5 -95h-670q2 -54 23 -102.5
t55.5 -84.5t80.5 -57.5t100 -21.5q44 0 83.5 10t72 24.5t57.5 30t39 27.5zM735 672q0 46 -7 87t-26 72.5t-51.5 50t-83.5 18.5q-43 0 -75.5 -15t-56 -37.5t-38.5 -47.5t-23 -44l-91 -103l173 18zM704 1200h-258l-264 291l347 34z" />
    <glyph glyph-name="eacute" unicode="&#xe9;" horiz-adv-x="1100" 
d="M1002 158q-37 -38 -80 -70t-95 -55t-114 -36t-137 -13q-144 0 -246 47t-166.5 125.5t-94 180.5t-29.5 213q0 71 14 140.5t42.5 132t71 116.5t99.5 93t128.5 61.5t157.5 22.5q120 0 208 -35.5t145 -99t85 -152.5t28 -197q0 -27 -3.5 -71t-8.5 -95h-670q2 -54 23 -102.5
t55.5 -84.5t80.5 -57.5t100 -21.5q44 0 83.5 10t72 24.5t57.5 30t39 27.5zM735 672q0 46 -7 87t-26 72.5t-51.5 50t-83.5 18.5q-43 0 -75.5 -15t-56 -37.5t-38.5 -47.5t-23 -44l-91 -103l173 18zM526 1496l391 32l-292 -328h-259z" />
    <glyph glyph-name="ecircumflex" unicode="&#xea;" horiz-adv-x="1100" 
d="M1002 158q-37 -38 -80 -70t-95 -55t-114 -36t-137 -13q-144 0 -246 47t-166.5 125.5t-94 180.5t-29.5 213q0 71 14 140.5t42.5 132t71 116.5t99.5 93t128.5 61.5t157.5 22.5q120 0 208 -35.5t145 -99t85 -152.5t28 -197q0 -27 -3.5 -71t-8.5 -95h-670q2 -54 23 -102.5
t55.5 -84.5t80.5 -57.5t100 -21.5q44 0 83.5 10t72 24.5t57.5 30t39 27.5zM735 672q0 46 -7 87t-26 72.5t-51.5 50t-83.5 18.5q-43 0 -75.5 -15t-56 -37.5t-38.5 -47.5t-23 -44l-91 -103l173 18zM914 1220h-215l-70 103l-30 127l-30 -127l-81 -103h-230l173 275l296 29z" />
    <glyph glyph-name="edieresis" unicode="&#xeb;" horiz-adv-x="1100" 
d="M1002 158q-37 -38 -80 -70t-95 -55t-114 -36t-137 -13q-144 0 -246 47t-166.5 125.5t-94 180.5t-29.5 213q0 71 14 140.5t42.5 132t71 116.5t99.5 93t128.5 61.5t157.5 22.5q120 0 208 -35.5t145 -99t85 -152.5t28 -197q0 -27 -3.5 -71t-8.5 -95h-670q2 -54 23 -102.5
t55.5 -84.5t80.5 -57.5t100 -21.5q44 0 83.5 10t72 24.5t57.5 30t39 27.5zM735 672q0 46 -7 87t-26 72.5t-51.5 50t-83.5 18.5q-43 0 -75.5 -15t-56 -37.5t-38.5 -47.5t-23 -44l-91 -103l173 18zM224 1500h276v-266h-276v266zM624 1500h276v-266h-276v266z" />
    <glyph glyph-name="igrave" unicode="&#xec;" horiz-adv-x="600" 
d="M447 0h-326v1052l326 32v-1084zM526 1237h-258l-264 291l347 34z" />
    <glyph glyph-name="iacute" unicode="&#xed;" horiz-adv-x="600" 
d="M450 0h-326v1052l326 32v-1084zM305 1533l391 32l-292 -328h-259z" />
    <glyph glyph-name="icircumflex" unicode="&#xee;" horiz-adv-x="600" 
d="M448 0h-326v1052l326 32v-1084zM639 1257h-215l-70 103l-30 127l-30 -127l-81 -103h-230l173 275l296 29z" />
    <glyph glyph-name="idieresis" unicode="&#xef;" horiz-adv-x="600" 
d="M448 0h-326v1052l326 32v-1084zM-46 1537h276v-266h-276v266zM354 1537h276v-266h-276v266z" />
    <glyph glyph-name="eth" unicode="&#xf0;" horiz-adv-x="1300" 
d="M352 1154l202 166l-144 -24q-44 14 -79 14q-27 0 -52 -2.5t-48 -7.5l-36 208l55 5q22 2 37 3t25 1h20q100 0 188 -22t163 -62l149 128l140 -166l-185 -156h128q52 -62 91 -136t64.5 -155t38 -166.5t12.5 -169.5q0 -54 -10 -121t-33.5 -137t-63 -136.5t-98.5 -119
t-139.5 -84t-186.5 -31.5q-118 0 -209.5 35.5t-153.5 100t-94.5 154.5t-32.5 199q0 112 33 199t93.5 145.5t147 89t194.5 30.5q48 0 96.5 -7t96.5 -25q-3 25 -12 54.5t-23 59.5t-32.5 58t-40.5 50l-158 -133zM799 596q-18 20 -39 41t-47.5 37.5t-58.5 27t-72 10.5
q-46 0 -80 -20t-56.5 -54.5t-34 -81.5t-11.5 -101t14.5 -99t40 -78t60 -51.5t74.5 -18.5q39 0 71.5 17.5t57.5 47t42 69t26 84.5q9 43 11 84t2 86z" />
    <glyph glyph-name="ntilde" unicode="&#xf1;" 
d="M456 1126v-189l90 151q32 11 65.5 20t68.5 9q43 0 83.5 -2.5t77.5 -12t70 -28t62 -50.5q31 -34 48 -74t24.5 -79.5t9 -77t1.5 -66.5v-727h-326v757q0 41 -7.5 68.5t-20.5 44t-31.5 23.5t-40.5 7q-17 0 -38.5 -6t-44.5 -16.5t-46.5 -26.5t-44.5 -35v-816h-326v1093z
M218 1248q4 40 20 85.5t46 83.5t76 63t109 25q49 0 82.5 -12.5t60.5 -27.5t51.5 -27.5t55.5 -12.5q21 0 35 7t23.5 19t14.5 28t8 34l167 -10q-3 -44 -17 -90.5t-42.5 -84.5t-73.5 -62.5t-112 -24.5q-46 0 -77.5 12.5t-57.5 27.5t-52.5 27.5t-61.5 12.5q-18 0 -30 -7
t-20.5 -18t-13.5 -25.5t-9 -29.5z" />
    <glyph glyph-name="ograve" unicode="&#xf2;" 
d="M604 -17q-120 0 -219 43.5t-170.5 120t-111 180.5t-39.5 226q0 121 38 224.5t108.5 179t170 118t223.5 42.5q120 0 219.5 -42.5t171 -118t111 -179t39.5 -224.5q0 -122 -38 -226t-108.5 -180.5t-170.5 -120t-224 -43.5zM819 528q0 68 -12 134t-38.5 118.5t-68 84.5
t-100.5 32q-55 0 -95 -27.5t-65.5 -73.5t-37.5 -104.5t-12 -120.5q0 -69 12 -135t38.5 -117.5t67.5 -83.5t99 -32q55 0 95 27.5t66 73.5t38.5 104t12.5 120zM831 1200h-258l-264 291l347 34z" />
    <glyph glyph-name="oacute" unicode="&#xf3;" 
d="M604 -17q-120 0 -219 43.5t-170.5 120t-111 180.5t-39.5 226q0 121 38 224.5t108.5 179t170 118t223.5 42.5q120 0 219.5 -42.5t171 -118t111 -179t39.5 -224.5q0 -122 -38 -226t-108.5 -180.5t-170.5 -120t-224 -43.5zM819 528q0 68 -12 134t-38.5 118.5t-68 84.5
t-100.5 32q-55 0 -95 -27.5t-65.5 -73.5t-37.5 -104.5t-12 -120.5q0 -69 12 -135t38.5 -117.5t67.5 -83.5t99 -32q55 0 95 27.5t66 73.5t38.5 104t12.5 120zM526 1496l391 32l-292 -328h-259z" />
    <glyph glyph-name="ocircumflex" unicode="&#xf4;" 
d="M604 -17q-120 0 -219 43.5t-170.5 120t-111 180.5t-39.5 226q0 121 38 224.5t108.5 179t170 118t223.5 42.5q120 0 219.5 -42.5t171 -118t111 -179t39.5 -224.5q0 -122 -38 -226t-108.5 -180.5t-170.5 -120t-224 -43.5zM819 528q0 68 -12 134t-38.5 118.5t-68 84.5
t-100.5 32q-55 0 -95 -27.5t-65.5 -73.5t-37.5 -104.5t-12 -120.5q0 -69 12 -135t38.5 -117.5t67.5 -83.5t99 -32q55 0 95 27.5t66 73.5t38.5 104t12.5 120zM914 1220h-215l-70 103l-30 127l-30 -127l-81 -103h-230l173 275l296 29z" />
    <glyph glyph-name="otilde" unicode="&#xf5;" 
d="M604 -17q-120 0 -219 43.5t-170.5 120t-111 180.5t-39.5 226q0 121 38 224.5t108.5 179t170 118t223.5 42.5q120 0 219.5 -42.5t171 -118t111 -179t39.5 -224.5q0 -122 -38 -226t-108.5 -180.5t-170.5 -120t-224 -43.5zM819 528q0 68 -12 134t-38.5 118.5t-68 84.5
t-100.5 32q-55 0 -95 -27.5t-65.5 -73.5t-37.5 -104.5t-12 -120.5q0 -69 12 -135t38.5 -117.5t67.5 -83.5t99 -32q55 0 95 27.5t66 73.5t38.5 104t12.5 120zM268 1248q4 40 20 85.5t46 83.5t76 63t109 25q49 0 82.5 -12.5t60.5 -27.5t51.5 -27.5t55.5 -12.5q21 0 35 7
t23.5 19t14.5 28t8 34l167 -10q-3 -44 -17 -90.5t-42.5 -84.5t-73.5 -62.5t-112 -24.5q-46 0 -77.5 12.5t-57.5 27.5t-52.5 27.5t-61.5 12.5q-18 0 -30 -7t-20.5 -18t-13.5 -25.5t-9 -29.5z" />
    <glyph glyph-name="odieresis" unicode="&#xf6;" 
d="M604 -17q-120 0 -219 43.5t-170.5 120t-111 180.5t-39.5 226q0 121 38 224.5t108.5 179t170 118t223.5 42.5q120 0 219.5 -42.5t171 -118t111 -179t39.5 -224.5q0 -122 -38 -226t-108.5 -180.5t-170.5 -120t-224 -43.5zM819 528q0 68 -12 134t-38.5 118.5t-68 84.5
t-100.5 32q-55 0 -95 -27.5t-65.5 -73.5t-37.5 -104.5t-12 -120.5q0 -69 12 -135t38.5 -117.5t67.5 -83.5t99 -32q55 0 95 27.5t66 73.5t38.5 104t12.5 120zM224 1500h276v-266h-276v266zM624 1500h276v-266h-276v266z" />
    <glyph glyph-name="divide" unicode="&#xf7;" horiz-adv-x="1100" 
d="M409 287q0 29 11 54.5t30.5 45t44.5 30.5t54 11t54 -11t44.5 -30.5t30.5 -45t11 -54.5q0 -28 -11 -54t-29.5 -45.5t-44 -31.5t-54.5 -12q-28 0 -54 12t-45.5 31.5t-30.5 45.5t-11 54zM409 940q0 29 11 54.5t30.5 45t44.5 30.5t54 11t54 -11t44.5 -30.5t30.5 -45t11 -54.5
q0 -28 -11 -54t-29.5 -45.5t-44 -31.5t-54.5 -12q-28 0 -54 12t-45.5 31.5t-30.5 45.5t-11 54zM100 724h900v-155h-900v155z" />
    <glyph glyph-name="oslash" unicode="&#xf8;" 
d="M623 20q-109 0 -200 35l-93 -155h-260l169 277l-6 6q-71 77 -110.5 181t-39.5 226q0 121 38 224.5t108.5 179t170 118t223.5 42.5q104 0 193 -32l54 87h250l-121 -201q7 -7 14 -15q72 -75 111.5 -178.5t39.5 -224.5q0 -122 -38 -226t-108.5 -180.5t-170.5 -120
t-224 -43.5zM838 565q0 68 -12 134q-2 9 -3 17l-277 -458q35 -18 80 -18q55 0 95 27.5t66 73.5t38.5 104t12.5 120zM619 934q-55 0 -95 -27.5t-65.5 -73.5t-37.5 -104.5t-12 -120.5q0 -69 12 -134l271 444q-32 16 -73 16z" />
    <glyph glyph-name="ugrave" unicode="&#xf9;" 
d="M729 1093l326 33v-1126h-326v163l-111 -152q-20 -9 -59 -18.5t-80 -9.5q-94 0 -160 30t-108 83.5t-61.5 127t-19.5 160.5v709l326 33v-742q0 -83 24 -133.5t80 -50.5q19 0 41.5 6.5t44.5 17.5t43.5 24.5t39.5 27.5v817zM831 1200h-258l-264 291l347 34z" />
    <glyph glyph-name="uacute" unicode="&#xfa;" 
d="M729 1093l326 33v-1126h-326v163l-111 -152q-20 -9 -59 -18.5t-80 -9.5q-94 0 -160 30t-108 83.5t-61.5 127t-19.5 160.5v709l326 33v-742q0 -83 24 -133.5t80 -50.5q19 0 41.5 6.5t44.5 17.5t43.5 24.5t39.5 27.5v817zM492 1496l391 32l-292 -328h-259z" />
    <glyph glyph-name="ucircumflex" unicode="&#xfb;" 
d="M729 1093l326 33v-1126h-326v163l-111 -152q-20 -9 -59 -18.5t-80 -9.5q-94 0 -160 30t-108 83.5t-61.5 127t-19.5 160.5v709l326 33v-742q0 -83 24 -133.5t80 -50.5q19 0 41.5 6.5t44.5 17.5t43.5 24.5t39.5 27.5v817zM914 1220h-215l-70 103l-30 127l-30 -127l-81 -103
h-230l173 275l296 29z" />
    <glyph glyph-name="udieresis" unicode="&#xfc;" 
d="M729 1093l326 33v-1126h-326v163l-111 -152q-20 -9 -59 -18.5t-80 -9.5q-94 0 -160 30t-108 83.5t-61.5 127t-19.5 160.5v709l326 33v-742q0 -83 24 -133.5t80 -50.5q19 0 41.5 6.5t44.5 17.5t43.5 24.5t39.5 27.5v817zM224 1500h276v-266h-276v266zM624 1500h276v-266
h-276v266z" />
    <glyph glyph-name="yacute" unicode="&#xfd;" horiz-adv-x="1100" 
d="M471 670l79 -480l77 480l161 425l322 29l-408 -1116q-30 -83 -68 -169.5t-88 -157.5t-114.5 -116t-148.5 -45q-67 0 -132.5 28t-123.5 78l123 180q23 -15 49 -27.5t53 -12.5q43 0 77.5 50t71.5 137l-417 1140l323 28zM442 1496l391 32l-292 -328h-259z" />
    <glyph glyph-name="thorn" unicode="&#xfe;" 
d="M815 528q0 68 -12 134t-38.5 118.5t-68 84.5t-100.5 32q-55 0 -95 -27.5t-65.5 -73.5t-37.5 -104.5t-12 -120.5q0 -69 12 -135t38.5 -117.5t67.5 -83.5t99 -32q55 0 95 27.5t66 73.5t38.5 104t12.5 120zM402 1527v-326l-82 -171l181 79q24 4 48.5 6t50.5 2
q120 0 219.5 -42.5t171 -118t111 -179t39.5 -224.5q0 -122 -38 -226t-108.5 -180.5t-170.5 -120t-224 -43.5q-26 0 -50.5 2t-48.5 6l-181 84l82 -174v-281h-342v1873z" />
    <glyph glyph-name="ydieresis" unicode="&#xff;" horiz-adv-x="1100" 
d="M471 670l79 -480l77 480l161 425l322 29l-408 -1116q-30 -83 -68 -169.5t-88 -157.5t-114.5 -116t-148.5 -45q-67 0 -132.5 28t-123.5 78l123 180q23 -15 49 -27.5t53 -12.5q43 0 77.5 50t71.5 137l-417 1140l323 28zM175 1500h276v-266h-276v266zM575 1500h276v-266
h-276v266z" />
    <glyph glyph-name="OE" unicode="&#x152;" horiz-adv-x="2000" 
d="M915 0l10 70l-126 -87q-173 0 -309 58t-230.5 160.5t-144 243t-49.5 305.5t48 305.5t141 243t229.5 160.5t313.5 58l127 -87l-10 70h903v-228h-594l15 -138v-218h513v-213h-513v-343l-7 -132h623l-27 -228h-913zM789 221q12 0 32.5 1t42.5 2.5t42.5 4t32.5 5.5v1027
q-11 4 -31.5 7.5t-44 5.5t-46.5 3.5t-39 1.5q-97 0 -165.5 -42t-112.5 -111.5t-64.5 -159t-20.5 -183.5q0 -108 20.5 -209t65.5 -179.5t116 -126t172 -47.5z" />
    <glyph glyph-name="oe" unicode="&#x153;" horiz-adv-x="1900" 
d="M822 571q0 62 -9.5 120.5t-33.5 104.5t-63.5 73.5t-99.5 27.5q-55 0 -94.5 -27.5t-65 -73.5t-37.5 -104.5t-12 -120.5q0 -69 11.5 -135t36 -118t64.5 -83.5t97 -31.5t96.5 31.5t64 83.5t35 118t10.5 135zM908 82q-18 -16 -47.5 -33.5t-66 -31.5t-76.5 -23.5t-78 -9.5
q-120 0 -219 43.5t-170.5 120t-111 180.5t-39.5 225t38 224t108.5 178.5t170 118t223.5 42.5q40 0 75.5 -7t68 -19t63 -28.5t61.5 -35.5l76 -121l79 120q19 15 45.5 31t57 29.5t65 22t69.5 8.5q120 0 207 -35t143.5 -99t83.5 -153t27 -197q0 -27 -3 -71t-9 -95h-664
q4 -54 26 -102.5t57.5 -84.5t81 -57.5t98.5 -21.5q69 0 128 26t115 66l153 -135q-36 -38 -78 -70t-93 -55t-112.5 -36t-136.5 -13q-43 0 -84 10.5t-75.5 25.5t-61 32.5t-40.5 31.5l-79 120zM1209 671h283q0 45 -10 87t-31 74t-55 51.5t-82 19.5q-42 0 -73.5 -15t-54 -37
t-37 -48t-22.5 -47l-91 -103z" />
    <glyph glyph-name="Scaron" unicode="&#x160;" horiz-adv-x="1100" 
d="M853 1178q-46 27 -83.5 46.5t-69.5 33t-60.5 20t-56.5 6.5q-37 0 -72 -8.5t-62 -27t-43.5 -49t-16.5 -74.5q0 -41 19 -72t50.5 -56t72.5 -45.5t85 -40.5q50 -23 101.5 -47.5t99.5 -54t90 -64.5t73.5 -79t49.5 -98t18 -120q0 -116 -48 -203t-127.5 -145t-183 -87.5
t-213.5 -29.5q-126 0 -232.5 35.5t-213.5 102.5l138 227q27 -18 64 -39.5t78.5 -39.5t83.5 -30.5t80 -12.5q44 0 87 11t76.5 35.5t54 63t20.5 94.5q0 54 -24.5 94.5t-64 72t-89.5 57t-101 49.5q-72 34 -141.5 70.5t-125 82.5t-89.5 104.5t-34 136.5q0 101 44.5 179.5
t117.5 132t165.5 81t188.5 27.5q117 0 225 -37t219 -111zM727 1595l-296 29l-173 275h230l75 -93l36 -127l34 127l76 93h205z" />
    <glyph glyph-name="scaron" unicode="&#x161;" horiz-adv-x="900" 
d="M690 822q-31 19 -64.5 33.5t-65 24.5t-58.5 15t-43 5q-117 0 -117 -78q0 -26 22 -46t58 -38t82.5 -36t94.5 -40t94.5 -48.5t82.5 -62t58 -81.5t22 -106q0 -104 -36 -176t-99 -118t-148.5 -66.5t-183.5 -20.5q-38 0 -89 9t-103.5 24t-101.5 35.5t-83 44.5l100 190
q36 -18 75.5 -34t77.5 -27.5t73 -18t62 -6.5q28 0 54.5 8t46.5 24.5t32 42t12 61.5t-21.5 62.5t-57 48.5t-81 41t-93 40.5t-93 46.5t-81 58.5t-57 77t-21.5 102.5q0 81 30.5 139t86 94.5t133.5 53.5t172 17q44 0 88.5 -8.5t86.5 -22t78.5 -30.5t63.5 -35zM579 1215l-296 29
l-173 275h230l75 -93l36 -127l34 127l76 93h205z" />
    <glyph glyph-name="Ydieresis" unicode="&#x178;" 
d="M511 1143l107 -370l58 370l182 357h335l-433 -850v-650h-351v650l-429 842l339 33zM224 1900h276v-266h-276v266zM624 1900h276v-266h-276v266z" />
    <glyph glyph-name="florin" unicode="&#x192;" horiz-adv-x="1400" 
d="M1179 1263q-21 12 -36.5 19.5t-28 11t-25.5 5t-30 1.5q-21 0 -40.5 -26t-41 -81.5t-46 -141t-53.5 -205.5h276l-56 -215h-196l-67 94l-193 -810q-17 -71 -38.5 -134t-61.5 -110t-105.5 -74.5t-169.5 -27.5q-50 0 -91 5.5t-76.5 14.5t-67.5 21.5t-64 27.5l127 205
q42 -23 74.5 -31t59.5 -8q15 0 28.5 16.5t24.5 40.5t20 50.5t14 46.5l169 670h-223l57 218h150l55 -69q48 195 90 335t94.5 230t122.5 132.5t175 42.5q51 0 87.5 -5.5t66.5 -15t56.5 -22t58.5 -27.5z" />
    <glyph glyph-name="circumflex" unicode="&#x2c6;" horiz-adv-x="1100" 
d="M814 1220h-215l-70 103l-30 127l-30 -127l-81 -103h-230l173 275l296 29z" />
    <glyph glyph-name="caron" unicode="&#x2c7;" horiz-adv-x="1100" 
d="M627 1215l-296 29l-173 275h230l75 -93l36 -127l34 127l76 93h205z" />
    <glyph glyph-name="breve" unicode="&#x2d8;" horiz-adv-x="1100" 
d="M366 1519q2 -31 15 -55q11 -20 34.5 -37t67.5 -17t68 17t37 37q14 24 19 55h221v-50q0 -23 -19 -59t-60 -71t-107 -60t-159 -25t-158 25t-105 59.5t-58 70.5t-18 59v51h222z" />
    <glyph glyph-name="dotaccent" unicode="&#x2d9;" horiz-adv-x="600" 
d="M120 1500h328v-231h-328v231z" />
    <glyph glyph-name="ring" unicode="&#x2da;" horiz-adv-x="1100" 
d="M500 1682q59 0 110.5 -22.5t90 -61t61 -90.5t22.5 -111t-22 -111.5t-60 -92t-89.5 -62.5t-110.5 -23t-111.5 23t-91.5 62.5t-62 92t-23 111.5t22.5 111t61.5 90.5t91 61t111 22.5zM501 1297q20 0 37.5 8t30.5 21.5t20.5 31.5t7.5 38t-7.5 37.5t-20.5 31t-31 21t-38 7.5
t-38 -7.5t-31 -21t-20.5 -31t-7.5 -37.5t7.5 -38t21 -31.5t31.5 -21.5t38 -8z" />
    <glyph glyph-name="ogonek" unicode="&#x2db;" horiz-adv-x="1100" 
d="M599 0q-7 -6 -22.5 -21.5t-31.5 -36.5t-28 -44.5t-12 -44.5q0 -28 20.5 -40.5t43.5 -12.5q22 0 51.5 10.5t55.5 23.5q32 15 64 35l115 -159q-51 -33 -106 -59q-48 -22 -105.5 -40t-117.5 -18q-57 0 -109 18.5t-92 50t-63.5 74.5t-23.5 93q0 39 15.5 70.5t34.5 54.5
q22 26 49 46h262z" />
    <glyph glyph-name="tilde" unicode="&#x2dc;" horiz-adv-x="1100" 
d="M118 1307q4 40 20 85.5t46 83.5t76 63t109 25q49 0 82.5 -12.5t60.5 -27.5t51.5 -27.5t55.5 -12.5q21 0 35 7t23.5 19t14.5 28t8 34l167 -10q-3 -44 -17 -90.5t-42.5 -84.5t-73.5 -62.5t-112 -24.5q-46 0 -77.5 12.5t-57.5 27.5t-52.5 27.5t-61.5 12.5q-18 0 -30 -7
t-20.5 -18t-13.5 -25.5t-9 -29.5z" />
    <glyph glyph-name="hungarumlaut" unicode="&#x2dd;" horiz-adv-x="1100" 
d="M336 1496l331 22l-282 -401h-229zM699 1496l331 22l-282 -401h-229z" />
    <glyph glyph-name="Alpha" unicode="&#x391;" horiz-adv-x="1300" 
d="M6 0l398 1284l35 210l378 31l479 -1525h-342l-116 427h-392l-113 -427h-327zM642 1361l-53 -371l-84 -344h274l-85 344z" />
    <glyph glyph-name="Beta" unicode="&#x392;" horiz-adv-x="1300" 
d="M471 1130v-230h29q47 0 94.5 13t85.5 40.5t62 70.5t24 104q0 55 -23 90t-59 54t-79.5 26t-84.5 7q-14 0 -32 -1t-33 -3zM120 0v1262l-32 219q43 6 94 11t101.5 9t96.5 6t79 2q120 0 232 -15.5t198.5 -55.5t138.5 -110.5t52 -179.5q0 -54 -15.5 -102t-43 -88.5t-67 -74
t-87.5 -57.5q64 -22 120.5 -53t98.5 -74t66 -98.5t24 -125.5q0 -88 -25 -157.5t-67.5 -122t-100.5 -90t-123.5 -61t-136 -34t-138.5 -10.5h-465zM471 228h57q75 0 133.5 11.5t99 39.5t62 73t21.5 113q0 65 -21 108.5t-58 70t-88 38t-111 11.5h-95v-465z" />
    <glyph glyph-name="Gamma" unicode="&#x393;" horiz-adv-x="1100" 
d="M471 1131v-1131h-342v1269l-19 231h949v-218h-600z" />
    <glyph glyph-name="Deltagreek" unicode="&#x394;" horiz-adv-x="1500" 
d="M1520 0h-1582l621 1494l328 34zM1037 230l143 -52l-106 152l-298 731l-49 204l-47 -204l-300 -731l-109 -152l166 52h600z" />
    <glyph glyph-name="Epsilon" unicode="&#x395;" 
d="M1086 228l-27 -228h-957l17 231v1032l-35 237h965v-228h-594l15 -138v-218h513v-213h-513v-343l-8 -132h624z" />
    <glyph glyph-name="Zeta" unicode="&#x396;" 
d="M1121 228l27 -228h-1118l-34 86l626 1101l178 123l-211 -38h-503l-27 228h1028l41 -59l-633 -1127l-195 -124l214 38h607z" />
    <glyph glyph-name="Eta" unicode="&#x397;" horiz-adv-x="1400" 
d="M904 0v688h-446v-688h-347v1263l-31 231l378 32v-610h446v580l346 31v-1527h-346z" />
    <glyph glyph-name="Theta" unicode="&#x398;" horiz-adv-x="1600" 
d="M540 900h540l-20 -238h-540zM800 21q-167 0 -300 58t-226 160.5t-142.5 243t-49.5 305.5t48 305.5t139.5 243t225.5 160.5t305 58q167 0 300 -58t225.5 -160.5t142 -243t49.5 -305.5t-48 -305.5t-139.5 -243t-225 -160.5t-304.5 -58zM1168 759q0 106 -20 205t-65 175
t-116 122t-173 46q-96 0 -165 -40.5t-113 -108t-64.5 -155.5t-20.5 -182q0 -108 20.5 -207.5t65.5 -176t116 -122.5t172 -46q96 0 164.5 41.5t113 110t65 156.5t20.5 182z" />
    <glyph glyph-name="Iota" unicode="&#x399;" horiz-adv-x="600" 
d="M111 0v1263l-33 231l385 31v-1525h-352z" />
    <glyph glyph-name="Kappa" unicode="&#x39a;" 
d="M121 0v1263l-33 231l384 31v-490l391 465h368l-499 -600l-270 -98l260 -86l530 -716h-380l-400 540v-540h-351z" />
    <glyph glyph-name="Lambda" unicode="&#x39b;" horiz-adv-x="1300" 
d="M-16 1l400 1266l39 233l380 26l496 -1526h-339l-245 801l-94 440l-69 -440l-248 -800h-320z" />
    <glyph glyph-name="Mu" unicode="&#x39c;" horiz-adv-x="1800" 
d="M922 799l328 696l350 31v-1526h-331v551l45 509l-5 1l-164 -480l-217 -458h-183l-199 413l-169 524l-6 -1l51 -561v-498h-322v1263l-30 231l359 30l344 -723l75 -303z" />
    <glyph glyph-name="Nu" unicode="&#x39d;" horiz-adv-x="1500" 
d="M1323 1527v-1527h-316l-418 700l-148 338l-6 -1l38 -346v-691h-342v1263l-33 231l356 30l425 -714l149 -361l6 1l-48 366v677z" />
    <glyph glyph-name="Xi" unicode="&#x39e;" 
d="M149 916h872v-241h-872v241zM54 241h1061v-241h-1061v241zM54 1500h1061v-241h-1061v241z" />
    <glyph glyph-name="Omicron" unicode="&#x39f;" horiz-adv-x="1600" 
d="M780 -17q-167 0 -300 58t-226 160.5t-142.5 243t-49.5 305.5t48 305.5t139.5 243t225.5 160.5t305 58q167 0 300 -58t225.5 -160.5t142 -243t49.5 -305.5t-48 -305.5t-139.5 -243t-225 -160.5t-304.5 -58zM1148 721q0 106 -20 205t-65 175t-116 122t-173 46
q-96 0 -165 -40.5t-113 -108t-64.5 -155.5t-20.5 -182q0 -108 20.5 -207.5t65.5 -176t116 -122.5t172 -46q96 0 164.5 41.5t113 110t65 156.5t20.5 182z" />
    <glyph glyph-name="Rho" unicode="&#x3a1;" 
d="M471 0h-351v1262l-38 216q45 7 101 13.5t113 10.5t109.5 6.5t91.5 2.5q124 0 238 -21.5t201 -71t139 -131t52 -201.5q0 -135 -47 -227t-133.5 -149.5t-207.5 -84.5t-268 -32v-593zM471 1130v-326q77 4 137 19.5t101.5 47t63 82t21.5 125.5q0 61 -23 104t-59.5 70.5
t-81.5 40t-90 12.5q-17 0 -39.5 -1t-45.5 -4z" />
    <glyph glyph-name="Sigma" unicode="&#x3a3;" 
d="M878 699l-379 -399l-130 -100l160 17h606v-217h-1125l23 216l456 474l210 60l-210 60l-456 474l-23 216h1125v-217h-606l-160 17l130 -100l379 -399v-102z" />
    <glyph glyph-name="Tau" unicode="&#x3a4;" 
d="M408 0v1272h-394v228h1135v-228h-390v-1272h-351z" />
    <glyph glyph-name="Upsilon" unicode="&#x3a5;" 
d="M511 1143l107 -370l58 370l182 357h335l-433 -850v-650h-351v650l-429 842l339 33z" />
    <glyph glyph-name="Phi" unicode="&#x3a6;" horiz-adv-x="1400" 
d="M510 204q-97 22 -187.5 66t-160.5 111.5t-112 159.5t-42 209q0 112 39 203t107 159.5t159.5 114.5t196.5 69v197l341 34v-231q97 -20 188 -64.5t161.5 -113t113 -160.5t42.5 -208q0 -113 -39.5 -204t-108 -160t-160.5 -114.5t-197 -67.5v-204h-341v204zM1054 750
q0 61 -17 113.5t-45 94.5t-65 72t-76 46v-653q39 16 75.5 46.5t65 72.5t45.5 94.5t17 113.5zM309 730q0 -61 17 -110.5t45 -87.5t64 -65.5t75 -43.5v653q-39 -16 -75 -49.5t-64 -79t-45 -101t-17 -116.5z" />
    <glyph glyph-name="Chi" unicode="&#x3a7;" horiz-adv-x="1300" 
d="M700 375l-92 217l-58 -192l-240 -400h-344l479 797l-419 695l348 32l195 -326l96 -236l42 192l206 346h346l-436 -725l465 -775h-364z" />
    <glyph glyph-name="Psi" unicode="&#x3a8;" horiz-adv-x="1400" 
d="M853 1527v-865q31 7 58 20.5t46.5 35.5t31 54t11.5 77v651h346v-633q0 -113 -40.5 -192t-108.5 -131t-157 -80.5t-187 -41.5v-421h-342v421q-101 16 -190.5 53.5t-157 98t-107 145t-39.5 195.5v349l-33 231l380 32v-630q0 -49 11.5 -85.5t31.5 -63.5t47 -45t57 -29v820z
" />
    <glyph glyph-name="Omegagreek" unicode="&#x3a9;" horiz-adv-x="1600" 
d="M40 228h294l-138 80q-22 30 -45.5 73.5t-43.5 101.5t-33 130.5t-13 160.5q0 165 48 301.5t139.5 234.5t225.5 152t305 54q167 0 300 -54t225.5 -152t142 -234.5t49.5 -301.5q0 -87 -12.5 -159.5t-32 -130.5t-42 -101t-42.5 -71l-143 -84h292v-228h-672v243q67 29 123 78
t96 113.5t62 142.5t22 167q0 106 -20 203t-65 170.5t-116 117.5t-173 44q-96 0 -165 -38.5t-113 -103.5t-64.5 -150.5t-20.5 -179.5q0 -103 21.5 -192t61.5 -161t95.5 -126t123.5 -87v-241h-672v228z" />
    <glyph glyph-name="alpha" unicode="&#x3b1;" horiz-adv-x="1400" 
d="M817 528q0 68 -15.5 137t-45.5 125t-75 91.5t-103 35.5q-55 0 -98 -31t-72 -80.5t-44.5 -111t-15.5 -123.5q0 -69 15 -138t45 -124.5t74.5 -90.5t102.5 -35q55 0 98 31t73 80t45.5 110.5t15.5 123.5zM903 176l-61 -120q-52 -43 -117 -58t-143 -15q-120 0 -217.5 43.5
t-167 120t-107.5 180.5t-38 226q0 121 36.5 224.5t105 179t166.5 118t222 42.5q74 0 137 -17t123 -49l61 -120l39 124q26 16 59.5 32.5t74.5 34.5l134 -160q-77 -58 -82 -133q-2 -42 -3.5 -110t-1.5 -167q0 -34 1 -74.5t3.5 -81t8 -78.5t14 -67t20.5 -46.5t29 -17.5
q21 0 35.5 5t21.5 11l76 -168q-53 -25 -100 -38.5t-90 -13.5q-60 0 -113 22t-87 47z" />
    <glyph glyph-name="beta" unicode="&#x3b2;" 
d="M602 -17q-35 0 -69 3t-63 7v-520l-336 27v1601q0 106 37 184.5t102 130t155 76.5t195 25q88 0 167 -23.5t139 -69.5t95 -113.5t35 -155.5q0 -45 -9.5 -86t-26 -77t-38.5 -66.5t-47 -54.5l-204 -62l192 -25q38 -17 69.5 -37.5t54.5 -45.5q23 -24 41.5 -48.5t31 -53
t19.5 -62.5t7 -77q0 -47 -9.5 -101t-33 -107t-63 -101.5t-100.5 -86t-145 -59.5t-196 -22zM461 211q24 -12 55 -20t60 -8q54 0 100.5 18t81 52.5t54.5 84.5t20 113q0 121 -55.5 185t-176.5 64l-90 200q30 2 71 12t78.5 36t64 71t26.5 116q0 35 -12 68t-32 58.5t-47.5 40.5
t-58.5 15q-30 0 -55 -11t-44 -32.5t-29.5 -53t-10.5 -73.5v-936z" />
    <glyph glyph-name="gamma" unicode="&#x3b3;" horiz-adv-x="1100" 
d="M-56 1116q57 0 117.5 -4t115 -22.5t99.5 -56.5t70 -106l105 -286l80 -421l79 423l168 452l310 29l-396 -1103v-521h-328v493l-306 841q-11 30 -30 47.5t-38 25.5q-22 10 -46 13v196z" />
    <glyph glyph-name="delta" unicode="&#x3b4;" 
d="M580 183q43 0 80 27t64 74t42.5 110t15.5 134q0 54 -13 112.5t-38 107t-62.5 80t-85.5 31.5q-98 0 -152.5 -85.5t-54.5 -245.5q0 -71 15 -134t42 -110t64.5 -74t82.5 -27zM999 1500l-59 -200h-413q-32 0 -52.5 -10.5t-20.5 -36.5q0 -17 27 -32.5t68.5 -32.5t90 -37
t90.5 -44q95 -54 167.5 -114t122 -129.5t75 -152.5t25.5 -183q0 -72 -19 -140t-54 -128.5t-84 -111.5t-108.5 -87.5t-128 -57t-142.5 -20.5q-80 0 -151 22.5t-130.5 61.5t-106.5 92t-80 115t-50.5 130t-17.5 136q0 66 16 135t53.5 132t99 117t152.5 91h181l-240 93
q-29 15 -56.5 34t-48.5 41.5t-34 48t-13 54.5q0 48 18.5 82.5t49.5 58.5t72 38t86 22t91.5 10.5t88.5 2.5h435z" />
    <glyph glyph-name="epsilon" unicode="&#x3b5;" horiz-adv-x="1000" 
d="M729 665l-29 -199h-269q-23 0 -41.5 -10.5t-31 -29t-19.5 -44t-7 -54.5q0 -28 12.5 -54t34 -46t51.5 -32t66 -12q42 0 85.5 13t78.5 29q41 18 81 42l139 -137q-36 -41 -95 -74q-50 -28 -130.5 -51t-196.5 -23q-51 0 -104.5 9.5t-104 28.5t-94.5 47.5t-77.5 67t-52.5 87
t-19 106.5q0 72 30 130t82 103q-53 45 -82.5 101.5t-29.5 128.5q0 59 19 106t52.5 83t77.5 61.5t94.5 42t104 24.5t104.5 8q61 0 121.5 -12t109.5 -26q57 -17 110 -37l-72 -148q-36 6 -75 11q-33 5 -74 8.5t-82 3.5q-39 0 -69.5 -13t-51.5 -33t-32 -45.5t-11 -50.5
q0 -23 8 -43t22 -35t31.5 -23.5t37.5 -8.5h298z" />
    <glyph glyph-name="zeta" unicode="&#x3b6;" horiz-adv-x="1000" 
d="M954 1500l-24 -192q-56 -47 -120.5 -104.5t-128.5 -122.5t-123.5 -135t-105 -142t-72.5 -144.5t-27 -140.5q0 -91 45 -162t143 -134q42 -27 86.5 -51.5t87.5 -50.5t81.5 -54.5t67.5 -62.5t46 -75t17 -91t-27.5 -99.5t-74.5 -95t-111.5 -86.5t-137.5 -74l-134 193
q31 16 59 33.5t49 36t33.5 37t12.5 37.5q0 42 -27.5 74.5t-66 58t-80 45t-69.5 35.5q-149 85 -226 196.5t-77 266.5q0 72 17 142.5t45.5 137.5t65 129t76 116.5t78.5 100.5t72 80l216 116l-241 -18h-272l27 200h820z" />
    <glyph glyph-name="eta" unicode="&#x3b7;" 
d="M458 0h-326v1093l326 33v-59q49 20 108 34.5t121 14.5q95 0 160 -26.5t105 -76t57.5 -120t17.5 -157.5v-1236h-326v1261q0 82 -15.5 119t-59.5 37q-17 0 -37.5 -6.5t-42.5 -17t-44.5 -24.5t-43.5 -28v-841z" />
    <glyph glyph-name="theta" unicode="&#x3b8;" 
d="M599 -17q-100 0 -179 32.5t-139 89t-102.5 131.5t-69 160t-39 174.5t-12.5 175.5t12 176.5t39 176t69 162t102.5 133.5t139.5 90t179 33t179 -33t139 -90t102 -133.5t69 -162t39 -176t12 -176.5t-12 -175.5t-39 -174.5t-69 -160t-102 -131t-139 -89t-179 -33zM828 845
q-4 49 -13 101t-22.5 101.5t-32.5 93.5t-43 77t-53.5 52.5t-64.5 19.5t-65 -19.5t-54 -52.5t-43 -77t-32.5 -93.5t-22 -101.5t-12.5 -101h458zM370 651q4 -49 13 -100.5t23 -100.5t32.5 -92.5t42.5 -76.5t53.5 -52t64.5 -19q47 0 84.5 37.5t66 99t47 141t28.5 163.5h-455z
" />
    <glyph glyph-name="iota" unicode="&#x3b9;" horiz-adv-x="700" 
d="M125 874l-21 219l348 32v-725q0 -38 0.5 -74.5t5 -65.5t14.5 -47t28 -18q44 0 75 14l96 -174q-14 -9 -36 -18.5t-48 -17t-54 -12t-53 -4.5q-120 0 -190.5 33t-107 91t-47 136.5t-10.5 169.5v461z" />
    <glyph glyph-name="kappa" unicode="&#x3ba;" horiz-adv-x="1000" 
d="M132 0v890l-22 203l319 32v-351l240 321l322 38l-371 -463l-174 -70l174 -70l407 -530h-309l-289 405v-405h-297z" />
    <glyph glyph-name="lambda" unicode="&#x3bb;" horiz-adv-x="1100" 
d="M797 0l-168 452l-79 423l-80 -421l-157 -454h-313l426 1148q-9 44 -31 83.5t-48 69t-52 47t-43 17.5q-14 0 -25.5 -2.5t-23.5 -8.5t-25.5 -15t-32.5 -22l-119 158q58 50 123.5 78t132.5 28q56 0 104 -21t89 -57t75.5 -84t63.5 -102t53 -112t44 -113l399 -1092h-313z" />
    <glyph glyph-name="mugreek" unicode="&#x3bc;" 
d="M700 27q-32 -19 -70 -31.5t-85 -12.5q-20 0 -49 5t-58.5 13.5t-54.5 18.5t-37 20l65 -206v-334h-311v1593l311 32v-780q0 -38 12.5 -68t33 -51t46 -32t52.5 -11q43 0 79.5 20t65.5 48v842l311 32v-1125h-311v27z" />
    <glyph glyph-name="nu" unicode="&#x3bd;" 
d="M492 650l84 -400l82 400l149 450h321l-382 -1100h-354l-382 1100h320z" />
    <glyph glyph-name="xi" unicode="&#x3be;" horiz-adv-x="1000" 
d="M354 33q-50 28 -103.5 68.5t-97.5 92.5t-73 115t-29 136q0 67 15 118.5t41.5 91.5t61.5 69.5t75 52.5l160 13l-162 65q-26 25 -49.5 52t-41.5 57.5t-28.5 64t-10.5 71.5q0 74 28 141.5t98 118.5q-44 12 -79 30t-59 45t-37 63t-13 83h331q0 -7 2 -20.5t7.5 -27t14 -23.5
t21.5 -10h529l-29 -198h-315q-23 0 -58 -10.5t-68 -33t-57 -59.5t-24 -89q0 -53 18.5 -90.5t45.5 -61.5t57 -35.5t53 -11.5h294l-35 -211q-47 0 -100.5 -3t-106 -12t-101.5 -25.5t-86 -44t-59.5 -67t-22.5 -94.5q0 -29 14.5 -60.5t38.5 -62t56 -58.5t67 -50
q99 -62 172 -105.5t121.5 -84.5t72.5 -86t24 -109q0 -50 -27.5 -99.5t-74.5 -95t-111.5 -86.5t-137.5 -74l-134 193q31 16 59 35t49 39.5t33.5 40.5t12.5 39q0 37 -26.5 66.5t-64.5 54.5t-79.5 45t-71.5 37z" />
    <glyph glyph-name="omicron" unicode="&#x3bf;" 
d="M604 -17q-120 0 -219 43.5t-170.5 120t-111 180.5t-39.5 226q0 121 38 224.5t108.5 179t170 118t223.5 42.5q120 0 219.5 -42.5t171 -118t111 -179t39.5 -224.5q0 -122 -38 -226t-108.5 -180.5t-170.5 -120t-224 -43.5zM819 528q0 68 -12 134t-38.5 118.5t-68 84.5
t-100.5 32q-55 0 -95 -27.5t-65.5 -73.5t-37.5 -104.5t-12 -120.5q0 -69 12 -135t38.5 -117.5t67.5 -83.5t99 -32q55 0 95 27.5t66 73.5t38.5 104t12.5 120z" />
    <glyph glyph-name="pi" unicode="&#x3c0;" horiz-adv-x="1300" 
d="M1009 900v-500q0 -66 4 -108.5t11 -66.5t17.5 -33t24.5 -9q17 0 33 5t30 12q16 8 30 18l107 -175q-16 -8 -38.5 -18.5t-50 -19.5t-60.5 -15.5t-71 -6.5q-120 0 -190.5 33t-106.5 91t-46.5 136.5t-10.5 169.5v487h-264l115 -148v-752h-317v698q0 54 -0.5 92.5t-4.5 63.5
t-11.5 37t-21.5 12q-18 0 -36.5 -5t-33.5 -10q-18 -6 -35 -14l-115 167q16 9 38.5 19t50 19t60.5 15t70 6h955l-27 -200h-106z" />
    <glyph glyph-name="sigma1" unicode="&#x3c2;" horiz-adv-x="1000" 
d="M871 900l-35 -200q-47 0 -100 -3t-104.5 -12t-99 -25.5t-83.5 -44t-57.5 -67t-21.5 -94.5q0 -29 9.5 -58.5t37.5 -63t79.5 -72t135.5 -84.5q59 -33 112.5 -65.5t94 -72t64 -88t23.5 -112.5q0 -50 -27.5 -99.5t-75 -95t-111.5 -86.5t-137 -74l-135 193q31 16 59 33.5
t49 36t33.5 37t12.5 37.5q0 40 -24.5 70.5t-61.5 55.5t-79 46t-76 41q-50 28 -103.5 69t-97.5 93t-73 115t-29 135q0 87 29.5 169t100.5 145.5t190.5 102t298.5 38.5h202z" />
    <glyph glyph-name="sigma" unicode="&#x3c3;" horiz-adv-x="1300" 
d="M40 551q0 112 31.5 214.5t97.5 180.5t168 124.5t243 46.5h634v-200h-173l-142 22l176 -139q13 -34 22 -62.5t14.5 -57.5t7.5 -60t2 -69q0 -116 -31.5 -219.5t-97.5 -181t-168 -122.5t-244 -45q-141 0 -243 47t-168 125.5t-97.5 181.5t-31.5 214zM347 551q0 -65 14 -130.5
t43 -118.5t73 -86t103 -33q60 0 103.5 33t72.5 86t43 118.5t14 130.5q0 66 -14 131.5t-43 117.5t-72.5 84.5t-103.5 32.5q-59 0 -103 -33t-73 -85.5t-43 -118t-14 -129.5z" />
    <glyph glyph-name="tau" unicode="&#x3c4;" horiz-adv-x="1100" 
d="M698 900v-616q0 -34 5.5 -64t19 -62.5t37 -70t60.5 -87.5h-315q-35 25 -57.5 57.5t-35.5 72.5t-18 87t-5 103v580h-335l27 200h928l-27 -200h-284z" />
    <glyph glyph-name="upsilon" unicode="&#x3c5;" 
d="M464 501q0 -62 6.5 -119t24 -101.5t48.5 -71t80 -26.5q50 0 81 27.5t48 72t23 101.5t6 117v219q0 64 -20 106t-48.5 67t-59.5 35.5t-53 10.5v178q109 0 202 -25.5t160.5 -73.5t106 -117t38.5 -156v-246q0 -40 -3 -93.5t-17.5 -111t-44.5 -113t-84 -100t-135.5 -71.5
t-199.5 -27q-114 0 -193.5 26.5t-133.5 69.5t-85 98t-47 112.5t-20 112.5t-4 97v326q0 38 -2.5 60.5t-15.5 22.5q-6 0 -10.5 -4.5t-7 -16.5t-3.5 -33t-1 -54h-230q0 61 15.5 118t48.5 101.5t84 71t122 26.5q72 0 131.5 -21.5t102.5 -60t66.5 -92t23.5 -118.5v-324z" />
    <glyph glyph-name="phi" unicode="&#x3c6;" horiz-adv-x="1500" 
d="M885 1126v-121q88 -19 172.5 -60t150.5 -104t106.5 -147.5t40.5 -190.5q0 -103 -37.5 -187t-102 -148t-149.5 -106t-181 -60v-502h-328v502q-88 17 -172 58t-149.5 104.5t-105.5 148.5t-40 190q0 102 38 185t102 146.5t148.5 106.5t178.5 64v88zM1067 503q0 53 -15.5 98
t-41 80.5t-58 61t-67.5 39.5v-559q35 15 67.5 41t58 61.5t41 80t15.5 97.5zM376 503q0 -53 15 -97.5t40.5 -79.5t58 -61t67.5 -41v557q-35 -15 -68 -40.5t-58 -60.5t-40 -79.5t-15 -97.5z" />
    <glyph glyph-name="chi" unicode="&#x3c7;" horiz-adv-x="1300" 
d="M544 763l104 -285l46 238l207 384h339l-437 -777l311 -549q20 -35 41 -54.5t39 -30.5q21 -12 41 -17v-189q-62 0 -120 5.5t-110 24.5t-97.5 56.5t-81.5 100.5l-135 237l-100 260l-63 -238l-239 -429h-335l479 844l-274 485q-19 33 -40 53t-38 31q-21 12 -41 18v186
q61 0 118.5 -5.5t109 -24t97 -55.5t81.5 -100z" />
    <glyph glyph-name="psi" unicode="&#x3c8;" horiz-adv-x="1500" 
d="M1035 700q0 33 -4 67t-13 64.5t-22.5 55.5t-31.5 39v179q87 -17 160 -56.5t125.5 -95t82 -123.5t29.5 -141v-190q0 -40 -3 -93.5t-16.5 -110.5t-41 -113t-77 -100t-125 -71t-184.5 -27h-28v-484h-328v484h-17q-109 0 -184.5 27t-125 71t-77 100t-41 113t-16.5 110.5
t-3 93.5v315l326 32v-345q0 -60 4.5 -115t17 -97.5t36.5 -68t63 -25.5h17v898l328 33v-931q48 4 77.5 30.5t45 68.5t21 96t5.5 111v199z" />
    <glyph glyph-name="omega" unicode="&#x3c9;" horiz-adv-x="1600" 
d="M917 744v-257q0 -59 8 -114t25 -97t43 -67.5t61 -25.5q39 0 64.5 27t40.5 74.5t20.5 111t5.5 135.5q0 118 -22.5 197t-53.5 125.5t-64 66t-55 19.5v178q109 0 202.5 -45t162.5 -121.5t108 -178t39 -213.5q0 -50 -3 -112t-16.5 -126t-41.5 -124.5t-77.5 -108t-125 -76.5
t-184.5 -29q-100 0 -170.5 22.5t-118.5 60.5q-48 -37 -118.5 -60t-169.5 -23q-109 0 -184.5 29t-125 76.5t-77 108t-41 124.5t-16.5 126t-3 112q0 112 39 213.5t107.5 178t162 121.5t202.5 45v-178q-21 0 -54.5 -19.5t-64.5 -66t-53.5 -125.5t-22.5 -197q0 -72 6 -135.5
t20.5 -111t40 -74.5t64.5 -27q35 0 61 25.5t43 67.5t25 97t8 114v291z" />
    <glyph glyph-name="theta1" unicode="&#x3d1;" horiz-adv-x="1300" 
d="M328 529q16 -72 40.5 -131t57 -101t72 -64.5t84.5 -22.5q46 0 85.5 30.5t69.5 84t50.5 125.5t28.5 156h-327q-88 0 -167 12.5t-139 50t-95.5 105t-35.5 177.5q0 63 15 129t45 129t74.5 119t103 98t132 66.5t160.5 24.5t159.5 -29t131 -79.5t102.5 -118t74.5 -145t48 -161
t22.5 -164.5h194l-27 -214h-170q-8 -78 -31 -154t-59 -145.5t-83.5 -128.5t-103 -102.5t-118.5 -68t-130 -24.5q-101 0 -180.5 31.5t-140.5 87.5t-103.5 132.5t-68.5 165.5zM582 1290q-53 0 -98.5 -32t-80 -82.5t-54 -112t-19.5 -120.5q0 -46 19.5 -71t54 -36.5t80 -13.5
t98.5 -2h237q-7 87 -26 171t-49 150.5t-71 107.5t-91 41z" />
    <glyph glyph-name="Upsilon1" unicode="&#x3d2;" horiz-adv-x="1300" 
d="M1177 1336q-14 -2 -30 -12q-14 -9 -30 -27t-33 -52l-286 -583v-662h-334v662l-287 583q-13 26 -34.5 40.5t-42.5 22.5q-25 9 -52 12v196q64 0 120.5 -5t105.5 -23.5t91 -56t79 -103.5l97 -171l90 -358l91 358l96 171q36 66 78.5 103.5t91 56t105 23.5t121.5 5z" />
    <glyph glyph-name="phi1" unicode="&#x3d5;" horiz-adv-x="1500" 
d="M508 780q-23 -14 -45 -35t-39 -52t-27.5 -74t-10.5 -100q0 -63 14.5 -110t38 -81.5t54.5 -58t64 -39.5v551q0 60 25 98.5t65 60.5t89 30.5t97 8.5q101 0 193.5 -37t163.5 -101.5t113 -152t42 -189.5q0 -106 -36 -189t-98.5 -144.5t-146.5 -101t-179 -57.5v-507h-328v507
q-96 19 -179 59t-145 101t-97.5 144t-35.5 188q0 91 26.5 163t68 126.5t91 92.5t95.5 62zM1067 519q0 63 -18.5 113.5t-44 85.5t-51.5 53.5t-40 18.5q-10 0 -15.5 -4.5t-8.5 -10.5t-4 -13t-1 -12v-521q33 16 66 40t59 58.5t42 81.5t16 110z" />
    <glyph glyph-name="omega1" unicode="&#x3d6;" horiz-adv-x="1600" 
d="M1494 900h-175l130 -100q17 -49 25.5 -119t8.5 -182q0 -40 -4.5 -93.5t-19.5 -111t-44.5 -113t-79 -100t-123 -71.5t-176.5 -27q-50 0 -90.5 11.5t-73.5 29t-59 38t-48 38.5q-21 -18 -47.5 -38.5t-59 -38t-73 -29t-89.5 -11.5q-103 0 -176.5 27t-123 71.5t-79 100
t-45 113t-20 111t-4.5 93.5q0 112 8.5 182t25.5 119l117 100h-177l27 200h1473zM918 724v-237q0 -59 6 -112t19.5 -93t36.5 -63.5t56 -23.5q35 0 58 25.5t37 68t20 97.5t6 115q0 88 -6 155t-16 115.5t-22.5 80t-25.5 48.5h-643q-14 -17 -26 -48.5t-22 -80t-15.5 -115.5
t-5.5 -155q0 -60 6 -115t20 -97.5t37 -68t58 -25.5q33 0 56 23.5t36.5 63.5t19.5 93t6 112v271z" />
    <glyph glyph-name="hyphentwo" unicode="&#x2010;" horiz-adv-x="900" 
d="M124 624h627v-224h-627v224z" />
    <glyph glyph-name="endash" unicode="&#x2013;" horiz-adv-x="1100" 
d="M0 624h1000v-224h-1000v224z" />
    <glyph glyph-name="emdash" unicode="&#x2014;" horiz-adv-x="2100" 
d="M0 624h2000v-224h-2000v224z" />
    <glyph glyph-name="quotationdash" unicode="&#x2015;" horiz-adv-x="1600" 
d="M200 624h1200v-224h-1200v224z" />
    <glyph glyph-name="dblverticalbar" unicode="&#x2016;" horiz-adv-x="800" 
d="M419 1500v-1500h-219v1500h219zM719 1500v-1500h-219v1500h219z" />
    <glyph glyph-name="quoteleft" unicode="&#x2018;" horiz-adv-x="700" 
d="M458 1079q0 -31 -11.5 -59t-32.5 -49t-50 -33.5t-64 -12.5q-34 0 -64 12.5t-52.5 33.5t-35 49t-12.5 59q0 36 7 80.5t27 94t56.5 103t96.5 109.5l102 -58q-11 -18 -22.5 -41t-21 -48.5t-16.5 -51.5t-10 -50q20 -8 38.5 -19t32.5 -27t23 -38.5t9 -53.5z" />
    <glyph glyph-name="quoteright" unicode="&#x2019;" horiz-adv-x="700" 
d="M142 1321q0 31 11.5 59t32.5 49t50 33.5t64 12.5q34 0 64 -12.5t52.5 -33.5t35 -49t12.5 -59q0 -36 -7 -80.5t-27 -94t-56.5 -103t-96.5 -109.5l-102 58q11 18 22.5 41t21 48.5t16.5 51.5t10 50q-20 8 -38.5 19t-32.5 27t-23 38.5t-9 53.5z" />
    <glyph glyph-name="quotesinglbase" unicode="&#x201a;" horiz-adv-x="700" 
d="M142 121q0 31 11.5 59t32.5 49t50 33.5t64 12.5q34 0 64 -12.5t52.5 -33.5t35 -49t12.5 -59q0 -36 -7 -80.5t-27 -94t-56.5 -103t-96.5 -109.5l-102 58q11 18 22.5 41t21 48.5t16.5 51.5t10 50q-20 8 -38.5 19t-32.5 27t-23 38.5t-9 53.5z" />
    <glyph glyph-name="quotedblleft" unicode="&#x201c;" horiz-adv-x="1000" 
d="M458 1079q0 -31 -11.5 -59t-32.5 -49t-50 -33.5t-64 -12.5q-34 0 -64 12.5t-52.5 33.5t-35 49t-12.5 59q0 36 7 80.5t27 94t56.5 103t96.5 109.5l102 -58q-11 -18 -22.5 -41t-21 -48.5t-16.5 -51.5t-10 -50q20 -8 38.5 -19t32.5 -27t23 -38.5t9 -53.5zM858 1079
q0 -31 -11.5 -59t-32.5 -49t-50 -33.5t-64 -12.5q-34 0 -64 12.5t-52.5 33.5t-35 49t-12.5 59q0 36 7 80.5t27 94t56.5 103t96.5 109.5l102 -58q-11 -18 -22.5 -41t-21 -48.5t-16.5 -51.5t-10 -50q20 -8 38.5 -19t32.5 -27t23 -38.5t9 -53.5z" />
    <glyph glyph-name="quotedblright" unicode="&#x201d;" horiz-adv-x="1000" 
d="M142 1321q0 31 11.5 59t32.5 49t50 33.5t64 12.5q34 0 64 -12.5t52.5 -33.5t35 -49t12.5 -59q0 -36 -7 -80.5t-27 -94t-56.5 -103t-96.5 -109.5l-102 58q11 18 22.5 41t21 48.5t16.5 51.5t10 50q-20 8 -38.5 19t-32.5 27t-23 38.5t-9 53.5zM542 1321q0 31 11.5 59
t32.5 49t50 33.5t64 12.5q34 0 64 -12.5t52.5 -33.5t35 -49t12.5 -59q0 -36 -7 -80.5t-27 -94t-56.5 -103t-96.5 -109.5l-102 58q11 18 22.5 41t21 48.5t16.5 51.5t10 50q-20 8 -38.5 19t-32.5 27t-23 38.5t-9 53.5z" />
    <glyph glyph-name="quotedblbase" unicode="&#x201e;" horiz-adv-x="1000" 
d="M142 121q0 31 11.5 59t32.5 49t50 33.5t64 12.5q34 0 64 -12.5t52.5 -33.5t35 -49t12.5 -59q0 -36 -7 -80.5t-27 -94t-56.5 -103t-96.5 -109.5l-102 58q11 18 22.5 41t21 48.5t16.5 51.5t10 50q-20 8 -38.5 19t-32.5 27t-23 38.5t-9 53.5zM542 121q0 31 11.5 59t32.5 49
t50 33.5t64 12.5q34 0 64 -12.5t52.5 -33.5t35 -49t12.5 -59q0 -36 -7 -80.5t-27 -94t-56.5 -103t-96.5 -109.5l-102 58q11 18 22.5 41t21 48.5t16.5 51.5t10 50q-20 8 -38.5 19t-32.5 27t-23 38.5t-9 53.5z" />
    <glyph glyph-name="dagger" unicode="&#x2020;" horiz-adv-x="1100" 
d="M100 1118h256v375l282 34v-409h289l-28 -218h-261v-1300h-282v1300h-256v218z" />
    <glyph glyph-name="daggerdbl" unicode="&#x2021;" horiz-adv-x="1000" 
d="M356 82h-256v218h256v600h-256v218h256v375l282 34v-409h289l-28 -218h-261v-600h289l-28 -218h-261v-482h-282v482z" />
    <glyph glyph-name="bullet" unicode="&#x2022;" 
d="M298 807q0 60 23.5 113.5t63.5 93t93.5 63t113.5 23.5t113.5 -23.5t93.5 -63t63.5 -93t23.5 -113.5t-23 -114.5t-62.5 -95.5t-92.5 -65t-113 -24t-114 24t-94.5 65t-64.5 95.5t-24 114.5z" />
    <glyph glyph-name="triangularbullet" unicode="&#x2023;" horiz-adv-x="900" 
d="M200 956l500 -306l-500 -300v606z" />
    <glyph glyph-name="ellipsis" unicode="&#x2026;" horiz-adv-x="1500" 
d="M66 171q0 38 14.5 71.5t39.5 59t58.5 40t71.5 14.5t72 -14.5t59 -40t39.5 -59t14.5 -71.5q0 -39 -14.5 -73t-39 -59.5t-58 -40.5t-71.5 -15t-72.5 15t-59.5 40.5t-39.5 59.5t-14.5 73zM566 171q0 38 14.5 71.5t39.5 59t58.5 40t71.5 14.5t72 -14.5t59 -40t39.5 -59
t14.5 -71.5q0 -39 -14.5 -73t-39 -59.5t-58 -40.5t-71.5 -15t-72.5 15t-59.5 40.5t-39.5 59.5t-14.5 73zM1066 171q0 38 14.5 71.5t39.5 59t58.5 40t71.5 14.5t72 -14.5t59 -40t39.5 -59t14.5 -71.5q0 -39 -14.5 -73t-39 -59.5t-58 -40.5t-71.5 -15t-72.5 15t-59.5 40.5
t-39.5 59.5t-14.5 73z" />
    <glyph glyph-name="perthousand" unicode="&#x2030;" horiz-adv-x="2600" 
d="M1352 -17q-87 0 -159 30.5t-123.5 84t-80.5 126.5t-29 158q0 84 27.5 156t78.5 124.5t123.5 82t162.5 29.5q86 0 158 -29.5t123 -82.5q40 -40 67 -93q25 53 65 93q51 53 123.5 82.5t162.5 29.5q86 0 158 -29.5t123.5 -82t80.5 -124.5t29 -156q0 -85 -27.5 -158
t-78.5 -126.5t-123.5 -84t-161.5 -30.5q-87 0 -159 30.5t-124 83.5q-40 42 -66 95q-26 -53 -65 -95q-51 -53 -123.5 -83.5t-161.5 -30.5zM401 726q-87 0 -159 30.5t-124 84t-81 126.5t-29 158q0 84 27.5 156t78.5 124.5t124 82t163 29.5q86 0 158 -29.5t123.5 -82
t80.5 -124.5t29 -156q0 -85 -27.5 -158t-78.5 -126.5t-123.5 -84t-161.5 -30.5zM639 0h-333l819 1500h324zM492 1115q0 36 -5 70.5t-16 62t-28.5 44.5t-42.5 17q-23 0 -39.5 -14.5t-27 -38t-15.5 -54t-5 -63.5q0 -36 5 -70.5t16 -61.5t28.5 -43.5t41.5 -16.5q23 0 39.5 14.5
t27.5 38t16 53.5t5 62zM2142 371q0 36 -5 71t-16 62.5t-28.5 44.5t-42.5 17q-23 0 -39 -14.5t-26.5 -38.5t-15.5 -54.5t-5 -62.5q0 -36 5 -71t16 -62t28 -43.5t42 -16.5q22 0 38.5 14.5t27.5 38t16 53.5t5 62zM1443 371q0 36 -5 71t-16 62.5t-28.5 44.5t-42.5 17
q-23 0 -39 -14.5t-26.5 -38.5t-15.5 -54.5t-5 -62.5q0 -36 5 -71t16 -62t28 -43.5t42 -16.5q22 0 38.5 14.5t27.5 38t16 53.5t5 62z" />
    <glyph glyph-name="pertenthousandsign" unicode="&#x2031;" horiz-adv-x="3300" 
d="M1352 -17q-87 0 -159 30.5t-123.5 84t-80.5 126.5t-29 158q0 84 27.5 156t78.5 124.5t123.5 82t162.5 29.5q86 0 158 -29.5t123 -82.5q40 -40 67 -93q25 53 65 93q51 53 123.5 82.5t162.5 29.5q86 0 158 -29.5t123 -82.5q40 -40 67 -93q25 53 65 93q51 53 123.5 82.5
t162.5 29.5q86 0 158 -29.5t123.5 -82t80.5 -124.5t29 -156q0 -85 -27.5 -158t-78.5 -126.5t-123.5 -84t-161.5 -30.5q-87 0 -159 30.5t-124 83.5q-40 42 -66 95q-26 -53 -65 -95q-51 -53 -123.5 -83.5t-161.5 -30.5q-87 0 -159 30.5t-124 83.5q-40 42 -66 95
q-26 -53 -65 -95q-51 -53 -123.5 -83.5t-161.5 -30.5zM401 726q-87 0 -159 30.5t-124 84t-81 126.5t-29 158q0 84 27.5 156t78.5 124.5t124 82t163 29.5q86 0 158 -29.5t123.5 -82t80.5 -124.5t29 -156q0 -85 -27.5 -158t-78.5 -126.5t-123.5 -84t-161.5 -30.5zM639 0h-333
l819 1500h324zM492 1115q0 36 -5 70.5t-16 62t-28.5 44.5t-42.5 17q-23 0 -39.5 -14.5t-27 -38t-15.5 -54t-5 -63.5q0 -36 5 -70.5t16 -61.5t28.5 -43.5t41.5 -16.5q23 0 39.5 14.5t27.5 38t16 53.5t5 62zM2142 371q0 36 -5 71t-16 62.5t-28.5 44.5t-42.5 17
q-23 0 -39 -14.5t-26.5 -38.5t-15.5 -54.5t-5 -62.5q0 -36 5 -71t16 -62t28 -43.5t42 -16.5q22 0 38.5 14.5t27.5 38t16 53.5t5 62zM2841 371q0 36 -5 71t-16 62.5t-28.5 44.5t-42.5 17q-23 0 -39 -14.5t-26.5 -38.5t-15.5 -54.5t-5 -62.5q0 -36 5 -71t16 -62t28 -43.5
t42 -16.5q22 0 38.5 14.5t27.5 38t16 53.5t5 62zM1443 371q0 36 -5 71t-16 62.5t-28.5 44.5t-42.5 17q-23 0 -39 -14.5t-26.5 -38.5t-15.5 -54.5t-5 -62.5q0 -36 5 -71t16 -62t28 -43.5t42 -16.5q22 0 38.5 14.5t27.5 38t16 53.5t5 62z" />
    <glyph glyph-name="minute" unicode="&#x2032;" horiz-adv-x="500" 
d="M380 1230l-161 -345h-153l64 347v291l250 -33v-260z" />
    <glyph glyph-name="second" unicode="&#x2033;" horiz-adv-x="800" 
d="M380 1230l-161 -345h-153l64 347v291l250 -33v-260zM680 1230l-161 -345h-153l64 347v291l250 -33v-260z" />
    <glyph glyph-name="tripleprime" unicode="&#x2034;" horiz-adv-x="1100" 
d="M380 1230l-161 -345h-153l64 347v291l250 -33v-260zM680 1230l-161 -345h-153l64 347v291l250 -33v-260zM980 1230l-161 -345h-153l64 347v291l250 -33v-260z" />
    <glyph glyph-name="primereversed" unicode="&#x2035;" horiz-adv-x="500" 
d="M120 1490l250 33v-291l64 -347h-153l-161 345v260z" />
    <glyph glyph-name="guilsinglleft" unicode="&#x2039;" horiz-adv-x="900" 
d="M684 1106l89 -226l-331 -297l-76 -33l75 -33l334 -293l-94 -237l-555 489v144z" />
    <glyph glyph-name="guilsinglright" unicode="&#x203a;" horiz-adv-x="900" 
d="M776 619v-143l-556 -489l-94 237l334 293l74 33l-75 32l-331 298l89 226z" />
    <glyph glyph-name="asterism" unicode="&#x2042;" horiz-adv-x="1100" 
d="M669 1063l46 -61l-84 -75l-56 73l-27 95l-25 -95l-51 -72l-99 62l61 85l80 45h-105l-75 25l22 109l92 -25l80 -69l-34 97v66l115 12v-81l-39 -96l74 65l72 24l47 -106l-69 -23h-112zM969 463l46 -61l-84 -75l-56 73l-27 95l-25 -95l-51 -72l-99 62l61 85l80 45h-105
l-75 25l22 109l92 -25l80 -69l-34 97v66l115 12v-81l-39 -96l74 65l72 24l47 -106l-69 -23h-112zM370 463l46 -61l-84 -75l-56 73l-27 95l-25 -95l-51 -72l-99 62l61 85l80 45h-105l-75 25l22 109l92 -25l80 -69l-34 97v66l115 12v-81l-39 -96l74 65l72 24l47 -106l-69 -23
h-112z" />
    <glyph glyph-name="twoasterisksvertical" unicode="&#x2051;" horiz-adv-x="700" 
d="M469 1063l46 -61l-84 -75l-56 73l-27 95l-25 -95l-51 -72l-99 62l61 85l80 45h-105l-75 25l22 109l92 -25l80 -69l-34 97v66l115 12v-81l-39 -96l74 65l72 24l47 -106l-69 -23h-112zM469 463l46 -61l-84 -75l-56 73l-27 95l-25 -95l-51 -72l-99 62l61 85l80 45h-105
l-75 25l22 109l92 -25l80 -69l-34 97v66l115 12v-81l-39 -96l74 65l72 24l47 -106l-69 -23h-112z" />
    <glyph glyph-name="zerosuperior" unicode="&#x2070;" horiz-adv-x="800" 
d="M298 712q-47 0 -86 16t-70 44t-54.5 65.5t-39 80t-23 88t-7.5 89.5q0 45 6.5 90.5t20.5 88.5t36.5 80t53.5 64.5t71.5 43.5t91.5 16q46 0 85 -16.5t70 -44.5t54.5 -65.5t39 -80t23.5 -88t8 -88.5q0 -45 -7 -91t-21 -88.5t-36 -79.5t-53.5 -65t-72 -43.5t-90.5 -15.5z
M192 1115q0 -25 1.5 -56t5.5 -62.5t11.5 -61t20 -52.5t29.5 -36.5t41 -13.5q21 0 37 10t27.5 28t19 41.5t11.5 50.5t6 55.5t2 55.5q0 26 -1.5 57t-6 62t-12 60.5t-19.5 52.5t-29.5 36.5t-41.5 13.5q-21 0 -37 -10t-27.5 -28t-18.5 -41.5t-11.5 -50.5t-6 -55.5t-1.5 -55.5z
" />
    <glyph glyph-name="ismallsuperior" unicode="&#x2071;" horiz-adv-x="300" 
d="M221 720h-158v524l158 16v-540zM60 1470h164v-116h-164v116z" />
    <glyph glyph-name="foursuperior" unicode="&#x2074;" horiz-adv-x="600" 
d="M569 870h-89v-150h-160v150h-300v100l247 512l158 -16l-164 -365l-87 -131h146v149l160 -13v-136h100z" />
    <glyph glyph-name="fivesuperior" unicode="&#x2075;" horiz-adv-x="600" 
d="M245 1243q12 3 26.5 4.5t31.5 1.5q58 0 104 -17t77.5 -46.5t48.5 -68.5t17 -84q0 -52 -20.5 -95t-56 -77.5t-82.5 -61t-100 -44t-109.5 -26.5t-110.5 -9v113q35 1 72.5 8t72.5 19t66 29t54 37.5t36.5 45t13.5 51.5q0 20 -7 39.5t-19.5 34.5t-30 24.5t-39.5 9.5
q-19 0 -35.5 -3t-30 -8t-23.5 -10.5t-18 -10.5h-112v371h433v-100h-259v-127z" />
    <glyph glyph-name="sixsuperior" unicode="&#x2076;" horiz-adv-x="600" 
d="M497 1360q-13 7 -28.5 8.5t-27.5 1.5q-34 0 -71 -17t-69.5 -49t-56.5 -78.5t-33 -105.5l82 72q14 3 26.5 4.5t24.5 1.5q48 0 93.5 -12.5t80.5 -38.5t56 -67t21 -98q0 -55 -20 -104.5t-56.5 -86.5t-87.5 -58.5t-112 -21.5q-54 0 -95.5 16t-72 42.5t-51.5 60t-34 69.5
t-18.5 71t-5.5 63q0 59 13 115t37 105.5t59.5 91t80 71t98.5 46t116 16.5q9 0 25.5 -1t42.5 -8zM337 1098q-18 0 -36.5 -7.5t-35 -19t-31 -25.5t-23.5 -26v-24q0 -10 1 -20t2.5 -19.5t4.5 -19.5q6 -24 16 -45t22.5 -37t28.5 -25.5t34 -9.5q27 0 47 14t33.5 37t19.5 51t6 56
q0 25 -6.5 47t-18.5 38t-28.5 25.5t-35.5 9.5z" />
    <glyph glyph-name="sevensuperior" unicode="&#x2077;" horiz-adv-x="600" 
d="M70 1470h503v-81q0 -13 -7 -32t-19.5 -42.5t-28.5 -50.5t-34 -56q-21 -35 -44 -74.5t-43 -80.5t-34.5 -82t-18.5 -78q-2 -18 -3.5 -40t-2 -45.5t-0.5 -46.5v-41h-168v43q0 27 1.5 57t3.5 59t7 50q9 44 26.5 89.5t38.5 88.5t44.5 82.5t44.5 73.5q17 28 31.5 52t20.5 41
h-318v114z" />
    <glyph glyph-name="eightsuperior" unicode="&#x2078;" horiz-adv-x="600" 
d="M308 1478q51 0 95 -13t76 -38t50 -60.5t18 -79.5q0 -26 -10 -47.5t-26 -39.5t-36 -32.5t-40 -25.5q33 -16 62 -37.5t50.5 -47.5t33.5 -57t12 -67q0 -57 -24 -99t-63.5 -69.5t-90.5 -40.5t-104 -13q-52 0 -101 15t-86.5 44t-60 71.5t-22.5 98.5q0 36 10.5 66.5t30 56
t45.5 46t58 35.5q-23 13 -42.5 28.5t-34 32.5t-23 36t-8.5 41q0 51 22 88t56 61t74.5 35.5t78.5 11.5zM431 931q0 27 -11.5 49t-30 39.5t-41 31.5t-45.5 24q-21 -10 -39.5 -24t-32 -32t-21 -40t-7.5 -49q0 -24 9.5 -44.5t25 -35t35 -22.5t38.5 -8q23 0 44.5 7.5t38 21.5
t27 34.5t10.5 47.5zM237 1298q0 -17 7 -31.5t19 -26.5t27 -21.5t31 -16.5q14 7 26 17t20.5 21.5t14 25.5t5.5 30q0 19 -7.5 33t-18 23t-22.5 13.5t-22 4.5q-14 0 -28.5 -5.5t-25.5 -15.5t-18.5 -23t-7.5 -28z" />
    <glyph glyph-name="ninesuperior" unicode="&#x2079;" horiz-adv-x="600" 
d="M144 819q34 1 67.5 12t63.5 28.5t55.5 41t44.5 51t30 57.5t11 61l-89 -76q-8 -1 -16 -1.5t-17 -0.5q-54 0 -101.5 16.5t-82.5 47.5t-55 75t-20 97q0 56 19 102t54 79t85 51t112 18q55 0 97 -15.5t73 -41t51.5 -59t33 -69.5t17.5 -71.5t5 -65.5q0 -88 -28 -166t-81.5 -137
t-131 -96.5t-176.5 -45.5zM299 1100q17 0 35 8t34 21t29 29.5t21 33.5q-1 32 -9 63.5t-22.5 57t-34 41.5t-43.5 16t-43.5 -11t-34.5 -29t-23 -42t-8 -51t6.5 -51.5t19.5 -43.5t31 -30.5t42 -11.5z" />
    <glyph glyph-name="plussuperior" unicode="&#x207a;" horiz-adv-x="600" 
d="M40 1070h180v215h110v-215h180v-100h-180v-200h-110v200h-180v100z" />
    <glyph glyph-name="minussuperior" unicode="&#x207b;" horiz-adv-x="600" 
d="M50 1070h450v-112h-450v112z" />
    <glyph glyph-name="equalsuperior" unicode="&#x207c;" horiz-adv-x="500" 
d="M50 1120h400v-110h-400v110zM50 920h400v-110h-400v110z" />
    <glyph glyph-name="parenleftsuperior" unicode="&#x207d;" horiz-adv-x="400" 
d="M72 1296q0 46 5 86.5t23 70.5t51.5 47t90.5 17q13 0 27 -2t28.5 -5.5t27.5 -8.5t23 -12l-45 -57q-9 0 -21 -2.5t-23 -12.5t-18.5 -30.5t-7.5 -56.5v-636q0 -37 7.5 -57t18 -29.5t22 -11.5t18.5 -2l49 -60q-10 -6 -23 -11.5t-27.5 -9t-28.5 -5t-27 -1.5q-57 0 -90.5 18
t-51.5 49.5t-23 73t-5 88.5v560z" />
    <glyph glyph-name="parenrightsuperior" unicode="&#x207e;" horiz-adv-x="500" 
d="M365 736q0 -47 -5 -88.5t-22.5 -73t-51.5 -49.5t-91 -18q-12 0 -26.5 1.5t-28.5 5t-27 9t-24 11.5l49 60q8 0 19 2t21.5 11.5t18.5 29.5t8 57v636q0 36 -7.5 56.5t-18.5 30.5t-23.5 12.5t-21.5 2.5l-45 57q11 7 24 12t27 8.5t28.5 5.5t26.5 2q57 0 91 -17t51.5 -47
t22.5 -70.5t5 -86.5v-560z" />
    <glyph glyph-name="nsuperior" unicode="&#x207f;" horiz-adv-x="600" 
d="M228 1283v-95l45 76q16 5 32.5 9.5t34.5 4.5q21 0 41.5 -1t39 -6t35 -14t30.5 -25q16 -17 24.5 -37t12 -40t4.5 -38.5t1 -33.5v-363h-163v378q0 21 -4 34.5t-10.5 22t-15.5 12t-20 3.5q-9 0 -19.5 -3t-22 -8.5t-23.5 -13.5t-22 -17v-408h-163v546z" />
    <glyph glyph-name="zeroinferior" unicode="&#x2080;" horiz-adv-x="600" 
d="M299 -508q-47 0 -86 16t-70 44t-54.5 65.5t-39 80t-23 88t-7.5 89.5q0 45 6.5 90.5t20.5 88.5t36.5 80t53.5 64.5t71.5 43.5t91.5 16q46 0 85 -16.5t70 -44.5t54.5 -65.5t39 -80t23.5 -88t8 -88.5q0 -45 -7 -91t-21 -88.5t-36 -79.5t-53.5 -65t-72 -43.5t-90.5 -15.5z
M193 -105q0 -25 1.5 -56t5.5 -62.5t11.5 -61t20 -52.5t29.5 -36.5t41 -13.5q21 0 37 10t27.5 28t19 41.5t11.5 50.5t6 55.5t2 55.5q0 26 -1.5 57t-6 62t-12 60.5t-19.5 52.5t-29.5 36.5t-41.5 13.5q-21 0 -37 -10t-27.5 -28t-18.5 -41.5t-11.5 -50.5t-6 -55.5t-1.5 -55.5z
" />
    <glyph glyph-name="oneinferior" unicode="&#x2081;" horiz-adv-x="600" 
d="M265 -60l37 181l-114 -135l-42 -37l-77 92l240 221l121 -16v-646h122v-100h-409v100h122v340z" />
    <glyph glyph-name="twoinferior" unicode="&#x2082;" horiz-adv-x="600" 
d="M56 -500v95q23 37 54 77.5t63.5 80t63.5 74.5t54 60q27 29 46 49t30.5 37t17 34.5t5.5 40.5q0 19 -6.5 37t-18 32.5t-27.5 23.5t-37 9q-41 0 -72 -27.5t-55 -74.5l-116 43q14 39 37 69.5t54.5 52.5t71 33.5t88.5 11.5q57 0 101.5 -18.5t75 -49t46.5 -69.5t16 -78
q0 -35 -11 -64.5t-29.5 -57t-42 -54.5t-48.5 -57t-51.5 -61t-51 -59t-44 -51.5t-30.5 -38.5h321v-100h-505z" />
    <glyph glyph-name="threeinferior" unicode="&#x2083;" horiz-adv-x="600" 
d="M131 -31q15 10 35.5 25t43.5 33t47.5 38t46.5 40.5t40.5 41.5t30.5 40l-130 -37h-165l10 100h421v-87q-15 -39 -44 -72t-65 -65l-78 -42q53 0 96 -13.5t73.5 -39t47.5 -62.5t17 -83q0 -49 -20.5 -89.5t-55.5 -72.5t-82.5 -55.5t-101 -38.5t-111 -22.5t-112.5 -7.5v100
q59 2 115 15.5t100 36.5t70.5 56t26.5 73q0 29 -12 49t-33 32t-49 17.5t-59 5.5q-7 0 -21.5 -1t-30 -1.5t-30 -1.5t-21.5 -1v89z" />
    <glyph glyph-name="fourinferior" unicode="&#x2084;" horiz-adv-x="600" 
d="M569 -350h-89v-150h-160v150h-300v100l247 512l158 -16l-164 -365l-87 -131h146v149l160 -13v-136h100z" />
    <glyph glyph-name="fiveinferior" unicode="&#x2085;" horiz-adv-x="600" 
d="M245 23q12 3 26.5 4.5t31.5 1.5q58 0 104 -17t77.5 -46.5t48.5 -68.5t17 -84q0 -52 -20.5 -95t-56 -77.5t-82.5 -61t-100 -44t-109.5 -26.5t-110.5 -9v113q35 1 72.5 8t72.5 19t66 29t54 37.5t36.5 45t13.5 51.5q0 20 -7 39.5t-19.5 34.5t-30 24.5t-39.5 9.5
q-19 0 -35.5 -3t-30 -8t-23.5 -10.5t-18 -10.5h-112v371h433v-100h-259v-127z" />
    <glyph glyph-name="sixinferior" unicode="&#x2086;" horiz-adv-x="600" 
d="M497 140q-13 7 -28.5 8.5t-27.5 1.5q-34 0 -71 -17t-69.5 -49t-56.5 -78.5t-33 -105.5l82 72q14 3 26.5 4.5t24.5 1.5q48 0 93.5 -12.5t80.5 -38.5t56 -67t21 -98q0 -55 -20 -104.5t-56.5 -86.5t-87.5 -58.5t-112 -21.5q-54 0 -95.5 16t-72 42.5t-51.5 60t-34 69.5
t-18.5 71t-5.5 63q0 59 13 115t37 105.5t59.5 91t80 71t98.5 46t116 16.5q9 0 25.5 -1t42.5 -8zM337 -122q-18 0 -36.5 -7.5t-35 -19t-31 -25.5t-23.5 -26v-23q0 -11 1 -21t2.5 -19.5t4.5 -19.5q6 -24 16 -45t22.5 -37t28.5 -25.5t34 -9.5q27 0 47 14t33.5 37t19.5 51t6 56
q0 25 -6.5 47t-18.5 38t-28.5 25.5t-35.5 9.5z" />
    <glyph glyph-name="seveninferior" unicode="&#x2087;" horiz-adv-x="600" 
d="M70 250h503v-81q0 -13 -7 -32t-19.5 -42.5t-28.5 -50.5t-34 -56q-21 -35 -44 -74.5t-43 -80.5t-34.5 -82t-18.5 -78q-2 -18 -3.5 -40t-2 -45.5t-0.5 -45.5v-42h-168v43q0 27 1.5 57t3.5 59t7 50q9 44 26.5 89.5t38.5 88.5t44.5 82.5t44.5 73.5q17 28 31.5 52t20.5 41
h-318v114z" />
    <glyph glyph-name="heightinferior" unicode="&#x2088;" horiz-adv-x="600" 
d="M308 258q51 0 95 -13t76 -38t50 -60.5t18 -79.5q0 -26 -10 -47.5t-26 -39.5t-36 -32.5t-40 -25.5q33 -16 62 -37.5t50.5 -47.5t33.5 -57t12 -67q0 -57 -24 -99t-63.5 -69.5t-90.5 -40.5t-104 -13q-52 0 -101 15t-86.5 44t-60 71.5t-22.5 98.5q0 36 10.5 66.5t30 56
t45.5 46t58 35.5q-23 13 -42.5 28.5t-34 32.5t-23 36t-8.5 41q0 51 22 88t56 61t74.5 35.5t78.5 11.5zM431 -289q0 27 -11.5 49t-30 39.5t-41 31.5t-45.5 24q-21 -10 -39.5 -24t-32 -32t-21 -40t-7.5 -49q0 -24 9.5 -44.5t25 -35t35 -22.5t38.5 -8q23 0 44.5 7.5t38 21.5
t27 34.5t10.5 47.5zM237 78q0 -17 7 -31.5t19 -26.5t27 -21.5t31 -16.5q14 7 26 17t20.5 21.5t14 25.5t5.5 30q0 19 -7.5 33t-18 23t-22.5 13.5t-22 4.5q-14 0 -28.5 -5.5t-25.5 -15.5t-18.5 -23t-7.5 -28z" />
    <glyph glyph-name="nineinferior" unicode="&#x2089;" horiz-adv-x="600" 
d="M144 -401q34 1 67.5 12t63.5 28.5t55.5 41t44.5 51t30 57.5t11 61l-89 -76q-8 -1 -16 -1.5t-17 -0.5q-54 0 -101.5 16.5t-82.5 47.5t-55 75t-20 97q0 56 19 102t54 79t85 51t112 18q55 0 97 -15.5t73 -41t51.5 -59t33 -69.5t17.5 -71.5t5 -65.5q0 -88 -28 -166
t-81.5 -137t-131 -96.5t-176.5 -45.5zM299 -120q17 0 35 8t34 21t29 29.5t21 33.5q-1 32 -9 63.5t-22.5 57t-34 41.5t-43.5 16t-43.5 -11t-34.5 -29t-23 -42t-8 -51t6.5 -51.5t19.5 -43.5t31 -30.5t42 -11.5z" />
    <glyph glyph-name="plusinferior" unicode="&#x208a;" horiz-adv-x="600" 
d="M40 -150h180v215h110v-215h180v-100h-180v-200h-110v200h-180v100z" />
    <glyph glyph-name="minusinferior" unicode="&#x208b;" horiz-adv-x="600" 
d="M50 -150h450v-112h-450v112z" />
    <glyph glyph-name="equalinferior" unicode="&#x208c;" horiz-adv-x="600" 
d="M50 -100h400v-110h-400v110zM50 -300h400v-110h-400v110z" />
    <glyph glyph-name="parenleftinferior" unicode="&#x208d;" horiz-adv-x="400" 
d="M72 79q0 46 5 86.5t23 70.5t51.5 47t90.5 17q13 0 27 -2t28.5 -5.5t27.5 -8.5t23 -12l-45 -57q-9 0 -21 -2.5t-23 -12.5t-18.5 -30.5t-7.5 -56.5v-636q0 -37 7.5 -57t18 -29.5t22 -11.5t18.5 -2l49 -60q-10 -6 -23 -11.5t-27.5 -9t-28.5 -5t-27 -1.5q-57 0 -90.5 18
t-51.5 49.5t-23 73t-5 88.5v560z" />
    <glyph glyph-name="parenrightinferior" unicode="&#x208e;" horiz-adv-x="400" 
d="M365 -481q0 -47 -5 -88.5t-22.5 -73t-51.5 -49.5t-91 -18q-12 0 -26.5 1.5t-28.5 5t-27 9t-24 11.5l49 60q8 0 19 2t21.5 11.5t18.5 29.5t8 57v636q0 36 -7.5 56.5t-18.5 30.5t-23.5 12.5t-21.5 2.5l-45 57q11 7 24 12t27 8.5t28.5 5.5t26.5 2q57 0 91 -17t51.5 -47
t22.5 -70.5t5 -86.5v-560z" />
    <glyph glyph-name="Euro" unicode="&#x20ac;" horiz-adv-x="1400" 
d="M521 492q15 -54 42 -103t64 -86.5t83 -59.5t100 -22q34 0 67 2.5t69.5 11t79.5 26t97 47.5l119 -175q-101 -81 -213.5 -115.5t-242.5 -34.5q-118 0 -220.5 38.5t-183.5 106.5t-137 161t-81 202h-136v209h96q-1 17 -2 32t-1 33q0 11 0.5 26t1.5 26h-95v208h126
q28 106 82 196t135 156t190 103t246 37q129 0 236.5 -39.5t180.5 -104.5l-101 -183q-33 25 -71 42.5t-77.5 28t-78.5 15t-73 4.5q-75 0 -132.5 -26t-99 -71.5t-67.5 -108.5t-39 -137l125 88h480l-113 -208h-505v-50q0 -18 2 -32l-48 -107l133 72h360l-113 -208h-285z" />
    <glyph glyph-name="indianrupee" unicode="&#x20b9;" 
d="M150 1500h955l-113 -208h-88l-144 48l91 -89q10 -20 12 -44t2 -38h241l-114 -210h-92l-113 31l60 -65q-22 -59 -62.5 -109.5t-93 -89.5t-114 -64.5t-125.5 -34.5l148 -44l437 -583h-368l-427 573q-8 10 -20 10h-92v219h170q47 0 85 12.5t68 33.5t51.5 49.5t35.5 61.5
h-448l58 210h396q-6 16 -16 37.5t-28.5 40.5t-48 32t-73.5 13h-288z" />
    <glyph glyph-name="centigrade" unicode="&#x2103;" horiz-adv-x="1800" 
d="M1744 133q-101 -81 -213.5 -115.5t-242.5 -34.5q-155 0 -278 62.5t-209 169.5t-131.5 250t-45.5 304q0 151 41 287t125.5 238.5t213.5 162.5t305 60q129 0 246.5 -44.5t205.5 -128.5l-148 -174q-33 22 -69 42t-73.5 35t-74.5 24t-71 9q-95 0 -161.5 -40.5t-108.5 -110
t-61.5 -162t-19.5 -195.5q0 -61 8.5 -125.5t26 -126t45 -115.5t65 -95t85.5 -65t108 -24q34 0 67 5.5t69.5 18t79.5 33t97 50.5zM300 1517q61 0 115 -21t94.5 -58t63.5 -86t23 -105t-23 -105t-63.5 -85.5t-94.5 -58t-115 -21.5q-62 0 -115.5 21.5t-94 58t-63.5 85.5t-23 105
t23 105t63.5 86t94 58t115.5 21zM300 1145q23 0 43.5 8t35.5 22t24 32.5t9 39.5t-9 39.5t-24 32.5t-35.5 22t-43.5 8t-43.5 -8t-35.5 -22t-24 -32.5t-9 -39.5t9 -39.5t24 -32.5t35.5 -22t43.5 -8z" />
    <glyph glyph-name="fahrenheit" unicode="&#x2109;" horiz-adv-x="1700" 
d="M1070 0h-351v1263l-35 237h1002l-27 -228h-604l15 -138v-218h513v-213h-513v-703zM300 1517q61 0 115 -21t94.5 -58t63.5 -86t23 -105t-23 -105t-63.5 -85.5t-94.5 -58t-115 -21.5q-62 0 -115.5 21.5t-94 58t-63.5 85.5t-23 105t23 105t63.5 86t94 58t115.5 21zM300 1145
q23 0 43.5 8t35.5 22t24 32.5t9 39.5t-9 39.5t-24 32.5t-35.5 22t-43.5 8t-43.5 -8t-35.5 -22t-24 -32.5t-9 -39.5t9 -39.5t24 -32.5t35.5 -22t43.5 -8z" />
    <glyph glyph-name="Ifraktur" unicode="&#x2111;" horiz-adv-x="1100" 
d="M247 1400h710l-26 -184q-39 -23 -77 -57.5t-68 -74.5t-48.5 -81t-18.5 -77q0 -44 20.5 -92.5t52 -101t67.5 -109t67.5 -117t52 -124.5t20.5 -131q0 -74 -34 -125t-85 -83t-110 -46t-109 -14q-51 0 -102.5 12t-97 30t-83 38.5t-61.5 38.5l-18 98l-150 -134l-119 90
l229 197q39 -37 94 -71t113.5 -60.5t114 -42t96.5 -15.5q22 0 42 5t35.5 15.5t25 27t9.5 40.5q0 37 -21.5 85.5t-53.5 104t-70 115.5t-70 119.5t-53.5 116.5t-21.5 107q0 26 11.5 63t38 79t69.5 87t105 87h-424q-23 -23 -31 -51t-8 -58q0 -17 4.5 -35t9.5 -32q6 -17 15 -33
l-106 -60q-59 83 -59 174q0 130 123 279z" />
    <glyph glyph-name="lsquare" unicode="&#x2113;" horiz-adv-x="900" 
d="M100 540h100v460q0 112 15.5 207t54.5 164t104.5 107.5t165.5 38.5q56 0 104 -23t82.5 -73t54 -129.5t19.5 -191.5q0 -75 -1.5 -156t-9.5 -159t-26.5 -147.5t-51.5 -122.5t-84.5 -84t-126.5 -31h-100v-17q0 -55 5 -99.5t21 -76.5q17 -33 45 -52q32 -21 66 -25
q19 -2 30 -3t15 -1q25 0 57.5 8t51.5 19l83 -123q-21 -10 -45 -18.5t-53 -15t-65 -10t-81 -3.5q-96 0 -159.5 30.5t-101.5 84.5t-53.5 127t-15.5 158v17h-100v140zM450 540h50q29 0 49.5 19t34 51.5t21 76t11 93.5t4 103t0.5 104q0 73 -1.5 142.5t-10.5 123t-27.5 86
t-52.5 32.5q-21 0 -43.5 -16.5t-41.5 -55.5t-31 -102.5t-12 -157.5v-599z" />
    <glyph glyph-name="weierstrass" unicode="&#x2118;" horiz-adv-x="1666" 
d="M338 -358q25 0 45 18t33.5 46t21 63t7.5 70q0 36 -5.5 80.5t-14.5 89t-20.5 86t-23.5 73.5v86q-32 -54 -60 -114t-48.5 -123t-32.5 -127t-12 -126q0 -59 29.5 -90.5t80.5 -31.5zM719 1031q-62 -12 -124 -44.5t-112 -84t-81.5 -122.5t-31.5 -160q0 -42 11 -92v-122
q71 111 153.5 217.5t177 189.5t201.5 133.5t229 50.5q76 0 138 -21.5t105.5 -66.5t67 -114t23.5 -165q0 -143 -37.5 -262t-105.5 -204.5t-164.5 -133t-214.5 -47.5q-46 0 -92 16t-82.5 47t-59.5 75t-23 100q0 75 20.5 132t52.5 99.5t71 71.5t76.5 47t69 27t47.5 12l30 -140
q-25 -11 -65 -31t-78.5 -53t-66.5 -80.5t-28 -111.5q0 -25 9.5 -44t26 -32t37.5 -20t45 -7q66 0 118 26t91 69.5t66 99.5t43.5 116.5t24 120.5t7.5 110q0 43 -8 84t-28 72.5t-54 51t-86 19.5q-74 0 -142.5 -23.5t-131 -62.5t-119.5 -91t-107.5 -108t-93.5 -113.5t-79 -108.5
q30 -65 58 -128t49.5 -125.5t34 -125.5t12.5 -128q0 -61 -14 -125t-47 -116t-88 -85.5t-137 -33.5q-59 0 -99.5 20.5t-66 54.5t-36.5 79t-11 94q0 83 18.5 161t48.5 149.5t68 135.5t77 119q-15 34 -31 72.5t-29 78.5t-21.5 79.5t-8.5 75.5q0 78 21.5 146.5t58 125.5
t84 101.5t100.5 75.5t108 47t105 16z" />
    <glyph glyph-name="Rfraktur" unicode="&#x211c;" horiz-adv-x="1600" 
d="M750 588l80 72l124 29q31 7 58 31t50 57.5t41 74t30.5 81t19 78t6.5 65.5q0 32 -7.5 60.5t-16.5 49.5q-11 25 -24 46q-86 0 -146 -12.5t-100 -33.5t-63 -48.5t-34.5 -58.5t-14.5 -63.5t-3 -62.5v-365zM1191 1400q39 -26 73 -62t59 -78.5t39.5 -88t14.5 -88.5
q0 -28 -6 -68.5t-17 -86t-26.5 -92.5t-34 -88t-40 -72.5t-45.5 -46.5q37 -38 47 -81t10 -101v-157q0 -17 2.5 -35t8.5 -34.5t15 -30t22 -22.5l153 53l53 -96l-250 -142q-36 9 -76 23t-74.5 38t-57 61.5t-22.5 94.5v171q0 41 -0.5 68.5t-3.5 47.5t-10 36t-19 33l-256 -63
v-193q0 -55 -12.5 -111.5t-42 -102t-77.5 -74.5t-119 -29q-34 0 -66.5 11.5t-58.5 25.5q-30 16 -57 37l-21 100l-147 -131l-119 90l230 197l197 -144q23 12 36.5 28.5t21 34.5t10 36t2.5 32v653q0 27 9 61.5t34.5 70.5t72.5 70t124 61h-467q-23 -20 -31.5 -47t-8.5 -57
q0 -20 4.5 -38.5t9.5 -33.5q6 -18 15 -33l-106 -60q-36 47 -47.5 90t-11.5 93q0 37 10 73.5t27 71t39.5 66.5t46.5 59h944z" />
    <glyph glyph-name="trademark" unicode="&#x2122;" horiz-adv-x="1700" 
d="M398 900v500h-190v100h581v-100h-190v-500h-201zM1299 900v390l-50 -170l-80 -170h-40l-80 170l-50 170v-390h-180v600h220l70 -120l40 -150l40 150l70 120h220v-600h-180z" />
    <glyph glyph-name="Ohm" unicode="&#x2126;" horiz-adv-x="1600" 
d="M40 228h294l-138 80q-22 30 -45.5 73.5t-43.5 101.5t-33 130.5t-13 160.5q0 165 48 301.5t139.5 234.5t225.5 152t305 54q167 0 300 -54t225.5 -152t142 -234.5t49.5 -301.5q0 -87 -12.5 -159.5t-32 -130.5t-42 -101t-42.5 -71l-143 -84h292v-228h-672v243q67 29 123 78
t96 113.5t62 142.5t22 167q0 106 -20 203t-65 170.5t-116 117.5t-173 44q-96 0 -165 -38.5t-113 -103.5t-64.5 -150.5t-20.5 -179.5q0 -103 21.5 -192t61.5 -161t95.5 -126t123.5 -87v-241h-672v228z" />
    <glyph glyph-name="angstrom" unicode="&#x212b;" horiz-adv-x="1300" 
d="M642 1926q59 0 110.5 -22.5t90 -61t61 -90.5t22.5 -111t-22 -111.5t-60 -91.5l452 -1438h-342l-116 427h-392l-113 -427h-327l398 1284l27 163q-32 36 -52 82q-23 53 -23 112t22.5 111t61.5 90.5t91 61t111 22.5zM505 646h274l-85 344l-51 362h-3l-51 -362zM643 1541
q20 0 37.5 8t30.5 21.5t20.5 31.5t7.5 38t-7.5 37.5t-20.5 31t-31 21t-38 7.5t-38 -7.5t-31 -21t-20.5 -31t-7.5 -37.5t7.5 -38t21 -31.5t31.5 -21.5t38 -8z" />
    <glyph glyph-name="scriptsmallo" unicode="&#x2134;" horiz-adv-x="1100" 
d="M367 -17q-70 0 -124 22t-90.5 61.5t-55.5 95t-19 122.5q0 74 18 147.5t52 140t82.5 124t109.5 99.5t133 66t153 24q69 0 123.5 -21t92 -60t57 -93.5t19.5 -120.5q0 -74 -18.5 -147.5t-52.5 -140.5t-83 -125.5t-110.5 -101.5t-133.5 -67.5t-153 -24.5zM748 558
q0 39 -7.5 73.5t-25.5 60t-47.5 40t-74.5 14.5q-54 0 -100.5 -19t-85 -51.5t-68.5 -76t-50.5 -92t-31.5 -99.5t-11 -98q0 -40 7.5 -74t25.5 -59t48 -39.5t74 -14.5q81 0 145 39t109 101.5t69 140t24 154.5z" />
    <glyph glyph-name="aleph" unicode="&#x2135;" 
d="M687 1100q4 -56 26.5 -90t54.5 -58t68 -43t66.5 -44t50.5 -62t20 -96q0 -63 -28 -139h-86q0 39 -7.5 67.5t-20 51t-30 40t-38.5 32.5q-12 -42 -33 -73.5t-53 -63.5q97 -57 158.5 -117.5t96 -119.5t47.5 -114t13 -103q0 -55 -11 -101t-20 -67h-105q0 64 -20.5 114.5
t-56.5 93.5t-85 81t-106 78.5t-120 86.5t-126 104v108q-29 -31 -46.5 -52t-27 -36.5t-12.5 -27t-3 -21.5q0 -39 19 -74t48 -68.5t62 -66t62 -67t48 -71.5t19 -79q0 -50 -31 -103h-382l40 140h175l-153 88q-26 39 -44 86.5t-18 106.5q0 36 9 72.5t24.5 71t37.5 66t49 57.5
q-61 62 -89.5 120.5t-28.5 127.5q0 36 7.5 76t22.5 88h89q0 -58 27.5 -110.5t71.5 -100t99 -89.5t111 -79v-97q39 35 63.5 61t37.5 47t17.5 39.5t4.5 39.5v12q-45 35 -65.5 68t-20.5 78q0 51 28 131h94z" />
    <glyph glyph-name="onethirds" unicode="&#x2153;" horiz-adv-x="1500" 
d="M474 0h-185l775 1500h176zM284 1162l37 181l-114 -135l-42 -37l-77 92l240 221l121 -16v-646h122v-100h-409v100h122v340zM959 507q15 10 35.5 25t43.5 33t47.5 38t46.5 40.5t40.5 41.5t30.5 40l-130 -37h-165l10 100h421v-87q-15 -39 -44 -72t-65 -65l-78 -42
q53 0 96 -13.5t73.5 -39t47.5 -62.5t17 -83q0 -49 -20.5 -89.5t-55.5 -72.5t-82.5 -55.5t-101 -38.5t-111 -22.5t-112.5 -7.5v100q59 2 115 15.5t100 36.5t70.5 56t26.5 73q0 29 -12 49t-33 32t-49 17.5t-59 5.5q-7 0 -21.5 -1t-30 -1.5t-30 -1.5t-21.5 -1v89z" />
    <glyph glyph-name="twothirds" unicode="&#x2154;" horiz-adv-x="1500" 
d="M474 0h-185l775 1500h176zM74 722v95q23 37 54 77.5t63.5 80t63.5 74.5t54 60q27 29 46 49t30.5 37t17 34.5t5.5 40.5q0 19 -6.5 37t-18 32.5t-27.5 23.5t-37 9q-41 0 -72 -27.5t-55 -74.5l-116 43q14 39 37 69.5t54.5 52.5t71 33.5t88.5 11.5q57 0 101.5 -18.5t75 -49
t46.5 -69.5t16 -78q0 -35 -11 -64.5t-29.5 -57t-42 -54.5t-48.5 -57t-51.5 -61t-51 -59t-44 -51.5t-30.5 -38.5h321v-100h-505zM959 507q15 10 35.5 25t43.5 33t47.5 38t46.5 40.5t40.5 41.5t30.5 40l-130 -37h-165l10 100h421v-87q-15 -39 -44 -72t-65 -65l-78 -42
q53 0 96 -13.5t73.5 -39t47.5 -62.5t17 -83q0 -49 -20.5 -89.5t-55.5 -72.5t-82.5 -55.5t-101 -38.5t-111 -22.5t-112.5 -7.5v100q59 2 115 15.5t100 36.5t70.5 56t26.5 73q0 29 -12 49t-33 32t-49 17.5t-59 5.5q-7 0 -21.5 -1t-30 -1.5t-30 -1.5t-21.5 -1v89z" />
    <glyph glyph-name="onefifth" unicode="&#x2155;" horiz-adv-x="1500" 
d="M473 0h-185l775 1500h176zM282 1162l37 181l-114 -135l-42 -37l-77 92l240 221l121 -16v-646h122v-100h-409v100h122v340zM1072 561q12 3 26.5 4.5t31.5 1.5q58 0 104 -17t77.5 -46.5t48.5 -68.5t17 -84q0 -52 -20.5 -95t-56 -77.5t-82.5 -61t-100 -44t-109.5 -26.5
t-110.5 -9v113q35 1 72.5 8t72.5 19t66 29t54 37.5t36.5 45t13.5 51.5q0 20 -7 39.5t-19.5 34.5t-30 24.5t-39.5 9.5q-19 0 -35.5 -3t-30 -8t-23.5 -10.5t-18 -10.5h-112v371h433v-100h-259v-127z" />
    <glyph glyph-name="twofifths" unicode="&#x2156;" horiz-adv-x="1500" 
d="M474 0h-185l775 1500h176zM74 722v95q23 37 54 77.5t63.5 80t63.5 74.5t54 60q27 29 46 49t30.5 37t17 34.5t5.5 40.5q0 19 -6.5 37t-18 32.5t-27.5 23.5t-37 9q-41 0 -72 -27.5t-55 -74.5l-116 43q14 39 37 69.5t54.5 52.5t71 33.5t88.5 11.5q57 0 101.5 -18.5t75 -49
t46.5 -69.5t16 -78q0 -35 -11 -64.5t-29.5 -57t-42 -54.5t-48.5 -57t-51.5 -61t-51 -59t-44 -51.5t-30.5 -38.5h321v-100h-505zM1073 561q12 3 26.5 4.5t31.5 1.5q58 0 104 -17t77.5 -46.5t48.5 -68.5t17 -84q0 -52 -20.5 -95t-56 -77.5t-82.5 -61t-100 -44t-109.5 -26.5
t-110.5 -9v113q35 1 72.5 8t72.5 19t66 29t54 37.5t36.5 45t13.5 51.5q0 20 -7 39.5t-19.5 34.5t-30 24.5t-39.5 9.5q-19 0 -35.5 -3t-30 -8t-23.5 -10.5t-18 -10.5h-112v371h433v-100h-259v-127z" />
    <glyph glyph-name="threefifths" unicode="&#x2157;" horiz-adv-x="1500" 
d="M474 0h-185l775 1500h176zM1073 561q12 3 26.5 4.5t31.5 1.5q58 0 104 -17t77.5 -46.5t48.5 -68.5t17 -84q0 -52 -20.5 -95t-56 -77.5t-82.5 -61t-100 -44t-109.5 -26.5t-110.5 -9v113q35 1 72.5 8t72.5 19t66 29t54 37.5t36.5 45t13.5 51.5q0 20 -7 39.5t-19.5 34.5
t-30 24.5t-39.5 9.5q-19 0 -35.5 -3t-30 -8t-23.5 -10.5t-18 -10.5h-112v371h433v-100h-259v-127zM150 1191q15 10 35.5 25t43.5 33t47.5 38t46.5 40.5t40.5 41.5t30.5 40l-130 -37h-165l10 100h421v-87q-15 -39 -44 -72t-65 -65l-78 -42q53 0 96 -13.5t73.5 -39t47.5 -62.5
t17 -83q0 -49 -20.5 -89.5t-55.5 -72.5t-82.5 -55.5t-101 -38.5t-111 -22.5t-112.5 -7.5v100q59 2 115 15.5t100 36.5t70.5 56t26.5 73q0 29 -12 49t-33 32t-49 17.5t-59 5.5q-7 0 -21.5 -1t-30 -1.5t-30 -1.5t-21.5 -1v89z" />
    <glyph glyph-name="fourfifths" unicode="&#x2158;" horiz-adv-x="1500" 
d="M474 0h-185l775 1500h176zM1073 561q12 3 26.5 4.5t31.5 1.5q58 0 104 -17t77.5 -46.5t48.5 -68.5t17 -84q0 -52 -20.5 -95t-56 -77.5t-82.5 -61t-100 -44t-109.5 -26.5t-110.5 -9v113q35 1 72.5 8t72.5 19t66 29t54 37.5t36.5 45t13.5 51.5q0 20 -7 39.5t-19.5 34.5
t-30 24.5t-39.5 9.5q-19 0 -35.5 -3t-30 -8t-23.5 -10.5t-18 -10.5h-112v371h433v-100h-259v-127zM587 872h-89v-150h-160v150h-300v100l247 512l158 -16l-164 -365l-87 -131h146v149l160 -13v-136h100z" />
    <glyph glyph-name="onesixth" unicode="&#x2159;" horiz-adv-x="1500" 
d="M1326 678q-13 7 -28.5 8.5t-27.5 1.5q-34 0 -71 -17t-69.5 -49t-56.5 -78.5t-33 -105.5l82 72q14 3 26.5 4.5t24.5 1.5q48 0 93.5 -12.5t80.5 -38.5t56 -67t21 -98q0 -55 -20 -104.5t-56.5 -86.5t-87.5 -58.5t-112 -21.5q-54 0 -95.5 16t-72 42.5t-51.5 60t-34 69.5
t-18.5 71t-5.5 63q0 59 13 115t37 105.5t59.5 91t80 71t98.5 46t116 16.5q9 0 25.5 -1t42.5 -8zM474 0h-185l775 1500h176zM284 1162l37 181l-114 -135l-42 -37l-77 92l240 221l121 -16v-646h122v-100h-409v100h122v340zM1166 416q-18 0 -36.5 -7.5t-35 -19t-31 -25.5
t-23.5 -26v-24q0 -10 1 -20t2.5 -19.5t4.5 -19.5q6 -24 16 -45t22.5 -37t28.5 -25.5t34 -9.5q27 0 47 14t33.5 37t19.5 51t6 56q0 25 -6.5 47t-18.5 38t-28.5 25.5t-35.5 9.5z" />
    <glyph glyph-name="fivesixths" unicode="&#x215a;" horiz-adv-x="1500" 
d="M1326 678q-13 7 -28.5 8.5t-27.5 1.5q-34 0 -71 -17t-69.5 -49t-56.5 -78.5t-33 -105.5l82 72q14 3 26.5 4.5t24.5 1.5q48 0 93.5 -12.5t80.5 -38.5t56 -67t21 -98q0 -55 -20 -104.5t-56.5 -86.5t-87.5 -58.5t-112 -21.5q-54 0 -95.5 16t-72 42.5t-51.5 60t-34 69.5
t-18.5 71t-5.5 63q0 59 13 115t37 105.5t59.5 91t80 71t98.5 46t116 16.5q9 0 25.5 -1t42.5 -8zM474 0h-185l775 1500h176zM264 1245q12 3 26.5 4.5t31.5 1.5q58 0 104 -17t77.5 -46.5t48.5 -68.5t17 -84q0 -52 -20.5 -95t-56 -77.5t-82.5 -61t-100 -44t-109.5 -26.5
t-110.5 -9v113q35 1 72.5 8t72.5 19t66 29t54 37.5t36.5 45t13.5 51.5q0 20 -7 39.5t-19.5 34.5t-30 24.5t-39.5 9.5q-19 0 -35.5 -3t-30 -8t-23.5 -10.5t-18 -10.5h-112v371h433v-100h-259v-127zM1166 416q-18 0 -36.5 -7.5t-35 -19t-31 -25.5t-23.5 -26v-24q0 -10 1 -20
t2.5 -19.5t4.5 -19.5q6 -24 16 -45t22.5 -37t28.5 -25.5t34 -9.5q27 0 47 14t33.5 37t19.5 51t6 56q0 25 -6.5 47t-18.5 38t-28.5 25.5t-35.5 9.5z" />
    <glyph glyph-name="oneeighth" unicode="&#x215b;" horiz-adv-x="1500" 
d="M474 0h-185l775 1500h176zM284 1162l37 181l-114 -135l-42 -37l-77 92l240 221l121 -16v-646h122v-100h-409v100h122v340zM1137 796q51 0 95 -13t76 -38t50 -60.5t18 -79.5q0 -26 -10 -47.5t-26 -39.5t-36 -32.5t-40 -25.5q33 -16 62 -37.5t50.5 -47.5t33.5 -57t12 -67
q0 -57 -24 -99t-63.5 -69.5t-90.5 -40.5t-104 -13q-52 0 -101 15t-86.5 44t-60 71.5t-22.5 98.5q0 36 10.5 66.5t30 56t45.5 46t58 35.5q-23 13 -42.5 28.5t-34 32.5t-23 36t-8.5 41q0 51 22 88t56 61t74.5 35.5t78.5 11.5zM1260 249q0 27 -11.5 49t-30 39.5t-41 31.5
t-45.5 24q-21 -10 -39.5 -24t-32 -32t-21 -40t-7.5 -49q0 -24 9.5 -44.5t25 -35t35 -22.5t38.5 -8q23 0 44.5 7.5t38 21.5t27 34.5t10.5 47.5zM1066 616q0 -17 7 -31.5t19 -26.5t27 -21.5t31 -16.5q14 7 26 17t20.5 21.5t14 25.5t5.5 30q0 19 -7.5 33t-18 23t-22.5 13.5
t-22 4.5q-14 0 -28.5 -5.5t-25.5 -15.5t-18.5 -23t-7.5 -28z" />
    <glyph glyph-name="threeeighths" unicode="&#x215c;" horiz-adv-x="1500" 
d="M474 0h-185l775 1500h176zM150 1191q15 10 35.5 25t43.5 33t47.5 38t46.5 40.5t40.5 41.5t30.5 40l-130 -37h-165l10 100h421v-87q-15 -39 -44 -72t-65 -65l-78 -42q53 0 96 -13.5t73.5 -39t47.5 -62.5t17 -83q0 -49 -20.5 -89.5t-55.5 -72.5t-82.5 -55.5t-101 -38.5
t-111 -22.5t-112.5 -7.5v100q59 2 115 15.5t100 36.5t70.5 56t26.5 73q0 29 -12 49t-33 32t-49 17.5t-59 5.5q-7 0 -21.5 -1t-30 -1.5t-30 -1.5t-21.5 -1v89zM1137 796q51 0 95 -13t76 -38t50 -60.5t18 -79.5q0 -26 -10 -47.5t-26 -39.5t-36 -32.5t-40 -25.5
q33 -16 62 -37.5t50.5 -47.5t33.5 -57t12 -67q0 -57 -24 -99t-63.5 -69.5t-90.5 -40.5t-104 -13q-52 0 -101 15t-86.5 44t-60 71.5t-22.5 98.5q0 36 10.5 66.5t30 56t45.5 46t58 35.5q-23 13 -42.5 28.5t-34 32.5t-23 36t-8.5 41q0 51 22 88t56 61t74.5 35.5t78.5 11.5z
M1260 249q0 27 -11.5 49t-30 39.5t-41 31.5t-45.5 24q-21 -10 -39.5 -24t-32 -32t-21 -40t-7.5 -49q0 -24 9.5 -44.5t25 -35t35 -22.5t38.5 -8q23 0 44.5 7.5t38 21.5t27 34.5t10.5 47.5zM1066 616q0 -17 7 -31.5t19 -26.5t27 -21.5t31 -16.5q14 7 26 17t20.5 21.5t14 25.5
t5.5 30q0 19 -7.5 33t-18 23t-22.5 13.5t-22 4.5q-14 0 -28.5 -5.5t-25.5 -15.5t-18.5 -23t-7.5 -28z" />
    <glyph glyph-name="fiveeighths" unicode="&#x215d;" horiz-adv-x="1500" 
d="M474 0h-185l775 1500h176zM1137 796q51 0 95 -13t76 -38t50 -60.5t18 -79.5q0 -26 -10 -47.5t-26 -39.5t-36 -32.5t-40 -25.5q33 -16 62 -37.5t50.5 -47.5t33.5 -57t12 -67q0 -57 -24 -99t-63.5 -69.5t-90.5 -40.5t-104 -13q-52 0 -101 15t-86.5 44t-60 71.5t-22.5 98.5
q0 36 10.5 66.5t30 56t45.5 46t58 35.5q-23 13 -42.5 28.5t-34 32.5t-23 36t-8.5 41q0 51 22 88t56 61t74.5 35.5t78.5 11.5zM1260 249q0 27 -11.5 49t-30 39.5t-41 31.5t-45.5 24q-21 -10 -39.5 -24t-32 -32t-21 -40t-7.5 -49q0 -24 9.5 -44.5t25 -35t35 -22.5t38.5 -8
q23 0 44.5 7.5t38 21.5t27 34.5t10.5 47.5zM1066 616q0 -17 7 -31.5t19 -26.5t27 -21.5t31 -16.5q14 7 26 17t20.5 21.5t14 25.5t5.5 30q0 19 -7.5 33t-18 23t-22.5 13.5t-22 4.5q-14 0 -28.5 -5.5t-25.5 -15.5t-18.5 -23t-7.5 -28zM264 1245q12 3 26.5 4.5t31.5 1.5
q58 0 104 -17t77.5 -46.5t48.5 -68.5t17 -84q0 -52 -20.5 -95t-56 -77.5t-82.5 -61t-100 -44t-109.5 -26.5t-110.5 -9v113q35 1 72.5 8t72.5 19t66 29t54 37.5t36.5 45t13.5 51.5q0 20 -7 39.5t-19.5 34.5t-30 24.5t-39.5 9.5q-19 0 -35.5 -3t-30 -8t-23.5 -10.5t-18 -10.5
h-112v371h433v-100h-259v-127z" />
    <glyph glyph-name="seveneighths" unicode="&#x215e;" horiz-adv-x="1500" 
d="M1136 796q51 0 95 -13t76 -38t50 -60.5t18 -79.5q0 -26 -10 -47.5t-26 -39.5t-36 -32.5t-40 -25.5q33 -16 62 -37.5t50.5 -47.5t33.5 -57t12 -67q0 -57 -24 -99t-63.5 -69.5t-90.5 -40.5t-104 -13q-52 0 -101 15t-86.5 44t-60 71.5t-22.5 98.5q0 36 10.5 66.5t30 56
t45.5 46t58 35.5q-23 13 -42.5 28.5t-34 32.5t-23 36t-8.5 41q0 51 22 88t56 61t74.5 35.5t78.5 11.5zM473 0h-185l775 1500h176zM88 1472h503v-81q0 -13 -7 -32t-19.5 -42.5t-28.5 -50.5t-34 -56q-21 -35 -44 -74.5t-43 -80.5t-34.5 -82t-18.5 -78q-2 -18 -3.5 -40
t-2 -45.5t-0.5 -46.5v-41h-168v43q0 27 1.5 57t3.5 59t7 50q9 44 26.5 89.5t38.5 88.5t44.5 82.5t44.5 73.5q17 28 31.5 52t20.5 41h-318v114zM1259 249q0 27 -11.5 49t-30 39.5t-41 31.5t-45.5 24q-21 -10 -39.5 -24t-32 -32t-21 -40t-7.5 -49q0 -24 9.5 -44.5t25 -35
t35 -22.5t38.5 -8q23 0 44.5 7.5t38 21.5t27 34.5t10.5 47.5zM1065 616q0 -17 7 -31.5t19 -26.5t27 -21.5t31 -16.5q14 7 26 17t20.5 21.5t14 25.5t5.5 30q0 19 -7.5 33t-18 23t-22.5 13.5t-22 4.5q-14 0 -28.5 -5.5t-25.5 -15.5t-18.5 -23t-7.5 -28z" />
    <glyph glyph-name="fractionnumeratorone" unicode="&#x215f;" horiz-adv-x="1500" 
d="M474 0h-185l775 1500h176zM282 1162l37 181l-114 -135l-42 -37l-77 92l240 221l121 -16v-646h122v-100h-409v100h122v340z" />
    <glyph glyph-name="Oneroman" unicode="&#x2160;" horiz-adv-x="600" 
d="M101 0v1263l-33 231l385 31v-1525h-352z" />
    <glyph glyph-name="Tworoman" unicode="&#x2161;" 
d="M101 0v1263l-33 231l385 31v-1525h-352zM700 0v1263l-33 231l385 31v-1525h-352z" />
    <glyph glyph-name="Threeroman" unicode="&#x2162;" horiz-adv-x="1800" 
d="M101 0v1263l-33 231l385 31v-1525h-352zM700 0v1263l-33 231l385 31v-1525h-352zM1300 0v1263l-33 231l385 31v-1525h-352z" />
    <glyph glyph-name="Fourroman" unicode="&#x2163;" horiz-adv-x="1800" 
d="M101 0v1263l-33 231l385 31v-1525h-352zM1879 1500l-410 -1296l-29 -229l-390 30l-477 1487l322 34l253 -826l94 -440l69 440l248 800h320z" />
    <glyph glyph-name="Fiveroman" unicode="&#x2164;" horiz-adv-x="1300" 
d="M1290 1500l-410 -1296l-29 -229l-390 30l-477 1487l322 34l253 -826l94 -440l69 440l248 800h320z" />
    <glyph glyph-name="Sixroman" unicode="&#x2165;" horiz-adv-x="1900" 
d="M1290 1500l-410 -1296l-29 -229l-390 30l-477 1487l322 34l253 -826l94 -440l69 440l248 800h320zM1400 0v1263l-33 231l385 31v-1525h-352z" />
    <glyph glyph-name="Sevenroman" unicode="&#x2166;" horiz-adv-x="2300" 
d="M1290 1500l-410 -1296l-29 -229l-390 30l-477 1487l322 34l253 -826l94 -440l69 440l248 800h320zM1400 0v1263l-33 231l385 31v-1525h-352zM1900 0v1263l-33 231l385 31v-1525h-352z" />
    <glyph glyph-name="Eightroman" unicode="&#x2167;" horiz-adv-x="2800" 
d="M1290 1500l-410 -1296l-29 -229l-390 30l-477 1487l322 34l253 -826l94 -440l69 440l248 800h320zM1400 0v1263l-33 231l385 31v-1525h-352zM1900 0v1263l-33 231l385 31v-1525h-352zM2400 0v1263l-33 231l385 31v-1525h-352z" />
    <glyph glyph-name="Nineroman" unicode="&#x2168;" horiz-adv-x="1800" 
d="M101 0v1263l-33 231l385 31v-1525h-352zM1300 375l-92 217l-58 -192l-240 -400h-344l479 797l-419 695l348 32l195 -326l96 -236l42 192l206 346h346l-436 -725l465 -775h-364z" />
    <glyph glyph-name="Tenroman" unicode="&#x2169;" horiz-adv-x="1300" 
d="M700 375l-92 217l-58 -192l-240 -400h-344l479 797l-419 695l348 32l195 -326l96 -236l42 192l206 346h346l-436 -725l465 -775h-364z" />
    <glyph glyph-name="Elevenroman" unicode="&#x216a;" horiz-adv-x="1800" 
d="M700 375l-92 217l-58 -192l-240 -400h-344l479 797l-419 695l348 32l195 -326l96 -236l42 192l206 346h346l-436 -725l465 -775h-364zM1400 0v1263l-33 231l385 31v-1525h-352z" />
    <glyph glyph-name="Twelveroman" unicode="&#x216b;" horiz-adv-x="2300" 
d="M700 375l-92 217l-58 -192l-240 -400h-344l479 797l-419 695l348 32l195 -326l96 -236l42 192l206 346h346l-436 -725l465 -775h-364zM1400 0v1263l-33 231l385 31v-1525h-352zM1900 0v1263l-33 231l385 31v-1525h-352z" />
    <glyph glyph-name="oneroman" unicode="&#x2170;" horiz-adv-x="600" 
d="M400 0h-300v1114l300 33v-1147z" />
    <glyph glyph-name="tworoman" unicode="&#x2171;" horiz-adv-x="1100" 
d="M400 0h-300v1114l300 33v-1147zM900 0h-300v1114l300 33v-1147z" />
    <glyph glyph-name="threeroman" unicode="&#x2172;" horiz-adv-x="1600" 
d="M400 0h-300v1114l300 33v-1147zM900 0h-300v1114l300 33v-1147zM1400 0h-300v1114l300 33v-1147z" />
    <glyph glyph-name="fourroman" unicode="&#x2173;" horiz-adv-x="1600" 
d="M962 700l74 -400l72 400l129 393l317 36l-375 -1153l-317 29l-352 1088l315 32zM400 0h-300v1114l300 33v-1147z" />
    <glyph glyph-name="fiveroman" unicode="&#x2174;" horiz-adv-x="1100" 
d="M462 700l74 -400l72 400l129 393l317 36l-375 -1153l-317 29l-352 1088l315 32z" />
    <glyph glyph-name="sixroman" unicode="&#x2175;" horiz-adv-x="1500" 
d="M462 700l74 -400l72 400l129 393l317 36l-375 -1153l-317 29l-352 1088l315 32zM1400 0h-300v1114l300 33v-1147z" />
    <glyph glyph-name="sevenroman" unicode="&#x2176;" horiz-adv-x="1900" 
d="M462 700l74 -400l72 400l129 393l317 36l-375 -1153l-317 29l-352 1088l315 32zM1400 0h-300v1114l300 33v-1147zM1800 0h-300v1114l300 33v-1147z" />
    <glyph glyph-name="eightroman" unicode="&#x2177;" horiz-adv-x="2300" 
d="M462 700l74 -400l72 400l129 393l317 36l-375 -1153l-317 29l-352 1088l315 32zM1400 0h-300v1114l300 33v-1147zM1800 0h-300v1114l300 33v-1147zM2200 0h-300v1114l300 33v-1147z" />
    <glyph glyph-name="nineroman" unicode="&#x2178;" horiz-adv-x="1700" 
d="M1197 272l-66 202l-68 -202l-168 -272h-339l411 585l-356 508l342 27l141 -220l62 -201l60 201l139 196l356 28l-380 -543l408 -581h-361zM400 0h-300v1114l300 33v-1147z" />
    <glyph glyph-name="tenroman" unicode="&#x2179;" horiz-adv-x="1100" 
d="M597 272l-66 202l-68 -202l-168 -272h-339l411 585l-356 508l342 27l141 -220l62 -201l60 201l139 196l356 28l-380 -543l408 -581h-361z" />
    <glyph glyph-name="elevenroman" unicode="&#x217a;" horiz-adv-x="1600" 
d="M597 272l-66 202l-68 -202l-168 -272h-339l411 585l-356 508l342 27l141 -220l62 -201l60 201l139 196l356 28l-380 -543l408 -581h-361zM1500 0h-300v1114l300 33v-1147z" />
    <glyph glyph-name="twelveroman" unicode="&#x217b;" horiz-adv-x="2000" 
d="M597 272l-66 202l-68 -202l-168 -272h-339l411 585l-356 508l342 27l141 -220l62 -201l60 201l139 196l356 28l-380 -543l408 -581h-361zM1500 0h-300v1114l300 33v-1147zM1900 0h-300v1114l300 33v-1147z" />
    <glyph glyph-name="arrowleft" unicode="&#x2190;" horiz-adv-x="1500" 
d="M547 500l-104 12l57 -75v-237l-301 300l-119 100l120 100l300 300v-235l-57 -75l104 10h853v-200h-853z" />
    <glyph glyph-name="arrowup" unicode="&#x2191;" horiz-adv-x="1000" 
d="M400 1053l12 104l-75 -57h-237l300 301l100 119l100 -120l300 -300h-235l-75 57l10 -104v-1053h-200v1053z" />
    <glyph glyph-name="arrowright" unicode="&#x2192;" horiz-adv-x="1500" 
d="M100 500v200h853l104 -10l-57 75v235l300 -300l120 -100l-119 -100l-301 -300v237l57 75l-104 -12h-853z" />
    <glyph glyph-name="arrowdown" unicode="&#x2193;" horiz-adv-x="1000" 
d="M400 1500h200v-1053l-10 -104l75 57h235l-300 -300l-100 -120l-100 119l-300 301h237l75 -57l-12 104v1053z" />
    <glyph glyph-name="arrowboth" unicode="&#x2194;" horiz-adv-x="1800" 
d="M547 500l-104 12l57 -75v-237l-301 300l-119 100l120 100l300 300v-235l-57 -75l104 10h686l104 -10l-57 75v235l300 -300l120 -100l-119 -100l-301 -300v237l57 75l-104 -12h-686z" />
    <glyph glyph-name="arrowupdn" unicode="&#x2195;" horiz-adv-x="1000" 
d="M600 467l-12 -104l75 57h237l-300 -301l-100 -119l-100 120l-300 300h235l75 -57l-10 104v586l10 104l-75 -57h-235l300 300l100 120l100 -119l300 -301h-237l-75 57l12 -104v-586z" />
    <glyph glyph-name="arrowupleft" unicode="&#x2196;" 
d="M1090 151l-141 -141l-603 603l-67 79l-11 -93l-168 -165v404l-20 182l182 -20h404l-166 -169l-94 -12l81 -65z" />
    <glyph glyph-name="arrowupright" unicode="&#x2197;" 
d="M713 754l81 65l-94 12l-166 169h404l182 20l-20 -182v-404l-168 165l-11 93l-67 -79l-603 -603l-141 141z" />
    <glyph glyph-name="arrowdownright" unicode="&#x2198;" 
d="M110 849l141 141l603 -603l67 -79l11 93l168 165v-404l20 -182l-182 20h-404l166 169l94 12l-81 65z" />
    <glyph glyph-name="arrowdownleft" unicode="&#x2199;" 
d="M487 246l-81 -65l94 -12l166 -169h-404l-182 -20l20 182v404l168 -165l11 -93l67 79l603 603l141 -141z" />
    <glyph glyph-name="leftwardsarrowwithhook" unicode="&#x21a9;" horiz-adv-x="1400" 
d="M547 400l-104 12l57 -75v-237l-301 300l-119 100l120 100l300 300v-235l-57 -75l104 10h453q27 0 50.5 7.5t41.5 21t28 32t10 39.5t-10 39t-28 31.5t-41.5 21.5t-50.5 8v200q56 0 110 -19t96 -56.5t68 -93.5t26 -131t-26 -131.5t-68 -94t-96 -56t-110 -18.5h-453z" />
    <glyph glyph-name="rightwardsarrowwithhook" unicode="&#x21aa;" horiz-adv-x="1400" 
d="M400 400q-56 0 -110 18.5t-96 56t-68 94t-26 131.5t26 131t68 93.5t96 56.5t110 19v-200q-27 0 -50.5 -8t-41.5 -21.5t-28 -31.5t-10 -39t10 -39.5t28 -32t41.5 -21t50.5 -7.5h453l104 -10l-57 75v235l300 -300l120 -100l-119 -100l-301 -300v237l57 75l-104 -12h-453z
" />
    <glyph glyph-name="downwardsarrowwithtiprightwards" unicode="&#x21b3;" horiz-adv-x="1100" 
d="M259 500h294l104 -10l-57 75v235l300 -300l120 -100l-119 -100l-301 -300v237l57 75l-104 -12h-453v1000h159v-800z" />
    <glyph glyph-name="carriagereturn" unicode="&#x21b5;" horiz-adv-x="1100" 
d="M841 1300h159v-1000h-453l-104 12l57 -75v-237l-301 300l-119 100l120 100l300 300v-235l-57 -75l104 10h294v800z" />
    <glyph glyph-name="undo" unicode="&#x21b6;" horiz-adv-x="1600" 
d="M500 369l166 -169h-404l-182 -20l20 182v404l168 -165l11 -93l67 79q78 81 153.5 148t154.5 115t163.5 74.5t182.5 26.5q112 0 204 -26t157 -81t101 -140.5t38 -203.5h-170q0 60 -25.5 106.5t-68.5 79t-101 49t-122 16.5q-71 0 -137 -27.5t-130 -71t-128 -98t-131 -108.5
l-81 -65z" />
    <glyph glyph-name="redo" unicode="&#x21b7;" horiz-adv-x="1600" 
d="M1194 381l-81 65q-67 54 -131 108.5t-128 98t-130 71t-137 27.5q-64 0 -122 -16.5t-101 -49t-68.5 -79t-25.5 -106.5h-170q2 118 38 203.5t101 140.5t157 81t204 26q98 0 182.5 -26.5t163.5 -74.5t154.5 -115t153.5 -148l67 -79l11 93l168 165v-404l20 -182l-182 20h-404
l166 169z" />
    <glyph glyph-name="arrowdblleft" unicode="&#x21d0;" horiz-adv-x="1600" 
d="M207 691l366 366h170l-245 -244l100 -13h902v-116h-752l-350 28l-131 -112l131 -112l350 28h752v-116h-902l-100 -12l245 -245h-170l-366 366l-107 91z" />
    <glyph glyph-name="arrowdblup" unicode="&#x21d1;" 
d="M690 1393l366 -366v-170l-244 245l-13 -100v-1002h-116v852l28 350l-112 131l-112 -131l28 -350v-852h-116v1002l-12 100l-245 -245v170l366 366l91 107z" />
    <glyph glyph-name="arrowdblright" unicode="&#x21d2;" horiz-adv-x="1600" 
d="M1500 600l-107 -91l-366 -366h-170l245 245l-100 12h-902v116h752l350 -28l131 112l-131 112l-350 -28h-752v116h902l100 13l-245 244h170l366 -366z" />
    <glyph glyph-name="arrowdbldown" unicode="&#x21d3;" 
d="M599 0l-91 107l-366 366v170l245 -245l12 100v1002h116v-852l-28 -350l112 -131l112 131l-28 350v852h116v-1002l13 -100l244 245v-170l-366 -366z" />
    <glyph glyph-name="arrowdblleftright" unicode="&#x21d4;" horiz-adv-x="1900" 
d="M1800 600l-107 -91l-366 -366h-170l245 245l-100 12h-704l-100 -12l245 -245h-170l-366 366l-107 91l107 91l366 366h170l-245 -244l100 -13h704l100 13l-245 244h170l366 -366zM748 516h404l350 -28l131 112l-131 112l-350 -28h-404l-350 28l-131 -112l131 -112z" />
    <glyph glyph-name="arrowdblupdown" unicode="&#x21d5;" 
d="M599 0l-91 107l-366 366v170l245 -245l12 100v604l-12 100l-245 -245v170l366 366l91 107l91 -107l366 -366v-170l-244 245l-13 -100v-604l13 -100l244 245v-170l-366 -366zM515 952v-304l-28 -350l112 -131l112 131l-28 350v304l28 350l-112 131l-112 -131z" />
    <glyph glyph-name="arrowdblnorthwest" unicode="&#x21d6;" horiz-adv-x="1300" 
d="M228 1100h518l120 -121h-346l62 -79l637 -638l-82 -82l-531 532l-228 267l-172 14l14 -172l267 -228l532 -531l-82 -82l-638 637l-79 63v-347l-121 120v518l-11 140z" />
    <glyph glyph-name="arrowdblnortheast" unicode="&#x21d7;" horiz-adv-x="1300" 
d="M1211 1111l-11 -140v-518l-121 -120v347l-79 -63l-638 -637l-82 82l532 531l267 228l14 172l-172 -14l-228 -267l-531 -532l-82 82l637 638l62 79h-346l120 121h518z" />
    <glyph glyph-name="arrowdblsoutheast" unicode="&#x21d8;" horiz-adv-x="1300" 
d="M1071 0h-518l-120 121h346l-62 79l-637 638l82 82l531 -532l228 -267l172 -14l-14 172l-267 228l-532 531l82 82l638 -637l79 -63v347l121 -120v-518l11 -140z" />
    <glyph glyph-name="arrowdblsouthwest" unicode="&#x21d9;" horiz-adv-x="1300" 
d="M88 -11l11 140v518l121 120v-347l79 63l638 637l82 -82l-532 -531l-267 -228l-14 -172l172 14l228 267l531 532l82 -82l-637 -638l-62 -79h346l-120 -121h-518z" />
    <glyph glyph-name="pageup" unicode="&#x21de;" horiz-adv-x="1000" 
d="M200 500h200v160h-200v140h200v253l12 104l-75 -57h-237l300 301l100 119l100 -120l300 -300h-235l-75 57l10 -104v-253h200v-140h-200v-160h200v-140h-200v-360h-200v360h-200v140z" />
    <glyph glyph-name="pagedown" unicode="&#x21df;" horiz-adv-x="1000" 
d="M200 1140h200v360h200v-360h200v-140h-200v-160h200v-140h-200v-253l-10 -104l75 57h235l-300 -300l-100 -120l-100 119l-300 301h237l75 -57l-12 104v253h-200v140h200v160h-200v140z" />
    <glyph glyph-name="leftwardsdashedarrow" unicode="&#x21e0;" horiz-adv-x="1600" 
d="M547 500l-104 12l57 -75v-237l-301 300l-119 100l120 100l300 300v-235l-57 -75l104 10h103v-200h-103zM800 700h250v-200h-250v200zM1200 700h250v-200h-250v200z" />
    <glyph glyph-name="upwardsdashedarrow" unicode="&#x21e1;" horiz-adv-x="1000" 
d="M400 1053l12 104l-75 -57h-237l300 301l100 119l100 -120l300 -300h-235l-75 57l10 -104v-103h-200v103zM600 800v-250h-200v250h200zM600 400v-250h-200v250h200z" />
    <glyph glyph-name="rightwardsdashedarrow" unicode="&#x21e2;" horiz-adv-x="1600" 
d="M950 500v200h103l104 -10l-57 75v235l300 -300l120 -100l-119 -100l-301 -300v237l57 75l-104 -12h-103zM800 500h-250v200h250v-200zM400 500h-250v200h250v-200z" />
    <glyph glyph-name="downwardsdashedarrow" unicode="&#x21e3;" horiz-adv-x="1000" 
d="M400 550h200v-103l-10 -104l75 57h235l-300 -300l-100 -120l-100 119l-300 301h237l75 -57l-12 104v103zM400 700v250h200v-250h-200zM400 1100v250h200v-250h-200z" />
    <glyph glyph-name="shift" unicode="&#x21e7;" 
d="M599 1430l91 -107l382 -366v-102h-155l-8 -100v-755h-620v755l-9 100h-154v102l382 366zM399 662v-562h400v562l21 275h112l-333 336l-333 -336h113z" />
    <glyph glyph-name="capslock" unicode="&#x21ea;" 
d="M599 1430l91 -107l382 -366v-102h-155l-8 -100v-355h-620v355l-9 100h-154v102l382 366zM399 662v-162h400v162l21 275h112l-333 336l-333 -336h113zM909 300v-100l11 -200h-642l11 200v100h620zM399 94h400v106h-400v-106z" />
    <glyph glyph-name="universal" unicode="&#x2200;" horiz-adv-x="1400" 
d="M1141 1300h190l-589 -1320l-143 20l-38 160l-489 1140h177l130 -300h631zM640 400l54 -288l54 288l196 450h-500z" />
    <glyph glyph-name="complement" unicode="&#x2201;" 
d="M600 143q151 0 225.5 65.5t74.5 207.5l174 -16q0 -88 -28.5 -164t-87 -132.5t-148 -88.5t-210.5 -32q-100 0 -176 25t-131.5 70t-92.5 107t-59 136.5t-31.5 158t-9.5 170.5t9.5 170.5t31.5 158t59 136.5t92.5 107t131.5 70t176 25q116 0 204.5 -32t148.5 -88.5
t90.5 -132.5t30.5 -164l-174 -15q0 130 -73 201t-227 71q-68 0 -117 -20t-83.5 -55.5t-56 -84t-33.5 -105t-16 -118.5t-4 -124q0 -63 4 -124.5t16 -118t33.5 -105t56 -84t83.5 -55.5t117 -20z" />
    <glyph glyph-name="partialdiff" unicode="&#x2202;" 
d="M882 644q-16 24 -45 46t-65 38.5t-76 26.5t-76 10q-89 0 -153.5 -34t-107 -89.5t-63 -126t-20.5 -142.5q0 -39 12.5 -82t41.5 -79.5t75.5 -60t115.5 -23.5q54 0 101.5 24.5t87 65t70 93.5t52.5 110.5t35 115t15 107.5zM1075 780q0 -81 -14.5 -171.5t-44.5 -179
t-75.5 -169.5t-107 -142.5t-139.5 -98t-173 -36.5q-93 0 -172 28t-136.5 78t-90 119.5t-32.5 152.5q0 133 38 231.5t102 163.5t146 97t171 32q66 0 118 -11t93 -29t73 -42t58 -50q0 136 -21 248.5t-65.5 192t-114.5 123.5t-167 44q-31 0 -57.5 -3t-52 -10t-52.5 -19t-59 -29
l-84 131q28 18 62 33.5t71.5 27t77 18.5t78.5 7q136 0 242 -46.5t179 -138.5t111 -230t38 -322z" />
    <glyph glyph-name="existential" unicode="&#x2203;" horiz-adv-x="1300" 
d="M1014 160l-15 190v300h-752l-18 150h770v150l20 200h-845v150h1017l-22 -200v-900l17 -200h-1012v160h840z" />
    <glyph glyph-name="theredoesnotexist" unicode="&#x2204;" horiz-adv-x="1300" 
d="M420 -200h-155l71 200h-162v160h220l175 490h-322l-18 150h394l125 350h-574v150h628l72 200h146l-71 -200h242l-22 -200v-900l17 -200h-696zM1014 160l-15 190v300h-279l-173 -490h467zM999 800v150l20 200h-123l-123 -350h226z" />
    <glyph glyph-name="emptyset" unicode="&#x2205;" horiz-adv-x="1400" 
d="M473 -200h-155l91 254q-82 46 -144 118q-76 90 -116.5 212t-40.5 266t39.5 266t114.5 211.5t185 139.5t251 50q83 0 156 -19l73 202h146l-89 -253q84 -47 146 -120q77 -89 117.5 -211t40.5 -266t-39.5 -266t-114.5 -211.5t-185 -139.5t-251 -50q-83 0 -154 18zM693 1169
q-108 0 -184 -41t-125 -109.5t-71.5 -156.5t-22.5 -182q0 -106 22.5 -205t71.5 -176q34 -52 81 -89l338 946q-50 13 -110 13zM1106 623q0 105 -22.5 203t-71.5 174q-34 53 -83 92l-335 -949q50 -12 109 -12q106 0 182.5 42t125.5 111t72 157.5t23 181.5z" />
    <glyph glyph-name="gradient" unicode="&#x2207;" horiz-adv-x="1600" 
d="M64 1500h1472l-623 -1500h-227zM391 1340l-123 52l82 -92l416 -1058l35 -167l35 167l416 1058l85 92l-126 -52h-820z" />
    <glyph glyph-name="element" unicode="&#x2208;" horiz-adv-x="1500" 
d="M1420 0h-577q-171 0 -308.5 40.5t-234 122t-148.5 203.5t-52 284t52 284t148.5 203.5t234 122t308.5 40.5h577l-20 -154h-553q-131 0 -236 -29.5t-178.5 -90.5t-112.5 -155q-28 -65 -36 -146h1116v-150h-1116q8 -82 36 -147q39 -94 112.5 -155t178.5 -90.5t236 -29.5h553
z" />
    <glyph glyph-name="notelement" unicode="&#x2209;" horiz-adv-x="1500" 
d="M1420 0h-577q-79 0 -150 8l-73 -208h-155l84 236q-7 2 -15 4q-137 41 -233.5 122.5t-148.5 203.5t-52 284t52 284t148.5 203.5t234 122t308.5 40.5h159l72 200h146l-71 -200h271l-20 -154h-305l-149 -421h454v-150h-507l-147 -418q48 -4 101 -4h553zM611 1116
q-105 -29 -178.5 -90t-112.5 -155q-28 -65 -36 -146h512l151 421h-100q-131 0 -236 -30zM320 428q39 -94 112 -155q71 -59 171 -88l139 390h-458q8 -82 36 -147z" />
    <glyph glyph-name="suchthat" unicode="&#x220b;" horiz-adv-x="1500" 
d="M100 153h553q131 0 236 29.5t178.5 90.5t112.5 155q28 65 36 147h-1116v150h1116q-8 81 -36 146q-39 94 -112.5 155t-178.5 90.5t-236 29.5h-553l-20 154h577q171 0 308.5 -40.5t234 -122t148.5 -203.5t52 -284t-52 -284t-148.5 -203.5t-234 -122t-308.5 -40.5h-577z" />
    <glyph glyph-name="doesnotcontainasmember" unicode="&#x220c;" horiz-adv-x="1500" 
d="M100 153h291l151 422h-442v150h496l150 417q-45 4 -93 4h-553l-20 154h577q74 0 143 -8l74 208h146l-82 -233q14 -4 27 -8q138 -40 234.5 -121.5t148.5 -203.5t52 -284t-52 -284t-148.5 -203.5t-234 -122t-308.5 -40.5h-167l-70 -200h-155l71 200h-256zM653 153
q131 0 236 29.5t178.5 90.5t112.5 155q28 65 36 147h-523l-149 -422h109zM1216 725q-8 81 -36 146q-39 94 -112.5 155t-178.5 90l-4 1l-139 -392h470z" />
    <glyph glyph-name="minus" unicode="&#x2212;" horiz-adv-x="1100" 
d="M100 700h900v-155h-900v155z" />
    <glyph glyph-name="minusplus" unicode="&#x2213;" horiz-adv-x="1100" 
d="M100 1200h900v-140h-900v140zM100 612h373v337h155v-337h372v-124h-372v-338h-155v338h-373v124z" />
    <glyph glyph-name="ringoperator" unicode="&#x2218;" horiz-adv-x="600" 
d="M300 918q61 0 115 -21t94.5 -58t63.5 -86t23 -105t-23 -105t-63.5 -85.5t-94.5 -58t-115 -21.5q-62 0 -115.5 21.5t-94 58t-63.5 85.5t-23 105t23 105t63.5 86t94 58t115.5 21zM300 546q23 0 43.5 8t35.5 22t24 32.5t9 39.5t-9 39.5t-24 32.5t-35.5 22t-43.5 8t-43.5 -8
t-35.5 -22t-24 -32.5t-9 -39.5t9 -39.5t24 -32.5t35.5 -22t43.5 -8z" />
    <glyph glyph-name="radical" unicode="&#x221a;" horiz-adv-x="1600" 
d="M1500 1300l-20 -150h-270l-200 20l-334 -1190l-258 20l-153 550l-77 200l185 20l131 -470l46 -240l46 240l282 1000h622z" />
    <glyph glyph-name="proportional" unicode="&#x221d;" horiz-adv-x="1300" 
d="M477 330q57 0 103 33t81 82t59.5 104.5t39.5 100.5q-23 49 -51.5 103.5t-65.5 100.5t-83 76t-103 30q-47 0 -82.5 -27.5t-59 -71.5t-35 -99.5t-11.5 -111.5t15 -113t42.5 -103t66 -75t84.5 -29zM1234 189q-68 0 -121.5 23t-101.5 68t-94 113t-97 158l4 -95
q-26 -51 -58.5 -100t-75.5 -87.5t-98.5 -62t-125.5 -23.5q-97 0 -166.5 42t-113.5 109t-65 150t-21 166q0 55 8 111t25.5 108t45.5 97t68.5 78.5t94.5 53t124 19.5q67 0 121 -23.5t102 -69t94 -114t97 -158.5l-4 95q26 51 58.5 99.5t75.5 86.5t98 61t126 23l-11 -147
q-57 0 -103 -32.5t-81 -81t-59.5 -103.5t-39.5 -100q22 -49 51 -103t66 -99.5t83 -75t103 -29.5z" />
    <glyph glyph-name="infinity" unicode="&#x221e;" horiz-adv-x="1700" 
d="M477 330q57 0 103 33t81 82t59.5 104.5t39.5 100.5q-23 49 -51.5 103.5t-65.5 100.5t-83 76t-103 30q-47 0 -82.5 -27.5t-59 -71.5t-35 -99.5t-11.5 -111.5t15 -113t42.5 -103t66 -75t84.5 -29zM820 551l4 -95q-26 -51 -58.5 -100t-75.5 -87.5t-98.5 -62t-125.5 -23.5
q-97 0 -166.5 42t-113.5 109t-65 150t-21 166q0 55 8 111t25.5 108t45.5 97t68.5 78.5t94.5 53t124 19.5q67 0 121 -23.5t102 -69t94 -114t97 -158.5l-4 95q26 51 58.5 100t75.5 87.5t98 62t126 23.5q65 0 117 -19.5t93 -53t70.5 -78.5t48.5 -97t28 -108t9 -111
q0 -83 -18 -166t-60.5 -150t-113 -109t-174.5 -42q-68 0 -121.5 23.5t-101.5 69t-94 114t-97 158.5zM1223 973q-57 0 -103 -33t-81 -82t-59.5 -104.5t-39.5 -100.5q22 -49 51 -103.5t66 -100.5t83 -76t103 -30q47 0 82.5 27.5t59 71.5t35 99.5t11.5 111.5t-15 113t-42.5 103
t-66 75t-84.5 29z" />
    <glyph glyph-name="sphericalangle" unicode="&#x2222;" horiz-adv-x="1400" 
d="M100 600l1015 587l122 -91l-272 -157q56 -93 84 -192.5t28 -202.5q0 -101 -27 -201.5t-84 -197.5l242 -140l-108 -86l-1000 564v117zM862 205q46 79 68 164t22 171q0 90 -23 175.5t-68 163.5l-593 -337z" />
    <glyph glyph-name="parallelto" unicode="&#x2225;" horiz-adv-x="1000" 
d="M355 1500v-1500h-155v1500h155zM755 1500v-1500h-155v1500h155z" />
    <glyph glyph-name="logicaland" unicode="&#x2227;" horiz-adv-x="1300" 
d="M779 1320l442 -1320h-164l-336 980l-65 240l-65 -240l-337 -980h-162l429 1300z" />
    <glyph glyph-name="logicalor" unicode="&#x2228;" horiz-adv-x="1300" 
d="M521 0l-429 1300l155 20l344 -1000l65 -240l65 240l336 980l171 20l-442 -1320h-265z" />
    <glyph glyph-name="intersection" unicode="&#x2229;" horiz-adv-x="1500" 
d="M750 1140q-86 0 -154 -24t-120 -65.5t-89.5 -97.5t-61.5 -119t-35 -130t-11 -131v-573h-179v538q0 171 40.5 311.5t122 240.5t203.5 155t284 55t283.5 -55t203 -155t122 -240.5t40.5 -311.5v-538h-179v573q0 64 -11 131t-35 130t-61 119t-89.5 97.5t-120.5 65.5t-153 24z
" />
    <glyph glyph-name="union" unicode="&#x222a;" horiz-adv-x="1500" 
d="M749 143q86 0 154 24t120 65.5t89.5 97.5t61.5 119t35 130t11 131v570l179 20v-555q0 -171 -40.5 -311.5t-122 -240.5t-203.5 -155t-284 -55t-283.5 55t-203 155t-122 240.5t-40.5 311.5v535l179 20v-590q0 -64 11 -131t35 -130t61 -119t89.5 -97.5t120.5 -65.5t153 -24z
" />
    <glyph glyph-name="integral" unicode="&#x222b;" 
d="M500 1117q0 85 15.5 158t53.5 127t101.5 84.5t159.5 30.5q46 0 78.5 -3.5t58 -10t46 -15t41.5 -18.5l-63 -123q-19 11 -51.5 19t-57.5 8h-16q-8 0 -36.5 -4.5t-58 -24.5t-45.5 -52t-21 -76.5t-5 -99.5v-1138q0 -85 -15.5 -158t-53.5 -127t-101.5 -84.5t-159.5 -30.5
q-46 0 -110.5 10t-133.5 37l83 123q19 -11 51.5 -19t57.5 -8q8 0 44.5 4.5t66 24.5t45.5 52t21 76.5t5 99.5v1138z" />
    <glyph glyph-name="contourintegral" unicode="&#x222e;" horiz-adv-x="1100" 
d="M500 1117q0 85 15.5 158t53.5 127t101.5 84.5t159.5 30.5q46 0 78.5 -3.5t58 -10t46 -15t41.5 -18.5l-63 -123q-19 11 -51.5 19t-57.5 8q-24 0 -52.5 -4.5t-58 -24.5t-45.5 -52t-21 -76.5t-5 -99.5v-243q59 -15 109 -46t86.5 -74.5t57 -96.5t20.5 -111
q0 -59 -20.5 -111.5t-57 -96t-86.5 -75t-109 -46.5v-238q0 -85 -15.5 -158t-53.5 -127t-101.5 -84.5t-159.5 -30.5q-46 0 -81.5 3.5t-64.5 10t-53 15t-45 18.5l83 123q19 -11 51.5 -19t57.5 -8q8 0 44.5 4.5t66 24.5t45.5 52t21 76.5t5 99.5v238q-60 15 -110 46.5t-87 74.5
t-57.5 96t-20.5 112t20.5 112t57.5 96.5t87 74.5t110 46v242zM357 546q0 -38 10.5 -72t29 -62.5t45 -51t58.5 -36.5v444q-64 -29 -103.5 -88t-39.5 -134zM841 546q0 37 -10.5 70.5t-29 62.5t-44.5 51.5t-57 36.5v-442q63 29 102 87.5t39 133.5z" />
    <glyph glyph-name="therefore" unicode="&#x2234;" 
d="M66 171q0 38 14.5 71.5t39.5 59t58.5 40t71.5 14.5t72 -14.5t59 -40t39.5 -59t14.5 -71.5q0 -39 -14.5 -73t-39 -59.5t-58 -40.5t-71.5 -15t-72.5 15t-59.5 40.5t-39.5 59.5t-14.5 73zM866 171q0 38 14.5 71.5t39.5 59t58.5 40t71.5 14.5t72 -14.5t59 -40t39.5 -59
t14.5 -71.5q0 -39 -14.5 -73t-39 -59.5t-58 -40.5t-71.5 -15t-72.5 15t-59.5 40.5t-39.5 59.5t-14.5 73zM466 1061q0 38 14.5 71.5t39.5 59t58.5 40t71.5 14.5t72 -14.5t59 -40t39.5 -59t14.5 -71.5q0 -39 -14.5 -73t-39 -59.5t-58 -40.5t-71.5 -15t-72.5 15t-59.5 40.5
t-39.5 59.5t-14.5 73z" />
    <glyph glyph-name="because" unicode="&#x2235;" 
d="M66 1061q0 38 14.5 71.5t39.5 59t58.5 40t71.5 14.5t72 -14.5t59 -40t39.5 -59t14.5 -71.5q0 -39 -14.5 -73t-39 -59.5t-58 -40.5t-71.5 -15t-72.5 15t-59.5 40.5t-39.5 59.5t-14.5 73zM866 1061q0 38 14.5 71.5t39.5 59t58.5 40t71.5 14.5t72 -14.5t59 -40t39.5 -59
t14.5 -71.5q0 -39 -14.5 -73t-39 -59.5t-58 -40.5t-71.5 -15t-72.5 15t-59.5 40.5t-39.5 59.5t-14.5 73zM466 171q0 38 14.5 71.5t39.5 59t58.5 40t71.5 14.5t72 -14.5t59 -40t39.5 -59t14.5 -71.5q0 -39 -14.5 -73t-39 -59.5t-58 -40.5t-71.5 -15t-72.5 15t-59.5 40.5
t-39.5 59.5t-14.5 73z" />
    <glyph glyph-name="similar" unicode="&#x223c;" horiz-adv-x="1000" 
d="M660 400q-35 0 -66 12.5t-59.5 31.5t-55 41t-52 41t-51 31.5t-51.5 12.5q-31 0 -58.5 -7.5t-54.5 -21.5t-54.5 -34.5t-57.5 -46.5v100q20 28 43 53t52 44.5t64.5 31t80.5 11.5q52 0 96.5 -26.5t84.5 -58.5t77.5 -58.5t76.5 -26.5q61 0 113 28.5t112 81.5v-100
q-20 -28 -43 -53t-52 -44.5t-64.5 -31t-80.5 -11.5z" />
    <glyph glyph-name="asymptoticallyequal" unicode="&#x2243;" horiz-adv-x="1000" 
d="M100 400h800v-140h-800v140zM660 500q-35 0 -66 12.5t-59.5 31.5t-55 41t-52 41t-51 31.5t-51.5 12.5q-31 0 -58.5 -7.5t-54.5 -21.5t-54.5 -34.5t-57.5 -46.5v100q20 28 43 53t52 44.5t64.5 31t80.5 11.5q52 0 96.5 -26.5t84.5 -58.5t77.5 -58.5t76.5 -26.5
q61 0 113 28.5t112 81.5v-100q-20 -28 -43 -53t-52 -44.5t-64.5 -31t-80.5 -11.5z" />
    <glyph glyph-name="congruent" unicode="&#x2245;" horiz-adv-x="1000" 
d="M100 600h800v-140h-800v140zM100 300h800v-140h-800v140zM660 700q-35 0 -66 12.5t-59.5 31.5t-55 41t-52 41t-51 31.5t-51.5 12.5q-31 0 -58.5 -7.5t-54.5 -21.5t-54.5 -34.5t-57.5 -46.5v100q20 28 43 53t52 44.5t64.5 31t80.5 11.5q52 0 96.5 -26.5t84.5 -58.5
t77.5 -58.5t76.5 -26.5q61 0 113 28.5t112 81.5v-100q-20 -28 -43 -53t-52 -44.5t-64.5 -31t-80.5 -11.5z" />
    <glyph glyph-name="approxequal" unicode="&#x2248;" horiz-adv-x="1000" 
d="M660 500q-35 0 -66 12.5t-59.5 31.5t-55 41t-52 41t-51 31.5t-51.5 12.5q-31 0 -58.5 -7.5t-54.5 -21.5t-54.5 -34.5t-57.5 -46.5v100q20 28 43 53t52 44.5t64.5 31t80.5 11.5q52 0 96.5 -26.5t84.5 -58.5t77.5 -58.5t76.5 -26.5q61 0 113 28.5t112 81.5v-100
q-20 -28 -43 -53t-52 -44.5t-64.5 -31t-80.5 -11.5zM660 201q-35 0 -66 12.5t-59.5 31.5t-55 41t-52 41t-51 31.5t-51.5 12.5q-31 0 -58.5 -7.5t-54.5 -21.5t-54.5 -34.5t-57.5 -46.5v100q20 28 43 53t52 44.5t64.5 31t80.5 11.5q52 0 96.5 -26.5t84.5 -58.5t77.5 -58.5
t76.5 -26.5q61 0 113 28.5t112 81.5v-100q-20 -28 -43 -53t-52 -44.5t-64.5 -31t-80.5 -11.5z" />
    <glyph glyph-name="estimate" unicode="&#x2259;" horiz-adv-x="1000" 
d="M109 600h800v-140h-800v140zM109 300h800v-140h-800v140zM933 727h-206l-219 188l-209 -187h-217l357 376l125 16z" />
    <glyph glyph-name="notequal" unicode="&#x2260;" horiz-adv-x="1000" 
d="M100 400h280l66 181h-346v219h425l72 200h146l-71 -200h228v-219h-305l-64 -181h369v-219h-446l-63 -181h-155l65 181h-201v219z" />
    <glyph glyph-name="equivalence" unicode="&#x2261;" horiz-adv-x="1000" 
d="M100 600h800v-140h-800v140zM100 300h800v-140h-800v140zM100 900h800v-140h-800v140z" />
    <glyph glyph-name="lessequal" unicode="&#x2264;" horiz-adv-x="1300" 
d="M200 135h900l-20 -135h-880v135zM1137 1172v-215l-667 -284l667 -281v-215l-1007 409v180z" />
    <glyph glyph-name="greaterequal" unicode="&#x2265;" horiz-adv-x="1300" 
d="M198 135h900l-20 -135h-880v135zM1137 766v-180l-1007 -409v215l667 281l-667 284v215z" />
    <glyph glyph-name="propersubset" unicode="&#x2282;" horiz-adv-x="1500" 
d="M1420 0h-577q-171 0 -308.5 40.5t-234 122t-148.5 203.5t-52 284t52 284t148.5 203.5t234 122t308.5 40.5h577l-20 -154h-553q-131 0 -236 -29.5t-178.5 -90.5t-112.5 -155q-28 -65 -28 -221.5t28 -221.5q39 -94 112.5 -155t178.5 -90.5t236 -29.5h553z" />
    <glyph glyph-name="propersuperset" unicode="&#x2283;" horiz-adv-x="1500" 
d="M100 153h553q131 0 236 29.5t178.5 90.5t112.5 155q28 65 28 221.5t-28 221.5q-39 94 -112.5 155t-178.5 90.5t-236 29.5h-553l-20 154h577q171 0 308.5 -40.5t234 -122t148.5 -203.5t52 -284t-52 -284t-148.5 -203.5t-234 -122t-308.5 -40.5h-577z" />
    <glyph glyph-name="reflexsubset" unicode="&#x2286;" horiz-adv-x="1498" 
d="M200 155h1200l20 -154h-1220v154zM1420 300h-577q-171 0 -308.5 40.5t-234 122t-148.5 203.5t-52 234t52 234t148.5 203.5t234 122t308.5 40.5h577l-20 -154h-553q-131 0 -236 -29.5t-178.5 -90.5t-112.5 -155q-28 -65 -28 -171.5t28 -171.5q39 -94 112.5 -155
t178.5 -90.5t236 -29.5h553z" />
    <glyph glyph-name="reflexsuperset" unicode="&#x2287;" horiz-adv-x="1500" 
d="M1300 1h-1220l20 154h1200v-154zM100 453h553q131 0 236 29.5t178.5 90.5t112.5 155q28 65 28 171.5t-28 171.5q-39 94 -112.5 155t-178.5 90.5t-236 29.5h-553l-20 154h577q171 0 308.5 -40.5t234 -122t148.5 -203.5t52 -234t-52 -234t-148.5 -203.5t-234 -122
t-308.5 -40.5h-577z" />
    <glyph glyph-name="circleplus" unicode="&#x2295;" horiz-adv-x="1700" 
d="M82 750q0 106 27.5 204t77.5 183t120 155t155 120t183 77.5t204 27.5t204 -27.5t183 -77.5t155 -120t120 -155t77.5 -183t27.5 -204t-27.5 -204t-77.5 -183t-120 -155t-155 -120t-183 -77.5t-204 -27.5t-204 27.5t-183 77.5t-155 120t-120 155t-77.5 183t-27.5 204z
M235 675q13 -105 59 -198t117.5 -164.5t164.5 -117.5t198 -59v539h-539zM774 1362q-105 -13 -198 -59t-164.5 -117t-117.5 -163.5t-59 -197.5h539v537zM924 136q105 13 197.5 59t163.5 117.5t117 164.5t59 198h-537v-539zM1461 825q-13 105 -59 197.5t-117 163.5t-163.5 117
t-197.5 59v-537h537z" />
    <glyph glyph-name="circleminus" unicode="&#x2296;" horiz-adv-x="1700" 
d="M82 750q0 106 27.5 204t77.5 183t120 155t155 120t183 77.5t204 27.5t204 -27.5t183 -77.5t155 -120t120 -155t77.5 -183t27.5 -204t-27.5 -204t-77.5 -183t-120 -155t-155 -120t-183 -77.5t-204 -27.5t-204 27.5t-183 77.5t-155 120t-120 155t-77.5 183t-27.5 204z
M849 132q118 0 223 42t187 115t135 172t67 214h-1226q9 -77 36.5 -146.5t69 -130t96.5 -109.5t120.5 -84t139 -54t152.5 -19zM849 1367q-79 0 -152.5 -19t-139 -54t-120.5 -84t-96.5 -109t-69 -130t-36.5 -146h1226q-14 114 -67 213t-135 172t-187 115t-223 42z" />
    <glyph glyph-name="circlemultiply" unicode="&#x2297;" horiz-adv-x="1700" 
d="M82 750q0 106 27.5 204t77.5 183t120 155t155 120t183 77.5t204 27.5t204 -27.5t183 -77.5t155 -120t120 -155t77.5 -183t27.5 -204t-27.5 -204t-77.5 -183t-120 -155t-155 -120t-183 -77.5t-204 -27.5t-204 27.5t-183 77.5t-155 120t-120 155t-77.5 183t-27.5 204z
M231 750q0 -109 34.5 -205.5t96.5 -175.5l381 381l-381 380q-62 -79 -96.5 -175.5t-34.5 -204.5zM849 132q108 0 204.5 34.5t175.5 96.5l-380 381l-381 -381q79 -62 175.5 -96.5t205.5 -34.5zM849 1367q-109 0 -205 -34.5t-175 -96.5l380 -380l380 380q-79 62 -175.5 96.5
t-204.5 34.5zM1466 750q0 108 -34.5 204.5t-96.5 175.5l-380 -380l380 -380q62 79 96.5 175t34.5 205z" />
    <glyph glyph-name="circledivide" unicode="&#x2298;" horiz-adv-x="1700" 
d="M82 750q0 106 27.5 204t77.5 183t120 155t155 120t183 77.5t204 27.5t204 -27.5t183 -77.5t155 -120t120 -155t77.5 -183t27.5 -204t-27.5 -204t-77.5 -183t-120 -155t-155 -120t-183 -77.5t-204 -27.5t-204 27.5t-183 77.5t-155 120t-120 155t-77.5 183t-27.5 204z
M231 750q0 -109 34.5 -205.5t96.5 -175.5l867 867q-79 62 -175.5 96.5t-204.5 34.5q-128 0 -240.5 -48.5t-196.5 -132t-132.5 -196t-48.5 -240.5zM1466 750q0 108 -34.5 204.5t-96.5 175.5l-867 -867q79 -62 175.5 -96.5t205.5 -34.5q128 0 240.5 48.5t196 132.5t132 196.5
t48.5 240.5z" />
    <glyph glyph-name="perpendicular" unicode="&#x22a5;" horiz-adv-x="1400" 
d="M799 1300v-1150h500l-20 -150h-1185l20 150h485v1150h200z" />
    <glyph glyph-name="staroperator" unicode="&#x22c6;" horiz-adv-x="1100" 
d="M739 697l109 -337l-231 159l-68 66l-68 -66l-233 -159l108 337l-258 203h330l121 306l119 -306h330z" />
    <glyph glyph-name="verticalellipsis" unicode="&#x22ee;" horiz-adv-x="400" 
d="M66 171q0 38 14.5 71.5t39.5 59t58.5 40t71.5 14.5t72 -14.5t59 -40t39.5 -59t14.5 -71.5q0 -39 -14.5 -73t-39 -59.5t-58 -40.5t-71.5 -15t-72.5 15t-59.5 40.5t-39.5 59.5t-14.5 73zM66 771q0 38 14.5 71.5t39.5 59t58.5 40t71.5 14.5t72 -14.5t59 -40t39.5 -59
t14.5 -71.5q0 -39 -14.5 -73t-39 -59.5t-58 -40.5t-71.5 -15t-72.5 15t-59.5 40.5t-39.5 59.5t-14.5 73zM66 1371q0 38 14.5 71.5t39.5 59t58.5 40t71.5 14.5t72 -14.5t59 -40t39.5 -59t14.5 -71.5q0 -39 -14.5 -73t-39 -59.5t-58 -40.5t-71.5 -15t-72.5 15t-59.5 40.5
t-39.5 59.5t-14.5 73z" />
    <glyph glyph-name="house" unicode="&#x2302;" horiz-adv-x="1600" 
d="M1450 700l-50 100v-800h-1200v800l-49 -100h-51v185l100 43v272h200v-178l379 178l21 16l21 -16l679 -315v-185h-50zM1300 765l-500 235l-500 -235v-665h200v500h300v-500h500v665zM900 300v300h300v-300h-300zM700 100v400h-100v-400h100zM1000 400h100v100h-100v-100z
" />
    <glyph glyph-name="leftceiling" unicode="&#x2308;" horiz-adv-x="800" 
d="M300 0h-200v1500h600v-150h-400v-1350z" />
    <glyph glyph-name="rightceiling" unicode="&#x2309;" horiz-adv-x="800" 
d="M500 1350h-400v150h600v-1500h-200v1350z" />
    <glyph glyph-name="leftfloor" unicode="&#x230a;" horiz-adv-x="800" 
d="M300 150h400v-150h-600v1500h200v-1350z" />
    <glyph glyph-name="rightfloor" unicode="&#x230b;" horiz-adv-x="800" 
d="M500 1500h200v-1500h-600v150h400v1350z" />
    <glyph glyph-name="topleftcorner" unicode="&#x231c;" horiz-adv-x="1000" 
d="M300 750h-200v750h750v-150h-550v-600z" />
    <glyph glyph-name="toprightcorner" unicode="&#x231d;" horiz-adv-x="1000" 
d="M700 1350h-550v150h750v-750h-200v600z" />
    <glyph glyph-name="bottomleftcorner" unicode="&#x231e;" horiz-adv-x="1000" 
d="M300 150h550v-150h-750v750h200v-600z" />
    <glyph glyph-name="bottomrightcorner" unicode="&#x231f;" horiz-adv-x="1000" 
d="M700 750h200v-750h-750v150h550v600z" />
    <glyph glyph-name="blackrightpointingtriangle" unicode="&#x25b6;" horiz-adv-x="1000" 
d="M150 1135l749 -435l-749 -434l25 434z" />
    <glyph glyph-name="whiterightpointingtriangle" unicode="&#x25b7;" horiz-adv-x="1000" 
d="M150 266l25 434l-25 435l749 -435zM239 991l16 -291l-16 -290l501 290z" />
    <glyph glyph-name="blackrightpointingsmall" unicode="&#x25b8;" horiz-adv-x="900" 
d="M198 991l501 -291l-501 -290l17 290z" />
    <glyph glyph-name="whiterightpointingsmall" unicode="&#x25b9;" horiz-adv-x="900" 
d="M198 410l17 290l-17 291l501 -291zM286 847l9 -142v-10l-9 -141l253 146z" />
    <glyph glyph-name="blackdownpointingtriangle" unicode="&#x25bc;" horiz-adv-x="1300" 
d="M100 1100h1100l-550 -900z" />
    <glyph glyph-name="whitedownpointingtriangle" unicode="&#x25bd;" horiz-adv-x="1300" 
d="M650 410l330 570h-660zM100 1100h1100l-550 -900z" />
    <glyph glyph-name="blackdownpointingsmalltriangle" unicode="&#x25be;" horiz-adv-x="900" 
d="M65 1100h770l-385 -630z" />
    <glyph glyph-name="whitedownpointingsmalltriangle" unicode="&#x25bf;" horiz-adv-x="900" 
d="M450 617l231 399h-462zM65 1100h770l-385 -630z" />
    <glyph glyph-name="fisheye" unicode="&#x25c9;" horiz-adv-x="1000" 
d="M500 851q31 0 58 -12t47.5 -32.5t32.5 -47.5t12 -58t-12 -58.5t-32.5 -47.5t-47.5 -32t-58 -12t-58.5 12t-47.5 32t-32 47.5t-12 58.5t12 58t32 47.5t47.5 32.5t58.5 12zM84 701q0 86 32.5 162t89 132.5t132.5 89t162 32.5t162 -32.5t132.5 -89t89 -132.5t32.5 -162
t-32.5 -162t-89 -132.5t-132.5 -89t-162 -32.5t-162 32.5t-132.5 89t-89 132.5t-32.5 162zM200 701q0 -62 23.5 -117t64 -95.5t95.5 -64t117 -23.5t117 23.5t95.5 64t64 95.5t23.5 117t-23.5 117t-64 95.5t-95.5 64t-117 23.5t-117 -23.5t-95.5 -64t-64 -95.5t-23.5 -117z
" />
    <glyph glyph-name="bullseye" unicode="&#x25ce;" horiz-adv-x="1000" 
d="M500 821q-25 0 -46.5 -9.5t-38 -26t-26 -38t-9.5 -46.5t9.5 -46.5t26 -38t38 -26t46.5 -9.5t46.5 9.5t38 26t26 38t9.5 46.5t-9.5 46.5t-26 38t-38 26t-46.5 9.5zM84 701q0 86 32.5 162t89 132.5t132.5 89t162 32.5t162 -32.5t132.5 -89t89 -132.5t32.5 -162t-32.5 -162
t-89 -132.5t-132.5 -89t-162 -32.5t-162 32.5t-132.5 89t-89 132.5t-32.5 162zM200 701q0 -62 23.5 -117t64 -95.5t95.5 -64t117 -23.5t117 23.5t95.5 64t64 95.5t23.5 117t-23.5 117t-64 95.5t-95.5 64t-117 23.5t-117 -23.5t-95.5 -64t-64 -95.5t-23.5 -117zM300 701
q0 41 16 77.5t43 63.5t63.5 43t77.5 16t77.5 -16t63.5 -43t43 -63.5t16 -77.5t-16 -77.5t-43 -63.5t-63.5 -43t-77.5 -16t-77.5 16t-63.5 43t-43 63.5t-16 77.5z" />
    <glyph glyph-name="blackcircle" unicode="&#x25cf;" horiz-adv-x="1000" 
d="M84 701q0 86 32.5 162t89 132.5t132.5 89t162 32.5t162 -32.5t132.5 -89t89 -132.5t32.5 -162t-32.5 -162t-89 -132.5t-132.5 -89t-162 -32.5t-162 32.5t-132.5 89t-89 132.5t-32.5 162z" />
    <glyph glyph-name="circlewithlefthalfblack" unicode="&#x25d0;" horiz-adv-x="1000" 
d="M84 701q0 86 32.5 162t89 132.5t132.5 89t162 32.5t162 -32.5t132.5 -89t89 -132.5t32.5 -162t-32.5 -162t-89 -132.5t-132.5 -89t-162 -32.5t-162 32.5t-132.5 89t-89 132.5t-32.5 162zM800 701q0 62 -23.5 117t-64 95.5t-95.5 64t-117 23.5v-600q62 0 117 23.5t95.5 64
t64 95.5t23.5 117z" />
    <glyph glyph-name="circlewithrighthalfblack" unicode="&#x25d1;" horiz-adv-x="1000" 
d="M84 701q0 86 32.5 162t89 132.5t132.5 89t162 32.5t162 -32.5t132.5 -89t89 -132.5t32.5 -162t-32.5 -162t-89 -132.5t-132.5 -89t-162 -32.5t-162 32.5t-132.5 89t-89 132.5t-32.5 162zM200 701q0 -62 23.5 -117t64 -95.5t95.5 -64t117 -23.5v600q-62 0 -117 -23.5
t-95.5 -64t-64 -95.5t-23.5 -117z" />
    <glyph glyph-name="circlewithlowerhalfblack" unicode="&#x25d2;" horiz-adv-x="1000" 
d="M500 1117q86 0 162 -32.5t132.5 -89t89 -132.5t32.5 -162t-32.5 -162t-89 -132.5t-132.5 -89t-162 -32.5t-162 32.5t-132.5 89t-89 132.5t-32.5 162t32.5 162t89 132.5t132.5 89t162 32.5zM500 1001q-62 0 -117 -23.5t-95.5 -64t-64 -95.5t-23.5 -117h600q0 62 -23.5 117
t-64 95.5t-95.5 64t-117 23.5z" />
    <glyph glyph-name="circlewithupperhalfblack" unicode="&#x25d3;" horiz-adv-x="1000" 
d="M500 285q-86 0 -162 32.5t-132.5 89t-89 132.5t-32.5 162t32.5 162t89 132.5t132.5 89t162 32.5t162 -32.5t132.5 -89t89 -132.5t32.5 -162t-32.5 -162t-89 -132.5t-132.5 -89t-162 -32.5zM500 401q62 0 117 23.5t95.5 64t64 95.5t23.5 117h-600q0 -62 23.5 -117
t64 -95.5t95.5 -64t117 -23.5z" />
    <glyph glyph-name="day" unicode="&#x2600;" horiz-adv-x="1800" 
d="M1428 456q-5 -28 -12 -55t-17 -54l128 -102l-18 -39l-160 38q-46 -72 -111 -130l90 -189l-31 -21l-151 143q-24 -14 -49.5 -26.5t-52.5 -21.5l22 -246l-31 -7l-95 227q-22 -3 -44 -5t-45 -2h-12q-5 0 -11 1l-59 -155l-43 6l-14 164q-83 23 -157 65l-151 -143l-30 21
l89 189q-21 19 -41 39.5t-37 43.5l-226 -97l-17 27l187 160q-13 26 -23 52t-18 54l-165 7l-7 42l152 65q0 11 -0.5 21.5t-0.5 22.5q0 67 13 125l-182 100l11 35l206 -27q23 53 56 100l-162 185l21 25l210 -128q20 20 42 37.5t45 33.5l-44 160l38 19l108 -124q76 31 165 40
l38 205h38l38 -205q29 -3 57 -8.5t55 -13.5l125 212l30 -12l-56 -240q50 -26 94 -61l139 91l30 -30l-86 -141q28 -33 51 -69t40 -76l206 27l11 -35l-182 -100q5 -27 8.5 -55t4.5 -57l239 -55v-32z" />
    <glyph glyph-name="cloud" unicode="&#x2601;" horiz-adv-x="1800" 
d="M802 1101q136 0 232.5 -67.5t140.5 -196.5q24 9 51 13.5t54 4.5q50 0 98 -17.5t85.5 -48.5t60.5 -74.5t23 -95.5q0 -21 -3 -43q55 -24 98 -63q18 -17 36 -38t31.5 -48t22 -59t8.5 -70q0 -56 -16.5 -102.5t-44.5 -82.5t-65.5 -59.5t-80.5 -33.5q-51 -15 -111.5 -17.5
t-131.5 -2.5h-749q-79 0 -158 23.5t-142 69t-102 114t-39 158.5q0 57 18 107t51.5 92t81 75.5t106.5 57.5q0 91 37.5 166t99.5 127.5t142 81.5t166 29zM427 557q-75 -29 -120.5 -80.5t-45.5 -111.5q0 -51 23.5 -90.5t62.5 -66.5t89.5 -41.5t104.5 -14.5h749q78 0 132.5 6
t89 22t50 44t15.5 73q0 34 -15 60.5t-41 49.5t-62 44.5t-78 44.5q10 14 16.5 36t6.5 48t-10 49.5t-27.5 41.5t-41 28.5t-51.5 10.5q-18 0 -35.5 -4.5t-32 -12t-26 -16t-18.5 -17.5l-134 107q-53 172 -226 172q-62 0 -114.5 -18t-90 -51.5t-58.5 -81.5t-21 -108l31 -123h-122
z" />
    <glyph glyph-name="umbrella" unicode="&#x2602;" horiz-adv-x="1300" 
d="M785 90q31 0 52.5 21.5t21.5 52.5l108 -28q0 -29 -14 -56.5t-38.5 -49t-58 -34.5t-71.5 -13q-41 0 -75 13.5t-58.5 37.5t-38 57t-13.5 73v636q-151 0 -247 -5.5t-153 -12.5q-66 -8 -100 -18q0 59 23.5 114t63.5 103.5t94 89t115 69t126 44.5t128 16q62 0 127.5 -16
t126.5 -44.5t115 -69t94 -89t63.5 -103.5t23.5 -114q-34 10 -100 18q-57 7 -153 12.5t-247 5.5v-626q0 -23 7.5 -39t19.5 -26t27 -14.5t31 -4.5z" />
    <glyph glyph-name="snowman" unicode="&#x2603;" horiz-adv-x="1666" 
d="M799 749q0 -21 15 -36t36 -15t36 15t15 36t-15 36t-36 15t-36 -15t-15 -36zM799 349q0 -21 15 -36t36 -15t36 15t15 36t-15 36t-36 15t-36 -15t-15 -36zM599 1250q0 -21 14.5 -35.5t35.5 -14.5t35.5 14.5t14.5 35.5t-14.5 35.5t-35.5 14.5t-35.5 -14.5t-14.5 -35.5z
M899 1260q0 -3 7.5 -9.5t18.5 -13t24 -11.5t24 -5t18.5 6t7.5 23q0 21 -14.5 35.5t-35.5 14.5t-35.5 -9.5t-14.5 -30.5zM1231 783q20 -31 36 -85t27 -114.5t16.5 -118.5t5.5 -97q0 -107 -40.5 -180.5t-111 -119t-164.5 -65.5t-201 -20t-201 20t-164.5 65.5t-111 119
t-40.5 180.5q0 65 15.5 139t44 147t68.5 138.5t89 113.5q54 52 113 76q-26 21 -47 40.5t-35.5 42t-22.5 49.5t-8 63q0 62 23.5 123t64 109t95.5 78t117 30t117 -30t95.5 -78t64 -109t23.5 -123q0 -36 -8 -63t-22.5 -49.5t-35.5 -42t-47 -40.5q20 -8 45 -20.5t52 -30.5
t54.5 -41t51.5 -51l-17 123l142 245l122 -70zM799 549q0 -21 15 -36t36 -15t36 15t15 36t-15 36t-36 15t-36 -15t-15 -36zM776 1208q-7 -11 -7 -25q0 -13 6.5 -24.5t18.5 -18.5q7 -5 30.5 -15t52 -20.5t56 -18.5t44.5 -8q12 0 15 5q1 1 1 4q0 12 -20 33.5t-46 43.5t-50 40
t-33 23q-11 7 -25 7q-13 0 -24.5 -6.5t-18.5 -19.5z" />
    <glyph glyph-name="blackstar" unicode="&#x2605;" horiz-adv-x="1700" 
d="M1169 561l181 -561l-385 265l-113 110l-113 -110l-389 -265l180 561l-430 339h550l202 510l198 -510h550z" />
    <glyph glyph-name="phone" unicode="&#x260e;" horiz-adv-x="1100" 
d="M629 629q23 34 53.5 77.5t58.5 83t47 70t19 39.5q0 12 -23 28t-50.5 32.5t-50.5 33t-23 30.5q0 21 11.5 53.5t30.5 69.5t42 73.5t46.5 66.5t44 48.5t34.5 18.5q15 0 44 -20.5t58 -52.5t50.5 -70t21.5 -74q0 -55 -15.5 -129t-45 -157t-71.5 -171.5t-96 -172.5t-116 -160
t-125 -138t-123.5 -107.5t-110.5 -68.5q-13 -6 -28.5 -8.5t-32.5 -2.5q-33 0 -67.5 8t-64.5 20t-51 25.5t-26 24.5q-2 6 -2 12q0 17 11 45t28.5 60.5t40.5 66.5t46.5 63.5t46 51.5t40.5 30q4 2 8 2q14 0 36 -13t45.5 -28.5t44.5 -28.5t34 -13q5 0 7 1q8 3 26 33t42 72
t51.5 89.5t53.5 86.5z" />
    <glyph glyph-name="emptybox" unicode="&#x2610;" horiz-adv-x="1100" 
d="M1100 0h-1100v1100h1100v-1100zM165 165h770v770h-770v-770z" />
    <glyph glyph-name="boxwithacheck" unicode="&#x2611;" horiz-adv-x="1100" 
d="M580 400l10 200q30 85 69 165.5t82 153t88 135.5t87 114.5t78.5 89t62.5 59.5l131 -17q-45 -50 -97.5 -120.5t-105.5 -155.5t-103 -179.5t-91 -193.5t-68.5 -197.5t-35.5 -190.5l-222 17l-205 520l168 20zM165 165h770v389q25 99 66 200t99 196v-950h-1100v1100h703
q-15 -15 -32 -34.5t-33.5 -41t-32 -44.5t-25.5 -45h-415v-770z" />
    <glyph glyph-name="boxwithaX" unicode="&#x2612;" horiz-adv-x="1100" 
d="M1100 0h-1100v1100h1100v-1100zM165 165h770v770h-770v-770zM701 230l-131 170l-8 68l-157 -238h-179l222 328l-221 286l195 25l93 -136l13 -102l140 222l191 17l-204 -301l241 -339h-195z" />
    <glyph glyph-name="frowningface" unicode="&#x2639;" horiz-adv-x="1300" 
d="M749 600q-21 0 -35.5 14t-14.5 35v101q0 21 14.5 35.5t35.5 14.5t35.5 -14.5t14.5 -35.5v-101q0 -21 -14.5 -35t-35.5 -14zM549 600q-21 0 -35.5 14t-14.5 35v101q0 21 14.5 35.5t35.5 14.5t35.5 -14.5t14.5 -35.5v-101q0 -21 -14.5 -35t-35.5 -14zM82 550
q0 117 44.5 220.5t121.5 180.5t180.5 121.5t220.5 44.5t220.5 -44.5t180.5 -121.5t121.5 -180.5t44.5 -220.5t-44.5 -220.5t-121.5 -180.5t-180.5 -121.5t-220.5 -44.5t-220.5 44.5t-180.5 121.5t-121.5 180.5t-44.5 220.5zM199 550q0 -93 35.5 -175t96.5 -143t143 -96.5
t175 -35.5t175 35.5t143 96.5t96.5 143t35.5 175t-35.5 175t-96.5 143t-143 96.5t-175 35.5t-175 -35.5t-143 -96.5t-96.5 -143t-35.5 -175zM949 255q-28 40 -70 72q-36 27 -92.5 49.5t-137.5 22.5t-137.5 -22.5t-92.5 -49.5q-42 -32 -70 -72q0 54 26 99t68 77.5t96 50.5
t110 18t110 -18t96 -50.5t68 -77.5t26 -99z" />
    <glyph glyph-name="smileface" unicode="&#x263a;" horiz-adv-x="1300" 
d="M750 600q-21 0 -35.5 14t-14.5 35v101q0 21 14.5 35.5t35.5 14.5t35.5 -14.5t14.5 -35.5v-101q0 -21 -14.5 -35t-35.5 -14zM550 600q-21 0 -35.5 14t-14.5 35v101q0 21 14.5 35.5t35.5 14.5t35.5 -14.5t14.5 -35.5v-101q0 -21 -14.5 -35t-35.5 -14zM83 550
q0 117 44.5 220.5t121.5 180.5t180.5 121.5t220.5 44.5t220.5 -44.5t180.5 -121.5t121.5 -180.5t44.5 -220.5t-44.5 -220.5t-121.5 -180.5t-180.5 -121.5t-220.5 -44.5t-220.5 44.5t-180.5 121.5t-121.5 180.5t-44.5 220.5zM200 550q0 -93 35.5 -175t96.5 -143t143 -96.5
t175 -35.5t175 35.5t143 96.5t96.5 143t35.5 175t-35.5 175t-96.5 143t-143 96.5t-175 35.5t-175 -35.5t-143 -96.5t-96.5 -143t-35.5 -175zM950 544q0 -54 -26 -99t-68 -77.5t-96 -50.5t-110 -18t-110 18t-96 50.5t-68 77.5t-26 99q28 -40 70 -72q36 -27 92.5 -49.5
t137.5 -22.5t137.5 22.5t92.5 49.5q42 32 70 72z" />
    <glyph glyph-name="sun" unicode="&#x263c;" horiz-adv-x="1800" 
d="M1428 456q-5 -28 -12 -55t-17 -54l128 -102l-18 -39l-160 38q-46 -72 -111 -130l90 -189l-31 -21l-151 143q-24 -14 -49.5 -26.5t-52.5 -21.5l22 -246l-31 -7l-95 227q-22 -3 -44 -5t-45 -2h-12q-5 0 -11 1l-59 -155l-43 6l-14 164q-83 23 -157 65l-151 -143l-30 21
l89 189q-21 19 -41 39.5t-37 43.5l-226 -97l-17 27l187 160q-13 26 -23 52t-18 54l-165 7l-7 42l152 65q0 11 -0.5 21.5t-0.5 22.5q0 67 13 125l-182 100l11 35l206 -27q23 53 56 100l-162 185l21 25l210 -128q20 20 42 37.5t45 33.5l-44 160l38 19l108 -124q76 31 165 40
l38 205h38l38 -205q29 -3 57 -8.5t55 -13.5l125 212l30 -12l-56 -240q50 -26 94 -61l139 91l30 -30l-86 -141q28 -33 51 -69t40 -76l206 27l11 -35l-182 -100q5 -27 8.5 -55t4.5 -57l239 -55v-32zM1170 231q65 65 98.5 147t33.5 173t-33.5 172.5t-98.5 146.5q-64 64 -146 98
t-173 34t-173 -34t-146 -98q-65 -65 -98.5 -146.5t-33.5 -172.5t33.5 -173t98.5 -147q64 -64 146 -98t173 -34t173 34t146 98z" />
    <glyph glyph-name="night" unicode="&#x263e;" horiz-adv-x="1300" 
d="M1198 317q-34 -74 -87.5 -135.5t-121 -105.5t-147 -68.5t-166.5 -24.5q-119 0 -224 45.5t-183 123.5t-123.5 183t-45.5 224t45.5 224t123.5 183t183 123.5t224 45.5q70 0 135 -16t124 -46l-4 -22q-45 9 -91 9q-92 0 -173 -35t-141 -95t-95 -141t-35 -173t35 -173t95 -141
t141 -95t173 -35q103 0 191 42.5t149 115.5q0 -2 9 -7q4 -3 9 -6z" />
    <glyph glyph-name="spade" unicode="&#x2660;" horiz-adv-x="1400" 
d="M116 591q0 76 37.5 144.5t93.5 130.5t122 119t122 110.5t93.5 104t37.5 100.5h157q0 -50 37.5 -100.5t93.5 -104t121.5 -110.5t121.5 -119t93.5 -130.5t37.5 -144.5q0 -73 -23.5 -132t-65.5 -101t-101 -64.5t-130 -22.5l-201 170q0 -40 4 -80.5t17 -78t37.5 -69.5t64 -56
t97 -37.5t137.5 -13.5v-106h-840v106q120 0 190.5 29.5t107.5 77.5t47.5 108t10.5 120l-200 -170q-71 0 -130 22.5t-101 64.5t-65.5 101t-23.5 132z" />
    <glyph glyph-name="heartsuitwhite" unicode="&#x2661;" horiz-adv-x="1400" 
d="M130 700q-18 27 -34.5 56.5t-29.5 61t-21 65t-8 68.5q0 83 26.5 150t74.5 114.5t115 68.5t148 21q41 0 111.5 -23t147.5 -102l40 -158l40 158q77 78 148 101.5t112 23.5q81 0 148 -21t115 -68.5t74.5 -114.5t26.5 -150q0 -70 -28 -133.5t-66 -117.5l-570 -800zM700 50
l40 170l401 571q51 76 53.5 148t-13 110.5t-43 64.5t-60.5 39t-78 13q-60 0 -111.5 -34t-95 -125.5t-53.5 -126.5h-80q-10 35 -53.5 127.5t-95 127t-111.5 34.5q-45 0 -78 -13.5t-60 -40t-42.5 -65.5t-13 -111t53.5 -148l400 -571z" />
    <glyph glyph-name="diamondsuitwhite" unicode="&#x2662;" 
d="M1140 651l-540 -751l-542 749l542 751zM1044 650l-120 30l-294 448l-30 110l-30 -110l-295 -448l-120 -30l120 -30l294 -447l30 -110l30 110l295 447z" />
    <glyph glyph-name="club" unicode="&#x2663;" horiz-adv-x="1400" 
d="M763 441q0 -40 4 -80.5t17 -78t37.5 -69.5t64 -56t97 -37.5t137.5 -13.5v-106h-840v106q120 0 190.5 29.5t107.5 77.5t47.5 108t10.5 120l-199 -168q-71 1 -136 9.5t-115 38.5t-80 89t-30 160q0 59 22.5 110t57.5 89t79 60t88 22l277 -151q-75 75 -115.5 124.5t-59.5 81
t-22 47t-3 23.5q0 37 3.5 75.5t14 74.5t30.5 67.5t53.5 55.5t82 37.5t116.5 13.5q102 0 161.5 -30t90.5 -77t39.5 -105t8.5 -113q0 -7 -3 -23t-22 -47t-59.5 -80.5t-115.5 -124.5l277 151q41 0 85 -21.5t80 -59t59.5 -89t23.5 -111.5q0 -101 -29.5 -160t-79.5 -89.5
t-115 -39t-136 -8.5z" />
    <glyph glyph-name="flag1" unicode="&#x2690;" horiz-adv-x="1000" 
d="M900 1100v-559q-24 -29 -77.5 -50.5t-122.5 -21.5q-23 0 -46.5 2.5t-48 9.5t-50.5 20t-55 34q-43 31 -78 58t-65.5 46t-59 30t-58.5 11q-19 0 -39 -7v-673l-100 -20v1060l-18 235q1 0 5 2q9 3 26 9t39.5 11t50 9t59.5 4t67.5 -5.5t72 -19t73.5 -36.5t73 -58
q57 -56 105 -79t88 -23q26 0 48.5 9t42.5 23zM800 1000q-35 -11 -67 -11q-59 0 -117 29.5t-116 81.5q-34 30 -64 51t-57.5 33.5t-54 18t-52.5 5.5q-32 0 -72 -8l15 -300l-15 -100q48 0 90.5 -11.5t80 -30t69.5 -42t60 -48.5q64 -57 112 -80.5t88 -23.5q32 0 59 11t41 25v400
z" />
    <glyph glyph-name="flag2" unicode="&#x2691;" horiz-adv-x="1000" 
d="M900 1100v-559q-24 -29 -77.5 -50.5t-122.5 -21.5q-23 0 -46.5 2.5t-48 9.5t-50.5 20t-55 34q-43 31 -78 58t-65.5 46t-59 30t-58.5 11q-19 0 -39 -7v-673l-100 -20v1060l-18 235q1 0 5 2q9 3 26 9t39.5 11t50 9t59.5 4t67.5 -5.5t72 -19t73.5 -36.5t73 -58
q57 -56 105 -79t88 -23q26 0 48.5 9t42.5 23z" />
    <glyph glyph-name="warning" unicode="&#x26a0;" horiz-adv-x="1900" 
d="M1774 261q35 -60 35 -115q0 -65 -49 -105.5t-137 -40.5h-1347q-88 0 -136 40t-48 105q0 26 8.5 55.5t26.5 60.5l674 1149q31 54 69.5 80.5t80.5 26.5q39 0 79 -27t71 -80zM1703 123l-752 1286l-747 -1286h1499zM1026 1100v-527l-150 -13v540h150zM864 351q0 18 7 33.5
t18.5 27t27 19t33.5 7.5q19 0 34 -7.5t27 -19t19 -27t7 -33.5t-7 -34t-18.5 -27.5t-27 -19t-33.5 -7.5t-34 7.5t-27.5 19t-18.5 27.5t-7 34z" />
    <glyph glyph-name="highvoltage" unicode="&#x26a1;" horiz-adv-x="1000" 
d="M600 1500h100l-260 -600l-40 -36l53 8l447 28l-500 -900h-100l260 600l40 34l-52 -10l-448 -24z" />
    <glyph glyph-name="plane" unicode="&#x2708;" horiz-adv-x="1800" 
d="M696 -20l92 451l25 211h-213q-75 0 -132.5 4.5t-96.5 10.5q-46 7 -78 16l-153 -216l-63 -4l32 252l-79 36v18l79 36l-32 252l63 -4l153 -216q32 8 78 15q39 6 96.5 11t132.5 5h213l-25 211l-92 451l99 -20l345 -647l400 -15q22 -1 50 -6.5t52.5 -16.5t41 -27t16.5 -38
t-16.5 -38t-41 -27t-52.5 -16.5t-50 -6.5l-400 -15l-345 -647z" />
    <glyph glyph-name="mail" unicode="&#x2709;" horiz-adv-x="1400" 
d="M1300 0h-1200v900h1200v-900zM1141 800h-881l384 -301l56 -99l58 101zM182 766l32 -118v-348l-32 -138l296 338zM1171 100l-284 274l-26 74l-82 -73l-78 -110l-77 107l-85 76l-25 -73l-283 -275h940zM1218 161l-32 139v348l32 118l-297 -266z" />
    <glyph glyph-name="checkmark" unicode="&#x2713;" horiz-adv-x="1100" 
d="M580 400l10 200q30 85 69 165.5t82 153t88 135.5t87 114.5t78.5 89t62.5 59.5l131 -17q-45 -50 -97.5 -120.5t-105.5 -155.5t-103 -179.5t-91 -193.5t-68.5 -197.5t-35.5 -190.5l-222 17l-205 520l168 20z" />
    <glyph glyph-name="whitecircledone" unicode="&#x2780;" horiz-adv-x="1700" 
d="M82 750q0 106 27.5 204t77.5 183t120 155t155 120t183 77.5t204 27.5t204 -27.5t183 -77.5t155 -120t120 -155t77.5 -183t27.5 -204t-27.5 -204t-77.5 -183t-120 -155t-155 -120t-183 -77.5t-204 -27.5t-204 27.5t-183 77.5t-155 120t-120 155t-77.5 183t-27.5 204z
M200 750q0 -134 51 -252.5t139 -206.5t206.5 -139t252.5 -51q89 0 172 23t155 65.5t131 102t101.5 131.5t65.5 154.5t23 172.5q0 134 -51 252t-139 206t-206 139t-252 51q-89 0 -172 -23t-155 -65.5t-131.5 -101.5t-102 -131t-65.5 -155t-23 -172zM762 828l44 218l-136 -163
l-50 -44l-93 111l288 265l146 -20v-775h145v-120h-490v120h146v408z" />
    <glyph glyph-name="whitecircledtwo" unicode="&#x2781;" horiz-adv-x="1700" 
d="M82 750q0 106 27.5 204t77.5 183t120 155t155 120t183 77.5t204 27.5t204 -27.5t183 -77.5t155 -120t120 -155t77.5 -183t27.5 -204t-27.5 -204t-77.5 -183t-120 -155t-155 -120t-183 -77.5t-204 -27.5t-204 27.5t-183 77.5t-155 120t-120 155t-77.5 183t-27.5 204z
M200 750q0 -134 51 -252.5t139 -206.5t206.5 -139t252.5 -51q89 0 172 23t155 65.5t131 102t101.5 131.5t65.5 154.5t23 172.5q0 134 -51 252t-139 206t-206 139t-252 51q-89 0 -172 -23t-155 -65.5t-131.5 -101.5t-102 -131t-65.5 -155t-23 -172zM561 300v114q28 44 65 93
t76 96t76.5 89t65.5 73q32 35 55 59t36.5 44.5t20 41t6.5 48.5q0 22 -7.5 44t-21.5 39.5t-33.5 28t-43.5 10.5q-49 0 -86.5 -33t-66.5 -89l-139 52q17 46 44.5 83t65 63t85.5 40t106 14q68 0 121.5 -22.5t90.5 -59t56 -83t19 -93.5q0 -42 -13 -77.5t-35.5 -68.5t-50.5 -65
t-58 -68t-62 -73.5t-61 -71t-53 -61.5t-37 -47h385v-120h-606z" />
    <glyph glyph-name="whitecircledthree" unicode="&#x2782;" horiz-adv-x="1700" 
d="M82 750q0 106 27.5 204t77.5 183t120 155t155 120t183 77.5t204 27.5t204 -27.5t183 -77.5t155 -120t120 -155t77.5 -183t27.5 -204t-27.5 -204t-77.5 -183t-120 -155t-155 -120t-183 -77.5t-204 -27.5t-204 27.5t-183 77.5t-155 120t-120 155t-77.5 183t-27.5 204z
M200 750q0 -134 51 -252.5t139 -206.5t206.5 -139t252.5 -51q89 0 172 23t155 65.5t131 102t101.5 131.5t65.5 154.5t23 172.5q0 134 -51 252t-139 206t-206 139t-252 51q-89 0 -172 -23t-155 -65.5t-131.5 -101.5t-102 -131t-65.5 -155t-23 -172zM652 863q17 12 41.5 30
t52.5 40t57 45.5t56 48.5t49 50t37 47l-156 -44h-199l13 120h505v-104q-19 -47 -53.5 -86.5t-77.5 -78.5l-94 -50q63 0 115 -16.5t88.5 -47t57 -74.5t20.5 -99q0 -60 -25 -108.5t-67 -86.5t-98.5 -66t-121 -46.5t-133 -27.5t-135.5 -9v120q71 2 138 18.5t120 44.5t85 67
t32 88q0 35 -14.5 58.5t-40 38t-58.5 21t-71 6.5q-9 0 -26 -1t-36 -2t-36 -1.5t-25 -1.5v107z" />
    <glyph glyph-name="whitecircledfour" unicode="&#x2783;" horiz-adv-x="1700" 
d="M82 750q0 106 27.5 204t77.5 183t120 155t155 120t183 77.5t204 27.5t204 -27.5t183 -77.5t155 -120t120 -155t77.5 -183t27.5 -204t-27.5 -204t-77.5 -183t-120 -155t-155 -120t-183 -77.5t-204 -27.5t-204 27.5t-183 77.5t-155 120t-120 155t-77.5 183t-27.5 204z
M200 750q0 -134 51 -252.5t139 -206.5t206.5 -139t252.5 -51q89 0 172 23t155 65.5t131 102t101.5 131.5t65.5 154.5t23 172.5q0 134 -51 252t-139 206t-206 139t-252 51q-89 0 -172 -23t-155 -65.5t-131.5 -101.5t-102 -131t-65.5 -155t-23 -172zM1157 480h-106v-180h-193
v180h-360v120l297 615l189 -20l-196 -437l-105 -158h175v179l193 -16v-163h119z" />
    <glyph glyph-name="whitecircledfive" unicode="&#x2784;" horiz-adv-x="1700" 
d="M82 750q0 106 27.5 204t77.5 183t120 155t155 120t183 77.5t204 27.5t204 -27.5t183 -77.5t155 -120t120 -155t77.5 -183t27.5 -204t-27.5 -204t-77.5 -183t-120 -155t-155 -120t-183 -77.5t-204 -27.5t-204 27.5t-183 77.5t-155 120t-120 155t-77.5 183t-27.5 204z
M200 750q0 -134 51 -252.5t139 -206.5t206.5 -139t252.5 -51q89 0 172 23t155 65.5t131 102t101.5 131.5t65.5 154.5t23 172.5q0 134 -51 252t-139 206t-206 139t-252 51q-89 0 -172 -23t-155 -65.5t-131.5 -101.5t-102 -131t-65.5 -155t-23 -172zM795 928q14 3 31 5t38 2
q70 0 125 -20t93 -55.5t58 -82.5t20 -101q0 -62 -24.5 -113.5t-67 -93.5t-99 -73.5t-120 -52.5t-131.5 -32t-133 -11v136q43 1 87.5 9.5t86.5 22.5t79.5 34.5t65 45.5t44 54t16.5 62q0 24 -8.5 47.5t-24 41.5t-36.5 29t-46 11q-23 0 -43 -3.5t-36 -9t-28.5 -12.5t-21.5 -13
h-135v445h520v-120h-310v-152z" />
    <glyph glyph-name="whitecircledsix" unicode="&#x2785;" horiz-adv-x="1700" 
d="M82 750q0 106 27.5 204t77.5 183t120 155t155 120t183 77.5t204 27.5t204 -27.5t183 -77.5t155 -120t120 -155t77.5 -183t27.5 -204t-27.5 -204t-77.5 -183t-120 -155t-155 -120t-183 -77.5t-204 -27.5t-204 27.5t-183 77.5t-155 120t-120 155t-77.5 183t-27.5 204z
M200 750q0 -134 51 -252.5t139 -206.5t206.5 -139t252.5 -51q89 0 172 23t155 65.5t131 102t101.5 131.5t65.5 154.5t23 172.5q0 134 -51 252t-139 206t-206 139t-252 51q-89 0 -172 -23t-155 -65.5t-131.5 -101.5t-102 -131t-65.5 -155t-23 -172zM1060 1068q-16 8 -34 10
t-33 2q-41 0 -85 -20t-83 -58.5t-68.5 -94.5t-39.5 -127l99 87q16 3 31 5t29 2q58 0 112.5 -15t96.5 -46.5t67 -80.5t25 -117q0 -67 -24 -126t-67.5 -103.5t-104.5 -70t-135 -25.5q-65 0 -114.5 19t-86 50.5t-62 72t-40.5 83.5t-22 85t-7 76q0 71 15.5 138t44.5 126.5
t71.5 109t96 85.5t118.5 55.5t139 19.5q10 0 30.5 -1.5t50.5 -9.5zM868 754q-22 0 -44 -9t-42 -23t-37 -30.5t-28 -30.5v-29q0 -13 1 -25l3 -23q2 -11 6 -24q7 -28 18.5 -53.5t27 -44.5t34.5 -30.5t41 -11.5q32 0 56 17t40 44.5t23.5 61.5t7.5 67q0 30 -8 56t-22.5 45.5
t-34 31t-42.5 11.5z" />
    <glyph glyph-name="whitecircledseven" unicode="&#x2786;" horiz-adv-x="1700" 
d="M82 750q0 106 27.5 204t77.5 183t120 155t155 120t183 77.5t204 27.5t204 -27.5t183 -77.5t155 -120t120 -155t77.5 -183t27.5 -204t-27.5 -204t-77.5 -183t-120 -155t-155 -120t-183 -77.5t-204 -27.5t-204 27.5t-183 77.5t-155 120t-120 155t-77.5 183t-27.5 204z
M200 750q0 -134 51 -252.5t139 -206.5t206.5 -139t252.5 -51q89 0 172 23t155 65.5t131 102t101.5 131.5t65.5 154.5t23 172.5q0 134 -51 252t-139 206t-206 139t-252 51q-89 0 -172 -23t-155 -65.5t-131.5 -101.5t-102 -131t-65.5 -155t-23 -172zM573 1200h604v-97
q0 -16 -8.5 -38.5t-23.5 -50.5t-34 -61t-41 -67q-25 -42 -52.5 -89.5t-51.5 -97t-41.5 -98t-22.5 -93.5q-3 -22 -4.5 -48.5t-2 -54.5t-0.5 -55v-50h-202q0 19 0.5 51.5t2 68.5t4 71t7.5 60q12 53 32.5 107.5t46 106t53.5 99t53 88.5q21 34 38 62.5t25 48.5h-382v137z" />
    <glyph glyph-name="whitecircledeight" unicode="&#x2787;" horiz-adv-x="1700" 
d="M82 750q0 106 27.5 204t77.5 183t120 155t155 120t183 77.5t204 27.5t204 -27.5t183 -77.5t155 -120t120 -155t77.5 -183t27.5 -204t-27.5 -204t-77.5 -183t-120 -155t-155 -120t-183 -77.5t-204 -27.5t-204 27.5t-183 77.5t-155 120t-120 155t-77.5 183t-27.5 204z
M200 750q0 -134 51 -252.5t139 -206.5t206.5 -139t252.5 -51q89 0 172 23t155 65.5t131 102t101.5 131.5t65.5 154.5t23 172.5q0 134 -51 252t-139 206t-206 139t-252 51q-89 0 -172 -23t-155 -65.5t-131.5 -101.5t-102 -131t-65.5 -155t-23 -172zM839 1210q61 0 113.5 -16
t91 -45.5t60 -72t21.5 -96.5q0 -30 -12 -56t-30.5 -47.5t-43 -39t-48.5 -31.5q40 -19 74.5 -44.5t60.5 -57t40.5 -68.5t14.5 -80q0 -69 -29 -119.5t-76.5 -83t-108.5 -48t-125 -15.5q-62 0 -120.5 17.5t-103.5 52.5t-72.5 86t-27.5 119q0 42 13 79t36 67.5t54.5 55
t69.5 42.5q-28 16 -51 34.5t-40.5 38.5t-27.5 43t-10 49q0 62 26.5 106.5t67 73.5t89.5 42.5t94 13.5zM986 553q0 33 -13.5 59t-35.5 47.5t-49.5 38t-54.5 29.5q-26 -13 -47.5 -29.5t-38 -38t-25.5 -48t-9 -58.5q0 -29 11.5 -53.5t30 -42t41.5 -27.5t47 -10q27 0 52.5 9
t46 26t32.5 41.5t12 56.5zM754 994q0 -21 8.5 -38t22.5 -31.5t32.5 -26t37.5 -20.5q16 9 30.5 21t25 26t16.5 31t6 35q0 23 -8.5 40t-21 27.5t-27.5 16t-27 5.5q-16 0 -33.5 -6.5t-31 -18.5t-22 -27.5t-8.5 -33.5z" />
    <glyph glyph-name="whitecirclednine" unicode="&#x2788;" horiz-adv-x="1700" 
d="M82 750q0 106 27.5 204t77.5 183t120 155t155 120t183 77.5t204 27.5t204 -27.5t183 -77.5t155 -120t120 -155t77.5 -183t27.5 -204t-27.5 -204t-77.5 -183t-120 -155t-155 -120t-183 -77.5t-204 -27.5t-204 27.5t-183 77.5t-155 120t-120 155t-77.5 183t-27.5 204z
M200 750q0 -134 51 -252.5t139 -206.5t206.5 -139t252.5 -51q89 0 172 23t155 65.5t131 102t101.5 131.5t65.5 154.5t23 172.5q0 134 -51 252t-139 206t-206 139t-252 51q-89 0 -172 -23t-155 -65.5t-131.5 -101.5t-102 -131t-65.5 -155t-23 -172zM652 419q41 2 81.5 14.5
t76.5 33.5t66.5 49.5t53 61.5t35.5 69t14 73l-107 -91q-10 -1 -19.5 -2t-20.5 -1q-65 0 -122 20.5t-99 57.5t-66 89.5t-24 116.5q0 67 23 122t65 94.5t102 61.5t135 22q66 0 116 -18.5t87 -49.5t62 -71t39.5 -83t21 -85.5t6.5 -78.5q0 -106 -33.5 -199.5t-98 -164.5
t-157.5 -116t-211 -54zM838 757q20 0 41.5 9.5t41 25t35.5 35.5t25 40q-2 38 -11.5 76t-26.5 68.5t-40.5 49.5t-52.5 19q-28 0 -52 -13t-41.5 -34.5t-27.5 -50.5t-10 -62q0 -32 8 -61.5t23.5 -52t37.5 -36t50 -13.5z" />
    <glyph glyph-name="whitecircledzero" unicode="&#x2789;" horiz-adv-x="1700" 
d="M82 750q0 106 27.5 204t77.5 183t120 155t155 120t183 77.5t204 27.5t204 -27.5t183 -77.5t155 -120t120 -155t77.5 -183t27.5 -204t-27.5 -204t-77.5 -183t-120 -155t-155 -120t-183 -77.5t-204 -27.5t-204 27.5t-183 77.5t-155 120t-120 155t-77.5 183t-27.5 204z
M200 750q0 -134 51 -252.5t139 -206.5t206.5 -139t252.5 -51q89 0 172 23t155 65.5t131 102t101.5 131.5t65.5 154.5t23 172.5q0 134 -51 252t-139 206t-206 139t-252 51q-89 0 -172 -23t-155 -65.5t-131.5 -101.5t-102 -131t-65.5 -155t-23 -172zM843 290q-56 0 -103 19.5
t-84 53.5t-65 79t-47 96t-28 105.5t-9 106.5q0 54 7.5 109t25 106t44 95.5t63.5 78t86 52.5t110 19q56 0 102.5 -19.5t84 -53.5t65.5 -79t46.5 -96t28 -105.5t9.5 -106.5q0 -54 -8 -109t-25 -106t-43.5 -95.5t-64 -78t-86.5 -52.5t-109 -19zM716 775q0 -31 1.5 -68
t6.5 -74.5t14 -73t24 -63t35.5 -44t49.5 -16.5q25 0 44 12t33 33.5t23 50t14 61t7 66t2 66.5q0 31 -2 68t-7 74.5t-14 73t-23.5 63t-35.5 44t-50 16.5q-25 0 -44 -12.5t-33 -33.5t-22.5 -49.5t-13.5 -61t-7 -66.5t-2 -66z" />
    <glyph glyph-name="blackcircledone" unicode="&#x278a;" horiz-adv-x="1700" 
d="M82 750q0 106 27.5 204t77.5 183t120 155t155 120t183 77.5t204 27.5t204 -27.5t183 -77.5t155 -120t120 -155t77.5 -183t27.5 -204t-27.5 -204t-77.5 -183t-120 -155t-155 -120t-183 -77.5t-204 -27.5t-204 27.5t-183 77.5t-155 120t-120 155t-77.5 183t-27.5 204z
M762 420h-146v-120h490v120h-145v775l-146 20l-288 -265l93 -111l50 44l136 163l-44 -218v-408z" />
    <glyph glyph-name="blackcircledtwo" unicode="&#x278b;" horiz-adv-x="1700" 
d="M82 750q0 106 27.5 204t77.5 183t120 155t155 120t183 77.5t204 27.5t204 -27.5t183 -77.5t155 -120t120 -155t77.5 -183t27.5 -204t-27.5 -204t-77.5 -183t-120 -155t-155 -120t-183 -77.5t-204 -27.5t-204 27.5t-183 77.5t-155 120t-120 155t-77.5 183t-27.5 204z
M1167 300v120h-385q13 19 37 47t53 61.5t61 71t62 73.5t58 68t50.5 65t35.5 68.5t13 77.5q0 47 -19 93.5t-56 83t-90.5 59t-121.5 22.5q-58 0 -106 -14t-85.5 -40t-65 -63t-44.5 -83l139 -52q29 56 66.5 89t86.5 33q24 0 43.5 -10.5t33.5 -28t21.5 -39.5t7.5 -44
q0 -28 -6.5 -48.5t-20 -41t-36.5 -44.5t-55 -59q-28 -31 -65.5 -73t-76.5 -89t-76 -96t-65 -93v-114h606z" />
    <glyph glyph-name="blackcircledthree" unicode="&#x278c;" horiz-adv-x="1700" 
d="M82 750q0 106 27.5 204t77.5 183t120 155t155 120t183 77.5t204 27.5t204 -27.5t183 -77.5t155 -120t120 -155t77.5 -183t27.5 -204t-27.5 -204t-77.5 -183t-120 -155t-155 -120t-183 -77.5t-204 -27.5t-204 27.5t-183 77.5t-155 120t-120 155t-77.5 183t-27.5 204z
M652 756q8 1 25 1.5t36 1.5t36 2t26 1q38 0 71 -6.5t58.5 -21t40 -38t14.5 -58.5q0 -49 -32 -88t-85 -67t-120 -44.5t-138 -18.5v-120q67 0 135.5 9t133 27.5t121 46.5t98.5 66t67 86.5t25 108.5q0 55 -20.5 99t-57 74.5t-88.5 47t-115 16.5l94 50q43 39 77.5 78.5
t53.5 86.5v104h-505l-13 -120h199l156 44q-15 -22 -37 -47t-49 -50t-56 -48.5t-57 -45.5t-52.5 -40t-41.5 -30v-107z" />
    <glyph glyph-name="blackcircledfour" unicode="&#x278d;" horiz-adv-x="1700" 
d="M82 750q0 106 27.5 204t77.5 183t120 155t155 120t183 77.5t204 27.5t204 -27.5t183 -77.5t155 -120t120 -155t77.5 -183t27.5 -204t-27.5 -204t-77.5 -183t-120 -155t-155 -120t-183 -77.5t-204 -27.5t-204 27.5t-183 77.5t-155 120t-120 155t-77.5 183t-27.5 204z
M1170 600h-119v163l-193 16v-179h-175l105 158l196 437l-189 20l-297 -615v-120h360v-180h193v180h106z" />
    <glyph glyph-name="blackcircledfive" unicode="&#x278e;" horiz-adv-x="1700" 
d="M82 750q0 106 27.5 204t77.5 183t120 155t155 120t183 77.5t204 27.5t204 -27.5t183 -77.5t155 -120t120 -155t77.5 -183t27.5 -204t-27.5 -204t-77.5 -183t-120 -155t-155 -120t-183 -77.5t-204 -27.5t-204 27.5t-183 77.5t-155 120t-120 155t-77.5 183t-27.5 204z
M795 1080h310v120h-520v-445h135q9 6 21.5 13t28.5 12.5t36 9t43 3.5q25 0 46 -11t36.5 -29t24 -41.5t8.5 -47.5q0 -33 -16.5 -62t-44 -54t-65 -45.5t-79.5 -34.5t-86.5 -22.5t-87.5 -9.5v-136q65 0 133 11t131.5 32t120 52.5t99 73.5t67 93.5t24.5 113.5q0 54 -20 101
t-58 82.5t-93 55.5t-125 20q-21 0 -38 -2t-31 -5v152z" />
    <glyph glyph-name="blackcircledsix" unicode="&#x278f;" horiz-adv-x="1700" 
d="M82 750q0 106 27.5 204t77.5 183t120 155t155 120t183 77.5t204 27.5t204 -27.5t183 -77.5t155 -120t120 -155t77.5 -183t27.5 -204t-27.5 -204t-77.5 -183t-120 -155t-155 -120t-183 -77.5t-204 -27.5t-204 27.5t-183 77.5t-155 120t-120 155t-77.5 183t-27.5 204z
M1080 1199q-30 8 -50.5 9.5t-30.5 1.5q-74 0 -139 -19.5t-118.5 -55.5t-96 -85.5t-71.5 -109t-44.5 -126.5t-15.5 -138q0 -34 7 -76t22 -85t40.5 -83.5t62 -72t86 -50.5t114.5 -19q74 0 135 25.5t104.5 70t67.5 103.5t24 126q0 68 -25 117t-67 80.5t-96.5 46.5t-112.5 15
q-14 0 -29 -2t-31 -5l-99 -87q10 71 39.5 127t68.5 94.5t83 58.5t85 20q15 0 33 -2t34 -10zM868 754q23 0 42.5 -11.5t34 -31t22.5 -45.5t8 -56q0 -33 -7.5 -67t-23.5 -61.5t-40 -44.5t-56 -17q-22 0 -41 11.5t-34.5 30.5t-27 44.5t-18.5 53.5q-4 13 -6 24l-3 23
q-1 12 -1 25v29q11 14 28 30.5t37 30.5t42 23t44 9z" />
    <glyph glyph-name="blackcircledseven" unicode="&#x2790;" horiz-adv-x="1700" 
d="M82 750q0 106 27.5 204t77.5 183t120 155t155 120t183 77.5t204 27.5t204 -27.5t183 -77.5t155 -120t120 -155t77.5 -183t27.5 -204t-27.5 -204t-77.5 -183t-120 -155t-155 -120t-183 -77.5t-204 -27.5t-204 27.5t-183 77.5t-155 120t-120 155t-77.5 183t-27.5 204z
M573 1063h382q-8 -20 -25 -48.5t-38 -62.5q-25 -41 -53 -88.5t-53.5 -99t-46 -106t-32.5 -107.5q-5 -25 -7.5 -60t-4 -71t-2 -68.5t-0.5 -51.5h202v50q0 27 0.5 55t2 54.5t4.5 48.5q5 45 22.5 93.5t41.5 98t51.5 97t52.5 89.5q22 34 41 67t34 61t23.5 50.5t8.5 38.5v97h-604
v-137z" />
    <glyph glyph-name="blackcircledeight" unicode="&#x2791;" horiz-adv-x="1700" 
d="M82 750q0 106 27.5 204t77.5 183t120 155t155 120t183 77.5t204 27.5t204 -27.5t183 -77.5t155 -120t120 -155t77.5 -183t27.5 -204t-27.5 -204t-77.5 -183t-120 -155t-155 -120t-183 -77.5t-204 -27.5t-204 27.5t-183 77.5t-155 120t-120 155t-77.5 183t-27.5 204z
M839 1210q-45 0 -94 -13.5t-89.5 -42.5t-67 -73.5t-26.5 -106.5q0 -26 10 -49t27.5 -43t40.5 -38.5t51 -34.5q-38 -18 -69.5 -42.5t-54.5 -55t-36 -67.5t-13 -79q0 -68 27.5 -119t72.5 -86t103.5 -52.5t120.5 -17.5q64 0 125 15.5t108.5 48t76.5 83t29 119.5q0 43 -14.5 80
t-40.5 68.5t-60.5 57t-74.5 44.5q24 14 48.5 31.5t43 39t30.5 47.5t12 56q0 54 -21.5 96.5t-60 72t-91 45.5t-113.5 16zM986 553q0 -32 -12 -56.5t-32.5 -41.5t-46 -26t-52.5 -9q-24 0 -47 10t-41.5 27.5t-30 42t-11.5 53.5q0 32 9 58.5t25.5 48t38 38t47.5 29.5
q27 -13 54.5 -29.5t49.5 -38t35.5 -47.5t13.5 -59zM754 994q0 18 8.5 33.5t22 27.5t31 18.5t33.5 6.5q12 0 27 -5.5t27.5 -16t21 -27.5t8.5 -40q0 -18 -6 -35t-16.5 -31t-25 -26t-30.5 -21q-19 9 -37.5 20.5t-32.5 26t-22.5 31.5t-8.5 38z" />
    <glyph glyph-name="blackcirclednine" unicode="&#x2792;" horiz-adv-x="1700" 
d="M82 750q0 106 27.5 204t77.5 183t120 155t155 120t183 77.5t204 27.5t204 -27.5t183 -77.5t155 -120t120 -155t77.5 -183t27.5 -204t-27.5 -204t-77.5 -183t-120 -155t-155 -120t-183 -77.5t-204 -27.5t-204 27.5t-183 77.5t-155 120t-120 155t-77.5 183t-27.5 204z
M678 290q118 9 211 54t157.5 116t98 164.5t33.5 199.5q0 36 -6.5 78.5t-21 85.5t-39.5 83t-62 71t-87 49.5t-116 18.5q-75 0 -135 -22t-102 -61.5t-65 -94.5t-23 -122q0 -64 24 -116.5t66 -89.5t99 -57.5t122 -20.5q11 0 20.5 1t19.5 2l107 91q-1 -37 -14 -73t-35.5 -69
t-53 -61.5t-66.5 -49.5t-76.5 -33.5t-81.5 -14.5zM838 757q-28 0 -50 13.5t-37.5 36t-23.5 52t-8 61.5q0 33 10 62t27.5 50.5t41.5 34.5t52 13q29 0 52.5 -19t40.5 -49.5t26.5 -68.5t11.5 -76q-9 -20 -25 -40t-35.5 -35.5t-41 -25t-41.5 -9.5z" />
    <glyph glyph-name="blackcircledzero" unicode="&#x2793;" horiz-adv-x="1700" 
d="M82 750q0 106 27.5 204t77.5 183t120 155t155 120t183 77.5t204 27.5t204 -27.5t183 -77.5t155 -120t120 -155t77.5 -183t27.5 -204t-27.5 -204t-77.5 -183t-120 -155t-155 -120t-183 -77.5t-204 -27.5t-204 27.5t-183 77.5t-155 120t-120 155t-77.5 183t-27.5 204z
M843 290q60 0 109 19t86.5 52.5t64 78t43.5 95.5t25 106t8 109q0 52 -9.5 106.5t-28 105.5t-46.5 96t-65.5 79t-84 53.5t-102.5 19.5q-61 0 -110 -19t-86 -52.5t-63.5 -78t-44 -95.5t-25 -106t-7.5 -109q0 -52 9 -106.5t28 -105.5t47 -96t65 -79t84 -53.5t103 -19.5z
M716 775q0 32 2 66t7 66.5t13.5 61t22.5 49.5t33 33.5t44 12.5q29 0 50 -16.5t35.5 -44t23.5 -63t14 -73t7 -74.5t2 -68q0 -33 -2 -66.5t-7 -66t-14 -61t-23 -50t-33 -33.5t-44 -12q-29 0 -49.5 16.5t-35.5 44t-24 63t-14 73t-6.5 74.5t-1.5 68z" />
    <glyph glyph-name="widerightwardsarrow" unicode="&#x2794;" horiz-adv-x="1900" 
d="M1800 600l-290 -220l-320 -281h-270l282 265l198 150l-218 -14h-1082l30 200h1052l218 -14l-198 146l-282 267h270l320 -279z" />
    <glyph glyph-name="takeoff" unicode="&#xe000;" horiz-adv-x="2600" 
d="M1495 1138l556 240q39 14 82.5 21.5t87.5 7.5q43 0 92.5 -10.5t91.5 -34t69.5 -60.5t27.5 -91q0 -44 -22 -87.5t-56.5 -81t-77.5 -67t-85 -47.5l-1048 -429q-5 0 -12 0.5t-15 0.5q-38 0 -98.5 -3.5t-131 -8.5t-144 -12t-136.5 -14t-109 -14t-61 -12l-48 132l-338 199
l224 82l334 -81l335 139l-451 359l335 122zM80 -200l20 200h1800v-200h-1820zM2000 -200v200h200v-200h-200zM2300 -200v200h100v-200h-100z" />
    <glyph glyph-name="climb" unicode="&#xe001;" horiz-adv-x="2600" 
d="M1495 1138l556 240q39 14 82.5 21.5t87.5 7.5q43 0 92.5 -10.5t91.5 -34t69.5 -60.5t27.5 -91q0 -44 -22 -87.5t-56.5 -81t-77.5 -67t-85 -47.5l-1048 -429q-5 0 -12 0.5t-15 0.5q-38 0 -98.5 -3.5t-131 -8.5t-144 -12t-136.5 -14t-109 -14t-61 -12l-48 132l-338 199
l224 82l334 -81l335 139l-451 359l335 122z" />
    <glyph glyph-name="cruise" unicode="&#xe002;" horiz-adv-x="2600" 
d="M1519 961l605 35q63 0 130 -18t121.5 -51.5t89.5 -81t35 -106.5q0 -53 -32 -96t-81.5 -73.5t-108 -48t-111.5 -19.5l-1131 -45q-25 11 -80.5 28.5t-126 37.5t-148 40.5t-145.5 37.5t-118.5 27.5t-67.5 10.5v141l-250 303h239l286 -190l363 16l-302 491h357z" />
    <glyph glyph-name="descent" unicode="&#xe003;" horiz-adv-x="2600" 
d="M1520 903l593 -123q55 -15 109.5 -44.5t97.5 -69t69.5 -87t26.5 -98.5q0 -53 -27.5 -91t-70 -62t-94.5 -35t-100 -11q-26 0 -50 2.5t-47 7.5l-1104 249q-21 17 -70.5 48.5t-112.5 69.5t-132 77.5t-130.5 73.5t-108 57t-62.5 28l37 136l-163 357l231 -62l227 -257l355 -79
l-165 553l345 -93z" />
    <glyph glyph-name="landing" unicode="&#xe004;" horiz-adv-x="2600" 
d="M1504 1021l593 -123q55 -15 109.5 -44.5t97.5 -69t69.5 -87t26.5 -98.5q0 -53 -27.5 -91t-70 -62t-94.5 -35t-100 -11q-26 0 -50 2.5t-47 7.5l-1104 249q-21 17 -70.5 48.5t-112.5 69.5t-132 77.5t-130.5 73.5t-108 57t-62.5 28l37 136l-163 357l231 -62l227 -257
l355 -79l-165 553l345 -93zM2400 -200h-1800v200h1800v-200zM500 -200h-200v200h200v-200zM200 -200h-120l20 200h100v-200z" />
    <glyph glyph-name="levelup" unicode="&#xe005;" horiz-adv-x="2000" 
d="M68 100h200q94 0 159 18.5t112.5 50t83.5 73.5t71 88q37 49 78 97t99 86q66 45 147 66t182 21h544l-244 200h146l184 -161l116 -88l-118 -92l-182 -159h-146l244 200h-544q-95 0 -160 -18.5t-112.5 -50t-83.5 -73.5t-71 -88q-37 -49 -78 -97t-99 -86q-66 -45 -146.5 -66
t-181.5 -21h-200v100zM1300 100h200v-100h-200v100zM1600 100h200v-100h-200v100zM1000 100h200v-100h-200v100zM800 100h100v-100h-200z" />
    <glyph glyph-name="leveldown" unicode="&#xe006;" horiz-adv-x="2000" 
d="M68 800h200q101 0 181.5 -21t146.5 -66q58 -38 99 -86t78 -97q35 -46 71 -88t83.5 -73.5t112.5 -50t160 -18.5h544l-244 200h146l182 -159l118 -92l-116 -88l-184 -161h-146l244 200h-544q-101 0 -182 21t-147 66q-58 38 -99 86t-78 97q-35 46 -71 88t-83.5 73.5
t-112.5 50t-159 18.5h-200v100zM1300 800h200v-100h-200v100zM1600 800h200v-100h-200v100zM1000 800h200v-100h-200v100zM700 800h200v-100h-100z" />
    </font>
</defs>
</svg>
