<?xml version="1.0" standalone="no"?>
<!DOCTYPE svg PUBLIC "-//W3C//DTD SVG 1.1//EN" "http://www.w3.org/Graphics/SVG/1.1/DTD/svg11.dtd" >
<svg xmlns="http://www.w3.org/2000/svg" xmlns:xlink="http://www.w3.org/1999/xlink" version="1.1">
<metadata>
Created by FontForge 20170731 at Tue Mar 12 17:14:33 2019
 By Aleksey,,,
Copyright 2012 The B612 Project Authors (https://github.com/polarsys/b612)
</metadata>
<defs>
<font id="B612-Italic" horiz-adv-x="1200" >
  <font-face 
    font-family="B612"
    font-weight="400"
    font-style="italic"
    font-stretch="normal"
    units-per-em="2000"
    panose-1="2 11 6 6 5 0 0 2 0 4"
    ascent="1600"
    descent="-400"
    x-height="1100"
    cap-height="1520"
    bbox="-139 -710.667 3069.73 1920"
    underline-thickness="100"
    underline-position="-400"
    slope="-10"
    unicode-range="U+0020-FB06"
  />
<missing-glyph horiz-adv-x="1300" 
d="M364 1500h1100l-264 -1500h-1100zM217 100h900l229 1300h-900z" />
    <glyph glyph-name=".notdef" horiz-adv-x="1300" 
d="M364 1500h1100l-264 -1500h-1100zM217 100h900l229 1300h-900z" />
    <glyph glyph-name=".null" horiz-adv-x="0" 
 />
    <glyph glyph-name="nonmarkingreturn" horiz-adv-x="666" 
 />
    <glyph glyph-name="NULL" horiz-adv-x="0" 
 />
    <glyph glyph-name="NULL" horiz-adv-x="0" 
 />
    <glyph glyph-name="space" unicode=" " horiz-adv-x="700" 
 />
    <glyph glyph-name="exclam" unicode="!" horiz-adv-x="700" 
d="M644 1500l-185 -1050l-214 -21l189 1071h210zM167 120q0 28 13.5 54t35.5 45t49.5 28.5t55.5 4.5q54 -10 82 -47.5t27 -84.5q-1 -29 -14.5 -54.5t-35 -44.5t-49 -28.5t-55.5 -6.5q-55 7 -82.5 44t-26.5 90z" />
    <glyph glyph-name="quotedbl" unicode="&#x22;" horiz-adv-x="800" 
d="M589 1500l-18 -100q-6 -38 -23 -94t-35 -110q-21 -62 -44 -129h-87q-1 67 0 129q2 54 5 110t9 94l18 100h175zM890 1500l-18 -100q-6 -38 -23 -94t-35 -110q-21 -62 -44 -129h-87q-1 67 0 129q2 54 5 110t9 94l18 100h175z" />
    <glyph glyph-name="numbersign" unicode="#" horiz-adv-x="1700" 
d="M1488 950l-121 -400h322l-46 -150h-319l-120 -400l-208 -20l128 420h-453l-118 -400l-207 -20l125 420h-294l26 150h311l122 400h-362l46 150h359l57 185l38 215l233 20l-128 -420h453l119 400l208 20l-126 -420h253l-26 -150h-272zM1287 950h-451l-120 -400h451z" />
    <glyph glyph-name="dollar" unicode="$" horiz-adv-x="1100" 
d="M1098 1252q-54 43 -105.5 67t-109.5 29l-90 -512q54 -29 105.5 -63t92 -81t65.5 -110.5t25 -149.5q0 -92 -34.5 -167.5t-94 -132t-139 -93t-170.5 -49.5l-33 -189h-146l32 182h-11q-118 8 -212.5 50t-164.5 101l118 150q24 -22 53 -44t63 -41t73.5 -32.5t84.5 -18.5
q6 -1 12 -1.5t13 -0.5l99 561q-57 31 -113 66.5t-100.5 83t-72 110.5t-27.5 149q0 91 37 161.5t99.5 120t145 78.5t173.5 37l33 188l150 20l-37 -209q49 -7 93 -21.5t82 -33.5t69.5 -41.5t57.5 -44.5zM687 896l79 446q-52 -10 -98.5 -31t-81 -52t-54.5 -71t-18 -87
q1 -38 14.5 -67.5t36.5 -54.5t54 -46t66 -40zM877 433q0 37 -11.5 67.5t-31.5 56t-47 47.5t-58 42l-86 -489q45 11 87.5 33t75 56t52 80.5t19.5 106.5z" />
    <glyph glyph-name="percent" unicode="%" horiz-adv-x="1800" 
d="M590 0h-190l1084 1500h180zM935 1197q0 -91 -30 -171t-81 -139.5t-117 -94t-138 -34.5q-78 0 -135 25t-94.5 71.5t-55.5 111t-18 144.5t28.5 153.5t77 130t114.5 90t141 33.5q73 0 130 -23t96.5 -65t60.5 -101t21 -131zM615 1377q-46 0 -81.5 -26t-59.5 -66.5t-36 -90
t-12 -97.5q0 -35 8.5 -68.5t27 -59.5t49 -42t74.5 -16q48 0 84 27t60.5 68t36.5 89t12 91q0 36 -9 70.5t-29 61t-51 43t-74 16.5zM1398 -18q-141 20 -204 107t-63 242q0 8 0.5 15.5t0.5 15.5q3 76 34 144.5t80.5 120t113.5 81.5t132 30q19 0 39 -3q133 -19 201 -99t68 -218
q0 -28 -3 -56q-8 -85 -42 -155.5t-84.5 -121t-112 -78.5t-124.5 -28q-18 0 -36 3zM1639 351q2 14 3 28t1 28q0 33 -7 64.5t-23.5 57t-42.5 43.5t-65 24q-6 1 -12.5 1.5t-12.5 0.5q-38 0 -69 -17.5t-54.5 -48t-39.5 -70.5t-22 -85q-2 -17 -3.5 -32.5t-1.5 -30.5q0 -34 7 -64
t23 -54t43 -40t66 -22q5 -1 10.5 -1.5t10.5 -0.5q40 0 72.5 20t56.5 51.5t39 70.5t21 77z" />
    <glyph glyph-name="ampersand" unicode="&#x26;" horiz-adv-x="1400" 
d="M1431 713q-3 -87 -27.5 -168.5t-66 -154.5t-98 -135.5t-123.5 -113.5l84 16l102 -177h-223l-55 97q-37 -29 -79.5 -48t-88 -30t-93 -15.5t-95.5 -3.5q-58 1 -117 15t-113 42t-100 69t-78 95.5t-48 122.5t-9 150q5 61 25 115.5t49.5 100.5t65 84t72.5 66t72.5 45.5
t63.5 23.5q-28 57 -35 125t-5 142q2 81 39 148.5t97 114t137 68.5t160 13q67 -8 119.5 -26.5t92.5 -44t68.5 -54.5t48.5 -57l-100 -118q-36 61 -97.5 99t-160.5 40q-48 1 -90 -11t-72.5 -35.5t-48.5 -58t-18 -79.5q0 -14 -1.5 -29.5t0.5 -33.5q1 -15 5.5 -32t18 -46.5
t39.5 -78.5t70.5 -128t110.5 -194.5t160 -277.5q58 51 94.5 133t50.5 204zM698 149q63 0 123 15.5t123 52.5l-347 611l-14 -83q-100 -47 -151.5 -111.5t-59.5 -158.5q-6 -69 19.5 -126.5t71 -100t107 -68.5t128.5 -31z" />
    <glyph glyph-name="quotesingle" unicode="'" horiz-adv-x="400" 
d="M414 1500h175l-18 -100q-13 -74 -63.5 -159.5t-135.5 -173.5h-44q15 76 30 142q6 28 11.5 57t11 54.5t9.5 46.5t6 33z" />
    <glyph glyph-name="parenleft" unicode="(" horiz-adv-x="900" 
d="M408 1180q21 120 45 201t63 129.5t100.5 69t159.5 20.5q19 0 39.5 -1.5t38.5 -5t33 -8t23 -10.5l-91 -126l-14 2q-6 1 -15 2t-20 1q-55 0 -84 -21t-44 -57t-22 -83t-16 -99l-213 -1208q-9 -52 -18 -99t-6 -82.5t24.5 -57t73.5 -21.5q11 0 20 0.5t17 1.5l14 3l47 -126
q-11 -6 -27.5 -11t-36 -9t-40.5 -5.5t-40 0.5q-69 5 -114.5 24t-72.5 49t-38.5 69.5t-13 84.5t4.5 94.5t15 98.5z" />
    <glyph glyph-name="parenright" unicode=")" horiz-adv-x="900" 
d="M700 0q-12 -67 -22.5 -124.5t-26 -104.5t-39 -83t-60.5 -60t-91 -36.5t-130 -11.5q-20 0 -40 2t-38 5t-33 7.5t-23 10.5l91 126l14 -3q6 -1 15 -1.5t20 -0.5q51 0 80 21.5t45 57t24 82.5t17 99l213 1208q9 52 15.5 98.5t1.5 81.5t-25.5 56.5t-65.5 23.5q-11 1 -20 -0.5
t-17 -2.5l-14 -2l-47 126q10 6 26.5 10.5t36 8t40.5 5t41 1.5q93 0 145 -33.5t73.5 -91t19 -134t-17.5 -161.5z" />
    <glyph glyph-name="asterisk" unicode="*" horiz-adv-x="1100" 
d="M806 994l106 -192l-115 -90l-113 206l-11 72l-37 -72l-173 -192l-105 67l184 203l73 45l-80 4l-210 73l50 131l224 -77l57 -52l-8 82l42 234l135 14l-44 -252l-40 -80l74 50l238 72l33 -122l-256 -78l-80 -3z" />
    <glyph glyph-name="plus" unicode="+" 
d="M223 700h373l75 423h155l-75 -423h372l-27 -155h-372l-75 -423h-155l75 423h-373z" />
    <glyph glyph-name="comma" unicode="," horiz-adv-x="500" 
d="M125 133q0 31 16 59t40.5 48.5t55.5 30.5t61 6q25 -3 47.5 -14t39 -30.5t26 -48t7.5 -68.5q-3 -53 -18 -106.5t-46.5 -106t-81 -104t-120.5 -100.5l-48 23q49 52 85.5 120.5t43.5 146.5q-45 2 -76.5 36.5t-31.5 107.5z" />
    <glyph glyph-name="hyphen" unicode="-" horiz-adv-x="900" 
d="M305 600h500l-27 -155h-500z" />
    <glyph glyph-name="period" unicode="." horiz-adv-x="500" 
d="M112 150q0 34 17 66.5t44.5 56.5t62 36t69.5 6q34 -6 59.5 -21.5t43 -37.5t26 -49.5t7.5 -56.5q-1 -36 -17.5 -68t-43.5 -55.5t-61 -35.5t-70 -8q-68 8 -103 54.5t-34 112.5z" />
    <glyph glyph-name="slash" unicode="/" horiz-adv-x="1100" 
d="M267 -100h-210l1010 1700h200z" />
    <glyph glyph-name="zero" unicode="0" horiz-adv-x="1300" 
d="M599 -17q-85 10 -147 46.5t-105.5 92.5t-70 128t-39 153.5t-13 170t7.5 176.5q8 91 33 186t65 183t95 165t123 132t148.5 82.5t172.5 18.5q83 -9 145 -44.5t106.5 -91.5t71.5 -129t40.5 -155.5t13.5 -171t-10 -175.5q-11 -92 -37.5 -187t-68 -184t-97 -166t-122.5 -132
t-145.5 -82t-166.5 -16zM438 793q-8 -58 -15 -125.5t-7.5 -136t8.5 -132.5t34 -115.5t68 -85t111 -40.5q58 -6 108.5 15t92.5 61t75.5 95.5t57.5 118.5t38.5 129.5t19.5 129.5q4 58 9.5 126t5.5 136.5t-8.5 132.5t-32 115t-65.5 84t-108 40q-61 6 -111 -14.5t-90.5 -60.5
t-72.5 -95.5t-55 -118.5t-38.5 -129.5t-24.5 -129.5z" />
    <glyph glyph-name="one" unicode="1" horiz-adv-x="1300" 
d="M350 0l28 160h245l170 966l98 227l-169 -186l-245 -188l-87 121l533 420l136 -20l-236 -1340h245l-28 -160h-690z" />
    <glyph glyph-name="two" unicode="2" horiz-adv-x="1300" 
d="M152 0l29 168q61 90 130 168.5t138.5 145t135 121.5t118.5 99q67 56 127 105.5t105 98.5t70.5 99.5t25.5 109.5q-1 91 -49.5 152.5t-154.5 80.5q-57 10 -105 -2.5t-88 -40.5t-71.5 -66t-55.5 -79l-130 60q35 75 85.5 133t113.5 96t138 56t158 12q94 -6 162.5 -44t112 -96
t62.5 -129t15 -144q-4 -78 -41.5 -147.5t-92 -132t-117.5 -117t-118 -102.5q-62 -53 -124 -107t-119.5 -109t-108 -112t-89.5 -117h670l-28 -160h-904z" />
    <glyph glyph-name="three" unicode="3" horiz-adv-x="1300" 
d="M451 1340l43 160h730l-25 -140q-19 -40 -55 -83.5t-82.5 -87.5t-99.5 -87.5t-106 -82.5l-145 -74q10 2 26 2t30 1q73 3 145 -24t127.5 -79.5t86 -126.5t19.5 -165q-13 -105 -57.5 -186.5t-114 -143t-158.5 -104t-190 -69t-209.5 -38.5t-215.5 -12l28 160q79 1 161.5 9.5
t160.5 26.5t148 47t123 71t85.5 99t36.5 130q3 64 -21 112t-70.5 79t-112 45t-144.5 11q-32 -2 -70 -2.5t-68 -2.5l27 155q46 30 101 68t111 79.5t110.5 84t99 81t76.5 72t44 55.5l-159 -40h-416z" />
    <glyph glyph-name="four" unicode="4" horiz-adv-x="1300" 
d="M1127 300h-180l-52 -300h-200l52 300h-595l31 171l669 1049l185 -20l-574 -900l-117 -140h430l71 407l197 -17l-68 -390h195z" />
    <glyph glyph-name="five" unicode="5" horiz-adv-x="1300" 
d="M571 982l26 13q18 9 42 18t51.5 15.5t54.5 6.5q108 0 185 -32t125 -88.5t68 -132.5t15 -163q-7 -110 -47.5 -198.5t-107 -157.5t-155 -118.5t-190.5 -81.5t-213.5 -47.5t-224.5 -15.5l28 160q143 0 269 32t222 90t154 138.5t66 177.5q4 52 -11.5 100t-47 85.5t-78.5 60
t-105 22.5q-82 0 -138.5 -17t-103.5 -49h-114l123 700h743l-28 -160h-545z" />
    <glyph glyph-name="six" unicode="6" horiz-adv-x="1300" 
d="M1165 1344q-6 2 -19.5 2.5t-24.5 0.5q-88 0 -165.5 -22.5t-144.5 -63.5t-123.5 -98t-102 -125.5t-80 -146.5t-57.5 -161l104 117q28 16 64 31.5t75 27t78 18t73 3.5q86 -6 155.5 -30t118 -72.5t73 -124.5t21.5 -187q-2 -73 -24.5 -142.5t-61 -130.5t-91.5 -111
t-117.5 -84.5t-138.5 -51t-154 -10.5q-89 7 -153.5 41t-109 85.5t-71 116.5t-39.5 133.5t-14.5 136t3.5 124.5q10 120 48 233t98.5 212.5t143 182.5t181 142.5t212.5 93t238 33.5q15 0 33 -0.5t27 -2.5zM434 597q-5 -28 -8.5 -51t-5 -45t-1.5 -44.5t2 -49.5q3 -45 19 -87
t45 -76.5t71 -58.5t99 -32q68 -10 129.5 11.5t109 68t78 115.5t38.5 155q9 105 -46.5 174t-166.5 80q-114 11 -205.5 -29t-157.5 -131z" />
    <glyph glyph-name="seven" unicode="7" horiz-adv-x="1300" 
d="M464 1500h893l-23 -130q-8 -42 -51.5 -104.5t-107.5 -141t-140 -171t-147.5 -194.5t-130 -210.5t-88.5 -219.5q-11 -41 -21.5 -85t-19.5 -86.5t-16.5 -83t-13.5 -74.5h-198q5 30 15 80t22.5 106t26.5 111t27 95q35 109 91 213.5t121.5 200t133 179.5t125.5 153
t99.5 120.5t53.5 81.5h-679z" />
    <glyph glyph-name="eight" unicode="8" horiz-adv-x="1300" 
d="M878 1517q87 -4 155.5 -29t114.5 -71t67 -111.5t13 -150.5q-6 -60 -29.5 -106.5t-59 -82.5t-80.5 -65t-93 -55q68 -33 114.5 -75.5t74.5 -95.5t37 -119t2 -146q-7 -75 -34 -137.5t-70 -111.5t-98.5 -85t-117.5 -58.5t-128.5 -31t-131.5 -3.5q-94 7 -172.5 36.5
t-132.5 83.5t-80 133.5t-16 187.5q7 81 39 146t81.5 116.5t112.5 92t132 71.5q-41 29 -73 60.5t-53 67t-30 76.5t-6 90q7 98 50.5 170t108.5 118t144.5 67t158.5 18zM734 760q-68 -27 -127.5 -59t-104.5 -73t-73 -93.5t-31 -120.5q-3 -62 14 -109t49.5 -80t79 -52t102.5 -26
q63 -8 127 8.5t116 52t85.5 88.5t35.5 119q2 69 -19.5 121.5t-59 93.5t-88 72.5t-106.5 57.5zM803 923q50 21 94 45t77 53t52.5 64.5t20.5 77.5q1 51 -14 85.5t-40.5 56t-58 32.5t-66.5 15q-46 5 -93 -8t-85 -39t-62.5 -62t-24.5 -76q0 -47 14.5 -82.5t40.5 -64t63 -52
t82 -45.5z" />
    <glyph glyph-name="nine" unicode="9" horiz-adv-x="1300" 
d="M964 663q-33 -23 -64.5 -40t-63 -28.5t-65 -17t-70.5 -4.5q-87 2 -158.5 32.5t-122 88.5t-77 142.5t-23.5 194.5q3 111 50 205.5t125 161t180 99.5t215 20q98 -11 166 -45.5t112 -84.5t67 -112.5t32.5 -129.5t8.5 -135t-5 -130q-9 -119 -47.5 -231.5t-101.5 -212.5
t-146.5 -183t-182 -143t-209 -93.5t-226.5 -33.5l-2 167q126 3 243.5 48.5t213.5 127.5t162.5 197t89.5 257zM1084 953q3 74 -4 142t-31 121.5t-69 88.5t-117 42t-132 -14.5t-105.5 -62.5t-73.5 -98.5t-35 -122.5q-7 -66 1 -119t34 -92.5t71.5 -63.5t112.5 -31
q53 -6 105 7.5t98 42t83.5 69.5t61.5 91z" />
    <glyph glyph-name="colon" unicode=":" horiz-adv-x="500" 
d="M125 135q0 31 15 60t40 50.5t56 32.5t63 6q30 -6 53 -20t39 -33.5t23.5 -44.5t6.5 -51q-1 -32 -16 -61t-39 -50t-54.5 -32t-63.5 -7q-61 7 -92.5 49t-30.5 101zM215 647q0 31 15 60t40 50.5t56 32.5t63 6q30 -6 53 -20t39 -33.5t23.5 -44.5t6.5 -51q-1 -32 -16 -61
t-39 -50t-54.5 -32t-63.5 -7q-61 7 -92.5 49t-30.5 101z" />
    <glyph glyph-name="semicolon" unicode=";" horiz-adv-x="500" 
d="M125 133q0 31 16 59t40.5 48.5t55.5 30.5t61 6q25 -3 47.5 -14t39 -30.5t26 -48t7.5 -68.5q-3 -53 -18 -106.5t-46.5 -106t-81 -104t-120.5 -100.5l-48 23q49 52 85.5 120.5t43.5 146.5q-45 2 -76.5 36.5t-31.5 107.5zM214 647q0 31 15 60t40 50.5t56 32.5t63 6
q30 -6 53 -20t39 -33.5t23.5 -44.5t6.5 -51q-1 -32 -16 -61t-39 -50t-54.5 -32t-63.5 -7q-61 7 -92.5 49t-30.5 101z" />
    <glyph glyph-name="less" unicode="&#x3c;" horiz-adv-x="1300" 
d="M1307 1187l-31 -175l-752 -366l-81 -20l73 -20l624 -364l-31 -175l-817 457l37 209z" />
    <glyph glyph-name="equal" unicode="=" horiz-adv-x="1100" 
d="M341 800h700l-28 -155h-700zM270 400h700l-27 -155h-700z" />
    <glyph glyph-name="greater" unicode="&#x3e;" horiz-adv-x="1300" 
d="M1227 733l-37 -209l-979 -457l31 175l752 364l81 20l-75 20l-622 366l31 175z" />
    <glyph glyph-name="question" unicode="?" horiz-adv-x="1100" 
d="M1201 1144q-4 -81 -39 -141.5t-86 -110t-111.5 -93.5t-116.5 -94t-100.5 -111t-63.5 -144l-214 -21q18 88 49.5 156t71 120.5t84 93t88.5 74.5t84.5 64t72 62t51.5 69t22 84q3 51 -13.5 88t-46.5 62t-71 37t-89 12q-88 0 -170.5 -39t-153.5 -122l-113 110
q52 62 110.5 103.5t121 67t128 36t131.5 10.5q78 0 148.5 -22t122 -67.5t80 -116t23.5 -167.5zM425 120q0 27 13.5 53t35.5 45.5t49.5 29t55.5 4.5q27 -5 47.5 -17.5t34.5 -30t21 -39.5t6 -45q-1 -29 -14 -54.5t-35 -44.5t-49 -28.5t-56 -6.5q-54 7 -82 44t-27 90z" />
    <glyph glyph-name="at" unicode="@" horiz-adv-x="2000" 
d="M1355 930q-18 8 -43.5 14t-48.5 9q-27 4 -56 5q-102 0 -178 -35t-129 -96t-84 -142t-42 -173t-1.5 -160.5t34 -115t62 -69.5t82.5 -23q52 0 96 14t80.5 37t67 52t54.5 59zM1409 180q-4 -27 3 -44.5t21.5 -28.5t34 -16t39.5 -6q46 -3 84 32.5t67.5 97t50.5 142.5
t32.5 170.5t13 181t-8.5 173t-31 147t-55 103.5q-44 49 -88 83.5t-94 56t-110.5 32.5t-138.5 13q-157 4 -283.5 -50t-220.5 -153.5t-155.5 -238t-87.5 -302.5q-17 -106 -17.5 -208.5t18 -194.5t56 -170.5t97 -135.5t142 -90t189.5 -34q50 -1 98 6.5t90 19.5t76 26.5t56 28.5
l53 -150q-96 -47 -196.5 -69.5t-213.5 -21.5q-130 0 -234 37t-182.5 102t-132.5 154t-84.5 194t-38 222.5t6.5 238.5t53 239.5t101.5 226t147.5 199t191.5 156.5t233.5 99.5t273 29.5q91 -3 167.5 -17t142 -42t122.5 -71.5t108 -106.5q46 -56 77.5 -128.5t49 -154.5
t22 -171.5t-3.5 -179t-27.5 -177.5t-50.5 -167q-38 -97 -84 -159t-99.5 -96.5t-114.5 -46t-128 -6.5q-81 5 -140 54.5t-82 152.5l-115 -113q-21 -17 -41.5 -29.5t-45 -20.5t-56.5 -12t-76 -4q-82 0 -143.5 41.5t-100 115.5t-52 175t0.5 221q13 111 59.5 216t126.5 186.5
t194.5 130.5t264.5 49q61 -5 120 -13q51 -7 105.5 -17t95.5 -25z" />
    <glyph glyph-name="A" unicode="A" horiz-adv-x="1300" 
d="M61 0l652 1300l70 200l222 20l230 -1520h-190l-69 450h-495l-225 -450h-195zM888 1360l-82 -260l-250 -500h397l-75 500z" />
    <glyph glyph-name="B" unicode="B" horiz-adv-x="1300" 
d="M619 1359l-17 -212l-46 -262h110q72 0 138.5 14t119 45.5t87 81.5t41.5 122q6 66 -15 109.5t-60.5 69.5t-92.5 37t-110 11q-17 0 -37.5 -1t-41.5 -3.5t-40.5 -5.5t-35.5 -6zM200 0l227 1290l5 200q30 4 69 8t80 6.5t80.5 4t71.5 1.5q111 0 207.5 -15.5t166 -54
t106 -104.5t27.5 -167q-6 -66 -28 -116t-55 -87.5t-74.5 -63t-85.5 -42.5l-162 -44l145 -14q58 -18 105 -46t78.5 -69t45.5 -97t6 -130q-14 -129 -70.5 -217t-141 -142t-190.5 -77.5t-217 -23.5h-396zM428 160h140q102 0 182 12.5t136.5 45.5t90 89t44.5 143q9 76 -11.5 129
t-63.5 86.5t-104 49t-134 15.5h-180z" />
    <glyph glyph-name="C" unicode="C" 
d="M1118 95q-20 -14 -56 -33t-88 -36.5t-121 -30t-156 -12.5q-135 0 -233 60.5t-157.5 166.5t-80 250t-1.5 310t78.5 303.5t153.5 236t220 153t278 54.5q243 0 375 -132l-98 -122q-32 22 -64 37t-67 24t-74.5 13t-85.5 4q-106 -1 -195 -41.5t-156 -114.5t-109 -178.5
t-55 -233.5q-7 -70 -9 -142.5t6 -141.5t28.5 -130t59 -107t97.5 -72.5t144 -26.5q45 0 86 6t80 18t78 29.5t80 40.5z" />
    <glyph glyph-name="D" unicode="D" horiz-adv-x="1300" 
d="M394 1500q31 3 72 5t84.5 3.5t85.5 2t75 0.5q159 0 281 -38.5t201.5 -122.5t113 -217t15.5 -323q-14 -149 -56 -266.5t-106 -207.5t-146 -154t-176 -104.5t-196 -59t-206 -18.5h-276l227 1290zM562 1150q-12 -67 -35 -197q-10 -56 -23 -131t-30 -172.5t-38.5 -219
t-47.5 -270.5h20q145 0 251.5 26t182.5 71.5t126 106.5t81.5 131t48.5 145t28 148q18 120 10 224t-56.5 181t-145 121t-254.5 44q-16 0 -34 -1t-35 -3l-38 -4z" />
    <glyph glyph-name="E" unicode="E" 
d="M1073 160l-48 -160h-840l50 200l192 1090l7 210h840l-28 -160h-630l-14 -190l-46 -265h540l-26 -145h-540l-71 -400l-41 -180h655z" />
    <glyph glyph-name="F" unicode="F" horiz-adv-x="1100" 
d="M400 0h-200l227 1290l7 210h875l-48 -160h-645l-14 -190l-46 -265h540l-26 -145h-540z" />
    <glyph glyph-name="G" unicode="G" horiz-adv-x="1400" 
d="M998 1517q48 0 95 -11t90.5 -29t81 -42t65.5 -50l-98 -122q-24 19 -55.5 33.5t-66.5 24.5t-71 15t-68 5q-122 0 -215 -38t-159.5 -111t-109 -178.5t-61.5 -240.5q-10 -71 -12 -145.5t8 -144.5t34 -131.5t65 -107t101 -70.5t142 -21q112 5 186 33t113 72l68 387l-314 20
l24 140h500l-107 -608q-33 -35 -77.5 -73t-107 -69.5t-146.5 -51.5t-198 -20q-144 0 -244.5 62t-159 168.5t-77 250t0.5 306.5q20 170 79 308t156.5 235.5t232 150.5t305.5 53z" />
    <glyph glyph-name="H" unicode="H" horiz-adv-x="1400" 
d="M1015 0l127 725h-630l-127 -725h-195l227 1290l8 210l228 20l-112 -635h630l108 617l199 18l-268 -1520h-195z" />
    <glyph glyph-name="I" unicode="I" horiz-adv-x="600" 
d="M200 0l227 1290l7 210l234 20l-268 -1520h-200z" />
    <glyph glyph-name="J" unicode="J" horiz-adv-x="900" 
d="M543 1497l425 23l-193 -1090q-19 -108 -53.5 -191.5t-91 -140t-138 -86t-193.5 -29.5q-41 0 -81.5 13.5t-76.5 33.5t-65 43t-46 42l113 118q9 -10 26 -23.5t40.5 -25.5t52.5 -20t62 -8q69 0 113 19.5t71.5 58.5t43.5 98t30 138l120 678l53 190l-222 -13z" />
    <glyph glyph-name="K" unicode="K" 
d="M200 0l227 1290l7 210l234 20l-118 -664l655 644h222l-643 -635l-180 -63l164 -58l422 -744h-237l-422 746l-131 -746h-200z" />
    <glyph glyph-name="L" unicode="L" horiz-adv-x="1100" 
d="M418 160h650l-48 -160h-840l55 200l192 1090l7 210l234 20l-209 -1180z" />
    <glyph glyph-name="M" unicode="M" horiz-adv-x="1800" 
d="M1400 0l176 1000l100 320l-5 1l-154 -301q-160 -251 -285 -448q-54 -84 -105 -164.5t-91.5 -142.5t-65 -99.5t-25.5 -35.5h-69l-229 790l-62 401l-6 -1l-21 -419l-158 -901h-192l227 1290l9 210l230 20l273 -940l9 -260l101 260l591 920l220 20l-268 -1520h-200z" />
    <glyph glyph-name="N" unicode="N" horiz-adv-x="1500" 
d="M1100 0l-434 1028l-66 289l-6 -1l-18 -316l-176 -1000h-192l227 1290l7 210l232 20l433 -1033l65 -314l6 1l11 336l175 990l193 20l-268 -1520h-189z" />
    <glyph glyph-name="O" unicode="O" horiz-adv-x="1600" 
d="M797 -17q-146 8 -254.5 66.5t-176.5 158.5t-94 237.5t-6 304.5q20 171 82.5 315t164 247t241 158t313.5 47q144 -6 251.5 -64.5t175.5 -159t95 -239t9 -304.5q-19 -174 -82 -319.5t-165.5 -248t-242 -156t-311.5 -43.5zM1394 719q11 121 -0.5 230.5t-53 194t-117 138.5
t-192.5 65q-84 7 -155.5 -11.5t-131 -57t-107 -93.5t-82 -120t-56 -136.5t-29.5 -143.5q-14 -123 -2.5 -234.5t54 -197.5t118.5 -139.5t192 -60.5q90 -5 165 15t135 59t106 94t78.5 119.5t51.5 135.5t26 143z" />
    <glyph glyph-name="P" unicode="P" 
d="M510 624l-110 -624h-200l227 1290v200q31 5 74 9t90.5 7t95 4.5t86.5 1.5q115 0 213 -23.5t167 -73t103.5 -127t22.5 -184.5q-17 -151 -82 -248.5t-167 -152t-235 -71.5t-285 -8zM602 1147l-68 -382q135 -10 235.5 4.5t169 55t106.5 107.5t48 163q7 73 -19 126
t-70.5 87.5t-101 50.5t-108.5 16q-17 0 -40.5 -1.5t-48 -3.5t-47.5 -5t-39 -6z" />
    <glyph glyph-name="Q" unicode="Q" horiz-adv-x="1600" 
d="M1460 -1l-82 -144q-56 0 -110 12t-102.5 41t-89.5 76t-72 118q-4 9 -6.5 18t-6.5 17l-35 -138q-38 -8 -77.5 -12t-81.5 -4q-138 0 -245.5 56.5t-177.5 157.5t-99 242t-9 311q21 176 83.5 320t164 245.5t240.5 154.5t313 47q105 -4 188 -34t145 -81.5t104.5 -122
t66.5 -154.5t30 -179t-3 -196q-12 -131 -45.5 -234t-82.5 -183.5t-112 -141.5t-134 -108q22 -37 44 -54.5t49 -24t61.5 -6t81.5 0.5zM1394 719q15 121 -1 232.5t-62 198t-121 140t-179 57.5q-121 5 -217.5 -34t-167.5 -113.5t-115.5 -180.5t-60.5 -234q-15 -117 -3 -230
t55 -202.5t119.5 -144.5t190.5 -55q38 0 74.5 5t68.5 14q-21 45 -44 71t-50.5 39t-63 16t-82.5 3l82 144q55 0 105 -12t95 -42t84.5 -82t74.5 -132l11 92q43 39 78 91t61 111t43 122.5t25 125.5z" />
    <glyph glyph-name="R" unicode="R" horiz-adv-x="1300" 
d="M508 619l-108 -619h-200l227 1290v200q34 4 79.5 8t94.5 7t99 4.5t93 2.5q133 2 228.5 -28.5t154.5 -85.5t84 -131.5t18 -167.5q-10 -124 -57.5 -211t-118 -142.5t-158 -83t-176.5 -33.5l126 -36l339 -593h-223l-339 600q-8 14 -21.5 16.5t-21.5 2.5h-120zM602 1147
l-68 -384h148q183 0 286.5 80.5t126.5 239.5q10 66 -13 119.5t-66.5 92t-102 59.5t-119.5 21q-42 0 -90.5 -2t-83.5 -9z" />
    <glyph glyph-name="S" unicode="S" horiz-adv-x="1100" 
d="M1098 1252q-65 52 -126.5 76t-135.5 22q-63 -2 -122 -20.5t-104 -51t-71.5 -77.5t-24.5 -100q1 -52 26 -89.5t65.5 -68t91 -56.5t103.5 -54.5t103.5 -63t90 -81t63.5 -109t24 -147.5q0 -111 -49.5 -198t-132.5 -145.5t-190.5 -86t-223.5 -19.5q-118 8 -212.5 50
t-164.5 101l118 150q24 -22 53 -44t63 -41t73.5 -32.5t84.5 -18.5q57 -7 123.5 5t123 46t93.5 92t37 142q0 55 -24.5 96.5t-64.5 75t-91 62t-104 58.5t-103.5 64.5t-90.5 80.5t-64 106t-24 140q0 100 44.5 175.5t118.5 125.5t169.5 75t197.5 25q62 0 117 -13t102 -34
t85.5 -47t68.5 -52z" />
    <glyph glyph-name="T" unicode="T" 
d="M505 0l236 1340h-415l28 160h1025l-28 -160h-410l-236 -1340h-200z" />
    <glyph glyph-name="U" unicode="U" horiz-adv-x="1400" 
d="M1476 1500l-172 -977q-27 -156 -85.5 -262.5t-140 -170.5t-182.5 -88.5t-214 -18.5q-107 6 -190.5 47.5t-136.5 116t-71.5 181.5t5.5 245l126 717l7 210l231 20l-171 -966q-14 -81 -10 -142t20.5 -105t43.5 -73t58.5 -46.5t64.5 -25t62 -9.5q78 -4 142 20.5t113 72
t81 113.5t46 145l176 996h197z" />
    <glyph glyph-name="V" unicode="V" horiz-adv-x="1300" 
d="M673 500l24 -360l104 314l514 1046h189l-652 -1320l-61 -200l-242 20l-218 1500l199 20z" />
    <glyph glyph-name="W" unicode="W" horiz-adv-x="1900" 
d="M1136 1500h157l76 -1040v-360h4l87 360l443 1040h175l-638 -1500h-232l-65 885l34 358l-127 -358l-377 -885h-232l-110 1500l195 20l77 -1060v-360h4l86 360z" />
    <glyph glyph-name="X" unicode="X" horiz-adv-x="1300" 
d="M1014 0l-222 519l-45 181l-76 -160l-420 -540h-198l620 799l-299 701l216 20l196 -464l45 -196l63 160l373 480h200l-563 -724l330 -776h-220z" />
    <glyph glyph-name="Y" unicode="Y" 
d="M814 935l388 565h192l-586 -854l-113 -646h-200l113 645l-285 855l208 20l178 -566l35 -249z" />
    <glyph glyph-name="Z" unicode="Z" 
d="M1118 160l-8 -160h-1029l-12 50l858 1150l216 180l-272 -40h-485l8 160h946l11 -22l-869 -1178l-209 -180l272 40h573z" />
    <glyph glyph-name="bracketleft" unicode="[" horiz-adv-x="900" 
d="M354 1320l14 200h566l-27 -150h-372l-15 -200l-219 -1240l-55 -200h372l-27 -150h-566l58 200z" />
    <glyph glyph-name="backslash" unicode="\" horiz-adv-x="1100" 
d="M363 1600h194l410 -1700h-204z" />
    <glyph glyph-name="bracketright" unicode="]" horiz-adv-x="1000" 
d="M633 -220l-14 -200h-566l27 150h372l15 200l219 1240l55 200h-372l27 150h566l-58 -200z" />
    <glyph glyph-name="asciicircum" unicode="^" horiz-adv-x="1500" 
d="M1533 912h-201l-320 327l-25 111l-64 -109l-424 -327h-216l658 586l132 17z" />
    <glyph glyph-name="underscore" unicode="_" horiz-adv-x="1100" 
d="M-52 -300h1099l-28 -155h-1099z" />
    <glyph glyph-name="grave" unicode="`" horiz-adv-x="1100" 
d="M871 1200h-150l-172 300l208 20z" />
    <glyph glyph-name="a" unicode="a" horiz-adv-x="1100" 
d="M927 930q-18 8 -43.5 14t-48.5 9q-27 4 -56 5q-102 0 -178 -35t-129 -96t-84 -142t-42 -173t-1.5 -160.5t34 -115t62 -69.5t82.5 -23q52 0 96 14t80.5 37t67 52t54.5 59zM768 0l28 162l-115 -113q-21 -17 -41.5 -29.5t-45 -20.5t-56.5 -12t-76 -4q-82 0 -143.5 41.5
t-100 115.5t-52 175t0.5 221q13 111 59.5 216t126.5 186.5t194.5 130.5t264.5 49q61 -5 120 -13q51 -7 105.5 -17t95.5 -25l-152 -883l-11 -180h-202z" />
    <glyph glyph-name="b" unicode="b" 
d="M412 171q18 -6 42.5 -11t52 -9t57 -6t57.5 -2q104 -1 173 40.5t113 107.5t66.5 148t33.5 162q11 81 2.5 147t-32.5 112.5t-60.5 71.5t-81.5 25q-43 0 -80.5 -4.5t-73.5 -17t-73 -34.5t-78 -56zM450 1420l12 180l205 20l-114 -646l101 91q56 24 110 38t110 14
q83 0 147 -39.5t105 -109.5t58 -165.5t5 -206.5q-15 -139 -64 -252t-127.5 -193.5t-185 -124t-236.5 -43.5q-25 0 -58 2t-69.5 6t-74 9t-70 10.5t-58.5 12t-40 12.5z" />
    <glyph glyph-name="c" unicode="c" horiz-adv-x="1000" 
d="M959 901q-26 22 -48.5 37t-44 24t-45 13t-51.5 5q-74 3 -140 -25t-118 -83t-86.5 -133t-46.5 -175q-11 -88 -4.5 -164t35.5 -133t83 -93t138 -45q38 -4 70 -1t59.5 11t50.5 20t43 26l51 -118q-57 -42 -138.5 -67t-175.5 -20q-127 7 -209 54t-126.5 126t-56 185t1.5 232
q7 72 30 141.5t60 132t87.5 114.5t114.5 88.5t140 54.5t164 12q46 -3 83 -12t69.5 -24.5t62.5 -38.5t62 -54z" />
    <glyph glyph-name="d" unicode="d" 
d="M821 940q-102 0 -179 -34t-131 -93t-84.5 -139t-38.5 -172q-8 -91 2 -158.5t34 -111.5t60 -66t81 -22q52 0 96 14t80.5 37t67 52t54.5 59l112 634h-154zM810 0l28 162l-115 -113q-21 -17 -41.5 -29.5t-45 -20.5t-56.5 -12t-76 -4q-82 0 -142 40.5t-97.5 112.5
t-51.5 171.5t-4 218.5q9 112 55 215.5t127 183t197 127.5t266 48h149l92 520l179 -20l-251 -1420l-11 -180h-202z" />
    <glyph glyph-name="e" unicode="e" horiz-adv-x="1100" 
d="M957 103q-30 -28 -66 -51t-81 -39t-99 -24t-119 -6q-126 4 -207.5 53t-125.5 127.5t-56 178.5t1 208q13 110 54.5 212.5t112 181t169 126t226.5 47.5q94 0 163.5 -34.5t111.5 -97t56 -149t-2 -190.5q-5 -31 -12.5 -57t-15.5 -46q-9 -23 -18 -43h-671q-20 -79 -11 -143.5
t40.5 -110.5t81 -72.5t111.5 -30.5q50 -3 92 1.5t75.5 13.5t58 20t39.5 21zM914 650q2 3 5 16t5.5 29.5t4 32t1.5 24.5q0 36 -9.5 71.5t-30.5 65t-55 48.5t-82 21q-76 3 -128.5 -15t-89.5 -50.5t-62 -74.5t-45 -86l-72 -109l193 27h365z" />
    <glyph glyph-name="f" unicode="f" horiz-adv-x="800" 
d="M373 940h-150l28 160h150l28 155q18 97 49 167.5t78.5 115t113.5 64t153 15.5q45 -2 80 -9.5t63 -19.5t50 -27t40 -32l-95 -123q-32 26 -72.5 44t-82.5 15q-38 -3 -70 -12t-57 -32.5t-44 -65.5t-31 -110l-26 -145h290l-48 -160h-265l-165 -940q-23 -109 -49 -190.5
t-67.5 -135t-103.5 -77.5t-155 -17q-60 5 -92.5 18.5t-43.5 19.5l65 144q11 -4 35 -12.5t54 -9.5q45 -2 74 15.5t47.5 51.5t30.5 82.5t23 110.5z" />
    <glyph glyph-name="g" unicode="g" 
d="M841 135l-106 -110q-10 -6 -26.5 -14t-40.5 -15t-55 -11t-70 -2q-88 5 -154.5 49t-109 118t-60 175t-7.5 220q10 118 55 224.5t118.5 186t173 124t219.5 37.5q37 -2 80.5 -14.5t72.5 -32.5l55 -112l29 162l178 -20l-202 -1146q-20 -112 -68 -203t-120 -154t-167 -93.5
t-208 -20.5q-78 7 -134.5 27.5t-93.5 43.5q-43 26 -72 58l117 110q26 -18 59 -34q28 -14 67 -27t87 -18q69 -8 128 12.5t105 64t76.5 107.5t44.5 142zM965 834q-27 32 -60 58q-29 23 -69 42t-89 23q-58 4 -105.5 -11.5t-85.5 -46t-67 -72t-49 -90t-32.5 -101t-16.5 -103.5
q-15 -173 29.5 -273.5t158.5 -115.5q51 -7 93 2t77 28t63.5 45.5t53.5 55.5z" />
    <glyph glyph-name="h" unicode="h" 
d="M382 0h-182l246 1400l16 200l205 20l-118 -670l98 104q30 21 58.5 33.5t55.5 19t54 8.5t55 2q69 0 120.5 -31t83 -84t42 -123.5t-3.5 -148.5l-128 -730h-182l125 709q9 52 4.5 96t-21 76.5t-43.5 52t-63 23.5t-75 -3t-76 -23t-69.5 -41t-55.5 -57z" />
    <glyph glyph-name="i" unicode="i" horiz-adv-x="600" 
d="M390 0h-182l186 1055l185 20zM468 1500h192l-35 -200h-192z" />
    <glyph glyph-name="j" unicode="j" horiz-adv-x="600" 
d="M468 1500h192l-35 -200h-192zM-74 -335q11 -4 35 -12.5t54 -9.5q45 -2 73.5 14t47.5 48t30.5 79t22.5 109l205 1162l185 20l-207 -1172q-20 -111 -46 -193t-68 -134.5t-105 -76t-156 -16.5q-60 5 -92.5 18.5t-43.5 19.5z" />
    <glyph glyph-name="k" unicode="k" horiz-adv-x="1100" 
d="M200 0l250 1420l12 180l205 20l-164 -930l442 410h229l-442 -410l-179 -63l157 -60l382 -567h-236l-376 557l-98 -557h-182z" />
    <glyph glyph-name="l" unicode="l" horiz-adv-x="700" 
d="M448 376q-15 -77 -17 -121t8 -67.5t31 -32t52 -12.5q15 -2 33 0.5t33 6.5q18 4 35 11l48 -121q-11 -11 -27.5 -21t-40 -18t-55.5 -13t-74 -5q-84 0 -132 37.5t-69 97.5t-19.5 134t16.5 148l176 1000l16 200l205 20z" />
    <glyph glyph-name="m" unicode="m" horiz-adv-x="1800" 
d="M382 0h-182l193 1100l186 20l-32 -183l80 107q24 17 49 30.5t55.5 23t69 14.5t89.5 5t92 -15.5t71.5 -42t49.5 -63t25 -78.5l94 122q21 18 47.5 33.5t59 26.5t69.5 16t79 1q75 -8 124 -37.5t75 -77t30.5 -112t-8.5 -140.5l-132 -750h-182l130 740q8 45 5.5 84t-16.5 67.5
t-41.5 45.5t-69.5 20q-34 2 -67.5 -5.5t-66.5 -23.5t-66 -38.5t-65 -50.5q-1 -15 -2 -26t-2.5 -22t-3.5 -23t-5 -28l-130 -740h-182l130 740q17 97 -17 154.5t-110 62.5q-30 2 -64 -4.5t-70 -21.5t-72 -37t-69 -50z" />
    <glyph glyph-name="n" unicode="n" 
d="M382 0h-182l193 1100l186 20l-32 -183l80 107q25 17 50 31.5t55.5 25t69.5 15t93 1.5q71 -5 119.5 -35t75.5 -79.5t33 -114.5t-7 -138l-132 -750h-182l132 750q16 92 -14.5 147t-109.5 60q-34 2 -70 -5.5t-72.5 -23t-71.5 -37t-66 -47.5z" />
    <glyph glyph-name="o" unicode="o" 
d="M596 -17q-110 7 -190 51t-129 118.5t-67 176t-5 224.5q13 122 64 228t130 183t180.5 118.5t215.5 34.5q110 -6 190 -49.5t129.5 -117t68.5 -174.5t6 -223q-13 -125 -65 -232t-131.5 -184.5t-181.5 -119t-215 -34.5zM999 500q15 80 17 155t-18.5 136t-67.5 104t-130 60
q-80 16 -149.5 -10t-122.5 -78t-88 -123t-47 -145q-13 -83 -14.5 -158.5t18 -136t65.5 -102t129 -56.5q78 -15 146.5 11.5t122 78t89.5 121.5t50 143z" />
    <glyph glyph-name="p" unicode="p" 
d="M574 160q108 0 183 29.5t125 84.5t78.5 132t42.5 172q12 82 5 149t-30 115.5t-60.5 77.5t-87.5 37q-45 7 -85.5 0t-77.5 -25t-71.5 -45t-68.5 -60l-117 -667h164zM293 -500h-182l282 1600l186 20l-31 -176l95 103q20 13 41 25.5t45.5 22.5t55 16t69.5 6q84 0 153.5 -37
t115 -107.5t62.5 -173t-2 -234.5q-18 -122 -65 -225.5t-128 -179t-197.5 -118t-273.5 -42.5h-137z" />
    <glyph glyph-name="q" unicode="q" 
d="M982 935q-36 8 -91.5 14t-110.5 8q-69 3 -122.5 -14.5t-94.5 -50t-70.5 -76.5t-49.5 -93t-31.5 -100.5t-16.5 -98.5q-10 -95 -2.5 -163.5t29 -114t56.5 -71t80 -32.5q39 -6 79 1t79.5 25t77 44t71.5 57zM841 136l-123 -107q-28 -12 -51 -20.5t-45.5 -14.5t-47 -8.5
t-55.5 -2.5q-81 0 -143.5 37t-103 106.5t-58 170t-6.5 227.5q12 139 64 252t133 191.5t185.5 117.5t221.5 32q63 -4 109.5 -8t87.5 -9.5t83 -14t95 -20.5l-276 -1565h-182z" />
    <glyph glyph-name="r" unicode="r" horiz-adv-x="800" 
d="M800 950q-36 -3 -74.5 -18t-75.5 -40.5t-71.5 -61t-64.5 -80.5l-132 -750h-182l193 1100l186 20l-40 -225l131 175q30 19 73 31.5t94 15.5q33 2 57.5 -1.5t40.5 -8.5q18 -6 32 -14l-41 -158q-14 5 -43 12.5t-83 2.5z" />
    <glyph glyph-name="s" unicode="s" horiz-adv-x="900" 
d="M823 919q-17 9 -39.5 19t-48 18.5t-52 14t-51.5 5.5q-113 2 -170.5 -35.5t-59.5 -105.5q-1 -43 15.5 -68.5t50.5 -45t85 -38.5t119 -48q44 -19 79.5 -48.5t60.5 -66.5t37 -80t9 -89q-8 -102 -51.5 -175t-110.5 -118t-151.5 -63.5t-173.5 -11.5q-34 3 -76 9.5t-83 17.5
t-77.5 26t-58.5 33l89 132q22 -12 52 -24t63 -21.5t66 -16t60 -6.5q58 0 106.5 11t84 33.5t56.5 58t24 84.5q3 46 -8 76t-40.5 54t-80 47.5t-126.5 55.5q-46 19 -80.5 43t-57 56.5t-32.5 76.5t-8 103q2 64 30.5 119.5t81.5 95t129 58.5t174 12q38 -3 74 -9.5t68 -15.5
t58 -20.5t44 -24.5z" />
    <glyph glyph-name="t" unicode="t" horiz-adv-x="800" 
d="M448 376q-17 -77 -18.5 -122.5t10 -70.5t33 -32.5t49.5 -7.5q18 0 36.5 2.5t32.5 6.5q17 4 32 9l48 -121q-14 -8 -29 -18.5t-36.5 -19.5t-53.5 -15t-78 -4q-80 3 -127.5 36.5t-69.5 89.5t-22 130.5t15 160.5l95 540h-150l28 160h150l37 209l197 111l-57 -320h340
l-48 -160h-315z" />
    <glyph glyph-name="u" unicode="u" 
d="M1011 1100l186 20l-197 -1120h-182l28 163l-63 -84q-17 -22 -42.5 -41.5t-58.5 -33t-74 -19.5t-90 -2q-80 7 -132 42.5t-79.5 89t-32.5 120.5t7 137l128 728l186 20l-132 -748q-8 -44 -4.5 -82.5t20.5 -68.5t47.5 -50.5t76.5 -27.5q33 -6 69 1.5t70.5 24t65.5 40t55 49.5
z" />
    <glyph glyph-name="v" unicode="v" horiz-adv-x="1100" 
d="M1202 1120l-572 -1140l-202 20l-164 1100l187 20l109 -739l12 -232l91 232l360 719z" />
    <glyph glyph-name="w" unicode="w" horiz-adv-x="1500" 
d="M1081 480l-7 -280l89 280l280 620l165 17l-505 -1117h-152l-62 620l11 280l-90 -280l-280 -620h-152l-110 1100l176 20l63 -640l-6 -280l89 280l280 620h148z" />
    <glyph glyph-name="x" unicode="x" horiz-adv-x="1100" 
d="M851 0l-201 382l-24 118l-66 -118l-335 -382h-199l515 588l-268 512l215 16l175 -335l20 -111l57 111l281 319l214 17l-468 -534l309 -583h-225z" />
    <glyph glyph-name="y" unicode="y" horiz-adv-x="1100" 
d="M646 364l398 736l193 17l-613 -1134q-65 -120 -116 -207.5t-101 -144.5t-104.5 -84.5t-125.5 -26.5q-51 1 -96.5 21t-80.5 56l92 107q14 -12 35 -21.5t45 -10.5q37 -1 65.5 12.5t58 46t64 87t82.5 135.5l-215 1147l173 17q11 -56 22 -118q10 -54 22.5 -121t26.5 -138
q31 -165 71 -376l11 -232z" />
    <glyph glyph-name="z" unicode="z" horiz-adv-x="1000" 
d="M908 160l-8 -160h-819l-12 50l600 776l179 154l-212 -40h-323l8 160h704l12 -49l-585 -771l-179 -160l212 40h423z" />
    <glyph glyph-name="braceleft" unicode="{" horiz-adv-x="1298" 
d="M348 625h122q58 6 91.5 23.5t53 48t29.5 76t21 107.5l42 239q19 108 48 185.5t74.5 127t110.5 70.5t157 17q45 -2 76 -6t54.5 -9.5t43.5 -13.5t42 -18l-85 -123q-29 15 -67 20.5t-69 4.5q-52 -2 -84.5 -18t-53.5 -47t-33.5 -78.5t-23.5 -111.5l-42 -239q-12 -71 -24 -121
t-30 -87.5t-44.5 -66t-67.5 -55.5q18 -21 31 -59.5t19.5 -84.5t6 -95t-7.5 -91l-42 -240q-11 -62 -16.5 -110t3.5 -80t36.5 -48.5t81.5 -16.5q8 -2 16 -2h16q12 0 27.5 2t31 6t30 8.5t24.5 10.5l42 -123q-23 -10 -45 -19.5t-48.5 -16t-60 -10t-79.5 -1.5q-91 3 -146 39.5
t-82 93t-30 126.5t9 141l42 240q11 64 15.5 112t-5 79.5t-36.5 47.5t-79 16h-122z" />
    <glyph glyph-name="bar" unicode="|" horiz-adv-x="400" 
d="M562 1520l-339 -1920h-194l335 1900z" />
    <glyph glyph-name="braceright" unicode="}" 
d="M1147 481h-122q-58 -6 -91.5 -23.5t-53 -48t-29.5 -76t-21 -107.5l-42 -239q-19 -108 -48 -185.5t-74.5 -127t-111 -71t-156.5 -16.5q-45 2 -76 6t-54.5 9.5t-43.5 13.5t-42 18l85 123q29 -15 67 -20.5t69 -4.5q52 2 84.5 18t53.5 47t33.5 78t23.5 112l42 239
q12 70 24 120.5t30 88t44.5 66t67.5 55.5q-18 21 -31 59.5t-19.5 84.5t-6.5 95t8 91l42 240q11 62 16.5 109.5t-3.5 80t-36.5 49t-81.5 16.5q-8 2 -16 2h-16q-12 0 -27.5 -2t-31 -6t-30 -8.5t-24.5 -10.5l-42 123q23 10 45 19.5t48.5 16t60 10t79.5 1.5q91 -3 146 -39.5
t82 -93t30 -126.5t-9 -141l-42 -240q-11 -64 -15.5 -112t5 -79.5t36.5 -47.5t79 -16h122z" />
    <glyph glyph-name="asciitilde" unicode="~" horiz-adv-x="1500" 
d="M278 484q19 66 58.5 127.5t92 107.5t115 70t128.5 16q45 -6 83.5 -24t73 -41t67 -47.5t64.5 -43.5t65 -29t70 -4q72 12 120.5 54t83.5 122l143 -16q-20 -73 -61 -142t-95.5 -120t-119 -77.5t-130.5 -14.5q-36 6 -71 24.5t-70 41.5t-70 47.5t-70 43t-70 28.5t-71 4
q-61 -11 -110 -44t-80 -99z" />
    <glyph glyph-name="nonbreakingspace" unicode="&#xa0;" horiz-adv-x="700" 
 />
    <glyph glyph-name="exclamdown" unicode="&#xa1;" horiz-adv-x="700" 
d="M166 -403l185 1050l214 21l-189 -1071h-210zM643 977q0 -28 -13.5 -54t-35.5 -45t-49.5 -28.5t-55.5 -4.5q-54 10 -82 47.5t-27 84.5q1 29 14.5 54.5t35 44.5t48.5 28.5t56 6.5q55 -7 82.5 -44t26.5 -90z" />
    <glyph glyph-name="cent" unicode="&#xa2;" horiz-adv-x="1000" 
d="M905 1320l-36 -207q51 -8 92 -25q68 -28 119 -97l-119 -113q-34 35 -83 57q-12 5 -24.5 9.5t-26.5 6.5l-141 -798q25 2 46.5 6t41.5 11q57 18 90 38l47 -141q-63 -39 -141 -61q-23 -7 -48 -12t-52 -7l-33 -187h-146l33 188q-38 5 -73 16t-64 28q-65 46 -105 108
t-60 135.5t-22.5 156t6.5 169.5q10 90 43 165.5t82 135.5t110.5 103t127.5 66q36 13 74 24.5t80 16.5l33 188zM624 925q-45 -15 -85 -46t-72 -76.5t-53.5 -105.5t-28.5 -133q-7 -70 -4.5 -127t15 -103t36.5 -83t61 -66q14 -11 33 -16.5t40 -10.5l140 794q-23 -4 -42.5 -12
t-39.5 -15z" />
    <glyph glyph-name="sterling" unicode="&#xa3;" horiz-adv-x="1100" 
d="M399 850h161l101 315q33 102 65.5 170t75 108.5t99.5 58t139 18.5q51 1 92 -7.5t74 -25.5q67 -33 90 -59l-108 -101q-8 5 -23 12t-33 13.5t-37 12t-35 7.5q-45 6 -77 -1t-56.5 -33.5t-46 -74t-45.5 -122.5l-93 -291h207l-46 -150h-208q-132 -437 -168 -476l-109 -120
l169 43h438l-25 -147h-946l45 147h138q35 0 83 50q47 48 193 503h-140z" />
    <glyph glyph-name="currency" unicode="&#xa4;" 
d="M1101 222l-119 -101l-128 157q-13 -18 -40.5 -33t-63.5 -24.5t-77.5 -13t-82.5 2.5t-78 22.5t-64 45.5l-184 -157l-83 101l184 156q-28 59 -34 119t5.5 114.5t38 99t62.5 73.5l-130 156l119 102l129 -157q20 24 53.5 38t73 19.5t82.5 4t81.5 -9.5t69 -21.5t46.5 -30.5
l183 157l83 -102l-183 -156q21 -24 32 -72.5t5 -106.5t-32 -118.5t-77 -108.5zM519 424q34 -38 75 -54.5t84.5 -15t86 19.5t78.5 50q33 28 56 68t31.5 83.5t-1 86t-40.5 76.5q-33 35 -75 47.5t-85.5 9t-84 -19.5t-69.5 -37q-40 -30 -62 -73.5t-28 -88.5t3 -86t31 -66z" />
    <glyph glyph-name="yen" unicode="&#xa5;" 
d="M196 550h395l17 95l-18 55h-367l26 150h290l-216 650l208 20l188 -566l35 -249l70 230l388 565h192l-446 -650h291l-26 -150h-368l-37 -54l-17 -96h395l-26 -150h-395l-70 -400h-210l70 400h-395z" />
    <glyph glyph-name="brokenbar" unicode="&#xa6;" horiz-adv-x="400" 
d="M570 1520l-145 -820h-200l141 800zM365 362l-134 -762h-200l134 762h200z" />
    <glyph glyph-name="section" unicode="&#xa7;" horiz-adv-x="1000" 
d="M1010 1351q-44 26 -94.5 33t-107.5 9q-56 2 -106.5 -9.5t-88.5 -36t-60 -62t-22 -88.5q0 -50 20 -90t52 -74.5t72 -65.5t81.5 -64t80.5 -70t68 -83t44.5 -103.5t10.5 -131.5q-4 -53 -19.5 -95t-40 -73.5t-55 -53.5t-64.5 -36q-24 -11 -47.5 -22t-49.5 -19l27 -24
q63 -54 95.5 -122.5t27.5 -157.5q-4 -80 -39.5 -142.5t-96 -105.5t-143 -64.5t-179.5 -19.5q-83 2 -149 16.5t-125 55.5l77 97q44 -26 94.5 -34t107.5 -8q49 0 99 11t89.5 34.5t64.5 60.5t24 90q-1 50 -20.5 89.5t-51.5 73.5t-72 64t-81 62.5t-80 69.5t-68 83t-45 105
t-11 135q3 47 18.5 86t39.5 70.5t55 56.5t65 44q47 27 97 41l-27 24q-31 28 -56 58.5t-41 65.5t-23 74t-2 83q10 89 50 154.5t101.5 107t140.5 59t166 11.5q82 -5 148.5 -18t125.5 -54zM520 767q-42 -30 -71 -75t-40 -105q-7 -38 0.5 -72t25.5 -65t44 -59.5t58 -54.5l54 -45
q43 16 78 41q42 31 71 76t40 105q7 37 -0.5 71.5t-25.5 65.5t-44.5 59t-57.5 54l-55 45q-21 -8 -40 -18t-37 -23z" />
    <glyph glyph-name="dieresis" unicode="&#xa8;" horiz-adv-x="1100" 
d="M564 1500h200l-35 -200h-200zM964 1500h200l-35 -200h-200z" />
    <glyph glyph-name="copyright" unicode="&#xa9;" horiz-adv-x="1100" 
d="M817 1517q98 -7 175.5 -42.5t129 -95.5t73.5 -144t9 -188q-13 -100 -63 -189.5t-125.5 -155t-170 -100t-194.5 -25.5q-97 9 -172.5 46.5t-125.5 99t-73.5 143.5t-15.5 181q5 67 28.5 129.5t61.5 116.5t88.5 97.5t110.5 73.5t126.5 44t137.5 9zM666 663q41 -4 90 8
t98.5 36.5t96.5 60.5t83.5 80.5t59 94.5t24.5 104q3 98 -18.5 166.5t-63.5 113.5t-101.5 69.5t-132.5 34.5q-79 11 -157.5 -16t-142.5 -80.5t-106 -128t-46 -159.5q-4 -79 15.5 -145.5t60 -117t101 -82t139.5 -39.5zM895 1207q-13 10 -24 17t-22 11t-22.5 6t-25.5 2
q-37 1 -70 -11.5t-59 -37t-43.5 -60t-23.5 -78.5q-5 -40 -2 -74t17.5 -60t41.5 -42t69 -20q19 -2 35 -0.5t30 5t25.5 9t21.5 11.5l25 -53q-28 -19 -69 -30t-88 -9q-63 3 -104 24t-63.5 57t-28 83.5t0.5 104.5q4 32 15.5 63.5t30 59.5t43.5 51.5t57 39.5t70 24.5t82 5.5
q23 -1 41.5 -5t35 -11t31.5 -17.5t31 -24.5z" />
    <glyph glyph-name="ordfeminine" unicode="&#xaa;" horiz-adv-x="800" 
d="M241 800h400l-18 -100h-400zM665 1427q-9 4 -21.5 7t-24.5 4q-13 2 -28 3q-51 0 -89 -17.5t-64.5 -48t-42 -71t-20.5 -86.5q-6 -46 -1 -80.5t17 -57.5t31 -34.5t41 -11.5q26 0 48 7t40.5 18.5t33.5 26t27 29.5zM586 962l14 81l-58 -57q-10 -8 -20.5 -14.5t-22.5 -10.5
t-28 -6t-38 -2q-41 0 -72 21t-50 58t-26 87.5t0 110.5q7 55 30 107.5t63 93.5t97.5 65.5t132.5 24.5q30 -3 60 -7q25 -3 52.5 -8t47.5 -13l-76 -441l-5 -90h-101z" />
    <glyph glyph-name="guillemotleft" unicode="&#xab;" horiz-adv-x="1400" 
d="M850 1026l28 -125l-376 -291l-149 -60l127 -60l277 -289l-78 -135l-395 412l24 139zM1350 1026l28 -125l-376 -291l-149 -60l127 -60l277 -289l-78 -135l-395 412l24 139z" />
    <glyph glyph-name="logicalnot" unicode="&#xac;" horiz-adv-x="1700" 
d="M1558 800l-55 -211l-54 -309h-200l30 169l49 191h-1004l29 160h1205z" />
    <glyph glyph-name="sfthyphen" unicode="&#xad;" horiz-adv-x="0" 
 />
    <glyph glyph-name="registered" unicode="&#xae;" horiz-adv-x="1100" 
d="M817 1517q98 -7 175.5 -42.5t129 -95.5t73.5 -144t9 -188q-13 -100 -63 -189.5t-125.5 -155t-170 -100t-194.5 -25.5q-97 9 -172.5 46.5t-125.5 99t-73.5 143.5t-15.5 181q5 67 28.5 129.5t61.5 116.5t88.5 97.5t110.5 73.5t126.5 44t137.5 9zM666 663q41 -4 90 8
t98.5 36.5t96.5 60.5t83.5 80.5t59 94.5t24.5 104q3 98 -18.5 166.5t-63.5 113.5t-101.5 69.5t-132.5 34.5q-79 11 -157.5 -16t-142.5 -80.5t-106 -128t-46 -159.5q-4 -79 15.5 -145.5t60 -117t101 -82t139.5 -39.5zM649 1006l-36 -204h-66l75 426v66q11 1 26 2.5t31 2.5
t32.5 1.5t31.5 0.5q44 1 75.5 -9.5t51 -28.5t27.5 -43t6 -55q-4 -41 -19.5 -70t-38.5 -47t-52 -27t-59 -11l42 -12l112 -196h-74l-112 198q-2 5 -6.5 5.5t-7.5 0.5h-39zM680 1181l-23 -127h49q60 0 94.5 26.5t41.5 78.5q4 22 -4 39.5t-22 30.5t-33.5 20t-39.5 7
q-14 0 -30 -1t-27 -3z" />
    <glyph glyph-name="macron" unicode="&#xaf;" horiz-adv-x="1100" 
d="M464 1500h700l-26 -150h-700z" />
    <glyph glyph-name="degree" unicode="&#xb0;" horiz-adv-x="600" 
d="M568 1520q111 -15 169.5 -85.5t51.5 -184.5q-3 -56 -32.5 -107.5t-74 -90t-100 -58.5t-110.5 -14q-110 13 -166.5 85t-54.5 185q1 38 14.5 74t36.5 67.5t53.5 57.5t65.5 43.5t72.5 25t74.5 2.5zM492 1091q31 -3 63.5 6.5t59.5 30t44.5 51.5t19.5 71q3 67 -31 107t-100 52
q-34 6 -67.5 -3t-60 -30t-43 -53.5t-16.5 -72.5q1 -66 35.5 -109t95.5 -50z" />
    <glyph glyph-name="plusminus" unicode="&#xb1;" 
d="M223 862h373l75 338h155l-75 -338h372l-27 -124h-372l-75 -338h-155l75 338h-373zM122 291h900l-27 -139h-900z" />
    <glyph glyph-name="twosuperior" unicode="&#xb2;" horiz-adv-x="600" 
d="M76 720l14 84q31 45 65.5 84t69 72.5t67.5 61t59 49.5q34 28 64 52.5t52.5 49t35 50t12.5 54.5q0 46 -24.5 76.5t-77.5 40.5q-28 5 -52 -1.5t-44 -20.5t-36 -33t-28 -39l-65 30q18 37 43 66t56.5 48t69 28t79.5 6q47 -3 81 -22t56 -48t31.5 -64.5t7.5 -71.5
q-2 -39 -21 -74t-46 -66t-58.5 -58.5t-59.5 -51.5q-31 -26 -62 -53t-59.5 -54.5t-54 -56t-44.5 -58.5h335l-14 -80h-452z" />
    <glyph glyph-name="threesuperior" unicode="&#xb3;" horiz-adv-x="600" 
d="M225 1390l22 80h365l-13 -70q-9 -20 -27 -42t-41.5 -44t-50 -43.5t-52.5 -41.5l-73 -37q5 1 13 1t15 1q37 1 73 -12.5t63.5 -39.5t43 -63t9.5 -83q-6 -52 -28.5 -93t-57 -71.5t-79 -52t-95 -34.5t-105 -19t-107.5 -6l14 80q39 0 80.5 4.5t80.5 13.5t74 23.5t61.5 35.5
t42.5 49.5t18 64.5q2 32 -10 56t-35.5 39.5t-56 22.5t-72.5 6q-16 -1 -35 -1.5t-34 -1.5l14 78q23 15 50.5 34t55.5 39.5t55 42t49.5 40.5t38.5 36t22 28l-80 -20h-208z" />
    <glyph glyph-name="acute" unicode="&#xb4;" horiz-adv-x="1100" 
d="M864 1500l234 20l-297 -320h-150z" />
    <glyph glyph-name="mu" unicode="&#xb5;" horiz-adv-x="1300" 
d="M1248 36q-11 -9 -31 -18t-45.5 -17t-53.5 -13t-53 -5q-33 0 -67 11.5t-63.5 33.5t-51.5 54t-31 73l-37 -69q-21 -25 -53 -46.5t-71.5 -35.5t-84.5 -20t-91 -1q-19 2 -44 4t-50 6t-47 11.5t-35 20.5l11 -191l-59 -334h-180l282 1600l184 18l-136 -770q-9 -50 -6.5 -91.5
t20 -70.5t51 -43t86.5 -10q32 3 61.5 11.5t59 22t61 32.5t68.5 42l151 859l182 18l-135 -766q-14 -76 -15 -119.5t8 -66t28.5 -28t47.5 -5.5q24 0 47.5 4.5t46.5 12.5z" />
    <glyph glyph-name="paragraph" unicode="&#xb6;" horiz-adv-x="1372" 
d="M844 647q-37 2 -67 8t-55.5 14t-48 16.5t-43.5 16.5q-29 10 -62.5 48.5t-57.5 97t-32.5 134.5t12.5 162q24 102 69.5 173t110 113.5t146 59t178.5 10.5h472l-335 -1900h-169l308 1748h-134l-308 -1748h-169z" />
    <glyph glyph-name="periodcentered" unicode="&#xb7;" horiz-adv-x="500" 
d="M112 650q0 34 17 66.5t44.5 56.5t62 36t69.5 6q34 -6 59.5 -21.5t43 -37.5t26 -49.5t7.5 -56.5q-1 -36 -17.5 -68t-43.5 -55.5t-61 -35.5t-70 -8q-68 8 -103 54.5t-34 112.5z" />
    <glyph glyph-name="cedilla" unicode="&#xb8;" horiz-adv-x="1100" 
d="M524 0q18 -27 30 -59q11 -27 17 -63t1 -76q-7 -50 -30 -89t-57.5 -65.5t-79 -40.5t-94.5 -14q-42 0 -85.5 13.5t-79.5 30.5q-42 19 -81 45l89 100q23 -17 49 -30q22 -11 49.5 -21t56.5 -10q43 -1 73 20t38 70q5 33 -5 67t-25 61q-18 32 -42 61h176z" />
    <glyph glyph-name="onesuperior" unicode="&#xb9;" horiz-adv-x="600" 
d="M177 720l14 80h122l85 483l49 113l-84 -93l-123 -94l-43 61l266 210l68 -10l-118 -670h123l-14 -80h-345z" />
    <glyph glyph-name="ordmasculine" unicode="&#xba;" horiz-adv-x="800" 
d="M241 800h400l-18 -100h-400zM441 950q-55 4 -95 26t-64.5 59t-33.5 88t-3 112q7 61 32.5 114t65 91.5t90 59.5t107.5 17q55 -3 95 -24.5t65 -58.5t34.5 -87.5t2.5 -111.5q-6 -62 -32 -115.5t-66 -92.5t-91 -59.5t-107 -17.5zM642 1209q8 40 9 77.5t-9.5 68t-34 52
t-64.5 29.5q-40 8 -75 -5t-61.5 -39t-44 -61.5t-23.5 -72.5q-6 -41 -7 -79t9 -68t33 -51t64 -28q39 -8 73.5 5.5t61 39t44.5 60.5t25 72z" />
    <glyph glyph-name="guillemotright" unicode="&#xbb;" horiz-adv-x="1400" 
d="M808 617l-24 -139l-541 -412l-30 135l379 289l147 60l-127 60l-274 291l72 125zM1308 617l-24 -139l-541 -412l-30 135l379 289l147 60l-127 60l-274 291l72 125z" />
    <glyph glyph-name="onequarter" unicode="&#xbc;" horiz-adv-x="1500" 
d="M454 0h-135l775 1500h126zM175 720l14 80h122l85 483l49 113l-84 -93l-123 -94l-43 61l266 210l68 -10l-118 -670h123l-14 -80h-345zM1416 150h-90l-26 -150h-100l26 150h-297l15 85l335 525l92 -10l-287 -450l-58 -70h215l35 203l99 -8l-34 -195h97z" />
    <glyph glyph-name="onehalf" unicode="&#xbd;" horiz-adv-x="1500" 
d="M454 0h-135l775 1500h126zM175 720l14 80h122l85 483l49 113l-84 -93l-123 -94l-43 61l266 210l68 -10l-118 -670h123l-14 -80h-345zM949 0l14 84q31 45 65.5 84t69 72.5t67.5 61t59 49.5q34 28 64 52.5t52.5 49t35 50t12.5 54.5q0 46 -24.5 76.5t-77.5 40.5
q-28 5 -52 -1.5t-44 -20.5t-36 -33t-28 -39l-65 30q18 37 43 66t56.5 48t69 28t79.5 6q47 -3 81 -22t56 -48t31.5 -64.5t7.5 -71.5q-2 -39 -21 -74t-46 -66t-58.5 -58.5t-59.5 -51.5q-31 -26 -62 -53t-59.5 -54.5t-54 -56t-44.5 -58.5h335l-14 -80h-452z" />
    <glyph glyph-name="threequarters" unicode="&#xbe;" horiz-adv-x="1500" 
d="M454 0h-135l775 1500h126zM225 1390l22 80h365l-13 -70q-9 -20 -27 -42t-41.5 -44t-50 -43.5t-52.5 -41.5l-73 -37q5 1 13 1t15 1q37 1 73 -12.5t63.5 -39.5t43 -63t9.5 -83q-6 -52 -28.5 -93t-57 -71.5t-79 -52t-95 -34.5t-105 -19t-107.5 -6l14 80q39 0 80.5 4.5
t80.5 13.5t74 23.5t61.5 35.5t42.5 49.5t18 64.5q2 32 -10 56t-35.5 39.5t-56 22.5t-72.5 6q-16 -1 -35 -1.5t-34 -1.5l14 78q23 15 50.5 34t55.5 39.5t55 42t49.5 40.5t38.5 36t22 28l-80 -20h-208zM1416 150h-90l-26 -150h-100l26 150h-297l15 85l335 525l92 -10
l-287 -450l-58 -70h215l35 203l99 -8l-34 -195h97z" />
    <glyph glyph-name="questiondown" unicode="&#xbf;" horiz-adv-x="1100" 
d="M350 -46q4 81 39 141.5t86 110t111.5 93.5t116.5 94t100.5 111t63.5 144l214 21q-18 -88 -49.5 -156t-71 -120.5t-84 -93t-88.5 -74.5t-84.5 -64t-72 -62t-51.5 -69t-22 -84q-3 -51 13.5 -88t46.5 -62t71 -37t89 -12q88 0 170.5 39t153.5 122l113 -110
q-52 -62 -110.5 -103.5t-121 -67t-128 -36t-131.5 -10.5q-78 0 -148.5 22t-122 67.5t-80 116t-23.5 167.5zM1126 978q0 -27 -13.5 -53t-35.5 -45.5t-49.5 -29t-55.5 -4.5q-27 5 -47.5 17.5t-34.5 30t-21 39.5t-6 45q1 29 14 54.5t35 44.5t49 28.5t56 6.5q54 -7 82 -44
t27 -90z" />
    <glyph glyph-name="Agrave" unicode="&#xc0;" horiz-adv-x="1300" 
d="M61 0l652 1300l70 200l222 20l230 -1520h-190l-69 450h-495l-225 -450h-195zM888 1360l-82 -260l-250 -500h397l-75 500zM971 1600h-150l-172 300l208 20z" />
    <glyph glyph-name="Aacute" unicode="&#xc1;" horiz-adv-x="1300" 
d="M61 0l652 1300l70 200l222 20l230 -1520h-190l-69 450h-495l-225 -450h-195zM888 1360l-82 -260l-250 -500h397l-75 500zM1048 1900l234 20l-297 -320h-150z" />
    <glyph glyph-name="Acircumflex" unicode="&#xc2;" horiz-adv-x="1300" 
d="M61 0l652 1300l70 200l222 20l230 -1520h-190l-69 450h-495l-225 -450h-195zM888 1360l-82 -260l-250 -500h397l-75 500zM1173 1620h-150l-74 152l-14 88l-45 -87l-128 -153h-150l225 280l204 20z" />
    <glyph glyph-name="Atilde" unicode="&#xc3;" horiz-adv-x="1300" 
d="M61 0l652 1300l70 200l222 20l230 -1520h-190l-69 450h-495l-225 -450h-195zM888 1360l-82 -260l-250 -500h397l-75 500zM608 1616q12 55 36 96t54 67.5t63.5 38t65.5 7.5q39 -6 70 -20.5t59.5 -30t56 -27.5t58.5 -12q28 0 47.5 10.5t32.5 26.5t20 34.5t11 35.5l95 -3
q-6 -48 -29 -92.5t-55.5 -76.5t-72 -48.5t-78.5 -9.5q-28 5 -56 21.5t-57.5 33.5t-61.5 28t-68 6q-38 -5 -64.5 -24t-41.5 -64z" />
    <glyph glyph-name="Adieresis" unicode="&#xc4;" horiz-adv-x="1300" 
d="M61 0l652 1300l70 200l222 20l230 -1520h-190l-69 450h-495l-225 -450h-195zM888 1360l-82 -260l-250 -500h397l-75 500zM617 1800h200l-35 -200h-200zM1017 1800h200l-35 -200h-200z" />
    <glyph glyph-name="Aring" unicode="&#xc5;" horiz-adv-x="1300" 
d="M968 1881q48 -8 85.5 -29.5t62.5 -53t37 -71t10 -83.5q-3 -57 -27.5 -102.5t-63.5 -77.5q-25 -20 -54 -34l217 -1430h-190l-69 450h-495l-225 -450h-195l652 1300l53 151q-14 12 -26 27q-27 33 -41 76t-11 90q3 50 27.5 96.5t63.5 80.5t88.5 51t100.5 9zM888 1360
l-82 -260l-250 -500h397l-75 500zM905 1520q24 -5 49.5 2t47 23.5t34.5 41.5t11 56q-3 52 -26.5 81.5t-73.5 39.5q-26 5 -51.5 -3.5t-46 -26t-33 -41.5t-11.5 -50q3 -102 100 -123z" />
    <glyph glyph-name="AE" unicode="&#xc6;" horiz-adv-x="1700" 
d="M786 450h-305l-225 -450h-195l652 1300l70 200h998l-28 -160h-630l-14 -190l-46 -265h540l-26 -145h-540l-71 -400l-41 -180h655l-48 -160h-840l50 200zM888 1360l-82 -260l-250 -500h257l87 500z" />
    <glyph glyph-name="Ccedilla" unicode="&#xc7;" 
d="M1128 95q-20 -14 -56 -33t-88 -36.5t-121 -29.5q-14 -3 -29 -5q14 -23 24 -50q11 -27 17 -63t1 -76q-7 -50 -30 -89t-57.5 -65.5t-79 -40.5t-94.5 -14q-42 0 -85.5 13.5t-79.5 30.5q-42 19 -81 45l89 100q23 -17 49 -30q22 -11 49.5 -21t56.5 -10q43 -1 73 20t38 70
q5 33 -5 67t-25 61q-13 24 -30 46q-108 8 -190 58q-98 61 -157.5 167t-80 250t-1.5 310t78.5 303.5t153.5 236t220 153t278 54.5q243 0 375 -132l-98 -122q-32 22 -64 37t-67 24t-74.5 13t-85.5 4q-106 -1 -195 -41.5t-156 -114.5t-109 -178.5t-55 -233.5q-7 -70 -9 -142.5
t6 -141.5t28.5 -130t59 -107t97.5 -72.5t144 -26.5q45 0 86 6t80 18t78 29.5t80 40.5z" />
    <glyph glyph-name="Egrave" unicode="&#xc8;" 
d="M1073 160l-48 -160h-840l50 200l192 1090l7 210h840l-28 -160h-630l-14 -190l-46 -265h540l-26 -145h-540l-71 -400l-41 -180h655zM971 1600h-150l-172 300l208 20z" />
    <glyph glyph-name="Eacute" unicode="&#xc9;" 
d="M1073 160l-48 -160h-840l50 200l192 1090l7 210h840l-28 -160h-630l-14 -190l-46 -265h540l-26 -145h-540l-71 -400l-41 -180h655zM1003 1900l234 20l-297 -320h-150z" />
    <glyph glyph-name="Ecircumflex" unicode="&#xca;" 
d="M1073 160l-48 -160h-840l50 200l192 1090l7 210h840l-28 -160h-630l-14 -190l-46 -265h540l-26 -145h-540l-71 -400l-41 -180h655zM1145 1620h-150l-74 152l-14 88l-45 -87l-128 -153h-150l225 280l204 20z" />
    <glyph glyph-name="Edieresis" unicode="&#xcb;" 
d="M1073 160l-48 -160h-840l50 200l192 1090l7 210h840l-28 -160h-630l-14 -190l-46 -265h540l-26 -145h-540l-71 -400l-41 -180h655zM614 1800h200l-35 -200h-200zM1014 1800h200l-35 -200h-200z" />
    <glyph glyph-name="Igrave" unicode="&#xcc;" horiz-adv-x="600" 
d="M200 0l227 1290l7 210l234 20l-268 -1520h-200zM630 1600h-150l-172 300l208 20z" />
    <glyph glyph-name="Iacute" unicode="&#xcd;" horiz-adv-x="600" 
d="M200 0l227 1290l7 210l234 20l-268 -1520h-200zM695 1900l234 20l-297 -320h-150z" />
    <glyph glyph-name="Icircumflex" unicode="&#xce;" horiz-adv-x="600" 
d="M200 0l227 1290l7 210l234 20l-268 -1520h-200zM843 1620h-150l-74 152l-14 88l-45 -87l-128 -153h-150l225 280l204 20z" />
    <glyph glyph-name="Idieresis" unicode="&#xcf;" horiz-adv-x="600" 
d="M200 0l227 1290l7 210l234 20l-268 -1520h-200zM341 1900h200l-35 -200h-200zM741 1900h200l-35 -200h-200z" />
    <glyph glyph-name="Eth" unicode="&#xd0;" horiz-adv-x="1300" 
d="M150 856h160l77 434l7 210q31 3 72 5t84.5 3.5t85.5 2t75 0.5q159 0 281 -38.5t201.5 -122.5t113 -217t15.5 -323q-14 -149 -56 -266.5t-106 -207.5t-146 -154t-176 -104.5t-196 -59t-206 -18.5h-276l123 701h-160zM562 1150q-12 -67 -35 -197q-8 -43 -18 -97h240
l-27 -155h-240q-4 -25 -8 -52q-17 -97 -38.5 -218.5t-47.5 -270.5h20q145 0 251.5 26t182.5 71.5t126 106.5t81.5 131t48.5 145t28 148q18 120 10 224t-56.5 181t-145 121t-254.5 44q-16 0 -34 -1t-35 -3l-38 -4z" />
    <glyph glyph-name="Ntilde" unicode="&#xd1;" horiz-adv-x="1500" 
d="M1100 0l-434 1028l-66 289l-6 -1l-18 -316l-176 -1000h-192l227 1290l7 210l232 20l433 -1033l65 -314l6 1l11 336l175 990l193 20l-268 -1520h-189zM735 1655q12 55 36 96t54 67.5t63.5 38t65.5 7.5q39 -6 70 -20.5t59.5 -30t56 -27.5t58.5 -12q28 0 47.5 10.5
t32.5 26.5t20 34.5t11 35.5l95 -3q-6 -48 -29 -92.5t-55.5 -76.5t-72 -48.5t-78.5 -9.5q-28 5 -56 21.5t-57.5 33.5t-61.5 28t-68 6q-38 -5 -64.5 -24t-41.5 -64z" />
    <glyph glyph-name="Ograve" unicode="&#xd2;" horiz-adv-x="1600" 
d="M797 -17q-146 8 -254.5 66.5t-176.5 158.5t-94 237.5t-6 304.5q20 171 82.5 315t164 247t241 158t313.5 47q144 -6 251.5 -64.5t175.5 -159t95 -239t9 -304.5q-19 -174 -82 -319.5t-165.5 -248t-242 -156t-311.5 -43.5zM1394 719q11 121 -0.5 230.5t-53 194t-117 138.5
t-192.5 65q-84 7 -155.5 -11.5t-131 -57t-107 -93.5t-82 -120t-56 -136.5t-29.5 -143.5q-14 -123 -2.5 -234.5t54 -197.5t118.5 -139.5t192 -60.5q90 -5 165 15t135 59t106 94t78.5 119.5t51.5 135.5t26 143zM1122 1600h-150l-172 300l208 20z" />
    <glyph glyph-name="Oacute" unicode="&#xd3;" horiz-adv-x="1600" 
d="M797 -17q-146 8 -254.5 66.5t-176.5 158.5t-94 237.5t-6 304.5q20 171 82.5 315t164 247t241 158t313.5 47q144 -6 251.5 -64.5t175.5 -159t95 -239t9 -304.5q-19 -174 -82 -319.5t-165.5 -248t-242 -156t-311.5 -43.5zM1394 719q11 121 -0.5 230.5t-53 194t-117 138.5
t-192.5 65q-84 7 -155.5 -11.5t-131 -57t-107 -93.5t-82 -120t-56 -136.5t-29.5 -143.5q-14 -123 -2.5 -234.5t54 -197.5t118.5 -139.5t192 -60.5q90 -5 165 15t135 59t106 94t78.5 119.5t51.5 135.5t26 143zM1220 1900l234 20l-297 -320h-150z" />
    <glyph glyph-name="Ocircumflex" unicode="&#xd4;" horiz-adv-x="1600" 
d="M797 -17q-146 8 -254.5 66.5t-176.5 158.5t-94 237.5t-6 304.5q20 171 82.5 315t164 247t241 158t313.5 47q144 -6 251.5 -64.5t175.5 -159t95 -239t9 -304.5q-19 -174 -82 -319.5t-165.5 -248t-242 -156t-311.5 -43.5zM1394 719q11 121 -0.5 230.5t-53 194t-117 138.5
t-192.5 65q-84 7 -155.5 -11.5t-131 -57t-107 -93.5t-82 -120t-56 -136.5t-29.5 -143.5q-14 -123 -2.5 -234.5t54 -197.5t118.5 -139.5t192 -60.5q90 -5 165 15t135 59t106 94t78.5 119.5t51.5 135.5t26 143zM1345 1620h-150l-74 152l-14 88l-45 -87l-128 -153h-150l225 280
l204 20z" />
    <glyph glyph-name="Otilde" unicode="&#xd5;" horiz-adv-x="1600" 
d="M797 -17q-146 8 -254.5 66.5t-176.5 158.5t-94 237.5t-6 304.5q20 171 82.5 315t164 247t241 158t313.5 47q144 -6 251.5 -64.5t175.5 -159t95 -239t9 -304.5q-19 -174 -82 -319.5t-165.5 -248t-242 -156t-311.5 -43.5zM1394 719q11 121 -0.5 230.5t-53 194t-117 138.5
t-192.5 65q-84 7 -155.5 -11.5t-131 -57t-107 -93.5t-82 -120t-56 -136.5t-29.5 -143.5q-14 -123 -2.5 -234.5t54 -197.5t118.5 -139.5t192 -60.5q90 -5 165 15t135 59t106 94t78.5 119.5t51.5 135.5t26 143zM756 1655q12 55 36 96t54 67.5t63.5 38t65.5 7.5q39 -6 70 -20.5
t59.5 -30t56 -27.5t58.5 -12q28 0 47.5 10.5t32.5 26.5t20 34.5t11 35.5l95 -3q-6 -48 -29 -92.5t-55.5 -76.5t-72 -48.5t-78.5 -9.5q-28 5 -56 21.5t-57.5 33.5t-61.5 28t-68 6q-38 -5 -64.5 -24t-41.5 -64z" />
    <glyph glyph-name="Odieresis" unicode="&#xd6;" horiz-adv-x="1600" 
d="M797 -17q-146 8 -254.5 66.5t-176.5 158.5t-94 237.5t-6 304.5q20 171 82.5 315t164 247t241 158t313.5 47q144 -6 251.5 -64.5t175.5 -159t95 -239t9 -304.5q-19 -174 -82 -319.5t-165.5 -248t-242 -156t-311.5 -43.5zM1394 719q11 121 -0.5 230.5t-53 194t-117 138.5
t-192.5 65q-84 7 -155.5 -11.5t-131 -57t-107 -93.5t-82 -120t-56 -136.5t-29.5 -143.5q-14 -123 -2.5 -234.5t54 -197.5t118.5 -139.5t192 -60.5q90 -5 165 15t135 59t106 94t78.5 119.5t51.5 135.5t26 143zM792 1800h200l-35 -200h-200zM1192 1800h200l-35 -200h-200z" />
    <glyph glyph-name="multiply" unicode="&#xd7;" horiz-adv-x="1600" 
d="M1060 627l350 -424l-142 -101l-309 375h1l-41 99l-35 -99l-442 -375l-107 101l501 424l-351 425l143 101l309 -376l40 -98l36 98l441 376l106 -101z" />
    <glyph glyph-name="Oslash" unicode="&#xd8;" horiz-adv-x="1600" 
d="M797 -17q-134 8 -236 57l-94 -140h-210l163 240q-30 31 -54 68q-68 100 -94 237.5t-6 304.5q20 171 82.5 315t164 247t241 158t313.5 47q141 -6 248 -63l99 146h200l-167 -247q25 -28 47 -60q68 -100 95 -238.5t9 -304.5q-19 -174 -82 -319.5t-165.5 -248t-242 -156
t-311.5 -43.5zM1031 1347q-84 7 -155.5 -11.5t-131 -57t-107 -93.5t-82 -120t-56 -136.5t-29.5 -143.5q-14 -123 -2.5 -234.5t53.5 -197.5q9 -19 20 -36l664 977q-71 43 -174 53zM1394 719q11 121 -0.5 230.5t-53.5 193.5q-7 15 -15 29l-658 -976q68 -37 165 -43
q90 -5 165 15t135 59t106 94t78.5 119.5t51.5 135.5t26 143z" />
    <glyph glyph-name="Ugrave" unicode="&#xd9;" horiz-adv-x="1400" 
d="M1476 1500l-172 -977q-27 -156 -85.5 -262.5t-140 -170.5t-182.5 -88.5t-214 -18.5q-107 6 -190.5 47.5t-136.5 116t-71.5 181.5t5.5 245l126 717l7 210l231 20l-171 -966q-14 -81 -10 -142t20.5 -105t43.5 -73t58.5 -46.5t64.5 -25t62 -9.5q78 -4 142 20.5t113 72
t81 113.5t46 145l176 996h197zM1055 1600h-150l-172 300l208 20z" />
    <glyph glyph-name="Uacute" unicode="&#xda;" horiz-adv-x="1400" 
d="M1476 1500l-172 -977q-27 -156 -85.5 -262.5t-140 -170.5t-182.5 -88.5t-214 -18.5q-107 6 -190.5 47.5t-136.5 116t-71.5 181.5t5.5 245l126 717l7 210l231 20l-171 -966q-14 -81 -10 -142t20.5 -105t43.5 -73t58.5 -46.5t64.5 -25t62 -9.5q78 -4 142 20.5t113 72
t81 113.5t46 145l176 996h197zM1098 1900l234 20l-297 -320h-150z" />
    <glyph glyph-name="Ucircumflex" unicode="&#xdb;" horiz-adv-x="1400" 
d="M1476 1500l-172 -977q-27 -156 -85.5 -262.5t-140 -170.5t-182.5 -88.5t-214 -18.5q-107 6 -190.5 47.5t-136.5 116t-71.5 181.5t5.5 245l126 717l7 210l231 20l-171 -966q-14 -81 -10 -142t20.5 -105t43.5 -73t58.5 -46.5t64.5 -25t62 -9.5q78 -4 142 20.5t113 72
t81 113.5t46 145l176 996h197zM1256 1620h-150l-74 152l-14 88l-45 -87l-128 -153h-150l225 280l204 20z" />
    <glyph glyph-name="Udieresis" unicode="&#xdc;" horiz-adv-x="1400" 
d="M1476 1500l-172 -977q-27 -156 -85.5 -262.5t-140 -170.5t-182.5 -88.5t-214 -18.5q-107 6 -190.5 47.5t-136.5 116t-71.5 181.5t5.5 245l126 717l7 210l231 20l-171 -966q-14 -81 -10 -142t20.5 -105t43.5 -73t58.5 -46.5t64.5 -25t62 -9.5q78 -4 142 20.5t113 72
t81 113.5t46 145l176 996h197zM725 1800h200l-35 -200h-200zM1125 1800h200l-35 -200h-200z" />
    <glyph glyph-name="Yacute" unicode="&#xdd;" 
d="M814 935l388 565h192l-586 -854l-113 -646h-200l113 645l-285 855l208 20l178 -566l35 -249zM1031 1900l234 20l-297 -320h-150z" />
    <glyph glyph-name="Thorn" unicode="&#xde;" horiz-adv-x="1300" 
d="M444 1500h220l-35 -199h200q25 0 63.5 -7.5t81.5 -25.5t85.5 -48.5t75.5 -76.5t53 -108.5t18 -145.5q-1 -34 -6.5 -75.5t-18.5 -85t-34.5 -87t-54 -82.5t-78 -71t-106.5 -53q-56 -20 -120.5 -27t-157.5 -7h-160l-70 -401h-200l229 1299zM602 1151l-104 -594h189
q81 0 144 24t106.5 67.5t66 105t22.5 135.5q0 45 -15 92t-46 84.5t-79.5 61.5t-114.5 24h-169z" />
    <glyph glyph-name="germandbls" unicode="&#xdf;" horiz-adv-x="1300" 
d="M1052 1148q6 48 -8 87.5t-40.5 69t-61.5 46t-71 18.5q-78 3 -124 -13t-78 -52q-28 -31 -42.5 -65t-22.5 -79l-207 -1177l-195 17l195 1111q34 195 158 307q28 25 57.5 43.5t69 31t92 18.5t126.5 6q82 0 147.5 -26.5t110 -73t65.5 -110t14 -138.5q-6 -63 -24.5 -111
t-49 -85.5t-71.5 -64.5t-91 -48l-162 -44l145 -14q58 -18 105.5 -48.5t78.5 -73t43.5 -98t1.5 -122.5q-9 -94 -41 -164.5t-79 -121.5t-106.5 -84.5t-124.5 -53.5t-132.5 -28t-129.5 -8l-32 160q99 0 178 11.5t136.5 43.5t92.5 88.5t46 146.5q17 141 -66.5 210.5t-246.5 69.5
l-42 155q64 0 129 12.5t119 43t91.5 81t46.5 126.5z" />
    <glyph glyph-name="agrave" unicode="&#xe0;" horiz-adv-x="1100" 
d="M927 930q-18 8 -43.5 14t-48.5 9q-27 4 -56 5q-102 0 -178 -35t-129 -96t-84 -142t-42 -173t-1.5 -160.5t34 -115t62 -69.5t82.5 -23q52 0 96 14t80.5 37t67 52t54.5 59zM768 0l28 162l-115 -113q-21 -17 -41.5 -29.5t-45 -20.5t-56.5 -12t-76 -4q-82 0 -143.5 41.5
t-100 115.5t-52 175t0.5 221q13 111 59.5 216t126.5 186.5t194.5 130.5t264.5 49q61 -5 120 -13q51 -7 105.5 -17t95.5 -25l-152 -883l-11 -180h-202zM811 1200h-150l-172 300l208 20z" />
    <glyph glyph-name="aacute" unicode="&#xe1;" horiz-adv-x="1100" 
d="M927 930q-18 8 -43.5 14t-48.5 9q-27 4 -56 5q-102 0 -178 -35t-129 -96t-84 -142t-42 -173t-1.5 -160.5t34 -115t62 -69.5t82.5 -23q52 0 96 14t80.5 37t67 52t54.5 59zM768 0l28 162l-115 -113q-21 -17 -41.5 -29.5t-45 -20.5t-56.5 -12t-76 -4q-82 0 -143.5 41.5
t-100 115.5t-52 175t0.5 221q13 111 59.5 216t126.5 186.5t194.5 130.5t264.5 49q61 -5 120 -13q51 -7 105.5 -17t95.5 -25l-152 -883l-11 -180h-202zM936 1500l234 20l-297 -320h-150z" />
    <glyph glyph-name="acircumflex" unicode="&#xe2;" horiz-adv-x="1100" 
d="M927 930q-18 8 -43.5 14t-48.5 9q-27 4 -56 5q-102 0 -178 -35t-129 -96t-84 -142t-42 -173t-1.5 -160.5t34 -115t62 -69.5t82.5 -23q52 0 96 14t80.5 37t67 52t54.5 59zM768 0l28 162l-115 -113q-21 -17 -41.5 -29.5t-45 -20.5t-56.5 -12t-76 -4q-82 0 -143.5 41.5
t-100 115.5t-52 175t0.5 221q13 111 59.5 216t126.5 186.5t194.5 130.5t264.5 49q61 -5 120 -13q51 -7 105.5 -17t95.5 -25l-152 -883l-11 -180h-202zM1029 1220h-150l-74 152l-14 88l-45 -87l-128 -153h-150l225 280l204 20z" />
    <glyph glyph-name="atilde" unicode="&#xe3;" horiz-adv-x="1100" 
d="M927 930q-18 8 -43.5 14t-48.5 9q-27 4 -56 5q-102 0 -178 -35t-129 -96t-84 -142t-42 -173t-1.5 -160.5t34 -115t62 -69.5t82.5 -23q52 0 96 14t80.5 37t67 52t54.5 59zM768 0l28 162l-115 -113q-21 -17 -41.5 -29.5t-45 -20.5t-56.5 -12t-76 -4q-82 0 -143.5 41.5
t-100 115.5t-52 175t0.5 221q13 111 59.5 216t126.5 186.5t194.5 130.5t264.5 49q61 -5 120 -13q51 -7 105.5 -17t95.5 -25l-152 -883l-11 -180h-202zM528 1276q12 55 36 96t54 67.5t63.5 38t65.5 7.5q39 -6 70 -20.5t59.5 -30t56 -27.5t58.5 -12q28 0 47.5 10.5t32.5 26.5
t20 34.5t11 35.5l95 -3q-6 -48 -29 -92.5t-55.5 -76.5t-72 -48.5t-78.5 -9.5q-28 5 -56 21.5t-57.5 33.5t-61.5 28t-68 6q-38 -5 -64.5 -24t-41.5 -64z" />
    <glyph glyph-name="adieresis" unicode="&#xe4;" horiz-adv-x="1100" 
d="M927 930q-18 8 -43.5 14t-48.5 9q-27 4 -56 5q-102 0 -178 -35t-129 -96t-84 -142t-42 -173t-1.5 -160.5t34 -115t62 -69.5t82.5 -23q52 0 96 14t80.5 37t67 52t54.5 59zM768 0l28 162l-115 -113q-21 -17 -41.5 -29.5t-45 -20.5t-56.5 -12t-76 -4q-82 0 -143.5 41.5
t-100 115.5t-52 175t0.5 221q13 111 59.5 216t126.5 186.5t194.5 130.5t264.5 49q61 -5 120 -13q51 -7 105.5 -17t95.5 -25l-152 -883l-11 -180h-202zM570 1500h200l-35 -200h-200zM970 1500h200l-35 -200h-200z" />
    <glyph glyph-name="aring" unicode="&#xe5;" horiz-adv-x="1100" 
d="M927 930q-18 8 -43.5 14t-48.5 9q-27 4 -56 5q-102 0 -178 -35t-129 -96t-84 -142t-42 -173t-1.5 -160.5t34 -115t62 -69.5t82.5 -23q52 0 96 14t80.5 37t67 52t54.5 59zM768 0l28 162l-115 -113q-21 -17 -41.5 -29.5t-45 -20.5t-56.5 -12t-76 -4q-82 0 -143.5 41.5
t-100 115.5t-52 175t0.5 221q13 111 59.5 216t126.5 186.5t194.5 130.5t264.5 49q61 -5 120 -13q51 -7 105.5 -17t95.5 -25l-152 -883l-11 -180h-202zM915 1636q48 -8 85.5 -29.5t62.5 -53t37 -71t10 -83.5q-3 -57 -27.5 -102.5t-63 -77t-87 -47.5t-99.5 -14
q-44 1 -81.5 21.5t-64.5 53.5t-41 76t-11 90q3 50 27.5 96.5t63.5 80.5t88.5 51t100.5 9zM852 1275q24 -5 49.5 2t47 23.5t34.5 41.5t11 56q-3 52 -26.5 81.5t-73.5 39.5q-26 5 -51.5 -3.5t-46 -26t-33 -41.5t-11.5 -50q3 -102 100 -123z" />
    <glyph glyph-name="ae" unicode="&#xe6;" horiz-adv-x="1700" 
d="M1712 638q-5 -28 -10 -47.5t-10 -34.5t-10.5 -28t-11.5 -28h-671q-18 -79 -7.5 -144t41 -111.5t77 -73t100.5 -28.5q58 -2 104 3.5t79.5 14.5t56.5 19.5t36 18.5l92 -96q-37 -32 -75 -55t-82.5 -37.5t-98 -21t-120.5 -6.5q-83 0 -145 27.5t-110 68.5q-29 25 -52 62.5
t-39 72.5l-65 -92q-26 -24 -64 -50t-84 -47t-97 -33t-103 -9q-74 5 -133.5 28.5t-101 67.5t-62.5 110t-16 155q3 61 24.5 112.5t56 93.5t80 73t96.5 51.5t105.5 29.5t107.5 6q57 -3 99 -9.5t71 -13.5q33 -8 58 -17l6 35q12 68 16.5 115.5t-10 77.5t-53.5 44t-114 15
q-40 0 -89.5 -7t-93.5 -16q-51 -11 -103 -24l-48 134q61 20 124 36q54 14 119.5 25.5t128.5 11.5q67 0 117 -9.5t85 -29t57.5 -49.5t35.5 -71q150 159 370 159q108 0 181 -37.5t113.5 -102.5t50 -152.5t-8.5 -186.5zM803 533q-28 3 -59 7q-27 3 -61 5.5t-72 4.5
q-60 3 -113 -8t-92.5 -36t-62.5 -65t-23 -96q0 -92 39 -144.5t120 -57.5q24 -2 49 2.5t49 13.5t47 21t43 25q47 30 91 69zM1535 650q3 11 5 18t4 18q10 57 4 105.5t-28.5 85t-61.5 58t-95 23.5q-73 2 -125 -19.5t-88.5 -55t-60.5 -74.5t-41 -77l-72 -109l183 27h376z" />
    <glyph glyph-name="ccedilla" unicode="&#xe7;" horiz-adv-x="1042" 
d="M954 901q-26 22 -48.5 37t-44 24t-45 13t-51.5 5q-74 3 -140 -25t-118 -83t-86.5 -133t-46.5 -175q-11 -88 -4.5 -164t35.5 -133t83 -93t138 -45q38 -4 70 -1t59.5 11t50.5 20t43 26l51 -118q-57 -42 -139 -67q-41 -13 -86 -17q11 -20 19 -42q11 -27 17 -63t1 -76
q-7 -50 -30 -89t-57.5 -65.5t-79 -40.5t-94.5 -14q-42 0 -85.5 13.5t-79.5 30.5q-42 19 -81 45l89 100q23 -17 49 -30q22 -11 49.5 -21t56.5 -10q43 -1 73 20t38 70q5 33 -5 67t-25 61q-16 27 -35 53q-68 13 -118 42q-82 47 -126.5 126t-56 185t1.5 232q7 72 30 141.5
t60 132t87.5 114.5t114.5 88.5t140 54.5t164 12q46 -3 83 -12t69.5 -24.5t62.5 -38.5t62 -54z" />
    <glyph glyph-name="egrave" unicode="&#xe8;" horiz-adv-x="1100" 
d="M957 103q-30 -28 -66 -51t-81 -39t-99 -24t-119 -6q-126 4 -207.5 53t-125.5 127.5t-56 178.5t1 208q13 110 54.5 212.5t112 181t169 126t226.5 47.5q94 0 163.5 -34.5t111.5 -97t56 -149t-2 -190.5q-5 -31 -12.5 -57t-15.5 -46q-9 -23 -18 -43h-671q-20 -79 -11 -143.5
t40.5 -110.5t81 -72.5t111.5 -30.5q50 -3 92 1.5t75.5 13.5t58 20t39.5 21zM914 650q2 3 5 16t5.5 29.5t4 32t1.5 24.5q0 36 -9.5 71.5t-30.5 65t-55 48.5t-82 21q-76 3 -128.5 -15t-89.5 -50.5t-62 -74.5t-45 -86l-72 -109l193 27h365zM839 1200h-150l-172 300l208 20z" />
    <glyph glyph-name="eacute" unicode="&#xe9;" horiz-adv-x="1100" 
d="M957 103q-30 -28 -66 -51t-81 -39t-99 -24t-119 -6q-126 4 -207.5 53t-125.5 127.5t-56 178.5t1 208q13 110 54.5 212.5t112 181t169 126t226.5 47.5q94 0 163.5 -34.5t111.5 -97t56 -149t-2 -190.5q-5 -31 -12.5 -57t-15.5 -46q-9 -23 -18 -43h-671q-20 -79 -11 -143.5
t40.5 -110.5t81 -72.5t111.5 -30.5q50 -3 92 1.5t75.5 13.5t58 20t39.5 21zM914 650q2 3 5 16t5.5 29.5t4 32t1.5 24.5q0 36 -9.5 71.5t-30.5 65t-55 48.5t-82 21q-76 3 -128.5 -15t-89.5 -50.5t-62 -74.5t-45 -86l-72 -109l193 27h365zM909 1500l234 20l-297 -320h-150z
" />
    <glyph glyph-name="ecircumflex" unicode="&#xea;" horiz-adv-x="1100" 
d="M957 103q-30 -28 -66 -51t-81 -39t-99 -24t-119 -6q-126 4 -207.5 53t-125.5 127.5t-56 178.5t1 208q13 110 54.5 212.5t112 181t169 126t226.5 47.5q94 0 163.5 -34.5t111.5 -97t56 -149t-2 -190.5q-5 -31 -12.5 -57t-15.5 -46q-9 -23 -18 -43h-671q-20 -79 -11 -143.5
t40.5 -110.5t81 -72.5t111.5 -30.5q50 -3 92 1.5t75.5 13.5t58 20t39.5 21zM914 650q2 3 5 16t5.5 29.5t4 32t1.5 24.5q0 36 -9.5 71.5t-30.5 65t-55 48.5t-82 21q-76 3 -128.5 -15t-89.5 -50.5t-62 -74.5t-45 -86l-72 -109l193 27h365zM1051 1220h-150l-74 152l-14 88
l-45 -87l-128 -153h-150l225 280l204 20z" />
    <glyph glyph-name="edieresis" unicode="&#xeb;" horiz-adv-x="1100" 
d="M957 103q-30 -28 -66 -51t-81 -39t-99 -24t-119 -6q-126 4 -207.5 53t-125.5 127.5t-56 178.5t1 208q13 110 54.5 212.5t112 181t169 126t226.5 47.5q94 0 163.5 -34.5t111.5 -97t56 -149t-2 -190.5q-5 -31 -12.5 -57t-15.5 -46q-9 -23 -18 -43h-671q-20 -79 -11 -143.5
t40.5 -110.5t81 -72.5t111.5 -30.5q50 -3 92 1.5t75.5 13.5t58 20t39.5 21zM914 650q2 3 5 16t5.5 29.5t4 32t1.5 24.5q0 36 -9.5 71.5t-30.5 65t-55 48.5t-82 21q-76 3 -128.5 -15t-89.5 -50.5t-62 -74.5t-45 -86l-72 -109l193 27h365zM543 1500h200l-35 -200h-200z
M943 1500h200l-35 -200h-200z" />
    <glyph glyph-name="igrave" unicode="&#xec;" horiz-adv-x="600" 
d="M390 0h-182l186 1055l185 20zM572 1200h-150l-172 300l208 20z" />
    <glyph glyph-name="iacute" unicode="&#xed;" horiz-adv-x="600" 
d="M390 0h-182l186 1055l185 20zM647 1500l234 20l-297 -320h-150z" />
    <glyph glyph-name="icircumflex" unicode="&#xee;" horiz-adv-x="600" 
d="M390 0h-182l186 1055l185 20zM794 1220h-150l-74 152l-14 88l-45 -87l-128 -153h-150l225 280l204 20z" />
    <glyph glyph-name="idieresis" unicode="&#xef;" horiz-adv-x="600" 
d="M390 0h-182l186 1055l185 20zM264 1500h200l-35 -200h-200zM664 1500h200l-35 -200h-200z" />
    <glyph glyph-name="eth" unicode="&#xf0;" horiz-adv-x="1300" 
d="M645 1168l244 179l-123 -21q-45 26 -91.5 39t-100.5 13q-13 0 -22.5 -1t-12.5 -2v143q17 2 32 2h30q110 0 201.5 -30t165.5 -85l159 117l77 -115l-212 -155l118 3q73 -131 97 -292t12 -343q-4 -57 -25 -129.5t-58.5 -147t-90 -144.5t-119.5 -122.5t-147 -79.5t-173 -17
q-108 12 -181 47t-117 95t-62.5 146t-17.5 201q0 75 22 140.5t59 118.5t87.5 93.5t108 66.5t120.5 36t125 3q67 -8 128.5 -25t123.5 -55l62 -117q1 74 -7.5 142.5t-26.5 128.5t-47 109t-69 84l-192 -141zM1021 607q-19 23 -48.5 48.5t-66.5 48t-80 40t-89 23.5
q-72 10 -132 -13t-103.5 -67.5t-68.5 -106t-28 -129.5q-5 -137 54 -214t174 -97q60 -10 113 8.5t96.5 57t76 92.5t52.5 114q18 56 29.5 101t20.5 94z" />
    <glyph glyph-name="ntilde" unicode="&#xf1;" horiz-adv-x="1242" 
d="M382 0h-182l193 1100l186 20l-32 -183l80 107q25 17 50 31.5t55.5 25t69.5 15t93 1.5q71 -5 119.5 -35t75.5 -79.5t33 -114.5t-7 -138l-132 -750h-182l132 750q16 92 -14.5 147t-109.5 60q-34 2 -70 -5.5t-72.5 -23t-71.5 -37t-66 -47.5zM522 1276q12 55 36 96t54 67.5
t63.5 38t65.5 7.5q39 -6 70 -20.5t59.5 -30t56 -27.5t58.5 -12q28 0 47.5 10.5t32.5 26.5t20 34.5t11 35.5l95 -3q-6 -48 -29 -92.5t-55.5 -76.5t-72 -48.5t-78.5 -9.5q-28 5 -56 21.5t-57.5 33.5t-61.5 28t-68 6q-38 -5 -64.5 -24t-41.5 -64z" />
    <glyph glyph-name="ograve" unicode="&#xf2;" 
d="M596 -17q-110 7 -190 51t-129 118.5t-67 176t-5 224.5q13 122 64 228t130 183t180.5 118.5t215.5 34.5q110 -6 190 -49.5t129.5 -117t68.5 -174.5t6 -223q-13 -125 -65 -232t-131.5 -184.5t-181.5 -119t-215 -34.5zM999 500q15 80 17 155t-18.5 136t-67.5 104t-130 60
q-80 16 -149.5 -10t-122.5 -78t-88 -123t-47 -145q-13 -83 -14.5 -158.5t18 -136t65.5 -102t129 -56.5q78 -15 146.5 11.5t122 78t89.5 121.5t50 143zM837 1200h-150l-172 300l208 20z" />
    <glyph glyph-name="oacute" unicode="&#xf3;" 
d="M596 -17q-110 7 -190 51t-129 118.5t-67 176t-5 224.5q13 122 64 228t130 183t180.5 118.5t215.5 34.5q110 -6 190 -49.5t129.5 -117t68.5 -174.5t6 -223q-13 -125 -65 -232t-131.5 -184.5t-181.5 -119t-215 -34.5zM999 500q15 80 17 155t-18.5 136t-67.5 104t-130 60
q-80 16 -149.5 -10t-122.5 -78t-88 -123t-47 -145q-13 -83 -14.5 -158.5t18 -136t65.5 -102t129 -56.5q78 -15 146.5 11.5t122 78t89.5 121.5t50 143zM948 1500l234 20l-297 -320h-150z" />
    <glyph glyph-name="ocircumflex" unicode="&#xf4;" 
d="M596 -17q-110 7 -190 51t-129 118.5t-67 176t-5 224.5q13 122 64 228t130 183t180.5 118.5t215.5 34.5q110 -6 190 -49.5t129.5 -117t68.5 -174.5t6 -223q-13 -125 -65 -232t-131.5 -184.5t-181.5 -119t-215 -34.5zM999 500q15 80 17 155t-18.5 136t-67.5 104t-130 60
q-80 16 -149.5 -10t-122.5 -78t-88 -123t-47 -145q-13 -83 -14.5 -158.5t18 -136t65.5 -102t129 -56.5q78 -15 146.5 11.5t122 78t89.5 121.5t50 143zM1095 1220h-150l-74 152l-14 88l-45 -87l-128 -153h-150l225 280l204 20z" />
    <glyph glyph-name="otilde" unicode="&#xf5;" 
d="M596 -17q-110 7 -190 51t-129 118.5t-67 176t-5 224.5q13 122 64 228t130 183t180.5 118.5t215.5 34.5q110 -6 190 -49.5t129.5 -117t68.5 -174.5t6 -223q-13 -125 -65 -232t-131.5 -184.5t-181.5 -119t-215 -34.5zM999 500q15 80 17 155t-18.5 136t-67.5 104t-130 60
q-80 16 -149.5 -10t-122.5 -78t-88 -123t-47 -145q-13 -83 -14.5 -158.5t18 -136t65.5 -102t129 -56.5q78 -15 146.5 11.5t122 78t89.5 121.5t50 143zM510 1276q12 55 36 96t54 67.5t63.5 38t65.5 7.5q39 -6 70 -20.5t59.5 -30t56 -27.5t58.5 -12q28 0 47.5 10.5t32.5 26.5
t20 34.5t11 35.5l95 -3q-6 -48 -29 -92.5t-55.5 -76.5t-72 -48.5t-78.5 -9.5q-28 5 -56 21.5t-57.5 33.5t-61.5 28t-68 6q-38 -5 -64.5 -24t-41.5 -64z" />
    <glyph glyph-name="odieresis" unicode="&#xf6;" 
d="M596 -17q-110 7 -190 51t-129 118.5t-67 176t-5 224.5q13 122 64 228t130 183t180.5 118.5t215.5 34.5q110 -6 190 -49.5t129.5 -117t68.5 -174.5t6 -223q-13 -125 -65 -232t-131.5 -184.5t-181.5 -119t-215 -34.5zM999 500q15 80 17 155t-18.5 136t-67.5 104t-130 60
q-80 16 -149.5 -10t-122.5 -78t-88 -123t-47 -145q-13 -83 -14.5 -158.5t18 -136t65.5 -102t129 -56.5q78 -15 146.5 11.5t122 78t89.5 121.5t50 143zM564 1500h200l-35 -200h-200zM964 1500h200l-35 -200h-200z" />
    <glyph glyph-name="divide" unicode="&#xf7;" horiz-adv-x="1100" 
d="M456 282q0 31 15 60t40 50.5t56 32.5t62 5q31 -5 54 -19t38.5 -33.5t23.5 -44.5t7 -51q-1 -32 -16 -61t-39 -50t-55 -32t-63 -7q-61 7 -92.5 49t-30.5 101zM577 962q0 31 15 60t40 50.5t56 32.5t62 5q31 -5 54 -19t38.5 -33.5t23.5 -44.5t7 -51q-1 -32 -16 -61t-39 -50
t-55 -32t-63 -7q-61 7 -92.5 49t-30.5 101zM223 700h900l-27 -155h-900z" />
    <glyph glyph-name="oslash" unicode="&#xf8;" 
d="M596 -17q-68 5 -125 22l-63 -105h-210l121 199q-23 24 -42 53q-49 75 -67 176.5t-5 224.5q13 122 64 228t130 183t180.5 118.5t215.5 34.5q72 -4 132 -24l71 116h200l-125 -208q23 -23 41 -51q50 -73 69 -174t6 -223q-13 -125 -65 -232t-131.5 -184.5t-181.5 -119
t-215 -34.5zM800 955q-80 16 -149.5 -10t-122.5 -78t-88 -123t-47 -145q-13 -83 -14.5 -158.5t17.5 -136.5q8 -25 20 -46l421 687q-18 6 -37 10zM999 500q15 80 17 155t-19 136q-8 26 -22 48l-415 -687q15 -3 31 -6q78 -15 146.5 11.5t122 78t89.5 121.5t50 143z" />
    <glyph glyph-name="ugrave" unicode="&#xf9;" 
d="M1011 1100l186 20l-197 -1120h-182l28 163l-63 -84q-17 -22 -42.5 -41.5t-58.5 -33t-74 -19.5t-90 -2q-80 7 -132 42.5t-79.5 89t-32.5 120.5t7 137l128 728l186 20l-132 -748q-8 -44 -4.5 -82.5t20.5 -68.5t47.5 -50.5t76.5 -27.5q33 -6 69 1.5t70.5 24t65.5 40t55 49.5
zM892 1200h-150l-172 300l208 20z" />
    <glyph glyph-name="uacute" unicode="&#xfa;" 
d="M1011 1100l186 20l-197 -1120h-182l28 163l-63 -84q-17 -22 -42.5 -41.5t-58.5 -33t-74 -19.5t-90 -2q-80 7 -132 42.5t-79.5 89t-32.5 120.5t7 137l128 728l186 20l-132 -748q-8 -44 -4.5 -82.5t20.5 -68.5t47.5 -50.5t76.5 -27.5q33 -6 69 1.5t70.5 24t65.5 40t55 49.5
zM936 1500l234 20l-297 -320h-150z" />
    <glyph glyph-name="ucircumflex" unicode="&#xfb;" 
d="M1011 1100l186 20l-197 -1120h-182l28 163l-63 -84q-17 -22 -42.5 -41.5t-58.5 -33t-74 -19.5t-90 -2q-80 7 -132 42.5t-79.5 89t-32.5 120.5t7 137l128 728l186 20l-132 -748q-8 -44 -4.5 -82.5t20.5 -68.5t47.5 -50.5t76.5 -27.5q33 -6 69 1.5t70.5 24t65.5 40t55 49.5
zM1108 1220h-150l-74 152l-14 88l-45 -87l-128 -153h-150l225 280l204 20z" />
    <glyph glyph-name="udieresis" unicode="&#xfc;" 
d="M1011 1100l186 20l-197 -1120h-182l28 163l-63 -84q-17 -22 -42.5 -41.5t-58.5 -33t-74 -19.5t-90 -2q-80 7 -132 42.5t-79.5 89t-32.5 120.5t7 137l128 728l186 20l-132 -748q-8 -44 -4.5 -82.5t20.5 -68.5t47.5 -50.5t76.5 -27.5q33 -6 69 1.5t70.5 24t65.5 40t55 49.5
zM563 1500h200l-35 -200h-200zM963 1500h200l-35 -200h-200z" />
    <glyph glyph-name="yacute" unicode="&#xfd;" horiz-adv-x="1100" 
d="M646 364l398 736l193 17l-613 -1134q-65 -120 -116 -207.5t-101 -144.5t-104.5 -84.5t-125.5 -26.5q-51 1 -96.5 21t-80.5 56l92 107q14 -12 35 -21.5t45 -10.5q37 -1 65.5 12.5t58 46t64 87t82.5 135.5l-215 1147l173 17q11 -56 22 -118q10 -54 22.5 -121t26.5 -138
q31 -165 71 -376l11 -232zM890 1500l234 20l-297 -320h-150z" />
    <glyph glyph-name="thorn" unicode="&#xfe;" 
d="M561 1520l-89 -503q54 40 117 65q102 42 216 35q110 -6 190 -49.5t129.5 -117t68.5 -174.5t6 -223q-13 -125 -65 -232t-131.5 -184.5t-181.5 -119t-215 -34.5q-110 7 -190 51q-60 33 -103 83l-91 -517h-194l335 1900zM1009 500q15 80 17 155t-18.5 136t-67.5 104t-130 60
q-80 16 -149.5 -10t-122.5 -78t-88 -123t-47 -145q-13 -83 -14.5 -158.5t18 -136t65.5 -102t129 -56.5q78 -15 146.5 11.5t122 78t89.5 121.5t50 143z" />
    <glyph glyph-name="ydieresis" unicode="&#xff;" horiz-adv-x="1100" 
d="M646 364l398 736l193 17l-613 -1134q-65 -120 -116 -207.5t-101 -144.5t-104.5 -84.5t-125.5 -26.5q-51 1 -96.5 21t-80.5 56l92 107q14 -12 35 -21.5t45 -10.5q37 -1 65.5 12.5t58 46t64 87t82.5 135.5l-215 1147l173 17q11 -56 22 -118q10 -54 22.5 -121t26.5 -138
q31 -165 71 -376l11 -232zM493 1500h200l-35 -200h-200zM893 1500h200l-35 -200h-200z" />
    <glyph glyph-name="OE" unicode="&#x152;" horiz-adv-x="2000" 
d="M797 -17q-290 0 -424.5 196.5t-110.5 570.5q7 115 40 219t86 192t125.5 157.5t159.5 116.5t186.5 68.5t207.5 13.5l165 -87l2 70h832l-28 -160h-630l-14 -190l-46 -265h540l-26 -145h-540l-71 -400l-41 -180h655l-48 -160h-847l22 70zM1220 1305q-11 5 -20.5 9t-18.5 8
q-32 13 -69.5 18t-80.5 7q-133 7 -233 -35.5t-169.5 -120.5t-109 -183t-49.5 -223q-12 -131 -4.5 -240t46.5 -191t116 -133.5t204 -67.5q41 -5 78.5 3t72.5 19l40 15z" />
    <glyph glyph-name="oe" unicode="&#x153;" horiz-adv-x="1900" 
d="M999 500q15 80 17 155t-18.5 136t-67.5 104t-130 60q-80 16 -149.5 -10t-122.5 -78t-88 -123t-47 -145q-13 -83 -14.5 -158.5t18 -136t65.5 -102t129 -56.5q78 -15 146.5 11.5t122 78t89.5 121.5t50 143zM1720 650q2 3 5 16t5.5 29.5t4 32t1.5 24.5q0 36 -9.5 71.5
t-30.5 65t-55 48.5t-82 21q-76 3 -128.5 -15t-89.5 -50.5t-62 -74.5t-45 -86l-72 -109l193 27h365zM1763 103q-30 -28 -66 -51t-81 -39t-99 -24t-119 -6q-116 5 -198.5 45.5t-129.5 108.5l-24 77l-41 -76q-40 -39 -87.5 -69t-100 -50.5t-108.5 -29.5t-113 -6q-110 7 -190 51
t-129 118.5t-67 176t-5 224.5q13 122 64 228t130 183t180.5 118.5t215.5 34.5q106 -6 187.5 -45.5t132.5 -107.5l19 -79l51 77q69 71 167.5 113t219.5 42q94 0 163.5 -34.5t111.5 -97t56 -149t-2 -190.5q-5 -31 -12.5 -57t-15.5 -46q-9 -23 -18 -43h-671q-20 -79 -11 -143.5
t40.5 -110.5t81 -72.5t111.5 -30.5q50 -3 92 1.5t75.5 13.5t58 20t39.5 21z" />
    <glyph glyph-name="Scaron" unicode="&#x160;" horiz-adv-x="1100" 
d="M1098 1252q-65 52 -126.5 76t-135.5 22q-63 -2 -122 -20.5t-104 -51t-71.5 -77.5t-24.5 -100q1 -52 26 -89.5t65.5 -68t91 -56.5t103.5 -54.5t103.5 -63t90 -81t63.5 -109t24 -147.5q0 -111 -49.5 -198t-132.5 -145.5t-190.5 -86t-223.5 -19.5q-118 8 -212.5 50
t-164.5 101l118 150q24 -22 53 -44t63 -41t73.5 -32.5t84.5 -18.5q57 -7 123.5 5t123 46t93.5 92t37 142q0 55 -24.5 96.5t-64.5 75t-91 62t-104 58.5t-103.5 64.5t-90.5 80.5t-64 106t-24 140q0 100 44.5 175.5t118.5 125.5t169.5 75t197.5 25q62 0 117 -13t102 -34
t85.5 -47t68.5 -52zM998 1600l-197 20l-126 280h150l87 -133l6 -77l34 78l134 132h150z" />
    <glyph glyph-name="scaron" unicode="&#x161;" horiz-adv-x="900" 
d="M823 919q-17 9 -39.5 19t-48 18.5t-52 14t-51.5 5.5q-113 2 -170.5 -35.5t-59.5 -105.5q-1 -43 15.5 -68.5t50.5 -45t85 -38.5t119 -48q44 -19 79.5 -48.5t60.5 -66.5t37 -80t9 -89q-8 -102 -51.5 -175t-110.5 -118t-151.5 -63.5t-173.5 -11.5q-34 3 -76 9.5t-83 17.5
t-77.5 26t-58.5 33l89 132q22 -12 52 -24t63 -21.5t66 -16t60 -6.5q58 0 106.5 11t84 33.5t56.5 58t24 84.5q3 46 -8 76t-40.5 54t-80 47.5t-126.5 55.5q-46 19 -80.5 43t-57 56.5t-32.5 76.5t-8 103q2 64 30.5 119.5t81.5 95t129 58.5t174 12q38 -3 74 -9.5t68 -15.5
t58 -20.5t44 -24.5zM795 1220l-197 20l-126 280h150l87 -133l6 -77l34 78l134 132h150z" />
    <glyph glyph-name="Ydieresis" unicode="&#x178;" 
d="M814 935l388 565h192l-586 -854l-113 -646h-200l113 645l-285 855l208 20l178 -566l35 -249zM642 1898h200l-35 -200h-200zM1042 1898h200l-35 -200h-200z" />
    <glyph glyph-name="florin" unicode="&#x192;" horiz-adv-x="1400" 
d="M1432 1347q-9 5 -21.5 9.5t-27 8t-29 6t-26.5 3.5q-48 4 -79.5 -11.5t-55 -48.5t-44.5 -83t-49 -114l-127 -289h296l-67 -154h-240l-32 56l-330 -751q-44 -100 -78 -178.5t-75.5 -131.5t-99.5 -79t-149 -21q-46 2 -81 6t-63 10t-50 13.5t-41 17.5l105 133q9 -5 21.5 -9.5
t26.5 -8t29 -6t27 -3.5q48 -5 78 11t53 49.5t45 83.5t52 113l305 695h-281l67 154h217l40 -57q70 156 119 272t88 199t72.5 136.5t71.5 84t86 42.5t116 12q46 0 78 -3.5t56 -10t43 -15t39 -18.5z" />
    <glyph glyph-name="circumflex" unicode="&#x2c6;" horiz-adv-x="1100" 
d="M995 1220h-150l-74 152l-14 88l-45 -87l-128 -153h-150l225 280l204 20z" />
    <glyph glyph-name="caron" unicode="&#x2c7;" horiz-adv-x="1100" 
d="M810 1220l-197 20l-126 280h150l87 -133l6 -77l34 78l134 132h150z" />
    <glyph glyph-name="breve" unicode="&#x2d8;" horiz-adv-x="1100" 
d="M593 1519q-11 -34 0 -61q4 -12 14 -24t27 -22t43 -17.5t63 -11.5q34 -4 61 0t47.5 13t35.5 21.5t25 26.5q24 32 32 75h106q-8 -82 -46 -144q-16 -26 -40 -50.5t-58.5 -42t-80.5 -26t-105 -3.5q-88 8 -138.5 30.5t-76 52.5t-31 62t-2 59t10.5 44.5t6 17.5h107z" />
    <glyph glyph-name="dotaccent" unicode="&#x2d9;" horiz-adv-x="600" 
d="M458 1500h202l-35 -200h-202z" />
    <glyph glyph-name="ring" unicode="&#x2da;" horiz-adv-x="1100" 
d="M788 1636q48 -8 85.5 -29.5t62.5 -53t37 -71t10 -83.5q-3 -57 -27.5 -102.5t-63 -77t-87 -47.5t-99.5 -14q-44 1 -81.5 21.5t-64.5 53.5t-41 76t-11 90q3 50 27.5 96.5t63.5 80.5t88.5 51t100.5 9zM725 1275q24 -5 49.5 2t47 23.5t34.5 41.5t11 56q-3 52 -26.5 81.5
t-73.5 39.5q-26 5 -51.5 -3.5t-46 -26t-33 -41.5t-11.5 -50q3 -102 100 -123z" />
    <glyph glyph-name="ogonek" unicode="&#x2db;" horiz-adv-x="1100" 
d="M552 0q-24 -29 -42 -61q-15 -27 -25 -61t-5 -67q8 -49 38 -70t73 -20q29 0 56.5 10t49.5 21q26 13 49 30l89 -100q-39 -26 -81 -45q-36 -17 -79.5 -30.5t-85.5 -13.5q-50 0 -94.5 14t-79 40.5t-57.5 65.5t-30 89q-5 40 1 76t17 63q12 32 30 59h176z" />
    <glyph glyph-name="tilde" unicode="&#x2dc;" horiz-adv-x="1100" 
d="M422 1335q12 55 36 96t54 67.5t63.5 38t65.5 7.5q39 -6 70 -20.5t59.5 -30t56 -27.5t58.5 -12q28 0 47.5 10.5t32.5 26.5t20 34.5t11 35.5l95 -3q-6 -48 -29 -92.5t-55.5 -76.5t-72 -48.5t-78.5 -9.5q-28 5 -56 21.5t-57.5 33.5t-61.5 28t-68 6q-38 -5 -64.5 -24
t-41.5 -64z" />
    <glyph glyph-name="hungarumlaut" unicode="&#x2dd;" horiz-adv-x="1100" 
d="M642 1500l234 20l-374 -403h-150zM1005 1500l234 20l-374 -403h-150z" />
    <glyph glyph-name="Alpha" unicode="&#x391;" horiz-adv-x="1300" 
d="M61 0l652 1300l70 200l222 20l230 -1520h-190l-69 450h-495l-225 -450h-195zM888 1360l-82 -260l-250 -500h397l-75 500z" />
    <glyph glyph-name="Beta" unicode="&#x392;" horiz-adv-x="1300" 
d="M619 1359l-17 -212l-46 -262h110q72 0 138.5 14t119 45.5t87 81.5t41.5 122q6 66 -15 109.5t-60.5 69.5t-92.5 37t-110 11q-17 0 -37.5 -1t-41.5 -3.5t-40.5 -5.5t-35.5 -6zM200 0l227 1290l5 200q30 4 69 8t80 6.5t80.5 4t71.5 1.5q111 0 207.5 -15.5t166 -54
t106 -104.5t27.5 -167q-6 -66 -28 -116t-55 -87.5t-74.5 -63t-85.5 -42.5l-162 -44l145 -14q58 -18 105 -46t78.5 -69t45.5 -97t6 -130q-14 -129 -70.5 -217t-141 -142t-190.5 -77.5t-217 -23.5h-396zM428 160h140q102 0 182 12.5t136.5 45.5t90 89t44.5 143q9 76 -11.5 129
t-63.5 86.5t-104 49t-134 15.5h-180z" />
    <glyph glyph-name="Gamma" unicode="&#x393;" horiz-adv-x="1100" 
d="M602 1150l-202 -1150h-200l229 1300l18 200h837l-26 -150h-635z" />
    <glyph glyph-name="Deltagreek" unicode="&#x394;" horiz-adv-x="1500" 
d="M1485 0h-1472l887 1500l222 23zM1186 160l114 -52l-66 92l-230 1058l-5 167l-65 -167l-602 -1058l-101 -92l135 52h820z" />
    <glyph glyph-name="Epsilon" unicode="&#x395;" 
d="M1073 160l-48 -160h-840l50 200l192 1090l7 210h840l-28 -160h-630l-14 -190l-46 -265h540l-26 -145h-540l-71 -400l-41 -180h655z" />
    <glyph glyph-name="Zeta" unicode="&#x396;" 
d="M1118 160l-8 -160h-1029l-12 50l858 1150l216 180l-272 -40h-485l8 160h946l11 -22l-869 -1178l-209 -180l272 40h573z" />
    <glyph glyph-name="Eta" unicode="&#x397;" horiz-adv-x="1400" 
d="M1015 0l127 725h-630l-127 -725h-195l227 1290l8 210l228 20l-112 -635h630l108 617l199 18l-268 -1520h-195z" />
    <glyph glyph-name="Theta" unicode="&#x398;" horiz-adv-x="1600" 
d="M667 835h580l-50 -170h-580zM797 -17q-146 8 -254.5 66.5t-176.5 158.5t-94 237.5t-6 304.5q20 171 82.5 315t164 247t241 158t313.5 47q144 -6 251.5 -64.5t175.5 -159t95 -239t9 -304.5q-19 -174 -82 -319.5t-165.5 -248t-242 -156t-311.5 -43.5zM1394 719
q11 121 -0.5 230.5t-53 194t-117 138.5t-192.5 65q-84 7 -155.5 -11.5t-131 -57t-107 -93.5t-82 -120t-56 -136.5t-29.5 -143.5q-14 -123 -2.5 -234.5t54 -197.5t118.5 -139.5t192 -60.5q90 -5 165 15t135 59t106 94t78.5 119.5t51.5 135.5t26 143z" />
    <glyph glyph-name="Iota" unicode="&#x399;" horiz-adv-x="600" 
d="M200 0l227 1290l7 210l234 20l-268 -1520h-200z" />
    <glyph glyph-name="Kappa" unicode="&#x39a;" 
d="M200 0l227 1290l7 210l234 20l-118 -664l655 644h222l-643 -635l-180 -63l164 -58l422 -744h-237l-422 746l-131 -746h-200z" />
    <glyph glyph-name="Lambda" unicode="&#x39b;" horiz-adv-x="1300" 
d="M868 1100l10 260l-82 -260l-550 -1100h-184l652 1300l70 200l221 20l230 -1520h-200z" />
    <glyph glyph-name="Mu" unicode="&#x39c;" horiz-adv-x="1800" 
d="M1400 0l176 1000l100 320l-5 1l-154 -301q-160 -251 -285 -448q-54 -84 -105 -164.5t-91.5 -142.5t-65 -99.5t-25.5 -35.5h-69l-229 790l-62 401l-6 -1l-21 -419l-158 -901h-192l227 1290l9 210l230 20l273 -940l9 -260l101 260l591 920l220 20l-268 -1520h-200z" />
    <glyph glyph-name="Nu" unicode="&#x39d;" horiz-adv-x="1500" 
d="M1100 0l-434 1028l-66 289l-6 -1l-18 -316l-176 -1000h-192l227 1290l7 210l232 20l433 -1033l65 -314l6 1l11 336l175 990l193 20l-268 -1520h-189z" />
    <glyph glyph-name="Xi" unicode="&#x39e;" 
d="M356 885h800l-31 -174h-800zM130 174h1000l-30 -174h-1000zM364 1500h1000l-31 -174h-1000z" />
    <glyph glyph-name="Omicron" unicode="&#x39f;" horiz-adv-x="1600" 
d="M797 -17q-146 8 -254.5 66.5t-176.5 158.5t-94 237.5t-6 304.5q20 171 82.5 315t164 247t241 158t313.5 47q144 -6 251.5 -64.5t175.5 -159t95 -239t9 -304.5q-19 -174 -82 -319.5t-165.5 -248t-242 -156t-311.5 -43.5zM1394 719q11 121 -0.5 230.5t-53 194t-117 138.5
t-192.5 65q-84 7 -155.5 -11.5t-131 -57t-107 -93.5t-82 -120t-56 -136.5t-29.5 -143.5q-14 -123 -2.5 -234.5t54 -197.5t118.5 -139.5t192 -60.5q90 -5 165 15t135 59t106 94t78.5 119.5t51.5 135.5t26 143z" />
    <glyph glyph-name="Rho" unicode="&#x3a1;" 
d="M510 624l-110 -624h-200l227 1290v200q31 5 74 9t90.5 7t95 4.5t86.5 1.5q115 0 213 -23.5t167 -73t103.5 -127t22.5 -184.5q-17 -151 -82 -248.5t-167 -152t-235 -71.5t-285 -8zM602 1147l-68 -382q135 -10 235.5 4.5t169 55t106.5 107.5t48 163q7 73 -19 126
t-70.5 87.5t-101 50.5t-108.5 16q-17 0 -40.5 -1.5t-48 -3.5t-47.5 -5t-39 -6z" />
    <glyph glyph-name="Sigma" unicode="&#x3a3;" 
d="M953 700l-425 -383l-260 -192l256 45h606l-29 -170h-1021l52 183l591 517l162 50l-144 50l-409 517l12 183h1021l-30 -170h-606l-241 45l193 -192l290 -383z" />
    <glyph glyph-name="Tau" unicode="&#x3a4;" 
d="M505 0l236 1340h-415l28 160h1025l-28 -160h-410l-236 -1340h-200z" />
    <glyph glyph-name="Upsilon" unicode="&#x3a5;" 
d="M814 935l388 565h192l-586 -854l-113 -646h-200l113 645l-285 855l208 20l178 -566l35 -249z" />
    <glyph glyph-name="Phi" unicode="&#x3a6;" horiz-adv-x="1399" 
d="M635 204q-67 9 -132 29q-65 23 -124.5 65t-102.5 105t-64 149t-9 198q13 117 56.5 203t108.5 147t146.5 101t170.5 65q73 22 143 29l36 205l203 20l-40 -225q35 -4 68.5 -11t65.5 -18q62 -22 122 -63.5t104.5 -105t67 -150t8.5 -197.5q-26 -207 -150.5 -337t-332.5 -180
l-146 -29l-38 -218h-199zM862 361q77 4 150.5 33t132.5 79.5t96.5 120.5t42.5 156q4 74 -7 135t-44 109t-90 84.5t-144 60.5zM601 376q15 -3 30.5 -7.5t31.5 -7.5l137 778q-74 -2 -146 -28.5t-130.5 -76t-97.5 -121t-45 -163.5q-5 -78 12.5 -142.5t49 -113t73 -79
t85.5 -39.5z" />
    <glyph glyph-name="Chi" unicode="&#x3a7;" horiz-adv-x="1300" 
d="M1014 0l-222 519l-45 181l-76 -160l-420 -540h-198l620 799l-299 701l216 20l196 -464l45 -196l63 160l373 480h200l-563 -724l330 -776h-220z" />
    <glyph glyph-name="Psi" unicode="&#x3a8;" horiz-adv-x="1400" 
d="M1063 1520l-162 -918q48 1 94 7q48 6 92 21t79.5 43t61 72t37.5 109l114 646h195l-111 -627q-17 -98 -54.5 -169t-90.5 -121t-118 -80.5t-137 -47t-149 -21.5q-22 -1 -43 -2l-76 -431h-190l77 438q-33 3 -65 9q-71 12 -133 35.5t-112 61t-82 91t-43 124.5t5 163l65 367
l7 210l229 20l-109 -616q-15 -85 14 -142.5t83.5 -92t123.5 -50.5q24 -5 47 -9l157 890z" />
    <glyph glyph-name="Omegagreek" unicode="&#x3a9;" horiz-adv-x="1600" 
d="M130 160h198l190 -60l-173 204q-33 52 -52.5 109t-28.5 117t-9.5 121.5t5.5 123.5q16 165 78 304.5t165 239t245 153t319 45.5q126 -6 232.5 -59t181.5 -148.5t111 -230.5t20 -304q-9 -92 -33.5 -166.5t-56 -133t-64 -101t-56.5 -70.5l-286 -204l211 60h198l-28 -160
h-548l35 200q66 19 135.5 63t129 112t100.5 160.5t50 208.5q10 140 -5 249.5t-59.5 186t-119.5 119t-184 48.5q-95 5 -172.5 -15t-138 -58t-105 -90.5t-74.5 -114t-46.5 -128t-20.5 -131.5q-7 -113 0 -206t31.5 -168t68.5 -133.5t111 -102.5l-35 -200h-548z" />
    <glyph glyph-name="alpha" unicode="&#x3b1;" horiz-adv-x="1400" 
d="M1362 996q-88 -57 -107 -145q-11 -45 -25 -119t-33 -180q-38 -215 -45 -283q-3 -35 2 -62t16 -46.5t27 -29.5t34 -10q22 0 33 1.5t24 3.5l32 -116q-60 -27 -123 -27q-134 0 -189 69l-24 144l-70 -112q-49 -34 -104 -58q-51 -22 -104 -36.5t-110 -6.5q-111 15 -190 64
t-128 124.5t-69 173t-12 208.5q10 142 65.5 252t139.5 183.5t186.5 107t206.5 21.5q56 -6 105 -13.5t91 -29.5q26 -13 48 -28.5t42 -34.5l27 -111l74 138q22 17 49.5 32.5t61.5 29.5zM1002 526q3 74 -2.5 148t-30 135.5t-73 103t-132.5 49.5q-92 9 -161.5 -22.5t-116 -88.5
t-70.5 -130.5t-26 -148.5q-2 -80 4.5 -153t31.5 -131t72.5 -97.5t128.5 -52.5q52 -9 99.5 3t89 38.5t75 65t57.5 84.5t38 96.5t16 100.5z" />
    <glyph glyph-name="beta" unicode="&#x3b2;" 
d="M428 217q21 -15 45 -27q20 -11 45 -20t50 -10q97 -5 175.5 6t136.5 44t94 91.5t47 148.5q17 141 -66.5 210.5t-246.5 69.5l-42 155q64 0 129 12.5t119 43t91.5 81t46.5 126.5q6 48 -8 87.5t-40.5 69t-61.5 46t-71 18.5q-78 3 -124 -13t-78 -52q-28 -31 -42.5 -65
t-22.5 -79zM308 -517l-197 17l286 1611q34 195 158 307q28 25 57.5 43.5t69 31t92 18.5t126.5 6q82 0 147.5 -26.5t110 -73t65.5 -110t14 -138.5q-6 -63 -24.5 -111t-49 -85.5t-71.5 -64.5t-91 -48l-162 -44l145 -14q58 -18 105.5 -48.5t78.5 -73t43.5 -98t1.5 -122.5
q-9 -94 -41 -164.5t-79 -121.5t-106.5 -84.5t-124.5 -53.5t-132.5 -28t-129.5 -8q-32 -1 -65 3q-29 3 -63 9t-67 20z" />
    <glyph glyph-name="gamma" unicode="&#x3b3;" horiz-adv-x="1100" 
d="M196 1117q35 3 74.5 1t75.5 -19.5t64.5 -55t41.5 -103.5l110 -576l11 -232l93 232l398 736l183 17l-607 -1134l-86 -483h-192l80 453l-171 916q-10 50 -26 74.5t-32 34.5q-18 11 -39 9z" />
    <glyph glyph-name="delta" unicode="&#x3b4;" 
d="M1224 1500l-71 -158h-352q-35 0 -64.5 -2.5t-51.5 -8.5t-36 -17.5t-17 -29.5q-3 -17 12 -34.5t41 -34.5t59 -34t65.5 -32.5t60.5 -30t45 -27.5q65 -50 117.5 -104t88.5 -121t54.5 -150t16.5 -190q-1 -72 -25 -142t-65 -133t-96.5 -116t-121 -89.5t-137.5 -53.5t-146 -9
q-117 13 -193.5 62.5t-122 124.5t-64 170t-17.5 199q2 169 95.5 292.5t275.5 183.5h203l-93 44q-61 21 -105 43t-72 48.5t-41 60t-13 78.5q0 57 19 95t50.5 61t72 35t84 16t86.5 4h458zM622 127q63 -10 125 20.5t112.5 87t83 132.5t35.5 159q2 66 -4 130.5t-29 118.5t-66 93
t-114 53q-69 14 -134 -10.5t-115 -78t-80.5 -132.5t-31.5 -174q-1 -77 7 -145t31.5 -120.5t66.5 -87.5t113 -46z" />
    <glyph glyph-name="epsilon" unicode="&#x3b5;" horiz-adv-x="1000" 
d="M831 633l-43 -133h-254q-49 0 -89.5 -14t-69.5 -39.5t-45 -60t-15 -74.5q2 -72 57.5 -118.5t166.5 -56.5q59 -5 105.5 3.5t78.5 22.5q38 15 67 37l72 -101q-26 -36 -77 -63q-22 -12 -51.5 -22.5t-68 -18t-86.5 -11.5t-107 -1q-72 3 -138 26t-114.5 65t-75 102t-19.5 137
q4 43 18.5 83.5t37.5 74t53 57.5t64 36q-52 38 -72 98.5t-14 147.5q6 88 48 147t106.5 94.5t144 50.5t160.5 15q57 0 105.5 -8.5t85.5 -18.5q43 -11 79 -26l-77 -120q-25 3 -53 7q-25 3 -57 6t-70 6q-63 4 -115.5 -6.5t-90 -34t-58.5 -57t-21 -74.5q0 -33 11 -61.5t31 -50
t49.5 -34t66.5 -12.5h274z" />
    <glyph glyph-name="zeta" unicode="&#x3b6;" horiz-adv-x="1000" 
d="M1184 1500l-48 -158q-69 -50 -147.5 -108t-157.5 -122t-152.5 -134.5t-132 -145.5t-97 -154t-46.5 -161q-7 -71 -9 -122.5t10.5 -92t45.5 -73t95 -65.5q67 -35 122.5 -67.5t96.5 -72.5t66 -94t30 -133q3 -52 -22.5 -101.5t-70.5 -91.5t-104 -73.5t-121 -47.5l-67 131
q54 15 89 34.5t55.5 41.5t29.5 44.5t11 43.5q3 37 -7 69t-39 62t-80 59.5t-129 61.5q-81 33 -126.5 80.5t-66.5 106t-21.5 128t10.5 147.5q11 85 38.5 163t65.5 147.5t83 131t92 114t93.5 97t86.5 79.5l289 145l-173 -27h-360l48 158h720z" />
    <glyph glyph-name="eta" unicode="&#x3b7;" 
d="M390 0h-184l193 1100l188 20l-32 -183l80 107q32 21 62.5 35t62.5 22.5t69 12t82 3.5q78 0 125.5 -34.5t71 -88t26.5 -118.5t-8 -126l-221 -1250h-184l221 1250q9 50 3 89t-23 65.5t-44 40t-60 12.5q-85 -3 -152.5 -32.5t-127.5 -80.5z" />
    <glyph glyph-name="theta" unicode="&#x3b8;" 
d="M596 -20q-91 9 -155.5 44.5t-107.5 91.5t-67 129t-34 155.5t-9 171.5t9 178q8 92 32.5 187t64.5 183.5t95 165.5t123 131.5t148.5 83t172.5 19.5t157.5 -45t110 -92.5t69 -129.5t34 -155.5t7 -171.5t-13.5 -176q-11 -89 -37.5 -182.5t-68 -182t-96.5 -166t-122 -133.5
t-145.5 -85t-166.5 -21zM839 1357q-55 7 -105 -13t-94 -60t-80.5 -95.5t-64 -117.5t-45.5 -127t-24 -124h636q1 58 1.5 118.5t-5 117.5t-18 108t-38 91.5t-65 67t-98.5 34.5zM625 143q45 -9 90 7t86.5 51t78.5 85.5t67.5 112t53 130.5t34.5 141h-635q-2 -48 -2 -103t5 -110
t18 -106.5t38.5 -94t66 -72.5t99.5 -41z" />
    <glyph glyph-name="iota" unicode="&#x3b9;" horiz-adv-x="700" 
d="M359 902l14 198l214 20l-129 -729q-5 -26 -8.5 -56.5t-7.5 -65.5q-5 -52 16 -90.5t65 -47.5q21 -5 32.5 -1t17.5 6l47 -126q-7 -3 -16.5 -8t-23.5 -9t-34.5 -6.5t-48.5 -1.5q-96 3 -149 39.5t-74.5 95t-19 133t16.5 152.5z" />
    <glyph glyph-name="kappa" unicode="&#x3ba;" horiz-adv-x="1000" 
d="M200 0l162 919l11 180l204 20l-84 -475l450 456l204 21l-429 -451l-167 -70l142 -70l307 -528h-200l-323 552l-97 -554h-180z" />
    <glyph glyph-name="lambda" unicode="&#x3bb;" horiz-adv-x="1100" 
d="M720 968l-93 -232l-397 -736h-196l619 1147q-12 58 -26.5 111t-34 92t-47 60.5t-64.5 17.5q-24 -2 -47.5 -11t-42.5 -21l-54 107q48 36 100 55t103 22q57 3 100 -32t77 -98t61.5 -149t54.5 -184l212 -1117h-174l-140 736z" />
    <glyph glyph-name="mugreek" unicode="&#x3bc;" 
d="M393 1100l194 20l-126 -714q-6 -48 -9 -96t10 -87.5t49 -65.5t107 -30q35 -2 61 0.5t50.5 12.5t52.5 29.5t67 52.5l154 878l194 20l-197 -1120h-190l22 129q-42 -49 -85 -77.5t-85 -43t-81 -18.5t-74 -5q-37 0 -73 6.5t-63 19.5l-8 -161l-62 -350h-190z" />
    <glyph glyph-name="nu" unicode="&#x3bd;" 
d="M457 0l-190 1100h193l136 -805l7 -220l87 220l418 805h191l-575 -1100h-267z" />
    <glyph glyph-name="xi" unicode="&#x3be;" horiz-adv-x="1000" 
d="M405 30q-30 22 -69 66t-72.5 100t-55 119t-15.5 122q7 72 26 128t49.5 97t73 69.5t95.5 46.5l136 12l-124 57q-81 92 -75 250q2 55 14.5 94.5t33.5 69.5t51 53t66 45l107 41q-64 0 -114.5 11t-84 34t-48 58t-5.5 84h195q-1 -7 3 -21.5t16.5 -29t35 -25.5t58.5 -11h483
l-49 -158h-263q-23 0 -55.5 -5t-68 -16.5t-70.5 -30t-62 -45.5t-43 -64t-14 -84q2 -56 23 -96t51 -66t63 -38t60 -12h229l-51 -146q-54 7 -114.5 7.5t-120 -9.5t-114 -31t-96 -56t-66.5 -85t-25 -118q0 -35 5 -72.5t21 -74.5t44.5 -71.5t75.5 -64.5q64 -41 120.5 -74
t98.5 -72t67.5 -90.5t28.5 -130.5q1 -47 -20.5 -93t-62.5 -86.5t-100.5 -75t-134.5 -59.5l-67 131q35 16 66.5 35t56.5 39.5t41.5 43t20.5 46.5q8 45 -11.5 75.5t-56 57t-86 53.5t-101.5 66z" />
    <glyph glyph-name="omicron" unicode="&#x3bf;" 
d="M596 -17q-110 7 -190 51t-129 118.5t-67 176t-5 224.5q13 122 64 228t130 183t180.5 118.5t215.5 34.5q110 -6 190 -49.5t129.5 -117t68.5 -174.5t6 -223q-13 -125 -65 -232t-131.5 -184.5t-181.5 -119t-215 -34.5zM999 500q15 80 17 155t-18.5 136t-67.5 104t-130 60
q-80 16 -149.5 -10t-122.5 -78t-88 -123t-47 -145q-13 -83 -14.5 -158.5t18 -136t65.5 -102t129 -56.5q78 -15 146.5 11.5t122 78t89.5 121.5t50 143z" />
    <glyph glyph-name="pi" unicode="&#x3c0;" horiz-adv-x="1300" 
d="M1147 950l-98 -557q-9 -52 -17 -100t-4.5 -84t25 -57t70.5 -19q11 0 23.5 2t23.5 4l24 6l58 -126q-19 -9 -55.5 -20t-99.5 -12q-62 -1 -105 14.5t-71.5 44t-43.5 67.5t-19.5 86t-0.5 100t14 108l96 543h-380l31 -163l-138 -787h-180l122 694q9 49 12 97t-4 85.5
t-26.5 59.5t-55.5 18q-11 -2 -23.5 -3.5t-23.5 -3.5q-12 -3 -24 -5l-58 126q19 9 55 20.5t97 11.5h941l-46 -150h-119z" />
    <glyph glyph-name="sigma1" unicode="&#x3c2;" horiz-adv-x="900" 
d="M986 885l-51 -146q-46 6 -100 8t-110 -5.5t-109.5 -25.5t-98 -52.5t-76 -87.5t-42.5 -129q-6 -38 -2.5 -78t20 -77.5t47.5 -70.5t81 -57q73 -35 132 -67.5t100 -72.5t62.5 -94t20.5 -133q-1 -47 -22 -93t-61 -86.5t-99 -75t-136 -59.5l-67 131q35 16 68.5 35t59.5 39.5
t41.5 43t15.5 46.5q-1 48 -20.5 83.5t-53.5 64.5t-80.5 53.5t-100.5 50.5q-56 26 -99 64.5t-71 89.5t-39 114.5t-3 138.5q11 108 55 194.5t124.5 145.5t200.5 88t283 20h130z" />
    <glyph glyph-name="sigma" unicode="&#x3c3;" horiz-adv-x="1300" 
d="M196 550q8 107 45.5 209.5t110 182.5t182.5 129t263 49h600l-25 -140h-75l-190 10l81 -138q20 -69 17.5 -144t-9.5 -158q-7 -78 -29.5 -152.5t-60 -141t-89 -121.5t-116 -92.5t-141 -54.5t-164.5 -8q-128 13 -209.5 61t-126.5 123t-58.5 173.5t-5.5 212.5zM366 550
q-7 -79 1 -150.5t36.5 -129t81.5 -97t136 -53.5q54 -9 105 4.5t96 43t82.5 73t64.5 94t42 106t15 109.5q0 79 -8.5 151.5t-35.5 130t-77 96.5t-133 52q-55 8 -105 -5.5t-94 -44t-80 -74t-62.5 -94t-43.5 -105t-21 -107.5z" />
    <glyph glyph-name="tau" unicode="&#x3c4;" horiz-adv-x="1100" 
d="M825 942l-120 -677q-8 -46 -10.5 -81.5t2.5 -67t19 -63t39 -70.5h-211q-19 19 -27.5 56.5t-10 83t2.5 93.5t11 87l113 639h-367l47 158h880l-47 -158h-321z" />
    <glyph glyph-name="upsilon" unicode="&#x3c5;" 
d="M487 497q-13 -74 -13.5 -138.5t19 -113.5t62.5 -79.5t117 -36.5q85 -7 140 22.5t89.5 82.5t53.5 122t32 141l42 235q16 90 3 144t-39.5 83t-59.5 38.5t-56 9.5l19 110q74 8 139 -19.5t111 -78t68 -119t9 -141.5l-46 -264q-7 -40 -19.5 -95t-35.5 -114t-60 -116.5
t-93.5 -101.5t-135.5 -68t-186 -17q-98 6 -164 35t-107.5 72t-61.5 95.5t-25.5 107.5t-1.5 107.5t12 94.5l61 350q11 60 -3.5 94.5t-61.5 34.5q-49 0 -85 -34.5t-47 -94.5h-114q11 61 33 111t56.5 86t82 55.5t107.5 19.5q54 0 98.5 -23t74 -60.5t42.5 -87t5 -101.5z" />
    <glyph glyph-name="phi" unicode="&#x3c6;" horiz-adv-x="1500" 
d="M652 1q-32 4 -64 11t-62 16q-62 21 -119 59t-97.5 96t-60.5 136.5t-8 180.5q12 107 53.5 185.5t103.5 134.5t139.5 92t161.5 59q67 19 136 27l14 101l194 18l-18 -119q33 -4 65 -10t62 -17q59 -20 116.5 -58t100 -96t63.5 -137t8 -180q-24 -188 -143.5 -307.5
t-315.5 -164.5l-140 -27l-87 -501h-190zM868 145q73 3 143.5 29.5t126 72.5t91.5 110t41 143q4 67 -7 123t-42 100t-85 77t-138 55zM619 158q15 -3 29.5 -7t29.5 -6l131 710q-70 -2 -139 -26t-124.5 -69t-92.5 -110.5t-43 -149.5q-5 -71 11.5 -130t46.5 -103.5t70 -72
t81 -36.5z" />
    <glyph glyph-name="chi" unicode="&#x3c7;" horiz-adv-x="1300" 
d="M699 49l-45 181l-76 -160l-416 -570h-197l616 829l-210 540q-13 32 -29.5 55t-31.5 37q-18 17 -36 26l22 130q37 0 75 -9.5t71.5 -30.5t62 -55t47.5 -82l141 -354l45 -196l63 160l395 550h200l-585 -794l222 -575q20 -53 37.5 -77.5t31.5 -33.5q15 -11 28 -7l-23 -130
q-32 -5 -64.5 -5t-65.5 16t-64.5 54.5t-60.5 111.5z" />
    <glyph glyph-name="psi" unicode="&#x3c8;" horiz-adv-x="1500" 
d="M294 800l193 20l-57 -323q-13 -72 -13.5 -138.5t15 -117.5t50.5 -81.5t93 -30.5q16 -1 34 -1h64l171 972l196 20l-175 -992h77q32 0 33 1q80 0 128 30.5t76.5 81.5t43 117.5t27.5 138.5l31 175q16 92 5 156t-35.5 103.5t-55.5 57.5t-54 18l19 110q83 0 147.5 -39
t106 -100t58 -135t4.5 -144l-36 -204q-9 -47 -18.5 -103.5t-28.5 -113.5t-50 -110t-82.5 -94.5t-127.5 -66t-183 -24.5h-110l-86 -483h-192l86 483h-98q-90 0 -149.5 27t-96.5 70.5t-54 99t-21.5 112.5t0 110t11.5 93z" />
    <glyph glyph-name="omega" unicode="&#x3c9;" horiz-adv-x="1600" 
d="M1014 725l-43 -243q-12 -71 -12 -131.5t17 -106t53 -75.5t96 -40q65 -11 111 18t78 85.5t53.5 134t38.5 163.5q22 117 15.5 206t-27.5 149t-50.5 91t-52.5 31l19 110q55 0 100.5 -22.5t81 -62t60.5 -93t39 -115t16.5 -129.5t-6.5 -135q-7 -50 -20.5 -116.5t-37 -135
t-60 -133t-90 -112t-126 -71t-167.5 -9.5q-115 16 -183.5 46.5t-102.5 90.5q-27 -30 -61 -57.5t-75.5 -47.5t-90.5 -29.5t-106 -2.5q-98 11 -160 43t-97.5 77.5t-48.5 101.5t-13.5 116.5t7 121.5t13.5 117q13 114 59.5 215t114 177t149 120.5t164.5 44.5l-19 -110
q-23 0 -64 -20.5t-84 -74t-80.5 -146t-54.5 -236.5q-10 -87 -15 -156.5t7 -120t46 -82t101 -42.5q52 -9 97.5 18.5t81.5 78t61.5 118t37.5 138.5l47 263z" />
    <glyph glyph-name="theta1" unicode="&#x3d1;" horiz-adv-x="1300" 
d="M393 481q11 -65 23.5 -126.5t36.5 -108.5t64.5 -75.5t107.5 -27.5q83 1 150.5 38t119.5 104t87.5 160t55.5 205h-424q-41 0 -82.5 4.5t-80.5 17.5t-72.5 36.5t-58 60t-37.5 88.5t-11 123q2 60 26 123.5t65 124t97 114t121.5 93.5t138.5 63t148 22q113 -1 193 -58.5
t126.5 -155.5t59.5 -228.5t-7 -277.5h223l-47 -150h-206q-18 -90 -47 -177t-69 -164.5t-91 -142t-113 -109t-135.5 -65.5t-158.5 -12q-93 10 -161 48.5t-114.5 95.5t-72 127.5t-32.5 142.5zM839 1357q-50 6 -98 -5.5t-92 -37.5t-81.5 -63.5t-65 -82.5t-43.5 -95t-17 -101
q-1 -66 17.5 -101t56 -50.5t94 -18t131.5 -2.5h325q28 119 18 218t-45.5 172t-89 116t-110.5 51z" />
    <glyph glyph-name="Upsilon1" unicode="&#x3d2;" horiz-adv-x="1300" 
d="M1448 1517l-23 -130q-20 2 -44 -7q-20 -8 -46.5 -28.5t-54.5 -62.5l-421 -631l-116 -658h-192l116 658l-199 631q-14 42 -33 62t-36 28q-20 10 -42 8l23 130q25 0 56.5 -5t63.5 -23t62.5 -53t53.5 -96l130 -340l37 -249l117 249l250 340q54 73 93.5 110t73 52t64.5 15h67
z" />
    <glyph glyph-name="phi1" unicode="&#x3d5;" horiz-adv-x="1500" 
d="M651 2q-102 14 -181.5 51.5t-132.5 99.5t-79 148.5t-20 198.5q5 94 39 167t82 125t102.5 84t100.5 46l75 -118q-31 -19 -68 -42.5t-71 -58.5t-59 -84t-32 -119q-6 -64 11 -123.5t53 -107.5t88 -81t117 -43l115 654q10 54 35.5 90t60 57.5t74.5 30.5t79 9
q82 0 155.5 -37.5t128 -103t85 -154.5t26.5 -191q-3 -83 -29.5 -151t-70 -121.5t-100.5 -93.5t-121.5 -68t-133.5 -43.5t-137 -20.5l-89 -502h-192zM1054 840q-27 0 -48 -12t-27 -48l-112 -637q31 0 71 9t82.5 27.5t84 47t75.5 68t56.5 90.5t28.5 115q6 72 -10.5 134
t-47.5 107.5t-71 72t-82 26.5z" />
    <glyph glyph-name="omega1" unicode="&#x3d6;" horiz-adv-x="1600" 
d="M1666 942h-191l98 -57q10 -28 15 -60t4.5 -76.5t-6.5 -106t-16 -147.5q-7 -55 -22 -118t-41 -124.5t-64 -115.5t-90.5 -92.5t-120 -56.5t-152.5 -5q-58 9 -100.5 20t-73.5 27t-53 38t-39 52q-27 -30 -58 -57.5t-68.5 -47t-83.5 -29t-103 -3.5q-89 8 -148.5 38.5t-96.5 74
t-54 97t-22 107.5t-0.5 104.5t11.5 90.5q15 85 30 146.5t31.5 106t34.5 77t39 60.5l118 57h-198l47 158h1420zM1014 725l-43 -243q-10 -55 -12.5 -113.5t10.5 -108t45 -85.5t91 -46q60 -10 105.5 19.5t79 83t55.5 123.5t35 142q19 108 23 183.5t-2.5 127t-21 83t-31.5 51.5
h-778q-25 -20 -50.5 -51.5t-50 -83t-47 -127t-41.5 -183.5q-13 -72 -12 -133.5t18.5 -109.5t51.5 -80.5t87 -44.5q59 -14 102 13t73.5 78.5t50.5 121t32 140.5l47 263z" />
    <glyph glyph-name="hyphentwo" unicode="&#x2010;" horiz-adv-x="900" 
d="M305 600h500l-27 -155h-500z" />
    <glyph glyph-name="endash" unicode="&#x2013;" horiz-adv-x="1100" 
d="M105 600h1000l-27 -154h-1000z" />
    <glyph glyph-name="emdash" unicode="&#x2014;" horiz-adv-x="2100" 
d="M105 600h2000l-27 -154h-2000z" />
    <glyph glyph-name="quotationdash" unicode="&#x2015;" horiz-adv-x="1600" 
d="M305 600h1200l-27 -155h-1200z" />
    <glyph glyph-name="dblverticalbar" unicode="&#x2016;" horiz-adv-x="800" 
d="M619 1500l-264 -1500h-155l264 1500h155zM919 1500l-264 -1500h-155l264 1500h155z" />
    <glyph glyph-name="quoteleft" unicode="&#x2018;" horiz-adv-x="700" 
d="M406 1095q-1 -26 -13 -49.5t-31.5 -41t-45.5 -26t-55 -4.5q-44 6 -74 38.5t-29 96.5q0 30 10 70.5t35 87t68.5 96t110.5 97.5l41 -20q-27 -33 -49 -70q-19 -32 -36.5 -72t-22.5 -82q42 -2 67.5 -32.5t23.5 -88.5z" />
    <glyph glyph-name="quoteright" unicode="&#x2019;" horiz-adv-x="700" 
d="M194 1305q1 26 13 49.5t31.5 41t45.5 26t55 4.5q44 -6 74 -38.5t29 -96.5q0 -30 -10 -70.5t-35 -87t-68.5 -96t-110.5 -97.5l-41 20q27 33 49 70q19 32 36.5 72t22.5 82q-42 2 -67.5 32.5t-23.5 88.5z" />
    <glyph glyph-name="quotesinglbase" unicode="&#x201a;" horiz-adv-x="700" 
d="M194 105q1 26 13 49.5t31.5 41t45.5 26t55 4.5q44 -6 74 -38.5t29 -96.5q0 -30 -10 -70.5t-35 -87t-68.5 -96t-110.5 -97.5l-41 20q27 33 49 70q19 32 36.5 72t22.5 82q-42 2 -67.5 32.5t-23.5 88.5z" />
    <glyph glyph-name="quotedblleft" unicode="&#x201c;" horiz-adv-x="1000" 
d="M406 1095q-1 -26 -13 -49.5t-31.5 -41t-45.5 -26t-55 -4.5q-44 6 -74 38.5t-29 96.5q0 30 10 70.5t35 87t68.5 96t110.5 97.5l41 -20q-27 -33 -49 -70q-19 -32 -36.5 -72t-22.5 -82q42 -2 67.5 -32.5t23.5 -88.5zM806 1095q-1 -26 -13 -49.5t-31.5 -41t-45.5 -26
t-55 -4.5q-44 6 -74 38.5t-29 96.5q0 30 10 70.5t35 87t68.5 96t110.5 97.5l41 -20q-27 -33 -49 -70q-19 -32 -36.5 -72t-22.5 -82q42 -2 67.5 -32.5t23.5 -88.5z" />
    <glyph glyph-name="quotedblright" unicode="&#x201d;" horiz-adv-x="1000" 
d="M194 1305q1 26 13 49.5t31.5 41t45.5 26t55 4.5q44 -6 74 -38.5t29 -96.5q0 -30 -10 -70.5t-35 -87t-68.5 -96t-110.5 -97.5l-41 20q27 33 49 70q19 32 36.5 72t22.5 82q-42 2 -67.5 32.5t-23.5 88.5zM594 1305q1 26 13 49.5t31.5 41t45.5 26t55 4.5q44 -6 74 -38.5
t29 -96.5q0 -30 -10 -70.5t-35 -87t-68.5 -96t-110.5 -97.5l-41 20q27 33 49 70q19 32 36.5 72t22.5 82q-42 2 -67.5 32.5t-23.5 88.5z" />
    <glyph glyph-name="quotedblbase" unicode="&#x201e;" horiz-adv-x="1000" 
d="M194 105q1 26 13 49.5t31.5 41t45.5 26t55 4.5q44 -6 74 -38.5t29 -96.5q0 -30 -10 -70.5t-35 -87t-68.5 -96t-110.5 -97.5l-41 20q27 33 49 70q19 32 36.5 72t22.5 82q-42 2 -67.5 32.5t-23.5 88.5zM594 105q1 26 13 49.5t31.5 41t45.5 26t55 4.5q44 -6 74 -38.5
t29 -96.5q0 -30 -10 -70.5t-35 -87t-68.5 -96t-110.5 -97.5l-41 20q27 33 49 70q19 32 36.5 72t22.5 82q-42 2 -67.5 32.5t-23.5 88.5z" />
    <glyph glyph-name="dagger" unicode="&#x2020;" horiz-adv-x="1100" 
d="M284 1049h300l80 451l204 20l-84 -471h320l-46 -149h-300l-229 -1300h-200l229 1300h-300z" />
    <glyph glyph-name="daggerdbl" unicode="&#x2021;" horiz-adv-x="1000" 
d="M284 1049h300l80 451l204 20l-84 -471h320l-46 -149h-300l-106 -600h300l-26 -150h-300l-97 -550h-200l97 550h-300l26 150h300l106 600h-300z" />
    <glyph glyph-name="bullet" unicode="&#x2022;" 
d="M298 807q0 60 23.5 113.5t63.5 93t93.5 63t113.5 23.5t113.5 -23.5t93.5 -63t63.5 -93t23.5 -113.5t-23 -114.5t-62.5 -95.5t-92.5 -65t-113 -24t-114 24t-94.5 65t-64.5 95.5t-24 114.5z" />
    <glyph glyph-name="triangularbullet" unicode="&#x2023;" horiz-adv-x="900" 
d="M200 956l500 -306l-500 -300v606z" />
    <glyph glyph-name="ellipsis" unicode="&#x2026;" horiz-adv-x="1500" 
d="M113 150q0 34 17 66.5t44.5 56.5t62 36t69.5 6q34 -6 59.5 -21.5t43 -37.5t26 -49.5t7.5 -56.5q-1 -36 -17.5 -68t-43.5 -55.5t-61 -35.5t-70 -8q-68 8 -103 54.5t-34 112.5zM613 150q0 34 17 66.5t44.5 56.5t62 36t69.5 6q34 -6 59.5 -21.5t43 -37.5t26 -49.5t7.5 -56.5
q-1 -36 -17.5 -68t-43.5 -55.5t-61 -35.5t-70 -8q-68 8 -103 54.5t-34 112.5zM1113 150q0 34 17 66.5t44.5 56.5t62 36t69.5 6q34 -6 59.5 -21.5t43 -37.5t26 -49.5t7.5 -56.5q-1 -36 -17.5 -68t-43.5 -55.5t-61 -35.5t-70 -8q-68 8 -103 54.5t-34 112.5z" />
    <glyph glyph-name="perthousand" unicode="&#x2030;" horiz-adv-x="2600" 
d="M1398 -18q-141 20 -204 107t-63 242q0 8 0.5 15.5t0.5 15.5q3 76 34 144.5t80.5 120t113.5 81.5t132 30q19 0 39 -3q133 -19 201 -99q48 -57 62 -144q5 12 11 23q35 73 91 125t126 78.5t144 16.5q146 -20 213.5 -115t52.5 -258q-8 -91 -46.5 -165t-94.5 -125t-123.5 -75
t-134.5 -15q-148 21 -210 115q-39 60 -51 149q-8 -20 -17 -40q-34 -70 -84.5 -120.5t-112 -78.5t-124.5 -28q-18 0 -36 3zM935 1197q0 -91 -30 -171t-81 -139.5t-117 -94t-138 -34.5q-78 0 -135 25t-94.5 71.5t-55.5 111t-18 144.5t28.5 153.5t77 130t114.5 90t141 33.5
q73 0 130 -23t96.5 -65t60.5 -101t21 -131zM590 0h-190l1084 1500h180zM1639 351q2 14 3 28t1 28q0 33 -7 64.5t-23.5 57t-42.5 43.5t-65 24q-6 1 -12.5 1.5t-12.5 0.5q-38 0 -69 -17.5t-54.5 -48t-39.5 -70.5t-22 -85q-2 -17 -3.5 -32.5t-1.5 -30.5q0 -34 7 -64t23 -54
t43 -40t66 -22q5 -1 10.5 -1.5t10.5 -0.5q40 0 72.5 20t56.5 51.5t39 70.5t21 77zM2274 351q6 40 3.5 81t-17.5 74.5t-44 57.5t-76 32q-42 7 -78 -8t-63 -46t-44.5 -73.5t-24.5 -91.5q-6 -44 -4 -85t16.5 -73.5t44 -55t77.5 -29.5q44 -6 80 11.5t63 50t44 73.5t23 82z
M615 1377q-46 0 -81.5 -26t-59.5 -66.5t-36 -90t-12 -97.5q0 -35 8.5 -68.5t27 -59.5t49 -42t74.5 -16q48 0 84 27t60.5 68t36.5 89t12 91q0 36 -9 70.5t-29 61t-51 43t-74 16.5z" />
    <glyph glyph-name="pertenthousandsign" unicode="&#x2031;" horiz-adv-x="3300" 
d="M1398 -18q-141 20 -204 107t-63 242q0 8 0.5 15.5t0.5 15.5q3 76 34 144.5t80.5 120t113.5 81.5t132 30q19 0 39 -3q133 -19 201 -99q48 -57 62 -144q5 12 11 23q35 73 91 125t126 78.5t144 16.5q146 -20 213 -115q38 -54 50 -128q5 12 11 23q35 73 91 125t126 78.5
t144 16.5q146 -20 213.5 -115t52.5 -258q-8 -91 -46.5 -165t-94.5 -125t-123.5 -75t-134.5 -15q-148 21 -210 115q-39 59 -51 148q-9 -25 -22 -48q-38 -74 -94 -125t-123.5 -75t-134.5 -15q-148 21 -210 115q-39 60 -51 149q-8 -20 -17 -40q-34 -70 -84.5 -120.5t-112 -78.5
t-124.5 -28q-18 0 -36 3zM935 1197q0 -91 -30 -171t-81 -139.5t-117 -94t-138 -34.5q-78 0 -135 25t-94.5 71.5t-55.5 111t-18 144.5t28.5 153.5t77 130t114.5 90t141 33.5q73 0 130 -23t96.5 -65t60.5 -101t21 -131zM590 0h-190l1084 1500h180zM1639 351q2 14 3 28t1 28
q0 33 -7 64.5t-23.5 57t-42.5 43.5t-65 24q-6 1 -12.5 1.5t-12.5 0.5q-38 0 -69 -17.5t-54.5 -48t-39.5 -70.5t-22 -85q-2 -17 -3.5 -32.5t-1.5 -30.5q0 -34 7 -64t23 -54t43 -40t66 -22q5 -1 10.5 -1.5t10.5 -0.5q40 0 72.5 20t56.5 51.5t39 70.5t21 77zM2274 351
q6 40 3.5 81t-17.5 74.5t-44 57.5t-76 32q-42 7 -78 -8t-63 -46t-44.5 -73.5t-24.5 -91.5q-6 -44 -4 -85t16.5 -73.5t44 -55t77.5 -29.5q44 -6 80 11.5t63 50t44 73.5t23 82zM2909 351q6 40 3.5 81t-17.5 74.5t-44 57.5t-76 32q-42 7 -78 -8t-63 -46t-44.5 -73.5
t-24.5 -91.5q-6 -44 -4 -85t16.5 -73.5t44 -55t77.5 -29.5q44 -6 80 11.5t63 50t44 73.5t23 82zM615 1377q-46 0 -81.5 -26t-59.5 -66.5t-36 -90t-12 -97.5q0 -35 8.5 -68.5t27 -59.5t49 -42t74.5 -16q48 0 84 27t60.5 68t36.5 89t12 91q0 36 -9 70.5t-29 61t-51 43
t-74 16.5z" />
    <glyph glyph-name="minute" unicode="&#x2032;" horiz-adv-x="500" 
d="M567 1245l-227 -360h-85l133 360l48 272l175 -24z" />
    <glyph glyph-name="second" unicode="&#x2033;" horiz-adv-x="800" 
d="M567 1245l-227 -360h-85l133 360l48 272l175 -24zM867 1245l-227 -360h-85l133 360l48 272l175 -24z" />
    <glyph glyph-name="tripleprime" unicode="&#x2034;" horiz-adv-x="1100" 
d="M567 1245l-227 -360h-85l133 360l48 272l175 -24zM867 1245l-227 -360h-85l133 360l48 272l175 -24zM1167 1245l-227 -360h-85l133 360l48 272l175 -24z" />
    <glyph glyph-name="primereversed" unicode="&#x2035;" horiz-adv-x="500" 
d="M-111 1493l175 24l48 -272l133 -360h-85l-227 360z" />
    <glyph glyph-name="guilsinglleft" unicode="&#x2039;" horiz-adv-x="900" 
d="M850 1026l28 -125l-376 -291l-149 -60l127 -60l277 -289l-78 -135l-395 412l24 139z" />
    <glyph glyph-name="guilsinglright" unicode="&#x203a;" horiz-adv-x="900" 
d="M808 617l-24 -139l-541 -412l-30 135l379 289l147 60l-127 60l-274 291l72 125z" />
    <glyph glyph-name="asterism" unicode="&#x2042;" horiz-adv-x="1100" 
d="M703 1097l53 -96l-58 -45l-56 103l-6 36l-18 -36l-87 -96l-52 33l92 102l36 22l-40 2l-105 37l25 65l112 -38l29 -26l-4 41l21 117l67 7l-22 -126l-20 -40l37 25l119 36l17 -61l-128 -39l-40 -2zM1003 497l53 -96l-58 -45l-56 103l-6 36l-18 -36l-87 -96l-52 33l92 102
l36 22l-40 2l-105 37l25 65l112 -38l29 -26l-4 41l21 117l67 7l-22 -126l-20 -40l37 25l119 36l17 -61l-128 -39l-40 -2zM403 497l53 -96l-58 -45l-56 103l-6 36l-18 -36l-87 -96l-52 33l92 102l36 22l-40 2l-105 37l25 65l112 -38l29 -26l-4 41l21 117l67 7l-22 -126
l-20 -40l37 25l119 36l17 -61l-128 -39l-40 -2z" />
    <glyph glyph-name="twoasterisksvertical" unicode="&#x2051;" horiz-adv-x="700" 
d="M503 1097l53 -96l-58 -45l-56 103l-6 36l-18 -36l-87 -96l-52 33l92 102l36 22l-40 2l-105 37l25 65l112 -38l29 -26l-4 41l21 117l67 7l-22 -126l-20 -40l37 25l119 36l17 -61l-128 -39l-40 -2zM503 497l53 -96l-58 -45l-56 103l-6 36l-18 -36l-87 -96l-52 33l92 102
l36 22l-40 2l-105 37l25 65l112 -38l29 -26l-4 41l21 117l67 7l-22 -126l-20 -40l37 25l119 36l17 -61l-128 -39l-40 -2z" />
    <glyph glyph-name="zerosuperior" unicode="&#x2070;" horiz-adv-x="800" 
d="M299 711q-42 5 -73 23.5t-53 46.5t-35 64t-19.5 76.5t-6.5 85t4 88.5q4 45 16.5 92.5t32.5 91.5t47.5 82.5t61.5 66t74 41.5t86 9q42 -4 73 -22t53 -46t35.5 -64.5t20.5 -77.5t7 -85.5t-5 -87.5q-6 -46 -19 -93.5t-34 -92t-48.5 -83t-61 -66t-73 -41t-83.5 -8.5z
M219 1116q-4 -29 -7.5 -62.5t-4 -68t4 -66.5t17 -57.5t34 -42.5t55.5 -20q29 -3 54.5 7.5t46.5 30.5t37.5 47.5t28.5 59t19.5 65t9.5 64.5q2 29 5 63t3 68.5t-4.5 66.5t-16 57.5t-32.5 42t-54 19.5q-31 3 -56 -7t-45 -30t-36 -48t-27.5 -59.5t-19.5 -64.5t-12 -65z" />
    <glyph glyph-name="ismallsuperior" unicode="&#x2071;" horiz-adv-x="300" 
d="M195 720h-91l93 527l92 10zM234 1470h96l-18 -100h-96z" />
    <glyph glyph-name="foursuperior" unicode="&#x2074;" horiz-adv-x="600" 
d="M563 870h-90l-26 -150h-100l26 150h-297l15 85l335 525l92 -10l-287 -450l-58 -70h215l35 203l99 -8l-34 -195h97z" />
    <glyph glyph-name="fivesuperior" unicode="&#x2075;" horiz-adv-x="600" 
d="M285 1211l13 6q9 5 21 9.5t26 7.5t27 3q54 0 92.5 -16t62.5 -44t34 -66t8 -82q-4 -55 -24 -99t-53.5 -78.5t-77.5 -59.5t-95 -41t-107 -23.5t-112 -7.5l14 80q71 0 134 16t111 45t77 69t33 89q2 26 -5.5 50t-23.5 42.5t-39.5 30t-52.5 11.5q-41 0 -69 -8.5t-52 -24.5h-57
l62 350h371l-14 -80h-272z" />
    <glyph glyph-name="sixsuperior" unicode="&#x2076;" horiz-adv-x="600" 
d="M582 1392q-3 1 -10 1h-12q-44 0 -82.5 -11t-72 -31.5t-62 -49t-51 -63t-40 -73.5t-28.5 -80l52 58q14 8 32 16t37.5 13.5t39 9t36.5 1.5q43 -3 77.5 -15t59 -36t36.5 -62t11 -94q-1 -36 -12.5 -71t-30.5 -65.5t-45.5 -55.5t-59 -42t-69.5 -25.5t-77 -5.5q-44 4 -76.5 21
t-54.5 42.5t-35.5 58t-20 67t-7 68t1.5 62.5q5 60 24 116.5t49.5 106t71.5 91t90.5 71.5t106.5 46.5t119 16.5h16q9 0 14 -1zM217 1018q-3 -14 -4.5 -25.5t-2.5 -22.5t-1 -22t1 -25q2 -22 10 -43t22.5 -38.5t35.5 -29.5t49 -16q34 -5 65 6t54.5 34t39 57.5t19.5 77.5
q4 53 -23.5 87.5t-83.5 39.5q-57 6 -102.5 -14t-78.5 -66z" />
    <glyph glyph-name="sevensuperior" unicode="&#x2077;" horiz-adv-x="600" 
d="M232 1470h446l-11 -65q-4 -21 -26 -52.5t-54 -70.5t-70 -85.5t-73.5 -97.5t-65 -105t-44.5 -110l-11 -42q-5 -22 -9.5 -43.5t-8 -41.5t-6.5 -37h-99q2 15 7 40t11.5 53t13.5 55.5t13 47.5q18 54 46 106.5t60.5 100t66.5 89.5t63 76.5t49.5 60.5t26.5 41h-339z" />
    <glyph glyph-name="eightsuperior" unicode="&#x2078;" horiz-adv-x="600" 
d="M439 1478q43 -2 77.5 -14.5t57.5 -35.5t33.5 -55.5t6.5 -75.5q-3 -30 -15 -53t-29.5 -41t-40 -32.5t-46.5 -27.5q34 -17 57 -38t37 -47.5t18.5 -59.5t1.5 -73q-4 -38 -17.5 -69t-35 -55.5t-49 -42.5t-58.5 -29.5t-64.5 -15.5t-65.5 -2q-47 4 -86.5 18.5t-66.5 41.5
t-40 67t-8 94q4 40 20 72.5t40.5 58.5t56 46t66.5 36q-21 14 -37 30t-26.5 33.5t-15 38t-2.5 45.5q3 49 25 85t54.5 59t72 33.5t79.5 8.5zM367 1100q-34 -14 -64 -30t-52.5 -36.5t-36.5 -46.5t-15 -60q-2 -31 6.5 -54.5t25 -40t39.5 -26t51 -13.5q32 -4 64 4.5t58 26
t42.5 44t17.5 59.5q1 35 -9.5 61t-29.5 46.5t-44 36.5t-53 29zM401 1181q25 11 47 23t38.5 26.5t26.5 32t10 38.5q1 26 -6.5 43t-20.5 28t-29 16.5t-33 7.5q-23 2 -46.5 -4.5t-42.5 -19.5t-31.5 -31t-12.5 -38q0 -23 7.5 -41t20.5 -32t31.5 -26t40.5 -23z" />
    <glyph glyph-name="ninesuperior" unicode="&#x2079;" horiz-adv-x="600" 
d="M482 1051q-17 -11 -32.5 -19.5t-31.5 -14.5t-32.5 -8.5t-35.5 -2.5q-43 1 -79 16.5t-61 44.5t-38.5 71t-11.5 97q1 56 24.5 103t62.5 80.5t90 50t108 9.5q49 -5 83 -22.5t56 -42.5t33.5 -56t16 -64.5t4 -67.5t-2.5 -65q-4 -60 -23.5 -116t-51 -106t-73 -91.5t-91 -71.5
t-104.5 -47t-113 -17l-1 84q63 1 121.5 24t106.5 64t81.5 98.5t44.5 128.5zM542 1196q1 37 -2.5 71t-15.5 61t-34.5 44.5t-58.5 20.5q-36 4 -66 -7t-52.5 -31.5t-36.5 -49t-18 -61.5q-3 -33 1 -59.5t17 -46t35.5 -31.5t56.5 -16q26 -3 52 4t49 21t42 34.5t31 45.5z" />
    <glyph glyph-name="plussuperior" unicode="&#x207a;" horiz-adv-x="600" 
d="M111 1070h187l37 211h78l-38 -211h186l-13 -78h-186l-38 -211h-77l37 211h-186z" />
    <glyph glyph-name="minussuperior" unicode="&#x207b;" horiz-adv-x="600" 
d="M111 1070h450l-13 -78h-450z" />
    <glyph glyph-name="equalsuperior" unicode="&#x207c;" horiz-adv-x="500" 
d="M170 1120h350l-14 -78h-350zM135 920h350l-14 -78h-350z" />
    <glyph glyph-name="parenleftsuperior" unicode="&#x207d;" horiz-adv-x="400" 
d="M204 1310q10 60 22 100.5t31.5 64.5t50.5 34.5t80 10.5q9 0 19.5 -1t19.5 -2.5t16.5 -4t11.5 -5.5l-46 -63l-7 1q-3 1 -7.5 1.5t-9.5 0.5q-28 0 -42.5 -10.5t-22 -28.5t-11 -41.5t-7.5 -49.5l-107 -604q-4 -26 -8.5 -49.5t-3 -41.5t12 -28.5t36.5 -10.5h10q5 0 9 1l7 1
l23 -63q-5 -3 -13.5 -5.5t-18 -4.5t-20 -2.5t-20.5 0.5q-34 2 -57 11.5t-36.5 24.5t-19 35t-6.5 42.5t2 47t8 49.5z" />
    <glyph glyph-name="parenrightsuperior" unicode="&#x207e;" horiz-adv-x="500" 
d="M350 720q-6 -34 -11.5 -62.5t-13 -52t-19.5 -41.5t-30.5 -30t-45.5 -18.5t-65 -5.5q-10 0 -20 1t-19 2.5t-16.5 3.5t-11.5 5l46 63l7 -1q3 -1 7 -1h10q26 0 40.5 10.5t22.5 28.5t12 41.5t8 49.5l107 604q4 26 7.5 49t1 40.5t-13 28.5t-32.5 12q-6 0 -10.5 -0.5t-8.5 -1.5
l-7 -1l-23 63q5 3 13 5.5t18 4t20.5 2.5t20.5 1q46 0 72 -17t37 -45.5t9.5 -67t-8.5 -80.5z" />
    <glyph glyph-name="nsuperior" unicode="&#x207f;" horiz-adv-x="600" 
d="M191 720h-91l96 550l93 10l-16 -92l40 54q13 8 25.5 15.5t27.5 12.5t34.5 7.5t46.5 0.5q36 -2 60 -17t37.5 -40t16.5 -57.5t-3 -68.5l-66 -375h-91l66 375q8 46 -7.5 73.5t-54.5 29.5q-17 1 -35 -2.5t-36.5 -11.5t-36 -18.5t-32.5 -23.5z" />
    <glyph glyph-name="zeroinferior" unicode="&#x2080;" horiz-adv-x="600" 
d="M299 -509q-42 5 -73 23.5t-53 46.5t-35 64t-19.5 76.5t-6.5 85t4 88.5q4 45 16.5 92.5t32.5 91.5t47.5 82.5t61.5 66t74 41.5t86 9q42 -4 73 -22t53 -46t35.5 -64.5t20.5 -77.5t7 -85.5t-5 -87.5q-6 -46 -19 -93.5t-34 -92t-48.5 -83t-61 -66t-73 -41t-83.5 -8.5z
M219 -104q-4 -29 -7.5 -62.5t-4 -68t4 -66.5t17 -57.5t34 -42.5t55.5 -20q29 -3 54.5 7.5t46.5 30.5t37.5 47.5t28.5 59t19.5 65t9.5 64.5q2 29 5 63t3 68.5t-4.5 66.5t-16 57.5t-32.5 42t-54 19.5q-31 3 -56 -7t-45 -30t-36 -48t-27.5 -59.5t-19.5 -64.5t-12 -65z" />
    <glyph glyph-name="oneinferior" unicode="&#x2081;" horiz-adv-x="600" 
d="M175 -500l14 80h122l85 483l49 113l-84 -93l-123 -94l-43 61l266 210l68 -10l-118 -670h123l-14 -80h-345z" />
    <glyph glyph-name="twoinferior" unicode="&#x2082;" horiz-adv-x="600" 
d="M76 -500l14 84q31 45 65.5 84t69 72.5t67.5 61t59 49.5q34 28 64 52.5t52.5 49t35 50t12.5 54.5q0 46 -24.5 76.5t-77.5 40.5q-28 5 -52 -1.5t-44 -20.5t-36 -33t-28 -39l-65 30q18 37 43 66t56.5 48t69 28t79.5 6q47 -3 81 -22t56 -48t31.5 -64.5t7.5 -71.5
q-2 -39 -21 -74t-46 -66t-58.5 -58.5t-59.5 -51.5q-31 -26 -62 -53t-59.5 -54.5t-54 -56t-44.5 -58.5h335l-14 -80h-452z" />
    <glyph glyph-name="threeinferior" unicode="&#x2083;" horiz-adv-x="600" 
d="M225 170l22 80h365l-13 -70q-9 -20 -27 -42t-41.5 -44t-50 -43.5t-52.5 -41.5l-73 -37q5 1 13 1t15 1q37 1 73 -12.5t63.5 -39.5t43 -63t9.5 -83q-6 -52 -28.5 -93t-57 -71.5t-79 -52t-95 -34.5t-105 -19t-107.5 -6l14 80q39 0 80.5 4.5t80.5 13.5t74 23.5t61.5 35.5
t42.5 49.5t18 64.5q2 32 -10 56t-35.5 39.5t-56 22.5t-72.5 6q-16 -1 -35 -1.5t-34 -1.5l14 78q23 15 50.5 34t55.5 39.5t55 42t49.5 40.5t38.5 36t22 28l-80 -20h-208z" />
    <glyph glyph-name="fourinferior" unicode="&#x2084;" horiz-adv-x="600" 
d="M563 -350h-90l-26 -150h-100l26 150h-297l15 85l335 525l92 -10l-287 -450l-58 -70h215l35 203l99 -8l-34 -195h97z" />
    <glyph glyph-name="fiveinferior" unicode="&#x2085;" horiz-adv-x="600" 
d="M285 -9l13 7q9 4 21 8.5t26 7.5t27 3q54 0 92.5 -16t62.5 -44t34 -66t8 -82q-4 -55 -24 -99t-53.5 -78.5t-77.5 -59.5t-95 -41t-107 -23.5t-112 -7.5l14 80q71 0 134 16t111 45t77 69t33 89q2 26 -5.5 50t-23.5 42.5t-39.5 30t-52.5 11.5q-41 0 -69 -8.5t-52 -24.5h-57
l62 350h371l-14 -80h-272z" />
    <glyph glyph-name="sixinferior" unicode="&#x2086;" horiz-adv-x="600" 
d="M582 172q-3 1 -10 1h-12q-44 0 -82.5 -11t-72 -31.5t-62 -49t-51 -63t-40 -73.5t-28.5 -80l52 58q14 8 32 16t37.5 13.5t39 9t36.5 1.5q43 -3 77.5 -15t59 -36t36.5 -62t11 -94q-1 -36 -12.5 -71t-30.5 -65.5t-45.5 -55.5t-59 -42t-69.5 -25.5t-77 -5.5q-44 4 -76.5 21
t-54.5 42.5t-35.5 58t-20 67t-7 68t1.5 62.5q5 60 24 116.5t49.5 106t71.5 91t90.5 71.5t106.5 46.5t119 16.5h16q9 0 14 -1zM217 -202q-3 -14 -4.5 -25.5t-2.5 -22.5t-1 -22t1 -25q2 -22 10 -43t22.5 -38.5t35.5 -29.5t49 -16q34 -5 65 6t54.5 34t39 57.5t19.5 77.5
q4 53 -23.5 87.5t-83.5 39.5q-57 6 -102.5 -14t-78.5 -66z" />
    <glyph glyph-name="seveninferior" unicode="&#x2087;" horiz-adv-x="600" 
d="M232 250h446l-11 -65q-4 -21 -26 -52.5t-54 -70.5t-70 -85.5t-73.5 -97.5t-65 -105t-44.5 -110l-11 -42q-5 -22 -9.5 -43.5t-8 -41.5t-6.5 -37h-99q2 15 7 40t11.5 53t13.5 55.5t13 47.5q18 54 46 106.5t60.5 100t66.5 89.5t63 76.5t49.5 60.5t26.5 41h-339z" />
    <glyph glyph-name="heightinferior" unicode="&#x2088;" horiz-adv-x="600" 
d="M439 258q43 -2 77.5 -14.5t57.5 -35.5t33.5 -55.5t6.5 -75.5q-3 -30 -15 -53t-29.5 -41t-40 -32.5t-46.5 -27.5q34 -17 57 -38t37 -47.5t18.5 -59.5t1.5 -73q-4 -38 -17.5 -69t-35 -55.5t-49 -42.5t-58.5 -29.5t-64.5 -15.5t-65.5 -2q-47 4 -86.5 18.5t-66.5 41.5t-40 67
t-8 94q4 40 20 72.5t40.5 58.5t56 46t66.5 36q-21 14 -37 30t-26.5 33.5t-15 38t-2.5 45.5q3 49 25 85t54.5 59t72 33.5t79.5 8.5zM367 -120q-34 -14 -64 -30t-52.5 -36.5t-36.5 -46.5t-15 -60q-2 -31 6.5 -54.5t25 -40t39.5 -26t51 -13.5q32 -4 64 4.5t58 26t42.5 44
t17.5 59.5q1 35 -9.5 61t-29.5 46.5t-44 36.5t-53 29zM401 -39q25 11 47 23t38.5 26.5t26.5 32t10 38.5q1 26 -6.5 43t-20.5 28t-29 16.5t-33 7.5q-23 2 -46.5 -4.5t-42.5 -19.5t-31.5 -31t-12.5 -38q0 -23 7.5 -41t20.5 -32t31.5 -26t40.5 -23z" />
    <glyph glyph-name="nineinferior" unicode="&#x2089;" horiz-adv-x="600" 
d="M482 -169q-17 -11 -32.5 -19.5t-31.5 -14.5t-32.5 -8.5t-35.5 -2.5q-43 1 -79 16.5t-61 44.5t-38.5 71t-11.5 97q1 56 24.5 103t62.5 80.5t90 50t108 9.5q49 -5 83 -22.5t56 -42.5t33.5 -56t16 -64.5t4 -67.5t-2.5 -65q-4 -60 -23.5 -116t-51 -106t-73 -91.5t-91 -71.5
t-104.5 -47t-113 -17l-1 84q63 1 121.5 24t106.5 64t81.5 98.5t44.5 128.5zM542 -24q1 37 -2.5 71t-15.5 61t-34.5 44.5t-58.5 20.5q-36 4 -66 -7t-52.5 -31.5t-36.5 -49t-18 -61.5q-3 -33 1 -59.5t17 -46t35.5 -31.5t56.5 -16q26 -3 52 4t49 21t42 34.5t31 45.5z" />
    <glyph glyph-name="plusinferior" unicode="&#x208a;" horiz-adv-x="600" 
d="M111 -150h187l37 211h78l-38 -211h186l-13 -78h-186l-38 -211h-77l37 211h-186z" />
    <glyph glyph-name="minusinferior" unicode="&#x208b;" horiz-adv-x="600" 
d="M111 -150h450l-13 -78h-450z" />
    <glyph glyph-name="equalinferior" unicode="&#x208c;" horiz-adv-x="600" 
d="M170 -100h350l-14 -78h-350zM135 -300h350l-14 -78h-350z" />
    <glyph glyph-name="parenleftinferior" unicode="&#x208d;" horiz-adv-x="400" 
d="M204 90q10 60 22 100.5t31.5 64.5t50.5 34.5t80 10.5q9 0 19.5 -1t19.5 -2.5t16.5 -4t11.5 -5.5l-46 -63l-7 1q-3 1 -7.5 1.5t-9.5 0.5q-28 0 -42.5 -10.5t-22 -28.5t-11 -41.5t-7.5 -49.5l-107 -604q-4 -26 -8.5 -49.5t-3 -41.5t12 -28.5t36.5 -10.5h10q5 0 9 1l7 1
l23 -63q-5 -3 -13.5 -5.5t-18 -4.5t-20 -2.5t-20.5 0.5q-34 2 -57 11.5t-36.5 24.5t-19 35t-6.5 42.5t2 47t8 49.5z" />
    <glyph glyph-name="parenrightinferior" unicode="&#x208e;" horiz-adv-x="400" 
d="M350 -500q-6 -34 -11.5 -62.5t-13 -52t-19.5 -41.5t-30.5 -30t-45.5 -18.5t-65 -5.5q-10 0 -20 1t-19 2.5t-16.5 3.5t-11.5 5l46 63l7 -1q3 -1 7 -1h10q26 0 40.5 10.5t22.5 28.5t12 41.5t8 49.5l107 604q4 26 7.5 49t1 40.5t-13 28.5t-32.5 12q-6 0 -10.5 -0.5
t-8.5 -1.5l-7 -1l-23 63q5 3 13 5.5t18 4t20.5 2.5t20.5 1q46 0 72 -17t37 -45.5t9.5 -67t-8.5 -80.5z" />
    <glyph glyph-name="Euro" unicode="&#x20ac;" horiz-adv-x="1400" 
d="M1118 95q-20 -14 -56 -33t-88 -36.5t-121 -30t-156 -12.5q-135 0 -233 60.5t-157.5 166.5t-80.5 250q-3 20 -5 40h-195l26 151h164q2 58 9 119q4 41 12 80h-150l27 150h161q13 37 28 73q60 138 154 236.5t220 153t278 54.5q243 0 375 -132l-98 -122q-32 22 -64 37t-67 24
t-74.5 13t-85.5 4q-106 -1 -195 -41.5t-156 -114.5t-109 -179q-10 -24 -18 -50l76 44h637l-105 -150h-635q-6 -37 -10 -77q-7 -70 -9 -143v-3l40 24h490l-105 -151h-421q1 -6 2 -11q8 -69 28.5 -130t59 -107t97.5 -72.5t144 -26.5q45 0 86 6t80 18t78 29.5t80 40.5z" />
    <glyph glyph-name="indianrupee" unicode="&#x20b9;" 
d="M408 1350l66 150h868l-104 -150h-210l-100 25l63 -66q29 -32 34.5 -71.5t-5.5 -86.5h261l-105 -151h-154l-97 16l50 -61q-22 -69 -69 -127t-111.5 -100t-143 -67t-162.5 -28l135 -40l339 -593h-223l-339 595q-8 14 -21.5 16.5t-21.5 2.5h-50l26 151h78q79 0 144.5 17
t114.5 48t82 74.5t48 95.5h-455l66 151h418q1 103 -54.5 151t-175.5 48h-192z" />
    <glyph glyph-name="centigrade" unicode="&#x2103;" horiz-adv-x="1800" 
d="M1718 95q-20 -14 -56 -33t-88 -36.5t-121 -30t-156 -12.5q-135 0 -233 60.5t-157.5 166.5t-80 250t-1.5 310t78.5 303.5t153.5 236t220 153t278 54.5q243 0 375 -132l-98 -122q-32 22 -64 37t-67 24t-74.5 13t-85.5 4q-106 -1 -195 -41.5t-156 -114.5t-109 -178.5
t-55 -233.5q-7 -70 -9 -142.5t6 -141.5t28.5 -130t59 -107t97.5 -72.5t144 -26.5q45 0 86 6t80 18t78 29.5t80 40.5zM568 1520q111 -15 169.5 -85.5t51.5 -184.5q-3 -56 -32.5 -107.5t-74 -90t-100 -58.5t-110.5 -14q-110 13 -166.5 85t-54.5 185q1 38 14.5 74t36.5 67.5
t53.5 57.5t65.5 43.5t72.5 25t74.5 2.5zM492 1091q31 -3 63.5 6.5t59.5 30t44.5 51.5t19.5 71q3 67 -31 107t-100 52q-34 6 -67.5 -3t-60 -30t-43 -53.5t-16.5 -72.5q1 -66 35.5 -109t95.5 -50z" />
    <glyph glyph-name="fahrenheit" unicode="&#x2109;" horiz-adv-x="1700" 
d="M1000 0h-200l227 1290l7 210h875l-48 -160h-645l-14 -190l-46 -265h540l-26 -145h-540zM568 1520q111 -15 169.5 -85.5t51.5 -184.5q-3 -56 -32.5 -107.5t-74 -90t-100 -58.5t-110.5 -14q-110 13 -166.5 85t-54.5 185q1 38 14.5 74t36.5 67.5t53.5 57.5t65.5 43.5
t72.5 25t74.5 2.5zM492 1091q31 -3 63.5 6.5t59.5 30t44.5 51.5t19.5 71q3 67 -31 107t-100 52q-34 6 -67.5 -3t-60 -30t-43 -53.5t-16.5 -72.5q1 -66 35.5 -109t95.5 -50z" />
    <glyph glyph-name="Ifraktur" unicode="&#x2111;" horiz-adv-x="1100" 
d="M248 1400h710l-26 -184q-39 -23 -77 -57.5t-68 -74.5t-48.5 -81t-18.5 -77q0 -44 20.5 -92.5t52 -101t67.5 -109t67.5 -117t52 -124.5t20.5 -131q0 -74 -34 -125t-85 -83t-110 -46t-109 -14q-51 0 -102.5 12t-97 30t-83 38.5t-61.5 38.5l-18 98l-150 -134l-119 90
l229 197q39 -37 94 -71t113.5 -60.5t114 -42t96.5 -15.5q22 0 42 5t35.5 15.5t25 27t9.5 40.5q0 37 -21.5 85.5t-53.5 104t-70 115.5t-70 119.5t-53.5 116.5t-21.5 107q0 26 11.5 63t38 79t69.5 87t105 87h-424q-23 -23 -31 -51t-8 -58q0 -17 4.5 -35t9.5 -32q6 -17 15 -33
l-106 -60q-59 83 -59 174q0 130 123 279z" />
    <glyph glyph-name="lsquare" unicode="&#x2113;" horiz-adv-x="900" 
d="M100 540h100v460q0 112 15.5 207t54.5 164t104.5 107.5t165.5 38.5q56 0 104 -23t82.5 -73t54 -129.5t19.5 -191.5q0 -75 -1.5 -156t-9.5 -159t-26.5 -147.5t-51.5 -122.5t-84.5 -84t-126.5 -31h-100v-17q0 -55 5 -99.5t21 -76.5q17 -33 45 -52q32 -21 66 -25
q19 -2 30 -3t15 -1q25 0 57.5 8t51.5 19l83 -123q-21 -10 -45 -18.5t-53 -15t-65 -10t-81 -3.5q-96 0 -159.5 30.5t-101.5 84.5t-53.5 127t-15.5 158v17h-100v140zM450 540h50q29 0 49.5 19t34 51.5t21 76t11 93.5t4 103t0.5 104q0 73 -1.5 142.5t-10.5 123t-27.5 86
t-52.5 32.5q-21 0 -43.5 -16.5t-41.5 -55.5t-31 -102.5t-12 -157.5v-599z" />
    <glyph glyph-name="weierstrass" unicode="&#x2118;" horiz-adv-x="1667" 
d="M339 -361q25 0 45 18t33.5 46t21 63t7.5 70q0 36 -5.5 81t-14.5 90t-20.5 87t-23.5 74v86q-32 -54 -60 -114.5t-48.5 -124t-32.5 -128t-12 -126.5q0 -59 29.5 -90.5t80.5 -31.5zM720 1031q-62 -12 -124 -44.5t-112 -84t-81.5 -122.5t-31.5 -160q0 -42 11 -92v-122
q71 111 153.5 217.5t177 189.5t201.5 133.5t229 50.5q76 0 138 -21.5t105.5 -66.5t67 -114t23.5 -165q0 -143 -37.5 -262t-105.5 -204.5t-164.5 -133t-214.5 -47.5q-46 0 -92 16t-82.5 47t-59.5 75t-23 100q0 75 20.5 132t52.5 99.5t71 71.5t76.5 47t69 27t47.5 12l30 -140
q-25 -11 -65 -31t-78.5 -53t-66.5 -80.5t-28 -111.5q0 -25 9.5 -44t26 -32t37.5 -20t45 -7q66 0 118 26t91 69.5t66 99.5t43.5 116.5t24 120.5t7.5 110q0 43 -8 84t-28 72.5t-54 51t-86 19.5q-74 0 -142.5 -23.5t-131 -62.5t-119.5 -91t-107.5 -108t-93.5 -113.5t-79 -108.5
q30 -65 58 -128.5t49.5 -126.5t34 -126.5t12.5 -128.5q0 -61 -14 -125t-47 -116t-88 -85.5t-137 -33.5q-59 0 -99.5 20.5t-66 54.5t-36.5 79t-11 94q0 83 18.5 161.5t48.5 150.5t68 136.5t77 119.5q-15 34 -31 72.5t-29 78.5t-21.5 79.5t-8.5 75.5q0 78 21.5 146.5t58 125.5
t84 101.5t100.5 75.5t108 47t105 16z" />
    <glyph glyph-name="Rfraktur" unicode="&#x211c;" horiz-adv-x="1600" 
d="M751 588l80 72l124 29q31 7 58 31t50 57.5t41 74t30.5 81t19 78t6.5 65.5q0 32 -7.5 60.5t-16.5 49.5q-11 25 -24 46q-86 0 -146 -12.5t-100 -33.5t-63 -48.5t-34.5 -58.5t-14.5 -63.5t-3 -62.5v-365zM1192 1400q39 -26 73 -62t59 -78.5t39.5 -88t14.5 -88.5
q0 -28 -6 -68.5t-17 -86t-26.5 -92.5t-34 -88t-40.5 -72.5t-45 -46.5q37 -38 47 -81t10 -101v-157q0 -17 2.5 -35t8.5 -34.5t15 -30t22 -22.5l153 53l53 -96l-250 -142q-36 9 -76 23t-74.5 38t-57 61.5t-22.5 94.5v171q0 41 -0.5 68.5t-3.5 47.5t-10 36t-19 33l-256 -63
v-193q0 -55 -12.5 -111.5t-42 -102t-77.5 -74.5t-119 -29q-34 0 -66.5 11.5t-58.5 25.5q-30 16 -57 37l-21 100l-147 -131l-119 90l230 197l197 -144q23 12 36.5 28.5t21 34.5t10 36t2.5 32v653q0 27 9 61.5t34.5 70.5t72.5 70t124 61h-467q-23 -20 -31.5 -47t-8.5 -57
q0 -20 4.5 -38.5t9.5 -33.5q6 -18 15 -33l-106 -60q-36 47 -47.5 90t-11.5 93q0 37 10 73.5t27 71t39.5 66.5t46.5 59h944z" />
    <glyph glyph-name="trademark" unicode="&#x2122;" horiz-adv-x="1700" 
d="M558 900l94 533h-200l12 67h500l-12 -67h-200l-94 -533h-100zM1458 900l101 570l-80 -170l-183 -300h-40l-77 300l-20 170l-101 -570h-100l106 600h140l76 -250l13 -150l67 150l164 250h140l-106 -600h-100z" />
    <glyph glyph-name="Ohm" unicode="&#x2126;" horiz-adv-x="1600" 
d="M130 160h198l190 -60l-173 204q-33 52 -52.5 109t-28.5 117t-9.5 121.5t5.5 123.5q16 165 78 304.5t165 239t245 153t319 45.5q126 -6 232.5 -59t181.5 -148.5t111 -230.5t20 -304q-9 -92 -33.5 -166.5t-56 -133t-64 -101t-56.5 -70.5l-286 -204l211 60h198l-28 -160
h-548l35 200q66 19 135.5 63t129 112t100.5 160.5t50 208.5q10 140 -5 249.5t-59.5 186t-119.5 119t-184 48.5q-95 5 -172.5 -15t-138 -58t-105 -90.5t-74.5 -114t-46.5 -128t-20.5 -131.5q-7 -113 0 -206t31.5 -168t68.5 -133.5t111 -102.5l-35 -200h-548z" />
    <glyph glyph-name="angstrom" unicode="&#x212b;" horiz-adv-x="1300" 
d="M968 1881q48 -8 85.5 -29.5t62.5 -53t37 -71t10 -83.5q-3 -57 -27.5 -102.5t-63.5 -77.5q-25 -20 -54 -34l217 -1430h-190l-69 450h-495l-225 -450h-195l652 1300l53 151q-14 12 -26 27q-27 33 -41 76t-11 90q3 50 27.5 96.5t63.5 80.5t88.5 51t100.5 9zM888 1360
l-82 -260l-250 -500h397l-75 500zM905 1520q24 -5 49.5 2t47 23.5t34.5 41.5t11 56q-3 52 -26.5 81.5t-73.5 39.5q-26 5 -51.5 -3.5t-46 -26t-33 -41.5t-11.5 -50q3 -102 100 -123z" />
    <glyph glyph-name="scriptsmallo" unicode="&#x2134;" horiz-adv-x="1100" 
d="M367 -17q-70 0 -124 22t-90.5 61.5t-55.5 95t-19 122.5q0 74 18 147.5t52 140t82.5 124t109.5 99.5t133 66t153 24q69 0 123.5 -21t92 -60t57 -93.5t19.5 -120.5q0 -74 -18.5 -147.5t-52.5 -140.5t-83 -125.5t-110.5 -101.5t-133.5 -67.5t-153 -24.5zM748 558
q0 39 -7.5 73.5t-25.5 60t-47.5 40t-74.5 14.5q-54 0 -100.5 -19t-85 -51.5t-68.5 -76t-50.5 -92t-31.5 -99.5t-11 -98q0 -40 7.5 -74t25.5 -59t48 -39.5t74 -14.5q81 0 145 39t109 101.5t69 140t24 154.5z" />
    <glyph glyph-name="aleph" unicode="&#x2135;" 
d="M688 1100q4 -56 26.5 -90t54.5 -58t68 -43t66.5 -44t50.5 -62t20 -96q0 -63 -28 -139h-86q0 39 -7.5 67.5t-20 51t-30 40t-38.5 32.5q-12 -42 -33 -73.5t-53 -63.5q97 -57 158.5 -117.5t96 -119.5t47.5 -114t13 -103q0 -55 -11 -101t-20 -67h-105q0 64 -20.5 114.5
t-56.5 93.5t-85 81t-106 78.5t-120 86.5t-126 104v108q-29 -31 -46.5 -52t-27 -36.5t-12.5 -27t-3 -21.5q0 -39 19 -74t48 -68.5t62 -66t62 -67t48 -71.5t19 -79q0 -50 -31 -103h-382l40 140h175l-153 88q-26 39 -44 86.5t-18 106.5q0 36 9 72.5t24.5 71t37.5 66t49 57.5
q-61 62 -89.5 120.5t-28.5 127.5q0 36 7.5 76t22.5 88h89q0 -58 27.5 -110.5t71.5 -100t99 -89.5t111 -79v-97q39 35 63.5 61t37.5 47t17.5 39.5t4.5 39.5v12q-45 35 -65.5 68t-20.5 78q0 51 28 131h94z" />
    <glyph glyph-name="onethirds" unicode="&#x2153;" horiz-adv-x="1500" 
d="M454 0h-135l775 1500h126zM175 720l14 80h122l85 483l49 113l-84 -93l-123 -94l-43 61l266 210l68 -10l-118 -670h123l-14 -80h-345zM1078 670l22 80h365l-13 -70q-9 -20 -27 -42t-41.5 -44t-50 -43.5t-52.5 -41.5l-73 -37q5 1 13 1t15 1q37 1 73 -12.5t63.5 -39.5
t43 -63t9.5 -83q-6 -52 -28.5 -93t-57 -71.5t-79 -52t-95 -34.5t-105 -19t-107.5 -6l14 80q39 0 80.5 4.5t80.5 13.5t74 23.5t61.5 35.5t42.5 49.5t18 64.5q2 32 -10 56t-35.5 39.5t-56 22.5t-72.5 6q-16 -1 -35 -1.5t-34 -1.5l14 78q23 15 50.5 34t55.5 39.5t55 42
t49.5 40.5t38.5 36t22 28l-80 -20h-208z" />
    <glyph glyph-name="twothirds" unicode="&#x2154;" horiz-adv-x="1500" 
d="M454 0h-135l775 1500h126zM76 720l14 84q31 45 65.5 84t69 72.5t67.5 61t59 49.5q34 28 64 52.5t52.5 49t35 50t12.5 54.5q0 46 -24.5 76.5t-77.5 40.5q-28 5 -52 -1.5t-44 -20.5t-36 -33t-28 -39l-65 30q18 37 43 66t56.5 48t69 28t79.5 6q47 -3 81 -22t56 -48
t31.5 -64.5t7.5 -71.5q-2 -39 -21 -74t-46 -66t-58.5 -58.5t-59.5 -51.5q-31 -26 -62 -53t-59.5 -54.5t-54 -56t-44.5 -58.5h335l-14 -80h-452zM1078 670l22 80h365l-13 -70q-9 -20 -27 -42t-41.5 -44t-50 -43.5t-52.5 -41.5l-73 -37q5 1 13 1t15 1q37 1 73 -12.5
t63.5 -39.5t43 -63t9.5 -83q-6 -52 -28.5 -93t-57 -71.5t-79 -52t-95 -34.5t-105 -19t-107.5 -6l14 80q39 0 80.5 4.5t80.5 13.5t74 23.5t61.5 35.5t42.5 49.5t18 64.5q2 32 -10 56t-35.5 39.5t-56 22.5t-72.5 6q-16 -1 -35 -1.5t-34 -1.5l14 78q23 15 50.5 34t55.5 39.5
t55 42t49.5 40.5t38.5 36t22 28l-80 -20h-208z" />
    <glyph glyph-name="onefifth" unicode="&#x2155;" horiz-adv-x="1500" 
d="M454 0h-135l775 1500h126zM1138 491l13 6q9 5 21 9.5t26 7.5t27 3q54 0 92.5 -16t62.5 -44t34 -66t8 -82q-4 -55 -24 -99t-53.5 -78.5t-77.5 -59.5t-95 -41t-107 -23.5t-112 -7.5l14 80q71 0 134 16t111 45t77 69t33 89q2 26 -5.5 50t-23.5 42.5t-39.5 30t-52.5 11.5
q-41 0 -69 -8.5t-52 -24.5h-57l62 350h371l-14 -80h-272zM175 720l14 80h122l85 483l49 113l-84 -93l-123 -94l-43 61l266 210l68 -10l-118 -670h123l-14 -80h-345z" />
    <glyph glyph-name="twofifths" unicode="&#x2156;" horiz-adv-x="1500" 
d="M454 0h-135l775 1500h126zM76 720l14 84q31 45 65.5 84t69 72.5t67.5 61t59 49.5q34 28 64 52.5t52.5 49t35 50t12.5 54.5q0 46 -24.5 76.5t-77.5 40.5q-28 5 -52 -1.5t-44 -20.5t-36 -33t-28 -39l-65 30q18 37 43 66t56.5 48t69 28t79.5 6q47 -3 81 -22t56 -48
t31.5 -64.5t7.5 -71.5q-2 -39 -21 -74t-46 -66t-58.5 -58.5t-59.5 -51.5q-31 -26 -62 -53t-59.5 -54.5t-54 -56t-44.5 -58.5h335l-14 -80h-452zM1138 491l13 6q9 5 21 9.5t26 7.5t27 3q54 0 92.5 -16t62.5 -44t34 -66t8 -82q-4 -55 -24 -99t-53.5 -78.5t-77.5 -59.5t-95 -41
t-107 -23.5t-112 -7.5l14 80q71 0 134 16t111 45t77 69t33 89q2 26 -5.5 50t-23.5 42.5t-39.5 30t-52.5 11.5q-41 0 -69 -8.5t-52 -24.5h-57l62 350h371l-14 -80h-272z" />
    <glyph glyph-name="threefifths" unicode="&#x2157;" horiz-adv-x="1500" 
d="M454 0h-135l775 1500h126zM1138 491l13 6q9 5 21 9.5t26 7.5t27 3q54 0 92.5 -16t62.5 -44t34 -66t8 -82q-4 -55 -24 -99t-53.5 -78.5t-77.5 -59.5t-95 -41t-107 -23.5t-112 -7.5l14 80q71 0 134 16t111 45t77 69t33 89q2 26 -5.5 50t-23.5 42.5t-39.5 30t-52.5 11.5
q-41 0 -69 -8.5t-52 -24.5h-57l62 350h371l-14 -80h-272zM225 1390l22 80h365l-13 -70q-9 -20 -27 -42t-41.5 -44t-50 -43.5t-52.5 -41.5l-73 -37q5 1 13 1t15 1q37 1 73 -12.5t63.5 -39.5t43 -63t9.5 -83q-6 -52 -28.5 -93t-57 -71.5t-79 -52t-95 -34.5t-105 -19t-107.5 -6
l14 80q39 0 80.5 4.5t80.5 13.5t74 23.5t61.5 35.5t42.5 49.5t18 64.5q2 32 -10 56t-35.5 39.5t-56 22.5t-72.5 6q-16 -1 -35 -1.5t-34 -1.5l14 78q23 15 50.5 34t55.5 39.5t55 42t49.5 40.5t38.5 36t22 28l-80 -20h-208z" />
    <glyph glyph-name="fourfifths" unicode="&#x2158;" horiz-adv-x="1500" 
d="M454 0h-135l775 1500h126zM1138 491l13 6q9 5 21 9.5t26 7.5t27 3q54 0 92.5 -16t62.5 -44t34 -66t8 -82q-4 -55 -24 -99t-53.5 -78.5t-77.5 -59.5t-95 -41t-107 -23.5t-112 -7.5l14 80q71 0 134 16t111 45t77 69t33 89q2 26 -5.5 50t-23.5 42.5t-39.5 30t-52.5 11.5
q-41 0 -69 -8.5t-52 -24.5h-57l62 350h371l-14 -80h-272zM563 870h-90l-26 -150h-100l26 150h-297l15 85l335 525l92 -10l-287 -450l-58 -70h215l35 203l99 -8l-34 -195h97z" />
    <glyph glyph-name="onesixth" unicode="&#x2159;" horiz-adv-x="1500" 
d="M1435 672q-3 1 -10 1h-12q-44 0 -82.5 -11t-72 -31.5t-62 -49t-51 -63t-40 -73.5t-28.5 -80l52 58q14 8 32 16t37.5 13.5t39 9t36.5 1.5q43 -3 77.5 -15t59 -36t36.5 -62t11 -94q-1 -36 -12.5 -71t-30.5 -65.5t-45.5 -55.5t-59 -42t-69.5 -25.5t-77 -5.5q-44 4 -76.5 21
t-54.5 42.5t-35.5 58t-20 67t-7 68t1.5 62.5q5 60 24 116.5t49.5 106t71.5 91t90.5 71.5t106.5 46.5t119 16.5h16q9 0 14 -1zM454 0h-135l775 1500h126zM175 720l14 80h122l85 483l49 113l-84 -93l-123 -94l-43 61l266 210l68 -10l-118 -670h123l-14 -80h-345zM1070 298
q-3 -14 -4.5 -25.5t-2.5 -22.5t-1 -22t1 -25q2 -22 10 -43t22.5 -38.5t35.5 -29.5t49 -16q34 -5 65 6t54.5 34t39 57.5t19.5 77.5q4 53 -23.5 87.5t-83.5 39.5q-57 6 -102.5 -14t-78.5 -66z" />
    <glyph glyph-name="fivesixths" unicode="&#x215a;" horiz-adv-x="1500" 
d="M1435 672q-3 1 -10 1h-12q-44 0 -82.5 -11t-72 -31.5t-62 -49t-51 -63t-40 -73.5t-28.5 -80l52 58q14 8 32 16t37.5 13.5t39 9t36.5 1.5q43 -3 77.5 -15t59 -36t36.5 -62t11 -94q-1 -36 -12.5 -71t-30.5 -65.5t-45.5 -55.5t-59 -42t-69.5 -25.5t-77 -5.5q-44 4 -76.5 21
t-54.5 42.5t-35.5 58t-20 67t-7 68t1.5 62.5q5 60 24 116.5t49.5 106t71.5 91t90.5 71.5t106.5 46.5t119 16.5h16q9 0 14 -1zM454 0h-135l775 1500h126zM285 1211l13 6q9 5 21 9.5t26 7.5t27 3q54 0 92.5 -16t62.5 -44t34 -66t8 -82q-4 -55 -24 -99t-53.5 -78.5t-77.5 -59.5
t-95 -41t-107 -23.5t-112 -7.5l14 80q71 0 134 16t111 45t77 69t33 89q2 26 -5.5 50t-23.5 42.5t-39.5 30t-52.5 11.5q-41 0 -69 -8.5t-52 -24.5h-57l62 350h371l-14 -80h-272zM1070 298q-3 -14 -4.5 -25.5t-2.5 -22.5t-1 -22t1 -25q2 -22 10 -43t22.5 -38.5t35.5 -29.5
t49 -16q34 -5 65 6t54.5 34t39 57.5t19.5 77.5q4 53 -23.5 87.5t-83.5 39.5q-57 6 -102.5 -14t-78.5 -66z" />
    <glyph glyph-name="oneeighth" unicode="&#x215b;" horiz-adv-x="1500" 
d="M454 0h-135l775 1500h126zM175 720l14 80h122l85 483l49 113l-84 -93l-123 -94l-43 61l266 210l68 -10l-118 -670h123l-14 -80h-345zM1292 758q43 -2 77.5 -14.5t57.5 -35.5t33.5 -55.5t6.5 -75.5q-3 -30 -15 -53t-29.5 -41t-40 -32.5t-46.5 -27.5q34 -17 57 -38
t37 -47.5t18.5 -59.5t1.5 -73q-4 -38 -17.5 -69t-35 -55.5t-49 -42.5t-58.5 -29.5t-64.5 -15.5t-65.5 -2q-47 4 -86.5 18.5t-66.5 41.5t-40 67t-8 94q4 40 20 72.5t40.5 58.5t56 46t66.5 36q-21 14 -37 30t-26.5 33.5t-15 38t-2.5 45.5q3 49 25 85t54.5 59t72 33.5t79.5 8.5
zM1220 380q-34 -14 -64 -30t-52.5 -36.5t-36.5 -46.5t-15 -60q-2 -31 6.5 -54.5t25 -40t39.5 -26t51 -13.5q32 -4 64 4.5t58 26t42.5 44t17.5 59.5q1 35 -9.5 61t-29.5 46.5t-44 36.5t-53 29zM1254 461q25 11 47 23t38.5 26.5t26.5 32t10 38.5q1 26 -6.5 43t-20.5 28
t-29 16.5t-33 7.5q-23 2 -46.5 -4.5t-42.5 -19.5t-31.5 -31t-12.5 -38q0 -23 7.5 -41t20.5 -32t31.5 -26t40.5 -23z" />
    <glyph glyph-name="threeeighths" unicode="&#x215c;" horiz-adv-x="1500" 
d="M454 0h-135l775 1500h126zM225 1390l22 80h365l-13 -70q-9 -20 -27 -42t-41.5 -44t-50 -43.5t-52.5 -41.5l-73 -37q5 1 13 1t15 1q37 1 73 -12.5t63.5 -39.5t43 -63t9.5 -83q-6 -52 -28.5 -93t-57 -71.5t-79 -52t-95 -34.5t-105 -19t-107.5 -6l14 80q39 0 80.5 4.5
t80.5 13.5t74 23.5t61.5 35.5t42.5 49.5t18 64.5q2 32 -10 56t-35.5 39.5t-56 22.5t-72.5 6q-16 -1 -35 -1.5t-34 -1.5l14 78q23 15 50.5 34t55.5 39.5t55 42t49.5 40.5t38.5 36t22 28l-80 -20h-208zM1292 758q43 -2 77.5 -14.5t57.5 -35.5t33.5 -55.5t6.5 -75.5
q-3 -30 -15 -53t-29.5 -41t-40 -32.5t-46.5 -27.5q34 -17 57 -38t37 -47.5t18.5 -59.5t1.5 -73q-4 -38 -17.5 -69t-35 -55.5t-49 -42.5t-58.5 -29.5t-64.5 -15.5t-65.5 -2q-47 4 -86.5 18.5t-66.5 41.5t-40 67t-8 94q4 40 20 72.5t40.5 58.5t56 46t66.5 36q-21 14 -37 30
t-26.5 33.5t-15 38t-2.5 45.5q3 49 25 85t54.5 59t72 33.5t79.5 8.5zM1220 380q-34 -14 -64 -30t-52.5 -36.5t-36.5 -46.5t-15 -60q-2 -31 6.5 -54.5t25 -40t39.5 -26t51 -13.5q32 -4 64 4.5t58 26t42.5 44t17.5 59.5q1 35 -9.5 61t-29.5 46.5t-44 36.5t-53 29zM1254 461
q25 11 47 23t38.5 26.5t26.5 32t10 38.5q1 26 -6.5 43t-20.5 28t-29 16.5t-33 7.5q-23 2 -46.5 -4.5t-42.5 -19.5t-31.5 -31t-12.5 -38q0 -23 7.5 -41t20.5 -32t31.5 -26t40.5 -23z" />
    <glyph glyph-name="fiveeighths" unicode="&#x215d;" horiz-adv-x="1500" 
d="M1292 758q43 -2 77.5 -14.5t57.5 -35.5t33.5 -55.5t6.5 -75.5q-3 -30 -15 -53t-29.5 -41t-40 -32.5t-46.5 -27.5q34 -17 57 -38t37 -47.5t18.5 -59.5t1.5 -73q-4 -38 -17.5 -69t-35 -55.5t-49 -42.5t-58.5 -29.5t-64.5 -15.5t-65.5 -2q-47 4 -86.5 18.5t-66.5 41.5
t-40 67t-8 94q4 40 20 72.5t40.5 58.5t56 46t66.5 36q-21 14 -37 30t-26.5 33.5t-15 38t-2.5 45.5q3 49 25 85t54.5 59t72 33.5t79.5 8.5zM454 0h-135l775 1500h126zM285 1211l13 6q9 5 21 9.5t26 7.5t27 3q54 0 92.5 -16t62.5 -44t34 -66t8 -82q-4 -55 -24 -99t-53.5 -78.5
t-77.5 -59.5t-95 -41t-107 -23.5t-112 -7.5l14 80q71 0 134 16t111 45t77 69t33 89q2 26 -5.5 50t-23.5 42.5t-39.5 30t-52.5 11.5q-41 0 -69 -8.5t-52 -24.5h-57l62 350h371l-14 -80h-272zM1220 380q-34 -14 -64 -30t-52.5 -36.5t-36.5 -46.5t-15 -60q-2 -31 6.5 -54.5
t25 -40t39.5 -26t51 -13.5q32 -4 64 4.5t58 26t42.5 44t17.5 59.5q1 35 -9.5 61t-29.5 46.5t-44 36.5t-53 29zM1254 461q25 11 47 23t38.5 26.5t26.5 32t10 38.5q1 26 -6.5 43t-20.5 28t-29 16.5t-33 7.5q-23 2 -46.5 -4.5t-42.5 -19.5t-31.5 -31t-12.5 -38q0 -23 7.5 -41
t20.5 -32t31.5 -26t40.5 -23z" />
    <glyph glyph-name="seveneighths" unicode="&#x215e;" horiz-adv-x="1500" 
d="M1292 758q43 -2 77.5 -14.5t57.5 -35.5t33.5 -55.5t6.5 -75.5q-3 -30 -15 -53t-29.5 -41t-40 -32.5t-46.5 -27.5q34 -17 57 -38t37 -47.5t18.5 -59.5t1.5 -73q-4 -38 -17.5 -69t-35 -55.5t-49 -42.5t-58.5 -29.5t-64.5 -15.5t-65.5 -2q-47 4 -86.5 18.5t-66.5 41.5
t-40 67t-8 94q4 40 20 72.5t40.5 58.5t56 46t66.5 36q-21 14 -37 30t-26.5 33.5t-15 38t-2.5 45.5q3 49 25 85t54.5 59t72 33.5t79.5 8.5zM454 0h-135l775 1500h126zM232 1470h446l-11 -65q-4 -21 -26 -52.5t-54 -70.5t-70 -85.5t-73.5 -97.5t-65 -105t-44.5 -110l-11 -42
q-5 -22 -9.5 -43.5t-8 -41.5t-6.5 -37h-99q2 15 7 40t11.5 53t13.5 55.5t13 47.5q18 54 46 106.5t60.5 100t66.5 89.5t63 76.5t49.5 60.5t26.5 41h-339zM1220 380q-34 -14 -64 -30t-52.5 -36.5t-36.5 -46.5t-15 -60q-2 -31 6.5 -54.5t25 -40t39.5 -26t51 -13.5q32 -4 64 4.5
t58 26t42.5 44t17.5 59.5q1 35 -9.5 61t-29.5 46.5t-44 36.5t-53 29zM1254 461q25 11 47 23t38.5 26.5t26.5 32t10 38.5q1 26 -6.5 43t-20.5 28t-29 16.5t-33 7.5q-23 2 -46.5 -4.5t-42.5 -19.5t-31.5 -31t-12.5 -38q0 -23 7.5 -41t20.5 -32t31.5 -26t40.5 -23z" />
    <glyph glyph-name="fractionnumeratorone" unicode="&#x215f;" horiz-adv-x="1500" 
d="M454 0h-135l775 1500h126zM175 720l14 80h122l85 483l49 113l-84 -93l-123 -94l-43 61l266 210l68 -10l-118 -670h123l-14 -80h-345z" />
    <glyph glyph-name="Oneroman" unicode="&#x2160;" horiz-adv-x="600" 
d="M200 0l227 1290l7 210l234 20l-268 -1520h-200z" />
    <glyph glyph-name="Tworoman" unicode="&#x2161;" 
d="M200 0l227 1290l7 210l234 20l-268 -1520h-200zM800 0l227 1290l7 210l234 20l-268 -1520h-200z" />
    <glyph glyph-name="Threeroman" unicode="&#x2162;" horiz-adv-x="1800" 
d="M200 0l227 1290l7 210l234 20l-268 -1520h-200zM800 0l227 1290l7 210l234 20l-268 -1520h-200zM1400 0l227 1290l7 210l234 20l-268 -1520h-200z" />
    <glyph glyph-name="Fourroman" unicode="&#x2163;" horiz-adv-x="1800" 
d="M200 0l227 1290l7 210l234 20l-268 -1520h-200zM1173 500l24 -360l104 314l514 1046h189l-652 -1320l-61 -200l-242 20l-218 1500l199 20z" />
    <glyph glyph-name="Fiveroman" unicode="&#x2164;" horiz-adv-x="1300" 
d="M673 500l24 -360l104 314l514 1046h189l-652 -1320l-61 -200l-242 20l-218 1500l199 20z" />
    <glyph glyph-name="Sixroman" unicode="&#x2165;" horiz-adv-x="1900" 
d="M673 500l24 -360l104 314l514 1046h189l-652 -1320l-61 -200l-242 20l-218 1500l199 20zM1400 0l227 1290l7 210l234 20l-268 -1520h-200z" />
    <glyph glyph-name="Sevenroman" unicode="&#x2166;" horiz-adv-x="2300" 
d="M673 500l24 -360l104 314l514 1046h189l-652 -1320l-61 -200l-242 20l-218 1500l199 20zM1400 0l227 1290l7 210l234 20l-268 -1520h-200zM1900 0l227 1290l7 210l234 20l-268 -1520h-200z" />
    <glyph glyph-name="Eightroman" unicode="&#x2167;" horiz-adv-x="2800" 
d="M673 500l24 -360l104 314l514 1046h189l-652 -1320l-61 -200l-242 20l-218 1500l199 20zM1400 0l227 1290l7 210l234 20l-268 -1520h-200zM1900 0l227 1290l7 210l234 20l-268 -1520h-200zM2400 0l227 1290l7 210l234 20l-268 -1520h-200z" />
    <glyph glyph-name="Nineroman" unicode="&#x2168;" horiz-adv-x="1800" 
d="M200 0l227 1290l7 210l234 20l-268 -1520h-200zM1514 0l-222 519l-45 181l-76 -160l-420 -540h-198l620 799l-299 701l216 20l196 -464l45 -196l63 160l373 480h200l-563 -724l330 -776h-220z" />
    <glyph glyph-name="Tenroman" unicode="&#x2169;" horiz-adv-x="1300" 
d="M1014 0l-222 519l-45 181l-76 -160l-420 -540h-198l620 799l-299 701l216 20l196 -464l45 -196l63 160l373 480h200l-563 -724l330 -776h-220z" />
    <glyph glyph-name="Elevenroman" unicode="&#x216a;" horiz-adv-x="1800" 
d="M1014 0l-222 519l-45 181l-76 -160l-420 -540h-198l620 799l-299 701l216 20l196 -464l45 -196l63 160l373 480h200l-563 -724l330 -776h-220zM1400 0l227 1290l7 210l234 20l-268 -1520h-200z" />
    <glyph glyph-name="Twelveroman" unicode="&#x216b;" horiz-adv-x="2300" 
d="M1014 0l-222 519l-45 181l-76 -160l-420 -540h-198l620 799l-299 701l216 20l196 -464l45 -196l63 160l373 480h200l-563 -724l330 -776h-220zM1400 0l227 1290l7 210l234 20l-268 -1520h-200zM1900 0l227 1290l7 210l234 20l-268 -1520h-200z" />
    <glyph glyph-name="oneroman" unicode="&#x2170;" horiz-adv-x="600" 
d="M390 0h-190l193 1100l194 20z" />
    <glyph glyph-name="tworoman" unicode="&#x2171;" horiz-adv-x="1100" 
d="M390 0h-190l193 1100l194 20zM890 0h-190l193 1100l194 20z" />
    <glyph glyph-name="threeroman" unicode="&#x2172;" horiz-adv-x="1600" 
d="M390 0h-190l193 1100l194 20zM890 0h-190l193 1100l194 20zM1390 0h-190l193 1100l194 20z" />
    <glyph glyph-name="fourroman" unicode="&#x2173;" horiz-adv-x="1600" 
d="M1702 1120l-572 -1140l-202 20l-164 1100l187 20l109 -739l12 -232l91 232l360 719zM390 0h-190l193 1100l194 20z" />
    <glyph glyph-name="fiveroman" unicode="&#x2174;" horiz-adv-x="1100" 
d="M1202 1120l-572 -1140l-202 20l-164 1100l187 20l109 -739l12 -232l91 232l360 719z" />
    <glyph glyph-name="sixroman" unicode="&#x2175;" horiz-adv-x="1500" 
d="M1202 1120l-572 -1140l-202 20l-164 1100l187 20l109 -739l12 -232l91 232l360 719zM1290 0h-190l193 1100l194 20z" />
    <glyph glyph-name="sevenroman" unicode="&#x2176;" horiz-adv-x="1900" 
d="M1202 1120l-572 -1140l-202 20l-164 1100l187 20l109 -739l12 -232l91 232l360 719zM1290 0h-190l193 1100l194 20zM1690 0h-190l193 1100l194 20z" />
    <glyph glyph-name="eightroman" unicode="&#x2177;" horiz-adv-x="2300" 
d="M1202 1120l-572 -1140l-202 20l-164 1100l187 20l109 -739l12 -232l91 232l360 719zM1290 0h-190l193 1100l194 20zM1690 0h-190l193 1100l194 20zM2090 0h-190l193 1100l194 20z" />
    <glyph glyph-name="nineroman" unicode="&#x2178;" horiz-adv-x="1700" 
d="M1351 0l-201 382l-24 118l-66 -118l-335 -382h-199l515 588l-268 512l215 16l175 -335l20 -111l57 111l281 319l214 17l-468 -534l309 -583h-225zM390 0h-190l193 1100l194 20z" />
    <glyph glyph-name="tenroman" unicode="&#x2179;" horiz-adv-x="1100" 
d="M851 0l-201 382l-24 118l-66 -118l-335 -382h-199l515 588l-268 512l215 16l175 -335l20 -111l57 111l281 319l214 17l-468 -534l309 -583h-225z" />
    <glyph glyph-name="elevenroman" unicode="&#x217a;" horiz-adv-x="1600" 
d="M851 0l-201 382l-24 118l-66 -118l-335 -382h-199l515 588l-268 512l215 16l175 -335l20 -111l57 111l281 319l214 17l-468 -534l309 -583h-225zM1390 0h-190l193 1100l194 20z" />
    <glyph glyph-name="twelveroman" unicode="&#x217b;" horiz-adv-x="2000" 
d="M851 0l-201 382l-24 118l-66 -118l-335 -382h-199l515 588l-268 512l215 16l175 -335l20 -111l57 111l281 319l214 17l-468 -534l309 -583h-225zM1390 0h-190l193 1100l194 20zM1790 0h-190l193 1100l194 20z" />
    <glyph glyph-name="arrowleft" unicode="&#x2190;" horiz-adv-x="1500" 
d="M547 500l-104 12l57 -75v-237l-301 300l-119 100l120 100l300 300v-235l-57 -75l104 10h853v-200h-853z" />
    <glyph glyph-name="arrowup" unicode="&#x2191;" horiz-adv-x="1000" 
d="M400 1053l12 104l-75 -57h-237l300 301l100 119l100 -120l300 -300h-235l-75 57l10 -104v-1053h-200v1053z" />
    <glyph glyph-name="arrowright" unicode="&#x2192;" horiz-adv-x="1500" 
d="M100 500v200h853l104 -10l-57 75v235l300 -300l120 -100l-119 -100l-301 -300v237l57 75l-104 -12h-853z" />
    <glyph glyph-name="arrowdown" unicode="&#x2193;" horiz-adv-x="1000" 
d="M400 1500h200v-1053l-10 -104l75 57h235l-300 -300l-100 -120l-100 119l-300 301h237l75 -57l-12 104v1053z" />
    <glyph glyph-name="arrowboth" unicode="&#x2194;" horiz-adv-x="1800" 
d="M547 500l-104 12l57 -75v-237l-301 300l-119 100l120 100l300 300v-235l-57 -75l104 10h686l104 -10l-57 75v235l300 -300l120 -100l-119 -100l-301 -300v237l57 75l-104 -12h-686z" />
    <glyph glyph-name="arrowupdn" unicode="&#x2195;" horiz-adv-x="1000" 
d="M600 467l-12 -104l75 57h237l-300 -301l-100 -119l-100 120l-300 300h235l75 -57l-10 104v586l10 104l-75 -57h-235l300 300l100 120l100 -119l300 -301h-237l-75 57l12 -104v-586z" />
    <glyph glyph-name="arrowupleft" unicode="&#x2196;" 
d="M1090 151l-141 -141l-603 603l-67 79l-11 -93l-168 -165v404l-20 182l182 -20h404l-166 -169l-94 -12l81 -65z" />
    <glyph glyph-name="arrowupright" unicode="&#x2197;" 
d="M713 754l81 65l-94 12l-166 169h404l182 20l-20 -182v-404l-168 165l-11 93l-67 -79l-603 -603l-141 141z" />
    <glyph glyph-name="arrowdownright" unicode="&#x2198;" 
d="M110 849l141 141l603 -603l67 -79l11 93l168 165v-404l20 -182l-182 20h-404l166 169l94 12l-81 65z" />
    <glyph glyph-name="arrowdownleft" unicode="&#x2199;" 
d="M487 246l-81 -65l94 -12l166 -169h-404l-182 -20l20 182v404l168 -165l11 -93l67 79l603 603l141 -141z" />
    <glyph glyph-name="leftwardsarrowwithhook" unicode="&#x21a9;" horiz-adv-x="1400" 
d="M547 400l-104 12l57 -75v-237l-301 300l-119 100l120 100l300 300v-235l-57 -75l104 10h453q27 0 50.5 7.5t41.5 21t28 32t10 39.5t-10 39t-28 31.5t-41.5 21.5t-50.5 8v200q56 0 110 -19t96 -56.5t68 -93.5t26 -131t-26 -131.5t-68 -94t-96 -56t-110 -18.5h-453z" />
    <glyph glyph-name="rightwardsarrowwithhook" unicode="&#x21aa;" horiz-adv-x="1400" 
d="M400 400q-56 0 -110 18.5t-96 56t-68 94t-26 131.5t26 131t68 93.5t96 56.5t110 19v-200q-27 0 -50.5 -8t-41.5 -21.5t-28 -31.5t-10 -39t10 -39.5t28 -32t41.5 -21t50.5 -7.5h453l104 -10l-57 75v235l300 -300l120 -100l-119 -100l-301 -300v237l57 75l-104 -12h-453z
" />
    <glyph glyph-name="downwardsarrowwithtiprightwards" unicode="&#x21b3;" horiz-adv-x="1100" 
d="M259 500h294l104 -10l-57 75v235l300 -300l120 -100l-119 -100l-301 -300v237l57 75l-104 -12h-453v1000h159v-800z" />
    <glyph glyph-name="carriagereturn" unicode="&#x21b5;" horiz-adv-x="1100" 
d="M841 1300h159v-1000h-453l-104 12l57 -75v-237l-301 300l-119 100l120 100l300 300v-235l-57 -75l104 10h294v800z" />
    <glyph glyph-name="undo" unicode="&#x21b6;" horiz-adv-x="1600" 
d="M500 369l166 -169h-404l-182 -20l20 182v404l168 -165l11 -93l67 79q78 81 153.5 148t154.5 115t163.5 74.5t182.5 26.5q112 0 204 -26t157 -81t101 -140.5t38 -203.5h-170q0 60 -25.5 106.5t-68.5 79t-101 49t-122 16.5q-71 0 -137 -27.5t-130 -71t-128 -98t-131 -108.5
l-81 -65z" />
    <glyph glyph-name="redo" unicode="&#x21b7;" horiz-adv-x="1600" 
d="M1194 381l-81 65q-67 54 -131 108.5t-128 98t-130 71t-137 27.5q-64 0 -122 -16.5t-101 -49t-68.5 -79t-25.5 -106.5h-170q2 118 38 203.5t101 140.5t157 81t204 26q98 0 182.5 -26.5t163.5 -74.5t154.5 -115t153.5 -148l67 -79l11 93l168 165v-404l20 -182l-182 20h-404
l166 169z" />
    <glyph glyph-name="arrowdblleft" unicode="&#x21d0;" horiz-adv-x="1600" 
d="M207 691l366 366h170l-245 -244l100 -13h902v-116h-752l-350 28l-131 -112l131 -112l350 28h752v-116h-902l-100 -12l245 -245h-170l-366 366l-107 91z" />
    <glyph glyph-name="arrowdblup" unicode="&#x21d1;" 
d="M691 1393l366 -366v-170l-244 245l-13 -100v-1002h-116v852l28 350l-112 131l-112 -131l28 -350v-852h-116v1002l-12 100l-245 -245v170l366 366l91 107z" />
    <glyph glyph-name="arrowdblright" unicode="&#x21d2;" horiz-adv-x="1600" 
d="M1500 600l-107 -91l-366 -366h-170l245 245l-100 12h-902v116h752l350 -28l131 112l-131 112l-350 -28h-752v116h902l100 13l-245 244h170l366 -366z" />
    <glyph glyph-name="arrowdbldown" unicode="&#x21d3;" 
d="M600 0l-91 107l-366 366v170l245 -245l12 100v1002h116v-852l-28 -350l112 -131l112 131l-28 350v852h116v-1002l13 -100l244 245v-170l-366 -366z" />
    <glyph glyph-name="arrowdblleftright" unicode="&#x21d4;" horiz-adv-x="1900" 
d="M1800 600l-107 -91l-366 -366h-170l245 245l-100 12h-704l-100 -12l245 -245h-170l-366 366l-107 91l107 91l366 366h170l-245 -244l100 -13h704l100 13l-245 244h170l366 -366zM748 516h404l350 -28l131 112l-131 112l-350 -28h-404l-350 28l-131 -112l131 -112z" />
    <glyph glyph-name="arrowdblupdown" unicode="&#x21d5;" 
d="M600 0l-91 107l-366 366v170l245 -245l12 100v604l-12 100l-245 -245v170l366 366l91 107l91 -107l366 -366v-170l-244 245l-13 -100v-604l13 -100l244 245v-170l-366 -366zM516 952v-304l-28 -350l112 -131l112 131l-28 350v304l28 350l-112 131l-112 -131z" />
    <glyph glyph-name="arrowdblnorthwest" unicode="&#x21d6;" horiz-adv-x="1300" 
d="M229 1100h518l120 -121h-346l62 -79l637 -638l-82 -82l-531 532l-228 267l-172 14l14 -172l267 -228l532 -531l-82 -82l-638 637l-79 63v-347l-121 120v518l-11 140z" />
    <glyph glyph-name="arrowdblnortheast" unicode="&#x21d7;" horiz-adv-x="1300" 
d="M1211 1111l-11 -140v-518l-121 -120v347l-79 -63l-638 -637l-82 82l532 531l267 228l14 172l-172 -14l-228 -267l-531 -532l-82 82l637 638l62 79h-346l120 121h518z" />
    <glyph glyph-name="arrowdblsoutheast" unicode="&#x21d8;" horiz-adv-x="1300" 
d="M1071 0h-518l-120 121h346l-62 79l-637 638l82 82l531 -532l228 -267l172 -14l-14 172l-267 228l-532 531l82 82l638 -637l79 -63v347l121 -120v-518l11 -140z" />
    <glyph glyph-name="arrowdblsouthwest" unicode="&#x21d9;" horiz-adv-x="1300" 
d="M89 -11l11 140v518l121 120v-347l79 63l638 637l82 -82l-532 -531l-267 -228l-14 -172l172 14l228 267l531 532l82 -82l-637 -638l-62 -79h346l-120 -121h-518z" />
    <glyph glyph-name="pageup" unicode="&#x21de;" horiz-adv-x="1000" 
d="M200 500h200v160h-200v140h200v253l12 104l-75 -57h-237l300 301l100 119l100 -120l300 -300h-235l-75 57l10 -104v-253h200v-140h-200v-160h200v-140h-200v-360h-200v360h-200v140z" />
    <glyph glyph-name="pagedown" unicode="&#x21df;" horiz-adv-x="1000" 
d="M200 1140h200v360h200v-360h200v-140h-200v-160h200v-140h-200v-253l-10 -104l75 57h235l-300 -300l-100 -120l-100 119l-300 301h237l75 -57l-12 104v253h-200v140h200v160h-200v140z" />
    <glyph glyph-name="leftwardsdashedarrow" unicode="&#x21e0;" horiz-adv-x="1600" 
d="M547 500l-104 12l57 -75v-237l-301 300l-119 100l120 100l300 300v-235l-57 -75l104 10h103v-200h-103zM800 700h250v-200h-250v200zM1200 700h250v-200h-250v200z" />
    <glyph glyph-name="upwardsdashedarrow" unicode="&#x21e1;" horiz-adv-x="1000" 
d="M400 1053l12 104l-75 -57h-237l300 301l100 119l100 -120l300 -300h-235l-75 57l10 -104v-103h-200v103zM600 800v-250h-200v250h200zM600 400v-250h-200v250h200z" />
    <glyph glyph-name="rightwardsdashedarrow" unicode="&#x21e2;" horiz-adv-x="1600" 
d="M950 500v200h103l104 -10l-57 75v235l300 -300l120 -100l-119 -100l-301 -300v237l57 75l-104 -12h-103zM800 500h-250v200h250v-200zM400 500h-250v200h250v-200z" />
    <glyph glyph-name="downwardsdashedarrow" unicode="&#x21e3;" horiz-adv-x="1000" 
d="M400 550h200v-103l-10 -104l75 57h235l-300 -300l-100 -120l-100 119l-300 301h237l75 -57l-12 104v103zM400 700v250h200v-250h-200zM400 1100v250h200v-250h-200z" />
    <glyph glyph-name="shift" unicode="&#x21e7;" 
d="M600 1430l91 -107l382 -366v-102h-155l-8 -100v-755h-620v755l-9 100h-154v102l382 366zM400 662v-562h400v562l21 275h112l-333 336l-333 -336h113z" />
    <glyph glyph-name="capslock" unicode="&#x21ea;" 
d="M600 1430l91 -107l382 -366v-102h-155l-8 -100v-355h-620v355l-9 100h-154v102l382 366zM400 662v-162h400v162l21 275h112l-333 336l-333 -336h113zM910 300v-100l11 -200h-642l11 200v100h620zM400 94h400v106h-400v-106z" />
    <glyph glyph-name="universal" unicode="&#x2200;" horiz-adv-x="1400" 
d="M1141 1300h190l-589 -1320l-143 20l-38 160l-489 1140h177l130 -300h631zM640 400l54 -288l54 288l196 450h-500z" />
    <glyph glyph-name="complement" unicode="&#x2201;" 
d="M600 143q151 0 225.5 65.5t74.5 207.5l174 -16q0 -88 -28.5 -164t-87 -132.5t-148 -88.5t-210.5 -32q-100 0 -176 25t-131.5 70t-92.5 107t-59 136.5t-31.5 158t-9.5 170.5t9.5 170.5t31.5 158t59 136.5t92.5 107t131.5 70t176 25q116 0 204.5 -32t148.5 -88.5
t90.5 -132.5t30.5 -164l-174 -15q0 130 -73 201t-227 71q-68 0 -117 -20t-83.5 -55.5t-56 -84t-33.5 -105t-16 -118.5t-4 -124q0 -63 4 -124.5t16 -118t33.5 -105t56 -84t83.5 -55.5t117 -20z" />
    <glyph glyph-name="partialdiff" unicode="&#x2202;" 
d="M882 644q-16 24 -45 46t-65 38.5t-76 26.5t-76 10q-89 0 -153.5 -34t-107 -89.5t-63 -126t-20.5 -142.5q0 -39 12.5 -82t41.5 -79.5t75.5 -60t115.5 -23.5q54 0 101.5 24.5t87 65t70 93.5t52.5 110.5t35 115t15 107.5zM1075 780q0 -81 -14.5 -171.5t-44.5 -179
t-75.5 -169.5t-107 -142.5t-139.5 -98t-173 -36.5q-93 0 -172 28t-136.5 78t-90 119.5t-32.5 152.5q0 133 38 231.5t102 163.5t146 97t171 32q66 0 118 -11t93 -29t73 -42t58 -50q0 136 -21 248.5t-65.5 192t-114.5 123.5t-167 44q-31 0 -57.5 -3t-52 -10t-52.5 -19t-59 -29
l-84 131q28 18 62 33.5t71.5 27t77 18.5t78.5 7q136 0 242 -46.5t179 -138.5t111 -230t38 -322z" />
    <glyph glyph-name="existential" unicode="&#x2203;" horiz-adv-x="1300" 
d="M1015 160l-15 190v300h-752l-18 150h770v150l20 200h-845v150h1017l-22 -200v-900l17 -200h-1012v160h840z" />
    <glyph glyph-name="theredoesnotexist" unicode="&#x2204;" horiz-adv-x="1300" 
d="M420 -200h-155l71 200h-161v160h219l175 490h-321l-18 150h393l125 350h-573v150h627l72 200h146l-71 -200h243l-22 -200v-900l17 -200h-697zM1015 160l-15 190v300h-280l-173 -490h468zM1000 800v150l20 200h-124l-123 -350h227z" />
    <glyph glyph-name="emptyset" unicode="&#x2205;" horiz-adv-x="1400" 
d="M474 -200h-155l91 254q-82 46 -144 118q-76 90 -116.5 212t-40.5 266t39.5 266t114.5 211.5t185 139.5t251 50q83 0 156 -19l73 202h146l-89 -253q84 -47 146 -120q77 -89 117.5 -211t40.5 -266t-39.5 -266t-114.5 -211.5t-185 -139.5t-251 -50q-83 0 -154 18zM694 1169
q-108 0 -184 -41t-125 -109.5t-71.5 -156.5t-22.5 -182q0 -106 22.5 -205t71.5 -176q34 -52 81 -89l338 946q-50 13 -110 13zM1107 623q0 105 -22.5 203t-71.5 174q-34 53 -83 92l-335 -949q50 -12 109 -12q106 0 182.5 42t125.5 111t72 157.5t23 181.5z" />
    <glyph glyph-name="gradient" unicode="&#x2207;" horiz-adv-x="1600" 
d="M65 1500h1472l-623 -1500h-227zM392 1340l-123 52l82 -92l416 -1058l35 -167l35 167l416 1058l85 92l-126 -52h-820z" />
    <glyph glyph-name="element" unicode="&#x2208;" horiz-adv-x="1500" 
d="M1420 0h-577q-171 0 -308.5 40.5t-234 122t-148.5 203.5t-52 284t52 284t148.5 203.5t234 122t308.5 40.5h577l-20 -154h-553q-131 0 -236 -29.5t-178.5 -90.5t-112.5 -155q-28 -65 -36 -146h1116v-150h-1116q8 -82 36 -147q39 -94 112.5 -155t178.5 -90.5t236 -29.5h553
z" />
    <glyph glyph-name="notelement" unicode="&#x2209;" horiz-adv-x="1500" 
d="M1420 0h-577q-79 0 -150 8l-73 -208h-155l84 236q-7 2 -15 4q-137 41 -233.5 122.5t-148.5 203.5t-52 284t52 284t148.5 203.5t234 122t308.5 40.5h159l72 200h146l-71 -200h271l-20 -154h-305l-149 -421h454v-150h-507l-147 -418q48 -4 101 -4h553zM611 1116
q-105 -29 -178.5 -90t-112.5 -155q-28 -65 -36 -146h512l151 421h-100q-131 0 -236 -30zM320 428q39 -94 112 -155q71 -59 171 -88l139 390h-458q8 -82 36 -147z" />
    <glyph glyph-name="suchthat" unicode="&#x220b;" horiz-adv-x="1500" 
d="M100 153h553q131 0 236 29.5t178.5 90.5t112.5 155q28 65 36 147h-1116v150h1116q-8 81 -36 146q-39 94 -112.5 155t-178.5 90.5t-236 29.5h-553l-20 154h577q171 0 308.5 -40.5t234 -122t148.5 -203.5t52 -284t-52 -284t-148.5 -203.5t-234 -122t-308.5 -40.5h-577z" />
    <glyph glyph-name="doesnotcontainasmember" unicode="&#x220c;" horiz-adv-x="1500" 
d="M100 153h291l151 422h-442v150h496l150 417q-45 4 -93 4h-553l-20 154h577q74 0 143 -8l74 208h146l-82 -233q14 -4 27 -8q138 -40 234.5 -121.5t148.5 -203.5t52 -284t-52 -284t-148.5 -203.5t-234 -122t-308.5 -40.5h-167l-70 -200h-155l71 200h-256zM653 153
q131 0 236 29.5t178.5 90.5t112.5 155q28 65 36 147h-523l-149 -422h109zM1216 725q-8 81 -36 146q-39 94 -112.5 155t-178.5 90l-4 1l-139 -392h470z" />
    <glyph glyph-name="minus" unicode="&#x2212;" 
d="M223 700h900l-27 -155h-900z" />
    <glyph glyph-name="minusplus" unicode="&#x2213;" horiz-adv-x="1100" 
d="M223 612h373l75 338h155l-75 -338h372l-27 -124h-372l-75 -338h-155l75 338h-373zM366 1200h900l-27 -139h-900z" />
    <glyph glyph-name="ringoperator" unicode="&#x2218;" horiz-adv-x="600" 
d="M568 921q111 -15 169.5 -85.5t51.5 -184.5q-3 -56 -32.5 -107.5t-74 -90t-100 -58.5t-110.5 -14q-110 13 -166.5 85t-54.5 185q1 38 14.5 74t36.5 67.5t53.5 57.5t65.5 43.5t72.5 25t74.5 2.5zM492 492q31 -3 63.5 6.5t59.5 30t44.5 51.5t19.5 71q3 67 -31 107t-100 52
q-34 6 -67.5 -3t-60 -30t-43 -53.5t-16.5 -72.5q1 -66 35.5 -109t95.5 -50z" />
    <glyph glyph-name="radical" unicode="&#x221a;" horiz-adv-x="1600" 
d="M1500 1300l-20 -150h-270l-200 20l-334 -1190l-258 20l-153 550l-77 200l185 20l131 -470l46 -240l46 240l282 1000h622z" />
    <glyph glyph-name="proportional" unicode="&#x221d;" horiz-adv-x="1300" 
d="M477 330q57 0 103 33t81 82t59.5 104.5t39.5 100.5q-23 49 -51.5 103.5t-65.5 100.5t-83 76t-103 30q-47 0 -82.5 -27.5t-59 -71.5t-35 -99.5t-11.5 -111.5t15 -113t42.5 -103t66 -75t84.5 -29zM1234 189q-68 0 -121.5 23t-101.5 68t-94 113t-97 158l4 -95
q-26 -51 -58.5 -100t-75.5 -87.5t-98.5 -62t-125.5 -23.5q-97 0 -166.5 42t-113.5 109t-65 150t-21 166q0 55 8 111t25.5 108t45.5 97t68.5 78.5t94.5 53t124 19.5q67 0 121 -23.5t102 -69t94 -114t97 -158.5l-4 95q26 51 58.5 99.5t75.5 86.5t98 61t126 23l-11 -147
q-57 0 -103 -32.5t-81 -81t-59.5 -103.5t-39.5 -100q22 -49 51 -103t66 -99.5t83 -75t103 -29.5z" />
    <glyph glyph-name="infinity" unicode="&#x221e;" horiz-adv-x="1700" 
d="M477 330q57 0 103 33t81 82t59.5 104.5t39.5 100.5q-23 49 -51.5 103.5t-65.5 100.5t-83 76t-103 30q-47 0 -82.5 -27.5t-59 -71.5t-35 -99.5t-11.5 -111.5t15 -113t42.5 -103t66 -75t84.5 -29zM820 551l4 -95q-26 -51 -58.5 -100t-75.5 -87.5t-98.5 -62t-125.5 -23.5
q-97 0 -166.5 42t-113.5 109t-65 150t-21 166q0 55 8 111t25.5 108t45.5 97t68.5 78.5t94.5 53t124 19.5q67 0 121 -23.5t102 -69t94 -114t97 -158.5l-4 95q26 51 58.5 100t75.5 87.5t98 62t126 23.5q65 0 117 -19.5t93 -53t70.5 -78.5t48.5 -97t28 -108t9 -111
q0 -83 -18 -166t-60.5 -150t-113 -109t-174.5 -42q-68 0 -121.5 23.5t-101.5 69t-94 114t-97 158.5zM1223 973q-57 0 -103 -33t-81 -82t-59.5 -104.5t-39.5 -100.5q22 -49 51 -103.5t66 -100.5t83 -76t103 -30q47 0 82.5 27.5t59 71.5t35 99.5t11.5 111.5t-15 113t-42.5 103
t-66 75t-84.5 29z" />
    <glyph glyph-name="sphericalangle" unicode="&#x2222;" horiz-adv-x="1400" 
d="M100 600l1015 587l122 -91l-272 -157q56 -93 84 -192.5t28 -202.5q0 -101 -27 -201.5t-84 -197.5l242 -140l-108 -86l-1000 564v117zM862 205q46 79 68 164t22 171q0 90 -23 175.5t-68 163.5l-593 -337z" />
    <glyph glyph-name="parallelto" unicode="&#x2225;" horiz-adv-x="1000" 
d="M355 1500v-1500h-155v1500h155zM755 1500v-1500h-155v1500h155z" />
    <glyph glyph-name="logicaland" unicode="&#x2227;" horiz-adv-x="1300" 
d="M780 1320l442 -1320h-164l-336 980l-65 240l-65 -240l-337 -980h-162l429 1300z" />
    <glyph glyph-name="logicalor" unicode="&#x2228;" horiz-adv-x="1300" 
d="M522 0l-429 1300l155 20l344 -1000l65 -240l65 240l336 980l171 20l-442 -1320h-265z" />
    <glyph glyph-name="intersection" unicode="&#x2229;" horiz-adv-x="1500" 
d="M750 1140q-86 0 -154 -24t-120 -65.5t-89.5 -97.5t-61.5 -119t-35 -130t-11 -131v-573h-179v538q0 171 40.5 311.5t122 240.5t203.5 155t284 55t283.5 -55t203 -155t122 -240.5t40.5 -311.5v-538h-179v573q0 64 -11 131t-35 130t-61 119t-89.5 97.5t-120.5 65.5t-153 24z
" />
    <glyph glyph-name="union" unicode="&#x222a;" horiz-adv-x="1500" 
d="M749 143q86 0 154 24t120 65.5t89.5 97.5t61.5 119t35 130t11 131v570l179 20v-555q0 -171 -40.5 -311.5t-122 -240.5t-203.5 -155t-284 -55t-283.5 55t-203 155t-122 240.5t-40.5 311.5v535l179 20v-590q0 -64 11 -131t35 -130t61 -119t89.5 -97.5t120.5 -65.5t153 -24z
" />
    <glyph glyph-name="integral" unicode="&#x222b;" 
d="M500 1117q0 85 15.5 158t53.5 127t101.5 84.5t159.5 30.5q46 0 78.5 -3.5t58 -10t46 -15t41.5 -18.5l-63 -123q-19 11 -51.5 19t-57.5 8h-16q-8 0 -36.5 -4.5t-58 -24.5t-45.5 -52t-21 -76.5t-5 -99.5v-1138q0 -85 -15.5 -158t-53.5 -127t-101.5 -84.5t-159.5 -30.5
q-46 0 -110.5 10t-133.5 37l83 123q19 -11 51.5 -19t57.5 -8q8 0 44.5 4.5t66 24.5t45.5 52t21 76.5t5 99.5v1138z" />
    <glyph glyph-name="contourintegral" unicode="&#x222e;" horiz-adv-x="1100" 
d="M500 1117q0 85 15.5 158t53.5 127t101.5 84.5t159.5 30.5q46 0 78.5 -3.5t58 -10t46 -15t41.5 -18.5l-63 -123q-19 11 -51.5 19t-57.5 8q-24 0 -52.5 -4.5t-58 -24.5t-45.5 -52t-21 -76.5t-5 -99.5v-243q59 -15 109 -46t86.5 -74.5t57 -96.5t20.5 -111
q0 -59 -20.5 -111.5t-57 -96t-86.5 -75t-109 -46.5v-238q0 -85 -15.5 -158t-53.5 -127t-101.5 -84.5t-159.5 -30.5q-46 0 -81.5 3.5t-64.5 10t-53 15t-45 18.5l83 123q19 -11 51.5 -19t57.5 -8q8 0 44.5 4.5t66 24.5t45.5 52t21 76.5t5 99.5v238q-60 15 -110 46.5t-87 74.5
t-57.5 96t-20.5 112t20.5 112t57.5 96.5t87 74.5t110 46v242zM357 546q0 -38 10.5 -72t29 -62.5t45 -51t58.5 -36.5v444q-64 -29 -103.5 -88t-39.5 -134zM841 546q0 37 -10.5 70.5t-29 62.5t-44.5 51.5t-57 36.5v-442q63 29 102 87.5t39 133.5z" />
    <glyph glyph-name="therefore" unicode="&#x2234;" 
d="M112 150q0 34 17 66.5t44.5 56.5t62 36t69.5 6q34 -6 59.5 -21.5t43 -37.5t26 -49.5t7.5 -56.5q-1 -36 -17.5 -68t-43.5 -55.5t-61 -35.5t-70 -8q-68 8 -103 54.5t-34 112.5zM912 150q0 34 17 66.5t44.5 56.5t62 36t69.5 6q34 -6 59.5 -21.5t43 -37.5t26 -49.5t7.5 -56.5
q-1 -36 -17.5 -68t-43.5 -55.5t-61 -35.5t-70 -8q-68 8 -103 54.5t-34 112.5zM512 1040q0 34 17 66.5t44.5 56.5t62 36t69.5 6q34 -6 59.5 -21.5t43 -37.5t26 -49.5t7.5 -56.5q-1 -36 -17.5 -68t-43.5 -55.5t-61 -35.5t-70 -8q-68 8 -103 54.5t-34 112.5z" />
    <glyph glyph-name="because" unicode="&#x2235;" 
d="M112 1040q0 34 17 66.5t44.5 56.5t62 36t69.5 6q34 -6 59.5 -21.5t43 -37.5t26 -49.5t7.5 -56.5q-1 -36 -17.5 -68t-43.5 -55.5t-61 -35.5t-70 -8q-68 8 -103 54.5t-34 112.5zM912 1040q0 34 17 66.5t44.5 56.5t62 36t69.5 6q34 -6 59.5 -21.5t43 -37.5t26 -49.5
t7.5 -56.5q-1 -36 -17.5 -68t-43.5 -55.5t-61 -35.5t-70 -8q-68 8 -103 54.5t-34 112.5zM512 150q0 34 17 66.5t44.5 56.5t62 36t69.5 6q34 -6 59.5 -21.5t43 -37.5t26 -49.5t7.5 -56.5q-1 -36 -17.5 -68t-43.5 -55.5t-61 -35.5t-70 -8q-68 8 -103 54.5t-34 112.5z" />
    <glyph glyph-name="similar" unicode="&#x223c;" horiz-adv-x="1000" 
d="M730 400q-35 0 -64 12.5t-54 31.5t-47.5 41t-44.5 41t-45.5 31.5t-49.5 12.5q-31 0 -60 -7.5t-58.5 -21.5t-60.5 -34.5t-65 -46.5l17 100q21 28 45.5 53t55.5 44.5t71 31t93 11.5q35 0 64 -12.5t54 -31.5t48 -41t45 -41t45 -31.5t49 -12.5q61 0 118 28.5t126 81.5
l-17 -100q-20 -30 -44.5 -55.5t-56 -44.5t-72 -29.5t-92.5 -10.5z" />
    <glyph glyph-name="asymptoticallyequal" unicode="&#x2243;" horiz-adv-x="1000" 
d="M170 400h800l-25 -140h-800zM747 500q-35 0 -64 12.5t-54 31.5t-47.5 41t-44.5 41t-45 31.5t-50 12.5q-31 0 -60 -7.5t-58.5 -21.5t-60.5 -34.5t-65 -46.5l17 100q21 28 45.5 53t55.5 44.5t71 31t93 11.5q35 0 64 -12.5t54 -31.5t48 -41t45 -41t45 -31.5t49 -12.5
q61 0 118 28.5t126 81.5l-17 -100q-20 -30 -44.5 -55.5t-56 -44.5t-72 -29.5t-92.5 -10.5z" />
    <glyph glyph-name="congruent" unicode="&#x2245;" horiz-adv-x="1000" 
d="M205 600h800l-24 -140h-800zM152 300h800l-24 -140h-800zM782 700q-35 0 -64 12.5t-54 31.5t-47.5 41t-44.5 41t-45.5 31.5t-49.5 12.5q-31 0 -60 -7.5t-58.5 -21.5t-60.5 -34.5t-65 -46.5l17 100q21 28 45.5 53t55.5 44.5t71 31t93 11.5q35 0 64 -12.5t54 -31.5t48 -41
t45 -41t45 -31.5t49 -12.5q61 0 118 28.5t126 81.5l-17 -100q-20 -30 -44.5 -55.5t-56 -44.5t-72 -29.5t-92.5 -10.5z" />
    <glyph glyph-name="approxequal" unicode="&#x2248;" horiz-adv-x="1000" 
d="M747 500q-35 0 -64 12.5t-54 31.5t-47.5 41t-44.5 41t-45.5 31.5t-49.5 12.5q-31 0 -60 -7.5t-58.5 -21.5t-60.5 -34.5t-65 -46.5l17 100q21 28 45.5 53t55.5 44.5t71 31t93 11.5q35 0 64 -12.5t54 -31.5t48 -41t45 -41t45 -31.5t49 -12.5q61 0 118 28.5t126 81.5
l-17 -100q-20 -30 -44.5 -55.5t-56 -44.5t-72 -29.5t-92.5 -10.5zM696 201q-35 0 -64 12.5t-54 31.5t-47.5 41t-44.5 41t-45.5 31.5t-49.5 12.5q-31 0 -60 -7.5t-58.5 -21.5t-60.5 -34.5t-65 -46.5l17 100q21 28 45.5 53t55.5 44.5t71 31t93 11.5q35 0 64 -12.5t54 -31.5
t48 -41t45 -41t45 -31.5t49 -12.5q61 0 118 28.5t126 81.5l-17 -100q-20 -30 -44.5 -55.5t-56 -44.5t-72 -29.5t-92.5 -10.5z" />
    <glyph glyph-name="estimate" unicode="&#x2259;" horiz-adv-x="1000" 
d="M205 600h800l-24 -140h-800zM152 300h800l-24 -140h-800zM1006 754h-121l-202 196l-15 67l-38 -65l-254 -197h-140l395 352l99 10z" />
    <glyph glyph-name="notequal" unicode="&#x2260;" horiz-adv-x="1000" 
d="M170 399h280l140 261h-374l25 140h424l108 200h146l-106 -200h228l-25 -140h-277l-137 -261h368l-25 -140h-417l-137 -259h-155l139 259h-230z" />
    <glyph glyph-name="equivalence" unicode="&#x2261;" horiz-adv-x="1000" 
d="M205 600h800l-24 -140h-800zM152 300h800l-24 -140h-800zM258 900h800l-24 -140h-800z" />
    <glyph glyph-name="lessequal" unicode="&#x2264;" horiz-adv-x="1300" 
d="M223 135h900l-43 -135h-880zM1297 1119l-25 -140l-739 -293l-80 -16l74 -16l637 -291l-25 -140l-836 365l30 168z" />
    <glyph glyph-name="greaterequal" unicode="&#x2265;" horiz-adv-x="1300" 
d="M223 135h900l-43 -135h-880zM1235 756l-30 -168l-964 -365l25 140l739 291l80 16l-76 16l-635 293l25 140z" />
    <glyph glyph-name="propersubset" unicode="&#x2282;" horiz-adv-x="1500" 
d="M1420 0h-577q-171 0 -308.5 40.5t-234 122t-148.5 203.5t-52 284t52 284t148.5 203.5t234 122t308.5 40.5h577l-20 -154h-553q-131 0 -236 -29.5t-178.5 -90.5t-112.5 -155q-28 -65 -28 -221.5t28 -221.5q39 -94 112.5 -155t178.5 -90.5t236 -29.5h553z" />
    <glyph glyph-name="propersuperset" unicode="&#x2283;" horiz-adv-x="1500" 
d="M100 153h553q131 0 236 29.5t178.5 90.5t112.5 155q28 65 28 221.5t-28 221.5q-39 94 -112.5 155t-178.5 90.5t-236 29.5h-553l-20 154h577q171 0 308.5 -40.5t234 -122t148.5 -203.5t52 -284t-52 -284t-148.5 -203.5t-234 -122t-308.5 -40.5h-577z" />
    <glyph glyph-name="reflexsubset" unicode="&#x2286;" horiz-adv-x="1498" 
d="M200 155h1200l20 -154h-1220v154zM1420 300h-577q-171 0 -308.5 40.5t-234 122t-148.5 203.5t-52 234t52 234t148.5 203.5t234 122t308.5 40.5h577l-20 -154h-553q-131 0 -236 -29.5t-178.5 -90.5t-112.5 -155q-28 -65 -28 -171.5t28 -171.5q39 -94 112.5 -155
t178.5 -90.5t236 -29.5h553z" />
    <glyph glyph-name="reflexsuperset" unicode="&#x2287;" horiz-adv-x="1500" 
d="M1300 1h-1220l20 154h1200v-154zM100 453h553q131 0 236 29.5t178.5 90.5t112.5 155q28 65 28 171.5t-28 171.5q-39 94 -112.5 155t-178.5 90.5t-236 29.5h-553l-20 154h577q171 0 308.5 -40.5t234 -122t148.5 -203.5t52 -234t-52 -234t-148.5 -203.5t-234 -122
t-308.5 -40.5h-577z" />
    <glyph glyph-name="circleplus" unicode="&#x2295;" horiz-adv-x="1667" 
d="M83 750q0 106 27.5 204t77.5 183t120 155t155 120t183 77.5t204 27.5t204 -27.5t183 -77.5t155 -120t120 -155t77.5 -183t27.5 -204t-27.5 -204t-77.5 -183t-120 -155t-155 -120t-183 -77.5t-204 -27.5t-204 27.5t-183 77.5t-155 120t-120 155t-77.5 183t-27.5 204z
M236 675q13 -105 59 -198t117.5 -164.5t164.5 -117.5t198 -59v539h-539zM775 1362q-105 -13 -198 -59t-164.5 -117t-117.5 -163.5t-59 -197.5h539v537zM925 136q105 13 197.5 59t163.5 117.5t117 164.5t59 198h-537v-539zM1462 825q-13 105 -59 197.5t-117 163.5t-163.5 117
t-197.5 59v-537h537z" />
    <glyph glyph-name="circleminus" unicode="&#x2296;" horiz-adv-x="1667" 
d="M83 750q0 106 27.5 204t77.5 183t120 155t155 120t183 77.5t204 27.5t204 -27.5t183 -77.5t155 -120t120 -155t77.5 -183t27.5 -204t-27.5 -204t-77.5 -183t-120 -155t-155 -120t-183 -77.5t-204 -27.5t-204 27.5t-183 77.5t-155 120t-120 155t-77.5 183t-27.5 204z
M850 132q118 0 223 42t187 115t135 172t67 214h-1226q9 -77 36.5 -146.5t69 -130t96.5 -109.5t120.5 -84t139 -54t152.5 -19zM850 1367q-79 0 -152.5 -19t-139 -54t-120.5 -84t-96.5 -109t-69 -130t-36.5 -146h1226q-14 114 -67 213t-135 172t-187 115t-223 42z" />
    <glyph glyph-name="circlemultiply" unicode="&#x2297;" horiz-adv-x="1667" 
d="M83 750q0 106 27.5 204t77.5 183t120 155t155 120t183 77.5t204 27.5t204 -27.5t183 -77.5t155 -120t120 -155t77.5 -183t27.5 -204t-27.5 -204t-77.5 -183t-120 -155t-155 -120t-183 -77.5t-204 -27.5t-204 27.5t-183 77.5t-155 120t-120 155t-77.5 183t-27.5 204z
M232 750q0 -109 34.5 -205.5t96.5 -175.5l381 381l-381 380q-62 -79 -96.5 -175.5t-34.5 -204.5zM850 132q108 0 204.5 34.5t175.5 96.5l-380 381l-381 -381q79 -62 175.5 -96.5t205.5 -34.5zM850 1367q-109 0 -205 -34.5t-175 -96.5l380 -380l380 380q-79 62 -175.5 96.5
t-204.5 34.5zM1467 750q0 108 -34.5 204.5t-96.5 175.5l-380 -380l380 -380q62 79 96.5 175t34.5 205z" />
    <glyph glyph-name="circledivide" unicode="&#x2298;" horiz-adv-x="1667" 
d="M83 750q0 106 27.5 204t77.5 183t120 155t155 120t183 77.5t204 27.5t204 -27.5t183 -77.5t155 -120t120 -155t77.5 -183t27.5 -204t-27.5 -204t-77.5 -183t-120 -155t-155 -120t-183 -77.5t-204 -27.5t-204 27.5t-183 77.5t-155 120t-120 155t-77.5 183t-27.5 204z
M232 750q0 -109 34.5 -205.5t96.5 -175.5l867 867q-79 62 -175.5 96.5t-204.5 34.5q-128 0 -240.5 -48.5t-196.5 -132t-132.5 -196t-48.5 -240.5zM1467 750q0 108 -34.5 204.5t-96.5 175.5l-867 -867q79 -62 175.5 -96.5t205.5 -34.5q128 0 240.5 48.5t196 132.5t132 196.5
t48.5 240.5z" />
    <glyph glyph-name="perpendicular" unicode="&#x22a5;" horiz-adv-x="1400" 
d="M800 1300v-1150h500l-20 -150h-1185l20 150h485v1150h200z" />
    <glyph glyph-name="staroperator" unicode="&#x22c6;" horiz-adv-x="1100" 
d="M740 697l109 -337l-231 159l-68 66l-68 -66l-233 -159l108 337l-258 203h330l121 306l119 -306h330z" />
    <glyph glyph-name="verticalellipsis" unicode="&#x22ee;" horiz-adv-x="400" 
d="M112 150q0 34 17 66.5t44.5 56.5t62 36t69.5 6q34 -6 59.5 -21.5t43 -37.5t26 -49.5t7.5 -56.5q-1 -36 -17.5 -68t-43.5 -55.5t-61 -35.5t-70 -8q-68 8 -103 54.5t-34 112.5zM112 750q0 34 17 66.5t44.5 56.5t62 36t69.5 6q34 -6 59.5 -21.5t43 -37.5t26 -49.5t7.5 -56.5
q-1 -36 -17.5 -68t-43.5 -55.5t-61 -35.5t-70 -8q-68 8 -103 54.5t-34 112.5zM112 1350q0 34 17 66.5t44.5 56.5t62 36t69.5 6q34 -6 59.5 -21.5t43 -37.5t26 -49.5t7.5 -56.5q-1 -36 -17.5 -68t-43.5 -55.5t-61 -35.5t-70 -8q-68 8 -103 54.5t-34 112.5z" />
    <glyph glyph-name="house" unicode="&#x2302;" horiz-adv-x="1600" 
d="M1450 700l-50 100v-800h-1200v800l-49 -100h-51v185l100 43v272h200v-178l379 178l21 16l21 -16l679 -315v-185h-50zM1300 765l-500 235l-500 -235v-665h200v500h300v-500h500v665zM900 300v300h300v-300h-300zM700 100v400h-100v-400h100zM1000 400h100v100h-100v-100z
" />
    <glyph glyph-name="leftceiling" unicode="&#x2308;" horiz-adv-x="800" 
d="M300 0h-200v1500h600v-150h-400v-1350z" />
    <glyph glyph-name="rightceiling" unicode="&#x2309;" horiz-adv-x="800" 
d="M500 1350h-400v150h600v-1500h-200v1350z" />
    <glyph glyph-name="leftfloor" unicode="&#x230a;" horiz-adv-x="800" 
d="M300 150h400v-150h-600v1500h200v-1350z" />
    <glyph glyph-name="rightfloor" unicode="&#x230b;" horiz-adv-x="800" 
d="M500 1500h200v-1500h-600v150h400v1350z" />
    <glyph glyph-name="topleftcorner" unicode="&#x231c;" horiz-adv-x="1000" 
d="M300 750h-200v750h750v-150h-550v-600z" />
    <glyph glyph-name="toprightcorner" unicode="&#x231d;" horiz-adv-x="1000" 
d="M700 1350h-550v150h750v-750h-200v600z" />
    <glyph glyph-name="bottomleftcorner" unicode="&#x231e;" horiz-adv-x="1000" 
d="M300 150h550v-150h-750v750h200v-600z" />
    <glyph glyph-name="bottomrightcorner" unicode="&#x231f;" horiz-adv-x="1000" 
d="M700 750h200v-750h-750v150h550v600z" />
    <glyph glyph-name="blackrightpointingtriangle" unicode="&#x25b6;" horiz-adv-x="1000" 
d="M151 1135l749 -435l-749 -434l25 434z" />
    <glyph glyph-name="whiterightpointingtriangle" unicode="&#x25b7;" horiz-adv-x="1000" 
d="M151 266l25 434l-25 435l749 -435zM240 991l16 -291l-16 -290l501 290z" />
    <glyph glyph-name="blackrightpointingsmall" unicode="&#x25b8;" horiz-adv-x="900" 
d="M199 991l501 -291l-501 -290l17 290z" />
    <glyph glyph-name="whiterightpointingsmall" unicode="&#x25b9;" horiz-adv-x="900" 
d="M199 410l17 290l-17 291l501 -291zM287 847l9 -142v-10l-9 -141l253 146z" />
    <glyph glyph-name="blackdownpointingtriangle" unicode="&#x25bc;" horiz-adv-x="1300" 
d="M100 1100h1100l-550 -900z" />
    <glyph glyph-name="whitedownpointingtriangle" unicode="&#x25bd;" horiz-adv-x="1300" 
d="M650 410l330 570h-660zM100 1100h1100l-550 -900z" />
    <glyph glyph-name="blackdownpointingsmalltriangle" unicode="&#x25be;" horiz-adv-x="900" 
d="M66 1100h770l-385 -630z" />
    <glyph glyph-name="whitedownpointingsmalltriangle" unicode="&#x25bf;" horiz-adv-x="900" 
d="M451 617l231 399h-462zM66 1100h770l-385 -630z" />
    <glyph glyph-name="fisheye" unicode="&#x25c9;" horiz-adv-x="1000" 
d="M500 851q31 0 58 -12t47.5 -32.5t32.5 -47.5t12 -58t-12 -58.5t-32.5 -47.5t-47.5 -32t-58 -12t-58.5 12t-47.5 32t-32 47.5t-12 58.5t12 58t32 47.5t47.5 32.5t58.5 12zM84 701q0 86 32.5 162t89 132.5t132.5 89t162 32.5t162 -32.5t132.5 -89t89 -132.5t32.5 -162
t-32.5 -162t-89 -132.5t-132.5 -89t-162 -32.5t-162 32.5t-132.5 89t-89 132.5t-32.5 162zM200 701q0 -62 23.5 -117t64 -95.5t95.5 -64t117 -23.5t117 23.5t95.5 64t64 95.5t23.5 117t-23.5 117t-64 95.5t-95.5 64t-117 23.5t-117 -23.5t-95.5 -64t-64 -95.5t-23.5 -117z
" />
    <glyph glyph-name="bullseye" unicode="&#x25ce;" horiz-adv-x="1000" 
d="M500 821q-25 0 -46.5 -9.5t-38 -26t-26 -38t-9.5 -46.5t9.5 -46.5t26 -38t38 -26t46.5 -9.5t46.5 9.5t38 26t26 38t9.5 46.5t-9.5 46.5t-26 38t-38 26t-46.5 9.5zM84 701q0 86 32.5 162t89 132.5t132.5 89t162 32.5t162 -32.5t132.5 -89t89 -132.5t32.5 -162t-32.5 -162
t-89 -132.5t-132.5 -89t-162 -32.5t-162 32.5t-132.5 89t-89 132.5t-32.5 162zM200 701q0 -62 23.5 -117t64 -95.5t95.5 -64t117 -23.5t117 23.5t95.5 64t64 95.5t23.5 117t-23.5 117t-64 95.5t-95.5 64t-117 23.5t-117 -23.5t-95.5 -64t-64 -95.5t-23.5 -117zM300 701
q0 41 16 77.5t43 63.5t63.5 43t77.5 16t77.5 -16t63.5 -43t43 -63.5t16 -77.5t-16 -77.5t-43 -63.5t-63.5 -43t-77.5 -16t-77.5 16t-63.5 43t-43 63.5t-16 77.5z" />
    <glyph glyph-name="blackcircle" unicode="&#x25cf;" horiz-adv-x="1000" 
d="M84 701q0 86 32.5 162t89 132.5t132.5 89t162 32.5t162 -32.5t132.5 -89t89 -132.5t32.5 -162t-32.5 -162t-89 -132.5t-132.5 -89t-162 -32.5t-162 32.5t-132.5 89t-89 132.5t-32.5 162z" />
    <glyph glyph-name="circlewithlefthalfblack" unicode="&#x25d0;" horiz-adv-x="1000" 
d="M84 701q0 86 32.5 162t89 132.5t132.5 89t162 32.5t162 -32.5t132.5 -89t89 -132.5t32.5 -162t-32.5 -162t-89 -132.5t-132.5 -89t-162 -32.5t-162 32.5t-132.5 89t-89 132.5t-32.5 162zM800 701q0 62 -23.5 117t-64 95.5t-95.5 64t-117 23.5v-600q62 0 117 23.5t95.5 64
t64 95.5t23.5 117z" />
    <glyph glyph-name="circlewithrighthalfblack" unicode="&#x25d1;" horiz-adv-x="1000" 
d="M84 701q0 86 32.5 162t89 132.5t132.5 89t162 32.5t162 -32.5t132.5 -89t89 -132.5t32.5 -162t-32.5 -162t-89 -132.5t-132.5 -89t-162 -32.5t-162 32.5t-132.5 89t-89 132.5t-32.5 162zM200 701q0 -62 23.5 -117t64 -95.5t95.5 -64t117 -23.5v600q-62 0 -117 -23.5
t-95.5 -64t-64 -95.5t-23.5 -117z" />
    <glyph glyph-name="circlewithlowerhalfblack" unicode="&#x25d2;" horiz-adv-x="1000" 
d="M500 1117q86 0 162 -32.5t132.5 -89t89 -132.5t32.5 -162t-32.5 -162t-89 -132.5t-132.5 -89t-162 -32.5t-162 32.5t-132.5 89t-89 132.5t-32.5 162t32.5 162t89 132.5t132.5 89t162 32.5zM500 1001q-62 0 -117 -23.5t-95.5 -64t-64 -95.5t-23.5 -117h600q0 62 -23.5 117
t-64 95.5t-95.5 64t-117 23.5z" />
    <glyph glyph-name="circlewithupperhalfblack" unicode="&#x25d3;" horiz-adv-x="1000" 
d="M500 285q-86 0 -162 32.5t-132.5 89t-89 132.5t-32.5 162t32.5 162t89 132.5t132.5 89t162 32.5t162 -32.5t132.5 -89t89 -132.5t32.5 -162t-32.5 -162t-89 -132.5t-132.5 -89t-162 -32.5zM500 401q62 0 117 23.5t95.5 64t64 95.5t23.5 117h-600q0 -62 23.5 -117
t64 -95.5t95.5 -64t117 -23.5z" />
    <glyph glyph-name="day" unicode="&#x2600;" horiz-adv-x="1800" 
d="M1429 456q-5 -28 -12 -55t-17 -54l128 -102l-18 -39l-160 38q-46 -72 -111 -130l90 -189l-31 -21l-151 143q-24 -14 -49.5 -26.5t-52.5 -21.5l22 -246l-31 -7l-95 227q-22 -3 -44 -5t-45 -2h-12q-5 0 -11 1l-59 -155l-43 6l-14 164q-83 23 -157 65l-151 -143l-30 21
l89 189q-21 19 -41 39.5t-37 43.5l-226 -97l-17 27l187 160q-13 26 -23 52t-18 54l-165 7l-7 42l152 65q0 11 -0.5 21.5t-0.5 22.5q0 67 13 125l-182 100l11 35l206 -27q23 53 56 100l-162 185l21 25l210 -128q20 20 42 37.5t45 33.5l-44 160l38 19l108 -124q76 31 165 40
l38 205h38l38 -205q29 -3 57 -8.5t55 -13.5l125 212l30 -12l-56 -240q50 -26 94 -61l139 91l30 -30l-86 -141q28 -33 51 -69t40 -76l206 27l11 -35l-182 -100q5 -27 8.5 -55t4.5 -57l239 -55v-32z" />
    <glyph glyph-name="cloud" unicode="&#x2601;" horiz-adv-x="1800" 
d="M802 1101q136 0 232.5 -67.5t140.5 -196.5q24 9 51 13.5t54 4.5q50 0 98 -17.5t85.5 -48.5t60.5 -74.5t23 -95.5q0 -21 -3 -43q55 -24 98 -63q18 -17 36 -38t31.5 -48t22 -59t8.5 -70q0 -56 -16.5 -102.5t-44.5 -82.5t-65.5 -59.5t-80.5 -33.5q-51 -15 -111.5 -17.5
t-131.5 -2.5h-749q-79 0 -158 23.5t-142 69t-102 114t-39 158.5q0 57 18 107t51.5 92t81 75.5t106.5 57.5q0 91 37.5 166t99.5 127.5t142 81.5t166 29zM427 557q-75 -29 -120.5 -80.5t-45.5 -111.5q0 -51 23.5 -90.5t62.5 -66.5t89.5 -41.5t104.5 -14.5h749q78 0 132.5 6
t89 22t50 44t15.5 73q0 34 -15 60.5t-41 49.5t-62 44.5t-78 44.5q10 14 16.5 36t6.5 48t-10 49.5t-27.5 41.5t-41 28.5t-51.5 10.5q-18 0 -35.5 -4.5t-32 -12t-26 -16t-18.5 -17.5l-134 107q-53 172 -226 172q-62 0 -114.5 -18t-90 -51.5t-58.5 -81.5t-21 -108l31 -123h-122
z" />
    <glyph glyph-name="umbrella" unicode="&#x2602;" horiz-adv-x="1300" 
d="M785 90q31 0 52.5 21.5t21.5 52.5l108 -28q0 -29 -14 -56.5t-38.5 -49t-58 -34.5t-71.5 -13q-41 0 -75 13.5t-58.5 37.5t-38 57t-13.5 73v636q-151 0 -247 -5.5t-153 -12.5q-66 -8 -100 -18q0 59 23.5 114t63.5 103.5t94 89t115 69t126 44.5t128 16q62 0 127.5 -16
t126.5 -44.5t115 -69t94 -89t63.5 -103.5t23.5 -114q-34 10 -100 18q-57 7 -153 12.5t-247 5.5v-626q0 -23 7.5 -39t19.5 -26t27 -14.5t31 -4.5z" />
    <glyph glyph-name="snowman" unicode="&#x2603;" horiz-adv-x="1667" 
d="M800 749q0 -21 15 -36t36 -15t36 15t15 36t-15 36t-36 15t-36 -15t-15 -36zM800 349q0 -21 15 -36t36 -15t36 15t15 36t-15 36t-36 15t-36 -15t-15 -36zM600 1250q0 -21 14.5 -35.5t35.5 -14.5t35.5 14.5t14.5 35.5t-14.5 35.5t-35.5 14.5t-35.5 -14.5t-14.5 -35.5z
M900 1260q0 -3 7.5 -9.5t18.5 -13t24 -11.5t24 -5t18.5 6t7.5 23q0 21 -14.5 35.5t-35.5 14.5t-35.5 -9.5t-14.5 -30.5zM1232 783q20 -31 36 -85t27 -114.5t16.5 -118.5t5.5 -97q0 -107 -40.5 -180.5t-111 -119t-164.5 -65.5t-201 -20t-201 20t-164.5 65.5t-111 119
t-40.5 180.5q0 65 15.5 139t44 147t68.5 138.5t89 113.5q54 52 113 76q-26 21 -47 40.5t-35.5 42t-22.5 49.5t-8 63q0 62 23.5 123t64 109t95.5 78t117 30t117 -30t95.5 -78t64 -109t23.5 -123q0 -36 -8 -63t-22.5 -49.5t-35.5 -42t-47 -40.5q20 -8 45 -20.5t52 -30.5
t54.5 -41t51.5 -51l-17 123l142 245l122 -70zM800 549q0 -21 15 -36t36 -15t36 15t15 36t-15 36t-36 15t-36 -15t-15 -36zM777 1208q-7 -11 -7 -25q0 -13 6.5 -24.5t18.5 -18.5q7 -5 30.5 -15t52 -20.5t56 -18.5t44.5 -8q12 0 15 5q1 1 1 4q0 12 -20 33.5t-46 43.5t-50 40
t-33 23q-11 7 -25 7q-13 0 -24.5 -6.5t-18.5 -19.5z" />
    <glyph glyph-name="blackstar" unicode="&#x2605;" horiz-adv-x="1700" 
d="M1169 561l181 -561l-385 265l-113 110l-113 -110l-389 -265l180 561l-430 339h550l202 510l198 -510h550z" />
    <glyph glyph-name="phone" unicode="&#x260e;" horiz-adv-x="1100" 
d="M630 629q23 34 53.5 77.5t58.5 83t47 70t19 39.5q0 12 -23 28t-50.5 32.5t-50.5 33t-23 30.5q0 21 11.5 53.5t30.5 69.5t42 73.5t46.5 66.5t44 48.5t34.5 18.5q15 0 44 -20.5t58 -52.5t50.5 -70t21.5 -74q0 -55 -15.5 -129t-45 -157t-71.5 -171.5t-96 -172.5t-116 -160
t-125 -138t-123.5 -107.5t-110.5 -68.5q-13 -6 -28.5 -8.5t-32.5 -2.5q-33 0 -67.5 8t-64.5 20t-51 25.5t-26 24.5q-2 6 -2 12q0 17 11 45t28.5 60.5t40.5 66.5t46.5 63.5t46 51.5t40.5 30q4 2 8 2q14 0 36 -13t45.5 -28.5t44.5 -28.5t34 -13q5 0 7 1q8 3 26 33t42 72
t51.5 89.5t53.5 86.5z" />
    <glyph glyph-name="emptybox" unicode="&#x2610;" horiz-adv-x="1100" 
d="M1100 0h-1100v1100h1100v-1100zM165 165h770v770h-770v-770z" />
    <glyph glyph-name="boxwithacheck" unicode="&#x2611;" horiz-adv-x="1100" 
d="M580 400l10 200q30 85 69 165.5t82 153t88 135.5t87 114.5t78.5 89t62.5 59.5l131 -17q-45 -50 -97.5 -120.5t-105.5 -155.5t-103 -179.5t-91 -193.5t-68.5 -197.5t-35.5 -190.5l-222 17l-205 520l168 20zM165 165h770v389q25 99 66 200t99 196v-950h-1100v1100h703
q-15 -15 -32 -34.5t-33.5 -41t-32 -44.5t-25.5 -45h-415v-770z" />
    <glyph glyph-name="boxwithaX" unicode="&#x2612;" horiz-adv-x="1100" 
d="M1100 0h-1100v1100h1100v-1100zM165 165h770v770h-770v-770zM701 230l-131 170l-8 68l-157 -238h-179l222 328l-221 286l195 25l93 -136l13 -102l140 222l191 17l-204 -301l241 -339h-195z" />
    <glyph glyph-name="frowningface" unicode="&#x2639;" horiz-adv-x="1300" 
d="M750 600q-21 0 -35.5 14t-14.5 35v101q0 21 14.5 35.5t35.5 14.5t35.5 -14.5t14.5 -35.5v-101q0 -21 -14.5 -35t-35.5 -14zM550 600q-21 0 -35.5 14t-14.5 35v101q0 21 14.5 35.5t35.5 14.5t35.5 -14.5t14.5 -35.5v-101q0 -21 -14.5 -35t-35.5 -14zM83 550
q0 117 44.5 220.5t121.5 180.5t180.5 121.5t220.5 44.5t220.5 -44.5t180.5 -121.5t121.5 -180.5t44.5 -220.5t-44.5 -220.5t-121.5 -180.5t-180.5 -121.5t-220.5 -44.5t-220.5 44.5t-180.5 121.5t-121.5 180.5t-44.5 220.5zM200 550q0 -93 35.5 -175t96.5 -143t143 -96.5
t175 -35.5t175 35.5t143 96.5t96.5 143t35.5 175t-35.5 175t-96.5 143t-143 96.5t-175 35.5t-175 -35.5t-143 -96.5t-96.5 -143t-35.5 -175zM950 255q-28 40 -70 72q-36 27 -92.5 49.5t-137.5 22.5t-137.5 -22.5t-92.5 -49.5q-42 -32 -70 -72q0 54 26 99t68 77.5t96 50.5
t110 18t110 -18t96 -50.5t68 -77.5t26 -99z" />
    <glyph glyph-name="smileface" unicode="&#x263a;" horiz-adv-x="1300" 
d="M750 600q-21 0 -35.5 14t-14.5 35v101q0 21 14.5 35.5t35.5 14.5t35.5 -14.5t14.5 -35.5v-101q0 -21 -14.5 -35t-35.5 -14zM550 600q-21 0 -35.5 14t-14.5 35v101q0 21 14.5 35.5t35.5 14.5t35.5 -14.5t14.5 -35.5v-101q0 -21 -14.5 -35t-35.5 -14zM83 550
q0 117 44.5 220.5t121.5 180.5t180.5 121.5t220.5 44.5t220.5 -44.5t180.5 -121.5t121.5 -180.5t44.5 -220.5t-44.5 -220.5t-121.5 -180.5t-180.5 -121.5t-220.5 -44.5t-220.5 44.5t-180.5 121.5t-121.5 180.5t-44.5 220.5zM200 550q0 -93 35.5 -175t96.5 -143t143 -96.5
t175 -35.5t175 35.5t143 96.5t96.5 143t35.5 175t-35.5 175t-96.5 143t-143 96.5t-175 35.5t-175 -35.5t-143 -96.5t-96.5 -143t-35.5 -175zM950 544q0 -54 -26 -99t-68 -77.5t-96 -50.5t-110 -18t-110 18t-96 50.5t-68 77.5t-26 99q28 -40 70 -72q36 -27 92.5 -49.5
t137.5 -22.5t137.5 22.5t92.5 49.5q42 32 70 72z" />
    <glyph glyph-name="sun" unicode="&#x263c;" horiz-adv-x="1800" 
d="M1429 456q-5 -28 -12 -55t-17 -54l128 -102l-18 -39l-160 38q-46 -72 -111 -130l90 -189l-31 -21l-151 143q-24 -14 -49.5 -26.5t-52.5 -21.5l22 -246l-31 -7l-95 227q-22 -3 -44 -5t-45 -2h-12q-5 0 -11 1l-59 -155l-43 6l-14 164q-83 23 -157 65l-151 -143l-30 21
l89 189q-21 19 -41 39.5t-37 43.5l-226 -97l-17 27l187 160q-13 26 -23 52t-18 54l-165 7l-7 42l152 65q0 11 -0.5 21.5t-0.5 22.5q0 67 13 125l-182 100l11 35l206 -27q23 53 56 100l-162 185l21 25l210 -128q20 20 42 37.5t45 33.5l-44 160l38 19l108 -124q76 31 165 40
l38 205h38l38 -205q29 -3 57 -8.5t55 -13.5l125 212l30 -12l-56 -240q50 -26 94 -61l139 91l30 -30l-86 -141q28 -33 51 -69t40 -76l206 27l11 -35l-182 -100q5 -27 8.5 -55t4.5 -57l239 -55v-32zM1171 231q65 65 98.5 147t33.5 173t-33.5 172.5t-98.5 146.5q-64 64 -146 98
t-173 34t-173 -34t-146 -98q-65 -65 -98.5 -146.5t-33.5 -172.5t33.5 -173t98.5 -147q64 -64 146 -98t173 -34t173 34t146 98z" />
    <glyph glyph-name="night" unicode="&#x263e;" horiz-adv-x="1300" 
d="M1198 317q-34 -74 -87.5 -135.5t-121 -105.5t-147 -68.5t-166.5 -24.5q-119 0 -224 45.5t-183 123.5t-123.5 183t-45.5 224t45.5 224t123.5 183t183 123.5t224 45.5q70 0 135 -16t124 -46l-4 -22q-45 9 -91 9q-92 0 -173 -35t-141 -95t-95 -141t-35 -173t35 -173t95 -141
t141 -95t173 -35q103 0 191 42.5t149 115.5q0 -2 9 -7q4 -3 9 -6z" />
    <glyph glyph-name="spade" unicode="&#x2660;" horiz-adv-x="1400" 
d="M116 591q0 76 37.5 144.5t93.5 130.5t122 119t122 110.5t93.5 104t37.5 100.5h157q0 -50 37.5 -100.5t93.5 -104t121.5 -110.5t121.5 -119t93.5 -130.5t37.5 -144.5q0 -73 -23.5 -132t-65.5 -101t-101 -64.5t-130 -22.5l-201 170q0 -40 4 -80.5t17 -78t37.5 -69.5t64 -56
t97 -37.5t137.5 -13.5v-106h-840v106q120 0 190.5 29.5t107.5 77.5t47.5 108t10.5 120l-200 -170q-71 0 -130 22.5t-101 64.5t-65.5 101t-23.5 132z" />
    <glyph glyph-name="heartsuitwhite" unicode="&#x2661;" horiz-adv-x="1400" 
d="M130 700q-18 27 -34.5 56.5t-29.5 61t-21 65t-8 68.5q0 83 26.5 150t74.5 114.5t115 68.5t148 21q41 0 111.5 -23t147.5 -102l40 -158l40 158q77 78 148 101.5t112 23.5q81 0 148 -21t115 -68.5t74.5 -114.5t26.5 -150q0 -70 -28 -133.5t-66 -117.5l-570 -800zM700 50
l40 170l401 571q51 76 53.5 148t-13 110.5t-43 64.5t-60.5 39t-78 13q-60 0 -111.5 -34t-95 -125.5t-53.5 -126.5h-80q-10 35 -53.5 127.5t-95 127t-111.5 34.5q-45 0 -78 -13.5t-60 -40t-42.5 -65.5t-13 -111t53.5 -148l400 -571z" />
    <glyph glyph-name="diamondsuitwhite" unicode="&#x2662;" 
d="M1140 651l-540 -751l-542 749l542 751zM1044 650l-120 30l-294 448l-30 110l-30 -110l-295 -448l-120 -30l120 -30l294 -447l30 -110l30 110l295 447z" />
    <glyph glyph-name="club" unicode="&#x2663;" horiz-adv-x="1400" 
d="M763 441q0 -40 4 -80.5t17 -78t37.5 -69.5t64 -56t97 -37.5t137.5 -13.5v-106h-840v106q120 0 190.5 29.5t107.5 77.5t47.5 108t10.5 120l-199 -168q-71 1 -136 9.5t-115 38.5t-80 89t-30 160q0 59 22.5 110t57.5 89t79 60t88 22l277 -151q-75 75 -115.5 124.5t-59.5 81
t-22 47t-3 23.5q0 37 3.5 75.5t14 74.5t30.5 67.5t53.5 55.5t82 37.5t116.5 13.5q102 0 161.5 -30t90.5 -77t39.5 -105t8.5 -113q0 -7 -3 -23t-22 -47t-59.5 -80.5t-115.5 -124.5l277 151q41 0 85 -21.5t80 -59t59.5 -89t23.5 -111.5q0 -101 -29.5 -160t-79.5 -89.5
t-115 -39t-136 -8.5z" />
    <glyph glyph-name="flag1" unicode="&#x2690;" horiz-adv-x="1000" 
d="M900 1100v-559q-24 -29 -77.5 -50.5t-122.5 -21.5q-23 0 -46.5 2.5t-48 9.5t-50.5 20t-55 34q-43 31 -78 58t-65.5 46t-59 30t-58.5 11q-19 0 -39 -7v-673l-100 -20v1060l-18 235q1 0 5 2q9 3 26 9t39.5 11t50 9t59.5 4t67.5 -5.5t72 -19t73.5 -36.5t73 -58
q57 -56 105 -79t88 -23q26 0 48.5 9t42.5 23zM800 1000q-35 -11 -67 -11q-59 0 -117 29.5t-116 81.5q-34 30 -64 51t-57.5 33.5t-54 18t-52.5 5.5q-32 0 -72 -8l15 -300l-15 -100q48 0 90.5 -11.5t80 -30t69.5 -42t60 -48.5q64 -57 112 -80.5t88 -23.5q32 0 59 11t41 25v400
z" />
    <glyph glyph-name="flag2" unicode="&#x2691;" horiz-adv-x="1000" 
d="M900 1100v-559q-24 -29 -77.5 -50.5t-122.5 -21.5q-23 0 -46.5 2.5t-48 9.5t-50.5 20t-55 34q-43 31 -78 58t-65.5 46t-59 30t-58.5 11q-19 0 -39 -7v-673l-100 -20v1060l-18 235q1 0 5 2q9 3 26 9t39.5 11t50 9t59.5 4t67.5 -5.5t72 -19t73.5 -36.5t73 -58
q57 -56 105 -79t88 -23q26 0 48.5 9t42.5 23z" />
    <glyph glyph-name="warning" unicode="&#x26a0;" horiz-adv-x="1900" 
d="M1774 261q35 -60 35 -115q0 -65 -49 -105.5t-137 -40.5h-1347q-88 0 -136 40t-48 105q0 26 8.5 55.5t26.5 60.5l674 1149q31 54 69.5 80.5t80.5 26.5q39 0 79 -27t71 -80zM1703 123l-752 1286l-747 -1286h1499zM1026 1100v-527l-150 -13v540h150zM864 351q0 18 7 33.5
t18.5 27t27 19t33.5 7.5q19 0 34 -7.5t27 -19t19 -27t7 -33.5t-7 -34t-18.5 -27.5t-27 -19t-33.5 -7.5t-34 7.5t-27.5 19t-18.5 27.5t-7 34z" />
    <glyph glyph-name="highvoltage" unicode="&#x26a1;" horiz-adv-x="1000" 
d="M600 1500h100l-260 -600l-40 -36l53 8l447 28l-500 -900h-100l260 600l40 34l-52 -10l-448 -24z" />
    <glyph glyph-name="plane" unicode="&#x2708;" horiz-adv-x="1800" 
d="M696 -20l92 451l25 211h-213q-75 0 -132.5 4.5t-96.5 10.5q-46 7 -78 16l-153 -216l-63 -4l32 252l-79 36v18l79 36l-32 252l63 -4l153 -216q32 8 78 15q39 6 96.5 11t132.5 5h213l-25 211l-92 451l99 -20l345 -647l400 -15q22 -1 50 -6.5t52.5 -16.5t41 -27t16.5 -38
t-16.5 -38t-41 -27t-52.5 -16.5t-50 -6.5l-400 -15l-345 -647z" />
    <glyph glyph-name="mail" unicode="&#x2709;" horiz-adv-x="1400" 
d="M1300 0h-1200v900h1200v-900zM1141 800h-881l384 -301l56 -99l58 101zM182 766l32 -118v-348l-32 -138l296 338zM1171 100l-284 274l-26 74l-82 -73l-78 -110l-77 107l-85 76l-25 -73l-283 -275h940zM1218 161l-32 139v348l32 118l-297 -266z" />
    <glyph glyph-name="checkmark" unicode="&#x2713;" horiz-adv-x="1100" 
d="M580 400l10 200q30 85 69 165.5t82 153t88 135.5t87 114.5t78.5 89t62.5 59.5l131 -17q-45 -50 -97.5 -120.5t-105.5 -155.5t-103 -179.5t-91 -193.5t-68.5 -197.5t-35.5 -190.5l-222 17l-205 520l168 20z" />
    <glyph glyph-name="whitecircledone" unicode="&#x2780;" horiz-adv-x="1700" 
d="M83 750q0 106 27.5 204t77.5 183t120 155t155 120t183 77.5t204 27.5t204 -27.5t183 -77.5t155 -120t120 -155t77.5 -183t27.5 -204t-27.5 -204t-77.5 -183t-120 -155t-155 -120t-183 -77.5t-204 -27.5t-204 27.5t-183 77.5t-155 120t-120 155t-77.5 183t-27.5 204z
M201 750q0 -134 51 -252.5t139 -206.5t206.5 -139t252.5 -51q89 0 172 23t155 65.5t131 102t101.5 131.5t65.5 154.5t23 172.5q0 134 -51 252t-139 206t-206 139t-252 51q-90 0 -172.5 -23t-154.5 -65.5t-131.5 -101.5t-102 -131t-65.5 -155t-23 -172zM655 300l17 96h147
l102 580l59 136l-102 -112l-147 -113l-52 73l320 252l81 -12l-141 -804h147l-17 -96h-414z" />
    <glyph glyph-name="whitecircledtwo" unicode="&#x2781;" horiz-adv-x="1700" 
d="M83 750q0 106 27.5 204t77.5 183t120 155t155 120t183 77.5t204 27.5t204 -27.5t183 -77.5t155 -120t120 -155t77.5 -183t27.5 -204t-27.5 -204t-77.5 -183t-120 -155t-155 -120t-183 -77.5t-204 -27.5t-204 27.5t-183 77.5t-155 120t-120 155t-77.5 183t-27.5 204z
M201 750q0 -134 51 -252.5t139 -206.5t206.5 -139t252.5 -51q89 0 172 23t155 65.5t131 102t101.5 131.5t65.5 154.5t23 172.5q0 134 -51 252t-139 206t-206 139t-252 51q-90 0 -172.5 -23t-154.5 -65.5t-131.5 -101.5t-102 -131t-65.5 -155t-23 -172zM533 300l18 101
q36 54 77.5 101t83 87t81 73t71.5 59q40 34 76 63.5t63 59t42.5 60t15.5 65.5q-1 55 -30 91.5t-93 48.5q-34 6 -63 -1.5t-53 -24.5t-42.5 -39.5t-33.5 -47.5l-78 36q21 45 51.5 80t68 57.5t82.5 33.5t95 7q57 -3 98 -26t67 -58t37.5 -77.5t8.5 -86.5q-2 -46 -24.5 -88
t-55 -79.5t-70.5 -70t-71 -61.5q-37 -32 -74.5 -64.5t-72 -65.5t-64.5 -67t-54 -70h402l-16 -96h-543z" />
    <glyph glyph-name="whitecircledthree" unicode="&#x2782;" horiz-adv-x="1700" 
d="M83 750q0 106 27.5 204t77.5 183t120 155t155 120t183 77.5t204 27.5t204 -27.5t183 -77.5t155 -120t120 -155t77.5 -183t27.5 -204t-27.5 -204t-77.5 -183t-120 -155t-155 -120t-183 -77.5t-204 -27.5t-204 27.5t-183 77.5t-155 120t-120 155t-77.5 183t-27.5 204z
M201 750q0 -134 51 -252.5t139 -206.5t206.5 -139t252.5 -51q89 0 172 23t155 65.5t131 102t101.5 131.5t65.5 154.5t23 172.5q0 134 -51 252t-139 206t-206 139t-252 51q-90 0 -172.5 -23t-154.5 -65.5t-131.5 -101.5t-102 -131t-65.5 -155t-23 -172zM706 1104l25 96h438
l-15 -84q-11 -24 -32.5 -50t-49.5 -52.5t-60 -52.5t-63 -50l-87 -44q6 1 15.5 1t17.5 1q44 2 87 -14.5t76.5 -48t52 -76t11.5 -98.5q-8 -63 -34.5 -112t-68.5 -86t-95 -62.5t-114 -41.5t-126 -23t-129 -7l17 96q47 1 96.5 6t96.5 15.5t89 28t73.5 43t51 59.5t22.5 78
q2 38 -12.5 67t-42.5 47.5t-67.5 27t-86.5 6.5q-19 -1 -42 -1.5t-41 -1.5l16 93q28 18 61 41t66.5 47.5t66.5 50t59.5 49t45.5 43.5t27 33l-96 -24h-249z" />
    <glyph glyph-name="whitecircledfour" unicode="&#x2783;" horiz-adv-x="1700" 
d="M83 750q0 106 27.5 204t77.5 183t120 155t155 120t183 77.5t204 27.5t204 -27.5t183 -77.5t155 -120t120 -155t77.5 -183t27.5 -204t-27.5 -204t-77.5 -183t-120 -155t-155 -120t-183 -77.5t-204 -27.5t-204 27.5t-183 77.5t-155 120t-120 155t-77.5 183t-27.5 204z
M201 750q0 -134 51 -252.5t139 -206.5t206.5 -139t252.5 -51q89 0 172 23t155 65.5t131 102t101.5 131.5t65.5 154.5t23 172.5q0 134 -51 252t-139 206t-206 139t-252 51q-90 0 -172.5 -23t-154.5 -65.5t-131.5 -101.5t-102 -131t-65.5 -155t-23 -172zM1109 480h-108
l-31 -180h-120l31 180h-357l19 103l401 629l111 -12l-344 -540l-70 -84h258l42 244l118 -10l-40 -234h117z" />
    <glyph glyph-name="whitecircledfive" unicode="&#x2784;" horiz-adv-x="1700" 
d="M83 750q0 106 27.5 204t77.5 183t120 155t155 120t183 77.5t204 27.5t204 -27.5t183 -77.5t155 -120t120 -155t77.5 -183t27.5 -204t-27.5 -204t-77.5 -183t-120 -155t-155 -120t-183 -77.5t-204 -27.5t-204 27.5t-183 77.5t-155 120t-120 155t-77.5 183t-27.5 204z
M201 750q0 -134 51 -252.5t139 -206.5t206.5 -139t252.5 -51q89 0 172 23t155 65.5t131 102t101.5 131.5t65.5 154.5t23 172.5q0 134 -51 252t-139 206t-206 139t-252 51q-90 0 -172.5 -23t-154.5 -65.5t-131.5 -101.5t-102 -131t-65.5 -155t-23 -172zM778 889q4 3 15 8
t25.5 10.5t31 9.5t32.5 4q65 0 111 -19t75 -53t41 -79.5t9 -98.5q-4 -66 -28.5 -119t-64.5 -94.5t-93 -71t-114 -48.5t-128 -28.5t-135 -9.5l17 96q86 0 161.5 19t133 54t92.5 83.5t39 106.5q3 31 -6.5 60t-28.5 51.5t-47 36t-63 13.5q-49 0 -83 -10.5t-62 -29.5h-68l73 420
h446l-17 -96h-327z" />
    <glyph glyph-name="whitecircledsix" unicode="&#x2785;" horiz-adv-x="1700" 
d="M83 750q0 106 27.5 204t77.5 183t120 155t155 120t183 77.5t204 27.5t204 -27.5t183 -77.5t155 -120t120 -155t77.5 -183t27.5 -204t-27.5 -204t-77.5 -183t-120 -155t-155 -120t-183 -77.5t-204 -27.5t-204 27.5t-183 77.5t-155 120t-120 155t-77.5 183t-27.5 204z
M201 750q0 -134 51 -252.5t139 -206.5t206.5 -139t252.5 -51q89 0 172 23t155 65.5t131 102t101.5 131.5t65.5 154.5t23 172.5q0 134 -51 252t-139 206t-206 139t-252 51q-90 0 -172.5 -23t-154.5 -65.5t-131.5 -101.5t-102 -131t-65.5 -155t-23 -172zM1111 1106q-4 2 -12 2
h-14q-53 0 -99.5 -13.5t-87 -38t-74 -58.5t-61 -75.5t-48 -88t-34.5 -96.5l62 70q17 10 38.5 19t45 16t47 11t43.5 2q52 -3 93.5 -17.5t70.5 -43.5t44 -75t13 -112q-1 -44 -14.5 -85.5t-36.5 -78.5t-55 -67t-70.5 -50.5t-83 -30.5t-92.5 -6q-54 4 -92.5 24.5t-65 51.5
t-42.5 70t-24 80t-9 81.5t2 74.5q6 72 29 140t59.5 127.5t86 109.5t108.5 85.5t127.5 55.5t142.5 20h20q11 0 16 -2zM672 658q-3 -17 -5 -30.5t-3 -27t-1 -27t2 -29.5q1 -27 11 -52t27 -46t42.5 -35t59.5 -19q41 -6 78 7t65.5 40.5t46.5 69t23 93.5q5 63 -28 104.5
t-100 47.5q-68 7 -123 -17t-95 -79z" />
    <glyph glyph-name="whitecircledseven" unicode="&#x2786;" horiz-adv-x="1700" 
d="M83 750q0 106 27.5 204t77.5 183t120 155t155 120t183 77.5t204 27.5t204 -27.5t183 -77.5t155 -120t120 -155t77.5 -183t27.5 -204t-27.5 -204t-77.5 -183t-120 -155t-155 -120t-183 -77.5t-204 -27.5t-204 27.5t-183 77.5t-155 120t-120 155t-77.5 183t-27.5 204z
M201 750q0 -134 51 -252.5t139 -206.5t206.5 -139t252.5 -51q89 0 172 23t155 65.5t131 102t101.5 131.5t65.5 154.5t23 172.5q0 134 -51 252t-139 206t-206 139t-252 51q-90 0 -172.5 -23t-154.5 -65.5t-131.5 -101.5t-102 -131t-65.5 -155t-23 -172zM642 1200h536l-14 -78
q-4 -25 -30.5 -62.5t-64.5 -84.5t-84 -102.5t-88.5 -117t-78 -126.5t-53.5 -132q-6 -24 -12.5 -50.5t-12 -52t-10 -50t-7.5 -44.5h-119q3 18 9 48t13.5 63.5t16 66.5t16.5 57q21 66 54.5 128.5t72.5 120t79.5 107.5t75.5 91.5t60 72.5t32 49h-407z" />
    <glyph glyph-name="whitecircledeight" unicode="&#x2787;" horiz-adv-x="1700" 
d="M83 750q0 106 27.5 204t77.5 183t120 155t155 120t183 77.5t204 27.5t204 -27.5t183 -77.5t155 -120t120 -155t77.5 -183t27.5 -204t-27.5 -204t-77.5 -183t-120 -155t-155 -120t-183 -77.5t-204 -27.5t-204 27.5t-183 77.5t-155 120t-120 155t-77.5 183t-27.5 204z
M201 750q0 -134 51 -252.5t139 -206.5t206.5 -139t252.5 -51q89 0 172 23t155 65.5t131 102t101.5 131.5t65.5 154.5t23 172.5q0 134 -51 252t-139 206t-206 139t-252 51q-90 0 -172.5 -23t-154.5 -65.5t-131.5 -101.5t-102 -131t-65.5 -155t-23 -172zM943 1210
q52 -2 93 -17t68.5 -42.5t40.5 -67t8 -90.5q-4 -36 -18 -64t-35.5 -49.5t-48.5 -39t-55 -32.5q40 -20 68 -45.5t45 -57.5t22.5 -71.5t0.5 -87.5q-4 -45 -20 -82.5t-42 -67t-59 -51t-70.5 -35t-77.5 -18.5t-79 -2q-56 4 -103 21.5t-79.5 50t-48 80.5t-9.5 112q4 49 23 88
t49 70t67.5 55t79.5 43q-25 17 -44 36t-31.5 40.5t-18 46t-3.5 53.5q4 59 30 102.5t65 71t86.5 40t95.5 10.5zM856 756q-40 -16 -76 -35.5t-63 -44t-43.5 -56t-18.5 -72.5q-2 -37 8 -65t29.5 -48t47.5 -31.5t62 -15.5q38 -5 76 5t69.5 31.5t51.5 53t21 71.5q1 41 -11.5 72.5
t-35 56.5t-53 43.5t-64.5 34.5zM898 854q30 12 56.5 26.5t46 32t31.5 39t12 46.5q1 30 -8 51t-24.5 34t-35 19.5t-39.5 8.5q-28 3 -56 -4.5t-51 -23.5t-37.5 -37.5t-14.5 -45.5q0 -28 8.5 -49.5t24 -38.5t38 -31t49.5 -27z" />
    <glyph glyph-name="whitecirclednine" unicode="&#x2788;" horiz-adv-x="1700" 
d="M83 750q0 106 27.5 204t77.5 183t120 155t155 120t183 77.5t204 27.5t204 -27.5t183 -77.5t155 -120t120 -155t77.5 -183t27.5 -204t-27.5 -204t-77.5 -183t-120 -155t-155 -120t-183 -77.5t-204 -27.5t-204 27.5t-183 77.5t-155 120t-120 155t-77.5 183t-27.5 204z
M201 750q0 -134 51 -252.5t139 -206.5t206.5 -139t252.5 -51q89 0 172 23t155 65.5t131 102t101.5 131.5t65.5 154.5t23 172.5q0 134 -51 252t-139 206t-206 139t-252 51q-90 0 -172.5 -23t-154.5 -65.5t-131.5 -101.5t-102 -131t-65.5 -155t-23 -172zM999 698
q-19 -14 -38 -24t-38 -17t-39 -10.5t-42 -2.5q-53 1 -95.5 19.5t-73 53t-46.5 85.5t-14 117t30 123t75 96.5t108 59.5t129 12q59 -6 99.5 -27t67 -51t40.5 -67.5t19.5 -77.5t5 -81t-2.5 -78q-6 -71 -29 -138.5t-61 -127.5t-88 -110t-109 -86t-125.5 -56t-135.5 -20l-1 100
q75 2 145.5 29t128 76.5t97.5 118.5t54 154zM1071 872q2 44 -2 85t-18.5 73t-41.5 53t-70 25t-79 -8.5t-63.5 -37.5t-44.5 -59.5t-21 -73.5t1 -71t20.5 -55.5t42.5 -38t68 -18.5q31 -4 62.5 4t59 25.5t50 42t36.5 54.5z" />
    <glyph glyph-name="whitecircledzero" unicode="&#x2789;" horiz-adv-x="1700" 
d="M83 750q0 106 27.5 204t77.5 183t120 155t155 120t183 77.5t204 27.5t204 -27.5t183 -77.5t155 -120t120 -155t77.5 -183t27.5 -204t-27.5 -204t-77.5 -183t-120 -155t-155 -120t-183 -77.5t-204 -27.5t-204 27.5t-183 77.5t-155 120t-120 155t-77.5 183t-27.5 204z
M201 750q0 -134 51 -252.5t139 -206.5t206.5 -139t252.5 -51q89 0 172 23t155 65.5t131 102t101.5 131.5t65.5 154.5t23 172.5q0 134 -51 252t-139 206t-206 139t-252 51q-90 0 -172.5 -23t-154.5 -65.5t-131.5 -101.5t-102 -131t-65.5 -155t-23 -172zM773 290q-51 6 -88 28
t-63 55.5t-42 76.5t-23.5 92t-8 102t4.5 106q5 55 20 112t39 109.5t57 99t74 79.5t89 49.5t103 10.5q50 -5 87.5 -26.5t64 -55t42.5 -77.5t24.5 -93.5t8.5 -102.5t-6 -105q-7 -55 -23 -112t-41 -110.5t-58 -99.5t-73.5 -79t-87.5 -49.5t-100 -9.5zM677 776q-5 -35 -9 -75.5
t-4.5 -81.5t5 -79.5t20.5 -69.5t40.5 -51t66.5 -24q35 -4 65.5 8.5t55.5 36.5t45 57.5t34.5 71.5t23 77.5t11.5 77.5q3 35 6 76t3 82t-5 79.5t-19 69t-39 50t-65 24.5q-37 3 -67 -9t-54 -36t-43.5 -57.5t-33 -71.5t-23 -77.5t-14.5 -77.5z" />
    <glyph glyph-name="blackcircledone" unicode="&#x278a;" horiz-adv-x="1700" 
d="M83 750q0 106 27.5 204t77.5 183t120 155t155 120t183 77.5t204 27.5t204 -27.5t183 -77.5t155 -120t120 -155t77.5 -183t27.5 -204t-27.5 -204t-77.5 -183t-120 -155t-155 -120t-183 -77.5t-204 -27.5t-204 27.5t-183 77.5t-155 120t-120 155t-77.5 183t-27.5 204z
M1022 300l17 96h-147l141 804l-81 12l-320 -252l52 -73l147 113l102 112l-59 -136l-102 -580h-147l-17 -96h414z" />
    <glyph glyph-name="blackcircledtwo" unicode="&#x278b;" horiz-adv-x="1700" 
d="M83 750q0 106 27.5 204t77.5 183t120 155t155 120t183 77.5t204 27.5t204 -27.5t183 -77.5t155 -120t120 -155t77.5 -183t27.5 -204t-27.5 -204t-77.5 -183t-120 -155t-155 -120t-183 -77.5t-204 -27.5t-204 27.5t-183 77.5t-155 120t-120 155t-77.5 183t-27.5 204z
M1057 300l16 96h-402q24 36 54 70t64.5 67t72 65.5t74.5 64.5q33 29 71 61.5t70.5 70t55 79.5t24.5 88q3 44 -8.5 86.5t-37.5 77.5t-67 58t-98 26q-50 4 -95 -7t-82.5 -33.5t-68 -57.5t-51.5 -80l78 -36q15 25 33.5 47.5t42.5 39.5t53 24.5t63 1.5q64 -12 93 -48.5t30 -91.5
q0 -35 -15.5 -65.5t-42.5 -60t-63 -59t-76 -63.5q-32 -26 -71.5 -59t-81 -73t-83 -87t-77.5 -101l-18 -101h543z" />
    <glyph glyph-name="blackcircledthree" unicode="&#x278c;" horiz-adv-x="1700" 
d="M83 750q0 106 27.5 204t77.5 183t120 155t155 120t183 77.5t204 27.5t204 -27.5t183 -77.5t155 -120t120 -155t77.5 -183t27.5 -204t-27.5 -204t-77.5 -183t-120 -155t-155 -120t-183 -77.5t-204 -27.5t-204 27.5t-183 77.5t-155 120t-120 155t-77.5 183t-27.5 204z
M975 1104l96 24q-8 -13 -27 -33t-45.5 -43.5t-59.5 -49t-66.5 -50t-66.5 -47.5t-61 -41l-16 -93q18 1 41 1.5t42 1.5q47 2 86.5 -6.5t67.5 -27t42.5 -47.5t12.5 -67q-3 -44 -22.5 -78t-51 -59.5t-73.5 -43t-89 -28t-96.5 -15.5t-96.5 -6l-17 -96q64 0 129 7t126 23t114 41.5
t95 62.5t68.5 86t34.5 112q7 54 -11.5 98.5t-52 76t-76.5 48t-87 14.5q-8 -1 -17.5 -1t-15.5 -1l87 44q31 24 63 50t60 52.5t49.5 52.5t32.5 50l15 84h-438l-25 -96h249z" />
    <glyph glyph-name="blackcircledfour" unicode="&#x278d;" horiz-adv-x="1700" 
d="M83 750q0 106 27.5 204t77.5 183t120 155t155 120t183 77.5t204 27.5t204 -27.5t183 -77.5t155 -120t120 -155t77.5 -183t27.5 -204t-27.5 -204t-77.5 -183t-120 -155t-155 -120t-183 -77.5t-204 -27.5t-204 27.5t-183 77.5t-155 120t-120 155t-77.5 183t-27.5 204z
M1114 576h-117l40 234l-118 10l-42 -244h-258l70 84l344 540l-111 12l-401 -629l-19 -103h357l-31 -180h120l31 180h108z" />
    <glyph glyph-name="blackcircledfive" unicode="&#x278e;" horiz-adv-x="1700" 
d="M83 750q0 106 27.5 204t77.5 183t120 155t155 120t183 77.5t204 27.5t204 -27.5t183 -77.5t155 -120t120 -155t77.5 -183t27.5 -204t-27.5 -204t-77.5 -183t-120 -155t-155 -120t-183 -77.5t-204 -27.5t-204 27.5t-183 77.5t-155 120t-120 155t-77.5 183t-27.5 204z
M817 1104h327l17 96h-446l-73 -420h68q28 19 62 29.5t83 10.5q35 0 63 -13.5t47 -36t28.5 -51.5t6.5 -60q-4 -58 -39 -106.5t-92.5 -83.5t-133 -54t-161.5 -19l-17 -96q68 0 135 9.5t128 28.5t114 48.5t93 71t64.5 94.5t28.5 119q3 53 -9 98.5t-41 79.5t-75 53t-111 19
q-16 0 -32.5 -4t-31 -9.5t-25.5 -10.5t-15 -8z" />
    <glyph glyph-name="blackcircledsix" unicode="&#x278f;" horiz-adv-x="1700" 
d="M83 750q0 106 27.5 204t77.5 183t120 155t155 120t183 77.5t204 27.5t204 -27.5t183 -77.5t155 -120t120 -155t77.5 -183t27.5 -204t-27.5 -204t-77.5 -183t-120 -155t-155 -120t-183 -77.5t-204 -27.5t-204 27.5t-183 77.5t-155 120t-120 155t-77.5 183t-27.5 204z
M1108 1208q-5 2 -16 2h-20q-74 0 -142.5 -20t-127.5 -55.5t-108.5 -85.5t-86 -109.5t-59.5 -127.5t-29 -140q-3 -34 -2 -74.5t9 -81.5t24 -80t42.5 -70t65 -51.5t92.5 -24.5q48 -4 92.5 6t83 30.5t70.5 50.5t55 67t36.5 78.5t14.5 85.5q2 66 -13 112t-44 75t-70.5 43.5
t-93.5 17.5q-20 2 -43.5 -2t-47 -11t-45 -16t-38.5 -19l-62 -70q14 50 34.5 96.5t48 88t61 75.5t74 58.5t87 38t99.5 13.5h14q8 0 12 -2zM636 658q40 55 95 79t123 17q67 -6 100 -47.5t28 -104.5q-5 -52 -23 -93.5t-46.5 -69t-65.5 -40.5t-78 -7q-34 5 -59.5 19t-42.5 35
t-27 46t-11 52q-2 16 -2 29.5t1 27t3 27t5 30.5z" />
    <glyph glyph-name="blackcircledseven" unicode="&#x2790;" horiz-adv-x="1700" 
d="M83 750q0 106 27.5 204t77.5 183t120 155t155 120t183 77.5t204 27.5t204 -27.5t183 -77.5t155 -120t120 -155t77.5 -183t27.5 -204t-27.5 -204t-77.5 -183t-120 -155t-155 -120t-183 -77.5t-204 -27.5t-204 27.5t-183 77.5t-155 120t-120 155t-77.5 183t-27.5 204z
M676 1104h407q-7 -18 -32 -49t-60 -72.5t-75.5 -91.5t-79.5 -107.5t-72.5 -120t-54.5 -128.5q-8 -24 -16.5 -57t-16 -66.5t-13.5 -63.5t-9 -48h119q3 20 7.5 44.5t10 50t12 52t12.5 50.5q18 67 53.5 132t78 126.5t88.5 117t84 102.5t64.5 84.5t30.5 62.5l14 78h-536z" />
    </font>
</defs>
</svg>
