<?xml version="1.0" standalone="no"?>
<!DOCTYPE svg PUBLIC "-//W3C//DTD SVG 1.1//EN" "http://www.w3.org/Graphics/SVG/1.1/DTD/svg11.dtd" >
<svg xmlns="http://www.w3.org/2000/svg" xmlns:xlink="http://www.w3.org/1999/xlink" version="1.1">
<metadata>
Created by FontForge 20170731 at Fri May  5 14:19:05 2017
 By Aleksey,,,
Copyright 2014 The Yatra Project Authors.
</metadata>
<defs>
<font id="YatraOne-Regular" horiz-adv-x="0" >
  <font-face 
    font-family="Yatra One"
    font-weight="400"
    font-stretch="normal"
    units-per-em="1000"
    panose-1="2 0 0 0 0 0 0 0 0 0"
    ascent="800"
    descent="-200"
    x-height="477"
    cap-height="666"
    bbox="-559 -481.255 2258 989.089"
    underline-thickness="50"
    underline-position="-200"
    unicode-range="U+000D-FB04"
  />
<missing-glyph horiz-adv-x="756" 
d="M241 625v-549h275v549h-275zM160 0v701h436v-701h-436z" />
    <glyph glyph-name="ff" unicode="ff" horiz-adv-x="728" 
d="M461 478v87q0 5 1 7q-65 23 -108.5 25.5t-65.5 -14.5t-30.5 -42t-9.5 -63h213zM786 625l-22 -27q-51 28 -85.5 29.5t-56 -23.5t-30.5 -56.5t-10 -69.5h102l30 -70h-132l5 -437l-125 28q-1 177 -1 409h-213l5 -437l-125 28q-1 177 -1 409h-74l-30 70h104v87
q0 29 37.5 61.5t87.5 48t83 2.5q15 -6 68.5 -31t76.5 -35q35 47 97.5 80t97.5 13q60 -33 111 -79z" />
    <glyph glyph-name="fi" unicode="fi" horiz-adv-x="631" 
d="M66 408l-30 70h104v87q0 30 39.5 70.5t92 63t82.5 5.5q81 -47 120 -79q12 15 31.5 29.5t31.5 17.5q51 -23 75 -71q-17 -43 -74 -72q-51 24 -76 73q-53 18 -91.5 19.5t-59 -8t-32 -34t-14.5 -46t-4 -55.5h222v-1l123 -27v-479l-125 28v409h-220l5 -437l-125 28
q-1 177 -1 409h-74z" />
    <glyph glyph-name="fl" unicode="fl" horiz-adv-x="700" 
d="M95 408l-30 70h104v87q0 45 76.5 97.5t132.5 47.5q29 -3 142 -31l125 -28v-680l-125 28v633q-48 11 -86 11.5t-62 -10t-41 -25.5t-25.5 -38.5t-11.5 -44.5t-4 -47h102l30 -70h-132l5 -437l-125 28q-1 177 -1 409h-74z" />
    <glyph glyph-name="ffi" unicode="ffi" horiz-adv-x="929" 
d="M438 478v87q0 4 2 14q-47 15 -81.5 17.5t-55 -5t-33 -25.5t-17 -38.5t-5.5 -49.5h190zM781 478v-1l123 -27v-479l-125 28v409h-220l5 -437l-125 28q-1 177 -1 409h-190l5 -437l-125 28q-1 177 -1 409h-74l-30 70h104v87q0 29 37.5 61.5t87.5 48t83 2.5q14 -6 61.5 -28
t66.5 -31q38 46 96.5 75.5t92.5 10.5q81 -47 120 -79q12 15 31.5 29.5t31.5 17.5q51 -23 75 -71q-17 -43 -74 -72q-51 24 -76 73q-53 18 -91.5 19.5t-59 -8t-32 -34t-14.5 -46t-4 -55.5h222z" />
    <glyph glyph-name="ffl" unicode="ffl" horiz-adv-x="986" 
d="M447 478v87q0 4 2 12q-61 20 -102 21t-61.5 -16.5t-28.5 -42t-9 -61.5h199zM798 679l125 -28v-680l-125 28v633q-48 11 -86 11.5t-62 -10t-41 -25.5t-25.5 -38.5t-11.5 -44.5t-4 -47h102l30 -70h-132l5 -437l-125 28q-1 177 -1 409h-199l5 -437l-125 28q-1 177 -1 409
h-74l-30 70h104v87q0 29 37.5 61.5t87.5 48t83 2.5q12 -5 34 -15t53 -24.5t48 -22.5q32 39 89 68.5t97 26.5q29 -3 142 -31z" />
    <glyph glyph-name=".notdef" horiz-adv-x="756" 
d="M241 625v-549h275v549h-275zM160 0v701h436v-701h-436z" />
    <glyph glyph-name=".null" 
 />
    <glyph glyph-name="nonmarkingreturn" horiz-adv-x="333" 
 />
    <glyph glyph-name="NULL" 
 />
    <glyph glyph-name="NULL" 
 />
    <glyph glyph-name="CR" unicode="&#xd;" horiz-adv-x="385" 
 />
    <glyph glyph-name="space" unicode=" " horiz-adv-x="350" 
 />
    <glyph glyph-name="exclam" unicode="!" horiz-adv-x="270" 
d="M142 -22q-51 24 -76 73q2 16 30 41t45 29q51 -23 75 -71q-17 -43 -74 -72zM215 682l-32 -507l-89 19l-5 516z" />
    <glyph glyph-name="quotedbl" unicode="&#x22;" horiz-adv-x="484" 
d="M335 573l-52 5q0 19 3.5 115.5t-1.5 118.5q3 10 29 5t57.5 -17t36.5 -18q7 -117 -73 -209zM110 573l-52 5q0 19 3.5 115.5t-1.5 118.5q3 10 29 5t57.5 -17t36.5 -18q7 -117 -73 -209z" />
    <glyph glyph-name="numbersign" unicode="#" horiz-adv-x="797" 
d="M586 682v-163h96l80 -90h-176v-174h96l80 -90h-176v-194l-115 28v166h-141v-194l-115 28v166h-101l-80 90h181v174h-101l-80 90h181v191l115 -28v-163h141v191zM330 429v-174h141v174h-141z" />
    <glyph glyph-name="dollar" unicode="$" horiz-adv-x="623" 
d="M501 492l-27 -40q-45 18 -86.5 25.5t-82 4t-70 -29.5t-41.5 -74q2 -4 24 -2.5t60.5 5t76 7t69 2.5t40.5 -8q47 -40 68 -84t15.5 -81.5t-28 -69.5t-61 -52.5t-84.5 -25.5l2 -157l-100 29v136q-24 7 -51 21.5t-40 23.5t-47.5 34.5t-39.5 29.5l25 37q19 -11 47 -21.5
t73.5 -19.5t86 -5t80 32.5t60.5 82.5q2 5 -19 1q-11 -2 -46 -9q-157 -35 -195 -18q-5 2 -8 4q-31 23 -64.5 61.5t-39.5 62.5q-11 47 17 87.5t71 63t90 31.5v148l98 -41l1 -122q58 -25 126 -69z" />
    <glyph glyph-name="percent" unicode="%" horiz-adv-x="855" 
d="M713 682l-438 -712l-112 31l372 593q-89 -18 -193 24q30 -31 36 -76.5t-10 -86t-47 -73.5t-76 -39t-96 19q-39 21 -80 52q-34 26 -51 59.5t-15.5 64.5t14 62.5t36 54.5t50 39t57.5 17t58 -11l20 -11q80 -35 153 -40.5t126 12.5t94 54zM800 261q30 -24 42 -61t5 -73.5
t-25.5 -72t-50 -56t-69.5 -25t-84 20.5q-39 21 -80 52q-34 26 -51 59.5t-15.5 64.5t14 62.5t36 54.5t50 39t57.5 17t58 -11q71 -36 113 -71zM717 260q-44 29 -91.5 -14t-52.5 -101.5t38 -93.5q47 -28 93 14t50.5 100t-37.5 95zM248 628q-44 29 -91.5 -14t-52.5 -101.5
t38 -93.5q47 -28 93 14t50.5 100t-37.5 95z" />
    <glyph glyph-name="ampersand" unicode="&#x26;" horiz-adv-x="679" 
d="M497 491q15 -41 -138 -184l76 -71q58 63 104 128l96 -93q-44 -67 -99 -128q82 -76 135 -121l-61 -51l-126 118q-50 -47 -96 -76.5t-88.5 -38.5t-70.5 15q-97 75 -159 162q-36 49 40 120q24 22 100 81q-98 98 -112 122q-16 25 11.5 73t80 87.5t100.5 39.5q24 0 107.5 -68
t99.5 -115zM384 184l-79 74q-10 -8 -25.5 -21t-24 -20.5t-21 -18.5t-19 -18t-14 -16.5t-10.5 -17t-5 -15.5t0 -16t7 -16q13 -21 42.5 -14.5t67 32t81.5 67.5zM258 405q1 -2 7 -8q160 138 96 176q-16 10 -35.5 7.5t-40.5 -10.5t-36 -26t-22.5 -38t0 -47t31.5 -54z" />
    <glyph glyph-name="quotesingle" unicode="'" horiz-adv-x="157" 
d="M110 573l-52 5q0 19 3.5 115.5t-1.5 118.5q3 10 29 5t57.5 -17t36.5 -18q7 -117 -73 -209z" />
    <glyph glyph-name="parenleft" unicode="(" horiz-adv-x="524" 
d="M389 814l85 -93q-52 -41 -104 -95t-100 -129t-70.5 -147.5t-2.5 -150.5t92 -139q44 -37 163 -116l-32 -38q-5 3 -89 57t-143 99.5t-89 84.5q-49 63 -37 159.5t59 194.5t120.5 184t147.5 129z" />
    <glyph glyph-name="parenright" unicode=")" horiz-adv-x="489" 
d="M135 -135l-85 93q104 107 130 139q133 160 116 305q-11 84 -69 170q-16 24 -39 54.5t-61.5 72.5t-69.5 62l27 51q51 -36 157 -148.5t156 -186.5q27 -40 31 -91t-12.5 -104.5t-45 -110t-68.5 -112t-81.5 -103.5t-85.5 -91z" />
    <glyph glyph-name="asterisk" unicode="*" horiz-adv-x="367" 
d="M40 547l95 67l-82 59l26 25l83 -54l-2 109l51 -8v-77l59 42l67 -55l-89 -65l89 -57l-33 -40l-92 66l1 -123l-46 12l-2 81l-55 -40z" />
    <glyph glyph-name="plus" unicode="+" horiz-adv-x="600" 
d="M64 285l-30 73h199v212l115 -28v-184h159l30 -73h-189v-222l-115 28v194h-169z" />
    <glyph glyph-name="comma" unicode="," horiz-adv-x="263" 
d="M130 -147l-41 27q25 80 22 116q-31 27 -45 55q2 16 30 41t45 29q27 -13 51.5 -37.5t23.5 -44.5q-6 -37 -35 -99t-51 -87z" />
    <glyph glyph-name="hyphen" unicode="-" horiz-adv-x="474" 
d="M61 277l-31 81h383l31 -81h-383z" />
    <glyph glyph-name="period" unicode="." horiz-adv-x="237" 
d="M142 -22q-51 24 -76 73q2 16 30 41t45 29q51 -23 75 -71q-17 -43 -74 -72z" />
    <glyph glyph-name="slash" unicode="/" horiz-adv-x="436" 
d="M426 673l-266 -702l-130 29l268 714z" />
    <glyph glyph-name="zero" unicode="0" horiz-adv-x="613" 
d="M390 579q-69 30 -135 -75q-63 -99 -82 -237q-19 -145 33 -197q10 -11 24 -16q44 -17 89 25t74 116.5t45 154.5t4 146t-52 83zM492 591q44 -36 65.5 -100t20 -134t-24 -142t-60 -128.5t-94.5 -89t-121 -26.5q-68 7 -139 57q-67 47 -90.5 137t-2.5 183t64 174.5t111 121.5
t135 14q14 -6 35.5 -13.5t30.5 -11.5l22.5 -10t24 -13.5t23.5 -18.5z" />
    <glyph glyph-name="one" unicode="1" horiz-adv-x="394" 
d="M337 625l2 -654l-123 23v536l-94 -92l-99 37l190 187l27 -9z" />
    <glyph glyph-name="two" unicode="2" horiz-adv-x="574" 
d="M485 489q22 -28 23.5 -61.5t-16.5 -68.5t-44.5 -70t-65 -70t-74 -63.5t-74.5 -55.5h230l90 -100h-434l-90 100q172 129 215 173q89 90 112 122q59 81 12 134q-17 19 -44.5 19.5t-53 -11t-56.5 -32.5t-48 -35.5t-34 -29.5l-81 101q18 22 67.5 56.5t110 58.5t96.5 -5
q87 -73 159 -162z" />
    <glyph glyph-name="three" unicode="3" horiz-adv-x="568" 
d="M469 489q31 -43 11.5 -87t-78.5 -79q83 -67 100 -85q46 -48 -5.5 -127t-142.5 -110t-188 19q-71 48 -137 140l42 28q83 -101 188 -94q74 5 116 59q43 57 9 118q-9 16 -24 31q-61 -26 -135 -29l-51 93q135 8 182 76q31 46 5 88q-28 45 -91 38q-62 -6 -130 -63l-69 89
q3 2 10 6q32 20 54 31t60 26t70.5 12t56.5 -23q62 -53 147 -157z" />
    <glyph glyph-name="four" unicode="4" horiz-adv-x="572" 
d="M105 170l-90 100l155 318l131 -37l-129 -281h205v396l138 -41l2 -654l-140 29v170h-272z" />
    <glyph glyph-name="five" unicode="5" horiz-adv-x="612" 
d="M35 161l21 44q3 -2 33 -27t55 -42.5t71.5 -34.5t95.5 -17q36 0 65 16.5t44.5 41.5t25.5 53t8 50t-7 33q-10 14 -64 -3t-111 -35t-72 -5q-22 18 -39.5 38t-39 49t-30.5 40q-3 3 -3.5 22.5t0.5 52t2 61.5t2.5 69t2.5 57l2 -1l-1 2h327l90 -100h-288q-18 -126 -13 -159
q19 -2 64 6.5t81.5 14.5t42.5 1q124 -104 160 -159q9 -14 10 -44.5t-10.5 -67t-33.5 -70t-66 -55.5t-101 -22q-54 0 -111.5 24.5t-101 59.5t-71.5 62.5t-40 44.5z" />
    <glyph glyph-name="six" unicode="6" horiz-adv-x="547" 
d="M342 672l106 -89q-147 -62 -224 -204q99 17 122 0q115 -89 137 -117q36 -46 20.5 -101.5t-53 -102t-89.5 -70t-88 -6.5q-122 58 -202 145q-22 24 -27 73.5t11.5 113.5t50.5 129.5t95.5 127.5t140.5 101zM205 89q49 -34 118 17q56 42 75 99q22 65 -33 85q-57 21 -184 -19
q-16 -64 -9.5 -114t33.5 -68z" />
    <glyph glyph-name="seven" unicode="7" horiz-adv-x="534" 
d="M414 618l90 -100l-200 -547l-140 29l187 518h-251l-90 100h404z" />
    <glyph glyph-name="eight" unicode="8" horiz-adv-x="544" 
d="M249 379q61 38 100.5 91t4.5 86q-44 42 -105 14q-49 -23 -65 -70q-21 -64 46 -110zM204 53q16 -7 40.5 -6t47.5 13.5t45 28.5t33 40t12 48t-18 52t-58 52q-40 -15 -76.5 -45t-56.5 -63.5t-14 -67t45 -52.5zM474 508q27 -39 -3.5 -85t-116.5 -106q45 -29 90 -70t55 -57
q10 -12 6.5 -34t-12 -47.5t-28.5 -52.5t-43.5 -48.5t-58 -34t-71.5 -10.5q-20 1 -117.5 55t-109.5 74q-42 68 1 144t135 114q-122 77 -134 115q-7 21 7 55.5t42 69t76.5 58t102.5 20.5q17 -1 89.5 -68t89.5 -92z" />
    <glyph glyph-name="nine" unicode="9" horiz-adv-x="538" 
d="M198 -28l-106 89q145 60 224 204q-98 -19 -122 0q-115 89 -137 117q-36 46 -20.5 101.5t53 102t89.5 70t88 6.5q122 -58 202 -145q22 -24 27 -73.5t-11.5 -113.5t-50.5 -129.5t-95.5 -127.5t-140.5 -101zM335 555q-49 33 -118 -18q-57 -42 -76 -100q-21 -64 34 -84
q58 -20 184 20q16 63 9 113t-33 69z" />
    <glyph glyph-name="colon" unicode=":" horiz-adv-x="246" 
d="M142 336q-51 24 -76 73q2 16 30 41t45 29q51 -23 75 -71q-17 -43 -74 -72zM142 -22q-51 24 -76 73q2 16 30 41t45 29q51 -23 75 -71q-17 -43 -74 -72z" />
    <glyph glyph-name="semicolon" unicode=";" horiz-adv-x="306" 
d="M130 -147l-41 27q25 80 22 116q-31 27 -45 55q2 16 30 41t45 29q27 -13 51.5 -37.5t23.5 -44.5q-6 -37 -35 -99t-51 -87zM142 336q-51 24 -76 73q2 16 30 41t45 29q51 -23 75 -71q-17 -43 -74 -72z" />
    <glyph glyph-name="less" unicode="&#x3c;" horiz-adv-x="499" 
d="M43 341l319 241l97 -62l-265 -204l227 -177l-55 -64z" />
    <glyph glyph-name="equal" unicode="=" horiz-adv-x="672" 
d="M148 216l-30 73h423l30 -73h-423zM148 377l-30 73h423l30 -73h-423z" />
    <glyph glyph-name="greater" unicode="&#x3e;" horiz-adv-x="499" 
d="M81 139l227 177l-265 204l97 62l319 -241l-323 -266z" />
    <glyph glyph-name="question" unicode="?" horiz-adv-x="475" 
d="M239 -22q-51 24 -76 73q2 16 30 41t45 29q51 -23 75 -71q-17 -43 -74 -72zM107 543l-78 84q33 44 111.5 69.5t117.5 1.5q48 -29 107.5 -95t69.5 -94q5 -13 4.5 -28.5t-4 -30t-12 -32.5t-17.5 -33t-23.5 -35t-26 -34t-30 -35t-30 -33.5t-30.5 -33t-28 -30.5l-94 81l3 3
q11 11 20.5 20t31.5 31.5t38.5 43t37.5 47.5t33.5 51t21 48.5t5.5 45t-18 35.5q-27 24 -68 19.5t-80.5 -24t-61.5 -42.5z" />
    <glyph glyph-name="at" unicode="@" horiz-adv-x="1054" 
d="M438 97q41 -29 115.5 12t90.5 74q13 62 14.5 128t-11.5 80q-25 16 -55.5 14t-60 -21.5t-56.5 -46.5t-45 -62t-26 -67.5t0 -62.5t34 -48zM915 483q104 -104 76 -253q-20 -105 -90 -175q-63 -63 -114 -44q-9 3 -17 9q-37 27 -70 76q-27 -35 -66.5 -61.5t-87 -37.5t-87.5 14
q-48 29 -130 95q-28 23 -36.5 60.5t1.5 78.5t33 83.5t57.5 76t74.5 56.5t85 23.5t88 -22.5q8 -5 25.5 -14t26 -14t21.5 -14t25 -19t24 -23q14 -14 4.5 -107t-3.5 -101q28 -36 64 -2q41 39 48 118q10 123 -83 216q-12 12 -25 23q-120 98 -270 58q-123 -32 -206 -136
q-91 -114 -76 -241q18 -160 204 -262q3 -2 5 -3q51 -32 117.5 -25t115.5 59l112 -95q-40 -53 -112.5 -71.5t-134.5 -8t-93 33.5q-59 45 -141.5 114.5t-116.5 103.5q-58 58 -82.5 126t-16.5 132t39 127t78.5 114t108 89t123 56.5t126.5 12t116 -40.5q27 -18 69.5 -45
t61.5 -39.5t46 -31.5t46 -35t37 -34z" />
    <glyph glyph-name="A" unicode="A" horiz-adv-x="657" 
d="M390 625l-1 -3l268 -651l-129 29l-70 183l-236 -16l-72 -196l-140 29l242 666zM340 490l-86 -236l172 12z" />
    <glyph glyph-name="B" unicode="B" horiz-adv-x="694" 
d="M208 576l1 -225q77 0 133 19.5t82 48t38 60.5t8.5 58t-14.5 38q-19 20 -60.5 25.5t-88.5 -2t-99 -22.5zM209 301l1 -249q178 -18 261 61q54 52 39 117q-10 44 -50 71q-103 -44 -251 0zM210 -1l-140 31v639q83 23 201.5 25t142.5 -16q31 -20 83.5 -70t82.5 -85
q13 -21 13 -52t-22 -71.5t-59 -68.5q81 -47 132 -105q17 -20 13 -57t-31 -77t-81.5 -71t-137 -39.5t-197.5 17.5z" />
    <glyph glyph-name="C" unicode="C" horiz-adv-x="706" 
d="M634 527q-79 42 -146 71q-53 23 -113.5 -5t-102.5 -89t-65 -133t-1.5 -146t89.5 -119q36 -24 75.5 -28t78.5 11t69 33t66 45l121 -89q-53 -45 -114.5 -72t-131 -32t-128.5 31q-99 58 -190 141q-41 38 -63.5 83.5t-25.5 91t6 93.5t32.5 90t53 80t67.5 64.5t77 44
t80.5 16.5t78.5 -16q150 -69 236 -112z" />
    <glyph glyph-name="D" unicode="D" horiz-adv-x="766" 
d="M210 1h-1l-139 29v636l1 -1v1q43 14 177 16t174 -19q105 -73 275 -268q10 -12 16 -46t0 -82t-24 -97t-63 -95t-110 -71q-60 -21 -145 -20.5t-161 17.5zM512 506q-35 29 -73.5 45t-83 18.5t-72.5 0.5t-75 -8l2 -501q69 -9 132 10.5t108 58.5t76 90.5t40.5 103.5t-3.5 101
t-51 81z" />
    <glyph glyph-name="E" unicode="E" horiz-adv-x="632" 
d="M200 0l-2 2l-128 27v638h427l80 -90h-369v-192h249l80 -90h-328v-205h328l80 -90h-417z" />
    <glyph glyph-name="F" unicode="F" horiz-adv-x="582" 
d="M537 265h-328l1 -294l-140 29v666l1 -1l-1 2h427l80 -90h-369v-222h249z" />
    <glyph glyph-name="G" unicode="G" horiz-adv-x="813" 
d="M450 248l-80 90h233l138 -41q2 -221 2 -250q0 -79 16.5 -111t68.5 -47q-72 -19 -136.5 22.5t-69.5 118.5l-3 45q-36 -31 -65 -50.5t-66.5 -34.5t-77 -11.5t-80.5 26.5q-118 67 -171 115q-46 43 -73 93t-32.5 98t2 98t30.5 93t53 82t68.5 65t78 43.5t81.5 16.5t79 -16
q179 -82 233 -109l-43 -53q-15 7 -141 57q-44 18 -82 10t-74.5 -30.5t-62.5 -60.5t-46 -80.5t-25.5 -90.5t0 -91t29.5 -81t64 -61q34 -20 69.5 -20t66.5 14.5t60.5 38.5t54.5 50t47 50q7 8 10 12h-156z" />
    <glyph glyph-name="H" unicode="H" horiz-adv-x="742" 
d="M208 626l1 -280l323 18v302l140 -40v-655l-140 29v279l-323 -18l1 -290l-140 29v666z" />
    <glyph glyph-name="I" unicode="I" horiz-adv-x="290" 
d="M218 625l2 -654l-150 29v666z" />
    <glyph glyph-name="J" unicode="J" horiz-adv-x="353" 
d="M283 626v-611q0 -37 -31 -84.5t-90 -85t-124 -37.5q-111 0 -213 87l25 18q65 -23 117 -24t84.5 14.5t54 45t30 63t8.5 71.5v584z" />
    <glyph glyph-name="K" unicode="K" horiz-adv-x="680" 
d="M211 625l1 -319l285 360l130 -29l-219 -276l262 -390l-130 29l-190 288l-138 -173l1 -144l-140 29v126l-3 1l3 4v535z" />
    <glyph glyph-name="L" unicode="L" horiz-adv-x="607" 
d="M208 626l1 -536h308l80 -90h-387l-140 29v638z" />
    <glyph glyph-name="M" unicode="M" horiz-adv-x="871" 
d="M208 626l210 -509l243 549l138 -40l2 -655l-140 29v337l-165 -366l-130 29l1 2l-1 -1l-158 393l2 -423l-140 29v666z" />
    <glyph glyph-name="N" unicode="N" horiz-adv-x="742" 
d="M672 626v-655l-140 29l-324 458l2 -487l-140 29v666l138 -40l324 -453v493z" />
    <glyph glyph-name="O" unicode="O" horiz-adv-x="803" 
d="M521 572q-100 66 -198 -7q-79 -60 -115 -173q-39 -126 8 -217q23 -46 68 -73q101 -61 198 14q79 61 113 175q37 126 -14 216q-22 40 -60 65zM677 523q38 -37 57 -87.5t18.5 -103t-17 -106.5t-45 -100.5t-68.5 -83t-86 -55.5t-100 -16t-106 33q-8 5 -28.5 16t-29 15.5
t-25.5 15t-28.5 19t-28 21t-33.5 27.5t-36 34q-37 35 -54.5 84t-16 101t17.5 105.5t44.5 101t67.5 85t82.5 59t93.5 21.5t98 -26q130 -70 223 -160z" />
    <glyph glyph-name="P" unicode="P" horiz-adv-x="649" 
d="M70 0v669q91 25 203.5 33t141.5 -12q30 -27 94 -91t89 -93q15 -18 8 -60.5t-35 -89t-78 -86t-121 -52t-163 14.5l1 -262zM458 578q-53 59 -250 21l1 -319q72 -8 128 14.5t85 61.5t43.5 83.5t11.5 82.5t-19 56z" />
    <glyph glyph-name="Q" unicode="Q" horiz-adv-x="803" 
d="M677 523q61 -60 71.5 -151t-21.5 -173.5t-97.5 -147.5t-144.5 -77q-2 -20 -2 -30q0 -8 -1 -23q-6 -91 8 -121q20 -41 86 -36q-54 -20 -100.5 -8.5t-77 51.5t-29.5 92q0 38 5 85q-17 6 -44 20q-8 5 -28.5 16t-29 15.5t-25.5 15t-28.5 19t-28 21t-33.5 27.5t-36 34
q-37 35 -54.5 84t-16 101t17.5 105.5t44.5 101t67.5 85t82.5 59t93.5 21.5t98 -26q130 -70 223 -160zM521 572q-78 47 -146.5 20.5t-117.5 -98.5t-62 -159q71 24 93 23q16 -1 47 -22t57 -43t56.5 -49.5t35.5 -31.5q18 -15 16 -81q59 55 89 140t14.5 170.5t-82.5 130.5z
M346 255q-18 11 -42.5 14t-55 -9t-49.5 -43q22 -78 85 -115q48 -29 98 -26q5 73 -1.5 116.5t-34.5 62.5z" />
    <glyph glyph-name="R" unicode="R" horiz-adv-x="679" 
d="M477 208q-9 17 -46 49q-97 -36 -222 -8l1 -278l-140 29v669q91 25 203.5 33t141.5 -12q30 -27 94 -91t89 -93q26 -32 -5.5 -104t-107.5 -119q106 -45 115 -55q13 -19 18.5 -43.5t5.5 -41.5t-2 -48t-2 -42q0 -10 -1.5 -30.5t-1.5 -30.5t3 -25.5t10 -24.5t21 -19t36 -17
q-79 -16 -131.5 25.5t-57.5 121.5q0 6 -1.5 37t-3 45t-5.5 36.5t-11 36.5zM460 577q-59 56 -252 16l1 -280q70 -1 126.5 20.5t86.5 55t46 70.5t13 69t-21 49z" />
    <glyph glyph-name="S" unicode="S" horiz-adv-x="726" 
d="M584 527q-42 16 -81.5 26t-89 11.5t-87.5 -12.5t-69 -53.5t-41 -103.5q-2 -11 76 -6.5t152 10.5t102 -9q99 -88 139 -163q20 -36 -17 -104q-47 -85 -136 -125q-157 -72 -344 53q-76 51 -153 135l30 15q58 -31 93.5 -48t89.5 -34.5t95 -18.5q95 -2 156 46.5t69 131.5
q1 9 -72 -2.5t-147 -20.5t-112 14q-40 32 -125 126q-27 33 -28 71t25 77t64 70t89.5 51t102.5 20q13 0 49 -16.5t99.5 -49.5t83.5 -43z" />
    <glyph glyph-name="T" unicode="T" horiz-adv-x="647" 
d="M80 577l-80 90h567l80 -90h-241l2 -606l-140 29v577h-188z" />
    <glyph glyph-name="U" unicode="U" horiz-adv-x="721" 
d="M512 667l139 -41v-468q0 -57 -88 -122.5t-187 -65.5q-59 0 -146 60t-160 141q-1 1 -2 16t-1.5 39t-1 56t-0.5 67v72.5t0.5 72t0.5 66.5t0.5 55t0.5 37v15q0 -1 34.5 -11t68.5 -20l35 -10q-4 -502 1 -508q41 -44 105.5 -45.5t121.5 33.5t79 90v471z" />
    <glyph glyph-name="V" unicode="V" horiz-adv-x="647" 
d="M267 12l1 2l-268 652l139 -29l186 -466l182 495l150 -29l-242 -666z" />
    <glyph glyph-name="W" unicode="W" horiz-adv-x="1108" 
d="M267 12l1 2l-268 652l139 -29l184 -460l164 489l150 -29l184 -460l164 489l150 -29l-222 -666l-148 41l1 2l-187 451l-164 -494z" />
    <glyph glyph-name="X" unicode="X" horiz-adv-x="710" 
d="M177 638l167 -217l183 245l140 -29l-241 -323l264 -343l-140 29l-181 238l-200 -267l-139 29l257 345l-245 322z" />
    <glyph glyph-name="Y" unicode="Y" horiz-adv-x="591" 
d="M125 638l172 -271l164 299l139 -29l-216 -393l2 -273l-140 29v275l-246 392z" />
    <glyph glyph-name="Z" unicode="Z" horiz-adv-x="835" 
d="M132 577l-80 90h600l80 -90l-458 -487h424l80 -90h-616l-79 88l-2 1l1 1l449 487h-399z" />
    <glyph glyph-name="bracketleft" unicode="[" horiz-adv-x="463" 
d="M165 0l-80 90v618l1 -1l-1 2h197l80 -90h-149l2 -529h107l80 -90h-237z" />
    <glyph glyph-name="backslash" unicode="\" horiz-adv-x="600" 
d="M221 670l306 -699l-130 29l-306 710z" />
    <glyph glyph-name="bracketright" unicode="]" horiz-adv-x="521" 
d="M322 709l80 -90v-618h-1l1 -1h-197l-80 90h149l-2 529h-107l-80 90h237z" />
    <glyph glyph-name="asciicircum" unicode="^" horiz-adv-x="422" 
d="M26 688l214 205l185 -244l-33 -40l-130 189l-159 -188z" />
    <glyph glyph-name="underscore" unicode="_" horiz-adv-x="619" 
d="M64 0l-30 73h533l30 -73h-533z" />
    <glyph glyph-name="grave" unicode="`" horiz-adv-x="338" 
d="M364 591l-23 -41q-80 42 -179 126q-13 10 19 53t45 41q27 -38 74.5 -97t63.5 -82z" />
    <glyph glyph-name="a" unicode="a" horiz-adv-x="556" 
d="M106 351l-54 91q70 18 155.5 34t107.5 15t88 -65.5t89 -98.5q8 -12 8 -80.5t-2.5 -156.5t-1.5 -119l-124 29l1 51q-81 -81 -132 -81q-48 1 -122 91t-74 129q0 31 42 57t102.5 40.5t107.5 22.5t80 11l1 27q1 48 -51 52q-48 3 -202 -43h-1l-1 -1h-1h-1l-1 -1h-1h-1l-1 -1
h-1h-1l-1 -1h-1h-1h-1l-1 -1h-1h-1l-1 -1h-1zM156 100q9 -14 34 -18t75.5 13.5t109.5 61.5l1 88q-264 -77 -220 -145z" />
    <glyph glyph-name="b" unicode="b" horiz-adv-x="608" 
d="M188 248v-206q130 -23 206 79q55 72 54 163q-1 81 -46 103q-64 33 -171 -87q-21 -23 -43 -52zM188 681v-253q51 46 85.5 55t88.5 -11q63 -25 139 -96q39 -36 53 -84t5 -95t-35.5 -92.5t-63.5 -78t-84 -48.5t-92 -7q-128 25 -221 81v657z" />
    <glyph glyph-name="c" unicode="c" horiz-adv-x="535" 
d="M477 410l-36 -52q-15 5 -35 12.5t-31 11t-24 7.5t-21.5 5.5t-15.5 1.5q-65 -3 -110 -84q-43 -78 -33 -157q9 -79 70 -88q71 -10 190 82l19 -22q20 -22 39 -45l19 -22q-39 -29 -68.5 -47t-60.5 -29.5t-60.5 -11t-60.5 12.5q-86 33 -162 116q-45 50 -49.5 118.5t24 127.5
t84.5 100.5t122 41.5q31 0 200 -79z" />
    <glyph glyph-name="d" unicode="d" horiz-adv-x="587" 
d="M205 51q79 -40 191 39v281q-29 17 -81 23q-41 4 -80 -41.5t-59 -105.5t-14.5 -118.5t43.5 -77.5zM396 710l125 -28q6 -675 0 -681q-5 -1 -51.5 -11.5t-59.5 -12.5t-53.5 -6t-64 0t-58.5 13.5t-67 27.5q-57 31 -88 76t-33 92t11 95.5t41.5 89t61 71.5t68.5 44.5t64 4.5
q13 -4 27.5 -11.5t24 -13.5t27 -18t25.5 -17v285z" />
    <glyph glyph-name="e" unicode="e" horiz-adv-x="553" 
d="M165 199l227 155q-72 46 -122.5 34t-77.5 -62.5t-27 -126.5zM188 103q28 -34 63 -42t73.5 9.5t64.5 35t61 46.5l20 -20l38 -42l20 -20q-87 -64 -147 -85.5t-119 0.5q-86 33 -162 116q-45 50 -52 118.5t17.5 127.5t76 100.5t112.5 41.5q40 0 118.5 -51.5t130.5 -100.5
q-1 -3 -79.5 -61.5t-157.5 -115.5z" />
    <glyph glyph-name="f" unicode="f" horiz-adv-x="398" 
d="M53 408l-30 70h104v87q0 30 39.5 70.5t92 63t82.5 5.5q60 -33 111 -79l-22 -27q-51 28 -85.5 29.5t-56 -23.5t-30.5 -56.5t-10 -69.5h102l30 -70h-132l5 -437l-125 28q-1 177 -1 409h-74z" />
    <glyph glyph-name="g" unicode="g" horiz-adv-x="593" 
d="M174 19q6 -13 141.5 15.5t144.5 19.5q43 -42 56 -88t-3 -84t-47 -69.5t-75 -49.5t-89 -18q-76 0 -152.5 44.5t-92.5 76.5q-2 3 1 8.5t11 13.5t17.5 17t25.5 24.5t30 29.5q-11 16 -78 122q-2 7 -3 11t5.5 7.5t13.5 6t20.5 5.5t26 5t31 6.5t34.5 9.5q-18 11 -69 55
q-31 26 -47 56.5t-16 58t9 55.5t28 50t40.5 41t47 28.5t47.5 12.5t42 -7q68 -33 96 -50h178l30 -70h-136q118 -209 -162 -305q-22 -7 -59 -18q-47 -15 -47 -20zM332 390q-42 31 -93.5 -10t-62 -101t32.5 -100q41 -28 94.5 10.5t65 96t-36.5 104.5zM174 -84l-5 5l-45 -55
q73 -32 144.5 -23t124 44.5t51.5 74.5q0 7 -58.5 -14.5t-118.5 -37.5t-93 6z" />
    <glyph glyph-name="h" unicode="h" horiz-adv-x="597" 
d="M188 682v-278q93 89 161 84q32 -2 112.5 -79.5t85.5 -105.5q4 -26 4 -332l-124 28q6 343 -5 363q-19 35 -61.5 20.5t-88 -52t-84.5 -84.5v-275l-125 28v711z" />
    <glyph glyph-name="i" unicode="i" horiz-adv-x="276" 
d="M139 539q-51 24 -76 73q2 16 30 41t45 29q51 -23 75 -71q-17 -43 -74 -72zM199 450v-479l-125 28v479z" />
    <glyph glyph-name="j" unicode="j" horiz-adv-x="252" 
d="M132 539q-51 24 -76 73q2 16 30 41t45 29q51 -23 75 -71q-17 -43 -74 -72zM193 450v-525q0 -30 -37 -70t-88 -67t-85 -20q-24 5 -159 64l18 36q60 -27 102.5 -25t70 28t40 57.5t12.5 63.5l1 486z" />
    <glyph glyph-name="k" unicode="k" horiz-adv-x="565" 
d="M188 682v-381l189 178l115 -28l-183 -172l211 -263l-70 -46l-195 258l-67 -63v-194l-125 28v711z" />
    <glyph glyph-name="l" unicode="l" horiz-adv-x="241" 
d="M188 682v-711l-125 28v711z" />
    <glyph glyph-name="m" unicode="m" horiz-adv-x="885" 
d="M188 450v-27q71 69 131 65q19 -1 62 -35.5t82 -76.5q94 117 174 112q32 -2 112.5 -79.5t85.5 -105.5q4 -26 4 -332l-124 28q6 344 -5 364q-12 22 -34.5 23t-49 -15t-53.5 -40.5t-54 -55.5q2 -55 2 -304l-124 28q6 344 -5 364q-15 22 -37.5 23t-52.5 -18.5t-58.5 -47
t-55.5 -61.5v-288l-125 28v479z" />
    <glyph glyph-name="n" unicode="n" horiz-adv-x="597" 
d="M193 450v-41q89 83 156 79q32 -2 112.5 -79.5t85.5 -105.5q4 -26 4 -332l-124 28q6 343 -5 363q-18 34 -59.5 20.5t-86 -48.5t-83.5 -82v-281l-130 28v479z" />
    <glyph glyph-name="o" unicode="o" horiz-adv-x="590" 
d="M381 377q-66 45 -137 -14q-59 -50 -79 -133q-22 -95 34 -143q7 -6 15 -11q40 -22 82.5 -10t74 53t49.5 87.5t9 95t-48 75.5zM481 369q29 -26 45 -62.5t18.5 -74.5t-7 -77t-28.5 -73t-47.5 -60.5t-62.5 -40t-75.5 -10.5t-84.5 26q-56 30 -110 76q-43 37 -64 83.5
t-19.5 90.5t17 88t45 76t64.5 54.5t75.5 23.5t78.5 -17q97 -51 155 -103z" />
    <glyph glyph-name="p" unicode="p" horiz-adv-x="578" 
d="M354 125q26 35 41.5 74.5t17 74.5t-6 66.5t-28.5 51t-48.5 26.5t-67.5 -6t-85 -46l-2 -283q18 -12 46 -16t66.5 9t66.5 49zM287 -25q-23 6 -58 25t-52 31v-285l-125 28q-3 665 0 679q63 18 100.5 25.5t85.5 10t91.5 -12t89.5 -44.5q60 -40 88 -94.5t24.5 -107t-27 -104
t-59.5 -88t-78.5 -54.5t-79.5 -9z" />
    <glyph glyph-name="q" unicode="q" horiz-adv-x="604" 
d="M414 201v176q-142 44 -217 -46q-53 -63 -49 -151q4 -79 50 -106q64 -38 162 63q27 28 54 64zM414 -222v253q-51 -46 -85.5 -55t-88.5 11q-63 25 -139 96q-46 42 -57.5 104t10.5 119t60 104t93 67t106 0q118 -45 226 -110v-617z" />
    <glyph glyph-name="r" unicode="r" horiz-adv-x="493" 
d="M189 450v-74q73 115 124 115q25 0 84 -25.5t99 -52.5l-69 -100q-62 46 -107.5 50.5t-72.5 -18t-58 -72.5v-302l-125 28v479z" />
    <glyph glyph-name="s" unicode="s" horiz-adv-x="520" 
d="M416 445l-11 -54q-97 22 -128 18q-49 -6 -77 -47.5t-20 -79.5q2 -9 46 2t96 22.5t67 3.5q69 -36 93 -95t5.5 -112.5t-75.5 -92.5t-137 -39q-66 0 -122.5 36.5t-132.5 109.5l18 34q68 -51 144 -68.5t141.5 13.5t87.5 114q1 4 -9 3q-11 -1 -55 -13q-139 -37 -177 -22l-9 5
q-55 42 -89 92q-25 34 -20.5 72t25.5 69.5t63 52t92 20.5q15 0 42.5 -6t78 -20.5t63.5 -17.5z" />
    <glyph glyph-name="t" unicode="t" horiz-adv-x="423" 
d="M40 408l-30 70h82v108l123 -28v-80h122l30 -70h-152v-127v-33q0 -27 -0.5 -54t3 -51t8.5 -44t17 -32t29 -16t43.5 5.5t60.5 31.5l27 -31q-58 -53 -97 -74q-30 -17 -82.5 5.5t-92 63t-39.5 70.5v286h-52z" />
    <glyph glyph-name="u" unicode="u" horiz-adv-x="587" 
d="M399 477l125 -28v-479l-125 28v50q-80 -82 -148 -77q-32 2 -114 74t-87 100q-4 26 -4 332l124 -28q-5 -344 5 -365q20 -28 60.5 -18t90 57t73.5 103v251z" />
    <glyph glyph-name="v" unicode="v" horiz-adv-x="518" 
d="M133 450l128 -311l132 339l125 -28l-186 -479h-1l-124 28h-1l-198 479z" />
    <glyph glyph-name="w" unicode="w" horiz-adv-x="869" 
d="M133 450l125 -303l115 331l125 -28l125 -303l115 331l125 -28l-166 -479h-1l-125 28l-125 301l-114 -329h-1l-124 28h-1l-198 479z" />
    <glyph glyph-name="x" unicode="x" horiz-adv-x="501" 
d="M148 450l94 -130l106 158l125 -28l-156 -232l181 -247l-125 28l-106 144l-115 -172l-125 28l165 247l-169 232z" />
    <glyph glyph-name="y" unicode="y" horiz-adv-x="554" 
d="M369 478l125 -28v-512q0 -59 -51 -110t-112.5 -72.5t-95.5 -6.5q-13 6 -39.5 21t-66 38.5t-59.5 35.5l26 39q60 -35 80 -45q73 -36 133 3.5t60 155.5v37q-71 -67 -125 -63q-32 2 -103.5 73.5t-76.5 100.5q-6 40 -6 335l124 -28q-6 -346 7 -365q30 -36 84.5 -2.5
t95.5 103.5v290z" />
    <glyph glyph-name="z" unicode="z" horiz-adv-x="489" 
d="M447 404l-170 -216l126 -60q52 -26 64 -76.5t-12 -104t-64.5 -101.5t-95.5 -75t-103 -19q-31 5 -85 39.5t-95 75.5l23 24q33 -22 56 -32q60 -21 107.5 -8.5t79.5 50t48.5 80t14 81.5t-25.5 55q-37 25 -168 77h-1l-7 3l162 208h-261l-30 73h407l30 -73h-5z" />
    <glyph glyph-name="braceleft" unicode="{" horiz-adv-x="493" 
d="M393 -15l48 -41q-14 -6 -36.5 -15t-67.5 -20.5t-61 -3.5q-66 34 -124 87q-12 11 -10.5 64.5t7.5 111.5t0 114q-3 20 -38.5 54t-35.5 35q0 3 18 18t37 37.5t19 43.5q0 104 13 209.5t25 113.5q26 17 68 30.5t71 18.5l29 5l74 -84q-60 -15 -109 -39q-14 -6 -23.5 -18
t-15.5 -33t-10 -37t-5 -47.5t-1.5 -47t0 -53t0.5 -49.5q0 -22 -16.5 -37t-34 -22t-17.5 -9q0 -1 16.5 -8.5t34 -23t17.5 -36.5q0 -22 -4.5 -112t-1 -138.5t21.5 -62.5q20 -16 48 -17t46 5z" />
    <glyph glyph-name="bar" unicode="|" horiz-adv-x="275" 
d="M200 711v-821l-124 56v821z" />
    <glyph glyph-name="braceright" unicode="}" horiz-adv-x="626" 
d="M122 749l-48 41q14 6 36.5 15t67.5 20.5t61 3.5q66 -34 124 -87q12 -11 10.5 -64.5t-7.5 -111.5t0 -114q3 -20 38.5 -54t35.5 -35q0 -3 -18 -18t-37 -37.5t-19 -43.5q0 -104 -13 -209.5t-25 -113.5q-26 -17 -68 -30.5t-71 -18.5l-29 -5l-74 84q60 15 109 39q14 6 23.5 18
t15.5 33t10 37t5 47.5t1.5 47t0 53t-0.5 49.5q0 22 16.5 37t34 22t17.5 9q0 1 -16.5 8.5t-34 23t-17.5 36.5q0 22 4.5 112t1 138.5t-21.5 62.5q-20 16 -48 17t-46 -5z" />
    <glyph glyph-name="asciitilde" unicode="~" horiz-adv-x="586" 
d="M203 443q21 0 50.5 -34.5t53.5 -68.5t32 -34q15 0 51.5 27t65.5 55l28 27l74 -91q-15 -13 -37.5 -32t-71.5 -51t-71 -32q-18 0 -48 31t-54.5 61.5t-30.5 30.5q-14 0 -45.5 -24.5t-56.5 -49.5l-25 -24l-85 90q138 119 170 119z" />
    <glyph glyph-name="uni00A0" unicode="&#xa0;" 
 />
    <glyph glyph-name="exclamdown" unicode="&#xa1;" horiz-adv-x="425" 
d="M237 544q51 -24 76 -73q-2 -16 -30 -41t-45 -29q-51 23 -75 71q17 43 74 72zM164 -160l32 507l89 -19l5 -516z" />
    <glyph glyph-name="cent" unicode="&#xa2;" horiz-adv-x="545" 
d="M482 364l-33 -47q-5 4 -16 12q-99 73 -122 76h-4q-39 -1 -78.5 -42t-61.5 -94.5t-11 -112.5t65 -92q33 -20 87.5 7.5t100.5 77.5l19 -19l38 -40l18 -20q-31 -27 -51 -43t-43.5 -30.5t-42.5 -19t-41.5 -3t-47.5 10.5q-26 11 -30 14l-59 -148l-70 74l53 123q-30 24 -56 53
q-45 50 -49.5 118.5t24 127.5t84.5 100.5t122 41.5q12 0 55 -24l66 160l66 -71l-54 -136q37 -23 72 -54z" />
    <glyph glyph-name="sterling" unicode="&#xa3;" horiz-adv-x="722" 
d="M327 1q-2 0 -53.5 -25.5t-78.5 -23.5q-38 2 -90.5 41t-52.5 70q0 12 36 54.5t44 35.5q33 -31 76 -61l30 184q-26 1 -62 5l-36 64q49 -11 107 -14l12 76q10 60 53.5 116.5t88.5 83.5t64 16q30 -19 61 -45.5t61 -55.5t34 -33q17 -20 16 -50.5t-26.5 -69.5t-66.5 -66
q-48 -33 -173 -33l-39 -236q129 -35 254 33l111 -62q-71 -35 -112 -48t-83 -13q-16 0 -82.5 23t-92.5 34zM388 371l-6 -34q69 10 102 34q33 23 49 55.5t15 58.5t-15 38q-35 30 -83 -18t-62 -134z" />
    <glyph glyph-name="currency" unicode="&#xa4;" horiz-adv-x="600" 
d="M62 117l103 97q-29 31 -37 69.5t1.5 74t31.5 66.5l-104 92l36 37l97 -97q73 62 142 28q36 -19 44 -24l113 106l67 -55l-105 -104q42 -46 36.5 -111.5t-49.5 -114.5l95 -83l-33 -40l-93 95q-68 -46 -144 -7q-15 7 -28 15l-103 -102zM362 412q-44 29 -91.5 -14
t-52.5 -101.5t38 -93.5q47 -28 93 14t50.5 100t-37.5 95z" />
    <glyph glyph-name="yen" unicode="&#xa5;" horiz-adv-x="615" 
d="M125 638l172 -271l164 299l130 -29l-179 -325h94l30 -73h-162v-57h142l30 -73h-171l1 -138l-130 29v109h-123l-30 73h153v57h-133l-30 73h139l-222 355z" />
    <glyph glyph-name="brokenbar" unicode="&#xa6;" horiz-adv-x="275" 
d="M200 246v-356l-124 56v356zM200 711v-356l-124 56v356z" />
    <glyph glyph-name="section" unicode="&#xa7;" horiz-adv-x="529" 
d="M256 203q47 -28 93 14t50.5 100t-37.5 95q-44 29 -91.5 -14t-52.5 -101.5t38 -93.5zM342 478h1q62 -32 102 -65q34 -29 41.5 -75.5t-8 -89.5t-50.5 -77t-79 -41q73 -46 79 -65q3 -17 4 -39t-11.5 -46t-30.5 -43.5t-52.5 -31t-78.5 -9.5q-12 1 -44 18.5t-62 42.5l17 23
q52 -36 102.5 -11.5t50.5 75.5t-59 101l-1 1q-41 21 -80 52q-43 35 -54.5 83.5t4.5 90.5t49 76t73 44q-91 56 -98 78q-3 17 -4 39t11.5 46t30.5 43.5t52.5 31t78.5 9.5q21 -2 99 -67l-23 -28q-56 39 -111 12q-45 -21 -49 -65q-2 -59 79 -103l11 -4z" />
    <glyph glyph-name="dieresis" unicode="&#xa8;" horiz-adv-x="341" 
d="M260 552q-42 19 -65 63q1 14 25.5 36t39.5 25q46 -21 64 -62q-13 -36 -64 -62zM83 552q-42 19 -65 63q1 14 25.5 36t39.5 25q46 -21 64 -62q-13 -36 -64 -62z" />
    <glyph glyph-name="copyright" unicode="&#xa9;" horiz-adv-x="882" 
d="M591 586q-89 52 -172 42.5t-137.5 -74.5t-80.5 -142t0 -158.5t104 -126.5q52 -30 105.5 -34.5t98 12.5t82.5 49.5t63.5 75.5t37 92.5t6.5 96.5t-32.5 91.5t-74.5 75.5zM726 547q41 -35 61.5 -83.5t20 -99t-17.5 -102.5t-48 -97t-74 -80t-92 -53.5t-107 -15.5t-115 31
q-64 31 -96 52t-102 81q-40 34 -59.5 80.5t-18.5 96t17 101t45 97t70 81.5t87 56.5t99.5 20.5t104.5 -25q78 -37 126 -67t99 -74zM572 471l-22 -33q-84 30 -96 30q-27 -1 -54.5 -29.5t-42.5 -65.5t-7.5 -78t44.5 -64q22 -14 65.5 4.5t83.5 49.5l13 -14q13 -14 26 -29l12 -14
q-36 -28 -61.5 -41.5t-56 -18.5t-56.5 8q-59 21 -112 80q-32 35 -35 82.5t17 88.5t59 70t84 29q24 0 139 -55z" />
    <glyph glyph-name="ordfeminine" unicode="&#xaa;" horiz-adv-x="447" 
d="M175 454q27 -16 75.5 30t54.5 84q13 68 -6 82q-15 11 -39.5 -2t-46 -39.5t-39 -58t-17.5 -57.5t18 -39zM398 388l-88 17q-7 13 -10 34q-16 -21 -29 -31t-35 -13.5t-48 11.5q-54 26 -85 61q-20 23 -18 61t22.5 74t52 66t70.5 37t78 -13q6 -3 16.5 -9t16.5 -9.5t14.5 -9
t16 -12t15.5 -14.5q17 -19 -1 -160q-2 -22 1.5 -51t10.5 -39z" />
    <glyph glyph-name="guillemotleft" unicode="&#xab;" horiz-adv-x="675" 
d="M306 285l217 204l92 -68l-182 -159l175 -143l-47 -52zM10 285l217 204l92 -68l-182 -159l175 -143l-47 -52z" />
    <glyph glyph-name="logicalnot" unicode="&#xac;" horiz-adv-x="566" 
d="M61 277l-31 81h453l31 -81l-98 -160l-104 39l70 121h-321z" />
    <glyph glyph-name="uni00AD" unicode="&#xad;" horiz-adv-x="474" 
d="M61 277l-31 81h383l31 -81h-383z" />
    <glyph glyph-name="registered" unicode="&#xae;" horiz-adv-x="456" 
d="M384 624q37 -31 44.5 -78t-12 -89.5t-55.5 -78t-85.5 -43t-102.5 15.5q-36 16 -54.5 27.5t-59.5 44.5q-35 29 -42 75.5t12 88.5t53 78.5t80.5 46.5t94.5 -9q80 -38 127 -79zM308 647q-46 26 -91 19t-75.5 -43t-45.5 -77.5t-3 -85.5t52 -67q44 -22 87 -13.5t73.5 43
t46.5 75t5.5 83t-49.5 66.5zM262 451l-22 40q-26 -3 -53 2v-59l-48 12v153q28 8 63 11t44 -3q1 -1 15.5 -12t25.5 -20.5t15 -15.5q8 -7 0.5 -24.5t-26.5 -29.5l35 -64zM257 572q-16 13 -70 0v-59q32 -2 52.5 9.5t22 26t-4.5 23.5z" />
    <glyph glyph-name="macron" unicode="&#xaf;" horiz-adv-x="377" 
d="M58 543l-22 58h290l23 -58h-291z" />
    <glyph glyph-name="degree" unicode="&#xb0;" horiz-adv-x="463" 
d="M337 637q-40 26 -81.5 -12t-46 -90t33.5 -84q42 -25 83 12.5t44.5 89t-33.5 84.5zM411 638q29 -25 36.5 -65t-6 -77.5t-41 -69t-67 -38.5t-84.5 13q-38 19 -71 46q-32 26 -44.5 60.5t-6 66.5t23.5 62.5t44 48.5t56 25t59 -9q64 -32 101 -63z" />
    <glyph glyph-name="plusminus" unicode="&#xb1;" horiz-adv-x="600" 
d="M64 367l-30 73h199v212l115 -28v-184h159l30 -73h-189v-222l-115 28v194h-169zM74 15l-31 81h453l31 -81h-453z" />
    <glyph glyph-name="twosuperior" unicode="&#xb2;" horiz-adv-x="328" 
d="M271 619q35 -43 -70 -130l-48 -39h107l58 -62h-242l-58 62q81 59 118 88q90 71 58 107q-16 17 -65 -16t-64 -56l-55 62q21 24 81 62t82 19q59 -50 98 -97z" />
    <glyph glyph-name="threesuperior" unicode="&#xb3;" horiz-adv-x="290" 
d="M243 625q10 -14 3 -37t-30 -42q38 -22 50 -32q30 -24 -1 -69q-33 -46 -89 -59q-54 -13 -94 19q-39 31 -72 82l26 16q41 -65 103 -60q43 4 59 36q13 27 -8 51q-33 -17 -78 -18l-30 57q42 4 70 18.5t32.5 31.5t-6.5 33q-17 20 -46.5 2t-71.5 -60l-47 58q8 8 19.5 17
t29.5 21.5t35 19t35 8.5t30 -9q50 -41 81 -84z" />
    <glyph glyph-name="acute" unicode="&#xb4;" horiz-adv-x="266" 
d="M167 550l-23 41q16 23 63.5 82t74.5 97q13 2 45 -41t19 -53q-99 -84 -179 -126z" />
    <glyph glyph-name="uni00B5" unicode="&#xb5;" horiz-adv-x="621" 
d="M89 -114v331l-1 256q0 -1 1 -1v1l115 -28v-344q2 -20 3 -21q20 -28 63 -18t95 57t76 103v251l115 -28v-479l-115 28v50q-80 -82 -148 -77q-25 1 -89 53v-161q0 -128 -168 -114q34 13 43.5 47t9.5 94z" />
    <glyph glyph-name="paragraph" unicode="&#xb6;" horiz-adv-x="692" 
d="M629 628l2 -657l-130 29v604q-54 3 -93 2l2 -635l-130 29v233q-37 -1 -69 7.5t-45 21.5q-92 82 -119 160q-13 37 13.5 82t84.5 82.5t132.5 62t169 21t182.5 -41.5z" />
    <glyph glyph-name="periodcentered" unicode="&#xb7;" horiz-adv-x="237" 
d="M142 210q-51 24 -76 73q2 16 30 41t45 29q51 -23 75 -71q-17 -43 -74 -72z" />
    <glyph glyph-name="cedilla" unicode="&#xb8;" horiz-adv-x="301" 
d="M120 -114l30 169l81 -19l-33 -117q8 1 19.5 3.5t18 4t15.5 2.5t14 1.5t10 0t8.5 -2.5t5.5 -5q10 -15 12 -41.5t-4 -53.5t-24.5 -48.5t-47.5 -24.5q-9 -1 -26.5 0.5t-51 10.5t-65.5 24l11 18q6 -1 19 -3t18 -2.5t15.5 0t23.5 3.5q21 4 35 34t-1 42q-3 2 -23.5 3t-39.5 1
h-20z" />
    <glyph glyph-name="onesuperior" unicode="&#xb9;" horiz-adv-x="187" 
d="M174 693v-314l-72 14v232l-26 -26l-67 28l93 86z" />
    <glyph glyph-name="ordmasculine" unicode="&#xba;" horiz-adv-x="452" 
d="M323 639q-35 25 -75 -14t-45.5 -89.5t30.5 -78.5q24 -11 47.5 -2.5t40 33.5t25.5 53t3.5 56t-26.5 42zM393 640q25 -22 30.5 -60t-8 -74.5t-38.5 -68t-61.5 -39.5t-76.5 10q-36 19 -68 45q-25 20 -36 47.5t-8.5 54t13.5 54t29.5 48.5t39.5 36t44.5 17t43.5 -8
q69 -38 96 -62z" />
    <glyph glyph-name="guillemotright" unicode="&#xbb;" horiz-adv-x="675" 
d="M67 119l175 143l-182 159l92 68l217 -204l-255 -218zM363 119l175 143l-182 159l92 68l217 -204l-255 -218z" />
    <glyph glyph-name="onequarter" unicode="&#xbc;" horiz-adv-x="831" 
d="M663 680l-413 -710l-90 31l411 712zM562 83l-70 76h-1v1h1l101 167l91 -22l-86 -145h116v222l101 -29l1 -383l-102 23v90h-152zM239 685l2 -382l-101 22v280l-47 -52l-83 29l130 132z" />
    <glyph glyph-name="onehalf" unicode="&#xbd;" horiz-adv-x="916" 
d="M847 288q43 -53 -87 -163q-15 -13 -61 -49h134l73 -77h-303l-72 77q101 74 147 110q113 90 73 134q-14 15 -50.5 -2.5t-68.5 -44.5t-42 -43l-69 78q25 29 100.5 76.5t103.5 24.5q78 -69 122 -121zM663 680l-413 -710l-90 31l411 712zM239 685l2 -382l-101 22v280l-47 -52
l-83 29l130 132z" />
    <glyph glyph-name="threequarters" unicode="&#xbe;" horiz-adv-x="841" 
d="M673 680l-413 -710l-90 31l411 712zM572 83l-70 76h-1v1h1l101 167l91 -22l-86 -145h116v222l101 -29l1 -383l-102 23v90h-152zM301 612q12 -16 3 -43.5t-37 -50.5q46 -28 61 -40q35 -28 1 -79q-34 -50 -97 -71q-72 -23 -125 20q-44 34 -87 99l32 18q48 -76 120 -71
q49 3 71 39q21 33 -7 65q-43 -21 -93 -22l-36 69q50 4 84 21.5t39 38t-8 39.5q-20 23 -55 2t-87 -71l-56 69q12 12 30.5 26.5t48 32t53.5 20t46 -10.5q62 -49 99 -100z" />
    <glyph glyph-name="questiondown" unicode="&#xbf;" horiz-adv-x="396" 
d="M257 477q51 -24 76 -73q-2 -16 -30 -41t-45 -29q-51 23 -75 71q17 43 74 72zM389 -88l78 -84q-33 -44 -111.5 -69.5t-117.5 -1.5q-48 29 -107.5 95t-69.5 94q-5 13 -4.5 28.5t4 30t12 32.5t17.5 33t23.5 35t26 34t30 35t30 33.5t30.5 33t28 30.5l94 -81l-3 -3
q-11 -11 -20.5 -20t-31.5 -31.5t-38.5 -43t-37.5 -47.5t-33.5 -51t-21 -48.5t-5.5 -45t18 -35.5q27 -24 68 -19.5t80.5 24t61.5 42.5z" />
    <glyph glyph-name="Agrave" unicode="&#xc0;" horiz-adv-x="657" 
d="M390 625l-1 -3l268 -651l-129 29l-70 183l-236 -16l-72 -196l-140 29l242 666zM340 490l-86 -236l172 12zM367 752l-23 -41q-80 42 -179 126q-13 10 19 53t45 41q27 -38 74.5 -97t63.5 -82z" />
    <glyph glyph-name="Aacute" unicode="&#xc1;" horiz-adv-x="657" 
d="M390 625l-1 -3l268 -651l-129 29l-70 183l-236 -16l-72 -196l-140 29l242 666zM340 490l-86 -236l172 12zM252 709l-23 41q16 23 63.5 82t74.5 97q13 2 45 -41t19 -53q-99 -84 -179 -126z" />
    <glyph glyph-name="Acircumflex" unicode="&#xc2;" horiz-adv-x="657" 
d="M390 625l-1 -3l268 -651l-129 29l-70 183l-236 -16l-72 -196l-140 29l242 666zM340 490l-86 -236l172 12zM182 709q-6 1 -24.5 21t-19.5 24q0 4 91.5 81.5t95.5 76.5q7 -2 90 -70t82 -73q0 -5 -36 -34.5t-40 -27.5q-6 0 -33 26t-56 55.5t-30 30.5q-1 -1 -58 -54.5
t-62 -55.5z" />
    <glyph glyph-name="Atilde" unicode="&#xc3;" horiz-adv-x="657" 
d="M390 625l-1 -3l268 -651l-129 29l-70 183l-236 -16l-72 -196l-140 29l242 666zM340 490l-86 -236l172 12zM231 892q14 -2 62 -47t58 -45q13 0 53 44.5t42 44.5q5 -1 39 -36.5t35 -40.5q1 -4 -22 -27.5t-57 -47t-56 -23.5q-15 0 -67 44t-58 44q-18 -1 -57 -43t-42 -43
q-7 2 -36.5 42.5t-29.5 48.5q2 8 60 47.5t76 37.5z" />
    <glyph glyph-name="Adieresis" unicode="&#xc4;" horiz-adv-x="657" 
d="M390 625l-1 -3l268 -651l-129 29l-70 183l-236 -16l-72 -196l-140 29l242 666zM340 490l-86 -236l172 12zM405 711q-42 19 -65 63q1 14 25.5 36t39.5 25q46 -21 64 -62q-13 -36 -64 -62zM228 711q-42 19 -65 63q1 14 25.5 36t39.5 25q46 -21 64 -62q-13 -36 -64 -62z" />
    <glyph glyph-name="Aring" unicode="&#xc5;" horiz-adv-x="657" 
d="M390 625l-1 -3l268 -651l-129 29l-70 183l-236 -16l-72 -196l-140 29l242 666zM340 490l-86 -236l172 12zM347 890q-28 17 -56.5 -8t-30.5 -59t27 -55q18 -8 35 -2.5t28.5 22t17.5 35.5t0.5 38t-21.5 29zM408 900q22 -19 27.5 -49t-4.5 -58.5t-30.5 -52t-51 -29
t-64.5 9.5q-33 17 -53 34q-29 23 -37 55.5t3.5 60t32 51.5t48 30t53.5 -5q48 -25 76 -47z" />
    <glyph glyph-name="AE" unicode="&#xc6;" horiz-adv-x="1029" 
d="M355 271l112 7v159zM934 90l80 -90h-417l-2 2l-128 27v164l-172 -11l-142 -211l-130 29l443 666h1v1h427l80 -90h-369v-192h249l80 -90h-328v-205h328z" />
    <glyph glyph-name="Ccedilla" unicode="&#xc7;" horiz-adv-x="718" 
d="M436 -24l-16 -57q8 1 19.5 3.5t18 4t15.5 2.5t14 1.5t10 0t8.5 -2.5t5.5 -5q10 -15 12 -41.5t-4 -53.5t-24.5 -48.5t-47.5 -24.5q-9 -1 -26.5 0.5t-51 10.5t-65.5 24l11 18q6 -1 19 -3t18 -2.5t15.5 0t23.5 3.5q21 4 35 34t-1 42q-3 2 -23.5 3t-39.5 1h-20l20 113l-11 6
q-99 58 -190 141q-41 38 -63.5 83.5t-25.5 91t6 93.5t32.5 90t53 80t67.5 64.5t77 44t80.5 16.5t78.5 -16q150 -69 236 -112l-49 -54q-79 42 -146 71q-53 23 -113.5 -5t-102.5 -89t-65 -133t-1.5 -146t89.5 -119q36 -24 75.5 -28t78.5 11t69 33t66 45l121 -89
q-63 -53 -140 -82.5t-149 -19.5z" />
    <glyph glyph-name="Egrave" unicode="&#xc8;" horiz-adv-x="647" 
d="M215 0l-2 2l-128 27v638h427l80 -90h-369v-192h249l80 -90h-328v-205h328l80 -90h-417zM367 752l-23 -41q-80 42 -179 126q-13 10 19 53t45 41q27 -38 74.5 -97t63.5 -82z" />
    <glyph glyph-name="Eacute" unicode="&#xc9;" horiz-adv-x="647" 
d="M215 0l-2 2l-128 27v638h427l80 -90h-369v-192h249l80 -90h-328v-205h328l80 -90h-417zM287 709l-23 41q16 23 63.5 82t74.5 97q13 2 45 -41t19 -53q-99 -84 -179 -126z" />
    <glyph glyph-name="Ecircumflex" unicode="&#xca;" horiz-adv-x="647" 
d="M215 0l-2 2l-128 27v638h427l80 -90h-369v-192h249l80 -90h-328v-205h328l80 -90h-417zM184 712q-6 1 -24.5 21t-19.5 24q0 4 91.5 81.5t95.5 76.5q7 -2 90 -70t82 -73q0 -5 -36 -34.5t-40 -27.5q-6 0 -33 26t-56 55.5t-30 30.5q-1 -1 -58 -54.5t-62 -55.5z" />
    <glyph glyph-name="Edieresis" unicode="&#xcb;" horiz-adv-x="647" 
d="M215 0l-2 2l-128 27v638h427l80 -90h-369v-192h249l80 -90h-328v-205h328l80 -90h-417zM412 711q-42 19 -65 63q1 14 25.5 36t39.5 25q46 -21 64 -62q-13 -36 -64 -62zM235 711q-42 19 -65 63q1 14 25.5 36t39.5 25q46 -21 64 -62q-13 -36 -64 -62z" />
    <glyph glyph-name="Igrave" unicode="&#xcc;" horiz-adv-x="300" 
d="M233 625l2 -654l-150 29v666zM227 748l-23 -41q-80 42 -179 126q-13 10 19 53t45 41q27 -38 74.5 -97t63.5 -82z" />
    <glyph glyph-name="Iacute" unicode="&#xcd;" horiz-adv-x="300" 
d="M233 625l2 -654l-150 29v666zM91 709l-23 41q16 23 63.5 82t74.5 97q13 2 45 -41t19 -53q-99 -84 -179 -126z" />
    <glyph glyph-name="Icircumflex" unicode="&#xce;" horiz-adv-x="300" 
d="M233 625l2 -654l-150 29v666zM14 710q-6 1 -24.5 21t-19.5 24q0 4 91.5 81.5t95.5 76.5q7 -2 90 -70t82 -73q0 -5 -36 -34.5t-40 -27.5q-6 0 -33 26t-56 55.5t-30 30.5q-1 -1 -58 -54.5t-62 -55.5z" />
    <glyph glyph-name="Idieresis" unicode="&#xcf;" horiz-adv-x="300" 
d="M233 625l2 -654l-150 29v666zM234 711q-42 19 -65 63q1 14 25.5 36t39.5 25q46 -21 64 -62q-13 -36 -64 -62zM57 711q-42 19 -65 63q1 14 25.5 36t39.5 25q46 -21 64 -62q-13 -36 -64 -62z" />
    <glyph glyph-name="Eth" unicode="&#xd0;" horiz-adv-x="809" 
d="M224 311l1 -250q69 -9 132 10.5t108 58.5t76 90.5t40.5 103.5t-3.5 101t-51 81q-35 29 -73.5 45t-83 18.5t-72.5 0.5t-75 -8l1 -183l45 8l67 -55zM86 665v1q43 14 177 16t174 -19q105 -73 275 -268q10 -12 16 -46t0 -82t-24 -97t-63 -95t-110 -71q-60 -21 -145 -20.5
t-161 17.5h-1l-139 29v255l-38 -7l-70 58l108 19v311z" />
    <glyph glyph-name="Ntilde" unicode="&#xd1;" horiz-adv-x="762" 
d="M687 626v-655l-140 29l-324 458l2 -487l-140 29v666l138 -40l324 -453v493zM295 886q14 -2 62 -47t58 -45q13 0 53 44.5t42 44.5q5 -1 39 -36.5t35 -40.5q1 -4 -22 -27.5t-57 -47t-56 -23.5q-15 0 -67 44t-58 44q-18 -1 -57 -43t-42 -43q-7 2 -36.5 42.5t-29.5 48.5
q2 8 60 47.5t76 37.5z" />
    <glyph glyph-name="Ograve" unicode="&#xd2;" horiz-adv-x="823" 
d="M531 572q-100 66 -198 -7q-79 -60 -115 -173q-39 -126 8 -217q23 -46 68 -73q101 -61 198 14q79 61 113 175q37 126 -14 216q-22 40 -60 65zM687 523q38 -37 57 -87.5t18.5 -103t-17 -106.5t-45 -100.5t-68.5 -83t-86 -55.5t-100 -16t-106 33q-8 5 -28.5 16t-29 15.5
t-25.5 15t-28.5 19t-28 21t-33.5 27.5t-36 34q-37 35 -54.5 84t-16 101t17.5 105.5t44.5 101t67.5 85t82.5 59t93.5 21.5t98 -26q130 -70 223 -160zM527 779l-23 -41q-80 42 -179 126q-13 10 19 53t45 41q27 -38 74.5 -97t63.5 -82z" />
    <glyph glyph-name="Oacute" unicode="&#xd3;" horiz-adv-x="823" 
d="M531 572q-100 66 -198 -7q-79 -60 -115 -173q-39 -126 8 -217q23 -46 68 -73q101 -61 198 14q79 61 113 175q37 126 -14 216q-22 40 -60 65zM687 523q38 -37 57 -87.5t18.5 -103t-17 -106.5t-45 -100.5t-68.5 -83t-86 -55.5t-100 -16t-106 33q-8 5 -28.5 16t-29 15.5
t-25.5 15t-28.5 19t-28 21t-33.5 27.5t-36 34q-37 35 -54.5 84t-16 101t17.5 105.5t44.5 101t67.5 85t82.5 59t93.5 21.5t98 -26q130 -70 223 -160zM465 744l-23 41q16 23 63.5 82t74.5 97q13 2 45 -41t19 -53q-99 -84 -179 -126z" />
    <glyph glyph-name="Ocircumflex" unicode="&#xd4;" horiz-adv-x="823" 
d="M531 572q-100 66 -198 -7q-79 -60 -115 -173q-39 -126 8 -217q23 -46 68 -73q101 -61 198 14q79 61 113 175q37 126 -14 216q-22 40 -60 65zM687 523q38 -37 57 -87.5t18.5 -103t-17 -106.5t-45 -100.5t-68.5 -83t-86 -55.5t-100 -16t-106 33q-8 5 -28.5 16t-29 15.5
t-25.5 15t-28.5 19t-28 21t-33.5 27.5t-36 34q-37 35 -54.5 84t-16 101t17.5 105.5t44.5 101t67.5 85t82.5 59t93.5 21.5t98 -26q130 -70 223 -160zM303 742q-6 1 -24.5 21t-19.5 24q0 4 91.5 81.5t95.5 76.5q7 -2 90 -70t82 -73q0 -5 -36 -34.5t-40 -27.5q-6 0 -33 26
t-56 55.5t-30 30.5q-1 -1 -58 -54.5t-62 -55.5z" />
    <glyph glyph-name="Otilde" unicode="&#xd5;" horiz-adv-x="823" 
d="M531 572q-100 66 -198 -7q-79 -60 -115 -173q-39 -126 8 -217q23 -46 68 -73q101 -61 198 14q79 61 113 175q37 126 -14 216q-22 40 -60 65zM687 523q38 -37 57 -87.5t18.5 -103t-17 -106.5t-45 -100.5t-68.5 -83t-86 -55.5t-100 -16t-106 33q-8 5 -28.5 16t-29 15.5
t-25.5 15t-28.5 19t-28 21t-33.5 27.5t-36 34q-37 35 -54.5 84t-16 101t17.5 105.5t44.5 101t67.5 85t82.5 59t93.5 21.5t98 -26q130 -70 223 -160zM360 918q14 -2 62 -47t58 -45q13 0 53 44.5t42 44.5q5 -1 39 -36.5t35 -40.5q1 -4 -22 -27.5t-57 -47t-56 -23.5
q-15 0 -67 44t-58 44q-18 -1 -57 -43t-42 -43q-7 2 -36.5 42.5t-29.5 48.5q2 8 60 47.5t76 37.5z" />
    <glyph glyph-name="Odieresis" unicode="&#xd6;" horiz-adv-x="823" 
d="M531 572q-100 66 -198 -7q-79 -60 -115 -173q-39 -126 8 -217q23 -46 68 -73q101 -61 198 14q79 61 113 175q37 126 -14 216q-22 40 -60 65zM687 523q38 -37 57 -87.5t18.5 -103t-17 -106.5t-45 -100.5t-68.5 -83t-86 -55.5t-100 -16t-106 33q-8 5 -28.5 16t-29 15.5
t-25.5 15t-28.5 19t-28 21t-33.5 27.5t-36 34q-37 35 -54.5 84t-16 101t17.5 105.5t44.5 101t67.5 85t82.5 59t93.5 21.5t98 -26q130 -70 223 -160zM532 747q-42 19 -65 63q1 14 25.5 36t39.5 25q46 -21 64 -62q-13 -36 -64 -62zM355 747q-42 19 -65 63q1 14 25.5 36
t39.5 25q46 -21 64 -62q-13 -36 -64 -62z" />
    <glyph glyph-name="multiply" unicode="&#xd7;" horiz-adv-x="554" 
d="M443 146l-153 146l-135 -150l-86 58l148 162l-155 149l40 34l151 -144l146 158l83 -55l-156 -173l153 -145z" />
    <glyph glyph-name="Oslash" unicode="&#xd8;" horiz-adv-x="823" 
d="M600 489l-300 -390q48 -26 96.5 -22t87 33t71 73.5t47.5 98t17.5 107t-19.5 100.5zM536 569l-5 3q-52 35 -100.5 30t-91 -33t-74 -78t-49 -104t-15.5 -112.5t26 -102.5zM705 625l-53 -69q6 -6 17.5 -17t17.5 -16q38 -37 57 -87.5t18.5 -103t-17 -106.5t-45 -100.5
t-68.5 -83t-86 -55.5t-100 -16t-106 33q-70 39 -79 44l-59 -77l-86 58l62 80q-28 24 -47 43q-37 35 -54.5 84t-16 101t17.5 105.5t44.5 101t67.5 85t82.5 59t93.5 21.5t98 -26q70 -38 109 -66l49 63z" />
    <glyph glyph-name="Ugrave" unicode="&#xd9;" horiz-adv-x="666" 
d="M358 751l-23 -41q-80 42 -179 126q-13 10 19 53t45 41q27 -38 74.5 -97t63.5 -82zM492 667l139 -41v-468q0 -57 -88 -122.5t-187 -65.5q-59 0 -146 60t-160 141q-1 1 -2 16t-1.5 39t-1 56t-0.5 67v72.5t0.5 72t0.5 66.5t0.5 55t0.5 37v15q0 -1 34.5 -11t68.5 -20l35 -10
q-4 -502 1 -508q41 -44 105.5 -45.5t121.5 33.5t79 90v471z" />
    <glyph glyph-name="Uacute" unicode="&#xda;" horiz-adv-x="666" 
d="M285 713l-23 41q16 23 63.5 82t74.5 97q13 2 45 -41t19 -53q-99 -84 -179 -126zM492 667l139 -41v-468q0 -57 -88 -122.5t-187 -65.5q-59 0 -146 60t-160 141q-1 1 -2 16t-1.5 39t-1 56t-0.5 67v72.5t0.5 72t0.5 66.5t0.5 55t0.5 37v15q0 -1 34.5 -11t68.5 -20l35 -10
q-4 -502 1 -508q41 -44 105.5 -45.5t121.5 33.5t79 90v471z" />
    <glyph glyph-name="Ucircumflex" unicode="&#xdb;" horiz-adv-x="666" 
d="M183 714q-6 1 -24.5 21t-19.5 24q0 4 91.5 81.5t95.5 76.5q7 -2 90 -70t82 -73q0 -5 -36 -34.5t-40 -27.5q-6 0 -33 26t-56 55.5t-30 30.5q-1 -1 -58 -54.5t-62 -55.5zM492 667l139 -41v-468q0 -57 -88 -122.5t-187 -65.5q-59 0 -146 60t-160 141q-1 1 -2 16t-1.5 39
t-1 56t-0.5 67v72.5t0.5 72t0.5 66.5t0.5 55t0.5 37v15q0 -1 34.5 -11t68.5 -20l35 -10q-4 -502 1 -508q41 -44 105.5 -45.5t121.5 33.5t79 90v471z" />
    <glyph glyph-name="Udieresis" unicode="&#xdc;" horiz-adv-x="666" 
d="M406 712q-42 19 -65 63q1 14 25.5 36t39.5 25q46 -21 64 -62q-13 -36 -64 -62zM229 712q-42 19 -65 63q1 14 25.5 36t39.5 25q46 -21 64 -62q-13 -36 -64 -62zM492 667l139 -41v-468q0 -57 -88 -122.5t-187 -65.5q-59 0 -146 60t-160 141q-1 1 -2 16t-1.5 39t-1 56
t-0.5 67v72.5t0.5 72t0.5 66.5t0.5 55t0.5 37v15q0 -1 34.5 -11t68.5 -20l35 -10q-4 -502 1 -508q41 -44 105.5 -45.5t121.5 33.5t79 90v471z" />
    <glyph glyph-name="Yacute" unicode="&#xdd;" horiz-adv-x="591" 
d="M125 638l172 -271l164 299l139 -29l-216 -393l2 -273l-140 29v275l-246 392zM238 710l-23 41q16 23 63.5 82t74.5 97q13 2 45 -41t19 -53q-99 -84 -179 -126z" />
    <glyph glyph-name="Thorn" unicode="&#xde;" horiz-adv-x="565" 
d="M188 682v-109q124 41 233 -30q52 -34 81.5 -78t33.5 -86.5t-6 -85.5t-35 -77.5t-55 -60t-65.5 -36t-67.5 -2.5q-34 8 -119 43v-189l-125 28v711zM376 281q31 45 41 88t2 74t-30.5 50t-53.5 21t-70.5 -18.5t-76.5 -62.5v-218q118 -34 188 66z" />
    <glyph glyph-name="germandbls" unicode="&#xdf;" horiz-adv-x="586" 
d="M275 363q10 11 32.5 35.5t31.5 35t24 29.5t18.5 30.5t6 27t-5 28t-22.5 25.5q-16 14 -43 17t-53 -6.5t-44.5 -38t-18.5 -71.5l2 -504l-127 29q1 408 0 513q0 49 21.5 86t53 54.5t66.5 26t62 6.5t39 -9q45 -29 109 -87t75 -92q20 -60 -100 -180q13 -8 37.5 -22.5t43.5 -26
t28 -18.5q49 -39 55.5 -90t-19.5 -92t-74 -69.5t-99 -28.5q-38 0 -147 103l20 37q40 -28 78 -30.5t62 17.5t37 48t4.5 62.5t-37.5 60.5q-17 15 -45 36.5t-47 36.5t-24 21z" />
    <glyph glyph-name="agrave" unicode="&#xe0;" horiz-adv-x="580" 
d="M120 351l-54 91q70 18 155.5 34t107.5 15t88 -65.5t89 -98.5q8 -12 8 -80.5t-2.5 -156.5t-1.5 -119l-124 29l1 51q-81 -81 -132 -81q-48 1 -122 91t-74 129q0 31 42 57t102.5 40.5t107.5 22.5t80 11l1 27q1 48 -51 52q-48 3 -202 -43h-1l-1 -1h-1h-1l-1 -1h-1h-1l-1 -1
h-1h-1l-1 -1h-1h-1h-1l-1 -1h-1h-1l-1 -1h-1zM170 100q9 -14 34 -18t75.5 13.5t109.5 61.5l1 88q-264 -77 -220 -145zM371 591l-23 -41q-80 42 -179 126q-13 10 19 53t45 41q27 -38 74.5 -97t63.5 -82z" />
    <glyph glyph-name="aacute" unicode="&#xe1;" horiz-adv-x="580" 
d="M120 351l-54 91q70 18 155.5 34t107.5 15t88 -65.5t89 -98.5q8 -12 8 -80.5t-2.5 -156.5t-1.5 -119l-124 29l1 51q-81 -81 -132 -81q-48 1 -122 91t-74 129q0 31 42 57t102.5 40.5t107.5 22.5t80 11l1 27q1 48 -51 52q-48 3 -202 -43h-1l-1 -1h-1h-1l-1 -1h-1h-1l-1 -1
h-1h-1l-1 -1h-1h-1h-1l-1 -1h-1h-1l-1 -1h-1zM170 100q9 -14 34 -18t75.5 13.5t109.5 61.5l1 88q-264 -77 -220 -145zM286 550l-23 41q16 23 63.5 82t74.5 97q13 2 45 -41t19 -53q-99 -84 -179 -126z" />
    <glyph glyph-name="acircumflex" unicode="&#xe2;" horiz-adv-x="580" 
d="M120 351l-54 91q70 18 155.5 34t107.5 15t88 -65.5t89 -98.5q8 -12 8 -80.5t-2.5 -156.5t-1.5 -119l-124 29l1 51q-81 -81 -132 -81q-48 1 -122 91t-74 129q0 31 42 57t102.5 40.5t107.5 22.5t80 11l1 27q1 48 -51 52q-48 3 -202 -43h-1l-1 -1h-1h-1l-1 -1h-1h-1l-1 -1
h-1h-1l-1 -1h-1h-1h-1l-1 -1h-1h-1l-1 -1h-1zM170 100q9 -14 34 -18t75.5 13.5t109.5 61.5l1 88q-264 -77 -220 -145zM182 551q-6 1 -24.5 21t-19.5 24q0 4 91.5 81.5t95.5 76.5q7 -2 90 -70t82 -73q0 -5 -36 -34.5t-40 -27.5q-6 0 -33 26t-56 55.5t-30 30.5
q-1 -1 -58 -54.5t-62 -55.5z" />
    <glyph glyph-name="atilde" unicode="&#xe3;" horiz-adv-x="580" 
d="M120 351l-54 91q70 18 155.5 34t107.5 15t88 -65.5t89 -98.5q8 -12 8 -80.5t-2.5 -156.5t-1.5 -119l-124 29l1 51q-81 -81 -132 -81q-48 1 -122 91t-74 129q0 31 42 57t102.5 40.5t107.5 22.5t80 11l1 27q1 48 -51 52q-48 3 -202 -43h-1l-1 -1h-1h-1l-1 -1h-1h-1l-1 -1
h-1h-1l-1 -1h-1h-1h-1l-1 -1h-1h-1l-1 -1h-1zM170 100q9 -14 34 -18t75.5 13.5t109.5 61.5l1 88q-264 -77 -220 -145zM229 717q14 -2 62 -47t58 -45q13 0 53 44.5t42 44.5q5 -1 39 -36.5t35 -40.5q1 -4 -22 -27.5t-57 -47t-56 -23.5q-15 0 -67 44t-58 44q-18 -1 -57 -43
t-42 -43q-7 2 -36.5 42.5t-29.5 48.5q2 8 60 47.5t76 37.5z" />
    <glyph glyph-name="adieresis" unicode="&#xe4;" horiz-adv-x="580" 
d="M120 351l-54 91q70 18 155.5 34t107.5 15t88 -65.5t89 -98.5q8 -12 8 -80.5t-2.5 -156.5t-1.5 -119l-124 29l1 51q-81 -81 -132 -81q-48 1 -122 91t-74 129q0 31 42 57t102.5 40.5t107.5 22.5t80 11l1 27q1 48 -51 52q-48 3 -202 -43h-1l-1 -1h-1h-1l-1 -1h-1h-1l-1 -1
h-1h-1l-1 -1h-1h-1h-1l-1 -1h-1h-1l-1 -1h-1zM170 100q9 -14 34 -18t75.5 13.5t109.5 61.5l1 88q-264 -77 -220 -145zM400 552q-42 19 -65 63q1 14 25.5 36t39.5 25q46 -21 64 -62q-13 -36 -64 -62zM223 552q-42 19 -65 63q1 14 25.5 36t39.5 25q46 -21 64 -62
q-13 -36 -64 -62z" />
    <glyph glyph-name="aring" unicode="&#xe5;" horiz-adv-x="580" 
d="M120 351l-54 91q70 18 155.5 34t107.5 15t88 -65.5t89 -98.5q8 -12 8 -80.5t-2.5 -156.5t-1.5 -119l-124 29l1 51q-81 -81 -132 -81q-48 1 -122 91t-74 129q0 31 42 57t102.5 40.5t107.5 22.5t80 11l1 27q1 48 -51 52q-48 3 -202 -43h-1l-1 -1h-1h-1l-1 -1h-1h-1l-1 -1
h-1h-1l-1 -1h-1h-1h-1l-1 -1h-1h-1l-1 -1h-1zM170 100q9 -14 34 -18t75.5 13.5t109.5 61.5l1 88q-264 -77 -220 -145zM335 725q-28 17 -56.5 -8t-30.5 -59t27 -55q18 -8 35 -2.5t28.5 22t17.5 35.5t0.5 38t-21.5 29zM396 735q22 -19 27.5 -49t-4.5 -58.5t-30.5 -52t-51 -29
t-64.5 9.5q-33 17 -53 34q-29 23 -37 55.5t3.5 60t32 51.5t48 30t53.5 -5q48 -25 76 -47z" />
    <glyph glyph-name="ae" unicode="&#xe6;" horiz-adv-x="920" 
d="M120 351l-54 91q70 18 155.5 34t107.5 15q30 -3 122 -101q65 99 165 99q40 0 118.5 -51.5t130.5 -100.5q-1 -3 -82 -61.5t-161 -115.5l-81 -56q7 -10 26.5 -26t34.5 -19q41 -8 98.5 20t111.5 73l20 -20l38 -42l20 -20q-87 -64 -147 -85.5t-119 0.5q-53 20 -114 70
q-2 -52 0 -84l-114 29l1 62q-87 -92 -142 -92q-48 1 -122 91t-74 129q0 33 49.5 61t114.5 42t114 21.5t64 7.5l1 26q0 21 -9 34t-30.5 15.5t-42.5 2t-59.5 -9.5t-65.5 -16.5t-75 -22.5zM170 100q51 -74 229 65l1 83q-141 -31 -193 -61q-70 -39 -37 -87zM647 412
q-46 0 -85 -56t-48 -125v-32l248 159q-78 54 -115 54z" />
    <glyph glyph-name="ccedilla" unicode="&#xe7;" horiz-adv-x="535" 
d="M310 -27l-15 -53q8 1 19.5 3.5t18 4t15.5 2.5t14 1.5t10 0t8.5 -2.5t5.5 -5q10 -15 12 -41.5t-4 -53.5t-24.5 -48.5t-47.5 -24.5q-9 -1 -26.5 0.5t-51 10.5t-65.5 24l11 18q6 -1 19 -3t18 -2.5t15.5 0t23.5 3.5q21 4 35 34t-1 42q-3 2 -23.5 3t-40.5 1h-19l19 108
q-80 39 -140 106q-45 50 -49.5 118.5t24 127.5t84.5 100.5t122 41.5q31 0 200 -79l-36 -52q-15 5 -35 12.5t-31 11t-24 7.5t-21.5 5.5t-15.5 1.5q-65 -3 -110 -84q-43 -78 -33 -157q9 -79 70 -88q71 -10 190 82l19 -22q20 -22 39 -45l19 -22q-63 -47 -108.5 -68.5
t-89.5 -18.5z" />
    <glyph glyph-name="egrave" unicode="&#xe8;" horiz-adv-x="563" 
d="M170 199l227 155q-72 46 -122.5 34t-77.5 -62.5t-27 -126.5zM193 103q28 -34 63 -42t73.5 9.5t64.5 35t61 46.5l19 -20l40 -42l19 -20q-87 -64 -147 -85.5t-119 0.5q-86 33 -162 116q-45 50 -52 118.5t17.5 127.5t76 100.5t112.5 41.5q40 0 118.5 -51.5t130.5 -100.5
q-1 -3 -79.5 -61.5t-156.5 -115.5zM334 591l-23 -41q-80 42 -179 126q-13 10 19 53t45 41q27 -38 74.5 -97t63.5 -82z" />
    <glyph glyph-name="eacute" unicode="&#xe9;" horiz-adv-x="558" 
d="M165 199l227 155q-72 46 -122.5 34t-77.5 -62.5t-27 -126.5zM188 103q28 -34 63 -42t73.5 9.5t64.5 35t61 46.5l20 -20l38 -42l20 -20q-87 -64 -147 -85.5t-119 0.5q-86 33 -162 116q-45 50 -52 118.5t17.5 127.5t76 100.5t112.5 41.5q40 0 118.5 -51.5t130.5 -100.5
q-1 -3 -79.5 -61.5t-157.5 -115.5zM243 550l-23 41q16 23 63.5 82t74.5 97q13 2 45 -41t19 -53q-99 -84 -179 -126z" />
    <glyph glyph-name="ecircumflex" unicode="&#xea;" horiz-adv-x="558" 
d="M165 199l227 155q-72 46 -122.5 34t-77.5 -62.5t-27 -126.5zM188 103q28 -34 63 -42t73.5 9.5t64.5 35t61 46.5l20 -20l38 -42l20 -20q-87 -64 -147 -85.5t-119 0.5q-86 33 -162 116q-45 50 -52 118.5t17.5 127.5t76 100.5t112.5 41.5q40 0 118.5 -51.5t130.5 -100.5
q-1 -3 -79.5 -61.5t-157.5 -115.5zM147 551q-6 1 -24.5 21t-19.5 24q0 4 91.5 81.5t95.5 76.5q7 -2 90 -70t82 -73q0 -5 -36 -34.5t-40 -27.5q-6 0 -33 26t-56 55.5t-30 30.5q-1 -1 -58 -54.5t-62 -55.5z" />
    <glyph glyph-name="edieresis" unicode="&#xeb;" horiz-adv-x="558" 
d="M165 199l227 155q-72 46 -122.5 34t-77.5 -62.5t-27 -126.5zM188 103q28 -34 63 -42t73.5 9.5t64.5 35t61 46.5l20 -20l38 -42l20 -20q-87 -64 -147 -85.5t-119 0.5q-86 33 -162 116q-45 50 -52 118.5t17.5 127.5t76 100.5t112.5 41.5q40 0 118.5 -51.5t130.5 -100.5
q-1 -3 -79.5 -61.5t-157.5 -115.5zM372 552q-42 19 -65 63q1 14 25.5 36t39.5 25q46 -21 64 -62q-13 -36 -64 -62zM195 552q-42 19 -65 63q1 14 25.5 36t39.5 25q46 -21 64 -62q-13 -36 -64 -62z" />
    <glyph glyph-name="igrave" unicode="&#xec;" horiz-adv-x="241" 
d="M178 450v-479l-115 28v479zM207 591l-23 -41q-80 42 -179 126q-13 10 19 53t45 41q27 -38 74.5 -97t63.5 -82z" />
    <glyph glyph-name="iacute" unicode="&#xed;" horiz-adv-x="241" 
d="M178 450v-479l-115 28v479zM49 550l-23 41q16 23 63.5 82t74.5 97q13 2 45 -41t19 -53q-99 -84 -179 -126z" />
    <glyph glyph-name="icircumflex" unicode="&#xee;" horiz-adv-x="241" 
d="M178 450v-479l-115 28v479zM-8 551q-6 1 -24.5 21t-19.5 24q0 4 91.5 81.5t95.5 76.5q7 -2 90 -70t82 -73q0 -5 -36 -34.5t-40 -27.5q-6 0 -33 26t-56 55.5t-30 30.5q-1 -1 -58 -54.5t-62 -55.5z" />
    <glyph glyph-name="idieresis" unicode="&#xef;" horiz-adv-x="241" 
d="M178 450v-479l-115 28v479zM207 552q-42 19 -65 63q1 14 25.5 36t39.5 25q46 -21 64 -62q-13 -36 -64 -62zM30 552q-42 19 -65 63q1 14 25.5 36t39.5 25q46 -21 64 -62q-13 -36 -64 -62z" />
    <glyph glyph-name="eth" unicode="&#xf0;" horiz-adv-x="604" 
d="M242 642l95 68q53 -39 92 -92l66 22l67 -55l-90 -31q47 -82 67.5 -175.5t12.5 -177.5q-10 -102 -62 -165.5t-140 -63.5q-73 0 -157.5 67.5t-116.5 130.5q-21 40 20 113t103 125t95 41q40 -14 115 -61q-17 65 -53 127l-65 -22l-70 58l88 28q-36 39 -67 63zM424 245
q2 37 -3 77q-110 51 -178 -21q-49 -51 -49 -128q1 -73 47 -98q2 -1 3 -2q66 -32 120 14t60 158z" />
    <glyph glyph-name="ntilde" unicode="&#xf1;" horiz-adv-x="597" 
d="M153 531q-7 2 -36.5 42.5t-29.5 48.5q2 8 60 47.5t76 37.5q14 -2 62 -47t58 -45q13 0 53 44.5t42 44.5q5 -1 39 -36.5t35 -40.5q1 -4 -22 -27.5t-57 -47t-56 -23.5q-15 0 -67 44t-58 44q-18 -1 -57 -43t-42 -43zM193 450v-41q89 83 156 79q32 -2 112.5 -79.5t85.5 -105.5
q4 -26 4 -332l-124 28q6 343 -5 363q-18 34 -59.5 20.5t-86 -48.5t-83.5 -82v-281l-130 28v479z" />
    <glyph glyph-name="ograve" unicode="&#xf2;" horiz-adv-x="590" 
d="M381 377q-66 45 -137 -14q-59 -50 -79 -133q-22 -95 34 -143q7 -6 15 -11q40 -22 82.5 -10t74 53t49.5 87.5t9 95t-48 75.5zM481 369q29 -26 45 -62.5t18.5 -74.5t-7 -77t-28.5 -73t-47.5 -60.5t-62.5 -40t-75.5 -10.5t-84.5 26q-56 30 -110 76q-43 37 -64 83.5
t-19.5 90.5t17 88t45 76t64.5 54.5t75.5 23.5t78.5 -17q97 -51 155 -103zM404 591l-23 -41q-80 42 -179 126q-13 10 19 53t45 41q27 -38 74.5 -97t63.5 -82z" />
    <glyph glyph-name="oacute" unicode="&#xf3;" horiz-adv-x="590" 
d="M381 377q-66 45 -137 -14q-59 -50 -79 -133q-22 -95 34 -143q7 -6 15 -11q40 -22 82.5 -10t74 53t49.5 87.5t9 95t-48 75.5zM481 369q29 -26 45 -62.5t18.5 -74.5t-7 -77t-28.5 -73t-47.5 -60.5t-62.5 -40t-75.5 -10.5t-84.5 26q-56 30 -110 76q-43 37 -64 83.5
t-19.5 90.5t17 88t45 76t64.5 54.5t75.5 23.5t78.5 -17q97 -51 155 -103zM304 550l-23 41q16 23 63.5 82t74.5 97q13 2 45 -41t19 -53q-99 -84 -179 -126z" />
    <glyph glyph-name="ocircumflex" unicode="&#xf4;" horiz-adv-x="590" 
d="M381 377q-66 45 -137 -14q-59 -50 -79 -133q-22 -95 34 -143q7 -6 15 -11q40 -22 82.5 -10t74 53t49.5 87.5t9 95t-48 75.5zM481 369q29 -26 45 -62.5t18.5 -74.5t-7 -77t-28.5 -73t-47.5 -60.5t-62.5 -40t-75.5 -10.5t-84.5 26q-56 30 -110 76q-43 37 -64 83.5
t-19.5 90.5t17 88t45 76t64.5 54.5t75.5 23.5t78.5 -17q97 -51 155 -103zM188 551q-6 1 -24.5 21t-19.5 24q0 4 91.5 81.5t95.5 76.5q7 -2 90 -70t82 -73q0 -5 -36 -34.5t-40 -27.5q-6 0 -33 26t-56 55.5t-30 30.5q-1 -1 -58 -54.5t-62 -55.5z" />
    <glyph glyph-name="otilde" unicode="&#xf5;" horiz-adv-x="590" 
d="M381 377q-66 45 -137 -14q-59 -50 -79 -133q-22 -95 34 -143q7 -6 15 -11q40 -22 82.5 -10t74 53t49.5 87.5t9 95t-48 75.5zM481 369q29 -26 45 -62.5t18.5 -74.5t-7 -77t-28.5 -73t-47.5 -60.5t-62.5 -40t-75.5 -10.5t-84.5 26q-56 30 -110 76q-43 37 -64 83.5
t-19.5 90.5t17 88t45 76t64.5 54.5t75.5 23.5t78.5 -17q97 -51 155 -103zM233 717q14 -2 62 -47t58 -45q13 0 53 44.5t42 44.5q5 -1 39 -36.5t35 -40.5q1 -4 -22 -27.5t-57 -47t-56 -23.5q-15 0 -67 44t-58 44q-18 -1 -57 -43t-42 -43q-7 2 -36.5 42.5t-29.5 48.5
q2 8 60 47.5t76 37.5z" />
    <glyph glyph-name="odieresis" unicode="&#xf6;" horiz-adv-x="590" 
d="M381 377q-66 45 -137 -14q-59 -50 -79 -133q-22 -95 34 -143q7 -6 15 -11q40 -22 82.5 -10t74 53t49.5 87.5t9 95t-48 75.5zM481 369q29 -26 45 -62.5t18.5 -74.5t-7 -77t-28.5 -73t-47.5 -60.5t-62.5 -40t-75.5 -10.5t-84.5 26q-56 30 -110 76q-43 37 -64 83.5
t-19.5 90.5t17 88t45 76t64.5 54.5t75.5 23.5t78.5 -17q97 -51 155 -103zM403 552q-42 19 -65 63q1 14 25.5 36t39.5 25q46 -21 64 -62q-13 -36 -64 -62zM226 552q-42 19 -65 63q1 14 25.5 36t39.5 25q46 -21 64 -62q-13 -36 -64 -62z" />
    <glyph glyph-name="divide" unicode="&#xf7;" horiz-adv-x="600" 
d="M276 84q-51 24 -76 73q2 16 30 41t45 29q51 -23 75 -71q-17 -43 -74 -72zM270 408q-51 24 -76 73q2 16 30 41t45 29q51 -23 75 -71q-17 -43 -74 -72zM61 277l-31 81h453l31 -81h-453z" />
    <glyph glyph-name="oslash" unicode="&#xf8;" horiz-adv-x="590" 
d="M427 312l-207 -239q52 -28 108 8t85 104.5t14 126.5zM161 160l200 228q-50 21 -101 -13t-79 -96.5t-20 -118.5zM478 372l3 -3q29 -26 45 -62.5t18.5 -74.5t-7 -77t-28.5 -73t-47.5 -60.5t-62.5 -40t-75.5 -10.5t-84.5 26q-35 19 -56 33l-51 -59l-86 58l59 67
q-34 37 -48.5 82.5t-9.5 87t22 83t46 71t63 49.5t73 20t75 -17q43 -23 72 -41l57 65l83 -55z" />
    <glyph glyph-name="ugrave" unicode="&#xf9;" horiz-adv-x="592" 
d="M362 591l-23 -41q-80 42 -179 126q-13 10 19 53t45 41q27 -38 74.5 -97t63.5 -82zM414 477l125 -28v-479l-125 28v50q-80 -82 -148 -77q-32 2 -114 74t-87 100q-4 26 -4 332l124 -28q-5 -344 5 -365q20 -28 60.5 -18t90 57t73.5 103v251z" />
    <glyph glyph-name="uacute" unicode="&#xfa;" horiz-adv-x="592" 
d="M232 550l-23 41q16 23 63.5 82t74.5 97q13 2 45 -41t19 -53q-99 -84 -179 -126zM414 477l125 -28v-479l-125 28v50q-80 -82 -148 -77q-32 2 -114 74t-87 100q-4 26 -4 332l124 -28q-5 -344 5 -365q20 -28 60.5 -18t90 57t73.5 103v251z" />
    <glyph glyph-name="ucircumflex" unicode="&#xfb;" horiz-adv-x="592" 
d="M158 551q-6 1 -24.5 21t-19.5 24q0 4 91.5 81.5t95.5 76.5q7 -2 90 -70t82 -73q0 -5 -36 -34.5t-40 -27.5q-6 0 -33 26t-56 55.5t-30 30.5q-1 -1 -58 -54.5t-62 -55.5zM414 477l125 -28v-479l-125 28v50q-80 -82 -148 -77q-32 2 -114 74t-87 100q-4 26 -4 332l124 -28
q-5 -344 5 -365q20 -28 60.5 -18t90 57t73.5 103v251z" />
    <glyph glyph-name="udieresis" unicode="&#xfc;" horiz-adv-x="592" 
d="M378 552q-42 19 -65 63q1 14 25.5 36t39.5 25q46 -21 64 -62q-13 -36 -64 -62zM201 552q-42 19 -65 63q1 14 25.5 36t39.5 25q46 -21 64 -62q-13 -36 -64 -62zM414 477l125 -28v-479l-125 28v50q-80 -82 -148 -77q-32 2 -114 74t-87 100q-4 26 -4 332l124 -28
q-5 -344 5 -365q20 -28 60.5 -18t90 57t73.5 103v251z" />
    <glyph glyph-name="yacute" unicode="&#xfd;" horiz-adv-x="554" 
d="M216 550l-23 41q16 23 63.5 82t74.5 97q13 2 45 -41t19 -53q-99 -84 -179 -126zM369 478l125 -28v-512q0 -59 -51 -110t-112.5 -72.5t-95.5 -6.5q-13 6 -39.5 21t-66 38.5t-59.5 35.5l26 39q60 -35 80 -45q73 -36 133 3.5t60 155.5v37q-71 -67 -125 -63
q-32 2 -103.5 73.5t-76.5 100.5q-6 40 -6 335l124 -28q-6 -346 7 -365q30 -36 84.5 -2.5t95.5 103.5v290z" />
    <glyph glyph-name="thorn" unicode="&#xfe;" horiz-adv-x="526" 
d="M188 662v-226q114 44 218 -23q60 -40 88 -93t24.5 -103.5t-27 -99t-59.5 -83t-78.5 -51.5t-79.5 -7q-23 6 -86 37v-268l-125 28v917zM363 147q29 39 41 81t7.5 75t-23.5 54t-47.5 24.5t-69 -20.5t-83.5 -75v-218q96 -24 175 79z" />
    <glyph glyph-name="ydieresis" unicode="&#xff;" horiz-adv-x="554" 
d="M360 552q-42 19 -65 63q1 14 25.5 36t39.5 25q46 -21 64 -62q-13 -36 -64 -62zM183 552q-42 19 -65 63q1 14 25.5 36t39.5 25q46 -21 64 -62q-13 -36 -64 -62zM369 478l125 -28v-512q0 -59 -51 -110t-112.5 -72.5t-95.5 -6.5q-13 6 -39.5 21t-66 38.5t-59.5 35.5l26 39
q60 -35 80 -45q73 -36 133 3.5t60 155.5v37q-71 -67 -125 -63q-32 2 -103.5 73.5t-76.5 100.5q-6 40 -6 335l124 -28q-6 -346 7 -365q30 -36 84.5 -2.5t95.5 103.5v290z" />
    <glyph glyph-name="Amacron" unicode="&#x100;" horiz-adv-x="657" 
d="M390 625l-1 -3l268 -651l-129 29l-70 183l-236 -16l-72 -196l-140 29l242 666zM340 490l-86 -236l172 12zM176 710l-22 58h290l23 -58h-291z" />
    <glyph glyph-name="amacron" unicode="&#x101;" horiz-adv-x="580" 
d="M120 351l-54 91q70 18 155.5 34t107.5 15t88 -65.5t89 -98.5q8 -12 8 -80.5t-2.5 -156.5t-1.5 -119l-124 29l1 51q-81 -81 -132 -81q-48 1 -122 91t-74 129q0 31 42 57t102.5 40.5t107.5 22.5t80 11l1 27q1 48 -51 52q-48 3 -202 -43h-1l-1 -1h-1h-1l-1 -1h-1h-1l-1 -1
h-1h-1l-1 -1h-1h-1h-1l-1 -1h-1h-1l-1 -1h-1zM170 100q9 -14 34 -18t75.5 13.5t109.5 61.5l1 88q-264 -77 -220 -145zM160 543l-22 58h290l23 -58h-291z" />
    <glyph glyph-name="Abreve" unicode="&#x102;" horiz-adv-x="657" 
d="M390 625l-1 -3l268 -651l-129 29l-70 183l-236 -16l-72 -196l-140 29l242 666zM340 490l-86 -236l172 12zM150 845l27 31q7 -10 19 -25.5t39 -41t44 -26.5q20 -1 55 24.5t60 51.5l25 26l70 -62q-5 -5 -13 -12.5t-31.5 -27t-45.5 -34t-50 -26.5t-49 -12t-58.5 33.5
t-64.5 67.5z" />
    <glyph glyph-name="abreve" unicode="&#x103;" horiz-adv-x="580" 
d="M120 351l-54 91q70 18 155.5 34t107.5 15t88 -65.5t89 -98.5q8 -12 8 -80.5t-2.5 -156.5t-1.5 -119l-124 29l1 51q-81 -81 -132 -81q-48 1 -122 91t-74 129q0 31 42 57t102.5 40.5t107.5 22.5t80 11l1 27q1 48 -51 52q-48 3 -202 -43h-1l-1 -1h-1h-1l-1 -1h-1h-1l-1 -1
h-1h-1l-1 -1h-1h-1h-1l-1 -1h-1h-1l-1 -1h-1zM170 100q9 -14 34 -18t75.5 13.5t109.5 61.5l1 88q-264 -77 -220 -145zM143 679l27 31q7 -10 19 -25.5t39 -41t44 -26.5q20 -1 55 24.5t60 51.5l25 26l70 -62q-5 -5 -13 -12.5t-31.5 -27t-45.5 -34t-50 -26.5t-49 -12
t-58.5 33.5t-64.5 67.5z" />
    <glyph glyph-name="Aogonek" unicode="&#x104;" horiz-adv-x="657" 
d="M380 625l-1 -3l268 -651q-102 -63 -122 -108q-12 -25 13 -35q35 -14 112 46l17 -17q17 -17 34 -35l17 -17q-63 -40 -89.5 -49.5t-58.5 -0.5q-24 7 -61.5 33t-58.5 51q-15 18 -19 26t0.5 26t27.5 43t69 66l-70 183l-246 -16l-72 -196l-130 29l242 666zM335 503l-91 -249
l182 12z" />
    <glyph glyph-name="aogonek" unicode="&#x105;" horiz-adv-x="580" 
d="M389 157l1 88q-264 -77 -220 -145q9 -14 34 -18t75.5 13.5t109.5 61.5zM120 351l-54 91q70 18 155.5 34t107.5 15t88 -65.5t89 -98.5q8 -12 8 -80.5t-2.5 -156.5t-1.5 -119q-37 -33 -55.5 -51t-35.5 -39.5t-15.5 -33.5t19.5 -19q35 -14 112 46l17 -17q17 -17 34 -35
l17 -17q-63 -40 -89.5 -49.5t-58.5 -0.5q-24 7 -61.5 33t-58.5 51q-3 4 -11 13t-10.5 12t-6 12t-1 15t6.5 17t15 23t27.5 29t39.5 38l-9 2l1 51q-81 -81 -132 -81q-48 1 -122 91t-74 129q0 31 42 57t102.5 40.5t107.5 22.5t80 11l1 27q1 48 -51 52q-48 3 -202 -43h-1l-1 -1
h-1h-1l-1 -1h-1h-1l-1 -1h-1h-1l-1 -1h-1h-1h-1l-1 -1h-1h-1l-1 -1h-1z" />
    <glyph glyph-name="Cacute" unicode="&#x106;" horiz-adv-x="718" 
d="M654 527q-79 42 -146 71q-53 23 -113.5 -5t-102.5 -89t-65 -133t-1.5 -146t89.5 -119q36 -24 75.5 -28t78.5 11t69 33t66 45l121 -89q-53 -45 -114.5 -72t-131 -32t-128.5 31q-99 58 -190 141q-41 38 -63.5 83.5t-25.5 91t6 93.5t32.5 90t53 80t67.5 64.5t77 44
t80.5 16.5t78.5 -16q150 -69 236 -112zM418 751l-23 41q16 23 63.5 82t74.5 97q13 2 45 -41t19 -53q-99 -84 -179 -126z" />
    <glyph glyph-name="cacute" unicode="&#x107;" horiz-adv-x="535" 
d="M477 410l-36 -52q-15 5 -35 12.5t-31 11t-24 7.5t-21.5 5.5t-15.5 1.5q-65 -3 -110 -84q-43 -78 -33 -157q9 -79 70 -88q71 -10 190 82l19 -22q20 -22 39 -45l19 -22q-39 -29 -68.5 -47t-60.5 -29.5t-60.5 -11t-60.5 12.5q-86 33 -162 116q-45 50 -49.5 118.5t24 127.5
t84.5 100.5t122 41.5q31 0 200 -79zM241 550l-23 41q16 23 63.5 82t74.5 97q13 2 45 -41t19 -53q-99 -84 -179 -126z" />
    <glyph glyph-name="Ccaron" unicode="&#x10c;" horiz-adv-x="718" 
d="M654 527q-79 42 -146 71q-53 23 -113.5 -5t-102.5 -89t-65 -133t-1.5 -146t89.5 -119q36 -24 75.5 -28t78.5 11t69 33t66 45l121 -89q-53 -45 -114.5 -72t-131 -32t-128.5 31q-99 58 -190 141q-41 38 -63.5 83.5t-25.5 91t6 93.5t32.5 90t53 80t67.5 64.5t77 44
t80.5 16.5t78.5 -16q150 -69 236 -112zM319 949l99 -117l131 122l71 -71l-151 -110h-66l-122 132z" />
    <glyph glyph-name="ccaron" unicode="&#x10d;" horiz-adv-x="535" 
d="M477 410l-36 -52q-15 5 -35 12.5t-31 11t-24 7.5t-21.5 5.5t-15.5 1.5q-65 -3 -110 -84q-43 -78 -33 -157q9 -79 70 -88q71 -10 190 82l19 -22q20 -22 39 -45l19 -22q-39 -29 -68.5 -47t-60.5 -29.5t-60.5 -11t-60.5 12.5q-86 33 -162 116q-45 50 -49.5 118.5t24 127.5
t84.5 100.5t122 41.5q31 0 200 -79zM160 699l99 -117l131 122l71 -71l-151 -110h-66l-122 132z" />
    <glyph glyph-name="Dcaron" unicode="&#x10e;" horiz-adv-x="809" 
d="M225 1h-1l-139 29v636l1 -1v1q43 14 177 16t174 -19q105 -73 275 -268q10 -12 16 -46t0 -82t-24 -97t-63 -95t-110 -71q-60 -21 -145 -20.5t-161 17.5zM527 506q-35 29 -73.5 45t-83 18.5t-72.5 0.5t-75 -8l2 -501q69 -9 132 10.5t108 58.5t76 90.5t40.5 103.5t-3.5 101
t-51 81zM224 886l99 -117l131 122l71 -71l-151 -110h-66l-122 132z" />
    <glyph glyph-name="dcaron" unicode="&#x10f;" horiz-adv-x="746" 
d="M213 51q79 -40 191 39v281q-29 17 -81 23q-41 4 -80 -41.5t-59 -105.5t-14.5 -118.5t43.5 -77.5zM404 710l125 -28q6 -675 0 -681q-5 -1 -51.5 -11.5t-59.5 -12.5t-53.5 -6t-64 0t-58.5 13.5t-67 27.5q-57 31 -88 76t-33 92t11 95.5t41.5 89t61 71.5t68.5 44.5t64 4.5
q13 -4 27.5 -11.5t24 -13.5t27 -18t25.5 -17v285zM628 443l-41 27q25 80 22 116q-31 27 -45 55q2 16 30 41t45 29q27 -13 51.5 -37.5t23.5 -44.5q-6 -37 -35 -99t-51 -87z" />
    <glyph glyph-name="Dcroat" unicode="&#x110;" horiz-adv-x="882" 
d="M297 302l1 -241q69 -9 132 10.5t108 58.5t76 90.5t40.5 103.5t-3.5 101t-51 81q-35 29 -73.5 45t-83 18.5t-72.5 0.5t-75 -8l1 -179h131l31 -81h-162zM159 665v1q43 14 177 16t174 -19q105 -73 275 -268q10 -12 16 -46t0 -82t-24 -97t-63 -95t-110 -71
q-60 -21 -145 -20.5t-161 17.5h-1l-139 29v272h-82l-31 81h113v283z" />
    <glyph glyph-name="dcroat" unicode="&#x111;" horiz-adv-x="646" 
d="M404 90v281q-29 17 -81 23q-41 4 -80 -41.5t-59 -105.5t-14.5 -118.5t43.5 -77.5q79 -40 191 39zM632 541h-102q3 -536 -1 -540q-5 -1 -51.5 -11.5t-59.5 -12.5t-53.5 -6t-64 0t-58.5 13.5t-67 27.5q-57 31 -88 76t-33 92t11 95.5t41.5 89t61 71.5t68.5 44.5t64 4.5
q13 -4 27.5 -11.5t24 -13.5t27 -18t25.5 -17v116h-58l-31 81h89v88l125 -28v-60h72z" />
    <glyph glyph-name="Emacron" unicode="&#x112;" horiz-adv-x="647" 
d="M215 0l-2 2l-128 27v638h427l80 -90h-369v-192h249l80 -90h-328v-205h328l80 -90h-417zM178 710l-22 58h290l23 -58h-291z" />
    <glyph glyph-name="emacron" unicode="&#x113;" horiz-adv-x="558" 
d="M165 199l227 155q-72 46 -122.5 34t-77.5 -62.5t-27 -126.5zM188 103q28 -34 63 -42t73.5 9.5t64.5 35t61 46.5l20 -20l38 -42l20 -20q-87 -64 -147 -85.5t-119 0.5q-86 33 -162 116q-45 50 -52 118.5t17.5 127.5t76 100.5t112.5 41.5q40 0 118.5 -51.5t130.5 -100.5
q-1 -3 -79.5 -61.5t-157.5 -115.5zM135 543l-22 58h290l23 -58h-291z" />
    <glyph glyph-name="Edotaccent" unicode="&#x116;" horiz-adv-x="647" 
d="M215 0l-2 2l-128 27v638h427l80 -90h-369v-192h249l80 -90h-328v-205h328l80 -90h-417zM339 713q-51 24 -76 73q2 16 30 41t45 29q51 -23 75 -71q-17 -43 -74 -72z" />
    <glyph glyph-name="edotaccent" unicode="&#x117;" horiz-adv-x="558" 
d="M165 199l227 155q-72 46 -122.5 34t-77.5 -62.5t-27 -126.5zM188 103q28 -34 63 -42t73.5 9.5t64.5 35t61 46.5l20 -20l38 -42l20 -20q-87 -64 -147 -85.5t-119 0.5q-86 33 -162 116q-45 50 -52 118.5t17.5 127.5t76 100.5t112.5 41.5q40 0 118.5 -51.5t130.5 -100.5
q-1 -3 -79.5 -61.5t-157.5 -115.5zM263 544q-51 24 -76 73q2 16 30 41t45 29q51 -23 75 -71q-17 -43 -74 -72z" />
    <glyph glyph-name="Eogonek" unicode="&#x118;" horiz-adv-x="647" 
d="M632 0h-2q-65 -58 -92.5 -105.5t2.5 -66.5q35 -14 112 46l17 -17q17 -17 34 -35l17 -17q-63 -40 -89.5 -49.5t-58.5 -0.5q-24 7 -61.5 33t-58.5 51q-50 62 39 161h-276l-2 2l-128 27v638h427l80 -90h-369v-192h249l80 -90h-328v-205h328l74 -84l7 -3l-2 -2z" />
    <glyph glyph-name="eogonek" unicode="&#x119;" horiz-adv-x="558" 
d="M165 199l227 155q-72 46 -122.5 34t-77.5 -62.5t-27 -126.5zM458 22q-64 -57 -94 -117t3 -77q35 -14 112 46l17 -17q17 -17 34 -35l17 -17q-63 -40 -89.5 -49.5t-58.5 -0.5q-24 7 -61.5 33t-58.5 51q-45 54 18 137q-17 2 -35 9q-86 33 -162 116q-45 50 -52 118.5
t17.5 127.5t76 100.5t112.5 41.5q40 0 118.5 -51.5t130.5 -100.5q-1 -3 -79.5 -61.5t-157.5 -115.5l-78 -57q28 -34 63 -42t73.5 9.5t64.5 35t61 46.5l20 -20l38 -42l20 -20q-41 -30 -70 -48z" />
    <glyph glyph-name="Ecaron" unicode="&#x11a;" horiz-adv-x="647" 
d="M215 0l-2 2l-128 27v638h427l80 -90h-369v-192h249l80 -90h-328v-205h328l80 -90h-417zM222 891l99 -117l131 122l71 -71l-151 -110h-66l-122 132z" />
    <glyph glyph-name="ecaron" unicode="&#x11b;" horiz-adv-x="558" 
d="M165 199l227 155q-72 46 -122.5 34t-77.5 -62.5t-27 -126.5zM188 103q28 -34 63 -42t73.5 9.5t64.5 35t61 46.5l20 -20l38 -42l20 -20q-87 -64 -147 -85.5t-119 0.5q-86 33 -162 116q-45 50 -52 118.5t17.5 127.5t76 100.5t112.5 41.5q40 0 118.5 -51.5t130.5 -100.5
q-1 -3 -79.5 -61.5t-157.5 -115.5zM170 699l99 -117l131 122l71 -71l-151 -110h-66l-122 132z" />
    <glyph glyph-name="Gbreve" unicode="&#x11e;" horiz-adv-x="823" 
d="M460 248l-80 90h233l138 -41q2 -221 2 -250q0 -79 16.5 -111t68.5 -47q-72 -19 -136.5 22.5t-69.5 118.5l-3 45q-36 -31 -65 -50.5t-66.5 -34.5t-77 -11.5t-80.5 26.5q-118 67 -171 115q-46 43 -73 93t-32.5 98t2 98t30.5 93t53 82t68.5 65t78 43.5t81.5 16.5t79 -16
q179 -82 233 -109l-43 -53q-15 7 -141 57q-44 18 -82 10t-74.5 -30.5t-62.5 -60.5t-46 -80.5t-25.5 -90.5t0 -91t29.5 -81t64 -61q34 -20 69.5 -20t66.5 14.5t60.5 38.5t54.5 50t47 50q7 8 10 12h-156zM251 894l27 31q7 -10 19 -25.5t39 -41t44 -26.5q20 -1 55 24.5t60 51.5
l25 26l70 -62q-5 -5 -13 -12.5t-31.5 -27t-45.5 -34t-50 -26.5t-49 -12t-58.5 33.5t-64.5 66.5z" />
    <glyph glyph-name="gbreve" unicode="&#x11f;" horiz-adv-x="608" 
d="M174 19q6 -13 141.5 15.5t144.5 19.5q43 -42 56 -88t-3 -84t-47 -69.5t-75 -49.5t-89 -18q-76 0 -152.5 44.5t-92.5 76.5q-2 3 1 8.5t11 13.5t17.5 17t25.5 24.5t30 29.5q-11 16 -78 122q-2 7 -3 11t5.5 7.5t13.5 6t20.5 5.5t26 5t31 6.5t34.5 9.5q-18 11 -69 55
q-31 26 -47 56.5t-16 58t9 55.5t28 50t40.5 41t47 28.5t47.5 12.5t42 -7q68 -33 96 -50h178l30 -70h-136q118 -209 -162 -305q-22 -7 -59 -18q-47 -15 -47 -20zM332 390q-42 31 -93.5 -10t-62 -101t32.5 -100q41 -28 94.5 10.5t65 96t-36.5 104.5zM174 -84l-5 5l-45 -55
q73 -32 144.5 -23t124 44.5t51.5 74.5q0 7 -58.5 -14.5t-118.5 -37.5t-93 6zM111 679l27 31q7 -10 19 -25.5t39 -41t44 -26.5q20 -1 55 24.5t60 51.5l25 26l70 -62q-5 -5 -13 -12.5t-31.5 -27t-45.5 -34t-50 -26.5t-49 -12t-58.5 33.5t-64.5 67.5z" />
    <glyph glyph-name="uni0122" unicode="&#x122;" horiz-adv-x="823" 
d="M460 248l-80 90h233l138 -41q2 -221 2 -250q0 -79 16.5 -111t68.5 -47q-72 -19 -136.5 22.5t-69.5 118.5l-3 45q-36 -31 -65 -50.5t-66.5 -34.5t-77 -11.5t-80.5 26.5q-118 67 -171 115q-46 43 -73 93t-32.5 98t2 98t30.5 93t53 82t68.5 65t78 43.5t81.5 16.5t79 -16
q179 -82 233 -109l-43 -53q-15 7 -141 57q-44 18 -82 10t-74.5 -30.5t-62.5 -60.5t-46 -80.5t-25.5 -90.5t0 -91t29.5 -81t64 -61q34 -20 69.5 -20t66.5 14.5t60.5 38.5t54.5 50t47 50q7 8 10 12h-156zM423 -324l-41 27q25 80 22 116q-31 27 -45 55q2 16 30 41t45 29
q27 -13 51.5 -37.5t23.5 -44.5q-6 -37 -35 -99t-51 -87z" />
    <glyph glyph-name="uni0123" unicode="&#x123;" horiz-adv-x="608" 
d="M174 19q6 -13 141.5 15.5t144.5 19.5q43 -42 56 -88t-3 -84t-47 -69.5t-75 -49.5t-89 -18q-76 0 -152.5 44.5t-92.5 76.5q-2 3 1 8.5t11 13.5t17.5 17t25.5 24.5t30 29.5q-11 16 -78 122q-2 7 -3 11t5.5 7.5t13.5 6t20.5 5.5t26 5t31 6.5t34.5 9.5q-18 11 -69 55
q-31 26 -47 56.5t-16 58t9 55.5t28 50t40.5 41t47 28.5t47.5 12.5t42 -7q68 -33 96 -50h178l30 -70h-136q118 -209 -162 -305q-22 -7 -59 -18q-47 -15 -47 -20zM332 390q-42 31 -93.5 -10t-62 -101t32.5 -100q41 -28 94.5 10.5t65 96t-36.5 104.5zM174 -84l-5 5l-45 -55
q73 -32 144.5 -23t124 44.5t51.5 74.5q0 7 -58.5 -14.5t-118.5 -37.5t-93 6zM277 809l41 -27q-25 -80 -22 -116q31 -27 45 -55q-2 -16 -30 -41t-45 -29q-27 13 -51.5 37.5t-23.5 44.5q6 37 35 99t51 87z" />
    <glyph glyph-name="Imacron" unicode="&#x12a;" horiz-adv-x="300" 
d="M233 625l2 -654l-150 29v666zM11 711l-22 58h290l23 -58h-291z" />
    <glyph glyph-name="imacron" unicode="&#x12b;" horiz-adv-x="241" 
d="M178 450v-479l-115 28v479zM-22 543l-22 58h290l23 -58h-291z" />
    <glyph glyph-name="Iogonek" unicode="&#x12e;" horiz-adv-x="300" 
d="M212 -25l5 -4q-46 -13 -75.5 -45t-28 -58.5t22.5 -39.5q35 -14 112 46l17 -17q17 -17 34 -35l17 -17q-63 -40 -89.5 -49.5t-58.5 -0.5q-24 7 -61.5 33t-58.5 51q-16 19 -20.5 37.5t8.5 51t49 72.5v666l148 -41l2 -654z" />
    <glyph glyph-name="iogonek" unicode="&#x12f;" horiz-adv-x="276" 
d="M139 539q-51 24 -76 73q2 16 30 41t45 29q51 -23 75 -71q-17 -43 -74 -72zM188 -26l9 -3q-64 -48 -88.5 -86.5t7.5 -56.5q35 -14 112 46l17 -17q17 -17 34 -35l17 -17q-63 -40 -89.5 -49.5t-58.5 -0.5q-24 7 -61.5 33t-58.5 51q-17 20 -19.5 39.5t13.5 49.5t57 70l-5 1
v479l125 -28v-479z" />
    <glyph glyph-name="Idotaccent" unicode="&#x130;" horiz-adv-x="300" 
d="M233 625l2 -654l-150 29v666zM148 711q-51 24 -76 73q2 16 30 41t45 29q51 -23 75 -71q-17 -43 -74 -72z" />
    <glyph glyph-name="dotlessi" unicode="&#x131;" horiz-adv-x="241" 
d="M178 450v-479l-115 28v479z" />
    <glyph glyph-name="uni0136" unicode="&#x136;" horiz-adv-x="668" 
d="M204 625l1 -319l285 360l130 -29l-219 -276l262 -390l-130 29l-190 288l-138 -173l1 -144l-140 29v126l-3 1l3 4v535zM340 -324l-41 27q25 80 22 116q-31 27 -45 55q2 16 30 41t45 29q27 -13 51.5 -37.5t23.5 -44.5q-6 -37 -35 -99t-51 -87z" />
    <glyph glyph-name="uni0137" unicode="&#x137;" horiz-adv-x="565" 
d="M188 682v-381l189 178l115 -28l-183 -172l211 -263l-70 -46l-195 258l-67 -63v-194l-125 28v711zM288 -319l-41 27q25 80 22 116q-31 27 -45 55q2 16 30 41t45 29q27 -13 51.5 -37.5t23.5 -44.5q-6 -37 -35 -99t-51 -87z" />
    <glyph glyph-name="Lacute" unicode="&#x139;" horiz-adv-x="670" 
d="M223 626l1 -536h308l80 -90h-387l-140 29v638zM299 706l-23 41q16 23 63.5 82t74.5 97q13 2 45 -41t19 -53q-99 -84 -179 -126z" />
    <glyph glyph-name="lacute" unicode="&#x13a;" horiz-adv-x="241" 
d="M188 682v-711l-125 28v711zM70 753l-23 41q16 23 63.5 82t74.5 97q13 2 45 -41t19 -53q-99 -84 -179 -126z" />
    <glyph glyph-name="uni013B" unicode="&#x13b;" horiz-adv-x="670" 
d="M223 626l1 -536h308l80 -90h-387l-140 29v638zM332 -324l-41 27q25 80 22 116q-31 27 -45 55q2 16 30 41t45 29q27 -13 51.5 -37.5t23.5 -44.5q-6 -37 -35 -99t-51 -87z" />
    <glyph glyph-name="uni013C" unicode="&#x13c;" horiz-adv-x="241" 
d="M188 682v-711l-125 28v711zM111 -321l-41 27q25 80 22 116q-31 27 -45 55q2 16 30 41t45 29q27 -13 51.5 -37.5t23.5 -44.5q-6 -37 -35 -99t-51 -87z" />
    <glyph glyph-name="Lcaron" unicode="&#x13d;" horiz-adv-x="670" 
d="M391 401l-41 27q25 80 22 116q-31 27 -45 55q2 16 30 41t45 29q27 -13 51.5 -37.5t23.5 -44.5q-6 -37 -35 -99t-51 -87zM223 626l1 -536h308l80 -90h-387l-140 29v638z" />
    <glyph glyph-name="lcaron" unicode="&#x13e;" horiz-adv-x="383" 
d="M188 682v-711l-125 28v711zM279 433l-41 27q25 80 22 116q-31 27 -45 55q2 16 30 41t45 29q27 -13 51.5 -37.5t23.5 -44.5q-6 -37 -35 -99t-51 -87z" />
    <glyph glyph-name="Lslash" unicode="&#x141;" horiz-adv-x="670" 
d="M531 90l80 -90h-387l-140 29v262l-50 -14l-15 57l65 24v309l138 -41v-217l117 43l36 -77l-152 -44v-241h308z" />
    <glyph glyph-name="lslash" unicode="&#x142;" horiz-adv-x="350" 
d="M332 397l-104 -31v-395l-125 28v329l-69 -21l-15 57l84 33v313l125 -28v-235l68 27z" />
    <glyph glyph-name="Nacute" unicode="&#x143;" horiz-adv-x="762" 
d="M687 626v-655l-140 29l-324 458l2 -487l-140 29v666l138 -40l324 -453v493zM354 709l-23 41q16 23 63.5 82t74.5 97q13 2 45 -41t19 -53q-99 -84 -179 -126z" />
    <glyph glyph-name="nacute" unicode="&#x144;" horiz-adv-x="610" 
d="M251 550l-23 41q16 23 63.5 82t74.5 97q13 2 45 -41t19 -53q-99 -84 -179 -126zM255 450v-41q89 83 156 79q32 -2 112.5 -79.5t85.5 -105.5q4 -26 4 -332l-124 28q6 343 -5 363q-18 34 -59.5 20.5t-86 -48.5t-83.5 -82v-281l-130 28v479z" />
    <glyph glyph-name="uni0145" unicode="&#x145;" horiz-adv-x="762" 
d="M687 626v-655l-140 29l-324 458l2 -487l-140 29v666l138 -40l324 -453v493zM382 -324l-41 27q25 80 22 116q-31 27 -45 55q2 16 30 41t45 29q27 -13 51.5 -37.5t23.5 -44.5q-6 -37 -35 -99t-51 -87z" />
    <glyph glyph-name="uni0146" unicode="&#x146;" horiz-adv-x="610" 
d="M304 -323l-41 27q25 80 22 116q-31 27 -45 55q2 16 30 41t45 29q27 -13 51.5 -37.5t23.5 -44.5q-6 -37 -35 -99t-51 -87zM255 450v-41q89 83 156 79q32 -2 112.5 -79.5t85.5 -105.5q4 -26 4 -332l-124 28q6 343 -5 363q-18 34 -59.5 20.5t-86 -48.5t-83.5 -82v-281
l-130 28v479z" />
    <glyph glyph-name="Ncaron" unicode="&#x147;" horiz-adv-x="762" 
d="M687 626v-655l-140 29l-324 458l2 -487l-140 29v666l138 -40l324 -453v493zM252 886l99 -117l131 122l71 -71l-151 -110h-66l-122 132z" />
    <glyph glyph-name="ncaron" unicode="&#x148;" horiz-adv-x="610" 
d="M339 523h-66l-122 132l38 44l99 -117l131 122l71 -71zM255 450v-41q89 83 156 79q32 -2 112.5 -79.5t85.5 -105.5q4 -26 4 -332l-124 28q6 343 -5 363q-18 34 -59.5 20.5t-86 -48.5t-83.5 -82v-281l-130 28v479z" />
    <glyph glyph-name="Omacron" unicode="&#x14c;" horiz-adv-x="823" 
d="M531 572q-100 66 -198 -7q-79 -60 -115 -173q-39 -126 8 -217q23 -46 68 -73q101 -61 198 14q79 61 113 175q37 126 -14 216q-22 40 -60 65zM687 523q38 -37 57 -87.5t18.5 -103t-17 -106.5t-45 -100.5t-68.5 -83t-86 -55.5t-100 -16t-106 33q-8 5 -28.5 16t-29 15.5
t-25.5 15t-28.5 19t-28 21t-33.5 27.5t-36 34q-37 35 -54.5 84t-16 101t17.5 105.5t44.5 101t67.5 85t82.5 59t93.5 21.5t98 -26q130 -70 223 -160zM298 775l-22 58h290l23 -58h-291z" />
    <glyph glyph-name="omacron" unicode="&#x14d;" horiz-adv-x="590" 
d="M381 377q-66 45 -137 -14q-59 -50 -79 -133q-22 -95 34 -143q7 -6 15 -11q40 -22 82.5 -10t74 53t49.5 87.5t9 95t-48 75.5zM481 369q29 -26 45 -62.5t18.5 -74.5t-7 -77t-28.5 -73t-47.5 -60.5t-62.5 -40t-75.5 -10.5t-84.5 26q-56 30 -110 76q-43 37 -64 83.5
t-19.5 90.5t17 88t45 76t64.5 54.5t75.5 23.5t78.5 -17q97 -51 155 -103zM180 543l-22 58h290l23 -58h-291z" />
    <glyph glyph-name="Ohungarumlaut" unicode="&#x150;" horiz-adv-x="823" 
d="M531 572q-100 66 -198 -7q-79 -60 -115 -173q-39 -126 8 -217q23 -46 68 -73q101 -61 198 14q79 61 113 175q37 126 -14 216q-22 40 -60 65zM687 523q38 -37 57 -87.5t18.5 -103t-17 -106.5t-45 -100.5t-68.5 -83t-86 -55.5t-100 -16t-106 33q-8 5 -28.5 16t-29 15.5
t-25.5 15t-28.5 19t-28 21t-33.5 27.5t-36 34q-37 35 -54.5 84t-16 101t17.5 105.5t44.5 101t67.5 85t82.5 59t93.5 21.5t98 -26q130 -70 223 -160zM548 759l-50 14q3 30 3.5 80.5t4.5 87.5q1 19 69 -20q41 -23 46 -33q-8 -18 -12 -28.5t-9.5 -21.5l-7.5 -15t-8 -13.5
t-8.5 -12.5t-12 -16.5t-15.5 -21.5zM377 759l-50 14q3 30 3.5 80.5t4.5 87.5q1 19 69 -20q41 -23 46 -33q-8 -18 -12 -28.5t-9.5 -21.5l-7.5 -15t-8 -13.5t-8.5 -12.5t-12 -16.5t-15.5 -21.5z" />
    <glyph glyph-name="ohungarumlaut" unicode="&#x151;" horiz-adv-x="590" 
d="M381 377q-66 45 -137 -14q-59 -50 -79 -133q-22 -95 34 -143q7 -6 15 -11q40 -22 82.5 -10t74 53t49.5 87.5t9 95t-48 75.5zM481 369q29 -26 45 -62.5t18.5 -74.5t-7 -77t-28.5 -73t-47.5 -60.5t-62.5 -40t-75.5 -10.5t-84.5 26q-56 30 -110 76q-43 37 -64 83.5
t-19.5 90.5t17 88t45 76t64.5 54.5t75.5 23.5t78.5 -17q97 -51 155 -103zM406 548l-50 14q3 30 3.5 80.5t4.5 87.5q1 19 69 -20q41 -23 46 -33q-8 -18 -12 -28.5t-9.5 -21.5l-7.5 -15t-8 -13.5t-8.5 -12.5t-12 -16.5t-15.5 -21.5zM235 548l-50 14q3 30 3.5 80.5t4.5 87.5
q1 19 69 -20q41 -23 46 -33q-8 -18 -12 -28.5t-9.5 -21.5l-7.5 -15t-8 -13.5t-8.5 -12.5t-12 -16.5t-15.5 -21.5z" />
    <glyph glyph-name="OE" unicode="&#x152;" horiz-adv-x="1190" 
d="M723 0l-130 29v20q-37 -34 -78 -50.5t-89 -13t-94 31.5q-8 5 -30.5 18t-30.5 18.5t-27 18t-31.5 23.5t-32 29t-39.5 39q-30 31 -46.5 73t-18 86.5t7 92t28.5 91t46 82.5t60 66.5t70 43.5t77 13t80 -25q92 -55 148 -104v85h427l80 -90h-379v-192h259l80 -90h-338v-205h338
l80 -90h-417zM507 576q-94 64 -183 -12q-74 -62 -103 -179q-32 -129 18 -216q20 -34 51 -55q89 -61 180 10q75 60 108 171q37 128 -13 218q-21 38 -58 63z" />
    <glyph glyph-name="oe" unicode="&#x153;" horiz-adv-x="989" 
d="M583 109q7 -10 26.5 -26t34.5 -19q41 -8 98.5 20t111.5 73l20 -21l38 -40l20 -21q-87 -64 -147 -85.5t-119 0.5q-73 27 -144 97q-26 -49 -66.5 -79t-93.5 -36.5t-113 25.5q-56 30 -110 76q-43 37 -64 83.5t-19.5 90.5t17 88t45 76t64.5 54.5t75.5 23.5t78.5 -17
q96 -52 146 -96q29 53 75 85.5t101 32.5q40 0 118.5 -51.5t130.5 -100.5q-1 -3 -82 -61.5t-161 -114.5zM394 381q-73 47 -147 -12q-61 -50 -80 -132q-22 -96 35 -148q11 -10 24 -18q52 -26 99.5 -6t82 70.5t42.5 107.5q-1 12 1 37q-5 67 -57 101zM689 417q-49 0 -89 -61
t-45 -134q0 -12 -1 -19l250 160q-78 54 -115 54z" />
    <glyph glyph-name="Racute" unicode="&#x154;" horiz-adv-x="694" 
d="M492 208q-9 17 -46 49q-97 -36 -222 -8l1 -278l-140 29v669q91 25 203.5 33t141.5 -12q30 -27 94 -91t89 -93q26 -32 -5.5 -104t-107.5 -119q106 -45 115 -55q13 -19 18.5 -43.5t5.5 -41.5t-2 -48t-2 -42q0 -10 -1.5 -30.5t-1.5 -30.5t3 -25.5t10 -24.5t21 -19t36 -17
q-79 -16 -131.5 25.5t-57.5 121.5q0 6 -1.5 37t-3 45t-5.5 36.5t-11 36.5zM475 577q-59 56 -252 16l1 -280q70 -1 126.5 20.5t86.5 55t46 70.5t13 69t-21 49zM321 769l-23 41q16 23 63.5 82t74.5 97q13 2 45 -41t19 -53q-99 -84 -179 -126z" />
    <glyph glyph-name="racute" unicode="&#x155;" horiz-adv-x="465" 
d="M189 450v-74q73 115 124 115q25 0 84 -25.5t99 -52.5l-69 -100q-62 46 -107.5 50.5t-72.5 -18t-58 -72.5v-302l-125 28v479zM213 550l-23 41q16 23 63.5 82t74.5 97q13 2 45 -41t19 -53q-99 -84 -179 -126z" />
    <glyph glyph-name="uni0156" unicode="&#x156;" horiz-adv-x="694" 
d="M492 208q-9 17 -46 49q-97 -36 -222 -8l1 -278l-140 29v669q91 25 203.5 33t141.5 -12q30 -27 94 -91t89 -93q26 -32 -5.5 -104t-107.5 -119q106 -45 115 -55q13 -19 18.5 -43.5t5.5 -41.5t-2 -48t-2 -42q0 -10 -1.5 -30.5t-1.5 -30.5t3 -25.5t10 -24.5t21 -19t36 -17
q-79 -16 -131.5 25.5t-57.5 121.5q0 6 -1.5 37t-3 45t-5.5 36.5t-11 36.5zM475 577q-59 56 -252 16l1 -280q70 -1 126.5 20.5t86.5 55t46 70.5t13 69t-21 49zM358 -321l-41 27q25 80 22 116q-31 27 -45 55q2 16 30 41t45 29q27 -13 51.5 -37.5t23.5 -44.5q-6 -37 -35 -99
t-51 -87z" />
    <glyph glyph-name="uni0157" unicode="&#x157;" horiz-adv-x="465" 
d="M189 450v-74q73 115 124 115q25 0 84 -25.5t99 -52.5l-69 -100q-62 46 -107.5 50.5t-72.5 -18t-58 -72.5v-302l-125 28v479zM121 -323l-41 27q25 80 22 116q-31 27 -45 55q2 16 30 41t45 29q27 -13 51.5 -37.5t23.5 -44.5q-6 -37 -35 -99t-51 -87z" />
    <glyph glyph-name="Rcaron" unicode="&#x158;" horiz-adv-x="694" 
d="M492 208q-9 17 -46 49q-97 -36 -222 -8l1 -278l-140 29v669q91 25 203.5 33t141.5 -12q30 -27 94 -91t89 -93q26 -32 -5.5 -104t-107.5 -119q106 -45 115 -55q13 -19 18.5 -43.5t5.5 -41.5t-2 -48t-2 -42q0 -10 -1.5 -30.5t-1.5 -30.5t3 -25.5t10 -24.5t21 -19t36 -17
q-79 -16 -131.5 25.5t-57.5 121.5q0 6 -1.5 37t-3 45t-5.5 36.5t-11 36.5zM475 577q-59 56 -252 16l1 -280q70 -1 126.5 20.5t86.5 55t46 70.5t13 69t-21 49zM209 949l99 -117l131 122l71 -71l-151 -110h-66l-122 132z" />
    <glyph glyph-name="rcaron" unicode="&#x159;" horiz-adv-x="465" 
d="M189 450v-74q73 115 124 115q25 0 84 -25.5t99 -52.5l-69 -100q-62 46 -107.5 50.5t-72.5 -18t-58 -72.5v-302l-125 28v479zM120 699l99 -117l131 122l71 -71l-151 -110h-66l-122 132z" />
    <glyph glyph-name="Sacute" unicode="&#x15a;" horiz-adv-x="756" 
d="M599 527q-42 16 -81.5 26t-89 11.5t-87.5 -12.5t-69 -53.5t-41 -103.5q-2 -11 76 -6.5t152 10.5t102 -9q99 -88 139 -163q20 -36 -17 -104q-47 -85 -136 -125q-157 -72 -344 53q-76 51 -153 135l30 15q58 -31 93.5 -48t89.5 -34.5t95 -18.5q95 -2 156 46.5t69 131.5
q1 9 -72 -2.5t-147 -20.5t-112 14q-40 32 -125 126q-27 33 -28 71t25 77t64 70t89.5 51t102.5 20q13 0 49 -16.5t99.5 -49.5t83.5 -43zM339 710l-23 41q16 23 63.5 82t74.5 97q13 2 45 -41t19 -53q-99 -84 -179 -126z" />
    <glyph glyph-name="sacute" unicode="&#x15b;" horiz-adv-x="555" 
d="M416 445l-11 -54q-97 22 -128 18q-49 -6 -77 -47.5t-20 -79.5q2 -9 46 2t96 22.5t67 3.5q69 -36 93 -95t5.5 -112.5t-75.5 -92.5t-137 -39q-66 0 -122.5 36.5t-132.5 109.5l18 34q68 -51 144 -68.5t141.5 13.5t87.5 114q1 4 -9 3q-11 -1 -55 -13q-139 -37 -177 -22l-9 5
q-55 42 -89 92q-25 34 -20.5 72t25.5 69.5t63 52t92 20.5q15 0 42.5 -6t78 -20.5t63.5 -17.5zM201 550l-23 41q16 23 63.5 82t74.5 97q13 2 45 -41t19 -53q-99 -84 -179 -126z" />
    <glyph glyph-name="uni015E" unicode="&#x15e;" horiz-adv-x="756" 
d="M612 575l-13 -48q-42 16 -81.5 26t-89 11.5t-87.5 -12.5t-69 -53.5t-41 -103.5q-2 -11 76 -6.5t152 10.5t102 -9q99 -88 139 -163q7 -19 4 -48.5t-26.5 -65t-54.5 -66t-80 -51.5t-103 -23l-15 -54q8 1 19.5 3.5t18 4t15.5 2.5t14 1.5t10 0t8.5 -2.5t5.5 -5
q10 -15 12 -41.5t-4 -53.5t-24.5 -48.5t-47.5 -24.5q-9 -1 -26.5 0.5t-51 10.5t-65.5 24l11 18q6 -1 19 -3t18 -2.5t15.5 0t23.5 3.5q21 4 35 34t-1 42q-3 2 -23.5 3t-40.5 1h-19l17 93q-155 34 -314 207l30 15q58 -31 93.5 -48t89.5 -34.5t95 -18.5q95 -2 156 46.5
t69 131.5q1 9 -72 -2.5t-147 -20.5t-112 14q-40 32 -125 126q-27 33 -28 71t25 77t64 70t89.5 51t102.5 20q13 0 49 -16.5t99.5 -49.5t83.5 -43z" />
    <glyph glyph-name="uni015F" unicode="&#x15f;" horiz-adv-x="555" 
d="M416 445l-11 -54q-97 22 -128 18q-49 -6 -77 -47.5t-20 -79.5q2 -9 46 2t96 22.5t67 3.5q68 -36 92.5 -94t7 -111t-73 -92.5t-132.5 -41.5l-15 -52q8 1 19.5 3.5t18 4t15.5 2.5t14 1.5t10 0t8.5 -2.5t5.5 -5q10 -15 12 -41.5t-4 -53.5t-24.5 -48.5t-47.5 -24.5
q-9 -1 -26.5 0.5t-51 10.5t-65.5 24l11 18q6 -1 19 -3t18 -2.5t15.5 0t23.5 3.5q21 4 35 34t-1 42q-3 2 -23.5 3t-39.5 1h-20l17 96q-45 15 -86.5 47t-100.5 88l18 34q68 -51 144 -68.5t141.5 13.5t87.5 114q1 4 -9 3q-11 -1 -55 -13q-139 -37 -177 -22l-9 5q-55 42 -89 92
q-25 34 -20.5 72t25.5 69.5t63 52t92 20.5q15 0 42.5 -6t78 -20.5t63.5 -17.5z" />
    <glyph glyph-name="Scaron" unicode="&#x160;" horiz-adv-x="756" 
d="M599 527q-42 16 -81.5 26t-89 11.5t-87.5 -12.5t-69 -53.5t-41 -103.5q-2 -11 76 -6.5t152 10.5t102 -9q99 -88 139 -163q20 -36 -17 -104q-47 -85 -136 -125q-157 -72 -344 53q-76 51 -153 135l30 15q58 -31 93.5 -48t89.5 -34.5t95 -18.5q95 -2 156 46.5t69 131.5
q1 9 -72 -2.5t-147 -20.5t-112 14q-40 32 -125 126q-27 33 -28 71t25 77t64 70t89.5 51t102.5 20q13 0 49 -16.5t99.5 -49.5t83.5 -43zM263 902l99 -117l131 122l71 -71l-151 -110h-66l-122 132z" />
    <glyph glyph-name="scaron" unicode="&#x161;" horiz-adv-x="555" 
d="M416 445l-11 -54q-97 22 -128 18q-49 -6 -77 -47.5t-20 -79.5q2 -9 46 2t96 22.5t67 3.5q69 -36 93 -95t5.5 -112.5t-75.5 -92.5t-137 -39q-66 0 -122.5 36.5t-132.5 109.5l18 34q68 -51 144 -68.5t141.5 13.5t87.5 114q1 4 -9 3q-11 -1 -55 -13q-139 -37 -177 -22l-9 5
q-55 42 -89 92q-25 34 -20.5 72t25.5 69.5t63 52t92 20.5q15 0 42.5 -6t78 -20.5t63.5 -17.5zM148 699l99 -117l131 122l71 -71l-151 -110h-66l-122 132z" />
    <glyph glyph-name="uni0162" unicode="&#x162;" horiz-adv-x="647" 
d="M375 -22l-17 -59q8 1 19.5 3.5t18 4t15.5 2.5t14 1.5t10 0t8.5 -2.5t5.5 -5q10 -15 12 -41.5t-4 -53.5t-24.5 -48.5t-47.5 -24.5q-9 -1 -26.5 0.5t-51 10.5t-65.5 24l11 18q6 -1 19 -3t18 -2.5t15.5 0t23.5 3.5q21 4 35 34t-1 42q-3 2 -23.5 3t-39.5 1h-20l19 108l-31 6
v577h-188l-80 90h567l80 -90h-241l2 -606z" />
    <glyph glyph-name="uni0163" unicode="&#x163;" horiz-adv-x="427" 
d="M247 -15l-19 -66q8 1 19.5 3.5t18 4t15.5 2.5t14 1.5t10 0t8.5 -2.5t5.5 -5q10 -15 12 -41.5t-4 -53.5t-24.5 -48.5t-47.5 -24.5q-9 -1 -26.5 0.5t-51 10.5t-65.5 24l11 18q6 -1 19 -3t18 -2.5t15.5 0t23.5 3.5q21 4 35 34t-1 42q-3 2 -23.5 3t-39.5 1h-20l25 140
q-31 23 -50.5 49.5t-19.5 46.5v286h-52l-30 70h82v108l123 -28v-80h122l30 -70h-152v-127v-33q0 -27 -0.5 -54t3 -51t8.5 -44t17 -32t29 -16t43.5 5.5t60.5 31.5l27 -31q-58 -53 -97 -74q-26 -15 -72 2z" />
    <glyph glyph-name="Tcaron" unicode="&#x164;" horiz-adv-x="647" 
d="M80 577l-80 90h567l80 -90h-241l2 -606l-140 29v577h-188zM208 884l99 -117l131 122l71 -71l-151 -110h-66l-122 132z" />
    <glyph glyph-name="tcaron" unicode="&#x165;" horiz-adv-x="427" 
d="M53 408l-30 70h82v108l123 -28v-80h122l30 -70h-152v-127v-33q0 -27 -0.5 -54t3 -51t8.5 -44t17 -32t29 -16t43.5 5.5t60.5 31.5l27 -31q-58 -53 -97 -74q-30 -17 -82.5 5.5t-92 63t-39.5 70.5v286h-52zM311 515l-41 27q25 80 22 116q-31 27 -45 55q2 16 30 41t45 29
q27 -13 51.5 -37.5t23.5 -44.5q-6 -37 -35 -99t-51 -87z" />
    <glyph glyph-name="Umacron" unicode="&#x16a;" horiz-adv-x="666" 
d="M480 710h-291l-22 58h290zM492 667l139 -41v-468q0 -57 -88 -122.5t-187 -65.5q-59 0 -146 60t-160 141q-1 1 -2 16t-1.5 39t-1 56t-0.5 67v72.5t0.5 72t0.5 66.5t0.5 55t0.5 37v15q0 -1 34.5 -11t68.5 -20l35 -10q-4 -502 1 -508q41 -44 105.5 -45.5t121.5 33.5t79 90
v471z" />
    <glyph glyph-name="umacron" unicode="&#x16b;" horiz-adv-x="592" 
d="M439 543h-291l-22 58h290zM414 477l125 -28v-479l-125 28v50q-80 -82 -148 -77q-32 2 -114 74t-87 100q-4 26 -4 332l124 -28q-5 -344 5 -365q20 -28 60.5 -18t90 57t73.5 103v251z" />
    <glyph glyph-name="Uring" unicode="&#x16e;" horiz-adv-x="666" 
d="M351 885q-28 17 -56.5 -8t-30.5 -59t27 -55q18 -8 35 -2.5t28.5 22t17.5 35.5t0.5 38t-21.5 29zM236 750q-29 23 -37 55.5t3.5 60t32 51.5t48 30t53.5 -5q48 -25 76 -47q22 -19 27.5 -49t-4.5 -58.5t-30.5 -52t-51 -29t-64.5 9.5q-33 17 -53 34zM492 667l139 -41v-468
q0 -57 -88 -122.5t-187 -65.5q-59 0 -146 60t-160 141q-1 1 -2 16t-1.5 39t-1 56t-0.5 67v72.5t0.5 72t0.5 66.5t0.5 55t0.5 37v15q0 -1 34.5 -11t68.5 -20l35 -10q-4 -502 1 -508q41 -44 105.5 -45.5t121.5 33.5t79 90v471z" />
    <glyph glyph-name="uring" unicode="&#x16f;" horiz-adv-x="592" 
d="M323 725q-28 17 -56.5 -8t-30.5 -59t27 -55q18 -8 35 -2.5t28.5 22t17.5 35.5t0.5 38t-21.5 29zM208 590q-29 23 -37 55.5t3.5 60t32 51.5t48 30t53.5 -5q48 -25 76 -47q22 -19 27.5 -49t-4.5 -58.5t-30.5 -52t-51 -29t-64.5 9.5q-33 17 -53 34zM414 477l125 -28v-479
l-125 28v50q-80 -82 -148 -77q-32 2 -114 74t-87 100q-4 26 -4 332l124 -28q-5 -344 5 -365q20 -28 60.5 -18t90 57t73.5 103v251z" />
    <glyph glyph-name="Uhungarumlaut" unicode="&#x170;" horiz-adv-x="666" 
d="M422 711l-50 14q3 30 3.5 80.5t4.5 87.5q1 19 69 -20q41 -23 46 -33q-8 -18 -12 -28.5t-9.5 -21.5l-7.5 -15t-8 -13.5t-8.5 -12.5t-12 -16.5t-15.5 -21.5zM251 711l-50 14q3 30 3.5 80.5t4.5 87.5q1 19 69 -20q41 -23 46 -33q-8 -18 -12 -28.5t-9.5 -21.5l-7.5 -15
t-8 -13.5t-8.5 -12.5t-12 -16.5t-15.5 -21.5zM492 667l139 -41v-468q0 -57 -88 -122.5t-187 -65.5q-59 0 -146 60t-160 141q-1 1 -2 16t-1.5 39t-1 56t-0.5 67v72.5t0.5 72t0.5 66.5t0.5 55t0.5 37v15q0 -1 34.5 -11t68.5 -20l35 -10q-4 -502 1 -508q41 -44 105.5 -45.5
t121.5 33.5t79 90v471z" />
    <glyph glyph-name="uhungarumlaut" unicode="&#x171;" horiz-adv-x="592" 
d="M383 548l-50 14q3 30 3.5 80.5t4.5 87.5q1 19 69 -20q41 -23 46 -33q-8 -18 -12 -28.5t-9.5 -21.5l-7.5 -15t-8 -13.5t-8.5 -12.5t-12 -16.5t-15.5 -21.5zM212 548l-50 14q3 30 3.5 80.5t4.5 87.5q1 19 69 -20q41 -23 46 -33q-8 -18 -12 -28.5t-9.5 -21.5l-7.5 -15
t-8 -13.5t-8.5 -12.5t-12 -16.5t-15.5 -21.5zM414 477l125 -28v-479l-125 28v50q-80 -82 -148 -77q-32 2 -114 74t-87 100q-4 26 -4 332l124 -28q-5 -344 5 -365q20 -28 60.5 -18t90 57t73.5 103v251z" />
    <glyph glyph-name="Uogonek" unicode="&#x172;" horiz-adv-x="666" 
d="M492 667l139 -41v-468q0 -54 -81.5 -117.5t-177.5 -69.5q-24 -24 -41.5 -46.5t-27 -42.5t-7.5 -34t17 -20q35 -14 112 46l17 -17q17 -17 34 -35l17 -17q-63 -40 -89.5 -49.5t-58.5 -0.5q-24 7 -61.5 33t-58.5 51q-50 61 37 160q-105 55 -212 172q-1 1 -2 16t-1.5 39
t-1 56t-0.5 67v72.5t0.5 72t0.5 66.5t0.5 55t0.5 37v15q0 -1 34.5 -11t68.5 -20l35 -10q-4 -502 1 -508q41 -44 105.5 -45.5t121.5 33.5t79 90v471z" />
    <glyph glyph-name="uogonek" unicode="&#x173;" horiz-adv-x="592" 
d="M503 -22l26 -7q-64 -48 -88.5 -86.5t7.5 -56.5q35 -14 112 46l17 -17q17 -17 34 -35l17 -17q-63 -40 -89.5 -49.5t-58.5 -0.5q-24 7 -61.5 33t-58.5 51q-17 21 -19.5 40.5t14.5 50t59 71.5v47q-80 -82 -148 -77q-32 2 -114 74t-87 100q-4 26 -4 332l124 -28
q-5 -344 5 -365q20 -28 60.5 -18t90 57t73.5 103v251l125 -28v-479z" />
    <glyph glyph-name="Ydieresis" unicode="&#x178;" horiz-adv-x="591" 
d="M125 638l172 -271l164 299l139 -29l-216 -393l2 -273l-140 29v275l-246 392zM374 737q-42 19 -65 63q1 14 25.5 36t39.5 25q46 -21 64 -62q-13 -36 -64 -62zM197 737q-42 19 -65 63q1 14 25.5 36t39.5 25q46 -21 64 -62q-13 -36 -64 -62z" />
    <glyph glyph-name="Zacute" unicode="&#x179;" horiz-adv-x="835" 
d="M132 577l-80 90h600l80 -90l-458 -487h424l80 -90h-616l-79 88l-2 1l1 1l449 487h-399zM392 710l-23 41q16 23 63.5 82t74.5 97q13 2 45 -41t19 -53q-99 -84 -179 -126z" />
    <glyph glyph-name="zacute" unicode="&#x17a;" horiz-adv-x="484" 
d="M442 404l-170 -216l126 -60q52 -26 64 -76.5t-12 -104t-64.5 -101.5t-95.5 -75t-103 -19q-31 5 -85 39.5t-95 75.5l23 24q33 -22 56 -32q60 -21 107.5 -8.5t79.5 50t48.5 80t14 81.5t-25.5 55q-37 25 -168 77h-1l-7 3l162 208h-261l-30 73h407l30 -73h-5zM173 550l-23 41
q16 23 63.5 82t74.5 97q13 2 45 -41t19 -53q-99 -84 -179 -126z" />
    <glyph glyph-name="Zdotaccent" unicode="&#x17b;" horiz-adv-x="835" 
d="M132 577l-80 90h600l80 -90l-458 -487h424l80 -90h-616l-79 88l-2 1l1 1l449 487h-399zM418 711q-51 24 -76 73q2 16 30 41t45 29q51 -23 75 -71q-17 -43 -74 -72z" />
    <glyph glyph-name="zdotaccent" unicode="&#x17c;" horiz-adv-x="484" 
d="M442 404l-170 -216l126 -60q52 -26 64 -76.5t-12 -104t-64.5 -101.5t-95.5 -75t-103 -19q-31 5 -85 39.5t-95 75.5l23 24q33 -22 56 -32q60 -21 107.5 -8.5t79.5 50t48.5 80t14 81.5t-25.5 55q-37 25 -168 77h-1l-7 3l162 208h-261l-30 73h407l30 -73h-5zM214 568
q-51 24 -76 73q2 16 30 41t45 29q51 -23 75 -71q-17 -43 -74 -72z" />
    <glyph glyph-name="Zcaron" unicode="&#x17d;" horiz-adv-x="835" 
d="M132 577l-80 90h600l80 -90l-458 -487h424l80 -90h-616l-79 88l-2 1l1 1l449 487h-399zM282 884l99 -117l131 122l71 -71l-151 -110h-66l-122 132z" />
    <glyph glyph-name="zcaron" unicode="&#x17e;" horiz-adv-x="489" 
d="M447 404l-170 -216l126 -60q52 -26 64 -76.5t-12 -104t-64.5 -101.5t-95.5 -75t-103 -19q-31 5 -85 39.5t-95 75.5l23 24q33 -22 56 -32q60 -21 107.5 -8.5t79.5 50t48.5 80t14 81.5t-25.5 55q-37 25 -168 77h-1l-7 3l162 208h-261l-30 73h407l30 -73h-5zM101 699
l99 -117l131 122l71 -71l-151 -110h-66l-122 132z" />
    <glyph glyph-name="florin" unicode="&#x192;" horiz-adv-x="525" 
d="M111 238l-30 70h56q17 187 27 240q10 60 30.5 99.5t45.5 55t50.5 15.5t50.5 -14q22 -13 77.5 -78.5t55.5 -78.5q0 -30 -32 -113t-81 -126h47l30 -70h-205q-19 -258 -30 -332q-8 -58 -72 -74t-147 22q108 0 118 77q12 104 29 307h-20zM247 441q-4 -39 -9 -130
q39 15 73.5 55t52.5 87t21.5 94.5t-18.5 77.5q-23 32 -57 -6q-47 -50 -61 -158z" />
    <glyph glyph-name="uni0218" unicode="&#x218;" horiz-adv-x="756" 
d="M599 527q-42 16 -81.5 26t-89 11.5t-87.5 -12.5t-69 -53.5t-41 -103.5q-2 -11 76 -6.5t152 10.5t102 -9q99 -88 139 -163q20 -36 -17 -104q-47 -85 -136 -125q-157 -72 -344 53q-76 51 -153 135l30 15q58 -31 93.5 -48t89.5 -34.5t95 -18.5q95 -2 156 46.5t69 131.5
q1 9 -72 -2.5t-147 -20.5t-112 14q-40 32 -125 126q-27 33 -28 71t25 77t64 70t89.5 51t102.5 20q13 0 49 -16.5t99.5 -49.5t83.5 -43zM411 -324l-41 27q25 80 22 116q-31 27 -45 55q2 16 30 41t45 29q27 -13 51.5 -37.5t23.5 -44.5q-6 -37 -35 -99t-51 -87z" />
    <glyph glyph-name="uni0219" unicode="&#x219;" horiz-adv-x="555" 
d="M416 445l-11 -54q-97 22 -128 18q-49 -6 -77 -47.5t-20 -79.5q2 -9 46 2t96 22.5t67 3.5q69 -36 93 -95t5.5 -112.5t-75.5 -92.5t-137 -39q-66 0 -122.5 36.5t-132.5 109.5l18 34q68 -51 144 -68.5t141.5 13.5t87.5 114q1 4 -9 3q-11 -1 -55 -13q-139 -37 -177 -22l-9 5
q-55 42 -89 92q-25 34 -20.5 72t25.5 69.5t63 52t92 20.5q15 0 42.5 -6t78 -20.5t63.5 -17.5zM271 -319l-41 27q25 80 22 116q-31 27 -45 55q2 16 30 41t45 29q27 -13 51.5 -37.5t23.5 -44.5q-6 -37 -35 -99t-51 -87z" />
    <glyph glyph-name="uni021A" unicode="&#x21a;" horiz-adv-x="647" 
d="M80 577l-80 90h567l80 -90h-241l2 -606l-140 29v577h-188zM324 -326l-41 27q25 80 22 116q-31 27 -45 55q2 16 30 41t45 29q27 -13 51.5 -37.5t23.5 -44.5q-6 -37 -35 -99t-51 -87z" />
    <glyph glyph-name="uni021B" unicode="&#x21b;" horiz-adv-x="427" 
d="M53 408l-30 70h82v108l123 -28v-80h122l30 -70h-152v-127v-33q0 -27 -0.5 -54t3 -51t8.5 -44t17 -32t29 -16t43.5 5.5t60.5 31.5l27 -31q-58 -53 -97 -74q-30 -17 -82.5 5.5t-92 63t-39.5 70.5v286h-52zM246 -323l-41 27q25 80 22 116q-31 27 -45 55q2 16 30 41t45 29
q27 -13 51.5 -37.5t23.5 -44.5q-6 -37 -35 -99t-51 -87z" />
    <glyph glyph-name="apostrophemod" unicode="&#x2bc;" horiz-adv-x="300" 
d="M167 541l-41 27q25 80 22 116q-31 27 -45 55q2 16 30 41t45 29q27 -13 51.5 -37.5t23.5 -44.5q-6 -37 -35 -99t-51 -87z" />
    <glyph glyph-name="circumflex" unicode="&#x2c6;" horiz-adv-x="354" 
d="M35 551q-6 1 -24.5 21t-19.5 24q0 4 91.5 81.5t95.5 76.5q7 -2 90 -70t82 -73q0 -5 -36 -34.5t-40 -27.5q-6 0 -33 26t-56 55.5t-30 30.5q-1 -1 -58 -54.5t-62 -55.5z" />
    <glyph glyph-name="caron" unicode="&#x2c7;" horiz-adv-x="350" 
d="M55 699l99 -117l131 122l71 -71l-151 -110h-66l-122 132z" />
    <glyph glyph-name="uni02C9" unicode="&#x2c9;" horiz-adv-x="377" 
d="M58 543l-22 58h290l23 -58h-291z" />
    <glyph glyph-name="breve" unicode="&#x2d8;" horiz-adv-x="353" 
d="M17 679l27 31q7 -10 19 -25.5t39 -41t44 -26.5q20 -1 55 24.5t60 51.5l25 26l70 -62q-5 -5 -13 -12.5t-31.5 -27t-45.5 -34t-50 -26.5t-49 -12t-58.5 33.5t-64.5 67.5z" />
    <glyph glyph-name="dotaccent" unicode="&#x2d9;" horiz-adv-x="156" 
d="M82 568q-51 24 -76 73q2 16 30 41t45 29q51 -23 75 -71q-17 -43 -74 -72z" />
    <glyph glyph-name="ring" unicode="&#x2da;" horiz-adv-x="260" 
d="M165 725q-28 17 -56.5 -8t-30.5 -59t27 -55q18 -8 35 -2.5t28.5 22t17.5 35.5t0.5 38t-21.5 29zM226 735q22 -19 27.5 -49t-4.5 -58.5t-30.5 -52t-51 -29t-64.5 9.5q-33 17 -53 34q-29 23 -37 55.5t3.5 60t32 51.5t48 30t53.5 -5q48 -25 76 -47z" />
    <glyph glyph-name="ogonek" unicode="&#x2db;" horiz-adv-x="263" 
d="M136 49l93 -46q-66 -60 -94.5 -107.5t1.5 -67.5q35 -14 112 46l17 -17q17 -17 34 -35l17 -17q-63 -40 -89.5 -49.5t-58.5 -0.5q-24 7 -61.5 33t-58.5 51q-18 22 -20.5 46t23 67t85.5 97z" />
    <glyph glyph-name="tilde" unicode="&#x2dc;" horiz-adv-x="414" 
d="M134 717q14 -2 62 -47t58 -45q13 0 53 44.5t42 44.5q5 -1 39 -36.5t35 -40.5q1 -4 -22 -27.5t-57 -47t-56 -23.5q-15 0 -67 44t-58 44q-18 -1 -57 -43t-42 -43q-7 2 -36.5 42.5t-29.5 48.5q2 8 60 47.5t76 37.5z" />
    <glyph glyph-name="hungarumlaut" unicode="&#x2dd;" horiz-adv-x="374" 
d="M276 548l-50 14q3 30 3.5 80.5t4.5 87.5q1 19 69 -20q41 -23 46 -33q-8 -18 -12 -28.5t-9.5 -21.5l-7.5 -15t-8 -13.5t-8.5 -12.5t-12 -16.5t-15.5 -21.5zM105 548l-50 14q3 30 3.5 80.5t4.5 87.5q1 19 69 -20q41 -23 46 -33q-8 -18 -12 -28.5t-9.5 -21.5l-7.5 -15
t-8 -13.5t-8.5 -12.5t-12 -16.5t-15.5 -21.5z" />
    <glyph glyph-name="pi" unicode="&#x3c0;" horiz-adv-x="760" 
d="M127 389l-80 90h567l80 -90h-94v-418l-115 28v390h-185q32 -57 43 -120t3 -114t-24 -94t-35 -66.5t-33 -23.5q-19 0 -56.5 20t-46.5 34q3 4 14.5 20.5t16 23t13.5 22t17 32.5t16 39q16 42 16.5 102t-24.5 125h-93z" />
    <glyph glyph-name="dvCandrabindu" unicode="&#x901;" 
d="M-380 808l25 25q11 -11 29 -27.5t55 -44t54 -27.5q28 0 69 27.5t68 54.5l28 28l59 -62q-4 -5 -11.5 -12.5t-31.5 -26.5t-47.5 -33.5t-57 -26.5t-64.5 -12q-28 0 -71.5 34.5t-73.5 68.5zM-199 795q-54 25 -80 78q2 17 31.5 43.5t46.5 30.5q55 -24 79 -75q-16 -45 -77 -77z
" />
    <glyph glyph-name="dvAnusvara" unicode="&#x902;" 
d="M80 693q-54 25 -80 78q2 17 31.5 43.5t46.5 30.5q55 -24 79 -75q-16 -45 -77 -77z" />
    <glyph glyph-name="dvVisarga" unicode="&#x903;" horiz-adv-x="286" 
d="M194 322q-51 24 -76 73q2 16 30 41t45 29q51 -23 75 -71q-17 -43 -74 -72zM194 18q-51 24 -76 73q2 16 30 41t45 29q51 -23 75 -71q-17 -43 -74 -72z" />
    <glyph glyph-name="dvA.short" unicode="&#x904;" horiz-adv-x="790" 
d="M687 619h117v-97h-66v-578l-124 56v267q-12 -4 -24 -6.5t-24.5 -2t-21.5 1t-22.5 4.5t-20 6t-20.5 8.5t-18.5 8.5t-19.5 10t-17 9l-5 -4l30 -20t27.5 -20.5t31 -28t22.5 -31t20 -40.5q13 -37 -14.5 -78t-75 -67t-101 -36.5t-92.5 13.5q-87 53 -250 293l25 18
q2 -2 19.5 -26t25 -33t28 -33.5t33 -36t34.5 -31.5t39 -29t40 -19.5t43 -12t44 2.5t46 16q55 32 49.5 79.5t-61.5 97.5q-53 -24 -113 -27l-54 93q102 11 158 47t38 80q-16 39 -49 49.5t-74.5 -5.5t-67 -30t-52.5 -32l-61 87l19 14q20 13 31 19.5t34 20t39.5 18.5t37.5 9
t39 -0.5t33 -16.5q89 -75 134 -120q33 -36 22 -83t-57 -86q99 -16 173 58v147h-93l-38 97h160q-39 57 -62 72q-16 10 -79.5 19t-75.5 15q-35 18 -72 78l64 53q6 -8 15 -22.5t16 -23t14 -10.5q5 -2 73 -14.5t82 -24.5q11 -10 36.5 -63.5t32.5 -78.5z" />
    <glyph glyph-name="dvA" unicode="&#x905;" horiz-adv-x="790" 
d="M521 522l-38 97h321v-97h-66v-578l-124 56v267q-12 -4 -24 -6.5t-24.5 -2t-21.5 1t-22.5 4.5t-20 6t-20.5 8.5t-18.5 8.5t-19.5 10t-17 9l-5 -4l30 -20t27.5 -20.5t31 -28t22.5 -31t20 -40.5q13 -37 -14.5 -78t-75 -67t-101 -36.5t-92.5 13.5q-87 53 -250 293l25 18
q2 -2 19.5 -26t25 -33t28 -33.5t33 -36t34.5 -31.5t39 -29t40 -19.5t43 -12t44 2.5t46 16q55 32 49.5 79.5t-61.5 97.5q-53 -24 -113 -27l-54 93q102 11 158 47t38 80q-16 39 -49 49.5t-74.5 -5.5t-67 -30t-52.5 -32l-61 87l19 14q20 13 31 19.5t34 20t39.5 18.5t37.5 9
t39 -0.5t33 -16.5q89 -75 134 -120q33 -36 22 -83t-57 -86q99 -16 173 58v147h-93z" />
    <glyph glyph-name="dvAA" unicode="&#x906;" horiz-adv-x="1049" 
d="M533 523l-38 96h568v-96h-65v-575l-124 56v519h-124v-575l-124 56v267q-12 -4 -24 -6.5t-24.5 -2t-21.5 1t-22.5 4.5t-20 6t-20.5 8.5t-18.5 8.5t-19.5 10t-17 9l-5 -4l30 -20t27.5 -20.5t31 -28t22.5 -31t20 -40.5q13 -37 -14.5 -78t-75 -67t-101 -36.5t-92.5 13.5
q-87 53 -250 293l25 18q2 -2 19.5 -26t25 -33t28 -33.5t33 -36t34.5 -31.5t39 -29t40 -19.5t43 -12t44 2.5t46 16q55 32 49.5 79.5t-61.5 97.5q-53 -24 -113 -27l-54 93q102 11 158 47t38 80q-16 39 -49 49.5t-74.5 -5.5t-67 -30t-52.5 -32l-61 87l19 14q20 13 31 19.5
t34 20t39.5 18.5t37.5 9t39 -0.5t33 -16.5q89 -75 134 -120q33 -36 22 -83t-57 -86q99 -16 173 58v144h-93z" />
    <glyph glyph-name="dvI" unicode="&#x907;" horiz-adv-x="591" 
d="M-5 523v96h602v-96h-150l3 -139h-223q-24 0 -39 -39q-18 -45 2 -68q15 -17 45 -9q14 4 64.5 20.5t87.5 26t44 5.5q67 -49 138 -120q7 -7 8.5 -21.5t-3.5 -33t-15 -39t-28.5 -40t-41 -36t-54 -27.5t-66.5 -13q119 -97 170 -130l-39 -42q-97 89 -194 170q-6 0 -34 -3
t-41 -3h-34.5t-34.5 4.5t-21 12.5q-58 50 -58 93q0 12 24 35t48 29q20 -10 102 -75q60 -12 123.5 13.5t93.5 65t5 64.5q-16 16 -52 5.5t-72 -31.5t-73.5 -32.5t-55.5 2.5q-106 85 -145 127q-18 26 -12 64t31.5 72.5t51.5 36.5l184 11v44h-341z" />
    <glyph glyph-name="dvII" unicode="&#x908;" horiz-adv-x="595" 
d="M-5 523v96h370q-55 25 -98.5 68.5t-43.5 74.5q0 47 57 89.5t106 42.5q27 0 148 -91l-16 -24q-80 45 -114 45q-24 0 -46 -29t-22 -56q0 -8 2 -15.5t8.5 -16.5t11 -15.5t16 -17.5t17.5 -16.5t22 -19t22 -19.5h162v-96h-150l3 -139h-223q-24 0 -39 -39q-18 -45 2 -68
q15 -17 45 -9q14 4 64.5 20.5t87.5 26t44 5.5q67 -49 138 -120q7 -7 8.5 -21.5t-3.5 -33t-15 -39t-28.5 -40t-41 -36t-54 -27.5t-66.5 -13q119 -97 170 -130l-39 -42q-97 89 -194 170q-6 0 -34 -3t-41 -3h-34.5t-34.5 4.5t-21 12.5q-58 50 -58 93q0 12 24 35t48 29
q20 -10 102 -75q60 -12 123.5 13.5t93.5 65t5 64.5q-16 16 -52 5.5t-72 -31.5t-73.5 -32.5t-55.5 2.5q-106 85 -145 127q-18 26 -12 64t31.5 72.5t51.5 36.5l184 11v44h-341z" />
    <glyph glyph-name="dvU" unicode="&#x909;" horiz-adv-x="553" 
d="M-5 523v96h564v-96h-251q40 -29 73.5 -66t31.5 -61q-6 -50 -40 -81q52 -36 98 -78t54 -75q8 -37 -23.5 -77.5t-80.5 -65.5t-104 -35t-93 14q-12 7 -22.5 15.5t-22.5 20.5t-20.5 21t-21.5 27t-20 27.5t-22 33.5t-21.5 34t-24.5 39.5t-25 40.5l27 18q7 -10 32.5 -47.5
t38.5 -54.5t41 -44t52 -35.5t58.5 -7.5t71.5 21q44 23 55.5 54.5t-5.5 63.5t-56 65q-40 -23 -100 -40l-61 85q9 4 29 12t33 13t29.5 14.5t25 18.5t14 22.5t1 28.5t-18.5 35.5t-40 43.5h-256z" />
    <glyph glyph-name="dvUU" unicode="&#x90a;" horiz-adv-x="782" 
d="M413 396q-6 -50 -40 -81l5 -3q36 30 83 57t79 26q46 -1 123 -89q46 -48 37 -117.5t-73 -107.5l-72 61q72 43 80 104q6 48 -30 68q-47 26 -114 -28q-18 -14 -36 -34q62 -55 70 -90q8 -37 -23.5 -77.5t-80.5 -65.5t-104 -35t-93 14q-12 7 -22.5 15.5t-22.5 20.5t-20.5 21
t-21.5 27t-20 27.5t-22 33.5t-21.5 34t-24.5 39.5t-25 40.5l27 18q7 -10 32.5 -47.5t38.5 -54.5t41 -44t52 -35.5t58.5 -7.5t71.5 21q44 23 55.5 54.5t-5.5 63.5t-56 65q-40 -23 -100 -40l-61 85q9 4 29 12t33 13t29.5 14.5t25 18.5t14 22.5t1 28.5t-18.5 35.5t-40 43.5
h-259v96h795v-96h-479q40 -29 73.5 -66t31.5 -61z" />
    <glyph glyph-name="dvvR" unicode="&#x90b;" horiz-adv-x="853" 
d="M-11 523v96h870v-96h-371v-177q62 -2 101 37q-10 9 -17.5 25.5t-4.5 21.5q10 21 43 41t47 18q16 -2 50.5 -40t18.5 -56l-38 -43l49 -59l76 -81q-123 -45 -154 -108q-21 -42 12 -63q41 -26 114 12q33 17 66 45l93 -56q-40 -42 -88.5 -65.5t-82 -23.5t-56.5 9
q-36 21 -72.5 55t-53.5 58q-11 17 -15 36t2 46t39 59t92 63l-50 54q-57 -73 -171 -35v-351l-124 56v174q-63 -51 -192 -122l-77 89q193 79 269 143v1q-106 50 -281 31l-38 124q57 7 150.5 -11.5t168.5 -54.5v148h-375z" />
    <glyph glyph-name="dvvL" unicode="&#x90c;" horiz-adv-x="737" 
d="M-10 523v96h757v-96h-138v-193q56 -42 74 -71q17 -28 12.5 -54.5t-24 -48t-46 -44t-54 -41.5t-47.5 -41t-27.5 -42.5t7.5 -45.5q11 -18 30.5 -24.5t43.5 3t43 36.5l86 -67q-110 -100 -190 -33q-49 40 -110 128q-16 23 -10 48t28 46.5t51 44.5t58.5 42.5t50 41.5
t25.5 40.5t-15 40.5q-48 43 -99.5 18t-93 -80t-52.5 -105l-80 63q8 38 43 91q-50 36 -92 42t-65 -14.5t-33 -52t0 -72t37 -74.5q60 -78 114 -128l-27 -34q-80 70 -158 167.5t-84 142.5q-4 31 33 73.5t85 69.5t75 18q42 -14 135 -110q71 92 151 96h1v123h-495z" />
    <glyph glyph-name="dvEcandra" unicode="&#x90d;" horiz-adv-x="552" 
d="M-10 523v96h568v-96h-66v-277q0 -20 -31.5 -52.5t-68.5 -55.5l-92 73q20 9 44 29t24 41v242h-189q0 -23 -1 -70.5t-1.5 -77.5t0.5 -66.5t4.5 -60.5t10.5 -36q22 -37 147 -129q38 -28 53.5 -65t8 -70.5t-32.5 -56.5l-95 72q19 9 28 30.5t-1.5 53.5t-46.5 62
q-28 23 -76.5 61t-79.5 63t-33 28q-1 1 -6 262h-68zM95 798l25 25q11 -11 29 -27.5t55 -44t54 -27.5q28 0 69 27.5t69 54.5l27 28l59 -62q-4 -5 -11.5 -12.5t-31.5 -26.5t-47.5 -33.5t-57 -26.5t-64.5 -12q-28 0 -71.5 34.5t-73.5 68.5z" />
    <glyph glyph-name="dvE" unicode="&#x90f;" horiz-adv-x="540" 
d="M-7 523v96h568v-96h-66v-277q0 -20 -31.5 -52.5t-68.5 -55.5l-92 73q20 9 44 29t24 41v242h-189q0 -23 -1 -70.5t-1.5 -77.5t0.5 -66.5t4.5 -60.5t10.5 -36q22 -37 147 -129q38 -28 53.5 -65t8 -70.5t-32.5 -56.5l-95 72q19 9 28 30.5t-1.5 53.5t-46.5 62
q-28 23 -76.5 61t-79.5 63t-33 28q-1 1 -6 262h-68z" />
    <glyph glyph-name="dvAI" unicode="&#x910;" horiz-adv-x="537" 
d="M413 619h138v-96h-66v-277q0 -20 -31.5 -52.5t-68.5 -55.5l-92 73q20 9 44 29t24 41v242h-189q0 -23 -1 -70.5t-1.5 -77.5t0.5 -66.5t4.5 -60.5t10.5 -36q22 -37 147 -129q38 -28 53.5 -65t8 -70.5t-32.5 -56.5l-95 72q19 9 28 30.5t-1.5 53.5t-46.5 62q-28 23 -76.5 61
t-79.5 63t-33 28q-1 1 -6 262h-68v96h387q-64 86 -122 116q-65 35 -185 -11l-71 80q51 16 116.5 23.5t94.5 2.5q20 -5 42 -19.5t48 -43t41 -46.5t44.5 -56.5t34.5 -45.5z" />
    <glyph glyph-name="dvOcandra" unicode="&#x911;" horiz-adv-x="1044" 
d="M709 798l25 25q11 -11 29 -27.5t55 -44t54 -27.5q28 0 69 27.5t69 54.5l27 28l59 -62q-4 -5 -11.5 -12.5t-31.5 -26.5t-47.5 -33.5t-57 -26.5t-64.5 -12q-28 0 -71.5 34.5t-73.5 68.5zM533 523l-38 96h568v-96h-65v-575l-124 56v519h-124v-575l-124 56v267
q-12 -4 -24 -6.5t-24.5 -2t-21.5 1t-22.5 4.5t-20 6t-20.5 8.5t-18.5 8.5t-19.5 10t-17 9l-5 -4l30 -20t27.5 -20.5t31 -28t22.5 -31t20 -40.5q13 -37 -14.5 -78t-75 -67t-101 -36.5t-92.5 13.5q-87 53 -250 293l25 18q2 -2 19.5 -26t25 -33t28 -33.5t33 -36t34.5 -31.5
t39 -29t40 -19.5t43 -12t44 2.5t46 16q55 32 49.5 79.5t-61.5 97.5q-53 -24 -113 -27l-54 93q102 11 158 47t38 80q-16 39 -49 49.5t-74.5 -5.5t-67 -30t-52.5 -32l-61 87l19 14q20 13 31 19.5t34 20t39.5 18.5t37.5 9t39 -0.5t33 -16.5q89 -75 134 -120q33 -36 22 -83
t-57 -86q99 -16 173 58v144h-93z" />
    <glyph glyph-name="dvO" unicode="&#x913;" horiz-adv-x="1044" 
d="M956 619h107v-96h-65v-575l-124 56v519h-124v-575l-124 56v267q-12 -4 -24 -6.5t-24.5 -2t-21.5 1t-22.5 4.5t-20 6t-20.5 8.5t-18.5 8.5t-19.5 10t-17 9l-5 -4l30 -20t27.5 -20.5t31 -28t22.5 -31t20 -40.5q13 -37 -14.5 -78t-75 -67t-101 -36.5t-92.5 13.5
q-87 53 -250 293l25 18q2 -2 19.5 -26t25 -33t28 -33.5t33 -36t34.5 -31.5t39 -29t40 -19.5t43 -12t44 2.5t46 16q55 32 49.5 79.5t-61.5 97.5q-53 -24 -113 -27l-54 93q102 11 158 47t38 80q-16 39 -49 49.5t-74.5 -5.5t-67 -30t-52.5 -32l-61 87l19 14q20 13 31 19.5
t34 20t39.5 18.5t37.5 9t39 -0.5t33 -16.5q89 -75 134 -120q33 -36 22 -83t-57 -86q99 -16 173 58v144h-93l-38 96h418q-64 86 -122 116q-65 35 -185 -11l-71 80q51 16 116.5 23.5t94.5 2.5q20 -5 42 -19.5t48 -43t41 -46.5t44.5 -56.5t34.5 -45.5z" />
    <glyph glyph-name="dvAU" unicode="&#x914;" horiz-adv-x="1041" 
d="M980 619h83v-96h-65v-575l-124 56v519h-124v-575l-124 56v267q-12 -4 -24 -6.5t-24.5 -2t-21.5 1t-22.5 4.5t-20 6t-20.5 8.5t-18.5 8.5t-19.5 10t-17 9l-5 -4l30 -20t27.5 -20.5t31 -28t22.5 -31t20 -40.5q13 -37 -14.5 -78t-75 -67t-101 -36.5t-92.5 13.5
q-87 53 -250 293l25 18q2 -2 19.5 -26t25 -33t28 -33.5t33 -36t34.5 -31.5t39 -29t40 -19.5t43 -12t44 2.5t46 16q55 32 49.5 79.5t-61.5 97.5q-53 -24 -113 -27l-54 93q102 11 158 47t38 80q-16 39 -49 49.5t-74.5 -5.5t-67 -30t-52.5 -32l-61 87l19 14q20 13 31 19.5
t34 20t39.5 18.5t37.5 9t39 -0.5t33 -16.5q89 -75 134 -120q33 -36 22 -83t-57 -86q99 -16 173 58v144h-93l-38 96h409q-73 76 -120 85t-115 -34l-57 60q103 49 153 38q11 -2 23.5 -8.5t27 -17t25.5 -19.5t27.5 -25t25 -24t26 -26.5t21.5 -22.5q-24 50 -83 117.5t-94 74.5
q-65 13 -177 -39l-66 69q200 75 264 34q12 -8 24 -17.5t21 -17.5t20.5 -21.5t18 -21.5t18.5 -26l17 -25.5t18 -30t17.5 -30.5t20 -35.5t20.5 -36.5z" />
    <glyph glyph-name="dvKA" unicode="&#x915;" horiz-adv-x="855" 
d="M-27 523v96h888v-96h-361v-112q58 51 142 48q28 -1 89.5 -65t93.5 -111q34 -52 -21.5 -122.5t-140.5 -99.5l-94 86q108 38 141 86q23 33 24.5 62t-15 43.5t-44.5 18.5t-64 -13q-85 -39 -111 -119v-281l-125 56v140q-60 -70 -122 -70q-119 0 -218 192q-21 40 25.5 96
t112.5 88t95 13q50 -37 107 -73v137h-402zM132 200q11 -13 34 -21t56 -8.5t74.5 24.5t78.5 75v63q-76 38 -138 17t-96.5 -72t-8.5 -78z" />
    <glyph glyph-name="dvKHA" unicode="&#x916;" horiz-adv-x="865" 
d="M-15 619h887v-96h-76v-579l-124 56v106q-48 -73 -116 -118t-148 -45q-74 0 -137 24t-104 61.5t-71 85t-43.5 92.5t-15.5 85q22 61 46 89q9 11 33 -1t42 -30q6 -6 9.5 -17t7 -29t7.5 -30q40 13 62.5 41t26.5 64t-1.5 72t-18.5 73h-266v96zM558 70q-114 4 -212 190
q-42 -84 -149 -117q14 -45 65 -85.5t135 -40.5q97 0 161 53zM443 200q11 -12 32.5 -20t52.5 -10t69.5 18.5t74.5 62.5v90q-73 29 -131.5 6t-90 -72t-7.5 -75zM580 459q27 -20 92 -63v127h-355q55 -85 52 -169q43 53 112 89t99 16z" />
    <glyph glyph-name="dvGA" unicode="&#x917;" horiz-adv-x="653" 
d="M-5 523v96h662v-96h-82v-579l-124 56v523h-244q65 -70 89.5 -149.5t10.5 -141t-58 -102t-108 -40.5q-17 0 -53 38t-44 57q-10 24 2.5 74t37.5 59q3 1 28.5 -15t32.5 -22q4 -3 6 -6.5t4 -9t3 -8t3 -12t3 -13.5q44 65 40.5 148t-49.5 143h-160z" />
    <glyph glyph-name="dvGHA" unicode="&#x918;" horiz-adv-x="708" 
d="M-11 523v96h727v-96h-85v-578l-124 56v113q-34 -31 -75.5 -51.5t-78 -28t-68 -4t-48.5 19.5q-102 92 -132 128q-21 25 3.5 61t74.5 70q-43 20 -71 50.5t-23.5 75.5t61.5 88h-161zM325 364l74 -77q-90 -16 -156 -67t-22 -93q21 -22 61.5 -12.5t83.5 34.5t83 66t58 83v225
h-185q-60 -23 -98 -56t-42 -68.5t41 -65.5q66 34 102 31z" />
    <glyph glyph-name="dvNGA" unicode="&#x919;" horiz-adv-x="764" 
d="M-4 523v96h782v-96h-329v-134h-221q-23 0 -38 -39q-18 -46 1 -73q13 -19 45 -11q9 2 69 20.5t101.5 28t47.5 4.5q63 -53 122 -144q6 -10 7 -25.5t-5.5 -33.5t-18.5 -37t-32.5 -36.5t-46.5 -31.5t-62.5 -22.5t-78.5 -8.5q-49 0 -99 21.5t-85 48.5t-68.5 64t-48 57
t-25.5 37l20 19q17 -20 37.5 -40t57.5 -51t83.5 -50t90.5 -19q62 0 117 27.5t71.5 60.5t-4.5 62q-16 16 -53 6t-74 -30t-75.5 -30.5t-56.5 3.5q-108 89 -145 127q-18 26 -11.5 64t32 72.5t51.5 36.5l183 11v46h-341zM639 268q-51 24 -76 73q2 16 30 41t45 29q51 -23 75 -71
q-17 -43 -74 -72z" />
    <glyph glyph-name="dvCA" unicode="&#x91a;" horiz-adv-x="756" 
d="M88 319l-96 83h318l98 -83q-120 -42 -145 -96q-16 -35 18 -51q47 -20 125 22q82 45 158 146v183h-634v96h844v-96h-86v-579l-124 56v163q-48 -48 -101 -72t-94 -23t-66 21q-80 64 -138 131q-34 38 15 99h-92z" />
    <glyph glyph-name="dvCHA" unicode="&#x91b;" horiz-adv-x="778" 
d="M646 439q-18 19 -50 -24q-42 -57 -47 -129q-2 -42 13 -73q62 66 87 127t-3 99zM342 351l71 -72q-38 -15 -70.5 -33.5t-58.5 -41t-30.5 -45t12.5 -45.5q30 -35 78 -31t97 32t97 74q-54 58 -71 87q-12 15 -5.5 50.5t20.5 73t40 73t54 50.5h-213q-46 -19 -77.5 -40.5
t-49 -46.5t-11 -54t37.5 -60q48 25 79 29zM-8 523v96h795v-96h-159q22 -17 54 -59t46 -67q21 -37 13.5 -84t-34.5 -93.5t-69 -92.5l114 -116l-32 -31l-106 123q-55 -52 -115.5 -85.5t-115.5 -39t-90 28.5q-66 66 -146 170q-17 22 6 55t68 65q-23 15 -43 32t-37 41.5
t-21 48.5t11.5 51.5t53.5 52.5h-193z" />
    <glyph glyph-name="dvJA" unicode="&#x91c;" horiz-adv-x="831" 
d="M628 0v305h-147q27 -24 47.5 -49.5t25.5 -39.5q12 -37 -18.5 -75t-80 -59.5t-103 -29t-86.5 16.5q-64 44 -231 291l26 16q77 -93 107 -123q109 -106 191 -82q13 4 26.5 10.5t27 18.5t20.5 26.5t4.5 35t-17.5 43.5h-72l-109 96h389v122h-634v96h844v-96h-86v-579z" />
    <glyph glyph-name="dvJHA" unicode="&#x91d;" horiz-adv-x="764" 
d="M573 1v282q-71 -28 -164 -2q42 -34 99 -89q10 -10 10.5 -33t-11 -51t-32.5 -54t-59 -45t-85 -22q117 -96 169 -130l-39 -42q-106 98 -193 170q-6 0 -34 -3t-41 -3h-34.5t-34.5 4.5t-21 12.5q-58 50 -58 93q0 12 24 35t48 29q20 -10 102 -75q59 -12 117 12.5t82.5 62.5
t-0.5 63q-16 16 -48.5 6t-64.5 -30t-66 -30.5t-52 3.5q-108 88 -144 127q-18 26 -12 64t31.5 72.5t51.5 36.5l163 11v47h-283v96h779v-96h-76v-578zM371 311q67 -13 123 17t79 75v120h-185l3 -142h-203q-23 0 -38 -37q-18 -45 2 -70q14 -17 45 -9q15 4 59 19t75.5 23.5
t38.5 4.5q0 -1 1 -1z" />
    <glyph glyph-name="dvNYA" unicode="&#x91e;" horiz-adv-x="806" 
d="M610 1v240q-62 -30 -131 30q42 -77 2 -131t-133 -66q-50 -6 -96 7t-89 45.5t-74.5 65t-73.5 83.5l33 26q68 -84 145 -119.5t133.5 -20.5t77.5 70q17 45 -17.5 79.5t-84.5 7.5l-85 -45l-80 74q122 73 163 70q19 -1 43.5 -17t42 -32t44.5 -44q145 -29 180 39v160h-662v96
h862v-96h-76v-578z" />
    <glyph glyph-name="dvTTA" unicode="&#x91f;" horiz-adv-x="600" 
d="M-8 523v96h618v-96h-150v-142h-194q-47 0 -74 -64q-30 -72 -9 -145q25 -85 106 -93h3q27 -2 50.5 3.5t45 23.5t32.5 29t34 40.5t29 36.5l85 -75q-27 -37 -45 -58.5t-45.5 -45.5t-60.5 -36.5t-74 -16.5q-57 -5 -115 43q-43 35 -65 53.5t-52.5 50t-50.5 60.5
q-20 28 -15.5 72.5t20.5 87.5t44 75t56 35l184 11v55h-357z" />
    <glyph glyph-name="dvTTHA" unicode="&#x920;" horiz-adv-x="624" 
d="M-8 523v96h638v-96h-170v-115q61 -42 93.5 -90.5t34.5 -93.5t-16 -88t-52.5 -75.5t-80.5 -54.5t-96 -26q-57 -5 -115 43q-43 35 -65 53.5t-52.5 50t-50.5 60.5q-20 28 -15.5 72.5t20.5 87.5t44 75t56 35l184 11v55h-357zM297 78q54 -4 101 20t74 65.5t25 100.5t-41 117
h-187q-52 0 -81.5 -72.5t-3 -148t112.5 -82.5z" />
    <glyph glyph-name="dvDDA" unicode="&#x921;" horiz-adv-x="644" 
d="M-10 523v96h659v-96h-186v-134h-221q-23 0 -38 -39q-18 -46 1 -73q13 -19 45 -11q9 2 69 20.5t101.5 28t47.5 4.5q63 -53 122 -144q6 -10 7 -25.5t-5.5 -33.5t-18.5 -37t-32.5 -36.5t-46.5 -31.5t-62.5 -22.5t-78.5 -8.5q-49 0 -99 21.5t-85 48.5t-68.5 64t-48 57
t-25.5 37l20 19q17 -20 37.5 -40t57.5 -51t83.5 -50t90.5 -19q62 0 117 27.5t71.5 60.5t-4.5 62q-16 16 -53 6t-74 -30t-75.5 -30.5t-56.5 3.5q-108 89 -145 127q-18 26 -11.5 64t32 72.5t51.5 36.5l183 11v46h-361z" />
    <glyph glyph-name="dvDDHA" unicode="&#x922;" horiz-adv-x="617" 
d="M-8 523v96h628v-96h-160v-141h-191q-30 0 -54.5 -30t-33 -73t-5 -87t30 -76.5t71.5 -35.5q34 -3 62 5q-41 45 -55 77t14.5 70.5t64.5 62.5t51 24q18 0 85 -66.5t72 -83.5q6 -25 -21 -62t-70 -72q-62 -50 -127.5 -54.5t-125.5 42.5q-43 35 -65 53.5t-52.5 50t-50.5 60.5
q-20 28 -15.5 72.5t20.5 87.5t44 75t56 35l184 11v55h-357zM372 98q41 18 76.5 65.5t18.5 64.5q-14 13 -43.5 0.5t-48.5 -48.5t-3 -82z" />
    <glyph glyph-name="dvNNA" unicode="&#x923;" horiz-adv-x="781" 
d="M-2 523v96h786v-96h-72v-578l-124 56v522h-83v-299q0 -40 -68.5 -96.5t-137.5 -56.5q-71 0 -235 174q-5 5 -8.5 109t-3.5 169h-54zM176 205q30 -27 69 -26t78.5 29.5t57.5 72.5v242h-207z" />
    <glyph glyph-name="dvTA" unicode="&#x924;" horiz-adv-x="625" 
d="M438 1v306l-179 3q-60 1 -95.5 -35.5t-30 -95.5t56.5 -117q43 -48 86 -89l-35 -29q-55 48 -79 70t-65 62t-60 68.5t-22 50.5q-3 16 8.5 50t32.5 70t57 63t75 27l250 -2v120h-484v96h685v-96h-77v-578z" />
    <glyph glyph-name="dvTHA" unicode="&#x925;" horiz-adv-x="661" 
d="M384 523l-39 96h327v-96h-71v-578l-124 56v142q-71 -71 -163 -71q-36 0 -87 30t-93 68.5t-73.5 73t-34.5 44.5q-2 5 28 20.5t70 36.5t56 34q-63 19 -108.5 55t-45.5 77q0 30 21 57t50.5 40.5t61.5 18.5t54 -10q49 -30 94 -77.5t55 -74.5q10 -28 -3 -58t-48 -60.5t-63 -51
t-74 -49.5q-23 -15 -34 -22q54 -51 120.5 -54t124 33.5t92.5 99.5v220h-93zM209 408q11 0 35.5 24t26.5 34q7 46 -21 76t-70 8q-37 -19 -48 -45t-0.5 -47t32 -35.5t45.5 -14.5z" />
    <glyph glyph-name="dvDA" unicode="&#x926;" horiz-adv-x="605" 
d="M580 -119l-114 143q-53 -37 -123 -44q-57 -5 -115 43q-43 35 -65 53.5t-52.5 50t-50.5 60.5q-20 28 -15.5 72.5t20.5 87.5t44 75t56 35l184 11v55h-357v96h618v-96h-150v-142h-191q-30 0 -54.5 -30t-32.5 -73t-3.5 -87t32.5 -76t75 -36q60 -5 110 34q-42 55 -37 66
q19 38 70 69q17 11 33 12.5t30 -5.5t26 -17t25 -26q23 -27 28.5 -54.5t-14.5 -53.5l-53 -53l115 -143z" />
    <glyph glyph-name="dvDHA" unicode="&#x927;" horiz-adv-x="692" 
d="M489 2v112q-34 -31 -75 -51.5t-78 -28t-68 -4t-48 19.5q-102 92 -132 128q-22 26 4.5 63.5t80.5 72.5q-30 20 -73.5 56.5t-64.5 58.5q-32 34 -13.5 72t57 67.5t80 46.5t55.5 10q74 -37 119 -93q20 -23 9 -51.5t-36.5 -53t-66 -39.5t-78.5 -12q18 -21 48 -42q61 33 99 30
l74 -77q-90 -16 -156 -67t-22 -93q20 -22 60.5 -12.5t83 34t82.5 65t59 82.5v227h-75l-39 96h322v-96h-84v-577zM256 537q-11 11 -34 6.5t-45.5 -15.5t-38 -34t-13.5 -50q37 0 73 19.5t52 42t6 31.5z" />
    <glyph glyph-name="dvNA" unicode="&#x928;" horiz-adv-x="651" 
d="M466 1v308l-156 2q45 -74 25.5 -123.5t-67.5 -73t-72 -3.5q-121 103 -126 108q-44 42 -35 106t60 80q4 1 371 0v118h-516v96h717v-96h-77v-578zM235 312q-98 1 -110 -43q-8 -30 24 -57q35 -29 67 -10q38 22 37 110h-18z" />
    <glyph glyph-name="dvPA" unicode="&#x92a;" horiz-adv-x="607" 
d="M-3 523v96h619v-96h-77v-578l-124 56v124q-67 -54 -118 -54q-16 0 -33 5.5t-36 18.5t-33 23.5t-35.5 32l-32 32t-33 35t-28.5 30.5t-6 275h-63zM185 208q43 -42 117 -12t113 96v231h-232z" />
    <glyph glyph-name="dvPHA" unicode="&#x92b;" horiz-adv-x="882" 
d="M-3 523v96h889v-96h-347v-138q53 42 102 41q28 -1 96 -62.5t96 -103.5q33 -51 -8.5 -139t-102.5 -126l-98 73q53 27 92 100q41 79 18 123q-24 44 -111 17q-42 -14 -84 -58v-305l-124 56v132q-66 -62 -118 -62q-16 0 -33 5.5t-36 18.5t-33 23.5t-35.5 32l-32 32t-33 35
t-28.5 30.5t-6 275h-63zM185 208q43 -42 117 -12t113 96v231h-232z" />
    <glyph glyph-name="dvBA" unicode="&#x92c;" horiz-adv-x="588" 
d="M394 1v140q-60 -70 -122 -70q-119 0 -218 192q-21 40 25.5 96t112.5 88t95 13q50 -37 107 -73v136h-402v96h602v-96h-75v-578zM151 201q11 -13 33 -22t59 -7t73 24l-124 119q-34 -29 -46 -62t5 -52zM345 218q29 25 49 53v63q-83 52 -171 2z" />
    <glyph glyph-name="dvBHA" unicode="&#x92d;" horiz-adv-x="695" 
d="M500 0v172h-156q0 -51 -13.5 -86t-33 -49.5t-42.5 -19t-40 -1.5t-27 10q-65 44 -106 93q-10 12 -13 31t3 41t21.5 41.5t48.5 31t78 9.5v67q-39 -3 -46 5q-30 30 -70.5 63.5t-61.5 53.5q-18 16 -17.5 43.5t16.5 52.5t40 45.5t52 22t54 -18.5q15 -13 45 -37.5t45.5 -37.5
t35.5 -31.5t33 -33.5l-2 -83v-114l156 1v252h-144l-38 96h381v-96h-75v-579zM220 432q0 90 -6 96q-23 24 -53.5 6t-40 -49t3.5 -48q22 -17 96 -5zM219 176q-31 4 -50 -7t-19.5 -26t7.5 -28q9 -7 23 -9.5t26.5 16.5t12.5 54z" />
    <glyph glyph-name="dvMA" unicode="&#x92e;" horiz-adv-x="687" 
d="M-7 523v96h710v-96h-75v-579l-124 56v172h-207q0 -51 -13.5 -86t-33 -49.5t-42.5 -19t-40 -1.5t-27 10q-65 44 -106 93q-10 12 -13 31t3 41t21.5 41.5t48.5 31t78 9.5v250h-180zM297 270l207 1v252h-207v-253zM172 176q-31 4 -50 -7t-19.5 -26t7.5 -28q9 -7 23 -9.5
t26.5 16.5t12.5 54z" />
    <glyph glyph-name="dvYA" unicode="&#x92f;" horiz-adv-x="679" 
d="M483 1v166q-83 -96 -161 -96q-42 0 -96 29.5t-96.5 68t-72.5 71.5t-33 44q-1 5 15 19t42.5 34.5t39.5 32.5q58 52 66.5 87t-23.5 66h-171v96h690v-96h-76v-578zM139 231q63 -65 130 -58.5t122.5 52t91.5 114.5v184h-253q60 -50 65 -97q1 -11 -2 -23t-7.5 -22t-15 -23.5
t-18 -22.5t-24.5 -25t-26.5 -24t-31 -27t-31.5 -28z" />
    <glyph glyph-name="dvRA" unicode="&#x930;" horiz-adv-x="433" 
d="M-9 523v96h455v-96h-132q47 -71 53.5 -143.5t-34 -134.5t-124.5 -93q73 -106 207 -172l-28 -36q-46 26 -79.5 47.5t-80.5 56.5t-80.5 68.5t-65.5 79.5t-49 94q22 63 46 91q9 11 33 -1t43 -30q7 -7 12.5 -35.5t11.5 -42.5q40 13 62 41.5t26 64.5t-1.5 72t-19.5 73h-255z
" />
    <glyph glyph-name="dvRxA" unicode="&#x931;" horiz-adv-x="448" 
d="M-4 523v96h455v-96h-132q47 -71 53.5 -143.5t-34 -134.5t-124.5 -93q73 -106 207 -172l-28 -36q-46 26 -79.5 47.5t-80.5 56.5t-80.5 68.5t-65.5 79.5t-49 94q22 63 46 91q9 11 33 -1t43 -30q7 -7 12.5 -35.5t11.5 -42.5q40 13 62 41.5t26 64.5t-1.5 72t-19.5 73h-255z
M111 -80q-54 25 -80 78q2 17 31.5 43.5t46.5 30.5q55 -24 79 -75q-16 -45 -77 -77z" />
    <glyph glyph-name="dvLA" unicode="&#x932;" horiz-adv-x="724" 
d="M526 1v308q-44 -27 -92.5 -77.5t-76.5 -99.5l-83 68q4 26 41 70q-102 68 -156 15q-42 -46 -0.5 -143t126.5 -165l-27 -34q-80 70 -158 167.5t-84 142.5q-4 31 33 73.5t85 69.5t75 18q46 -16 137 -112q41 39 90 68t90 35v118h-535v96h737v-96h-78v-578z" />
    <glyph glyph-name="dvLLA" unicode="&#x933;" horiz-adv-x="842" 
d="M-13 523v96h859v-96h-198v-130q56 -48 114.5 -114.5t61.5 -87.5q5 -31 -30.5 -79.5t-83 -81t-73.5 -24.5q-3 -2 -17.5 7.5t-38 28.5t-44.5 36t-50.5 41.5t-41.5 34.5q-155 -155 -174 -163q-17 -6 -76.5 46.5t-113 114.5t-56.5 82q-5 31 30.5 80t83 82t73.5 23
q22 -8 55 -32.5t78.5 -63t59.5 -49.5q102 100 136 130v119h-554zM548 137q59 -50 115 -15q43 27 49 79q9 62 -49 95l-29 13q-14 4 -29.5 -1t-32.5 -20t-29 -27.5t-31.5 -35.5t-27.5 -31q32 -29 64 -57zM363 235q-16 14 -29 25.5t-22.5 19t-10.5 8.5q-59 50 -114 17
q-43 -26 -49 -79q-8 -63 51 -98q12 -7 26 -12q10 -4 24.5 3.5t32.5 23.5t33 31t33 34.5t25 26.5z" />
    <glyph glyph-name="dvVA" unicode="&#x935;" horiz-adv-x="589" 
d="M395 1v140q-60 -70 -122 -70q-119 0 -218 192q-21 40 25.5 96t112.5 88t95 13q50 -37 107 -73v136h-402v96h602v-96h-75v-578zM152 201q11 -13 34 -21t56 -8.5t74.5 24.5t78.5 75v63q-76 38 -138 17t-96.5 -72t-8.5 -78z" />
    <glyph glyph-name="dvSHA" unicode="&#x936;" horiz-adv-x="724" 
d="M469 -38l-39 -41q-98 90 -194 169q-7 0 -28.5 -2t-32.5 -3t-30.5 -1t-31 1.5t-23.5 5.5t-19 10q-57 57 -57 93q0 12 23.5 35t48.5 30q21 -11 103 -77q78 35 113 93q-61 19 -154 97.5t-93 120.5q0 30 23.5 60t55.5 48t66 26t56 -7q50 -30 102.5 -84.5t62.5 -81.5
q32 -90 -9 -197t-130 -151q146 -118 187 -144zM449 523l-39 96h329v-96h-73v-578l-124 56v522h-93zM314 309q24 50 24 130q0 94 -58 104q-44 8 -87 -31q-44 -40 -31 -82q4 -13 14 -24q27 -28 70.5 -58.5t67.5 -38.5z" />
    <glyph glyph-name="dvSSA" unicode="&#x937;" horiz-adv-x="620" 
d="M-9 523v96h638v-96h-77v-578l-124 56v142q-84 -58 -153 -58q-11 0 -23 3t-25 10t-24 13.5t-25.5 19t-24 21t-25 24.5t-23 24t-23.5 25t-22 23t-6 275h-63zM181 224q37 -36 103.5 -24t115.5 59l-223 209zM189 523l239 -224v224h-239z" />
    <glyph glyph-name="dvSA" unicode="&#x938;" horiz-adv-x="721" 
d="M547 1v201q-64 -31 -107 -31q-37 0 -129 63q-42 -47 -109 -68q18 -34 81.5 -89t123.5 -96l-28 -37q-139 87 -195 134q-120 100 -160 212q23 65 46 92q9 11 33 -1t43 -30q5 -6 8.5 -17.5t7 -31t7.5 -33.5q40 13 62.5 42t26 65.5t-2 73t-18.5 73.5h-240v96h728v-96h-54
v-578zM305 523q43 -66 51.5 -132.5t-21.5 -121.5q30 -13 65.5 -14.5t77.5 19t69 65.5v184h-242z" />
    <glyph glyph-name="dvHA" unicode="&#x939;" horiz-adv-x="548" 
d="M-15 523v96h570v-96h-105v-142h-221q-39 0 -61 -26t-18 -59.5t34 -52.5q105 68 152 66q36 -1 110.5 -75t75.5 -96q2 -47 -37 -89.5t-75 -56.5l-73 75q48 21 75 60t1 71q-14 14 -41 13.5t-61 -17.5t-64 -39.5t-50 -52t-19 -55.5q2 -47 56.5 -103t133.5 -108l-29 -35
q-52 37 -67.5 48t-60.5 45.5t-63 52.5t-44.5 46.5t-37 53t-11.5 47.5q-1 52 95 125q-40 36 -66 64q-18 26 -12 64t31.5 72.5t51.5 35.5l184 11v57h-354z" />
    <glyph glyph-name="dvNukta" unicode="&#x93c;" 
d="M-346 -210q-54 25 -80 78q2 17 31.5 43.5t46.5 30.5q55 -24 79 -75q-16 -45 -77 -77z" />
    <glyph glyph-name="dvAvagraha" unicode="&#x93d;" horiz-adv-x="546" 
d="M38 135l20 19q72 -74 161.5 -84t130.5 54q21 31 13.5 63.5t-27.5 59.5t-53.5 54t-63 46.5t-56.5 38.5t-35 28q-27 41 -17 86.5t45.5 82t69.5 36.5h327v-96h-210q-112 0 -123 -61q-4 -23 57.5 -83t131 -116.5t73.5 -61.5q17 -22 -2.5 -75t-68.5 -99.5t-103 -46.5
q-22 0 -45 6t-43 14t-42 21.5t-37.5 24.5t-35 27.5t-28.5 24.5t-23.5 22t-15.5 15z" />
    <glyph glyph-name="dvmAA" unicode="&#x93e;" horiz-adv-x="269" 
d="M-5 523v96h277v-96h-77v-579l-124 56v523h-76z" />
    <glyph glyph-name="dvmI" unicode="&#x93f;" horiz-adv-x="269" 
d="M-3 523v96h68q-27 29 -39.5 64t-3.5 62q12 32 70.5 74.5t87.5 40.5q36 -2 177 -90t252 -170l-64 1q-244 156 -355 138q-51 -9 -53 -51q-2 -35 32 -69h105v-96h-77v-580l-124 56v524h-76z" />
    <glyph glyph-name="dvmII" unicode="&#x940;" horiz-adv-x="226" 
d="M-147 604l-78 1q-40 36 -65.5 77.5t-8.5 69.5q27 44 76.5 78t102.5 34q15 0 33.5 -13t41.5 -39.5t43.5 -53t52 -68.5t54.5 -71h128v-96h-77v-578l-124 56v522h-76v96h96l-69 80q-34 38 -66 56t-55 16.5t-40.5 -12t-26 -26t-6.5 -28.5q3 -37 64 -101z" />
    <glyph glyph-name="dvmU" unicode="&#x941;" horiz-adv-x="4" 
d="M-166 14q31 -1 85 -44.5t94 -89.5q57 -71 16 -131.5t-138 -76.5q-50 -8 -96 4t-89.5 43.5t-76.5 63.5t-76 82l32 26q71 -81 149 -114.5t134 -17t75 71.5q16 44 -23.5 78.5t-78.5 9.5l-86 -51l-82 72q117 75 161 74z" />
    <glyph glyph-name="dvmUU" unicode="&#x942;" 
d="M-184 -316q-34 7 -146 124q-25 26 -25 58.5t20.5 61.5t51 52.5t70 35t74.5 5.5q32 -6 126.5 -84t185.5 -168l-18 -21q-24 18 -58.5 45t-53.5 41.5t-46.5 34.5t-43.5 29.5t-37.5 20.5t-36.5 13.5t-32.5 3t-32.5 -6t-30 -18.5q-27 -21 -30.5 -50t12.5 -49t41.5 -30.5
t57.5 5.5l50 24l62 -74q-40 -24 -91.5 -41t-69.5 -12z" />
    <glyph glyph-name="dvmvR" unicode="&#x943;" 
d="M-201 16l109 -72q-159 -19 -190 -75q-17 -33 17 -57q41 -28 96 -10q31 11 57 38l112 -65q-40 -41 -92 -56.5t-90 -10t-56 21.5q-86 76 -121 124q-40 54 -3.5 91t161.5 71z" />
    <glyph glyph-name="dvmvRR" unicode="&#x944;" 
d="M-112 -182l48 -75q-65 -15 -121.5 -59.5t-9.5 -81.5q54 -41 125 36l108 -63q-41 -42 -89.5 -52t-88.5 3.5t-80 41.5q-22 15 -39 38.5t-25.5 52t5.5 59.5t54 56q-40 28 -63.5 60.5t-27 67t35.5 66t120 51.5l92 -75q-26 -6 -57 -20t-58.5 -34.5t-29 -44.5t31.5 -49
q36 14 69 22z" />
    <glyph glyph-name="dvmEcandra" unicode="&#x945;" 
d="M-257 798l25 25q11 -11 29 -27.5t55 -44t54 -27.5q28 0 69 27.5t69 54.5l27 28l59 -62q-4 -5 -11.5 -12.5t-31.5 -26.5t-47.5 -33.5t-57 -26.5t-64.5 -12q-28 0 -72 34.5t-74 68.5z" />
    <glyph glyph-name="dvmE.short" unicode="&#x946;" 
d="M-123 617l-43 -1q-43 62 -64 75q-16 10 -79.5 19t-75.5 15q-35 18 -72 78l64 53q6 -8 15 -22.5t16 -23t14 -10.5q5 -2 73 -14.5t82 -24.5q11 -10 37.5 -65t32.5 -79z" />
    <glyph glyph-name="dvmE" unicode="&#x947;" 
d="M-123 617l-43 -1q-23 32 -58 67.5t-66 51.5q-65 35 -185 -11l-71 80q51 16 116.5 23.5t94.5 2.5q20 -5 42.5 -20t48.5 -43.5t41.5 -47t44.5 -57t35 -45.5z" />
    <glyph glyph-name="dvmAI" unicode="&#x948;" 
d="M-97 614l-73 -1q-76 80 -123.5 90.5t-117.5 -33.5l-57 60q103 49 153 38q11 -2 23.5 -8.5t27 -17t25.5 -19.5t27.5 -25t25 -24t26 -26.5t21.5 -22.5q-24 50 -83 117.5t-94 74.5q-65 13 -177 -39l-66 69q200 75 264 34q14 -9 26 -18.5t24.5 -23t21.5 -22.5t21.5 -27.5
t19 -27.5t20.5 -33.5t19.5 -34t22.5 -39.5t23 -41z" />
    <glyph glyph-name="dvmOcandra" unicode="&#x949;" horiz-adv-x="268" 
d="M-63 798l25 25q11 -11 29 -27.5t55 -44t54 -27.5q28 0 69 27.5t69 54.5l27 28l59 -62q-4 -5 -11.5 -12.5t-31.5 -26.5t-47.5 -33.5t-57 -26.5t-64.5 -12q-28 0 -71.5 34.5t-73.5 68.5zM-5 523v96h277v-96h-77v-579l-124 56v523h-76z" />
    <glyph glyph-name="dvmO" unicode="&#x94b;" horiz-adv-x="265" 
d="M159 619h113v-96h-77v-579l-124 56v523h-76v96h121q-64 86 -122 116q-65 35 -185 -11l-71 80q51 16 116.5 23.5t94.5 2.5q20 -5 42 -19.5t48 -43t41 -46.5t44.5 -56.5t34.5 -45.5z" />
    <glyph glyph-name="dvmAU" unicode="&#x94c;" horiz-adv-x="268" 
d="M168 619h104v-96h-77v-579l-124 56v523h-76v96h97q-73 76 -120 85t-115 -34l-57 60q103 49 153 38q11 -2 23.5 -8.5t27 -17t25.5 -19.5t27.5 -25t25 -24t26 -26.5t21.5 -22.5q-24 50 -83 117.5t-94 74.5q-65 13 -177 -39l-66 69q200 75 264 34q12 -8 24 -17.5t21 -17.5
t20.5 -21.5t18 -21.5t18.5 -26l17 -25.5t18 -30t17.5 -30.5t20 -35.5t20.5 -36.5z" />
    <glyph glyph-name="dvVirama" unicode="&#x94d;" 
d="M-266 -98q3 10 31.5 28.5t39.5 21.5q8 2 122 -77.5t120 -87.5q-1 -3 -16.5 -13t-20.5 -12q-3 2 -72 36t-134 66.5t-70 37.5z" />
    <glyph glyph-name="dvOm" unicode="&#x950;" horiz-adv-x="1099" 
d="M534 479q22 -20 11 -63.5t-49 -83.5q37 -8 69 2t50 24.5t52 46.5q8 8 27 26.5t29.5 28t26.5 21.5t30 17t29 4q27 -1 116.5 -75t126.5 -114q4 -9 6 -28t-9 -47.5t-27 -55.5t-47.5 -51.5t-70.5 -35.5q-29 -8 -73.5 13t-114.5 71l18 21q86 -34 149.5 -4t66 84t-35.5 96
q-21 17 -42.5 19.5t-40 -6.5t-39 -25.5t-37 -33.5t-37 -35t-36.5 -27q-17 -6 -45.5 -6.5t-74 13.5t-85.5 39l-12 -9q32 -21 50 -34.5t42 -42.5t36 -62q11 -29 -11 -62t-62 -57.5t-88 -43t-89 -19.5t-66 12q-52 35 -106 88t-144 155l21 25q89 -87 135 -119q124 -86 211 -37
q32 18 50.5 45.5t16 63t-33.5 65.5q-61 -30 -132 -29l-54 93q54 0 95.5 13t63 33.5t31 44t4.5 46.5t-21 40q-27 30 -66 22.5t-74.5 -32.5t-68.5 -63l-97 67q55 54 124 89.5t99 18.5q117 -67 203 -146zM434 634l25 25q11 -11 29 -27.5t55 -44t54 -27.5q28 0 69 27.5t68 54.5
l28 28l59 -62q-4 -5 -11.5 -12.5t-31.5 -26.5t-47.5 -33.5t-57 -26.5t-64.5 -12q-28 0 -71.5 34.5t-73.5 68.5zM613 631q-54 25 -80 78q2 17 31.5 43.5t46.5 30.5q55 -24 79 -75q-16 -45 -77 -77z" />
    <glyph glyph-name="dvKxA" unicode="&#x958;" horiz-adv-x="852" 
d="M-30 523v96h888v-96h-361v-112q58 51 142 48q28 -1 89.5 -65t93.5 -111q34 -52 -21.5 -122.5t-140.5 -99.5l-94 86q108 38 141 86q23 33 24.5 62t-15 43.5t-44.5 18.5t-64 -13q-85 -39 -111 -119v-281l-125 56v140q-60 -70 -122 -70q-119 0 -218 192q-21 40 25.5 96
t112.5 88t95 13q50 -37 107 -73v137h-402zM129 200q11 -13 34 -21t56 -8.5t74.5 24.5t78.5 75v63q-76 38 -138 17t-96.5 -72t-8.5 -78zM239 -128q-54 25 -80 78q2 17 31.5 43.5t46.5 30.5q55 -24 79 -75q-16 -45 -77 -77z" />
    <glyph glyph-name="dvKHxA" unicode="&#x959;" horiz-adv-x="875" 
d="M-7 619h887v-96h-76v-579l-124 56v106q-48 -73 -116 -118t-148 -45q-74 0 -137 24t-104 61.5t-71 85t-43.5 92.5t-15.5 85q22 61 46 89q9 11 33 -1t42 -30q6 -6 9.5 -17t7 -29t7.5 -30q40 13 62.5 41t26.5 64t-1.5 72t-18.5 73h-266v96zM566 70q-114 4 -212 190
q-42 -84 -149 -117q14 -45 65 -85.5t135 -40.5q97 0 161 53zM451 200q11 -12 32.5 -20t52.5 -10t69.5 18.5t74.5 62.5v90q-73 29 -131.5 6t-90 -72t-7.5 -75zM588 459q27 -20 92 -63v127h-355q55 -85 52 -169q43 53 112 89t99 16zM145 -155q-54 25 -80 78q2 17 31.5 43.5
t46.5 30.5q55 -24 79 -75q-16 -45 -77 -77z" />
    <glyph glyph-name="dvGxA" unicode="&#x95a;" horiz-adv-x="652" 
d="M-5 523v96h662v-96h-82v-579l-124 56v523h-244q65 -70 89.5 -149.5t10.5 -141t-58 -102t-108 -40.5q-17 0 -53 38t-44 57q-10 24 2.5 74t37.5 59q3 1 28.5 -15t32.5 -22q4 -3 6 -6.5t4 -9t3 -8t3 -12t3 -13.5q44 65 40.5 148t-49.5 143h-160zM142 -135q-54 25 -80 78
q2 17 31.5 43.5t46.5 30.5q55 -24 79 -75q-16 -45 -77 -77z" />
    <glyph glyph-name="dvJxA" unicode="&#x95b;" horiz-adv-x="803" 
d="M628 0v305h-147q27 -24 47.5 -49.5t25.5 -39.5q12 -37 -18.5 -75t-80 -59.5t-103 -29t-86.5 16.5q-64 44 -231 291l26 16q77 -93 107 -123q109 -106 191 -82q13 4 26.5 10.5t27 18.5t20.5 26.5t4.5 35t-17.5 43.5h-72l-109 96h389v122h-634v96h844v-96h-86v-579zM131 -55
q-54 25 -80 78q2 17 31.5 43.5t46.5 30.5q55 -24 79 -75q-16 -45 -77 -77z" />
    <glyph glyph-name="dvDDxA" unicode="&#x95c;" horiz-adv-x="600" 
d="M-24 523v96h659v-96h-186v-134h-221q-23 0 -38 -39q-18 -46 1 -73q13 -19 45 -11q9 2 69 20.5t101.5 28t47.5 4.5q63 -53 122 -144q6 -10 7 -25.5t-5.5 -33.5t-18.5 -37t-32.5 -36.5t-46.5 -31.5t-62.5 -22.5t-78.5 -8.5q-49 0 -99 21.5t-85 48.5t-68.5 64t-48 57
t-25.5 37l20 19q17 -20 37.5 -40t57.5 -51t83.5 -50t90.5 -19q62 0 117 27.5t71.5 60.5t-4.5 62q-16 16 -53 6t-74 -30t-75.5 -30.5t-56.5 3.5q-108 89 -145 127q-18 26 -11.5 64t32 72.5t51.5 36.5l183 11v46h-361zM132 -148q-54 25 -80 78q2 17 31.5 43.5t46.5 30.5
q55 -24 79 -75q-16 -45 -77 -77z" />
    <glyph glyph-name="dvDDHxA" unicode="&#x95d;" horiz-adv-x="607" 
d="M-8 523v96h628v-96h-160v-141h-191q-30 0 -54.5 -30t-33 -73t-5 -87t30 -76.5t71.5 -35.5q34 -3 62 5q-41 45 -55 77t14.5 70.5t64.5 62.5t51 24q18 0 85 -66.5t72 -83.5q6 -25 -21 -62t-70 -72q-62 -50 -127.5 -54.5t-125.5 42.5q-43 35 -65 53.5t-52.5 50t-50.5 60.5
q-20 28 -15.5 72.5t20.5 87.5t44 75t56 35l184 11v55h-357zM372 98q41 18 76.5 65.5t18.5 64.5q-14 13 -43.5 0.5t-48.5 -48.5t-3 -82zM144 -140q-54 25 -80 78q2 17 31.5 43.5t46.5 30.5q55 -24 79 -75q-16 -45 -77 -77z" />
    <glyph glyph-name="dvPHxA" unicode="&#x95e;" horiz-adv-x="864" 
d="M-8 523v96h889v-96h-347v-138q53 42 102 41q28 -1 96 -62.5t96 -103.5q33 -51 -8.5 -139t-102.5 -126l-98 73q53 27 92 100q41 79 18 123q-24 44 -111 17q-42 -14 -84 -58v-305l-124 56v132q-66 -62 -118 -62q-16 0 -33 5.5t-36 18.5t-33 23.5t-35.5 32l-32 32t-33 35
t-28.5 30.5t-6 275h-63zM180 208q43 -42 117 -12t113 96v231h-232zM206 -135q-54 25 -80 78q2 17 31.5 43.5t46.5 30.5q55 -24 79 -75q-16 -45 -77 -77z" />
    <glyph glyph-name="dvvRR" unicode="&#x960;" horiz-adv-x="911" 
d="M770 173l54 -56q-62 -24 -106.5 -62.5t-2.5 -68.5q18 -17 49.5 -5.5t61.5 53.5l94 -34q-67 -81 -145.5 -77t-128.5 90q-34 62 38 115q-29 16 -45.5 28.5t-26.5 29t-3 32.5t31.5 37.5t69.5 46.5l-27 29q-57 -74 -175 -33v-353l-124 56v174q-63 -51 -192 -122l-77 89
q193 79 269 143v1q-106 50 -281 31l-38 124q57 7 150.5 -11.5t168.5 -54.5v148h-395v96h934v-96h-415v-176q62 -5 105 36q-10 9 -17.5 25.5t-4.5 21.5q10 21 43 41t47 18q16 -2 50.5 -40t18.5 -56l-38 -43l44 -54l34 -38q-43 -19 -61 -28.5t-34.5 -24t-11.5 -28.5t27 -32
q27 14 60 28z" />
    <glyph glyph-name="dvvLL" unicode="&#x961;" horiz-adv-x="741" 
d="M-10 523v96h757v-96h-138v-193q56 -42 74 -71q17 -29 8.5 -56.5t-33.5 -48t-53 -43t-49 -40.5t-22 -41t29 -45q26 11 61 18l44 -64q-59 -12 -110.5 -50t-8.5 -69q49 -35 114 31l98 -54q-99 -95 -235 -6q-28 18 -46.5 46t-12 65t53.5 64q-26 18 -50 45q-25 29 -28.5 55.5
t11 46t35.5 39t45 34.5t39.5 33.5t19 35t-15.5 39.5q-29 33 -67.5 20t-74 -47t-60.5 -76t-25 -69l-80 63q8 38 43 91q-50 36 -92 42t-65 -14.5t-33 -52t0 -72t37 -74.5q60 -78 114 -128l-27 -34q-80 70 -158 167.5t-84 142.5q-4 31 33 73.5t85 69.5t75 18q42 -14 135 -110
q71 92 151 96h1v123h-495z" />
    <glyph glyph-name="dvmvL" unicode="&#x962;" 
d="M-19 -282l59 -44q-76 -65 -130 -21q-35 27 -76 83q-15 21 -4.5 41t34.5 34.5t48 30.5t35.5 28.5t-3.5 29.5q-32 31 -78.5 -9t-59.5 -91l-68 41q6 21 24 48q-95 43 -118 -12q-17 -42 15 -102q20 -36 47 -54l-15 -22q-53 26 -92.5 81.5t-44.5 92.5q-4 31 49.5 72t82.5 32
q28 -8 91 -68q48 58 105 59q19 1 70.5 -33.5t65.5 -57.5q16 -24 5.5 -44t-35.5 -32.5t-50 -27t-37.5 -28.5t0.5 -37q9 -18 34.5 -17t45.5 27z" />
    <glyph glyph-name="dvmvLL" unicode="&#x963;" 
d="M-41 -257l34 -49q-71 -13 -94 -51q-14 -24 4 -31q28 -10 88 39l55 -40q-52 -50 -129 -35q-59 11 -79 49q-18 39 25 74l-29 37q-15 21 -4.5 41t34.5 34.5t48 30.5t35.5 28.5t-3.5 29.5q-32 31 -78.5 -9t-59.5 -91l-68 41q6 21 24 48q-95 43 -118 -12q-17 -42 15 -102
q20 -36 47 -54l-15 -22q-53 26 -92.5 81.5t-44.5 92.5q-4 31 49.5 72t82.5 32q28 -8 91 -68q48 58 105 59q19 1 70.5 -33.5t65.5 -57.5q15 -26 6.5 -42t-31.5 -31t-47 -26t-39.5 -26.5t-10.5 -32.5q26 13 63 24z" />
    <glyph glyph-name="danda" unicode="&#x964;" horiz-adv-x="406" 
d="M325 613v-670l-124 56v670z" />
    <glyph glyph-name="doubledanda" unicode="&#x965;" horiz-adv-x="647" 
d="M576 613v-670l-124 56v670zM325 613v-670l-124 56v670z" />
    <glyph glyph-name="dvZero" unicode="&#x966;" horiz-adv-x="589" 
d="M374 463q-34 20 -73 9.5t-70 -49t-50 -82t-14.5 -89t37.5 -70.5q61 -48 124 12.5t74 144t-28 124.5zM467 466q41 -32 52.5 -93.5t-7 -122t-59 -111t-103 -60t-138.5 31.5q-50 30 -93 63q-108 83 -55 211q35 86 119 150q73 55 114 41l8 -4q63 -43 105.5 -69t56.5 -37z" />
    <glyph glyph-name="dvOne" unicode="&#x967;" horiz-adv-x="433" 
d="M368 -109l-95 72q10 5 19.5 19t10 39t-18.5 51q-21 29 -79 81t-105.5 92t-48.5 44q1 4 33 21.5t70 38.5t51 31q-109 35 -144 75q-22 25 -18.5 55.5t26 54.5t53.5 42t65 18.5t61 -15.5q107 -75 148 -139q9 -14 11.5 -29t-3 -30.5t-11.5 -29t-21.5 -29.5t-26 -27t-32 -27
t-32 -24t-34 -22.5t-29 -18t-25.5 -15.5q125 -104 165 -139q27 -23 38 -50.5t9 -50t-10 -43t-15.5 -31.5t-11.5 -14zM234 408q11 -2 34 18t29 39q4 45 -15 65t-45.5 16.5t-51.5 -20.5q-18 -13 -27.5 -29.5t-8.5 -33.5t22.5 -32t62.5 -23z" />
    <glyph glyph-name="dvTwo" unicode="&#x968;" horiz-adv-x="549" 
d="M425 471q34 -34 34.5 -90.5t-33.5 -109.5t-93 -74q195 -170 246 -208l-41 -39q-35 36 -137.5 125.5t-124.5 109.5h-2l-1 1q-38 -4 -92 -1.5t-71 21.5l-6 6l-10 12t-12 16t-12 19.5t-8.5 21t-2.5 21.5q0 12 25 33.5t50 27.5q12 -8 98 -79q106 54 115 131q7 56 -37 87
q-50 35 -114 1q-39 -21 -73 -66l-83 106l20 13q19 14 30 20.5t34 20t39.5 18.5t37.5 9t39 -0.5t33 -16.5q101 -85 152 -136z" />
    <glyph glyph-name="dvThree" unicode="&#x969;" horiz-adv-x="516" 
d="M397 486q34 -37 21.5 -82.5t-62.5 -83.5q67 -47 115 -99q32 -36 -20 -104t-142 -99q135 -112 186 -146l-39 -42q-106 98 -193 170q-11 -1 -36 -3.5t-42 -4t-37.5 -1.5t-35.5 3.5t-23 11.5q-12 10 -34.5 46.5t-22.5 64.5q0 12 24 35t48 29q26 -14 101 -76q52 4 90.5 28
t47.5 64.5t-34 93.5q-56 -27 -122 -30l-49 105q160 47 185 102q14 32 -24 46q-50 19 -124 -15q-40 -19 -76 -52l-69 95l20 14q19 13 30 19.5t34 20t39.5 18.5t37.5 9t39 -0.5t33 -16.5q89 -75 134 -120z" />
    <glyph glyph-name="dvFour" unicode="&#x96a;" horiz-adv-x="483" 
d="M36 165q-19 27 16 72.5t117 124.5q4 3 6.5 5.5l5.5 5.5q-142 127 -171 192l40 44q32 -89 163 -204q124 124 152 203l80 -76q-8 -33 -34 -71t-50 -62t-66 -64q115 -98 127 -115q15 -23 -5.5 -81t-65.5 -107.5t-89 -49.5q-17 0 -113.5 80t-112.5 103zM203 83q24 -18 58 9
q45 34 41 97q-3 53 -47 109q-29 -27 -47 -46.5t-34 -44t-18 -44t9 -40.5t38 -40z" />
    <glyph glyph-name="dvFive" unicode="&#x96b;" horiz-adv-x="550" 
d="M578 32l-39 -27l-110 137q-30 -28 -55 -45.5t-55 -30t-61 -8t-62 26.5q-79 56 -141 123q-29 28 -25 79.5t30 109t76.5 119.5t112.5 112l101 -74q-135 -98 -183 -225q-35 -93 -4 -142t105 -12q39 21 85 65q-40 52 -35 63q19 38 70 69q17 11 33 12.5t30 -5.5t26 -17t25 -26
q23 -27 28.5 -54.5t-14.5 -53.5l-53 -53z" />
    <glyph glyph-name="dvSix" unicode="&#x96c;" horiz-adv-x="563" 
d="M71 421q-29 30 5 80.5t114 88.5t164 32l45 -99q-73 12 -138.5 -14.5t-83.5 -67.5t13 -83q45 31 81 36l67 -76q-123 -46 -151 -117q-20 -50 18 -80q44 -36 121 -8q27 10 54 28q-51 66 -45 77q19 38 70 69q17 11 33 12.5t30 -5.5t26 -17t25 -26q23 -27 28.5 -54.5
t-14.5 -53.5l-53 -53l115 -143l-39 -27l-117 146q-66 -45 -125 -54t-101 27q-78 78 -135 152q-18 23 7 63.5t73 79.5q-23 21 -87 87z" />
    <glyph glyph-name="dvSeven" unicode="&#x96d;" horiz-adv-x="640" 
d="M63 523q47 -145 83 -228.5t75.5 -126.5t80.5 -31.5t92 74.5q-53 57 -97 125t-44 109q0 40 43 88t97 74t82 9q47 -29 86 -77t50 -79q16 -46 -0.5 -114.5t-55.5 -132.5t-86.5 -117.5t-98 -77t-84.5 -3.5q-56 34 -102.5 91t-79 130.5t-52.5 133.5t-39 135zM458 305
q84 137 53 181q-19 28 -66 4q-51 -26 -73 -78q-35 -86 51 -161q20 30 35 54z" />
    <glyph glyph-name="dvEight" unicode="&#x96e;" horiz-adv-x="490" 
d="M390 223l93 -112q-52 -48 -107 -77.5t-105.5 -33.5t-83.5 29q-66 66 -146 170q-19 25 28.5 117.5t111.5 182t101 124.5l115 -85q-43 -37 -104.5 -119.5t-102 -172.5t-13.5 -124q28 -33 91.5 -1.5t121.5 102.5z" />
    <glyph glyph-name="dvNine" unicode="&#x96f;" horiz-adv-x="450" 
d="M267 476q-41 34 -87 2q-44 -31 -48 -91q-3 -75 67 -134q59 9 88.5 52t22.5 92.5t-43 78.5zM421 419q7 -13 8.5 -41t-6.5 -62.5t-24.5 -64.5t-49 -48.5t-75.5 -14.5q34 -30 115 -124q99 -115 26 -183l-124 72q17 8 23 29.5t-4 54t-37 65.5q-1 1 -85 93.5t-134 156
t-53 88.5q-5 50 43 118.5t113 68.5q21 0 131 -83t133 -125z" />
    <glyph glyph-name="dvAbbreviationsign" unicode="&#x970;" horiz-adv-x="348" 
d="M205 331q-28 17 -56.5 -8t-30.5 -59t27 -55q18 -8 35 -2.5t28.5 22t17.5 35.5t0.5 38t-21.5 29zM266 341q22 -19 27.5 -49t-4.5 -58.5t-30.5 -52t-51 -29t-64.5 9.5q-33 17 -53 34q-29 23 -37 55.5t3.5 60t32 51.5t48 30t53.5 -5q48 -25 76 -47z" />
    <glyph glyph-name="dvAcandra" unicode="&#x972;" horiz-adv-x="790" 
d="M521 522l-38 97h321v-97h-66v-578l-124 56v267q-12 -4 -24 -6.5t-24.5 -2t-21.5 1t-22.5 4.5t-20 6t-20.5 8.5t-18.5 8.5t-19.5 10t-17 9l-5 -4l30 -20t27.5 -20.5t31 -28t22.5 -31t20 -40.5q13 -37 -14.5 -78t-75 -67t-101 -36.5t-92.5 13.5q-87 53 -250 293l25 18
q2 -2 19.5 -26t25 -33t28 -33.5t33 -36t34.5 -31.5t39 -29t40 -19.5t43 -12t44 2.5t46 16q55 32 49.5 79.5t-61.5 97.5q-53 -24 -113 -27l-54 93q102 11 158 47t38 80q-16 39 -49 49.5t-74.5 -5.5t-67 -30t-52.5 -32l-61 87l19 14q20 13 31 19.5t34 20t39.5 18.5t37.5 9
t39 -0.5t33 -16.5q89 -75 134 -120q33 -36 22 -83t-57 -86q99 -16 173 58v147h-93zM479 798l25 25q11 -11 29 -27.5t55 -44t54 -27.5q28 0 69 27.5t69 54.5l27 28l59 -62q-4 -5 -11.5 -12.5t-31.5 -26.5t-47.5 -33.5t-57 -26.5t-64.5 -12q-28 0 -71.5 34.5t-73.5 68.5z" />
    <glyph glyph-name="zerowidthspace" unicode="&#x200b;" 
 />
    <glyph glyph-name="zerowidthnonjoiner" unicode="&#x200c;" 
d="M24 -230h-47v1041h47v-1041z" />
    <glyph glyph-name="zerowidthjoiner" unicode="&#x200d;" 
d="M129 593l-33 -33l-72 75v-865h-47v865l-69 -73l-33 33l93 93l-95 95l33 33l95 -95l96 95l32 -32l-96 -96z" />
    <glyph glyph-name="endash" unicode="&#x2013;" horiz-adv-x="564" 
d="M61 277l-31 81h473l31 -81h-473z" />
    <glyph glyph-name="emdash" unicode="&#x2014;" horiz-adv-x="905" 
d="M61 277l-31 81h814l31 -81h-814z" />
    <glyph glyph-name="quoteleft" unicode="&#x2018;" horiz-adv-x="256" 
d="M92 809l41 -27q-25 -80 -22 -116q31 -27 45 -55q-2 -16 -30 -41t-45 -29q-27 13 -51.5 37.5t-23.5 44.5q6 37 35 99t51 87z" />
    <glyph glyph-name="quoteright" unicode="&#x2019;" horiz-adv-x="256" 
d="M164 541l-41 27q25 80 22 116q-31 27 -45 55q2 16 30 41t45 29q27 -13 51.5 -37.5t23.5 -44.5q-6 -37 -35 -99t-51 -87z" />
    <glyph glyph-name="quotesinglbase" unicode="&#x201a;" horiz-adv-x="346" 
d="M130 -147l-41 27q25 80 22 116q-31 27 -45 55q2 16 30 41t45 29q27 -13 51.5 -37.5t23.5 -44.5q-6 -37 -35 -99t-51 -87z" />
    <glyph glyph-name="quotedblleft" unicode="&#x201c;" horiz-adv-x="450" 
d="M286 809l41 -27q-25 -80 -22 -116q31 -27 45 -55q-2 -16 -30 -41t-45 -29q-27 13 -51.5 37.5t-23.5 44.5q6 37 35 99t51 87zM92 809l41 -27q-25 -80 -22 -116q31 -27 45 -55q-2 -16 -30 -41t-45 -29q-27 13 -51.5 37.5t-23.5 44.5q6 37 35 99t51 87z" />
    <glyph glyph-name="quotedblright" unicode="&#x201d;" horiz-adv-x="450" 
d="M164 541l-41 27q25 80 22 116q-31 27 -45 55q2 16 30 41t45 29q27 -13 51.5 -37.5t23.5 -44.5q-6 -37 -35 -99t-51 -87zM358 541l-41 27q25 80 22 116q-31 27 -45 55q2 16 30 41t45 29q27 -13 51.5 -37.5t23.5 -44.5q-6 -37 -35 -99t-51 -87z" />
    <glyph glyph-name="quotedblbase" unicode="&#x201e;" horiz-adv-x="528" 
d="M132 -143l-41 27q25 80 22 116q-31 27 -45 55q2 16 30 41t45 29q27 -13 51.5 -37.5t23.5 -44.5q-6 -37 -35 -99t-51 -87zM326 -143l-41 27q25 80 22 116q-31 27 -45 55q2 16 30 41t45 29q27 -13 51.5 -37.5t23.5 -44.5q-6 -37 -35 -99t-51 -87z" />
    <glyph glyph-name="dagger" unicode="&#x2020;" horiz-adv-x="539" 
d="M123 285l-30 73h140v212l115 -28v-184h113l30 -73h-143v-484l-115 28v456h-110z" />
    <glyph glyph-name="daggerdbl" unicode="&#x2021;" horiz-adv-x="539" 
d="M348 542v-184h113l30 -73h-143v-215h113l30 -73h-143v-196l-115 28v168h-110l-30 73h140v215h-110l-30 73h140v212z" />
    <glyph glyph-name="bullet" unicode="&#x2022;" horiz-adv-x="312" 
d="M158 175q-81 39 -118 114q4 25 47 63.5t69 44.5q82 -36 116 -110q-23 -64 -114 -112z" />
    <glyph glyph-name="ellipsis" unicode="&#x2026;" horiz-adv-x="795" 
d="M676 -22q-51 24 -76 73q2 16 30 41t45 29q51 -23 75 -71q-17 -43 -74 -72zM411 -22q-51 24 -76 73q2 16 30 41t45 29q51 -23 75 -71q-17 -43 -74 -72zM142 -22q-51 24 -76 73q2 16 30 41t45 29q51 -23 75 -71q-17 -43 -74 -72z" />
    <glyph glyph-name="perthousand" unicode="&#x2030;" horiz-adv-x="1263" 
d="M713 682l-450 -712l-90 31l374 596q-94 -23 -206 21q28 -30 33 -74t-11.5 -84t-47.5 -73t-74 -40t-92 15q-41 21 -80 52q-36 29 -50 68t-7 75t26.5 70.5t50 54.5t63 28t66.5 -10l19 -10q81 -35 156.5 -41t131.5 12t96 54zM800 257q33 -28 41.5 -73t-7 -87t-46 -77.5
t-75.5 -43.5t-95 14q-41 21 -80 52q-36 29 -50 68t-7 75t26.5 70.5t50 54.5t63 28t66.5 -10q71 -36 113 -71zM1203 257q33 -28 41.5 -73t-7 -87t-46 -77.5t-75.5 -43.5t-95 14q-41 21 -80 52q-36 29 -50 68t-7 75t26.5 70.5t50 54.5t63 28t66.5 -10q71 -36 113 -71zM248 628
q-44 29 -91.5 -14t-52.5 -101.5t38 -93.5q47 -28 93 14t50.5 100t-37.5 95zM1120 256q-44 29 -91.5 -14t-52.5 -101.5t38 -93.5q47 -28 93 14t50.5 100t-37.5 95zM717 256q-44 29 -91.5 -14t-52.5 -101.5t38 -93.5q47 -28 93 14t50.5 100t-37.5 95z" />
    <glyph glyph-name="guilsinglleft" unicode="&#x2039;" horiz-adv-x="389" 
d="M20 285l217 204l92 -68l-182 -159l175 -143l-47 -52z" />
    <glyph glyph-name="guilsinglright" unicode="&#x203a;" horiz-adv-x="389" 
d="M67 119l175 143l-182 159l92 68l217 -204l-255 -218z" />
    <glyph glyph-name="fraction" unicode="&#x2044;" horiz-adv-x="538" 
d="M521 680l-413 -710l-90 31l411 712z" />
    <glyph glyph-name="rupee" unicode="&#x20a8;" horiz-adv-x="1147" 
d="M448 208q-9 17 -46 49q-97 -36 -222 -8l1 -278l-140 29v669q91 25 203.5 33t141.5 -12q30 -27 94 -91t89 -93q26 -32 -5.5 -104t-107.5 -119q106 -45 115 -55q13 -19 18.5 -43.5t5.5 -41.5t-2 -48t-2 -42q0 -10 -1.5 -30.5t-1.5 -30.5t3 -25.5t10 -24.5t21 -19t36 -17
q-79 -16 -131.5 25.5t-57.5 121.5q0 6 -1.5 37t-3 45t-5.5 36.5t-11 36.5zM431 577q-59 56 -252 16l1 -280q70 -1 126.5 20.5t86.5 55t46 70.5t13 69t-21 49zM1011 445l-11 -54q-97 22 -128 18q-49 -6 -77 -47.5t-20 -79.5q2 -9 46 2t96 22.5t67 3.5q69 -36 93 -95
t5.5 -112.5t-75.5 -92.5t-137 -39q-66 0 -122.5 36.5t-132.5 109.5l18 34q68 -51 144 -68.5t141.5 13.5t87.5 114q1 4 -9 3q-11 -1 -55 -13q-139 -37 -177 -22l-9 5q-55 42 -89 92q-25 34 -20.5 72t25.5 69.5t63 52t92 20.5q15 0 42.5 -6t78 -20.5t63.5 -17.5z" />
    <glyph glyph-name="Euro" unicode="&#x20ac;" horiz-adv-x="586" 
d="M59 346l-30 73h107q38 118 119.5 191.5t144.5 43.5q97 -47 145 -74q-1 -1 -2.5 -3.5t-5.5 -8t-7.5 -11t-7.5 -10.5t-6 -8l-3 -3q-71 34 -112 28q-42 -6 -77 -45t-59 -100h187l30 -73h-240q-6 -28 -9 -57h229l30 -73h-261q7 -104 60 -140q30 -23 80 -19.5t97 37.5
q1 -1 38.5 -41t37.5 -41q-40 -27 -101 -36t-110 9q-24 10 -66.5 39t-69.5 59q-53 57 -72 133h-56l-30 73h77q0 29 3 57h-60z" />
    <glyph glyph-name="indianrupee" unicode="&#x20b9;" horiz-adv-x="699" 
d="M98 523l-30 73h494l30 -73h-164l26 -67h118l30 -73h-126q16 -82 -25.5 -138.5t-172.5 -92.5q73 -106 207 -172l-28 -36q-58 33 -92.5 56t-82.5 60.5t-89.5 85t-80.5 109.5q-5 12 5 37.5t24 42.5q12 11 33 5.5t37 -21.5q12 -13 32 -64q149 12 147 128h-282l-30 73h299
q-5 17 -24 67h-255z" />
    <glyph glyph-name="uni20BA" unicode="&#x20ba;" horiz-adv-x="501" 
d="M62 408l-30 70h82v108l113 -28v-80h132l30 -70h-162v-63h132l30 -70h-162q0 -35 1 -57.5t5.5 -54t13 -47.5t25.5 -28.5t40.5 -8t59.5 25t82 60.5l27 -31q-18 -35 -72 -85.5t-81 -65.5q-30 -17 -82.5 5.5t-92 63t-39.5 70.5v153h-52l-30 70h82v63h-52z" />
    <glyph glyph-name="uni20BD" unicode="&#x20bd;" horiz-adv-x="664" 
d="M223 599l1 -319q72 -8 128 14.5t85 61.5t43.5 83.5t11.5 82.5t-19 56q-53 59 -250 21zM85 172v497q91 25 203.5 33t141.5 -12q30 -27 94 -91t89 -93q15 -18 8 -60.5t-35 -89t-78 -86t-121 -52t-163 14.5v-61h202l30 -73h-231v-128l-140 29v99h-52l-30 73h82z" />
    <glyph glyph-name="uni2113" unicode="&#x2113;" horiz-adv-x="531" 
d="M202 542q10 60 30.5 99.5t45.5 55t50.5 15.5t50.5 -14q22 -13 65 -64t43 -64q0 -11 -13 -43.5t-38 -77.5t-70.5 -96t-100.5 -88q-15 -91 -24 -155q-5 -34 13 -52t51.5 -10.5t66.5 41.5q2 2 7 -7.5t10 -19.5t8 -8q-45 -45 -87.5 -66t-73 -18t-53.5 19.5t-33 43.5t-7 56
l13 121q-53 -19 -102 -24l-41 32q82 23 153 72q18 155 36 252zM285 435l-3 -39q31 37 55 77t35.5 69.5t16 54t-3.5 28.5q-23 22 -53 -22q-38 -58 -47 -168z" />
    <glyph glyph-name="trademark" unicode="&#x2122;" horiz-adv-x="729" 
d="M401 677l85 -177l95 197l1 -1v1l62 -20l1 -253l-63 14v114l-59 -118l-62 14l-60 130v-154l-62 14v259zM78 654l-38 43h232l38 -43h-100l1 -230l-63 14v216h-70z" />
    <glyph glyph-name="uni2126" unicode="&#x2126;" horiz-adv-x="910" 
d="M642 0l-76 87l-2 2v1h1q50 59 72 140t2 161t-86 123q-49 32 -97.5 35t-87 -19.5t-71.5 -60t-51.5 -88t-25 -101.5t5 -101.5t40.5 -88.5l80 -90h-238l-78 90h127l-4 4q-37 35 -54.5 84t-16 101t17.5 105.5t44.5 101t67.5 85t82.5 59t93.5 21.5t98 -26q130 -70 223 -160
q47 -46 64 -112t6.5 -133t-43.5 -130h64l80 -90h-238z" />
    <glyph glyph-name="estimated" unicode="&#x212e;" horiz-adv-x="821" 
d="M263 457h294v165q-55 42 -147 42q-89 0 -147 -50v-157zM718 185q-131 -139 -299 -139q-152 0 -248 90.5t-96 249.5q0 162 89 267.5t246 105.5q155 0 245.5 -96.5t90.5 -230.5v-62h-483v-175q70 -51 156 -51q131 0 240 109z" />
    <glyph glyph-name="partialdiff" unicode="&#x2202;" horiz-adv-x="634" 
d="M269 570l-103 66q1 0 34 22.5t71 41t57 11.5q47 -16 143.5 -69.5t100.5 -69.5q15 -53 20.5 -127t-4.5 -156t-35 -152t-77.5 -116.5t-125.5 -48.5t-157 66t-117 132q-21 40 20 113t103 125t95 41q46 -16 175 -99q11 103 -3 163q-25 103 -90 105q-18 0 -38 -7t-33.5 -16
t-24 -17t-11.5 -8zM244 73q46 -19 81.5 -10t63 47t45 85t27.5 105q-123 78 -204 15q-54 -43 -62 -122q-7 -75 34 -110q7 -6 15 -10z" />
    <glyph glyph-name="uni2206" unicode="&#x2206;" horiz-adv-x="681" 
d="M387 625l-1 -3l268 -621h-3l2 -1h-507l-2 1l-127 29l242 636zM342 509l-161 -419h330z" />
    <glyph glyph-name="product" unicode="&#x220f;" horiz-adv-x="706" 
d="M640 626l2 -654l-130 29v576h-299l2 -605l-130 29v666h427z" />
    <glyph glyph-name="summation" unicode="&#x2211;" horiz-adv-x="833" 
d="M140 577v1l2 89v1l1 -1h509l80 -90h-467l258 -191l-2 -89v-1h-1l-210 -206h382l80 -90h-557l-78 90h2l283 279l-281 208h-1z" />
    <glyph glyph-name="minus" unicode="&#x2212;" horiz-adv-x="566" 
d="M61 277l-31 81h453l31 -81h-453z" />
    <glyph glyph-name="uni2215" unicode="&#x2215;" horiz-adv-x="538" 
d="M521 680l-413 -710l-90 31l411 712z" />
    <glyph glyph-name="uni2219" unicode="&#x2219;" horiz-adv-x="312" 
d="M158 225q-81 39 -118 114q4 25 47 63.5t69 44.5q82 -36 116 -110q-23 -64 -114 -112z" />
    <glyph glyph-name="radical" unicode="&#x221a;" horiz-adv-x="708" 
d="M121 181l-100 40l106 151l2 -1v1l115 -28l97 -244l220 567l115 -28l-270 -697l-1 1v-1l-114 28h-1l-115 287z" />
    <glyph glyph-name="infinity" unicode="&#x221e;" horiz-adv-x="817" 
d="M583 480q27 8 110.5 -74t87.5 -115q4 -31 -32 -74t-84 -70.5t-75 -18.5q-34 11 -151 120q-14 -12 -41.5 -35t-43.5 -36t-36.5 -28.5t-36.5 -25t-28 -13.5q-27 -8 -110.5 74t-87.5 115q-4 31 32 74t84 70.5t75 18.5q34 -11 151 -120q15 12 42 35t43 36t36.5 28.5t36 25
t28.5 13.5zM632 376q-21 18 -162 -101q60 -68 127 -49q46 13 62 56q19 54 -27 94zM204 214q21 -18 162 101q-60 68 -127 49q-46 -13 -62 -56q-19 -54 27 -94z" />
    <glyph glyph-name="integral" unicode="&#x222b;" horiz-adv-x="555" 
d="M189 584q11 61 32 105.5t45.5 67.5t52 33t51.5 7.5t44 -14.5l75 -73q-88 35 -139.5 -13t-71.5 -208q-12 -97 -40 -266t-47 -252q-7 -32 -21 -56t-40.5 -44.5t-65.5 -21t-96 16.5q33 0 57.5 16t38 42.5t19 43.5t9.5 36q22 107 56.5 327.5t40.5 252.5z" />
    <glyph glyph-name="approxequal" unicode="&#x2248;" horiz-adv-x="584" 
d="M203 513q21 0 50.5 -34.5t53.5 -68.5t32 -34q15 0 51.5 27t65.5 55l28 27l74 -91q-15 -13 -37.5 -32t-71.5 -51t-71 -32q-18 0 -48 31t-54.5 61.5t-30.5 30.5q-14 0 -45.5 -24.5t-56.5 -49.5l-25 -24l-85 90q138 119 170 119zM203 303q21 0 50.5 -34.5t53.5 -68.5t32 -34
q15 0 51.5 27t65.5 55l28 27l74 -91q-15 -13 -37.5 -32t-71.5 -51t-71 -32q-18 0 -48 31t-54.5 61.5t-30.5 30.5q-14 0 -45.5 -24.5t-56.5 -49.5l-25 -24l-85 90q138 119 170 119z" />
    <glyph glyph-name="notequal" unicode="&#x2260;" horiz-adv-x="672" 
d="M541 289l30 -73h-248l-58 -97l-64 50l29 47h-82l-30 73h156l54 88h-180l-30 73h254l65 106l61 -47l-35 -59h78l30 -73h-152l-52 -88h174z" />
    <glyph glyph-name="lessequal" unicode="&#x2264;" horiz-adv-x="513" 
d="M43 341l319 241l97 -62l-239 -189l244 -112l-55 -64l-251 127zM46 91l-30 73l421 -59l30 -73z" />
    <glyph glyph-name="greaterequal" unicode="&#x2265;" horiz-adv-x="513" 
d="M39 219l243 112l-238 189l97 62l319 -241l-115 -59h-1l-250 -127zM487 164l-30 -73l-421 -59l30 73z" />
    <glyph glyph-name="lozenge" unicode="&#x25ca;" horiz-adv-x="542" 
d="M305 7l-81 20l-160 297l151 299l81 -20l160 -298zM258 94l118 231l-114 212l-118 -232z" />
    <glyph glyph-name="dottedcircle" unicode="&#x25cc;" horiz-adv-x="660" 
d="M301 516q-19 0 -31.5 12t-12.5 32t12.5 32t31.5 12t31.5 -12t12.5 -32t-12.5 -32t-31.5 -12zM428 501q-19 0 -32 13t-13 31q0 19 12.5 32t32.5 13q19 0 31 -12.5t12 -32.5q0 -18 -12.5 -31t-30.5 -13zM522 433q-19 0 -31.5 12.5t-12.5 31.5t12.5 32t31.5 13t31.5 -12.5
t12.5 -32.5q0 -19 -12.5 -31.5t-31.5 -12.5zM572 315q-20 0 -32 12.5t-12 31.5t12 31.5t32 12.5q19 0 31.5 -12.5t12.5 -31.5t-12.5 -31.5t-31.5 -12.5zM563 181q-19 0 -32 12.5t-13 31.5t13 32t32 13q18 0 30.5 -13t12.5 -32t-12.5 -31.5t-30.5 -12.5zM489 83
q-19 0 -31.5 12.5t-12.5 31.5t12.5 31.5t31.5 12.5t32 -12.5t13 -31.5t-13 -31.5t-32 -12.5zM368 30q-20 0 -32 12t-12 32t12 32t32 12t32.5 -12.5t12.5 -31.5t-12.5 -31.5t-32.5 -12.5zM242 44q-19 0 -32 13t-13 33q0 18 13 31t32 13t31.5 -13t12.5 -31q0 -20 -12.5 -33
t-31.5 -13zM140 121q-20 0 -32 12.5t-12 31.5t12.5 31.5t31.5 12.5t31.5 -12.5t12.5 -31.5t-12.5 -31.5t-31.5 -12.5zM88 238q-19 0 -31.5 12t-12.5 31t12.5 32t31.5 13t31.5 -12.5t12.5 -32.5q0 -19 -12.5 -31t-31.5 -12zM103 363q-20 0 -33 12.5t-13 31.5t13 31.5t33 12.5
q18 0 31 -12.5t13 -31.5t-13 -31.5t-31 -12.5zM183 472q-19 0 -31.5 12.5t-12.5 32.5q0 19 12.5 31.5t31.5 12.5t31.5 -12.5t12.5 -31.5q0 -20 -12.5 -32.5t-31.5 -12.5z" />
    <glyph glyph-name="dvK_SSA" horiz-adv-x="721" 
d="M441 522l-39 97h329v-97h-73v-577l-124 56v288q-103 -47 -241 11q-92 -70 -115 -94q-64 -67 -17 -117q54 -58 142 3q-37 51 -32 60q19 38 70 69q17 11 33 12.5t30 -5.5t26 -17t25 -26q23 -27 29 -55.5t-15 -52.5l-56 -50l118 -146l-39 -27l-117 147q-46 -31 -103.5 -31
t-104.5 39q-11 9 -19.5 16t-16.5 14.5t-12.5 12t-11.5 12.5t-10 11.5t-10.5 13.5t-10 13t-12 16.5t-13.5 18.5q-16 26 -13 50t26 50t51.5 49.5t63.5 49.5q9 6 13 9q-84 48 -114 99q-15 24 4 67.5t62 78.5t88 35q19 0 80 -62t87 -107q17 -29 -3.5 -60t-68.5 -70
q66 -8 126.5 18t80.5 63v115h-93zM210 378l12 -9q28 22 46 39.5t31 37.5t12 39.5t-17 37.5q-25 28 -69 5q-43 -21 -53 -63q-12 -48 38 -87z" />
    <glyph glyph-name="dvJ_NYA" horiz-adv-x="745" 
d="M545 0v305h-213q73 -58 107 -102q19 -26 -19 -89.5t-108 -94.5q148 -120 190 -147l-39 -42q-106 98 -193 170q-6 0 -34 -3t-41 -3h-34.5t-34.5 4.5t-21 12.5q-58 50 -58 93q0 12 24 35t48 29q15 -7 96 -70q51 -1 81 33t22 84t-55 90h-82l-109 96l473 1v121h-604v96h814
v-96h-86v-579z" />
    <glyph glyph-name="dvK" horiz-adv-x="678" 
d="M-27 523v96h870v-96h-343v-132q82 77 141 75q32 -2 92 -58.5t90 -117.5l-62 -42q-25 55 -64.5 76.5t-77.5 12t-71 -34t-48 -55.5v-303l-125 56v140q-60 -70 -122 -70q-119 0 -218 192q-21 40 25.5 96t112.5 88t95 13q50 -37 107 -73v137h-402zM132 200q11 -13 34 -21
t56 -8.5t74.5 24.5t78.5 75v63q-76 38 -138 17t-96.5 -72t-8.5 -78z" />
    <glyph glyph-name="dvKH" horiz-adv-x="645" 
d="M-15 619h777v-96h-444q54 -83 51 -169q43 53 112 89t99 16q37 -26 106.5 -80t96.5 -81q-28 -55 -69 -111q-35 -95 -123 -169.5t-183 -74.5q-74 0 -137 24t-104 61.5t-71 85t-43.5 92.5t-15.5 85q22 61 46 89q9 11 33 -1t42 -30q6 -6 9.5 -17t7 -29t7.5 -30q40 13 62.5 41
t26 64.5t-1.5 72t-18 72.5h-266v96zM558 70q-115 5 -212 191q-42 -85 -149 -118q14 -45 65 -85.5t135 -40.5q97 0 161 53zM443 200q13 -14 37.5 -22t60.5 -6t81.5 36.5t87.5 100.5q-86 73 -181 31q-60 -26 -86 -77q-21 -41 0 -63z" />
    <glyph glyph-name="dvG" horiz-adv-x="392" 
d="M-5 523v96h442v-96h-230q65 -70 89.5 -149.5t10.5 -141t-58 -102t-108 -40.5q-17 0 -53 38t-44 57q-10 24 2.5 74t37.5 59q3 1 28.5 -15t32.5 -22q4 -3 6 -6.5t4 -9t3 -8t3 -12t3 -13.5q44 65 40.5 148t-49.5 143h-160z" />
    <glyph glyph-name="dvGH" horiz-adv-x="492" 
d="M-11 523v96h727v-96h-392q-25 -10 -40 -16.5t-34 -16t-29.5 -16.5t-21.5 -16.5t-13.5 -19t-2.5 -20.5t7 -23.5t20 -26.5q73 41 114 38l74 -77q-90 -16 -156 -67t-22 -93q21 -22 65.5 -9.5t91 41t88.5 73.5t59 88l68 -96q-23 -46 -61.5 -85t-81.5 -62t-85 -35.5t-76.5 -10
t-51.5 18.5q-19 18 -45.5 41.5t-44.5 41.5t-42 45q-22 24 1.5 59.5t73.5 68.5q-31 22 -74 66q-33 33 -28 57.5t54 51.5h-142z" />
    <glyph glyph-name="dvNG" horiz-adv-x="739" 
d="M-4 523v96h782v-96h-329v-134h-221q-23 0 -38 -39q-18 -46 1 -73q13 -19 45 -11q9 2 69 20.5t101.5 28t47.5 4.5q63 -53 122 -144q6 -10 7 -25.5t-5.5 -33.5t-18.5 -37t-32.5 -36.5t-46.5 -31.5t-62.5 -22.5t-78.5 -8.5q-49 0 -99 21.5t-85 48.5t-68.5 64t-48 57
t-25.5 37l20 19q17 -20 37.5 -40t57.5 -51t83.5 -50t90.5 -19q62 0 117 27.5t71.5 60.5t-4.5 62q-16 16 -53 6t-74 -30t-75.5 -30.5t-56.5 3.5q-108 89 -145 127q-18 26 -11.5 64t32 72.5t51.5 36.5l183 11v46h-341zM639 268q-51 24 -76 73q2 16 30 41t45 29q51 -23 75 -71
q-17 -43 -74 -72zM206 -113q3 10 31.5 28.5t39.5 21.5q8 2 122 -77.5t120 -87.5q-1 -3 -16.5 -13t-20.5 -12q-3 2 -72 36t-134 66.5t-70 37.5z" />
    <glyph glyph-name="dvC" horiz-adv-x="530" 
d="M88 319l-96 83h318l98 -83q-117 -40 -142 -96q-15 -36 18 -53q45 -22 121 19q92 50 175 174l99 -67q-40 -63 -86.5 -110t-88.5 -72t-82 -36.5t-70 -7.5t-49 19q-80 64 -138 131q-34 38 15 99h-92zM-70 523v96h727v-96h-727z" />
    <glyph glyph-name="dvCH" horiz-adv-x="599" 
d="M-28 523v96h725v-96h-160q22 -17 54 -59t46 -67q19 -33 15 -72t-22.5 -81t-51.5 -81.5t-71.5 -75t-82.5 -61t-84.5 -39t-77 -9t-60.5 28.5q-66 66 -146 170q-17 22 6 55t68 65q-23 15 -43 32t-37 41.5t-21 48.5t11.5 51.5t53.5 52.5h-122zM376 276q-12 15 -5.5 50.5
t20.5 73t40 73t54 50.5h-213q-46 -19 -77.5 -40.5t-49 -46.5t-11 -54t37.5 -60q48 25 79 29l71 -72q-38 -15 -70.5 -33.5t-58.5 -41t-30.5 -45t12.5 -45.5q30 -35 78 -31t97 32t97 74q-46 48 -71 87zM555 439q-18 19 -50 -24q-42 -57 -47 -129q-2 -42 13 -73q62 66 87 127
t-3 99z" />
    <glyph glyph-name="dvJ" horiz-adv-x="628" 
d="M348 305l-109 96h507l6 -96h-271q27 -24 47.5 -49.5t25.5 -39.5q12 -37 -18.5 -75t-80 -59.5t-103 -29t-86.5 16.5q-64 44 -231 291l26 16q77 -93 107 -123q109 -106 191 -82q13 4 26.5 10.5t27 18.5t20.5 26.5t4.5 35t-17.5 43.5h-72zM-6 523v96h794v-96h-794z" />
    <glyph glyph-name="dvJH" horiz-adv-x="504" 
d="M-6 523v96h779v-96h-385l3 -142h-203q-23 0 -38 -37q-18 -45 2 -70q14 -17 45 -9q15 4 59 19t75.5 23.5t38.5 4.5q79 -16 153 3.5t110 70.5q0 1 14 -20.5t27 -43.5t14 -23q-44 -50 -119 -58.5t-134 18.5q42 -36 73 -67q10 -10 10.5 -33t-11 -51t-32.5 -54t-59 -45
t-85 -22q117 -96 169 -130l-39 -42q-106 98 -193 170q-6 0 -34 -3t-41 -3h-34.5t-34.5 4.5t-21 12.5q-58 50 -58 93q0 12 24 35t48 29q20 -10 102 -75q59 -12 117 12.5t82.5 62.5t-0.5 63q-16 16 -48.5 6t-64.5 -30t-66 -30.5t-52 3.5q-108 88 -144 127q-18 26 -12 64
t31.5 72.5t51.5 36.5l163 11v47h-283z" />
    <glyph glyph-name="dvNY" horiz-adv-x="582" 
d="M298 417q19 -1 43.5 -17t42 -32t44.5 -44q74 -16 133 -3.5t76 52.5l13 -21l28 -44l14 -22q-57 -52 -110 -54t-107 42q44 -78 5 -132.5t-134 -67.5q-50 -6 -96 7t-89 45.5t-74.5 65t-73.5 83.5l33 26q68 -84 145 -119.5t133.5 -20.5t77.5 70q17 45 -17.5 79.5t-84.5 7.5
l-85 -45l-80 74q122 73 163 70zM-40 523v96h718v-96h-718z" />
    <glyph glyph-name="dvTT" horiz-adv-x="594" 
d="M-8 523v96h618v-96h-150v-142h-194q-47 0 -74 -64q-30 -72 -9 -145q25 -85 106 -93h3q27 -2 50.5 3.5t45 23.5t32.5 29t34 40.5t29 36.5l85 -75q-27 -37 -45 -58.5t-45.5 -45.5t-60.5 -36.5t-74 -16.5q-57 -5 -115 43q-43 35 -65 53.5t-52.5 50t-50.5 60.5
q-20 28 -15.5 72.5t20.5 87.5t44 75t56 35l184 11v55h-357zM230 -124q3 10 31.5 28.5t39.5 21.5q8 2 122 -77.5t120 -87.5q-1 -3 -16.5 -13t-20.5 -12q-3 2 -72 36t-134 66.5t-70 37.5z" />
    <glyph glyph-name="dvTTH" horiz-adv-x="614" 
d="M-8 523v96h638v-96h-170v-115q61 -42 93.5 -90.5t34.5 -93.5t-16 -88t-52.5 -75.5t-80.5 -54.5t-96 -26q-57 -5 -115 43q-43 35 -65 53.5t-52.5 50t-50.5 60.5q-20 28 -15.5 72.5t20.5 87.5t44 75t56 35l184 11v55h-357zM297 78q54 -4 101 20t74 65.5t25 100.5t-41 117
h-187q-52 0 -81.5 -72.5t-3 -148t112.5 -82.5zM230 -124q3 10 31.5 28.5t39.5 21.5q8 2 122 -77.5t120 -87.5q-1 -3 -16.5 -13t-20.5 -12q-3 2 -72 36t-134 66.5t-70 37.5z" />
    <glyph glyph-name="dvDD" horiz-adv-x="623" 
d="M-24 523v96h659v-96h-186v-134h-221q-23 0 -38 -39q-18 -46 1 -73q13 -19 45 -11q9 2 69 20.5t101.5 28t47.5 4.5q63 -53 122 -144q6 -10 7 -25.5t-5.5 -33.5t-18.5 -37t-32.5 -36.5t-46.5 -31.5t-62.5 -22.5t-78.5 -8.5q-49 0 -99 21.5t-85 48.5t-68.5 64t-48 57
t-25.5 37l20 19q17 -20 37.5 -40t57.5 -51t83.5 -50t90.5 -19q62 0 117 27.5t71.5 60.5t-4.5 62q-16 16 -53 6t-74 -30t-75.5 -30.5t-56.5 3.5q-108 89 -145 127q-18 26 -11.5 64t32 72.5t51.5 36.5l183 11v46h-361zM207 -124q3 10 31.5 28.5t39.5 21.5q8 2 122 -77.5
t120 -87.5q-1 -3 -16.5 -13t-20.5 -12q-3 2 -72 36t-134 66.5t-70 37.5z" />
    <glyph glyph-name="dvDDH" horiz-adv-x="612" 
d="M-8 523v96h628v-96h-160v-141h-191q-30 0 -54.5 -30t-33 -73t-5 -87t30 -76.5t71.5 -35.5q34 -3 62 5q-41 45 -55 77t14.5 70.5t64.5 62.5t51 24q18 0 85 -66.5t72 -83.5q6 -25 -21 -62t-70 -72q-62 -50 -127.5 -54.5t-125.5 42.5q-43 35 -65 53.5t-52.5 50t-50.5 60.5
q-20 28 -15.5 72.5t20.5 87.5t44 75t56 35l184 11v55h-357zM372 98q41 18 76.5 65.5t18.5 64.5q-14 13 -43.5 0.5t-48.5 -48.5t-3 -82zM230 -124q3 10 31.5 28.5t39.5 21.5q8 2 122 -77.5t120 -87.5q-1 -3 -16.5 -13t-20.5 -12q-3 2 -72 36t-134 66.5t-70 37.5z" />
    <glyph glyph-name="dvNN" horiz-adv-x="572" 
d="M-12 522v97h596v-97h-79v-298q0 -40 -68.5 -96.5t-137.5 -56.5q-71 0 -235 174q-7 7 -12 277h-64zM176 205q30 -27 69 -26t78.5 29.5t57.5 72.5v241h-207z" />
    <glyph glyph-name="dvT" horiz-adv-x="382" 
d="M188 405l303 -2v-97l-232 4q-60 1 -95.5 -35.5t-30 -95.5t56.5 -117q43 -48 86 -89l-35 -29q-55 48 -79 70t-65 62t-60 68.5t-22 50.5q-3 16 8.5 50t32.5 70t57 63t75 27zM-46 523v96h585v-96h-585z" />
    <glyph glyph-name="dvTH" horiz-adv-x="463" 
d="M209 408q11 0 35.5 24t26.5 34q7 46 -21 76t-70 8q-37 -19 -48 -45t-0.5 -47t32 -35.5t45.5 -14.5zM507 347l21 -148q-32 -48 -86.5 -87.5t-127.5 -39.5q-36 0 -87 30t-93 68.5t-73.5 73t-34.5 44.5q-2 5 28 20.5t70 36.5t56 34q-63 19 -108.5 55t-45.5 77q0 30 21 57
t50.5 40.5t61.5 18.5t54 -10q49 -30 94 -77.5t55 -74.5q10 -28 -3 -58t-48 -60.5t-63 -51t-74 -49.5q-23 -15 -34 -22q63 -56 133 -53t134 51.5t100 124.5zM384 523l-39 96h327v-96h-288z" />
    <glyph glyph-name="dvD" horiz-adv-x="603" 
d="M583 -119l-114 143q-53 -37 -123 -44q-57 -5 -115 43q-43 35 -65 53.5t-52.5 50t-50.5 60.5q-20 28 -15.5 72.5t20.5 87.5t44 75t56 35l184 11v55h-357v96h618v-96h-150v-142h-191q-30 0 -54.5 -30t-32.5 -73t-3.5 -87t32.5 -76t75 -36q60 -5 110 34q-42 55 -37 66
q19 38 70 69q17 11 33 12.5t30 -5.5t26 -17t25 -26q23 -27 28.5 -54.5t-14.5 -53.5l-53 -53l115 -143zM190 -99q3 10 31.5 28.5t39.5 21.5q8 2 122 -77.5t120 -87.5q-1 -3 -16.5 -13t-20.5 -12q-3 2 -72 36t-134 66.5t-70 37.5z" />
    <glyph glyph-name="dvDH" horiz-adv-x="478" 
d="M308 364l74 -77q-90 -16 -156 -67t-22 -93q21 -22 65.5 -10t91 40t88.5 72.5t59 87.5l68 -96q-23 -46 -61.5 -84.5t-81 -61.5t-85 -34.5t-76.5 -9t-52 18.5q-102 92 -132 128q-22 26 4.5 63.5t80.5 72.5q-30 20 -73.5 56.5t-64.5 58.5q-32 34 -13.5 72t57 67.5t80 46.5
t55.5 10q74 -37 119 -93q20 -23 9 -51.5t-36.5 -53t-66 -39.5t-78.5 -12q18 -21 48 -42q61 33 99 30zM414 523l-39 96h322v-96h-283zM256 537q-11 11 -34 6.5t-45.5 -15.5t-38 -34t-13.5 -50q37 0 73 19.5t52 42t6 31.5z" />
    <glyph glyph-name="dvN" horiz-adv-x="455" 
d="M571 405v-97l-247 3q45 -74 25.5 -123.5t-67.5 -73t-72 -3.5q-121 103 -126 108q-44 42 -35 106t60 80h462zM-36 523v96h687v-96h-687zM249 312q-98 1 -110 -43q-8 -30 24 -57q35 -29 67 -10q38 22 37 110h-18z" />
    <glyph glyph-name="dvP" horiz-adv-x="412" 
d="M-3 523v96h619v-96h-433l2 -315q47 -48 135 -4.5t125 128.5q80 -92 81 -92q-5 -7 -14.5 -18.5t-36.5 -40.5t-53.5 -51t-61 -40.5t-63.5 -18.5q-16 0 -33 5.5t-36 18.5t-33 23.5t-35.5 32l-32 32t-33 35t-28.5 30.5t-6 275h-63z" />
    <glyph glyph-name="dvPH" horiz-adv-x="673" 
d="M-3 522v97h889v-97h-347v-137q53 42 102 41q36 -2 87.5 -38t79.5 -94l-62 -42q-26 38 -65 48t-75 -3t-67 -40v-312l-124 56v132q-66 -62 -118 -62q-16 0 -33 5.5t-36 18.5t-33 23.5t-35.5 32l-32 32t-33 35t-28.5 30.5t-6 274h-63zM185 208q43 -42 117 -12t113 96v230
h-232z" />
    <glyph glyph-name="dvB" horiz-adv-x="375" 
d="M486 313q-2 -5 -5 -13.5t-13.5 -33.5t-22.5 -47.5t-31 -50.5t-39 -48t-47 -34t-55 -15q-118 -2 -218 192q-21 40 25.5 96t112.5 88t95 13q125 -88 198 -147zM-8 523v96h602v-96h-602zM345 219q40 32 78 95h-1q-48 42 -104.5 45t-93.5 -23zM152 201q11 -12 32.5 -21
t58 -6.5t72.5 23.5l-122 118q-34 -29 -46 -62t5 -52z" />
    <glyph glyph-name="dvBH" horiz-adv-x="499" 
d="M562 172h-218q0 -51 -13.5 -86t-33 -49.5t-42.5 -19t-40 -1.5t-27 10q-65 44 -106 93q-10 12 -13 31t3 41t21.5 41.5t48.5 31t78 9.5v67q-39 -3 -46 5q-30 30 -70.5 63.5t-61.5 53.5q-18 16 -17.5 43.5t16.5 52.5t40 45.5t52 22t54 -18.5q15 -13 45 -37.5t45.5 -37.5
t35.5 -31.5t33 -33.5l-2 -76v-121l218 1v-99zM356 523l-38 96h381v-96h-343zM220 432q0 90 -6 96q-23 24 -53.5 6t-40 -49t3.5 -48q22 -17 96 -5zM219 176q-31 4 -50 -7t-19.5 -26t7.5 -28q9 -7 23 -9.5t26.5 16.5t12.5 54z" />
    <glyph glyph-name="dvM" horiz-adv-x="414" 
d="M-7 523v96h560v-96h-256v-253l247 1v-99h-247q0 -51 -13.5 -86t-33 -49.5t-42.5 -19t-40 -1.5t-27 10q-65 44 -106 93q-10 12 -13 31t3 41t21.5 41.5t48.5 31t78 9.5v250h-180zM172 176q-31 4 -50 -7t-19.5 -26t7.5 -28q9 -7 23 -9.5t26.5 16.5t12.5 54z" />
    <glyph glyph-name="dvY" horiz-adv-x="462" 
d="M-7 523v96h552v-96h-315q60 -50 65 -97q1 -11 -2 -23t-7.5 -22t-15 -23.5t-18 -22.5t-24.5 -25t-26.5 -24t-31 -27t-31.5 -28q66 -67 138 -57t133 63t96 129l17 -155q-20 -27 -46 -54.5t-71 -56.5t-84 -29q-42 0 -96 29.5t-96.5 68t-72.5 71.5t-33 44q-1 5 15 19
t42.5 34.5t39.5 32.5q58 52 66.5 87t-23.5 66h-171z" />
    <glyph glyph-name="dvR" horiz-adv-x="433" 
d="M-9 523v96h445v-96h-122q47 -71 53.5 -143.5t-34 -134.5t-124.5 -93q73 -106 207 -172l-28 -36q-46 26 -79.5 47.5t-80.5 56.5t-80.5 68.5t-65.5 79.5t-49 94q22 63 46 91q9 11 33 -1t43 -30q7 -7 12.5 -35.5t11.5 -42.5q40 13 62 41.5t26 64.5t-1.5 72t-19.5 73h-255z
M84 -58q3 10 31.5 28.5t39.5 21.5q8 2 122 -77.5t120 -87.5q-1 -3 -16.5 -13t-20.5 -12q-3 2 -72 36t-134 66.5t-70 37.5z" />
    <glyph glyph-name="dvL" horiz-adv-x="481" 
d="M541 411l38 -78q-45 -12 -116.5 -76.5t-105.5 -124.5l-83 68q4 26 42 69q-102 69 -157 16q-42 -46 -0.5 -143t126.5 -165l-27 -34q-80 70 -158 167.5t-84 142.5q-4 31 33 73.5t85 69.5t75 18q41 -14 138 -113q45 42 98.5 73t95.5 37zM-10 523v96h596v-96h-596z" />
    <glyph glyph-name="dvV" horiz-adv-x="382" 
d="M486 313q-2 -5 -5 -13.5t-13.5 -33.5t-22.5 -47.5t-31 -50.5t-39 -48t-47 -34t-55 -15q-118 -2 -218 192q-21 40 25.5 96t112.5 88t95 13q125 -88 198 -147zM-7 523v96h486v-96h-486zM152 201q12 -14 38.5 -21.5t63.5 -5t83 37.5t86 102h-1q-84 74 -181 31
q-60 -27 -88 -79q-23 -42 -1 -65z" />
    <glyph glyph-name="dvSH" horiz-adv-x="496" 
d="M469 -38l-39 -41q-98 90 -194 169q-7 0 -28.5 -2t-32.5 -3t-30.5 -1t-31 1.5t-23.5 5.5t-19 10q-57 57 -57 93q0 12 23.5 35t48.5 30q21 -11 103 -77q78 35 113 93q-61 19 -154 97.5t-93 120.5q0 30 23.5 60t55.5 48t66 26t56 -7q50 -30 102.5 -84.5t62.5 -81.5
q32 -90 -9 -197t-130 -151q146 -118 187 -144zM314 309q24 50 24 130q0 94 -58 104q-44 8 -87 -31q-44 -40 -31 -82q4 -13 14 -24q27 -28 70.5 -58.5t67.5 -38.5zM449 523l-39 96h229v-96h-190z" />
    <glyph glyph-name="dvSS" horiz-adv-x="427" 
d="M-12 523v96h619v-96h-418l240 -225q20 23 32 42q66 -102 67 -102q-6 -7 -15.5 -18t-39 -40t-57.5 -51t-63.5 -40t-64.5 -18q-16 0 -33 5.5t-36 18.5t-33 23.5t-35.5 32l-32 32t-33 35t-28.5 30.5t-6 275h-63zM176 208q23 -25 60.5 -22.5t78.5 23.5t80 55l-221 207z" />
    <glyph glyph-name="dvS" horiz-adv-x="547" 
d="M-3 523v96h648v-96h-340q43 -66 51.5 -132t-20.5 -121q24 -9 54.5 -10.5t65 6t68 33t56.5 65.5l73 -107q-15 -10 -39.5 -24t-81.5 -38t-92 -24q-37 0 -129 63q-42 -47 -109 -68q18 -34 81.5 -89t123.5 -96l-28 -37q-139 87 -195 134q-120 100 -160 212q23 65 46 92
q9 11 33 -1t43 -30q5 -6 8.5 -17.5t7 -31t7.5 -33.5q40 13 62.5 42t26 65.5t-2 73t-18.5 73.5h-240z" />
    <glyph glyph-name="dvH" horiz-adv-x="461" 
d="M-43 523v96h570v-96h-105v-142h-221q-39 0 -61 -26t-18 -59.5t34 -52.5q105 68 152 66q40 -1 163 -39t159 -61l-11 -41q-77 33 -160.5 39t-149 -12t-108.5 -57.5t-45 -92.5q-3 -87 184 -209l-29 -35q-52 37 -67.5 48t-60.5 45.5t-63 52.5t-44.5 46.5t-37 53t-11.5 47.5
q-1 52 95 125q-40 36 -66 64q-18 26 -12 64t31.5 72.5t51.5 35.5l184 11v57h-354z" />
    <glyph glyph-name="dvLL" horiz-adv-x="798" 
d="M-10 523v96h852v-96h-852zM578 434q26 9 133.5 -100.5t112.5 -142.5q5 -31 -30.5 -79.5t-83 -81t-73.5 -24.5q-3 -2 -17.5 7.5t-38 28.5t-44.5 36t-50.5 41.5t-41.5 34.5q-155 -155 -174 -163q-17 -6 -76.5 46.5t-113 114.5t-56.5 82q-5 31 30.5 80t83 82t73.5 23
q22 -8 55 -32.5t78.5 -63t59.5 -49.5q158 154 173 160zM363 235q-16 14 -29 25.5t-22.5 19t-10.5 8.5q-59 50 -114 17q-43 -26 -49 -79q-8 -63 51 -98q12 -7 26 -12q10 -4 24.5 3.5t32.5 23.5t33 31t33 34.5t25 26.5zM548 137q59 -50 115 -15q43 27 49 79q9 62 -49 95
l-29 13q-14 4 -29.5 -1t-32.5 -20t-29 -27.5t-31.5 -35.5t-27.5 -31q32 -29 64 -57z" />
    <glyph glyph-name="dvK_SS" horiz-adv-x="534" 
d="M397 456q17 -29 -3 -60t-68 -69q76 -9 156.5 23t109.5 74l14 -22q13 -21 27 -43l14 -22q-49 -41 -113.5 -57t-125 -9.5t-117.5 29.5q-93 -70 -119 -98q-59 -64 -13 -113q54 -58 142 3q-37 51 -32 60q19 38 70 69q17 11 33 12.5t30 -5.5t26 -17t25 -26q23 -27 29 -55.5
t-15 -52.5l-56 -50l118 -146l-39 -27l-117 147q-46 -31 -103.5 -31t-104.5 39q-11 9 -19.5 16t-16.5 14.5t-12.5 12t-11.5 12.5t-10 11.5t-10.5 13.5t-10 13t-12 16.5t-13.5 18.5q-8 11 -11.5 22.5t-0.5 24t6.5 22.5t15.5 23t20.5 22t26.5 23.5t28 22t31.5 23t30.5 22.5
q-86 47 -120 102q-15 24 4 67.5t62 78.5t88 35q19 0 80 -62t87 -107zM441 522l-39 97h329v-97h-290zM208 378q6 -6 18 -13q27 22 44 40t28.5 39.5t8 43t-21.5 42.5q-25 29 -68 5q-40 -23 -49 -66q-9 -52 40 -91z" />
    <glyph glyph-name="dvJ_NY" horiz-adv-x="522" 
d="M181 305l-109 96l557 1l6 -97h-296q73 -58 107 -102q19 -26 -19 -89.5t-108 -94.5q148 -120 190 -147l-39 -42q-106 98 -193 170q-6 0 -34 -3t-41 -3h-34.5t-34.5 4.5t-21 12.5q-58 50 -58 93q0 12 24 35t48 29q15 -7 96 -70q51 -1 81 33t22 84t-55 90h-89zM-52 522v97
h814v-97h-814z" />
    <glyph glyph-name="dvKx" horiz-adv-x="720" 
d="M-19 523v96h870v-96h-343v-132q82 77 141 75q32 -2 92 -58.5t90 -117.5l-62 -42q-25 55 -64.5 76.5t-77.5 12t-71 -34t-48 -55.5v-303l-125 56v140q-60 -70 -122 -70q-119 0 -218 192q-21 40 25.5 96t112.5 88t95 13q50 -37 107 -73v137h-402zM140 200q11 -13 34 -21
t56 -8.5t74.5 24.5t78.5 75v63q-76 38 -138 17t-96.5 -72t-8.5 -78zM234 -135q-54 25 -80 78q2 17 31.5 43.5t46.5 30.5q55 -24 79 -75q-16 -45 -77 -77z" />
    <glyph glyph-name="dvKHx" horiz-adv-x="632" 
d="M-39 619h777v-96h-444q54 -83 51 -169q43 53 112 89t99 16q37 -26 106.5 -80t96.5 -81q-28 -55 -69 -111q-35 -95 -123 -169.5t-183 -74.5q-74 0 -137 24t-104 61.5t-71 85t-43.5 92.5t-15.5 85q22 61 46 89q9 11 33 -1t42 -30q6 -6 9.5 -17t7 -29t7.5 -30q40 13 62.5 41
t26 64.5t-1.5 72t-18 72.5h-266v96zM534 70q-115 5 -212 191q-42 -85 -149 -118q14 -45 65 -85.5t135 -40.5q97 0 161 53zM419 200q13 -14 37.5 -22t60.5 -6t81.5 36.5t87.5 100.5q-86 73 -181 31q-60 -26 -86 -77q-21 -41 0 -63zM133 -155q-54 25 -80 78q2 17 31.5 43.5
t46.5 30.5q55 -24 79 -75q-16 -45 -77 -77z" />
    <glyph glyph-name="dvGx" horiz-adv-x="424" 
d="M-5 523v96h442v-96h-230q65 -70 89.5 -149.5t10.5 -141t-58 -102t-108 -40.5q-17 0 -53 38t-44 57q-10 24 2.5 74t37.5 59q3 1 28.5 -15t32.5 -22q4 -3 6 -6.5t4 -9t3 -8t3 -12t3 -13.5q44 65 40.5 148t-49.5 143h-160zM142 -155q-54 25 -80 78q2 17 31.5 43.5t46.5 30.5
q55 -24 79 -75q-16 -45 -77 -77z" />
    <glyph glyph-name="dvJx" horiz-adv-x="632" 
d="M348 305l-109 96h507l6 -96h-271q27 -24 47.5 -49.5t25.5 -39.5q12 -37 -18.5 -75t-80 -59.5t-103 -29t-86.5 16.5q-64 44 -231 291l26 16q77 -93 107 -123q109 -106 191 -82q13 4 26.5 10.5t27 18.5t20.5 26.5t4.5 35t-17.5 43.5h-72zM-6 523v96h794v-96h-794zM131 -60
q-54 25 -80 78q2 17 31.5 43.5t46.5 30.5q55 -24 79 -75q-16 -45 -77 -77z" />
    <glyph glyph-name="dvPHx" horiz-adv-x="721" 
d="M-12 522v97h889v-97h-347v-137q53 42 102 41q36 -2 87.5 -38t79.5 -94l-62 -42q-26 38 -65 48t-75 -3t-67 -40v-312l-124 56v132q-66 -62 -118 -62q-16 0 -33 5.5t-36 18.5t-33 23.5t-35.5 32l-32 32t-33 35t-28.5 30.5t-6 274h-63zM176 208q43 -42 117 -12t113 96v230
h-232zM211 -135q-54 25 -80 78q2 17 31.5 43.5t46.5 30.5q55 -24 79 -75q-16 -45 -77 -77z" />
    <glyph glyph-name="dvReph" 
d="M-78 615h-66q-57 23 -104 69t-47 78q0 47 57 89.5t106 42.5q27 0 148 -91l-16 -24q-80 45 -114 45q-24 0 -46 -29t-22 -56q0 -8 2.5 -16t8.5 -17t12 -16t17 -17.5t18.5 -17.5t22.5 -20t23 -20z" />
    <glyph glyph-name="dvEyelash" horiz-adv-x="345" 
d="M22 287l26 27q8 -7 22.5 -18t55.5 -29t78 -18q29 0 73 29.5t73 59.5l29 29l71 -75l-13.5 -13.5t-34 -30.5t-50 -38.5t-56.5 -30t-57 -12.5q-29 0 -83.5 30t-93.5 60zM-8 523v96h499v-96h-499z" />
    <glyph glyph-name="dvRashtrasign" 
d="M-455 -116l219 144l225 -192l-33 -40l-165 157l-166 -157z" />
    <glyph glyph-name="dvK_RA" horiz-adv-x="850" 
d="M375 0v152q-21 -22 -51 -51t-72.5 -68.5t-65.5 -61.5l-84 66q22 16 96 66q-53 17 -94.5 61.5t-68.5 97.5q-21 40 25.5 96t112.5 88t95 13q50 -37 107 -73v137h-402v96h882v-96h-355v-112q58 51 142 48q28 -1 89.5 -65t93.5 -111q34 -52 -21.5 -122.5t-140.5 -99.5l-94 86
q108 38 141 86q23 33 24.5 62t-15 43.5t-44.5 18.5t-64 -13q-85 -39 -111 -119v-281zM132 200q10 -12 33.5 -17t56 -2t74 27t79.5 68v57q-76 38 -138 17t-96.5 -72t-8.5 -78z" />
    <glyph glyph-name="dvKH_RA" horiz-adv-x="865" 
d="M-15 619h887v-96h-76v-579l-124 56v153l-14 -10q-24 -21 -110.5 -92t-124.5 -107l-84 66q12 7 76 45q-127 -16 -236.5 47.5t-141.5 188.5q22 61 46 89q9 11 33 -1t42 -30q6 -6 9.5 -17t7 -29t7.5 -30q40 13 62.5 41t26.5 64t-1.5 72t-18.5 73h-266v96zM580 459
q27 -20 92 -63v127h-355q57 -86 55 -166q42 53 110.5 87.5t97.5 14.5zM440 211q14 -16 45.5 -22.5t84 12t102.5 69.5v71q-73 31 -132 10.5t-91.5 -67t-8.5 -73.5zM346 262l-2 3q-39 -63 -128 -95q57 -38 127.5 -49t138.5 9q-89 38 -136 132z" />
    <glyph glyph-name="dvG_RA" horiz-adv-x="653" 
d="M-5 619h662v-96h-82v-579l-124 56v98q-61 -95 -145 -162l-84 66q166 124 229 196v325h-244q65 -70 89.5 -149.5t10.5 -141t-58 -102t-108 -40.5q-17 0 -53 38t-44 57q-10 24 2.5 74t37.5 59q3 1 28.5 -15t32.5 -22q4 -3 6 -6.5t4 -9t3 -8t3 -12t3 -13.5q44 65 40.5 148
t-49.5 143h-160v96z" />
    <glyph glyph-name="dvGH_RA" horiz-adv-x="708" 
d="M507 1v114q-22 -20 -91.5 -80.5t-100.5 -90.5l-84 66q31 23 96 66q-61 -2 -87 21q-51 42 -110 112q-37 44 47 102q-30 15 -52.5 36.5t-34 49t3 61t56.5 65.5h-161v96h727v-96h-85v-578zM325 364l74 -77q-97 -17 -148 -46.5t-8 -70.5q44 -41 135 1.5t129 125.5v226h-185
q-59 -23 -97 -55t-43 -67t37 -65q65 31 106 28z" />
    <glyph glyph-name="dvNG_RA" horiz-adv-x="715" 
d="M638 411q51 -23 75 -71q-17 -43 -74 -72q-51 24 -76 73q2 16 30 41t45 29zM-4 619h782v-96h-329v-134h-221q-23 0 -38 -39q-18 -46 1 -73q13 -19 45 -11q9 2 69 20.5t101.5 28t47.5 4.5q63 -53 122 -144q6 -13 7 -33t-13.5 -44.5t-35 -47t-57.5 -41t-82 -25.5l174 -148
l-33 -40l-165 157l-166 -157l-80 88l157 103q-41 10 -82.5 34.5t-69.5 49.5t-56.5 57.5t-39 48t-21.5 31.5l20 19q17 -20 37.5 -40t57.5 -51t83.5 -50t90.5 -19q62 0 117 27.5t71.5 60.5t-4.5 62q-16 16 -53 6t-74 -30t-75.5 -30.5t-56.5 3.5q-108 89 -145 127
q-18 26 -11.5 64t32 72.5t51.5 36.5l183 11v46h-341v96z" />
    <glyph glyph-name="dvC_RA" horiz-adv-x="756" 
d="M564 0v158q-75 -91 -186 -196l-84 66q36 27 80 63q-64 -8 -89 16q-61 55 -111 118q-31 40 9 94h-95l-96 83h318l98 -83q-123 -43 -150 -94q-16 -32 16 -44q48 -18 134 29q79 44 156 131v182h-634v96h844v-96h-86v-579z" />
    <glyph glyph-name="dvCH_RA" horiz-adv-x="728" 
d="M617 439q-18 19 -50 -24q-42 -57 -47 -129q-2 -42 13 -73q62 66 87 127t-3 99zM313 351l71 -72q-38 -15 -70.5 -33.5t-58.5 -41t-30.5 -45t12.5 -45.5q30 -35 78 -31t97 32t97 74q-54 58 -71 87q-12 15 -5.5 50.5t20.5 73t40 73t54 50.5h-213q-46 -19 -77.5 -40.5
t-49 -46.5t-11 -54t37.5 -60q48 25 79 29zM758 619v-96h-159q22 -17 54 -59t46 -67q21 -37 13.5 -84t-34.5 -93.5t-69 -92.5l114 -116l-32 -31l-106 123q-81 -77 -165 -109l186 -158l-33 -40l-165 157l-166 -157l-80 88l148 97q-28 8 -46 26q-66 66 -146 170q-17 22 6 55
t68 65q-23 15 -43 32t-37 41.5t-21 48.5t11.5 51.5t53.5 52.5h-193v96h795z" />
    <glyph glyph-name="dvJ_RA" horiz-adv-x="831" 
d="M-6 619h844v-96h-86v-579l-124 56v99q-56 -79 -149 -163l-84 66q55 41 88 66.5t74.5 63t70.5 71.5v102h-147q27 -24 47.5 -49.5t25.5 -39.5q12 -37 -18.5 -75t-80 -59.5t-103 -29t-86.5 16.5q-64 44 -231 291l26 16q77 -93 107 -123q109 -106 191 -82q13 4 26.5 10.5
t27 18.5t20.5 26.5t4.5 35t-17.5 43.5h-72l-109 96h389v122h-634v96z" />
    <glyph glyph-name="dvJH_RA" horiz-adv-x="836" 
d="M643 1v89q-56 -97 -122 -177l-84 66q29 24 60 56t49 53t52.5 62.5t44.5 53.5v94q-51 -24 -122.5 -26t-115.5 12q44 -35 103 -92q10 -10 10.5 -33t-11 -51t-32.5 -54t-59 -45t-85 -22q117 -96 169 -130l-39 -42q-106 98 -193 170q-6 0 -34 -3t-41 -3h-34.5t-34.5 4.5
t-21 12.5q-58 50 -58 93q0 12 24 35t48 29q20 -10 102 -75q59 -12 117 12.5t82.5 62.5t-0.5 63q-16 16 -48.5 6t-64.5 -30t-66 -30.5t-52 3.5q-108 88 -144 127q-18 26 -12 64t31.5 72.5t51.5 36.5l163 11v47h-283v96h849v-96h-76v-578zM370 312q72 -15 160 20.5t113 89.5
v101h-255l3 -142h-203q-23 0 -38 -37q-18 -45 2 -70q14 -17 45 -9q15 4 59 19t75.5 23.5t38.5 4.5z" />
    <glyph glyph-name="dvNY_RA" horiz-adv-x="769" 
d="M-89 619h862v-96h-76v-578l-124 56v98q-56 -79 -149 -163l-84 66q55 41 88 66.5t74.5 63t70.5 71.5v38q-62 -30 -131 30q42 -77 2 -131t-133 -66q-50 -6 -96 7t-89 45.5t-74.5 65t-73.5 83.5l33 26q68 -84 145 -119.5t133.5 -20.5t77.5 70q17 45 -17.5 79.5t-84.5 7.5
l-85 -45l-80 74q122 73 163 70q19 -1 43.5 -17t42 -32t44.5 -44q145 -29 180 39v160h-662v96z" />
    <glyph glyph-name="dvTT_RA" horiz-adv-x="570" 
d="M460 381h-194q-47 0 -74 -64q-30 -72 -9 -145q25 -85 106 -93h3q27 -2 50.5 3.5t45 23.5t32.5 29t34 40.5t29 36.5l85 -75q-31 -43 -52 -67.5t-55.5 -48.5t-75.5 -34l153 -131l-33 -40l-165 157l-166 -157l-80 88l156 102q-8 5 -22 17q-43 35 -65 53.5t-52.5 50
t-50.5 60.5q-20 28 -15.5 72.5t20.5 87.5t44 75t56 35l184 11v55h-357v96h618v-96h-150v-142z" />
    <glyph glyph-name="dvTTH_RA" horiz-adv-x="593" 
d="M456 381h-187q-52 0 -81.5 -72.5t-3 -148t112.5 -82.5q54 -4 101 20t74 65.5t25 100.5t-41 117zM630 523h-170v-115q83 -56 112 -124.5t9 -126t-69.5 -103t-116.5 -64.5l157 -134l-33 -40l-165 157l-166 -157l-80 88l149 98q-11 7 -29 21q-43 35 -65 53.5t-52.5 50
t-50.5 60.5q-20 28 -15.5 72.5t20.5 87.5t44 75t56 35l184 11v55h-357v96h638v-96z" />
    <glyph glyph-name="dvDD_RA" horiz-adv-x="542" 
d="M449 389h-221q-23 0 -38 -39q-18 -46 1 -73q13 -19 45 -11q9 2 69 20.5t101.5 28t47.5 4.5q63 -53 122 -144q6 -14 6.5 -34t-14 -45.5t-35.5 -48t-59.5 -40.5t-84.5 -24l149 -127l-33 -40l-165 157l-166 -157l-80 88l146 96q-125 52 -227 208l20 19q17 -20 37.5 -40
t57.5 -51t83.5 -50t90.5 -19q62 0 117 27.5t71.5 60.5t-4.5 62q-16 16 -53 6t-74 -30t-75.5 -30.5t-56.5 3.5q-108 89 -145 127q-18 26 -11.5 64t32 72.5t51.5 36.5l183 11v46h-361v96h659v-96h-186v-134z" />
    <glyph glyph-name="dvDDH_RA" horiz-adv-x="644" 
d="M467 228q-14 13 -43.5 0.5t-48.5 -48.5t-3 -82q41 18 76.5 65.5t18.5 64.5zM460 382h-191q-30 0 -54.5 -30t-33 -73t-5 -87t30 -76.5t71.5 -35.5q34 -3 62 5q-41 45 -55 77t14.5 70.5t64.5 62.5t51 24q18 0 85 -66.5t72 -83.5q6 -25 -21 -62t-70 -72q-47 -37 -95 -49
l152 -130l-33 -40l-165 157l-166 -157l-80 88l156 103q-20 14 -22 16q-43 35 -65 53.5t-52.5 50t-50.5 60.5q-20 28 -15.5 72.5t20.5 87.5t44 75t56 35l184 11v55h-357v96h628v-96h-160v-141z" />
    <glyph glyph-name="dvNN_RA" horiz-adv-x="781" 
d="M381 281v242h-207l2 -318q30 -27 69 -26t78.5 29.5t57.5 72.5zM-2 619h786v-96h-72v-578l-124 56v98q-56 -79 -149 -163l-84 66q55 41 88 66.5t74.5 63t70.5 71.5v320h-83v-299q0 -40 -68.5 -96.5t-137.5 -56.5q-71 0 -235 174q-5 5 -8.5 109t-3.5 169h-54v96z" />
    <glyph glyph-name="dvT_RA" horiz-adv-x="535" 
d="M-7 523v96h547v-96h-78v-578l-124 56v175q-65 -52 -193 -123l-77 89q200 84 269 143q-105 51 -281 32l-38 124q57 7 151 -12t169 -55v149h-345z" />
    <glyph glyph-name="dvTH_RA" horiz-adv-x="661" 
d="M180 550q-37 -19 -48 -45t-0.5 -47t32 -35.5t45.5 -14.5q11 0 35.5 24t26.5 34q7 46 -21 76t-70 8zM345 619h327v-96h-71v-578l-124 56v142l-9 -8q-86 -103 -185 -197l-84 66q79 58 94 70q-36 8 -84 39.5t-86.5 67.5t-66 67t-30.5 40q-2 5 28 20.5t70 36.5t56 34
q-63 19 -108.5 55t-45.5 77q0 30 21 57t50.5 40.5t61.5 18.5t54 -10q49 -30 94 -77.5t55 -74.5q10 -28 -3 -58t-48 -60.5t-63 -51t-74 -49.5q-23 -15 -34 -22q54 -51 120.5 -54t124 33.5t92.5 99.5v220h-93z" />
    <glyph glyph-name="dvD_RA" horiz-adv-x="605" 
d="M619 -92l-39 -27l-114 142l-225 -165l-75 75l107 60q-17 7 -45 30q-43 35 -65 53.5t-52.5 50t-50.5 60.5q-20 28 -15.5 72.5t20.5 87.5t44 75t56 35l184 11v55h-357v96h618v-96h-150v-142h-191q-30 0 -54.5 -30t-32.5 -73t-3.5 -87t32.5 -76t75 -36q60 -5 110 34
q-42 55 -37 66q19 38 70 69q17 11 33 12.5t30 -5.5t26 -17t25 -26q23 -27 28.5 -54.5t-14.5 -53.5l-53 -53z" />
    <glyph glyph-name="dvDH_RA" horiz-adv-x="692" 
d="M489 2v112q-22 -21 -91 -80.5t-100 -89.5l-84 66q38 27 97 66q-50 3 -71 21q-51 42 -110 112q-37 44 47 102q-29 19 -74.5 56.5t-67.5 61.5q-32 34 -13.5 72t57 67.5t80 46.5t55.5 10q74 -37 119 -93q20 -23 9 -51.5t-36.5 -53t-66 -39.5t-78.5 -12q23 -25 51 -44
q67 35 113 32l74 -77q-97 -17 -148 -46.5t-8 -70.5q38 -37 118.5 -6t127.5 101v258h-75l-39 96h322v-96h-84v-577zM256 537q-11 11 -34 6.5t-45.5 -15.5t-38 -34t-13.5 -50q37 0 73 19.5t52 42t6 31.5z" />
    <glyph glyph-name="dvN_RA" horiz-adv-x="671" 
d="M-30 523v96h717v-96h-77v-578l-124 56v163q-117 -86 -276 -172l-77 89q80 33 191 92t162 97v16l-173 69q24 -51 0.5 -84t-65.5 -48.5t-60 -4.5q-48 28 -121 85q-24 18 -21 48.5t19 60t43 50t51 18.5q4 0 327 -126v169h-516zM159 293q26 -16 55 12t22 76q-73 14 -94 -28
q-14 -28 7 -51q4 -6 10 -9z" />
    <glyph glyph-name="dvP_RA" horiz-adv-x="607" 
d="M183 523l2 -315q43 -42 117 -12t113 96v231h-232zM-3 619h619v-96h-77v-578l-124 56v121q-106 -101 -201 -178l-84 66q30 19 114 76q-18 9 -36 22.5t-40.5 35t-33.5 32.5t-38 39.5t-30 32.5q-6 6 -6 275h-63v96z" />
    <glyph glyph-name="dvPH_RA" horiz-adv-x="882" 
d="M183 523l2 -315q43 -42 117 -12t113 96v231h-232zM886 523h-347v-138q53 42 102 41q28 -1 96 -62.5t96 -103.5q33 -51 -8.5 -139t-102.5 -126l-98 73q53 27 92 100q41 79 18 123q-24 44 -111 17q-42 -14 -84 -58v-305l-124 56v132l-12 -11q-106 -101 -201 -178l-84 66
l51 34t69 45q-17 10 -35 23.5t-39 34t-33 32t-36 38t-29 31.5q-6 6 -6 275h-63v96h889v-96z" />
    <glyph glyph-name="dvB_RA" horiz-adv-x="588" 
d="M316 196l-124 119q-34 -29 -46 -62t5 -52q11 -13 33 -22t59 -7t73 24zM394 271v63q-83 52 -171 2l122 -118q29 25 49 53zM-8 619h602v-96h-75v-578l-125 56v134q-73 -84 -186 -191l-84 66q5 4 40 30t55 41q-88 35 -165 182q-21 40 25.5 96t112.5 88t95 13q50 -37 107 -73
v136h-402v96z" />
    <glyph glyph-name="dvBH_RA" horiz-adv-x="695" 
d="M220 432q0 90 -6 96q-23 24 -53.5 6t-40 -49t3.5 -48q22 -17 96 -5zM157 115q9 -7 23 -9.5t26.5 16.5t12.5 54q-31 4 -50 -7t-19.5 -26t7.5 -28zM318 619h381v-96h-75v-579l-124 56v82q-39 -55 -133 -151l-84 66q129 80 211 175h-150q0 -51 -13.5 -86t-33 -49.5
t-42.5 -19t-40 -1.5t-27 10q-65 44 -106 93q-10 12 -13 31t3 41t21.5 41.5t48.5 31t78 9.5v67q-39 -3 -46 5q-30 30 -70.5 63.5t-61.5 53.5q-18 16 -17.5 43.5t16.5 52.5t40 45.5t52 22t54 -18.5q15 -13 45 -37.5t45.5 -37.5t35.5 -31.5t33 -33.5l-2 -83v-114l156 1v252
h-144z" />
    <glyph glyph-name="dvM_RA" horiz-adv-x="687" 
d="M297 523v-253l207 1v252h-207zM110 115q9 -7 23 -9.5t26.5 16.5t12.5 54q-31 4 -50 -7t-19.5 -26t7.5 -28zM-7 619h710v-96h-75v-579l-124 56v81q-70 -87 -170 -145l-84 66q152 63 250 170h-203q0 -51 -13.5 -86t-33 -49.5t-42.5 -19t-40 -1.5t-27 10q-65 44 -106 93
q-10 12 -13 31t3 41t21.5 41.5t48.5 31t78 9.5v250h-180v96z" />
    <glyph glyph-name="dvY_RA" horiz-adv-x="679" 
d="M483 523h-253q60 -50 65 -97q1 -11 -2 -23t-7.5 -22t-15 -23.5t-18 -22.5t-24.5 -25t-26.5 -24t-31 -27t-31.5 -28q63 -65 130 -58.5t122.5 52t91.5 114.5v184zM-7 619h690v-96h-76v-578l-124 56v166q-91 -114 -212 -229l-84 66q21 15 97 72q-76 20 -163.5 100.5
t-96.5 107.5q-1 5 15 19t42.5 34.5t39.5 32.5q58 52 66.5 87t-23.5 66h-171v96z" />
    <glyph glyph-name="dvL_RA" horiz-adv-x="713" 
d="M521 1v60q-51 -67 -119 -117l-84 66q112 62 203 165v134q-46 -26 -94.5 -72.5t-74.5 -92.5l-77 65q6 34 54 80q-47 29 -87.5 30t-63.5 -20t-34 -52.5t-2.5 -70.5t34.5 -71q60 -78 114 -128l-27 -34q-80 70 -158 167.5t-84 142.5q-4 31 33 73.5t85 69.5t75 18
q24 -8 67.5 -38.5t76.5 -60.5q87 71 163 87v121h-525v96h727v-96h-78v-578z" />
    <glyph glyph-name="dvV_RA" horiz-adv-x="589" 
d="M395 271v63q-76 38 -138 17t-96.5 -72t-8.5 -78q11 -13 34 -21t56 -8.5t74.5 24.5t78.5 75zM-7 619h602v-96h-75v-578l-125 56v136q-71 -83 -187 -193l-84 66q15 12 48.5 36t47.5 35q-91 36 -165 182q-21 40 25.5 96t112.5 88t95 13q50 -37 107 -73v136h-402v96z" />
    <glyph glyph-name="dvSH_RA" horiz-adv-x="668" 
d="M422 523l-39 96h297v-96h-81v-578l-124 56v154q-34 -25 -124 -89.5t-131 -94.5l-77 89q48 27 170 101.5t162 97.5v2q-79 -19 -173 22q-98 -73 -201 -114l-88 72q132 62 182 91q-81 41 -112 93q-15 24 7.5 72.5t68.5 89t91 40.5q18 0 75.5 -64t84.5 -110q31 -54 -75 -144
q76 -15 140 33v181h-53zM227 371l11 -12q132 91 76 152q-28 30 -70 11q-41 -19 -49 -63q-7 -44 32 -88z" />
    <glyph glyph-name="dvSS_RA" horiz-adv-x="620" 
d="M177 468l4 -244q37 -36 103.5 -24t115.5 59zM428 523h-239l239 -224v224zM-9 619h638v-96h-77v-578l-124 56v129q-100 -97 -209 -186l-84 66q17 11 57.5 38t60.5 40q-13 3 -27 9.5t-30.5 19t-27 21t-30 28l-26 26t-28 30t-24.5 26.5q-6 6 -6 275h-63v96z" />
    <glyph glyph-name="dvS_RA" horiz-adv-x="770" 
d="M597 1v98q-62 -77 -142 -134l-84 66q137 77 226 175v1q-77 -34 -123 -34q-19 0 -56.5 18.5t-60 32.5t-35.5 23q-40 -54 -120 -81q26 -49 76.5 -106.5t114.5 -88.5l-28 -37q-71 38 -133 85.5t-121 119.5t-87 151q23 65 46 92q9 11 33 -1t43 -30q5 -6 8.5 -17.5t7 -31
t7.5 -33.5q40 13 62.5 42t26 65.5t-2 73t-18.5 73.5h-240v96h778v-96h-54v-578zM305 523q40 -61 50 -124t-13 -116q17 -13 48.5 -20.5t68.5 -6t75.5 22.5t62.5 60v184h-292z" />
    <glyph glyph-name="dvH_RA" horiz-adv-x="543" 
d="M-13 523v96h560v-96h-125v-142h-221q-39 0 -63 -27t-21.5 -61.5t32.5 -53.5q45 31 89.5 51t69.5 19q25 0 81 -53.5t98.5 -110t36.5 -67.5q-3 -5 -8.5 -19t-16 -33.5t-29.5 -45.5l-93 61q69 74 24 130q-101 -158 -118 -186l-88 55q32 31 82 81t83 82q-41 18 -91 5.5
t-83 -47.5t-41.5 -83.5t33.5 -102.5q76 -99 195 -39l65 -80q-51 -18 -111.5 -24.5t-73.5 4.5q-45 34 -91 78t-85.5 98t-40.5 90q-1 49 86 117q-40 36 -66 64q-18 26 -12 64t31.5 72.5t51.5 35.5l184 11v57h-324z" />
    <glyph glyph-name="dvLL_RA" horiz-adv-x="744" 
d="M435 194q32 -29 64 -57q59 -50 115 -15q43 27 49 79q9 62 -49 95l-29 13q-14 4 -29.5 -1t-32.5 -20t-29 -27.5t-31.5 -35.5t-27.5 -31zM166 116q10 -4 24.5 3.5t32.5 23.5t33 31t33 34.5t25 26.5q-16 14 -29 25.5t-22.5 19t-10.5 8.5q-59 50 -114 17q-43 -26 -49 -79
q-8 -63 51 -98q12 -7 26 -12zM644 20l156 -133l-33 -40l-165 157l-166 -157l-80 88l170 112q-23 18 -69 56.5t-61 50.5q-155 -155 -174 -163q-17 -6 -76.5 46.5t-113 114.5t-56.5 82q-5 31 30.5 80t83 82t73.5 23q22 -8 55 -32.5t78.5 -63t59.5 -49.5q102 100 136 130v119
h-554v96h859v-96h-198v-130q56 -48 114.5 -114.5t61.5 -87.5q5 -35 -38 -89t-93 -82z" />
    <glyph glyph-name="dvKx_RA" horiz-adv-x="896" 
d="M79 162q42 -19 57 -55q-11 -34 -56 -57q-40 20 -58 57q1 13 22.5 32.5t34.5 22.5zM420 276v57q-76 38 -138 17t-96.5 -72t-8.5 -78q10 -12 33.5 -17t56 -2t74 27t79.5 68zM900 523h-355v-112q58 51 142 48q28 -1 89.5 -65t93.5 -111q34 -52 -21.5 -122.5t-140.5 -99.5
l-94 86q108 38 141 86q23 33 24.5 62t-15 43.5t-44.5 18.5t-64 -13q-85 -39 -111 -119v-281l-125 56v152q-21 -22 -51 -51t-72.5 -68.5t-65.5 -61.5l-84 66q22 16 96 66q-53 17 -94.5 61.5t-68.5 97.5q-21 40 25.5 96t112.5 88t95 13q50 -37 107 -73v137h-480v96h960v-96z
" />
    <glyph glyph-name="dvKHx_RA" horiz-adv-x="866" 
d="M-15 619h887v-96h-76v-579l-124 56v153l-14 -10q-24 -21 -110.5 -92t-124.5 -107l-84 66q12 7 76 45q-127 -16 -236.5 47.5t-141.5 188.5q22 61 46 89q9 11 33 -1t42 -30q6 -6 9.5 -17t7 -29t7.5 -30q40 13 62.5 41t26.5 64t-1.5 72t-18.5 73h-266v96zM580 459
q27 -20 92 -63v127h-355q57 -86 55 -166q42 53 110.5 87.5t97.5 14.5zM440 211q14 -16 45.5 -22.5t84 12t102.5 69.5v71q-73 31 -132 10.5t-91.5 -67t-8.5 -73.5zM346 262l-2 3q-39 -63 -128 -95q57 -38 127.5 -49t138.5 9q-89 38 -136 132zM113 -91q-54 25 -80 78
q2 17 31.5 43.5t46.5 30.5q55 -24 79 -75q-16 -45 -77 -77z" />
    <glyph glyph-name="dvGx_RA" horiz-adv-x="703" 
d="M502 0v97q-63 -95 -145 -161l-84 66q162 119 229 196v325h-244q65 -70 89.5 -149.5t10.5 -141t-58 -102t-108 -40.5q-17 0 -53 38t-44 57q-10 24 2.5 74t37.5 59q3 1 28.5 -15t32.5 -22q4 -3 6 -6.5t4 -9t3 -8t3 -12t3 -13.5q44 65 40.5 148t-49.5 143h-220v96h722v-96
h-82v-579zM103 -90q-54 25 -80 78q2 17 31.5 43.5t46.5 30.5q55 -24 79 -75q-16 -45 -77 -77z" />
    <glyph glyph-name="dvJx_RA" horiz-adv-x="828" 
d="M122 121q55 -24 79 -75q-16 -45 -77 -77q-54 25 -80 78q2 17 31.5 43.5t46.5 30.5zM-6 619h844v-96h-86v-579l-124 56v99q-56 -79 -149 -163l-84 66q55 41 88 66.5t74.5 63t70.5 71.5v102h-147q27 -24 47.5 -49.5t25.5 -39.5q12 -37 -18.5 -75t-80 -59.5t-103 -29
t-86.5 16.5q-64 44 -231 291l26 16q77 -93 107 -123q109 -106 191 -82q13 4 26.5 10.5t27 18.5t20.5 26.5t4.5 35t-17.5 43.5h-72l-109 96h389v122h-634v96z" />
    <glyph glyph-name="dvPHx_RA" horiz-adv-x="895" 
d="M77 165q46 -19 65 -61q-13 -38 -63 -64q-45 21 -66 64q1 14 25.5 36t38.5 25zM211 523l2 -315q43 -42 117 -12t113 96v231h-232zM914 523h-347v-138q53 42 102 41q28 -1 96 -62.5t96 -103.5q33 -51 -8.5 -139t-102.5 -126l-98 73q53 27 92 100q41 79 18 123
q-24 44 -111 17q-42 -14 -84 -58v-305l-124 56v132l-12 -11q-106 -101 -201 -178l-84 66l51 34t69 45q-17 10 -35 23.5t-39 34t-33 32t-36 38t-29 31.5q-6 6 -6 275h-63v96h889v-96z" />
    <glyph glyph-name="dvK_R" horiz-adv-x="678" 
d="M-27 523v96h870v-96h-343v-132q82 77 141 75q32 -2 92 -58.5t90 -117.5l-62 -42q-25 55 -64.5 76.5t-77.5 12t-71 -34t-48 -55.5v-303l-125 56v151q-25 -27 -188 -180l-84 66q24 18 95 66q-98 32 -163 159q-21 40 25.5 96t112.5 88t95 13q50 -37 107 -73v137h-402z
M132 200q10 -12 33.5 -17t56 -2t74 27t79.5 68v57q-76 38 -138 17t-96.5 -72t-8.5 -78z" />
    <glyph glyph-name="dvKH_R" horiz-adv-x="677" 
d="M-15 619h815v-96h-483q57 -86 55 -166q42 53 110.5 87.5t97.5 14.5q81 -57 137 -92l-4 -54q-85 74 -182 35q-61 -24 -89 -74q-22 -40 -2 -63q11 -13 36.5 -18.5t61.5 -1.5t82.5 36t89.5 88l24 -92q-31 -51 -76 -80q-24 -21 -110.5 -92t-124.5 -107l-84 66q12 7 76 45
q-127 -16 -236.5 47.5t-141.5 188.5q22 61 46 89q9 11 33 -1t42 -30q6 -6 9.5 -17t7 -29t7.5 -30q40 13 62.5 41t26.5 64t-1.5 72t-18.5 73h-266v96zM346 262l-2 3q-39 -63 -128 -95q57 -38 127.5 -49t138.5 9q-89 38 -136 132z" />
    <glyph glyph-name="dvG_R" horiz-adv-x="454" 
d="M-5 523v96h662v-96h-450q65 -70 89.5 -153t10.5 -148t-58.5 -108.5t-107.5 -43.5q-17 0 -53 38t-44 57q-10 24 2.5 74t37.5 59q3 1 28.5 -15t32.5 -22q4 -3 6 -6.5t4 -9t3 -8t3 -12t3 -13.5q44 65 40.5 158t-49.5 153h-160zM455 203l31 -49q-1 -2 -14 -23t-18 -29
t-19 -28.5t-25.5 -34t-28 -32.5t-35.5 -36.5t-40 -34.5l-84 66q55 41 88 66.5t74.5 63t70.5 71.5z" />
    <glyph glyph-name="dvGH_R" horiz-adv-x="488" 
d="M325 364l74 -77q-97 -17 -148 -46.5t-8 -70.5q21 -22 59.5 -18.5t78 21t76 54t53.5 78.5l43 -61l7 8l31 -49q-14 -22 -59.5 -65t-114.5 -102.5t-102 -91.5l-84 66q31 23 96 66q-61 -2 -87 21q-51 42 -110 112q-37 44 47 102q-30 15 -52.5 36.5t-34 49t3 61t56.5 65.5
h-161v96h703v-96h-370q-59 -23 -97 -55t-43 -67t37 -65q65 31 106 28z" />
    <glyph glyph-name="dvNG_R" horiz-adv-x="746" 
d="M638 411q51 -23 75 -71q-17 -43 -74 -72q-51 24 -76 73q2 16 30 41t45 29zM-4 619h782v-96h-329v-134h-221q-23 0 -38 -39q-18 -46 1 -73q13 -19 45 -11q9 2 69 20.5t101.5 28t47.5 4.5q63 -53 122 -144q24 -37 -22 -103t-146 -86l141 -120l-33 -40l-162 154h-6
l-163 -154l-80 88l133 87q-124 52 -225 207l20 19q17 -20 37.5 -40t57.5 -51t83.5 -50t90.5 -19q62 0 117 27.5t71.5 60.5t-4.5 62q-16 16 -53 6t-74 -30t-75.5 -30.5t-56.5 3.5q-108 89 -145 127q-18 26 -11.5 64t32 72.5t51.5 36.5l183 11v46h-341v96z" />
    <glyph glyph-name="dvC_R" horiz-adv-x="555" 
d="M88 319l-96 83h318l98 -83q-125 -43 -150 -95q-15 -32 17 -43q49 -17 136 31q80 45 158 135l78 -72l-21 -28q-19 -42 -94.5 -126.5t-153.5 -158.5l-84 66q36 27 80 63q-64 -8 -89 16q-61 55 -111 118q-31 40 9 94h-95zM-70 523v96h814v-96h-814z" />
    <glyph glyph-name="dvCH_R" horiz-adv-x="626" 
d="M555 439q-18 19 -50 -24q-42 -57 -47 -129q-2 -42 13 -73q62 66 87 127t-3 99zM251 351l71 -72q-38 -15 -70.5 -33.5t-58.5 -41t-30.5 -45t12.5 -45.5q30 -35 78 -31t97 32t97 74q-46 48 -71 87q-12 15 -5.5 50.5t20.5 73t40 73t54 50.5h-213q-46 -19 -77.5 -40.5
t-49 -46.5t-11 -54t37.5 -60q48 25 79 29zM697 619v-96h-160q22 -17 54 -59t46 -67q33 -57 -1.5 -139t-107 -151t-151.5 -105l155 -132l-33 -40l-164 156h-2l-165 -156l-80 88l123 81q-3 2 -9 8q-66 66 -146 170q-17 22 6 55t68 65q-23 15 -43 32t-37 41.5t-21 48.5
t11.5 51.5t53.5 52.5h-122v96h725z" />
    <glyph glyph-name="dvJ_R" horiz-adv-x="628" 
d="M628 203l31 -49q-15 -40 -67.5 -102t-112.5 -116l-84 66q55 41 88 66.5t74.5 63t70.5 71.5zM348 305l-109 96h507l6 -96h-271q27 -24 47.5 -49.5t25.5 -39.5q12 -37 -18.5 -75t-80 -59.5t-103 -29t-86.5 16.5q-64 44 -231 291l26 16q77 -93 107 -123q109 -106 191 -82
q13 4 26.5 10.5t27 18.5t20.5 26.5t4.5 35t-17.5 43.5h-72zM-6 523v96h794v-96h-794z" />
    <glyph glyph-name="dvJH_R" horiz-adv-x="630" 
d="M646 208l31 -49q-16 -42 -63 -116.5t-93 -129.5l-84 66q29 25 60.5 57t51 54.5t52 62.5t45.5 55zM-6 523v96h779v-96h-385l3 -142h-203q-23 0 -38 -37q-18 -45 2 -70q14 -17 45 -9q15 4 59 19t75.5 23.5t38.5 4.5q79 -16 153 3.5t110 70.5q0 1 14 -20.5t27 -43.5t14 -23
q-44 -50 -119 -58.5t-134 18.5q42 -36 73 -67q10 -10 10.5 -33t-11 -51t-32.5 -54t-59 -45t-85 -22q117 -96 169 -130l-39 -42q-106 98 -193 170q-6 0 -34 -3t-41 -3h-34.5t-34.5 4.5t-21 12.5q-58 50 -58 93q0 12 24 35t48 29q20 -10 102 -75q59 -12 117 12.5t82.5 62.5
t-0.5 63q-16 16 -48.5 6t-64.5 -30t-66 -30.5t-52 3.5q-108 88 -144 127q-18 26 -12 64t31.5 72.5t51.5 36.5l163 11v47h-283z" />
    <glyph glyph-name="dvNY_R" horiz-adv-x="569" 
d="M573 203l31 -49q-15 -40 -67.5 -102t-112.5 -116l-84 66q55 41 88 66.5t74.5 63t70.5 71.5zM263 417q19 -1 43.5 -17t42 -32t44.5 -44q74 -16 133 -3.5t76 52.5l14 -21q13 -22 27 -44l14 -22q-57 -52 -110 -54t-107 42q44 -78 5 -132.5t-134 -67.5q-50 -6 -96 7t-89 45.5
t-74.5 65t-73.5 83.5l33 26q68 -84 145 -119.5t133.5 -20.5t77.5 70q17 45 -17.5 79.5t-84.5 7.5l-85 -45l-80 74q122 73 163 70zM-75 523v96h718v-96h-718z" />
    <glyph glyph-name="dvTT_R" horiz-adv-x="570" 
d="M236 -205q8 2 122 -77.5t120 -87.5q-1 -3 -16.5 -13t-20.5 -12q-3 2 -72 36t-134 66.5t-70 37.5q3 10 31.5 28.5t39.5 21.5zM460 381h-194q-47 0 -74 -64q-30 -72 -9 -145q25 -85 106 -93h3q27 -2 50.5 3.5t45 23.5t32.5 29t34 40.5t29 36.5l85 -75q-31 -43 -52 -67.5
t-55.5 -48.5t-75.5 -34l153 -131l-33 -40l-165 157l-166 -157l-80 88l156 102q-8 5 -22 17q-43 35 -65 53.5t-52.5 50t-50.5 60.5q-20 28 -15.5 72.5t20.5 87.5t44 75t56 35l184 11v55h-357v96h618v-96h-150v-142z" />
    <glyph glyph-name="dvTTH_R" horiz-adv-x="593" 
d="M253 -204q8 2 122 -77.5t120 -87.5q-1 -3 -16.5 -13t-20.5 -12q-3 2 -72 36t-134 66.5t-70 37.5q3 10 31.5 28.5t39.5 21.5zM456 381h-187q-52 0 -81.5 -72.5t-3 -148t112.5 -82.5q54 -4 101 20t74 65.5t25 100.5t-41 117zM630 523h-170v-115q83 -56 112 -124.5t9 -126
t-69.5 -103t-116.5 -64.5l157 -134l-33 -40l-165 157l-166 -157l-80 88l149 98q-11 7 -29 21q-43 35 -65 53.5t-52.5 50t-50.5 60.5q-20 28 -15.5 72.5t20.5 87.5t44 75t56 35l184 11v55h-357v96h638v-96z" />
    <glyph glyph-name="dvDD_R" horiz-adv-x="617" 
d="M246 -202q8 2 122 -77.5t120 -87.5q-1 -3 -16.5 -13t-20.5 -12q-3 2 -72 36t-134 66.5t-70 37.5q3 10 31.5 28.5t39.5 21.5zM449 389h-221q-23 0 -38 -39q-18 -46 1 -73q13 -19 45 -11q9 2 69 20.5t101.5 28t47.5 4.5q63 -53 122 -144q6 -14 6.5 -34t-14 -45.5t-35.5 -48
t-59.5 -40.5t-84.5 -24l149 -127l-33 -40l-165 157l-166 -157l-80 88l146 96q-125 52 -227 208l20 19q17 -20 37.5 -40t57.5 -51t83.5 -50t90.5 -19q62 0 117 27.5t71.5 60.5t-4.5 62q-16 16 -53 6t-74 -30t-75.5 -30.5t-56.5 3.5q-108 89 -145 127q-18 26 -11.5 64t32 72.5
t51.5 36.5l183 11v46h-361v96h659v-96h-186v-134z" />
    <glyph glyph-name="dvDDH_R" horiz-adv-x="617" 
d="M250 -204q8 2 122 -77.5t120 -87.5q-1 -3 -16.5 -13t-20.5 -12q-3 2 -72 36t-134 66.5t-70 37.5q3 10 31.5 28.5t39.5 21.5zM467 228q-14 13 -43.5 0.5t-48.5 -48.5t-3 -82q41 18 76.5 65.5t18.5 64.5zM460 382h-191q-30 0 -54.5 -30t-33 -73t-5 -87t30 -76.5t71.5 -35.5
q34 -3 62 5q-41 45 -55 77t14.5 70.5t64.5 62.5t51 24q18 0 85 -66.5t72 -83.5q6 -25 -21 -62t-70 -72q-47 -37 -95 -49l152 -130l-33 -40l-165 157l-166 -157l-80 88l156 103q-20 14 -22 16q-43 35 -65 53.5t-52.5 50t-50.5 60.5q-20 28 -15.5 72.5t20.5 87.5t44 75t56 35
l184 11v55h-357v96h628v-96h-160v-141z" />
    <glyph glyph-name="dvNN_R" horiz-adv-x="585" 
d="M-12 522v97h686v-97h-169v-298q0 -40 -68.5 -96.5t-137.5 -56.5q-71 0 -235 174q-7 7 -12 277h-64zM176 205q30 -27 69 -26t78.5 29.5t57.5 72.5v241h-207zM588 203l31 -49q-15 -40 -67.5 -102t-112.5 -116l-84 66q55 41 88 66.5t74.5 63t70.5 71.5z" />
    <glyph glyph-name="dvT_R" horiz-adv-x="332" 
d="M379 352l-18 -79l-23 12l44 -66q-45 -60 -237 -166l-77 89q200 84 269 143q-105 51 -281 32l-38 124q66 9 177 -17t184 -72zM-7 523v96h476v-96h-476z" />
    <glyph glyph-name="dvTH_R" horiz-adv-x="464" 
d="M180 550q-37 -19 -48 -45t-0.5 -47t32 -35.5t45.5 -14.5q11 0 35.5 24t26.5 34q7 46 -21 76t-70 8zM525 217l3 -5l-2 -2l2 -11q-32 -46 -67 -73q-92 -106 -178 -188l-84 66q79 58 94 70q-36 8 -84 39.5t-86.5 67.5t-66 67t-30.5 40q-2 5 28 20.5t70 36.5t56 34
q-63 19 -108.5 55t-45.5 77q0 30 21 57t50.5 40.5t61.5 18.5t54 -10q49 -30 94 -77.5t55 -74.5q10 -28 -3 -58t-48 -60.5t-63 -51t-74 -49.5q-23 -15 -34 -22q63 -56 133 -53t134 51.5t100 124.5zM345 619h327v-96h-288z" />
    <glyph glyph-name="dvD_R" horiz-adv-x="595" 
d="M580 -119l-114 142l-225 -165l-75 75l107 60q-17 7 -45 30q-43 35 -65 53.5t-52.5 50t-50.5 60.5q-20 28 -15.5 72.5t20.5 87.5t44 75t56 35l184 11v55h-357v96h618v-96h-150v-142h-191q-30 0 -54.5 -30t-32.5 -73t-3.5 -87t32.5 -76t75 -36q60 -5 110 34q-42 55 -37 66
q19 38 70 69q17 11 33 12.5t30 -5.5t26 -17t25 -26q23 -27 28.5 -54.5t-14.5 -53.5l-53 -53l115 -143zM339 -143q8 2 122 -77.5t120 -87.5q-1 -3 -16.5 -13t-20.5 -12q-3 2 -72 36t-134 66.5t-70 37.5q3 10 31.5 28.5t39.5 21.5z" />
    <glyph glyph-name="dvDH_R" horiz-adv-x="444" 
d="M325 364l74 -77q-97 -17 -148 -46.5t-8 -70.5q21 -22 59.5 -18.5t78 21t76 54t53.5 78.5l68 -96q-2 -2 -4 -6q-8 -11 -16 -21l-10 -11q-31 -32 -124 -114t-126 -113l-84 66q38 27 97 66q-50 3 -71 21q-51 42 -110 112q-37 44 47 102q-63 42 -114 100q-37 42 -24 84t48 73
t74 47.5t53 9.5q74 -37 119 -93q20 -23 9 -51.5t-36.5 -53t-66 -39.5t-78.5 -12q23 -25 51 -44q67 35 113 32zM414 523l-39 96h322v-96h-283zM256 537q-11 11 -34 6.5t-45.5 -15.5t-38 -34t-13.5 -50q37 0 73 19.5t52 42t6 31.5z" />
    <glyph glyph-name="dvN_R" horiz-adv-x="496" 
d="M579 315l-21 -61l-55 22l41 -62q-22 -29 -129.5 -99t-204.5 -123l-77 89q86 36 203.5 99t160.5 98l-193 77q24 -51 0.5 -84t-65.5 -48.5t-60 -4.5q-48 28 -121 85q-24 18 -21 48.5t19 60t43 50t51 18.5q5 0 429 -165zM-30 523v96h717v-96h-717zM150 293q26 -16 55 12
t22 76q-73 14 -94 -28q-14 -28 7 -51q4 -6 10 -9z" />
    <glyph glyph-name="dvP_R" horiz-adv-x="404" 
d="M616 619v-96h-433l2 -315q47 -48 135 -4.5t125 128.5l49 -56l1 2l4 -8l27 -30q-36 -47 -84 -92q-105 -103 -228 -204l-84 66q30 19 114 76q-18 9 -36 22.5t-40.5 35t-33.5 32.5t-38 39.5t-30 32.5q-6 6 -6 275h-63v96h619z" />
    <glyph glyph-name="dvPH_R" horiz-adv-x="726" 
d="M183 522l2 -314q43 -42 117 -12t113 96v230h-232zM886 522h-347v-137q53 42 102 41q36 -2 87.5 -38t79.5 -94l-62 -42q-26 38 -65 48t-75 -3t-67 -40v-312l-124 56v132l-12 -11q-106 -101 -201 -178l-84 66l51 34t69 45q-17 10 -35 23.5t-39 34t-33 32t-36 38t-29 31.5
q-6 6 -6 274h-63v97h889v-97z" />
    <glyph glyph-name="dvB_R" horiz-adv-x="375" 
d="M315 197l-122 118q-34 -29 -46 -62t5 -52q11 -12 32.5 -21t58 -6.5t72.5 23.5zM423 314h-1q-48 42 -104.5 45t-93.5 -23l121 -117q40 32 78 95zM208 -56l-84 66q5 4 40 30t55 41q-89 34 -164 182q-21 40 25.5 96t112.5 88t95 13q125 -88 198 -147q-15 -48 -45 -101l6 -9
q-22 -36 -92.5 -111.5t-146.5 -147.5zM-8 619h602v-96h-602v96z" />
    <glyph glyph-name="dvBH_R" horiz-adv-x="499" 
d="M220 432q0 90 -6 96q-23 24 -53.5 6t-40 -49t3.5 -48q22 -17 96 -5zM157 115q9 -7 23 -9.5t26.5 16.5t12.5 54q-31 4 -50 -7t-19.5 -26t7.5 -28zM344 391v-121l218 1v-99h-51l21 -34q-31 -84 -143 -194l-84 66q73 53 111 85t78 77h-150q0 -51 -13.5 -86t-33 -49.5
t-42.5 -19t-40 -1.5t-27 10q-65 44 -106 93q-10 12 -13 31t3 41t21.5 41.5t48.5 31t78 9.5v67q-39 -3 -46 5q-30 30 -70.5 63.5t-61.5 53.5q-18 16 -17.5 43.5t16.5 52.5t40 45.5t52 22t54 -18.5q15 -13 45 -37.5t45.5 -37.5t35.5 -31.5t33 -33.5zM318 619h381v-96h-343z
" />
    <glyph glyph-name="dvM_R" horiz-adv-x="476" 
d="M110 115q9 -7 23 -9.5t26.5 16.5t12.5 54q-31 4 -50 -7t-19.5 -26t7.5 -28zM553 523h-256v-253l247 1v-99h-33l21 -34q-16 -43 -76 -102.5t-129 -99.5l-84 66q152 63 250 170h-196q0 -51 -13.5 -86t-33 -49.5t-42.5 -19t-40 -1.5t-27 10q-65 44 -106 93q-10 12 -13 31
t3 41t21.5 41.5t48.5 31t78 9.5v250h-180v96h560v-96z" />
    </font>
</defs>
</svg>
