<svg
            viewBox="0 0 48 48"
            xmlns="http://www.w3.org/2000/svg"
        >
            <g clipPath="url(#clip0_43_120)">
                <path
                    d="M0 0H4.8V4.8V14.4V19.2V28.8V33.6V43.2V48H0V0Z"
                />
                <path
                    clipRule="evenodd"
                    d="M48 0H4.8V4.8H14.4V14.4H4.8V19.2H14.4V28.8H4.8V33.6H14.4V43.2H4.8V48H48V0ZM28.8 4.8H19.2V14.4H28.8V4.8ZM43.2 4.8H33.6V14.4H43.2V4.8ZM28.8 19.2H19.2V28.8H28.8V19.2ZM43.2 19.2H33.6V28.8H43.2V19.2ZM33.6 43.2V33.6H43.2V43.2H33.6ZM19.2 33.6H28.8V43.2H19.2V33.6Z"
                    fillRule="evenodd"
                />
            </g>
            <defs>
                <clipPath id="clip0_43_120">
                    <rect
                        height="48"
                        width="48"
                    />
                </clipPath>
            </defs>
        </svg>